<svg width="41" height="41" viewBox="0 0 41 41" fill="none" xmlns="http://www.w3.org/2000/svg">
<g clip-path="url(#clip0_82_18)">
<g filter="url(#filter0_d_82_18)">
<path d="M21.5954 9.08615C22.0988 8.58274 22.8961 8.55193 23.4362 8.9924L23.5407 9.08615L33.5944 19.1399C33.7782 19.3236 33.8978 19.5471 33.9557 19.7824C33.9591 19.7961 33.9626 19.8097 33.9655 19.8235C33.971 19.8491 33.9752 19.8748 33.9792 19.9006C33.9818 19.9172 33.984 19.9338 33.986 19.9504C33.989 19.9754 33.9913 20.0005 33.9929 20.0256C33.9939 20.0419 33.9953 20.0581 33.9958 20.0744C33.9965 20.0995 33.9965 20.1245 33.9958 20.1496C33.9952 20.1708 33.9934 20.1919 33.9919 20.2131C33.9904 20.233 33.9883 20.2528 33.986 20.2727C33.9837 20.2929 33.9814 20.3131 33.9782 20.3332C33.9743 20.3571 33.9697 20.3808 33.9645 20.4045C33.9608 20.4216 33.9562 20.4383 33.9518 20.4553C33.9457 20.4792 33.9397 20.503 33.9323 20.5266C33.9266 20.5446 33.9202 20.5624 33.9137 20.5803C33.9053 20.6038 33.8972 20.6275 33.8874 20.6506C33.8816 20.6643 33.8741 20.6771 33.8679 20.6906C33.8558 20.7166 33.8435 20.7424 33.8298 20.7678C33.8216 20.7829 33.8132 20.7979 33.8044 20.8127C33.7919 20.8338 33.779 20.8547 33.7653 20.8752C33.7503 20.8976 33.7339 20.919 33.7175 20.9406C33.6797 20.9905 33.6398 21.0397 33.5944 21.0852L23.5407 31.1389C23.0037 31.6757 22.1323 31.6758 21.5954 31.1389C21.0587 30.6019 21.0587 29.7305 21.5954 29.1936L30.6764 20.1125L21.5954 11.0315L21.5016 10.927C21.0612 10.3869 21.0921 9.58956 21.5954 9.08615Z" fill="white"/>
</g>
</g>
<defs>
<filter id="filter0_d_82_18" x="17.1929" y="8.68378" width="20.8032" height="30.8577" filterUnits="userSpaceOnUse" color-interpolation-filters="sRGB">
<feFlood flood-opacity="0" result="BackgroundImageFix"/>
<feColorMatrix in="SourceAlpha" type="matrix" values="0 0 0 0 0 0 0 0 0 0 0 0 0 0 0 0 0 0 127 0" result="hardAlpha"/>
<feOffset dy="4"/>
<feGaussianBlur stdDeviation="2"/>
<feComposite in2="hardAlpha" operator="out"/>
<feColorMatrix type="matrix" values="0 0 0 0 0 0 0 0 0 0 0 0 0 0 0 0 0 0 0.6 0"/>
<feBlend mode="normal" in2="BackgroundImageFix" result="effect1_dropShadow_82_18"/>
<feBlend mode="normal" in="SourceGraphic" in2="effect1_dropShadow_82_18" result="shape"/>
</filter>
<clipPath id="clip0_82_18">
<rect width="40.2145" height="40.2145" fill="white" transform="translate(0.785645 0.00537109)"/>
</clipPath>
</defs>
</svg>
