<svg fill="#fff" xmlns="http://www.w3.org/2000/svg" viewBox="0 0 156 539">
  <path d="M45.2,173.1h13.7l6.4-8.9s7.5,6.6,12.1,11.2c-.5,2-2.1,2.8-4.1,2.8H8l-1.3-5.1h28.6v-61l15.6,2c-.2,2.5-1.9,4.3-5.7,5M11.7,136.6l-1.3-5.3h44.1l6.7-9s7.2,6.6,11.8,11.5c-.5,2-1.9,2.8-4,2.8M15.5,157l-1.3-5.3h40.7l5.7-7.8s6.4,5.9,10.3,10.3c-.5,2-1.9,2.8-4,2.8M60.2,186.6l12.3,10.3c-.8,1.2-3.3,2.7-6.2,3.4v59.4c0,8.5-1.6,13.5-13.7,14.7-.8-7.8-3.7-9.3-12.6-11v-2.8s11.1,1.1,13.7,1.1,3-1.1,3-3.4v-21.4H24.4c-1.1,13.3-4.6,27.3-15.4,37.4l-1.9-2.1c8.1-14.5,8.1-32.6,8.1-50.2v-34.6l11.6,5.9h28.3l5.1-6.6h0ZM56.7,231.4v-14h-31.8v4.4c0,3,0,6.2-.2,9.6h32ZM24.9,212.1h31.8v-13.6h-31.8v13.6ZM148.4,124.5c-1.4,1.6-4.1,1.6-7.8,0-16.4,3.5-41.7,6.4-64.1,6.5l-.6-3c21.5-3,47.3-10.1,60.8-16l11.8,12.4h0ZM79.3,137.8c24.5,14.4,14.8,34.7,6.5,26.4,0-8.5-4.3-19-8.4-25.3l1.9-1.1h0ZM100.8,135.7c24.2,15.1,14.2,36.5,5.9,27.6.6-8.9-3.5-20-7.8-26.8l1.9-.9ZM139.9,233c-.3,1.4-6.4,4-9.5,3.5v-9h-51.1l-1.4-5.1h52.5v-45.9h-17.8v80.8c0,8.9-1.9,15.6-15.9,17.2-1.1-10.1-5.6-10.7-17-12.6v-2.8s16.4,1.4,19.6,1.4,3.8-1.1,3.8-3.7v-80.3h-22.1l-1.4-5.3h49.3l5.6-6.4,11.8,10.1c-1,1.2-3.3,2.7-6.2,3.4v54.8ZM73.7,201.8l-1.3-5.3h68.1s5.2-8,5.2-8h0s6.2,5.9,10.2,10.5c-.5,2-1.9,2.8-4,2.8M121.3,166.9c4.1-9,9.2-23,13.1-36.2l14.5,6.4c-.6,2.1-2.5,3.4-5.6,3-5.9,10.1-13.1,21.3-19.6,28.4l-2.4-1.6ZM72.3,362.3c23.5-4.6,34.7-17.7,34.7-36.7,0-20.4-14.7-32.1-31.9-30.2,2.3,3.4,4.2,7.1,4.2,11.2.3,15.6-13.4,48.1-27.9,49.7-6.4,0-13.1-11.2-13.1-24.2-.3-21.1,19.1-41.3,40.7-40.5,45.8.4,50.2,71.5-6.3,73.1l-.4-2.5h0ZM71.6,296c-15.3,3.4-27.9,18.4-27.7,34.4,0,10.1,4.2,17.6,8,17.6,6.4,0,15.1-16.3,19-26.2,2.9-8.4,5.5-18.1.7-25.8M91.3,449.7c13,15.1,37.9,25.7,60.2,30.5l-.2,1.8c-4.4,1.1-7.5,4.8-8.8,10.3-12.7-4.6-25-11-35.6-19.5-.7.9-1.9,1.4-3.7,1.6v60.6c0,2-7,4.5-10.6,3.9v-70.2l10.9,1.2c-6.7-5.9-12.5-12.6-16.7-20.2h-17.6c-4.7,7.1-10.2,13.5-16.7,19.1l12.4,1.6c-.3,2.1-1.5,3.7-5.4,4.3v13.8c-.3,19.7-7.8,40.2-49.6,50.5l-1.5-2.5c34-11.5,40.6-30,40.6-48.4v-16.5c-12.5,9.9-28.1,17.6-46,23l-1.3-3c23.1-9.7,41.8-24.3,53.5-42h-20v5.1c.1,1.7-6.7,4.5-10.6,3.9v-77.8l11.5,5.7h80.3l5.9-7.1,13.3,11c-1.1,1.4-3.7,2.8-7,3.5v59.6c-.4,1.5-7.3,4.5-10.6,3.9v-7.8h-26.8,0ZM81.3,444.3h36.9v-24.3H35.2v24.3h35.4v-52.5h-35.4v23h82.9v-23h-36.9v52.5ZM21.9,10.1c-.3-3-1.8-6-4.5-8.9l.7-.4c16.9,2.6,10.2,13.7,3.8,9.4ZM59.7,48.6v17.8c-1.1,1.1-5.5,1.9-7.2,1.7v-4H19.3v2.5c-1.3,1.6-4.8,1.9-6.8,1.9v-19.9h47.3ZM12.6,30c19.8,3.2,11.1,14.4,5.1,9.4.1-2.7-1.8-8.2-5.1-9.4ZM19.3,62h33.3v-11.3H19.3v11.3ZM10.1,21.9l-.6-2.1h54v2.1H10.1ZM69.6,28.9v2H3.4s-.6-2.1-.6-2.1h66.8ZM39.3,40.4h6.6c1.2-3,2.6-6.5,3.7-9.8l6.3,2.5c-2.5,3.2-5.1,5.6-7.6,7.3h23.4v2.1H.6l-.6-2.1h32.1s0-27.6,0-27.6H6.3l-.7-2.1h35.8c1.3-2.5,2.7-5.9,4.1-10.2l7,2.4c-2.4,3.1-5.4,5.7-8.8,7.8h23v2.1h-27.4v27.6ZM89,20.9l-.6-2.1h48.2c.5-3,1-5.7,1.5-8.1h-48.5c.5,4.9-2.4,10.6-7.7,10-3.8-.8-3.9-5.4,0-6.9,3-1.4,5.6-5.6,5.1-9h1.2c.6,1.3,1,2.6,1.2,3.8h20V0l7.4.9v7.6h29.2v3.5c-2.3,2.2-4.9,4.2-8,6,.9.8,1.6,1.4,2,1.8-.2.8-.9,1.2-2.1,1.2M128.5,28.4h-30.6v5.4h30.6v-5.4ZM128.5,36h-30.6v5.2h30.6v-5.2ZM97.9,48.8h30.6v-5.5h-30.6v5.5ZM108.2,26.3h9.7v-14.6l6.9.9v13.7s10.9,0,10.9,0v24.9c-.6.9-3.4,1.7-4.6,2,10.1,1.8,7.7,9.4,2.3,7.3-1.3-2.4-4.9-5.4-7.3-7l.7-.7c.3,0,1.3.1,1.7,0v-1.9h-5.4v9.5c0,1.3,1.1,1.2,2.9,1.2,3.6,0,13.1,0,14.7,0s1.9-.4,4.6-8.4h.9s.2,7.7.2,7.7c3.4,1.1,3.7,4.1.2,5.4s-16.6,1-21.9,1c-5.9-.3-8.3.1-8.4-5.6v-10.7h-5.9c-4.9,13.7-17.3,15.6-32.5,17.6l-.2-1c12-2.8,20.9-5.6,24.4-16.6h-4v1.8c-.9,1.7-5.1,2.3-7.1,2.2v-28.7h10.7v-14.6l6.8.9v13.7ZM33.5,90.8h-.8v-4.5h-4.1v4.5h-.8v-8.4h.8v3.6h4.1v-3.6h.8v8.4ZM41.7,90.8h-.9l-1.4-3.6h-2v-.3h1.9l-1.3-3.3-2.8,7.1h-.3l3.4-8.5,3.4,8.5ZM44.7,90.8h-1.6v-8.4h1.5c3.7,0,4,2.7,1.5,3.9,3.1.5,3.2,4.5-1.4,4.5ZM44.8,86.5v-.3c.6,0,2,0,2-1.9s-1.3-1.8-2.9-1.8v7.9c1,0,3.5,0,3.5-2s-2-2.1-2.6-2.1ZM66.9,90.8h-1.6v-8.4h1.5c3.7,0,4,2.7,1.5,3.9,3.1.5,3.2,4.5-1.4,4.5ZM67,86.5v-.3c.6,0,2,0,2-1.9s-1.3-1.8-2.9-1.8v7.9c1,0,3.5,0,3.5-2s-2-2.1-2.6-2.1ZM50.6,90.8h-.8v-8.4h.8v8.4ZM58.1,82.6h-2.3v8.1h-.8v-8.1h-2.3v-.3h5.4v.3ZM63.9,90.8h-.9l-1.4-3.6h-2v-.3h1.9l-1.3-3.3-2.8,7.1h-.3l3.4-8.5,3.4,8.5ZM76,90.8h-4v-8.4h.8v8.1h3.2v.3ZM81.3,90.8h-4v-8.4h3.9v.3h-3v3.4h2.7v.3h-2.7v4.2h3.2v.3h0ZM90.6,86.9v-.3c1.8,0,2.4-.9,2.4-2.1,0-2.1-1.7-1.9-3.2-1.9v8.2h-.8v-8.4c2.5,0,4.9-.3,4.9,2.3s-2.5,2.4-3.2,2.3ZM99,90.8h-4v-8.4h.8v8.1h3.2v.3ZM106.4,90.8h-.9l-1.4-3.6h-2v-.3h1.9l-1.3-3.3-2.8,7.1h-.3l3.4-8.5,3.4,8.5ZM114.3,89.6c-2.2,2.7-6.6.8-6.6-3s3.8-5.5,6.2-3.5l-.3.4c-2.2-2.1-5-.7-5,3.1s3.7,5.2,5.2,2.8c0,0,.4.3.4.3ZM119.9,90.8h-4v-8.4h3.9v.3h-3v3.4h2.7v.3h-2.7v4.2h3.2v.3h0Z"/>
</svg>