<svg width="156" height="539" viewBox="0 0 156 539" fill="none" xmlns="http://www.w3.org/2000/svg">
<path d="M35.3554 173.085V156.954H15.4661L14.1889 151.631H35.3554V136.565H11.6502L10.373 131.242H35.3554V112.094L50.9461 114.046C50.7903 116.53 49.0303 118.304 45.2145 119.014V131.242H54.4505L61.1322 122.208C61.1322 122.208 68.2967 128.773 72.9069 133.726C72.4241 135.678 70.9912 136.565 68.9197 136.565H45.1989V151.631H54.9022L60.6338 143.84C60.6338 143.84 67.004 149.695 70.9756 154.115C70.4928 156.067 69.0755 156.954 67.004 156.954H45.1989V173.085H58.8894L65.2596 164.229C65.2596 164.229 72.7356 170.795 77.3614 175.392C76.8786 177.344 75.2899 178.231 73.2184 178.231H7.99002L6.71286 173.085H35.3554ZM60.1821 186.555L72.4397 196.83C71.6454 198.072 69.1066 199.492 66.2408 200.201V259.579C66.2408 268.08 64.6522 273.049 52.5503 274.291C52.2388 271.452 51.6002 268.613 49.8403 267.032C48.2516 265.435 45.23 264.193 39.9657 263.306V260.467C39.9657 260.467 51.1018 261.531 53.6561 261.531C56.0391 261.531 56.6777 260.467 56.6777 258.16V236.722H24.375C23.2692 250.014 19.7648 264.015 8.94009 274.113L7.02436 271.984C15.139 257.45 15.139 239.367 15.139 221.833V187.28L26.758 193.136H55.0891L60.1821 186.571V186.555ZM56.6933 231.399V217.397H24.8578V221.833C24.8578 224.849 24.8578 228.043 24.7021 231.399H56.6933ZM24.8578 212.074H56.6933V198.427H24.8578V212.074ZM145.814 188.506C145.814 188.506 152.013 194.362 156 198.959C155.517 200.911 154.084 201.798 152.013 201.798H139.926V232.996C139.771 234.06 134.989 236.544 131.812 236.544H130.379V227.511H112.561V257.289C112.561 266.145 110.645 272.887 96.6434 274.484C96.4876 271.113 95.3662 267.758 93.466 266.338C91.0831 264.209 87.0958 262.79 79.6198 261.902V259.063C79.6198 259.063 96.0048 260.483 99.1977 260.483C102.219 260.483 103.014 259.418 103.014 256.757V227.511H79.2927L77.8598 222.365H102.998V201.798H73.7169L72.4397 196.475H102.998V176.44H80.8814L79.4485 171.117H128.79L134.366 164.729L146.141 174.827C145.191 176.069 142.792 177.489 139.942 178.199V196.459H140.581L145.829 188.49L145.814 188.506ZM148.353 124.531C146.92 126.128 144.21 126.128 140.549 124.531C124.165 128.08 98.855 130.919 76.4113 131.08L75.7728 128.064C97.2664 125.047 123.043 117.966 136.578 112.11L148.353 124.515V124.531ZM79.2927 137.823C103.808 152.18 94.0891 172.569 85.8187 164.229C85.8187 155.728 81.52 145.259 77.3926 138.888L79.3083 137.823H79.2927ZM100.771 135.694C124.959 150.76 114.944 172.198 106.658 163.342C107.297 154.486 103.154 143.307 98.855 136.581L100.771 135.694ZM112.546 196.491H130.363V176.457H112.546V196.491ZM130.379 201.798H112.561V222.365H130.379V201.798ZM121.299 166.891C125.442 157.858 130.535 143.856 134.351 130.741L148.835 137.113C148.197 139.242 146.297 140.485 143.26 140.13C137.372 150.228 130.208 161.406 123.682 168.488L121.299 166.891ZM72.3307 362.269C95.8646 357.688 107.079 344.606 107.079 325.539C107.079 306.472 94.4784 295.1 78.5763 295.1C77.5016 295.1 76.3335 295.213 75.1653 295.31C77.5016 298.713 79.355 302.439 79.355 306.488C79.355 311.489 78.3738 317.344 76.4269 323.41C72.4241 335.863 61.3035 356.188 51.4445 356.188C44.9964 356.188 38.3614 345.009 38.3614 332.024C38.3614 321.587 42.9561 310.634 51.1486 302.746C58.9517 295.084 68.8263 291.567 79.0747 291.567C98.8862 291.567 114.119 305.73 114.119 327.329C114.119 344.783 103.964 362.35 72.7356 364.689L72.3462 362.237L72.3307 362.269ZM71.5519 295.955C64.9169 297.552 58.5623 301.068 53.6873 306.392C47.5351 312.892 43.8283 321.297 43.8283 330.346C43.8283 340.46 48.018 347.913 51.8339 347.913C58.2819 347.913 66.9573 331.62 70.8666 321.732C72.72 316.731 74.2931 310.344 74.2931 305.553C74.2931 301.826 73.2184 298.955 71.5519 295.971M91.3323 449.651C104.337 464.717 129.211 475.347 151.483 480.138L151.327 481.913C146.935 482.977 143.851 486.703 142.543 492.188C129.865 487.574 117.514 481.203 106.938 472.686C106.284 473.573 104.992 474.105 103.2 474.283V534.903C103.2 536.322 98.4812 538.806 94.7432 538.806H92.625V468.621L103.512 469.863C96.8458 464.007 90.9896 457.281 86.7688 449.667H69.2156C64.4964 456.748 58.9672 463.136 52.4724 468.814L64.8235 470.411C64.4964 472.54 63.3594 474.137 59.4501 474.67V488.494C59.123 508.174 51.647 528.725 9.8746 539L8.41054 536.516C42.3798 524.998 49.0459 506.561 49.0459 488.139V471.653C36.5236 481.574 20.9173 489.204 3.03714 494.688L1.74441 491.672C24.8267 481.929 43.5168 467.395 55.2292 449.667H35.2308V454.812C35.2308 456.055 30.6829 458.716 26.4465 458.716H24.6553V380.917L36.1965 386.595H116.502L122.358 379.497L135.69 390.482C134.553 391.902 131.952 393.321 128.697 394.031V453.587C128.526 454.651 123.012 457.49 119.757 457.49H118.137V449.699H91.3167L91.3323 449.651ZM35.2464 414.904H70.6797V391.869H35.2464V414.904ZM35.2464 444.327H70.6797V420.05H35.2464V444.327ZM81.2552 414.904H118.153V391.869H81.2552V414.904ZM118.153 420.05H81.2552V444.327H118.153V420.05ZM71.6454 40.4242V42.5535H0.623003L0 40.4242H19.4221C18.7991 40.1822 18.2073 39.8435 17.6466 39.3918C17.6933 37.9723 17.3818 36.4882 16.7121 34.9235C16.0891 33.3588 15.2947 32.0684 14.3135 31.036L3.39537 30.9553L2.77236 28.9067H32.1002V21.8736H10.1394L9.51637 19.7443H32.1158V12.7757H6.33906L5.63818 10.6464H22.8954C22.5371 10.5013 22.1945 10.3077 21.883 10.0657C21.5715 7.0331 20.0763 4.04887 17.3974 1.12917L18.0982 0.693631C21.8051 1.17756 24.5463 2.12929 26.2907 3.54881C28.0974 4.96834 28.9229 6.3556 28.7672 7.72673C28.6114 9.04947 27.9105 10.0173 26.6801 10.6626H41.4609C42.8003 8.13 44.1709 4.72637 45.5571 0.467798L52.5192 2.88744C50.0895 5.96846 47.1458 8.54941 43.7037 10.6626H66.6769V12.7919H39.2959V19.7604H63.5152V21.8897H39.2959V28.9228H69.6206V30.9714H50.5879L55.8522 33.1007C53.3291 36.2785 50.7903 38.7143 48.2672 40.4242H71.6298H71.6454ZM51.756 48.5542H59.7304V66.3628C59.6837 66.6047 58.9361 66.9435 57.4876 67.3952C56.0391 67.8307 54.8087 68.0565 53.7807 68.0565H52.5503V64.1044H19.2664V66.6047C19.2664 66.7983 18.986 67.0403 18.4097 67.3306C17.849 67.621 17.0703 67.8952 16.0891 68.1372C15.1546 68.3792 14.2823 68.5082 13.4569 68.5082H12.4601V48.5703H51.756V48.5542ZM32.1158 30.9553H16.8678C19.9673 31.6973 22.1478 32.7459 23.4405 34.1009C24.7332 35.472 25.1693 36.7463 24.7488 37.9078C24.3906 39.0853 23.5962 39.908 22.3502 40.3919H32.1002V30.9392L32.1158 30.9553ZM19.2664 61.9752H52.5347V50.6835H19.2664V61.9752ZM49.3574 30.9553H39.2959V40.4081H45.8686C47.1146 37.4238 48.2672 34.2783 49.3574 30.9553ZM146.063 53.1515L146.297 60.846C148.041 61.3783 148.929 62.2816 148.929 63.556C148.929 64.9755 147.87 65.9434 145.752 66.4918C143.68 67.0241 139.506 67.2984 133.214 67.2984H124.554C121.05 67.2984 118.744 66.9274 117.67 66.2015C116.642 65.4594 116.128 63.9593 116.128 61.6525V50.9416H110.24C108.589 56.3616 105.101 60.4266 99.7895 63.1043C94.5252 65.8466 87.1737 67.6533 77.7352 68.5243L77.5016 67.4919C84.8219 65.9756 90.4289 63.927 94.2915 61.3299C98.1541 58.7328 100.693 55.2647 101.877 50.9254H97.8582V52.7644C97.8582 53.1515 97.1885 53.6193 95.849 54.1516C94.5096 54.684 93.139 54.9582 91.7528 54.9582H90.756V26.2935H101.425V20.8735H89.0427L88.4197 18.7442H101.425V11.7111L108.231 12.5983V18.7603H117.903V11.7272L124.788 12.6144V18.7764H136.625C137.139 15.7922 137.637 13.0822 138.089 10.6464H89.5723C89.728 12.8886 89.4165 14.8244 88.6378 16.4375C87.859 18.0505 86.8311 19.1958 85.5383 19.8733C84.4481 20.567 83.2488 20.8089 81.9093 20.6154C80.5699 20.3734 79.6977 19.6959 79.2772 18.5667C78.5607 16.5665 79.4329 14.9534 81.9093 13.7274C83.4045 13.0016 84.6661 11.7756 85.6941 10.0657C86.7843 8.35584 87.2204 6.5653 87.0024 4.71024L88.1549 4.62959C88.7156 6.04911 89.105 7.33959 89.3231 8.51715H109.29V0L116.642 0.887203V8.51715H145.814V11.9692C143.54 14.2114 140.892 16.2116 137.839 17.986C138.774 18.7603 139.444 19.3572 139.849 19.7443C139.646 20.5347 138.945 20.9219 137.762 20.9219H124.756V26.3419H135.659V51.1997C135.612 51.4416 135.067 51.7804 134.039 52.2159C133.058 52.6515 132.061 52.9741 131.018 53.1677C134.88 53.8451 137.154 55.2485 137.824 57.3456C138.244 58.6683 137.855 59.7007 136.671 60.4266C135.737 60.9589 134.631 60.9589 133.338 60.4266C132.715 59.2974 131.687 58.0876 130.239 56.7649C128.853 55.4421 127.451 54.3452 126.065 53.458L126.766 52.7966C126.968 52.7966 127.248 52.8289 127.622 52.8773H128.479V50.9738H123.059V60.4266C123.059 60.9105 123.214 61.2331 123.526 61.3783C123.884 61.5235 124.679 61.6041 125.925 61.6041H133.821C137.59 61.6041 139.864 61.5719 140.627 61.5235C141.453 61.5235 142.045 61.2331 142.403 60.6363C142.964 59.7652 143.898 57.2649 145.191 53.1677H146.048L146.063 53.1515ZM128.494 28.4389H97.8582V33.8589H128.494V28.4389ZM128.494 35.9882H97.8582V41.1985H128.494V35.9882ZM97.8582 48.8284H128.494V43.3278H97.8582V48.8284ZM108.231 26.3096H117.903V20.8896H108.231V26.3096ZM33.4864 90.7689H32.6454V86.2845H28.518V90.7689H27.6769V82.3808H28.518V86.0264H32.6454V82.3808H33.4864V90.7689ZM41.7101 90.7851H40.8223L39.4049 87.2201H37.4113V86.962H39.2959L37.9876 83.6713L35.1685 90.7851H34.8726L38.2835 82.2518L41.7101 90.7851ZM48.2672 88.4622C48.2672 89.3171 47.8778 89.9462 47.1146 90.3334C46.5072 90.656 45.6973 90.8012 44.7005 90.8012C44.5292 90.8012 43.9996 90.8012 43.1274 90.8012V82.4131H44.5914C45.4169 82.4131 46.1022 82.5421 46.6474 82.7841C47.3638 83.1067 47.722 83.6229 47.722 84.2843C47.722 84.6876 47.5507 85.107 47.2081 85.5102C46.8966 85.8812 46.5228 86.1555 46.1022 86.3329C46.7252 86.4458 47.2236 86.6555 47.613 86.9943C48.0647 87.3814 48.2827 87.8815 48.2827 88.4783L48.2672 88.4622ZM47.4417 88.4622C47.4417 87.7847 47.2236 87.2846 46.7875 86.9459C46.4137 86.6555 45.9153 86.5104 45.3079 86.5104H44.8407V86.2523H45.2145C45.8063 86.2523 46.258 86.0264 46.5539 85.5586C46.772 85.2199 46.881 84.8327 46.881 84.3811C46.881 83.2196 46.0867 82.6389 44.4824 82.6389H43.9684V90.5431H44.4357C46.4449 90.5431 47.4417 89.8495 47.4417 88.4622ZM50.6346 90.7689H49.7935V82.3808H50.6346V90.7689ZM58.1262 82.6389H55.8678V90.7851H55.0268V82.6389H52.7372V82.3808H58.1262V82.6389ZM63.8734 90.7851H62.9856L61.5683 87.2201H59.5747V86.962H61.4593L60.151 83.6713L57.3319 90.7851H57.0359L60.4469 82.2518L63.8734 90.7851ZM70.4305 88.4622C70.4305 89.3171 70.0411 89.9462 69.2779 90.3334C68.6705 90.656 67.8606 90.8012 66.8638 90.8012C66.6925 90.8012 66.1629 90.8012 65.2907 90.8012V82.4131H66.7548C67.5803 82.4131 68.2656 82.5421 68.8107 82.7841C69.5272 83.1067 69.8854 83.6229 69.8854 84.2843C69.8854 84.6876 69.7141 85.107 69.3714 85.5102C69.0599 85.8812 68.6861 86.1555 68.2656 86.3329C68.8886 86.4458 69.387 86.6555 69.7764 86.9943C70.228 87.3814 70.4461 87.8815 70.4461 88.4783L70.4305 88.4622ZM69.605 88.4622C69.605 87.7847 69.387 87.2846 68.9509 86.9459C68.5771 86.6555 68.0787 86.5104 67.4712 86.5104H67.004V86.2523H67.3778C67.9696 86.2523 68.4213 86.0264 68.7172 85.5586C68.9353 85.2199 69.0443 84.8327 69.0443 84.3811C69.0443 83.2196 68.25 82.6389 66.6458 82.6389H66.1318V90.5431H66.599C68.6082 90.5431 69.605 89.8495 69.605 88.4622ZM75.9752 90.7851H71.9569V82.3808H72.7979V90.527H75.9752V90.7851ZM81.2552 90.7851H77.2368V82.3808H81.115V82.6389H78.0779V86.0426H80.8191V86.3007H78.0779V90.5431H81.2552V90.8012V90.7851ZM93.8243 84.6553C93.8243 85.3005 93.5439 85.8329 92.9832 86.2845C92.4225 86.7362 91.7528 86.9459 90.9896 86.9298C90.8183 86.9298 90.6781 86.9298 90.5535 86.9298V86.6717H90.8027C91.488 86.6717 92.0331 86.462 92.4225 86.0587C92.7963 85.6877 92.9676 85.2199 92.9676 84.623C92.9676 83.2519 92.1577 82.5744 90.5535 82.6067H89.6969V90.7689H88.8714V82.3808C89.2764 82.3808 89.9305 82.3808 90.8027 82.3808C92.7963 82.3808 93.7931 83.1228 93.7931 84.6553H93.8243ZM99.0419 90.7851H95.0236V82.3808H95.8646V90.527H99.0419V90.7851ZM106.393 90.7851H105.506L104.088 87.2201H102.095V86.962H103.979L102.671 83.6713L99.8518 90.7851H99.5559L102.967 82.2518L106.393 90.7851ZM114.259 89.6236C113.605 90.4624 112.732 90.8657 111.627 90.8657C110.521 90.8657 109.649 90.4302 108.854 89.5752C108.06 88.7203 107.671 87.7202 107.671 86.5749C107.671 85.4296 108.029 84.4133 108.745 83.5745C109.477 82.7196 110.349 82.284 111.393 82.284C112.436 82.284 113.246 82.5583 113.916 83.1228L113.589 83.4939C112.982 82.8486 112.25 82.526 111.393 82.526C110.536 82.526 109.882 82.9293 109.368 83.7197C108.885 84.4617 108.636 85.4134 108.636 86.5587C108.636 87.704 108.917 88.6396 109.477 89.3978C110.054 90.1882 110.754 90.5915 111.611 90.5915C112.592 90.5915 113.355 90.1721 113.885 89.3333L114.243 89.6075L114.259 89.6236ZM119.881 90.7851H115.863V82.3808H119.741V82.6389H116.704V86.0426H119.43V86.3007H116.704V90.5431H119.881V90.8012V90.7851Z" fill="white"/>
</svg>
