<svg width="155" height="31" viewBox="0 0 155 31" fill="none" xmlns="http://www.w3.org/2000/svg">
<g clip-path="url(#clip0_212_411)">
<path d="M55.9778 14.3731C56.1446 13.7528 56.4933 13.5258 57.0391 13.6922C57.4788 13.8133 57.9337 13.9797 58.4189 14.1764C58.8131 14.2823 59.086 14.4941 59.2073 14.8269C59.1466 15.4019 58.8434 15.6288 58.2824 15.4775C58.0701 15.4775 57.8882 15.5229 57.7366 15.6137C57.4637 15.8103 57.1908 16.0373 56.9178 16.2945C56.5236 16.6727 56.5388 16.8694 56.9785 16.8694H58.8586C59.3286 17.0812 59.8744 16.7181 60.4961 15.7801C61.0874 15.1447 61.6787 15.0388 62.2397 15.4624L64.1197 16.8391C64.3017 16.9904 64.3017 17.172 64.1197 17.4141C63.9985 17.52 63.6649 17.5805 63.1191 17.5805H41.6801C41.4072 17.5956 41.1343 17.641 40.8614 17.7166C40.2701 17.8074 39.9062 17.6713 39.8001 17.3082C39.6788 16.8997 39.8759 16.703 40.4217 16.7332C40.8008 16.7484 41.2101 16.7938 41.6498 16.8694H45.9103C46.3652 16.8694 46.4865 16.5819 46.259 16.0222C46.0013 15.1144 45.6829 14.3579 45.2735 13.7376C45.3645 13.5107 45.5768 13.4804 45.8952 13.6771C47.5781 14.4336 48.3969 15.3565 48.3665 16.4155C48.2756 16.703 48.4424 16.8543 48.882 16.8543H54.4465C54.8862 16.8543 55.2197 16.5819 55.4471 16.0373L55.9626 14.3579L55.9778 14.3731ZM55.1439 2.22421C55.2955 1.63417 55.6442 1.40723 56.2052 1.54339C56.463 1.57365 56.7056 1.6493 56.9633 1.74007C57.8124 1.84598 58.2976 2.17882 58.434 2.73861C58.3582 3.04119 58.1156 3.20762 57.7063 3.22275C57.2969 3.10171 56.9482 3.29839 56.6753 3.84305L55.811 4.93236C55.341 5.50728 55.3258 5.79473 55.7504 5.79473H57.4637C57.9337 6.00654 58.4795 5.64344 59.086 4.70542C59.6622 4.05486 60.2383 3.93383 60.7993 4.35745L62.5581 5.65857C62.8461 5.91577 62.8916 6.14271 62.6945 6.33939C62.5732 6.44529 62.2397 6.50581 61.6938 6.50581H53.6277C53.1729 6.50581 52.9454 6.71762 52.9454 7.15637V8.35159C52.9454 8.80547 53.1577 9.03241 53.5974 9.03241H55.4926C55.9626 9.24422 56.5085 8.88112 57.1453 7.9431C57.6305 7.41357 57.9185 7.15637 58.0095 7.15637L60.3141 8.86599C60.6477 9.0778 60.7235 9.30474 60.5567 9.54681C60.3444 9.75862 59.9502 9.83426 59.3892 9.75862H53.5974C53.1425 9.75862 52.9151 9.97043 52.9151 10.4092V11.7406C52.9151 12.1944 53.1274 12.4214 53.5671 12.4214H58.1611C58.6311 12.6332 59.177 12.2701 59.8138 11.3321C60.3596 10.7572 60.6628 10.4697 60.7386 10.4697C60.8145 10.4848 61.0267 10.6361 61.3906 10.9084L63.3465 12.3457C63.6194 12.5122 63.6497 12.724 63.4223 12.966C63.301 13.0719 62.9674 13.1325 62.4216 13.1325H42.0744C41.8014 13.1476 41.5285 13.193 41.2556 13.2686C40.6643 13.3594 40.3004 13.2232 40.164 12.8601C40.0578 12.4516 40.2853 12.255 40.8462 12.2852C41.2405 12.3003 41.6498 12.3457 42.044 12.4214H50.1102C50.565 12.4214 50.7924 12.2096 50.7924 11.7708V10.4394C50.7924 9.98556 50.5802 9.75862 50.1405 9.75862H44.5761C44.3032 9.77375 44.0302 9.81913 43.7573 9.89478C43.166 9.98556 42.8021 9.84939 42.696 9.48629C42.5747 9.0778 42.7718 8.86599 43.3176 8.89625C43.6967 8.91138 44.106 8.95676 44.5457 9.03241H50.1102C50.565 9.03241 50.7924 8.8206 50.7924 8.38185V7.18663C50.7924 6.73275 50.5802 6.50581 50.1405 6.50581H42.7263C42.4534 6.52094 42.1805 6.56633 41.9076 6.64197C41.3163 6.73275 40.9524 6.59659 40.8462 6.23348C40.725 5.82499 40.9221 5.61318 41.4679 5.64344L42.696 5.80986H53.2335C53.6732 5.80986 54.0068 5.53753 54.2342 4.99288C54.5678 4.06999 54.8558 3.1471 55.0984 2.22421H55.1439ZM58.7221 18.6849C59.0557 18.11 59.5257 18.2462 60.1322 19.1237C60.9509 19.865 61.3603 20.4399 61.3754 20.8333C61.4513 21.1207 61.2087 21.3779 60.6477 21.62C60.2989 21.7108 60.1322 21.9831 60.1322 22.437V25.9016C60.2231 26.4463 60.1322 26.8396 59.8593 27.0968C59.4802 27.3389 59.0557 27.4145 58.616 27.3692C58.0702 27.2935 57.8579 26.9304 57.9943 26.2798C57.9943 25.7503 57.7821 25.4931 57.3424 25.4931H46.3652C45.9103 25.4931 45.6829 25.6898 45.6829 26.0832C45.8952 26.8245 45.5161 27.2179 44.5154 27.2481C43.6512 27.3994 43.3176 27.0061 43.5299 26.0832V19.7137C43.5299 19.1237 43.8483 18.9573 44.4851 19.2598C45.0309 19.6986 45.6222 19.8801 46.2439 19.8045H56.9482C57.3879 20.0466 57.964 19.6683 58.707 18.7001L58.7221 18.6849ZM46.5016 20.5004C45.9558 20.6063 45.6829 20.8787 45.6829 21.3174V24.0861C45.6829 24.54 45.8952 24.7669 46.3348 24.7669H57.3121C57.7669 24.7669 57.9943 24.5551 57.9943 24.1164V21.1813C57.9943 20.7274 57.7821 20.5004 57.3424 20.5004H46.5016ZM46.6684 2.2696C46.3045 1.77033 46.2287 1.46774 46.4258 1.40723C47.3659 1.69468 48.2301 2.25447 49.0337 3.05632C49.5643 3.61611 49.7614 4.19102 49.6553 4.76594C49.4582 5.44676 49.0033 5.6737 48.2907 5.44676C47.9117 5.25008 47.6691 4.91723 47.5781 4.44822C47.381 3.79766 47.0778 3.07145 46.6532 2.28473L46.6684 2.2696Z" fill="white"/>
<path d="M80.8128 2.16356C80.8128 1.60378 81.0705 1.34658 81.6012 1.4071C82.2228 1.49787 82.8596 1.61891 83.5268 1.75507C84.3455 1.99714 84.4668 2.43589 83.9058 3.11671C83.6177 3.268 83.3296 3.37391 83.0416 3.43443C82.7535 4.20602 82.9354 4.52374 83.6177 4.35732H89.4247C89.8644 4.35732 90.3496 4.10012 90.8954 3.57059C91.0925 3.35878 91.32 3.1621 91.5777 2.99568C91.6687 2.99568 91.9719 3.268 92.4723 3.81266L93.2304 4.62964C94.1552 5.5374 94.0794 6.11232 92.9878 6.36952C92.5936 6.15771 92.0477 6.26361 91.3503 6.68723C90.8499 7.05034 90.7135 7.32266 90.9712 7.53448C91.4261 7.79167 91.5929 8.04887 91.4867 8.3212C91.2442 8.5784 90.8499 8.65405 90.2586 8.56327H86.8927C86.4378 8.56327 86.2104 8.80534 86.2104 9.28948C86.2104 9.77362 86.1649 10.1216 86.074 10.2578C85.513 10.7116 84.8762 10.7722 84.1787 10.4544C84.1181 10.3637 84.1029 10.0459 84.1029 9.47103C84.1029 8.85073 83.8906 8.54814 83.4509 8.54814H80.2669C79.8121 8.54814 79.5847 8.79021 79.5847 9.27435C79.5847 9.75849 79.5392 10.1065 79.4482 10.2426C78.8872 10.6814 78.2656 10.7419 77.5681 10.4544C77.4923 10.3485 77.462 10.0157 77.462 9.4559C77.462 8.8356 77.2497 8.53301 76.81 8.53301C75.5819 8.50275 74.6874 8.53301 74.1264 8.66918C73.5351 8.75995 73.1712 8.62379 73.065 8.26068C72.9589 7.85219 73.1712 7.64038 73.717 7.67064C74.4751 7.82193 75.5061 7.86732 76.7797 7.8068C77.2346 7.8068 77.462 7.59499 77.462 7.15624V6.20309C77.462 5.62818 77.7349 5.35585 78.3111 5.41637C79.2208 5.50714 79.8424 5.61305 80.1911 5.71896C80.5702 5.88538 80.737 6.09719 80.7066 6.33926C80.737 6.64184 80.555 6.88391 80.1608 7.06547C79.7818 7.12598 79.5847 7.29241 79.5847 7.57986C79.5998 7.73116 79.8273 7.79167 80.2669 7.79167H83.4206C83.8755 7.79167 84.1029 7.57986 84.1029 7.14111V6.18796C84.1029 5.61305 84.3758 5.34072 84.9216 5.40124C85.513 5.46176 86.1498 5.55253 86.8017 5.67357C87.1959 5.87025 87.3779 6.08206 87.3476 6.29387C87.3627 6.70236 87.1353 6.97469 86.6349 7.11085C86.362 7.23189 86.2256 7.39831 86.2256 7.56473C86.2407 7.71603 86.4227 7.77654 86.7411 7.77654C87.0898 7.77654 87.5143 7.50422 88.045 6.95956L88.9092 6.03667C89.0154 6.02154 89.1973 6.09719 89.4247 6.27874C89.6825 6.49055 89.9099 6.33926 90.107 5.7946C90.2738 5.29533 90.1373 5.03814 89.6976 5.03814H74.0809L73.626 5.09865C73.1712 5.15917 72.9134 5.44663 72.8679 5.99128C72.7921 6.64184 72.6254 7.26215 72.3524 7.86732C71.8976 8.62379 71.3063 8.95663 70.5633 8.86586C69.9265 8.6843 69.6536 8.3212 69.7446 7.77654C69.7749 7.39831 70.0782 6.98982 70.6088 6.55107C71.3518 5.97615 71.9127 5.14404 72.2918 4.08499C72.4737 3.54033 72.6102 3.268 72.7012 3.23775C72.8225 3.268 72.8983 3.46468 72.9134 3.81266C72.9286 4.08499 73.2318 4.23628 73.8383 4.26654L74.1112 4.2968H80.1457C80.6005 4.2968 80.8279 4.08499 80.8279 3.64624V2.10305L80.8128 2.16356ZM73.9899 10.8478C73.9596 10.2578 74.2932 10.1367 74.9906 10.5301C75.8397 11.0899 76.4916 11.3319 76.9162 11.2412H86.6956C87.1353 11.2412 87.5143 11.0747 87.8631 10.7268C88.2269 10.3637 88.4544 10.1821 88.5453 10.1518C88.6363 10.1518 88.9547 10.3788 89.5005 10.8327C89.6825 11.0142 89.8644 11.1504 90.0464 11.2714C90.668 11.9371 90.6377 12.4061 89.9706 12.6482C89.728 12.7238 89.6218 12.9659 89.6218 13.3744V20.5003C89.6218 21.045 89.5763 21.3929 89.4854 21.5291C89.0912 21.8166 88.6211 21.9225 88.0753 21.862C87.5447 21.8468 87.3476 21.5745 87.484 21.0752C87.484 20.697 87.2717 20.5003 86.832 20.5003H85.4978C85.0429 20.5003 84.8155 20.7121 84.8155 21.1509C84.7245 22.6941 84.8155 23.7229 85.1188 24.2675C85.5888 24.7365 86.4227 24.9635 87.6205 24.9483C88.0602 24.9483 88.0753 24.676 87.6963 24.1314C87.4082 23.6775 87.0746 23.2236 86.7107 22.7697C86.2711 22.3612 86.1346 22.0889 86.3014 21.983C87.3475 21.983 88.1511 22.1645 88.7121 22.5276C89.6673 23.1026 90.0464 23.7682 89.8493 24.5096C89.6976 24.7819 89.9099 24.9029 90.4406 24.8878C91.2896 24.9181 91.9264 24.676 92.3358 24.1314C92.6845 23.4505 92.9878 22.7546 93.2607 22.0738C93.4578 21.983 93.6246 22.0132 93.7459 22.1494C93.761 22.6941 93.8065 23.2387 93.8823 23.7834C93.9733 24.1011 94.1401 24.3583 94.3978 24.5096C94.8982 24.8576 95.065 25.2812 94.8527 25.7805C94.6707 26.1284 94.3523 26.3554 93.8975 26.4915C91.5474 27.0816 88.7879 27.2177 85.6343 26.9C84.77 26.8092 84.0423 26.5369 83.4661 26.083C83.0112 25.6443 82.7383 25.0089 82.6474 24.1616V21.1811C82.6474 20.7273 82.4351 20.5003 81.9954 20.5003H81.0402C80.6005 20.5003 80.3124 20.7726 80.176 21.3173C79.7969 22.8302 78.8872 24.1465 77.4317 25.2509C75.4455 26.4461 73.2622 27.0967 70.9121 27.2329C70.3207 27.3993 70.0023 27.2631 69.9872 26.8546C70.0782 26.7639 70.3966 26.6579 70.9424 26.552C72.5041 26.2646 73.9596 25.6897 75.309 24.8424C76.6736 23.9347 77.4923 22.7092 77.7804 21.1509C77.8562 20.7121 77.5985 20.5003 76.992 20.5003C76.3855 20.5003 76.0671 20.6667 76.0671 20.9844C76.1277 21.9376 75.4606 22.2553 74.0809 21.9073C73.9899 21.8317 73.9444 21.514 73.9444 20.9542V10.8478H73.9899ZM76.9465 11.922C76.3855 11.9976 76.0974 12.2548 76.0974 12.6784V13.3593C76.0974 13.8131 76.3097 14.0401 76.7494 14.0401H86.7714C87.2263 14.0401 87.4537 13.8283 87.4537 13.3895V12.6028C87.4537 12.1489 87.2414 11.922 86.8017 11.922H76.9465ZM87.4688 15.4774C87.4688 14.9932 87.2717 14.7512 86.8775 14.7512H76.7949C76.34 14.7512 76.1126 14.963 76.1126 15.4017V16.2944C76.1126 16.7482 76.3249 16.9752 76.7646 16.9752H86.7866C87.2414 16.9752 87.4688 16.7634 87.4688 16.3246V15.4774ZM87.4688 18.3519C87.4688 17.8981 87.2566 17.6711 86.8169 17.6711H76.7949C76.34 17.6711 76.1126 17.8829 76.1126 18.3217V19.1084C76.1126 19.5623 76.3249 19.7892 76.7646 19.7892H86.7866C87.2414 19.7892 87.4688 19.5774 87.4688 19.1387V18.3519Z" fill="white"/>
<path d="M104.738 2.9804C104.905 2.78372 105.087 2.6173 105.314 2.49627C105.39 2.49627 105.694 2.76859 106.239 3.31325L107.301 4.3723C107.68 5.05312 107.452 5.46162 106.588 5.56752C106.239 5.47674 105.982 5.71881 105.8 6.29373L103.98 10.5451C103.798 10.999 103.98 11.2259 104.556 11.2259C105.133 11.2259 105.648 10.9536 106.133 10.4089C106.634 9.84912 107.179 9.86425 107.771 10.4392C108.514 11.0292 108.862 11.5285 108.832 11.9067C108.741 12.2244 108.483 12.406 108.044 12.4514C107.756 12.5573 107.574 12.8901 107.498 13.4348C107.21 16.1429 106.634 18.609 105.754 20.8028C105.557 21.2113 105.754 21.6651 106.33 22.1341C107.786 23.1327 109.166 23.7378 110.485 23.9497C114.29 24.4792 118.672 24.4943 123.63 24.0253C124.191 23.874 124.509 23.995 124.585 24.3733C123.918 24.9028 123.478 25.3869 123.251 25.8408C123.099 26.4309 122.766 26.7335 122.25 26.7335H118.915C117.156 26.6729 115.397 26.5822 113.638 26.4611C111.212 26.2947 109.044 25.7047 107.119 24.6759C106.725 24.5094 106.179 24.1312 105.481 23.5412C104.981 23.057 104.511 23.0873 104.102 23.6471C102.858 25.16 101.463 26.2493 99.9472 26.8999C99.6136 27.0663 99.4013 27.0512 99.2952 26.8696C99.2952 26.7637 99.5378 26.5065 100.023 26.1132C101.645 24.8423 102.782 23.4806 103.419 22.0131C103.616 21.5592 103.586 21.0751 103.343 20.5456C102.964 19.7286 102.631 18.8208 102.343 17.8072C102.146 17.3533 101.949 17.4592 101.751 18.1097C101.388 18.8208 101.327 19.3806 101.569 19.7891C101.676 19.9858 101.645 20.2278 101.494 20.5153C101.13 20.9541 100.736 20.8784 100.326 20.3186C99.8865 19.8345 99.4923 19.3352 99.1284 18.8511C99.1284 18.7452 99.3862 18.4426 99.8865 17.9282C100.554 17.3381 101.13 16.7027 101.6 16.0521C101.979 15.5529 102.221 15.2806 102.312 15.2654C102.419 15.3259 102.585 15.6134 102.798 16.1581C103.04 17.0809 103.419 18.0492 103.935 19.0629C104.192 19.547 104.42 19.5168 104.617 18.957C105.208 16.5363 105.527 14.4031 105.542 12.5573C105.466 12.1185 105.224 11.9067 104.784 11.9067H103.798C103.556 11.937 103.389 12.0126 103.283 12.1185C102.828 13.344 102.176 13.8584 101.297 13.6315C100.887 13.6012 100.538 13.4499 100.266 13.1927C100.235 13.1019 100.387 12.7237 100.751 12.058C101.858 10.0912 102.934 7.76127 103.98 5.08338C104.162 4.6295 104.041 4.40256 103.601 4.40256C102.403 4.34205 101.509 4.40256 100.918 4.56898C100.357 4.64463 100.023 4.49334 99.9168 4.13023C99.8107 3.73687 100.023 3.54019 100.569 3.55532C101.327 3.70661 102.237 3.752 103.313 3.69148C103.753 3.69148 104.238 3.43429 104.784 2.93502L104.738 2.9804ZM114.002 2.3601C114.002 1.80032 114.29 1.58851 114.866 1.7398C115.488 1.83058 116.095 1.95161 116.716 2.11803C116.959 2.14829 117.156 2.32984 117.338 2.66269C117.414 3.25273 117.126 3.61584 116.489 3.72174C116.277 3.81252 116.14 3.93355 116.11 4.09998C116.125 4.28153 116.352 4.3723 116.792 4.3723H118.551C118.99 4.3723 119.37 4.20588 119.718 3.85791C120.082 3.4948 120.31 3.31325 120.401 3.28299C120.492 3.28299 120.81 3.52506 121.356 3.99407C121.977 4.43282 122.296 4.79592 122.326 5.08338C122.432 5.43136 122.265 5.67343 121.811 5.80959C121.568 5.9155 121.462 6.18782 121.462 6.62657V7.4133C121.462 7.9277 121.674 7.88231 122.084 7.30739L122.281 7.06532C122.645 6.58119 122.872 6.33912 122.993 6.35425C123.357 6.73248 123.721 7.1561 124.085 7.59485C124.479 8.07899 124.676 8.39671 124.676 8.51774C124.585 8.69929 124.267 8.79007 123.706 8.79007H122.159C121.704 8.79007 121.477 9.00188 121.477 9.44063V12.5875C121.477 13.1322 121.447 13.4499 121.401 13.5709C121.295 13.6768 121.113 13.7827 120.886 13.8735C120.628 13.9492 120.81 14.1912 121.401 14.5997L122.265 15.2503C122.569 15.447 122.705 15.6437 122.675 15.8403C122.402 16.1732 121.993 16.2791 121.447 16.1732H116.807C116.352 16.1732 116.125 16.385 116.125 16.8237V18.5787C116.125 19.0326 116.337 19.2596 116.777 19.2596H118.9C119.385 19.4714 119.991 19.0478 120.719 17.9584C121.204 17.4743 121.765 17.4592 122.372 17.9282L124.009 19.1234C124.297 19.3201 124.373 19.5319 124.252 19.7437C123.994 19.9555 123.6 20.0312 123.054 19.9555H116.807C116.352 19.9555 116.125 20.1673 116.125 20.6061V22.24C116.125 22.7847 116.095 23.1024 116.049 23.1932C115.564 23.5866 114.973 23.6773 114.275 23.4353C114.002 23.2386 113.911 22.8603 114.002 22.3006V20.6515C114.002 20.1976 113.79 19.9706 113.35 19.9706H109.332L108.468 20.1068C107.907 20.1825 107.558 20.0312 107.437 19.6681C107.316 19.2747 107.543 19.0931 108.119 19.1234C108.483 19.1385 108.878 19.1839 109.287 19.2596H113.335C113.79 19.2596 114.017 19.0478 114.017 18.609V16.8389C114.017 16.385 113.805 16.1581 113.365 16.1581H110.439L109.575 16.2942C109.014 16.3699 108.68 16.2186 108.574 15.8555C108.453 15.4621 108.65 15.2654 109.196 15.2806C109.59 15.2957 109.999 15.3411 110.394 15.4167H113.35C113.805 15.4167 114.033 15.2049 114.033 14.7662V12.9204C114.033 12.4665 113.82 12.2396 113.381 12.2396C112.152 12.2093 111.243 12.2396 110.667 12.3455C110.106 12.406 109.772 12.2698 109.681 11.937C109.575 11.5587 109.802 11.3772 110.363 11.3923C111.106 11.5436 112.107 11.589 113.35 11.5285C113.805 11.5285 114.033 11.3167 114.033 10.8779V9.44063C114.033 8.98675 113.82 8.75981 113.381 8.75981H109.529C109.241 8.77494 108.938 8.82033 108.635 8.89597C108.044 8.98675 107.695 8.86572 107.604 8.51774C107.498 8.07899 107.68 7.86718 108.18 7.86718C108.635 7.89744 109.09 7.97308 109.545 8.06386H113.381C113.835 8.06386 114.063 7.85205 114.063 7.4133V5.7642C114.063 5.31032 113.851 5.08338 113.411 5.08338C111.819 5.05312 110.727 5.08338 110.151 5.21955C109.59 5.29519 109.257 5.15903 109.15 4.81105C108.999 4.41769 109.226 4.22101 109.833 4.23614C110.576 4.34204 111.758 4.38743 113.396 4.34204C113.851 4.34204 114.078 4.13023 114.078 3.69148V2.32984L114.002 2.3601ZM119.354 5.7642C119.354 5.31032 119.142 5.08338 118.702 5.08338H116.807C116.352 5.08338 116.125 5.29519 116.125 5.73394V7.38304C116.125 7.83692 116.337 8.06386 116.777 8.06386H118.672C119.127 8.06386 119.354 7.85205 119.354 7.4133V5.7642ZM119.354 9.51628C119.354 9.03214 119.157 8.79007 118.763 8.79007H116.807C116.352 8.79007 116.125 9.00188 116.125 9.44063V10.8779C116.125 11.3318 116.337 11.5587 116.777 11.5587H118.672C119.127 11.5587 119.354 11.3469 119.354 10.9082V9.53141V9.51628ZM119.354 13.0414C119.354 12.5119 119.142 12.2547 118.702 12.2547H116.807C116.352 12.2547 116.125 12.4665 116.125 12.9052V14.751C116.125 15.2049 116.337 15.4318 116.777 15.4318H117.292C117.762 15.6437 118.308 15.2806 118.915 14.3425C119.248 13.9794 119.385 13.5407 119.354 13.0414Z" fill="white"/>
<path d="M135.835 6.03677C136.154 5.65854 136.517 5.28031 136.896 4.90207C136.987 4.90207 137.306 5.11388 137.882 5.52238C138.246 5.77958 138.61 6.0519 138.974 6.36962C139.595 6.86889 139.853 7.1866 139.792 7.32277C139.55 7.5951 139.156 7.68587 138.564 7.5951H131.15C130.877 7.61022 130.604 7.65561 130.331 7.73126C129.74 7.82204 129.376 7.67074 129.27 7.29251C129.149 6.88402 129.437 6.70246 130.165 6.74785L131.12 6.85376H134.44C134.88 6.85376 135.35 6.58143 135.85 6.03677H135.835ZM130.301 18.0495C130.286 17.4745 130.635 17.3838 131.362 17.7771C131.999 18.2461 132.56 18.4428 133.076 18.3521H135.229C135.668 18.3521 136.047 18.1856 136.396 17.8377C136.851 17.0812 137.382 17.1266 138.003 17.9738C138.595 18.3823 138.913 18.7454 138.958 19.0329C138.974 19.2901 138.837 19.517 138.549 19.7439C138.261 19.8952 138.109 20.1827 138.109 20.6063V25.1602C138.109 25.7049 138.079 26.0226 138.034 26.1437C137.473 26.6127 136.836 26.6883 136.138 26.3857C136.032 26.2798 135.972 25.9924 135.972 25.5234C135.972 24.9938 135.759 24.7366 135.32 24.7366H133.121C132.666 24.7366 132.439 25.0392 132.439 25.6293C132.439 26.2193 132.424 26.5673 132.378 26.6581C131.832 27.0968 131.18 27.1573 130.422 26.8699C130.347 26.7791 130.316 26.4765 130.316 25.947V18.0646L130.301 18.0495ZM134.622 9.75859C135.062 9.21393 135.426 8.8357 135.729 8.59363C135.805 8.59363 136.123 8.80544 136.715 9.24419L137.806 10.0612C138.564 10.4545 138.777 10.8328 138.458 11.1656C138.337 11.2413 138.003 11.2715 137.457 11.2715H132.348C132.075 11.2867 131.802 11.332 131.529 11.4077C130.938 11.4985 130.574 11.3472 130.437 10.9689C130.331 10.5756 130.635 10.394 131.362 10.4545C131.954 10.5302 132.59 10.5604 133.242 10.5604C133.682 10.5604 134.137 10.2881 134.622 9.74346V9.75859ZM134.895 2.29983C135.456 1.6644 136.078 1.60388 136.745 2.10315L137.836 2.92013C138.64 3.29836 138.792 3.69173 138.291 4.08509L137.366 4.11535H132.454C132.181 4.13048 131.908 4.17587 131.635 4.25151C131.044 4.34229 130.68 4.20613 130.574 3.84302C130.453 3.43453 130.65 3.22272 131.196 3.25298C131.848 3.34375 132.53 3.38914 133.227 3.38914C133.697 3.60095 134.243 3.23785 134.88 2.29983H134.895ZM135.304 12.845C135.653 12.376 136.108 12.4516 136.669 13.087L137.761 13.904C138.322 14.3579 138.61 14.6151 138.625 14.6908C138.534 15.1446 138.109 15.3111 137.382 15.1749H132.469C132.196 15.19 131.923 15.2354 131.65 15.3111C131.059 15.4018 130.695 15.2657 130.589 14.9026C130.468 14.4941 130.665 14.2823 131.211 14.3125C132.029 14.4336 132.712 14.4941 133.242 14.4789C133.743 14.6908 134.44 14.1612 135.304 12.845ZM135.956 19.8196C135.956 19.3355 135.759 19.0934 135.365 19.0934H133.242C132.697 19.1842 132.424 19.4414 132.424 19.8801V23.3447C132.424 23.7986 132.636 24.0255 133.076 24.0255H135.274C135.729 24.0255 135.956 23.8137 135.956 23.375V19.8196ZM149.996 13.4199C150.436 12.966 150.967 13.0114 151.619 13.5561L152.68 14.5395C153.15 15.2959 152.877 15.7347 151.831 15.8406C151.528 15.7649 151.3 15.9162 151.149 16.2945C150.572 17.7923 149.693 19.3657 148.541 21.0148C148.238 21.4233 148.359 21.8469 148.92 22.2554C150.3 23.1783 151.861 23.8137 153.59 24.1768C154.272 24.3584 154.636 24.5248 154.651 24.661C154.636 24.782 154.59 24.8879 154.515 24.9787C153.559 25.1905 152.892 25.7049 152.528 26.4916C152.362 26.7942 151.998 26.8245 151.422 26.5673C149.951 25.9318 148.556 24.9787 147.237 23.723C146.797 23.3145 146.312 23.3145 145.766 23.7532C143.977 25.13 141.885 26.0983 139.519 26.6883C138.837 26.8547 138.458 26.885 138.382 26.7942C138.352 26.6883 138.352 26.5824 138.413 26.4765C140.717 25.6444 142.87 24.313 144.902 22.4672C145.311 22.0739 145.311 21.5897 144.902 21.0299C143.674 19.2598 142.84 17.4594 142.4 15.6288C142.324 15.19 142.021 15.0085 141.475 15.0539L141.233 15.0841C140.687 15.1598 140.353 15.0085 140.232 14.6454C140.126 14.2369 140.384 14.0553 140.99 14.1007L142.051 14.2066H148.571C149.011 14.2066 149.481 13.9343 149.981 13.3896L149.996 13.4199ZM142.112 2.57216C142.112 1.95185 142.4 1.80056 142.976 2.08802C143.446 2.29983 143.916 2.55703 144.386 2.84449C144.659 3.01091 145.008 3.08655 145.448 3.08655H147.07C147.51 3.08655 147.843 2.905 148.071 2.5419C148.344 1.74004 148.829 1.74004 149.541 2.5419C149.905 2.78397 150.269 3.04117 150.633 3.32862C151.088 3.96406 150.967 4.41794 150.254 4.70539C150.011 4.79617 149.905 5.03824 149.905 5.41647V9.07777C149.921 9.98553 150.451 10.3486 151.482 10.1671C151.937 10.2276 152.286 10.0612 152.513 9.7132C152.786 9.13829 153.029 8.38182 153.241 7.42867C153.317 7.35303 153.408 7.32277 153.514 7.32277C153.681 7.41354 153.787 7.73126 153.832 8.27592C153.847 8.51798 153.893 8.77518 153.969 9.06264C153.999 9.51652 154.166 9.8645 154.424 10.0914C154.742 10.273 154.924 10.5756 154.969 10.9841C155 11.4228 154.727 11.7557 154.12 11.9826C152.832 12.376 151.255 12.4214 149.39 12.1188C148.344 11.7103 147.798 10.8479 147.752 9.57704V4.47845C147.752 4.02457 147.54 3.79763 147.1 3.79763H145.038C144.493 3.88841 144.22 4.20613 144.189 4.75078C144.174 7.42867 143.568 9.53165 142.4 11.0748C141.46 12.0885 140.308 12.7391 138.943 13.0568C138.852 12.9811 138.792 12.9055 138.777 12.8147C138.837 12.7088 139.125 12.4516 139.671 12.0582C140.293 11.5287 140.793 10.9084 141.187 10.1822C141.839 8.30617 142.127 5.77958 142.051 2.58729L142.112 2.57216ZM149.102 15.6893C149.253 15.2051 149.102 14.9631 148.647 14.9631H143.886C143.446 14.9631 143.325 15.2354 143.507 15.7801C144.144 17.3233 144.993 18.6698 146.054 19.8499C146.464 20.2886 146.858 20.2432 147.191 19.7137C148.071 18.3067 148.708 16.9602 149.087 15.7044L149.102 15.6893Z" fill="white"/>
<path d="M15.5258 0C6.95931 0 0 6.94436 0 15.4924C0 24.0405 6.95931 30.9849 15.5258 30.9849C24.0922 30.9849 31.0515 24.0405 31.0515 15.4924C31.0515 6.94436 24.0922 0 15.5258 0ZM9.56715 27.2631C4.23017 23.4656 3.98758 20.7121 3.74499 17.7921V17.6105V16.3397C4.06339 12.7843 6.51961 10.9536 8.6726 10.757C9.05165 10.7267 9.41553 10.7116 9.74909 10.7116C12.3721 10.7116 13.5547 11.8009 14.9496 13.3289L15.5864 14.0249L16.2232 13.3289C17.603 11.8009 18.7856 10.7116 21.4237 10.7116C21.7573 10.7116 22.1212 10.7267 22.5002 10.757C24.6532 10.9536 27.1095 12.7843 27.443 16.3397V17.6105C27.2004 20.4397 26.9124 23.5564 21.8028 27.142C19.953 28.1406 17.8304 28.7003 15.5713 28.7003C13.3121 28.7003 11.4017 28.1708 9.59748 27.2631H9.56715ZM26.7911 11.0747C25.6388 9.93997 24.1226 9.21376 22.6215 9.0776C22.1818 9.03221 21.7725 9.01708 21.3934 9.01708C19.8924 9.01708 18.6794 9.30454 17.5726 9.92484C16.8297 10.3485 16.1929 10.878 15.5561 11.5286C14.9193 10.878 14.2977 10.3485 13.5396 9.92484C12.4479 9.30454 11.235 9.01708 9.71877 9.01708C9.33972 9.01708 8.93035 9.03221 8.49066 9.0776C6.97447 9.21376 5.45828 9.93997 4.32114 11.0747C3.3811 12.0127 2.69882 13.1928 2.33493 14.5393C2.83527 7.70083 8.5513 2.28453 15.5258 2.28453C22.5002 2.28453 28.0647 7.54954 28.7015 14.2518C28.3072 13.0264 27.6704 11.9522 26.7911 11.0747Z" fill="white"/>
</g>
<defs>
<clipPath id="clip0_212_411">
<rect width="155" height="31" fill="white"/>
</clipPath>
</defs>
</svg>
