<svg width="539" height="766" viewBox="0 0 539 766" fill="none" xmlns="http://www.w3.org/2000/svg">
<g clip-path="url(#clip0_212_377)">
<path d="M235.27 134.189C235.27 134.189 251.213 145.511 260.92 153.365C260.334 155.377 258.2 156.293 255.285 156.293H121.579V164.868C121.579 166.505 114.382 171.986 102.15 171.986H98.063V6.93767L124.104 16.0678H214.473L228.282 0.180176C228.282 0.180176 243.64 10.9471 253.347 18.4404C252.761 20.4527 250.627 21.3687 247.712 21.3687H121.579V55.3214H202.617L213.887 43.4582L237.99 60.6222C236.622 62.2591 233.331 64.2713 228.658 65.0071V121.245C228.463 122.341 216.607 126.17 208.838 126.17H204.946V108.646H121.579V151.008H221.085L235.27 134.204V134.189ZM121.579 60.6222V103.525H204.946V60.6222H121.579Z" fill="#FBCB67"/>
<path d="M374.43 58.0545C380.651 58.2347 387.262 58.4149 394.64 58.4149C407.849 58.4149 439.149 58.4149 453.334 58.0545V60.4272C446.136 61.8838 442.65 69.0017 442.455 77.0356H393.874C357.72 77.0356 336.743 71.5545 322.934 50.7414C314.189 64.6168 299.613 77.0356 275.315 85.4299L273.948 83.4177C298.246 67.3499 306.405 42.7075 308.148 22.2548L338.847 27.5557C338.066 30.2887 335.932 31.7604 331.469 31.9406C330.102 36.3254 328.359 40.7103 326.225 44.8999C332.837 50.381 340.996 53.6697 351.289 55.6669V15.8877H280.74L278.997 10.7821H419.705L431.17 0.0151367L450.794 17.7198C449.247 19.3566 447.293 19.5518 443.221 19.9122C437 23.9217 426.316 28.8621 418.533 31.5952C421.643 33.6074 424.754 35.7998 427.473 37.7971C427.083 39.8093 424.949 40.7253 422.229 40.7253H374.415V58.0696L374.43 58.0545ZM391.139 133.468C459.931 135.661 453.529 178.563 430.013 170.349C426.121 163.952 419.524 157.21 412.327 150.993C385.895 155.738 349.937 160.663 297.464 167.421C295.901 169.433 293.768 170.71 291.634 171.07L278.426 147.148C293.587 147.329 319.433 147.329 350.913 146.968V126.335H321.762V131.636C321.762 133.273 311.274 138.033 301.942 138.033H298.832V85.0845L323.325 94.0345H350.928V76.51L381.057 79.0629C380.666 81.2553 379.313 82.8921 374.64 83.6279V94.0345H402.244L412.732 83.6279L434.701 98.7797C433.724 100.056 431.2 101.513 427.503 102.249V127.987C427.308 129.264 415.648 132.732 408.074 132.732H404.182V126.335H374.64V146.608L406.121 146.067C400.681 141.863 395.046 138.033 389.802 135.12L391.169 133.483L391.139 133.468ZM350.913 121.049V99.1401H321.762V121.049H350.913ZM374.43 15.8877V35.6046H394.64L406.106 23.366C406.106 23.366 410.959 26.4745 416.594 30.3037C417.962 26.4745 419.705 20.633 420.877 15.8727H374.43V15.8877ZM374.625 99.1401V121.049H404.167V99.1401H374.625Z" fill="#FBCB67"/>
<path d="M162.001 339.737C161.024 342.109 158.499 343.566 154.037 343.025C136.35 378.45 111.482 401.816 81.5488 416.607L79.6104 414.97C99.821 395.614 120.422 363.478 130.715 328.429L162.001 339.752V339.737ZM187.275 424.821C268.899 454.945 249.665 510.446 222.647 490.729C220.709 481.779 217.013 472.469 211.964 463.159C188.447 470.457 155.795 478.491 109.348 488.717C107.8 491.09 105.651 492.366 103.322 492.922L91.6616 464.811C100.016 464.63 112.654 464.075 127.996 463.354C137.913 438.712 147.034 406.936 151.512 383.751L183.579 391.229C182.993 393.602 180.859 395.434 176.005 395.434C167.455 414.61 152.489 441.084 135.975 462.798C157.162 461.702 182.812 460.065 209.244 458.233C202.437 446.55 193.691 435.228 185.337 425.918L187.275 424.821ZM189.018 324.96C203.399 356.736 234.488 380.822 264.616 391.785L264.03 393.797C254.894 395.629 247.321 402.567 244.015 413.153C215.45 395.629 196.982 366.421 186.689 325.876L189.018 324.96Z" fill="#FBCB67"/>
<path d="M452.552 340.218C451.185 341.855 448.465 343.326 444.588 344.047V485.729C444.198 487.366 434.295 492.306 426.316 492.306H423.01V482.441H302.904V486.825C302.904 489.558 294.354 494.679 285.217 494.679H281.521V326.342L304.647 335.472H421.057L431.545 324.33L452.537 340.218H452.552ZM423.01 477.155V340.773H302.904V477.155H423.01ZM401.643 367.428C401.643 367.428 412.913 375.282 419.915 381.123C419.329 383.135 417.39 384.051 414.671 384.051H308.358L306.811 378.946H352.085V365.611H317.104L315.556 360.685H352.085V344.437L377.931 346.63C377.736 348.822 376.383 350.279 372.491 350.834V360.7H385.7L395.031 349.753C395.031 349.753 405.91 357.427 412.522 362.893C412.131 364.725 410.193 365.626 407.473 365.626H372.491V378.961H391.725L401.643 367.458V367.428ZM403.972 420.737L417.766 431.324C416.789 432.6 415.046 433.156 411.154 432.06C407.263 434.072 400.08 436.805 394.445 439.178C401.057 441.37 406.301 444.283 409.997 448.127C419.329 457.798 407.864 470.397 397.946 459.63C393.664 452.692 383.761 443.022 372.491 437.36V467.304C372.491 468.4 366.27 472.409 355.782 472.409H352.281V441.19C340.62 450.5 326.435 457.993 310.297 463.835L308.554 461.282C324.677 451.416 337.9 437.18 346.646 422.569H339.839V423.305C339.839 424.762 331.484 428.411 323.896 428.411H321.371V387.881L340.8 395.179H383.551L391.906 386.965L409.592 399.203C408.81 400.299 406.677 401.576 403.957 402.131V420.752L403.972 420.737ZM385.114 417.448V400.465H339.839V417.448H385.114ZM372.491 434.793C378.712 435.333 384.347 436.429 389.591 437.721C392.116 434.252 395.226 429.507 397.751 425.122C394.64 426.038 391.139 426.759 388.224 426.759H385.114V422.554H372.476V434.793H372.491Z" fill="#FBCB67"/>
<path d="M527.61 0V498.028" stroke="#FBCB67" stroke-miterlimit="10"/>
<path d="M3.47119 0V498.028" stroke="#FBCB67" stroke-miterlimit="10"/>
<path d="M224.165 206.149L327.247 290.618" stroke="#FBCB67" stroke-width="2" stroke-miterlimit="10"/>
<path d="M327.247 206.149L224.165 290.618" stroke="#FBCB67" stroke-width="2" stroke-miterlimit="10"/>
<path d="M186.734 759.362L190.401 754.812L195.585 758.852C196.171 759.362 196.682 759.798 197.103 760.173C196.847 760.804 196.276 761.134 195.405 761.179H146.899V764.078C146.899 764.408 146.373 764.798 145.321 765.219C144.435 765.549 143.533 765.73 142.601 765.73H141.655V708.921L147.786 711.579H185.247L188.718 707.165L194.593 711.955C194.758 712.075 194.909 712.21 195.029 712.33C194.773 713.006 194.202 713.366 193.331 713.396H146.899V759.347H186.749L186.734 759.362ZM173.857 756.404H173.03V733.309H160.964C160.844 741.598 158.83 748.04 154.968 752.62C153.661 754.137 152.188 755.488 150.55 756.659L149.724 755.773C153.601 750.803 155.675 744.03 155.975 735.441C156.02 734.345 156.035 733.173 156.035 731.912V719.478L162.286 721.626C170.626 719.944 177.358 718.007 182.497 715.814L187.996 720.74C187.32 721.325 186.148 721.325 184.465 720.74C176.967 722.211 169.138 723.082 160.964 723.322V731.401H183.954L187.245 727.362C187.245 727.362 189.334 729.044 193.376 732.287C193.12 732.918 192.534 733.248 191.603 733.294H178.019V755.008C178.019 755.308 177.478 755.638 176.381 756.014C175.585 756.269 174.743 756.389 173.857 756.389V756.404Z" fill="white"/>
<path d="M210.235 727.107H211.242C213.436 734.81 213.075 741.267 210.175 746.478C209.589 747.529 208.928 748.43 208.222 749.196C206.749 750.758 205.232 751.449 203.669 751.284C202.993 751.163 202.467 750.863 202.091 750.398C201.204 748.971 201.535 747.454 203.098 745.848C205.667 743.91 207.621 740.667 208.973 736.132C209.86 733.188 210.28 730.185 210.235 727.107ZM219.386 720.74L226.78 721.626C226.659 722.512 225.953 723.082 224.691 723.338H224.571V756.419C224.571 757.425 225.051 758.056 226.028 758.311C226.614 758.432 227.411 758.507 228.432 758.507H236.457C240.243 758.507 242.708 758.447 243.85 758.311C244.736 758.146 245.337 757.786 245.683 757.245C246.314 755.939 247.17 752.305 248.267 746.328H249.094L249.289 757.696C250.807 758.326 251.588 759.107 251.618 760.038C251.618 761.345 250.732 762.246 248.959 762.756C246.855 763.297 242.602 763.582 236.201 763.582H227.606C223.819 763.582 221.43 763.012 220.468 761.885C219.747 761.044 219.402 759.693 219.402 757.846V720.8L219.386 720.74ZM220.529 707.54C229.83 708.892 235.976 711.489 238.966 715.364C240.484 717.376 240.814 719.148 239.973 720.665C239.297 721.926 238.23 722.331 236.757 721.866C236.457 721.776 236.186 721.656 235.931 721.49C234.112 718.337 231.122 715.304 226.96 712.405C224.811 710.889 222.557 709.582 220.198 708.486L220.513 707.54H220.529ZM248.072 726.356C255.059 729.93 259.462 734.39 261.28 739.736C262.422 743.024 262.392 745.772 261.22 748.01C260.334 749.647 259.222 750.202 257.869 749.647C257.358 749.436 256.878 749.031 256.412 748.445C256.292 742.724 254.849 737.483 252.114 732.723C250.807 730.5 249.289 728.593 247.561 727.047L248.072 726.356Z" fill="white"/>
<path d="M266.585 730.771L267.156 730.261C272.295 730.936 275.541 732.513 276.878 734.991C277.629 736.417 277.554 737.619 276.623 738.595C275.736 739.481 274.609 739.526 273.212 738.715C272.37 736.447 270.522 734.06 267.652 731.582C267.276 731.282 266.916 731.011 266.585 730.756V730.771ZM315.661 722.437L320.846 727.167C320.335 727.678 319.388 727.948 318.006 727.993C315.391 731.657 312.175 735.021 308.344 738.099C313.978 741.088 320.32 743.19 327.352 744.406L327.292 745.097C325.233 745.563 323.881 746.989 323.25 749.392C322.498 749.182 320.77 748.566 318.066 747.56L319.268 748.566C318.937 749.076 318.261 749.407 317.254 749.572V763.718C317.209 764.093 316.383 764.499 314.79 764.919C314.039 765.129 313.407 765.234 312.897 765.234H312.205V761.766H296.352V763.973C296.352 764.348 295.826 764.754 294.775 765.174C293.978 765.505 293.152 765.685 292.31 765.685H291.484V747.575C288.448 748.791 285.068 749.872 281.311 750.788L280.8 749.902C289.095 746.869 296.277 742.86 302.333 737.844C299.929 735.531 297.885 732.843 296.202 729.765C292.671 733.925 288.974 737.123 285.143 739.361L284.316 738.67C288.358 735.171 291.814 730.336 294.669 724.149C295.466 722.512 296.127 720.905 296.623 719.358L303.129 720.935V715.259H289.681V720.184C289.681 720.65 288.884 721.025 287.276 721.326C286.645 721.446 286.059 721.521 285.503 721.521H284.677V715.274H267.306L266.931 713.442H284.677V706.054L292.01 706.745C291.89 707.676 291.138 708.261 289.801 708.516H289.681V713.442H303.129V706.054L310.583 706.745C310.462 707.676 309.726 708.261 308.374 708.516H308.253V713.442H317.224L320.38 709.207L325.744 713.757C325.955 713.922 326.15 714.088 326.315 714.268C326.15 714.899 325.579 715.244 324.617 715.274H308.253V719.944C308.253 720.365 307.562 720.725 306.165 721.01C305.443 721.176 304.737 721.266 304.016 721.266H303.76C303.43 721.851 302.649 722.107 301.416 722.016C300.695 723.323 300.034 724.434 299.403 725.365H312.356L315.646 722.467L315.661 722.437ZM287.111 725.35L288.253 725.726C287.367 727.663 285.624 731.372 283.009 736.838C280.109 742.86 278.486 746.328 278.14 747.259C277.299 749.497 276.893 751.194 276.938 752.365C276.938 752.951 277.269 754.302 277.945 756.405C278.456 758.222 278.681 759.934 278.636 761.585C278.591 763.898 277.584 765.249 275.601 765.625C275.27 765.67 274.925 765.685 274.594 765.685C273.587 765.685 272.866 765.009 272.445 763.658C272.355 763.402 272.295 763.147 272.25 762.907C273.091 756.645 272.791 753.056 271.363 752.17C270.477 751.704 269.41 751.434 268.148 751.344V749.962H271.243C271.874 749.962 272.355 749.752 272.701 749.332C272.821 749.167 272.956 749.001 273.076 748.821C273.753 747.86 275.706 744.587 278.952 739.03C281.987 733.985 284.707 729.42 287.096 725.335L287.111 725.35ZM271.439 720.92L272.01 720.41C277.224 721.16 280.499 722.812 281.807 725.335C282.558 726.717 282.498 727.888 281.611 728.804C280.725 729.69 279.583 729.765 278.2 729.059C276.848 726.536 274.669 723.879 271.634 721.1C271.544 721.01 271.484 720.95 271.439 720.905V720.92ZM311.604 747.184L313.182 745.412C309.891 743.731 307.247 742.064 305.218 740.427C302.273 742.484 298.772 744.421 294.73 746.238L297.134 747.184H311.604ZM296.322 759.873H312.175V749.076H296.322V759.873ZM311.92 727.302H298.08C297.915 727.558 297.57 727.978 297.074 728.564C299.057 731.297 301.582 733.714 304.647 735.817C307.637 732.994 310.057 730.155 311.905 727.302H311.92Z" fill="white"/>
<path d="M390.433 749.452L389.231 759.423C390.959 761.78 391.5 763.342 390.869 764.093C389.562 765.655 387.202 765.474 383.791 763.582C382.995 763.117 382.259 762.636 381.582 762.126C377.826 759.468 374.7 756.149 372.176 752.155C366.706 758.011 360.155 762.396 352.536 765.354L351.965 764.468C359.163 760.549 365.204 755.233 370.087 748.506C366.586 741.478 364.362 732.333 363.385 721.04H343.055V731.582H353.152L355.872 728.804L361.176 733.159C360.666 733.669 359.824 733.985 358.652 734.105C358.351 744.331 357.555 750.773 356.248 753.416C355.827 754.167 355.376 754.768 354.925 755.188C353.498 756.449 351.469 757.08 348.855 757.08C348.81 755.443 348.494 754.302 347.908 753.671C347.277 752.996 345.88 752.47 343.746 752.095L343.866 751.028C344.242 751.074 344.918 751.134 345.88 751.224C347.938 751.389 349.23 751.479 349.726 751.479C350.523 751.434 351.139 751.224 351.56 750.848C352.732 749.677 353.453 743.881 353.708 733.489H343.04C343.04 743.175 341.672 750.833 338.937 756.464C337.119 760.204 334.7 763.387 331.679 766L330.853 765.369C334.985 759.182 337.269 750.683 337.735 739.871C337.825 737.934 337.855 735.711 337.855 733.174V716.821L343.986 719.223H363.25C362.95 715.274 362.814 710.934 362.814 706.219L370.328 707.045C370.162 708.051 369.426 708.666 368.119 708.877H367.998C367.953 712.165 368.059 715.604 368.314 719.223H381.327L384.738 714.928L390.613 719.719C390.779 719.839 390.914 719.944 390.989 720.034C390.734 720.665 390.163 720.995 389.291 721.04H368.449C369.08 730.17 370.673 737.649 373.243 743.445C376.278 738.009 378.427 732.498 379.689 726.912L387.398 729.314C387.142 730.155 386.331 730.561 384.933 730.516H384.813C382.574 737.123 379.524 742.98 375.662 748.07C377.976 751.854 380.861 754.873 384.317 757.095C385.159 757.771 385.775 757.876 386.151 757.411C386.271 757.245 386.406 757.05 386.526 756.84C387.909 754.062 388.99 751.539 389.742 749.271L390.433 749.467V749.452ZM372.056 708.366L372.567 707.675C377.961 707.886 381.447 709.207 383.055 711.655C383.897 713.006 383.912 714.178 383.115 715.184C382.364 716.07 381.282 716.19 379.899 715.559C378.757 713.412 376.654 711.309 373.588 709.252C373.047 708.922 372.537 708.621 372.071 708.366H372.056Z" fill="white"/>
<path d="M413.604 737.708H529.203" stroke="white" stroke-miterlimit="10"/>
<path d="M2.13379 737.708H117.733" stroke="white" stroke-miterlimit="10"/>
<path d="M0.525927 634.394L0 633.538C11.1346 626.691 24.373 612.68 27.7239 603.009L36.8149 605.307C36.6195 606.163 35.763 606.418 33.9749 606.628C39.9705 615.113 51.3004 621.765 62.3599 626.24L62.2998 627.231C59.8655 627.757 58.0173 629.859 57.5514 631.901C47.078 626.375 37.3408 617.621 32.7878 607.484C26.4616 617.425 13.1031 628.613 0.525927 634.394ZM27.9943 659.802V645.582H10.9393L10.4134 643.674H27.9943V631.241H12.2616L11.7357 629.394H41.6985L44.9893 625.444C44.9893 625.444 48.6708 628.147 50.9849 630.25C50.8496 630.91 50.1885 631.241 49.2718 631.241H33.464V643.674H44.0727L47.5588 639.59C47.5588 639.59 51.3756 642.488 53.885 644.53C53.6896 645.251 53.0285 645.582 52.1119 645.582H33.479V659.802H50.2035L53.8249 655.192C53.8249 655.192 57.9121 658.346 60.4816 660.658C60.2863 661.319 59.565 661.649 58.6333 661.649H2.82498L2.23895 659.802H27.9943Z" fill="white"/>
<path d="M108.656 604.256C108.461 605.112 107.665 605.772 106.282 605.832C105.486 606.628 104.314 607.74 103.247 608.656H113.976L116.545 605.892L122.15 610.172C121.759 610.638 120.708 611.163 119.445 611.419V625.97C119.385 626.435 117.011 627.546 115.433 627.546H114.637V625.579H108.251C108.115 626.24 107.589 626.57 106.477 626.766V629.138H118.995L121.429 626.63L125.907 630.97C125.381 631.496 124.66 631.556 123.397 631.631C122.015 632.622 119.445 633.868 117.792 634.529L116.876 634.064L118.724 631.03H111.617V633.208C111.617 634.92 111.677 634.98 113.269 634.98H120.708C121.173 634.98 121.624 634.98 122.09 634.785C122.481 634.589 122.946 633.793 123.668 632.277H124.254L124.524 634.709C126.177 635.175 126.493 635.295 126.493 635.956C126.493 637.277 125.576 637.863 121.429 637.923C122.15 638.389 124.464 640.1 126.102 641.482C125.907 642.203 125.306 642.473 124.389 642.473H103.382C102.991 643.524 102.586 644.575 102.06 645.506H112.593L115.103 643.074L120.106 647.023C119.641 647.489 118.859 647.819 117.597 647.939C117.011 652.024 116.019 654.381 113.976 655.568C112.458 656.424 110.414 656.694 108.115 656.754C108.115 655.568 107.92 654.712 107.124 654.126C106.402 653.405 104.614 653 102.706 652.684L102.766 651.633C104.674 651.768 108.16 652.024 109.287 652.024C110.204 652.024 110.67 651.964 111.136 651.633C111.797 651.243 112.458 649.786 112.909 647.429H100.797C97.5668 651.843 92.3075 654.411 85.1248 655.988C88.7462 657.37 93.4946 657.64 100.662 657.64C108.626 657.64 119.295 657.64 127.59 657.37V658.226C125.411 658.691 124.104 660.193 123.773 662.505H100.722C88.3405 662.505 82.946 660.853 78.1976 653.165C75.9587 656.198 72.4725 660.148 70.2937 662.385C70.4289 663.241 70.0983 663.632 69.4973 663.962L66.1313 657.97C68.1749 657.054 71.1352 655.402 74.0353 653.69V638.494H66.6573L66.2666 636.587H73.1187L75.8835 632.832L82.2097 637.968C81.7439 638.434 80.7671 639.019 78.979 639.214V651.843C80.5568 653.555 82.2698 654.742 84.1782 655.598L84.0429 655.207C91.7515 652.309 95.8988 648.435 97.5367 642.503H83.9077L83.3818 640.596H101.624V635.986L107.424 636.511C107.094 635.851 107.033 634.739 107.033 633.148V631.045H101.429C99.2497 636.707 93.2692 638.884 85.2901 639.665L85.0196 638.614C91.1504 637.172 94.6967 634.935 96.019 631.045H89.167C88.7763 633.223 87.6493 634.8 86.4021 635.52C85.0196 636.316 82.9159 636.316 82.3149 634.86C81.7889 633.478 82.7056 632.292 83.9678 631.571C85.816 630.775 87.6493 628.478 87.7244 626.24H88.8514C89.1219 627.291 89.2421 628.207 89.3172 629.138H101.759V625.579H94.4563V626.3C94.4563 626.766 92.4127 627.877 90.4442 627.877H89.783V606.493L94.7869 608.671H100.843L101.504 603.069L108.611 604.256H108.656ZM74.8768 627.742C73.6897 624.588 70.1284 620.969 67.1682 618.927L67.8293 618.341C82.5854 619.918 80.1511 630.385 74.8768 627.757V627.742ZM77.1157 614.512C76.124 611.283 72.6979 607.544 69.9331 605.427L70.5942 604.841C85.0797 606.884 82.2548 617.275 77.1157 614.512ZM114.652 610.563H94.5014V613.656H114.652V610.563ZM94.5014 615.563V618.597H114.652V615.563H94.5014ZM114.652 620.504H94.5014V623.657H114.652V620.504ZM118.469 640.581L120.843 637.953H112.804C110.039 637.953 108.596 637.893 107.86 637.157C107.725 637.548 107.274 637.878 106.417 638.013V640.581H118.469Z" fill="white"/>
<path d="M135.93 605.307L141.399 607.875H153.06L155.629 605.111L161.159 609.316C160.768 609.782 159.837 610.307 158.725 610.502V628.072C158.665 628.537 156.155 629.589 154.517 629.589H153.721V626.36H141.084V662.025C141.084 662.745 139.236 664.067 136.801 664.067H135.945V605.292L135.93 605.307ZM141.069 609.782V616.104H153.706V609.782H141.069ZM141.069 624.513H153.706V617.996H141.069V624.513ZM150.085 631.496L155.359 633.793H169.063L171.633 630.97L177.162 635.175C176.772 635.64 175.84 636.166 174.728 636.361V656.108C174.668 656.634 172.159 657.82 170.446 657.82H169.649V654.141H155.028V656.844C155.028 657.369 152.985 658.496 150.881 658.496H150.085V631.511V631.496ZM169.649 642.818V635.715H155.028V642.818H169.649ZM169.649 652.234V644.665H155.028V652.234H169.649ZM165.772 605.562L171.107 607.86H183.293L185.863 604.706L192.054 609.376C191.588 609.902 190.536 610.487 189.153 610.698V656.904C189.153 660.913 188.432 663.421 181.58 664.082C181.385 662.37 181.054 660.989 180.198 660.193C179.206 659.337 177.688 658.751 174.803 658.285V657.234C174.803 657.234 181.129 657.76 182.512 657.76C183.639 657.76 183.954 657.294 183.954 656.318V626.375H170.791V627.757C170.791 628.282 168.612 629.469 166.509 629.469H165.787V605.577L165.772 605.562ZM170.776 609.782V616.104H183.939V609.782H170.776ZM170.776 624.513H183.939V617.996H170.776V624.513Z" fill="white"/>
<path d="M273.632 665.358C271.273 665.358 268.914 664.923 266.735 664.397L266.209 661.874C267.862 662.565 270.582 663.091 273.542 663.091C285.849 663.091 293.633 656.378 293.633 645.281C293.633 636.812 288.043 632.622 281.236 632.622C278.696 632.622 276.427 633.493 274.158 634.544L273.377 632.712C283.249 629.393 288.478 624.768 288.478 617.695C288.478 612.109 284.557 609.316 279.658 609.316C273.287 609.316 269.184 612.635 265.954 616.119L264.902 615.158C268.568 610.007 275.3 605.126 282.543 605.126C290.582 605.126 294.85 609.226 294.85 615.338C294.85 621.014 290.747 625.369 284.977 628.432C294.85 628.432 300.695 634.799 300.695 643.884C300.695 656.619 287.336 665.358 273.617 665.358H273.632Z" fill="white"/>
<path d="M344.888 645.806H336.593C336.593 652.354 336.683 657.67 336.773 660.117C336.864 662.205 337.915 663.166 339.478 663.871L339.388 664.217C338.171 663.962 334.579 663.871 333.182 663.871C331.785 663.871 328.298 663.962 327.066 664.217L326.976 663.871C328.464 663.181 329.501 662.22 329.591 660.117C329.681 657.76 329.771 652.354 329.771 645.806H307.066L306.811 644.5L335.015 604.796H336.758C336.578 610.998 336.578 625.128 336.578 635.25V643.539H344.873V645.806H344.888ZM329.771 643.539V615.698L310.207 643.539H329.771Z" fill="white"/>
<path d="M379.028 636.046C378.247 637.698 377.721 639.455 377.45 641.016H362.349C360.17 641.016 358.938 641.197 357.976 641.977L357.63 641.722C358.412 640.07 358.938 638.313 359.208 636.752H374.31C376.398 636.752 377.721 636.571 378.682 635.791L379.028 636.046Z" fill="white"/>
<path d="M431.065 645.806H422.77C422.77 652.354 422.86 657.67 422.951 660.117C423.041 662.205 424.093 663.166 425.655 663.871L425.565 664.217C424.348 663.962 420.757 663.871 419.359 663.871C417.962 663.871 414.476 663.962 413.244 664.217L413.153 663.871C414.641 663.181 415.678 662.22 415.768 660.117C415.858 657.76 415.948 652.354 415.948 645.806H393.243L392.988 644.5L421.192 604.796H422.936C422.755 610.998 422.755 625.128 422.755 635.25V643.539H431.05V645.806H431.065ZM415.963 643.539V615.698L396.399 643.539H415.963Z" fill="white"/>
<path d="M442.861 665.358C440.502 665.358 438.142 664.923 435.964 664.397L435.438 661.874C437.091 662.565 439.81 663.091 442.771 663.091C455.077 663.091 462.861 656.378 462.861 645.281C462.861 636.812 457.271 632.622 450.464 632.622C447.925 632.622 445.656 633.493 443.387 634.544L442.605 632.712C452.478 629.393 457.707 624.768 457.707 617.695C457.707 612.109 453.785 609.316 448.886 609.316C442.515 609.316 438.413 612.635 435.182 616.119L434.13 615.158C437.797 610.007 444.529 605.126 451.771 605.126C459.811 605.126 464.078 609.226 464.078 615.338C464.078 621.014 459.976 625.369 454.206 628.432C464.078 628.432 469.923 634.799 469.923 643.884C469.923 656.619 456.565 665.358 442.846 665.358H442.861Z" fill="white"/>
<path d="M485.596 647.218V624.904H477.752L477.226 622.996H485.596V605.817L493.229 606.613C493.034 607.529 492.508 608.19 490.795 608.385V622.996H492.448L495.348 618.657C495.348 618.657 498.774 621.75 500.623 623.852C500.487 624.573 499.826 624.904 498.97 624.904H490.81V645.371L500.562 641.887L500.893 642.743C496.355 645.641 489.834 649.846 480.998 654.922C480.803 655.718 480.277 656.363 479.615 656.634L476.52 650.192C478.428 649.666 481.659 648.615 485.611 647.233L485.596 647.218ZM513.906 636.887V610.893H497.647L497.121 608.986H528.001L531.427 604.646C531.427 604.646 535.244 607.679 537.618 609.842C537.422 610.563 536.761 610.893 535.769 610.893H519.18V636.887H529.188L532.674 632.412C532.674 632.412 536.686 635.505 539 637.803C538.865 638.524 538.204 638.854 537.287 638.854H519.18V662.745C519.18 663.076 517.467 664.397 514.838 664.397H513.921V638.869H495.483L495.018 636.902H513.921L513.906 636.887ZM504.559 632.217C504.559 626.826 502.456 620.038 500.547 615.233L501.539 614.902C514.387 625.955 509.383 637.142 504.574 632.217H504.559ZM535.574 617.275C535.304 617.996 534.522 618.596 533.14 618.596C530.315 624.063 526.754 629.919 523.328 633.868L522.276 633.403C524.124 628.598 526.228 621.164 527.745 614.707L535.589 617.275H535.574Z" fill="white"/>
<path d="M229.439 602.664V665.358" stroke="white" stroke-width="1.5" stroke-miterlimit="10"/>
</g>
<defs>
<clipPath id="clip0_212_377">
<rect width="539" height="766" fill="white"/>
</clipPath>
</defs>
</svg>
