<svg width="237" height="89" viewBox="0 0 237 89" fill="none" xmlns="http://www.w3.org/2000/svg">
<path d="M50.6725 30.2684C50.6725 30.2684 54.2412 32.8227 56.4141 34.5944C56.2829 35.0484 55.8053 35.255 55.1527 35.255H25.2237V37.1894C25.2237 37.5586 23.6126 38.7951 20.8746 38.7951H19.9597V1.56155L25.7888 3.62123H46.0173L49.1084 0.0371094C49.1084 0.0371094 52.546 2.46605 54.7188 4.15648C54.5876 4.61043 54.11 4.81707 53.4575 4.81707H25.2237V12.4765H43.3634L45.8861 9.80029L51.2813 13.6724C50.9752 14.0416 50.2385 14.4956 49.1925 14.6616V27.3483C49.1488 27.5956 46.4949 28.4594 44.7559 28.4594H43.8848V24.506H25.2237V34.0626H47.4972L50.6725 30.2718V30.2684ZM25.2237 13.6724V23.3509H43.8848V13.6724H25.2237Z" fill="#FBCB67"/>
<path d="M81.8225 13.0932C83.215 13.1339 84.695 13.1745 86.3465 13.1745C89.3031 13.1745 96.3094 13.1745 99.4846 13.0932V13.6285C97.8734 13.9571 97.0931 15.5628 97.0494 17.3752H86.175C78.0822 17.3752 73.3867 16.1387 70.2956 11.4435C68.338 14.5736 65.0753 17.3752 59.6364 19.2689L59.3303 18.815C64.7692 15.1902 66.5956 9.63107 66.9858 5.0171L73.8576 6.21294C73.6827 6.82949 73.205 7.16148 72.2061 7.20213C71.9 8.19132 71.5098 9.18051 71.0322 10.1257C72.5121 11.3622 74.3386 12.104 76.6426 12.5546V3.58074H60.8507L60.4605 2.42894H91.9569L94.5233 0L98.9162 3.99403C98.5697 4.36328 98.1324 4.40732 97.2209 4.48863C95.8284 5.39313 93.4369 6.50766 91.6946 7.12421C92.3908 7.57816 93.0871 8.07275 93.6959 8.52331C93.6084 8.97725 93.1308 9.1839 92.522 9.1839H81.8191V13.0966L81.8225 13.0932ZM85.5628 30.106C100.961 30.6006 99.5283 40.2791 94.2643 38.426C93.3932 36.9829 91.9166 35.4618 90.3054 34.0594C84.3889 35.1299 76.3399 36.241 64.5943 37.7654C64.2445 38.2194 63.7669 38.5073 63.2892 38.5886L60.3327 33.1921C63.7265 33.2328 69.5118 33.2328 76.5585 33.1515V28.4968H70.0332V29.6927C70.0332 30.0619 67.6854 31.1358 65.5967 31.1358H64.9004V19.191L70.383 21.21H76.5619V17.2567L83.3058 17.8326C83.2184 18.3271 82.9157 18.6964 81.8696 18.8624V21.21H88.0485L90.3962 18.8624L95.3138 22.2805C95.0951 22.5685 94.5301 22.8971 93.7026 23.0631V28.8695C93.6589 29.1574 91.0488 29.94 89.3535 29.94H88.4824V28.4968H81.8696V33.0702L88.9163 32.9482C87.6987 31.9997 86.4373 31.1358 85.2634 30.4786L85.5695 30.1094L85.5628 30.106ZM76.5585 27.3044V22.3618H70.0332V27.3044H76.5585ZM81.8225 3.58074V8.02871H86.3465L88.9129 5.26778C88.9129 5.26778 89.9993 5.96903 91.2607 6.83287C91.5668 5.96903 91.9569 4.65123 92.2193 3.57735H81.8225V3.58074ZM81.8662 22.3618V27.3044H88.479V22.3618H81.8662Z" fill="#FBCB67"/>
<path d="M151.114 3.47553C150.895 4.01078 150.33 4.33938 149.331 4.21742C145.372 12.2089 139.806 17.48 133.105 20.8169L132.671 20.4476C137.195 16.0809 141.807 8.8314 144.111 0.92464L151.114 3.47892V3.47553ZM156.771 22.6699C175.042 29.4655 170.737 41.9863 164.689 37.5383C164.255 35.5192 163.428 33.4189 162.298 31.3186C157.034 32.965 149.725 34.7774 139.328 37.0843C138.981 37.6196 138.5 37.9075 137.979 38.0329L135.369 31.6912C137.239 31.6506 140.068 31.5252 143.502 31.3626C145.722 25.8035 147.764 18.6352 148.766 13.4047L155.944 15.0918C155.813 15.627 155.335 16.0403 154.249 16.0403C152.335 20.3663 148.985 26.3387 145.288 31.2373C150.031 30.99 155.772 30.6207 161.689 30.2074C160.165 27.5718 158.208 25.0176 156.337 22.9172L156.771 22.6699ZM157.162 0.14209C160.38 7.31034 167.34 12.7441 174.084 15.2171L173.952 15.671C171.907 16.0843 170.212 17.6494 169.472 20.0377C163.078 16.0843 158.944 9.49537 156.64 0.348736L157.162 0.14209Z" fill="#FBCB67"/>
<path d="M216.152 3.58413C215.846 3.95338 215.237 4.28537 214.369 4.44798V36.4104C214.282 36.7796 212.065 37.8942 210.279 37.8942H209.539V35.6685H182.654V36.6577C182.654 37.2742 180.74 38.4294 178.695 38.4294H177.868V0.453948L183.044 2.51363H209.102L211.45 0L216.148 3.58413H216.152ZM209.539 34.476V3.70947H182.654V34.476H209.539ZM204.756 9.72253C204.756 9.72253 207.279 11.4943 208.846 12.8121C208.715 13.266 208.281 13.4727 207.672 13.4727H183.875L183.529 12.3209H193.663V9.31263H185.833L185.486 8.20149H193.663V4.53605L199.448 5.03065C199.405 5.52525 199.102 5.85385 198.231 5.97919V8.20487H201.187L203.276 5.73528C203.276 5.73528 205.711 7.46637 207.191 8.69947C207.104 9.11276 206.67 9.31602 206.061 9.31602H198.231V12.3242H202.536L204.756 9.72931V9.72253ZM205.277 21.7487L208.365 24.137C208.147 24.4249 207.756 24.5502 206.885 24.303C206.014 24.7569 204.406 25.3734 203.145 25.9087C204.625 26.4033 205.799 27.0605 206.626 27.9277C208.715 30.1094 206.149 32.9516 203.929 30.5227C202.97 28.9576 200.753 26.7759 198.231 25.4988V32.2537C198.231 32.501 196.838 33.4055 194.49 33.4055H193.707V26.3626C191.097 28.463 187.921 30.1534 184.309 31.4712L183.919 30.8953C187.528 28.6696 190.488 25.4581 192.445 22.162H190.922V22.328C190.922 22.6566 189.052 23.4798 187.353 23.4798H186.788V14.3365L191.137 15.9829H200.706L202.576 14.1299L206.535 16.8908C206.36 17.1381 205.883 17.426 205.274 17.5514V21.7521L205.277 21.7487ZM201.056 21.0068V17.1753H190.922V21.0068H201.056ZM198.231 24.9195C199.623 25.0415 200.885 25.2888 202.058 25.5801C202.624 24.7975 203.32 23.7271 203.885 22.7379C203.189 22.9445 202.405 23.1071 201.752 23.1071H201.056V22.1586H198.227V24.9195H198.231Z" fill="#FBCB67"/>
<path d="M0.5 0L0.499998 38.9197" stroke="#FBCB67" stroke-miterlimit="10"/>
<path d="M236.355 0L236.355 38.9197" stroke="#FBCB67" stroke-miterlimit="10"/>
<path d="M107.14 10.1191L130.214 29.1746" stroke="#FBCB67" stroke-width="2" stroke-miterlimit="10"/>
<path d="M130.214 10.1191L107.14 29.1746" stroke="#FBCB67" stroke-width="2" stroke-miterlimit="10"/>
<path d="M99.9003 87.503L100.721 86.4765L101.881 87.3878C102.013 87.503 102.127 87.6012 102.221 87.6859C102.164 87.8282 102.036 87.9027 101.841 87.9129H90.9835V88.5667C90.9835 88.6412 90.8657 88.7293 90.6303 88.8242C90.4318 88.8987 90.23 88.9393 90.0215 88.9393H89.8096V76.1239L91.1819 76.7235H99.5673L100.344 75.7275L101.659 76.8082C101.696 76.8353 101.73 76.8658 101.757 76.8929C101.7 77.0453 101.572 77.1266 101.377 77.1334H90.9835V87.4996H99.9036L99.9003 87.503ZM97.0177 86.8356H96.8327V81.6254H94.1318C94.1048 83.4954 93.6541 84.9487 92.7897 85.9819C92.4971 86.3241 92.1674 86.629 91.8008 86.8932L91.6158 86.6933C92.4836 85.572 92.9478 84.0442 93.0151 82.1065C93.0251 81.8592 93.0285 81.5949 93.0285 81.3104V78.5054L94.4277 78.9898C96.2945 78.6104 97.8014 78.1734 98.9517 77.6788L100.183 78.79C100.031 78.9221 99.7691 78.9221 99.3924 78.79C97.714 79.1219 95.9615 79.3184 94.1318 79.3726V81.1952H99.278L100.015 80.2839C100.015 80.2839 100.482 80.6633 101.387 81.3951C101.33 81.5373 101.199 81.6119 100.99 81.622H97.9494V86.5206C97.9494 86.5883 97.8283 86.6628 97.5828 86.7475C97.4045 86.8051 97.2161 86.8322 97.0177 86.8322V86.8356Z" fill="white"/>
<path d="M105.161 80.2261H105.386C105.877 81.964 105.797 83.4207 105.147 84.5962C105.016 84.8333 104.868 85.0366 104.71 85.2093C104.38 85.5616 104.041 85.7175 103.691 85.6802C103.54 85.6531 103.422 85.5854 103.338 85.4803C103.139 85.1585 103.213 84.8164 103.563 84.4539C104.138 84.0169 104.576 83.2851 104.878 82.2621C105.077 81.5981 105.171 80.9206 105.161 80.2261ZM107.209 78.7897L108.864 78.9896C108.837 79.1895 108.679 79.3182 108.397 79.3758H108.37V86.8388C108.37 87.0658 108.477 87.208 108.696 87.2656C108.827 87.2927 109.005 87.3097 109.234 87.3097H111.03C111.878 87.3097 112.429 87.2961 112.685 87.2656C112.884 87.2284 113.018 87.1471 113.095 87.0251C113.237 86.7304 113.428 85.9106 113.674 84.5623H113.859L113.903 87.1267C114.242 87.269 114.417 87.4452 114.424 87.6552C114.424 87.9499 114.226 88.1532 113.829 88.2684C113.358 88.3903 112.406 88.4547 110.973 88.4547H109.049C108.201 88.4547 107.667 88.326 107.451 88.0719C107.29 87.8822 107.213 87.5773 107.213 87.1606V78.8033L107.209 78.7897ZM107.465 75.812C109.547 76.1169 110.923 76.703 111.592 77.577C111.932 78.0309 112.006 78.4307 111.817 78.7728C111.666 79.0574 111.427 79.1488 111.097 79.0438C111.03 79.0235 110.97 78.9964 110.912 78.9591C110.506 78.2477 109.836 77.5634 108.904 76.9096C108.423 76.5675 107.919 76.2727 107.391 76.0254L107.461 75.812H107.465ZM113.63 80.0567C115.194 80.863 116.18 81.8691 116.587 83.0751C116.842 83.817 116.836 84.4369 116.573 84.9417C116.375 85.311 116.126 85.4363 115.823 85.311C115.709 85.2635 115.601 85.1721 115.497 85.0399C115.47 83.7493 115.147 82.567 114.535 81.4931C114.242 80.9917 113.903 80.5615 113.516 80.2126L113.63 80.0567Z" fill="white"/>
<path d="M117.774 81.0526L117.902 80.9374C119.052 81.0899 119.779 81.4456 120.078 82.0046C120.246 82.3264 120.23 82.5974 120.021 82.8176C119.823 83.0175 119.57 83.0276 119.258 82.8447C119.069 82.3332 118.655 81.7945 118.013 81.2356C117.929 81.1678 117.848 81.1068 117.774 81.0492V81.0526ZM128.76 79.1725L129.92 80.2396C129.806 80.3548 129.594 80.4158 129.284 80.4259C128.699 81.2525 127.979 82.0113 127.122 82.7058C128.383 83.3799 129.802 83.8542 131.376 84.1286L131.363 84.2844C130.902 84.3895 130.599 84.7113 130.458 85.2533C130.29 85.2059 129.903 85.067 129.298 84.84L129.567 85.067C129.493 85.1822 129.341 85.2567 129.116 85.294V88.4851C129.106 88.5698 128.921 88.6613 128.564 88.7561C128.396 88.8036 128.255 88.8273 128.141 88.8273H127.986V88.0447H124.437V88.5427C124.437 88.6274 124.32 88.7189 124.084 88.8137C123.906 88.8882 123.721 88.9289 123.533 88.9289H123.348V84.8434C122.668 85.1178 121.911 85.3617 121.07 85.5684L120.956 85.3685C122.813 84.6842 124.421 83.7797 125.776 82.6482C125.238 82.1265 124.78 81.5201 124.404 80.8257C123.613 81.764 122.786 82.4856 121.928 82.9904L121.743 82.8345C122.648 82.0452 123.422 80.9544 124.061 79.5587C124.239 79.1894 124.387 78.8269 124.498 78.478L125.954 78.8337V77.5532H122.944V78.6643C122.944 78.7694 122.766 78.854 122.406 78.9218C122.265 78.9489 122.133 78.9658 122.009 78.9658H121.824V77.5566H117.936L117.852 77.1433H121.824V75.4766L123.465 75.6324C123.438 75.8424 123.27 75.9746 122.971 76.0321H122.944V77.1433H125.954V75.4766L127.623 75.6324C127.596 75.8424 127.431 75.9746 127.128 76.0321H127.101V77.1433H129.109L129.816 76.188L131.017 77.2144C131.064 77.2517 131.107 77.289 131.144 77.3296C131.107 77.4719 130.98 77.5498 130.764 77.5566H127.101V78.6101C127.101 78.705 126.947 78.7863 126.634 78.8507C126.472 78.8879 126.314 78.9082 126.153 78.9082H126.096C126.022 79.0404 125.847 79.098 125.571 79.0776C125.409 79.3724 125.261 79.623 125.12 79.8331H128.02L128.756 79.1793L128.76 79.1725ZM122.369 79.8297L122.624 79.9144C122.426 80.3514 122.036 81.1881 121.451 82.4212C120.801 83.7797 120.438 84.5622 120.361 84.7723C120.172 85.277 120.082 85.6598 120.092 85.9241C120.092 86.0562 120.166 86.3611 120.317 86.8353C120.431 87.2452 120.482 87.6314 120.472 88.0041C120.462 88.5258 120.236 88.8307 119.792 88.9153C119.718 88.9255 119.641 88.9289 119.567 88.9289C119.342 88.9289 119.18 88.7765 119.086 88.4716C119.066 88.414 119.052 88.3564 119.042 88.3022C119.231 86.8895 119.163 86.0799 118.844 85.88C118.645 85.775 118.407 85.714 118.124 85.6937V85.382H118.817C118.958 85.382 119.066 85.3346 119.143 85.2398C119.17 85.2025 119.2 85.1652 119.227 85.1246C119.379 84.9078 119.816 84.1693 120.542 82.9158C121.222 81.7776 121.831 80.7477 122.365 79.8263L122.369 79.8297ZM118.861 78.8303L118.988 78.7151C120.156 78.8845 120.889 79.2572 121.181 79.8263C121.35 80.138 121.336 80.4022 121.138 80.6088C120.939 80.8087 120.684 80.8257 120.374 80.6664C120.071 80.0973 119.584 79.4977 118.904 78.871C118.884 78.8507 118.871 78.8371 118.861 78.8269V78.8303ZM127.851 84.7553L128.205 84.3556C127.468 83.9762 126.876 83.6001 126.422 83.2309C125.763 83.695 124.979 84.132 124.074 84.5419L124.612 84.7553H127.851ZM124.431 87.6179H127.979V85.1822H124.431V87.6179ZM127.922 80.2701H124.824C124.787 80.3277 124.71 80.4225 124.599 80.5546C125.043 81.1712 125.608 81.7166 126.294 82.1909C126.963 81.554 127.505 80.9137 127.919 80.2701H127.922Z" fill="white"/>
<path d="M145.497 85.2667L145.228 87.5161C145.614 88.0479 145.736 88.4003 145.594 88.5696C145.302 88.922 144.774 88.8813 144.01 88.4545C143.832 88.3494 143.667 88.241 143.516 88.1259C142.675 87.5262 141.975 86.7776 141.41 85.8765C140.186 87.1976 138.719 88.1868 137.014 88.8542L136.886 88.6543C138.497 87.7702 139.849 86.5709 140.942 85.0533C140.159 83.4679 139.661 81.4048 139.442 78.8573H134.891V81.2354H137.152L137.761 80.6087L138.948 81.5911C138.833 81.7063 138.645 81.7774 138.383 81.8045C138.315 84.1115 138.137 85.5648 137.845 86.161C137.75 86.3304 137.65 86.4659 137.549 86.5608C137.229 86.8453 136.775 86.9876 136.19 86.9876C136.18 86.6184 136.109 86.3609 135.978 86.2186C135.837 86.0662 135.524 85.9476 135.046 85.8629L135.073 85.6224C135.157 85.6326 135.308 85.6461 135.524 85.6664C135.985 85.7037 136.274 85.724 136.385 85.724C136.563 85.7139 136.701 85.6664 136.795 85.5817C137.058 85.3175 137.219 84.0099 137.276 81.6656H134.888C134.888 83.8507 134.582 85.5784 133.97 86.8487C133.563 87.6922 133.021 88.4104 132.345 88.9999L132.16 88.8576C133.085 87.4619 133.596 85.5445 133.701 83.1054C133.721 82.6684 133.728 82.167 133.728 81.5945V77.9053L135.1 78.4474H139.412C139.345 77.5564 139.314 76.5774 139.314 75.5137L140.996 75.7C140.959 75.927 140.794 76.0659 140.502 76.1133H140.475C140.465 76.8552 140.488 77.6309 140.546 78.4474H143.458L144.222 77.4785L145.537 78.5592C145.574 78.5863 145.604 78.61 145.621 78.6303C145.564 78.7726 145.436 78.8471 145.241 78.8573H140.576C140.717 80.917 141.074 82.604 141.649 83.9116C142.328 82.6853 142.809 81.442 143.092 80.1818L144.817 80.7239C144.76 80.9136 144.578 81.005 144.266 80.9949H144.239C143.738 82.4854 143.055 83.8066 142.19 84.955C142.708 85.8087 143.354 86.4896 144.128 86.991C144.316 87.1434 144.454 87.1672 144.538 87.0621C144.565 87.0249 144.595 86.9808 144.622 86.9334C144.932 86.3067 145.174 85.7376 145.342 85.226L145.497 85.2701V85.2667ZM141.383 75.9981L141.497 75.8423C142.705 75.8897 143.485 76.1878 143.845 76.74C144.034 77.0449 144.037 77.3091 143.859 77.5361C143.69 77.736 143.448 77.7631 143.139 77.6208C142.883 77.1364 142.412 76.6621 141.726 76.198C141.605 76.1234 141.491 76.0557 141.386 75.9981H141.383Z" fill="white"/>
<path d="M150.683 82.6177H176.559" stroke="white" stroke-miterlimit="10"/>
<path d="M58.5786 82.6177H84.4545" stroke="white" stroke-miterlimit="10"/>
<path d="M58.2188 59.3106L58.1011 59.1176C60.5935 57.5728 63.5568 54.4121 64.3069 52.2305L66.3418 52.7488C66.2981 52.9419 66.1064 52.9995 65.7061 53.0469C67.0482 54.9609 69.5843 56.4616 72.0599 57.4712L72.0464 57.6947C71.5015 57.8133 71.0878 58.2876 70.9835 58.7483C68.6391 57.5016 66.4595 55.5266 65.4404 53.24C64.0243 55.4826 61.0341 58.0064 58.2188 59.3106ZM64.3674 65.0425V61.8344H60.5498L60.432 61.4042H64.3674V58.5992H60.8457L60.728 58.1826H67.435L68.1716 57.2916C68.1716 57.2916 68.9957 57.9014 69.5137 58.3757C69.4834 58.5247 69.3354 58.5992 69.1302 58.5992H65.5917V61.4042H67.9664L68.7468 60.4828C68.7468 60.4828 69.6011 61.1366 70.1628 61.5973C70.1191 61.7599 69.9711 61.8344 69.7659 61.8344H65.5951V65.0425H69.3388L70.1494 64.0025C70.1494 64.0025 71.0643 64.7139 71.6394 65.2356C71.5957 65.3847 71.4343 65.4592 71.2257 65.4592H58.7334L58.6022 65.0425H64.3674Z" fill="white"/>
<path d="M82.423 52.5118C82.3792 52.7049 82.201 52.8539 81.8915 52.8675C81.7132 53.047 81.4509 53.2977 81.2121 53.5043H83.6137L84.1888 52.881L85.4434 53.8465C85.356 53.9515 85.1205 54.0701 84.838 54.1277V57.4103C84.8245 57.5153 84.2931 57.766 83.9399 57.766H83.7617V57.3222H82.3321C82.3019 57.4713 82.1841 57.5458 81.9352 57.5898V58.1251H84.7371L85.282 57.5594L86.2843 58.5384C86.1666 58.6569 86.0052 58.6705 85.7226 58.6874C85.4132 58.911 84.838 59.1922 84.468 59.3412L84.2628 59.2362L84.6765 58.5519H83.0856V59.0431C83.0856 59.4293 83.099 59.4429 83.4556 59.4429H85.1205C85.2248 59.4429 85.3257 59.4429 85.43 59.3988C85.5174 59.3548 85.6217 59.1753 85.7832 58.8331H85.9143L85.9749 59.3819C86.3449 59.4869 86.4155 59.514 86.4155 59.6631C86.4155 59.9612 86.2103 60.0933 85.282 60.1069C85.4434 60.2119 85.9614 60.5981 86.3281 60.9097C86.2843 61.0723 86.1498 61.1333 85.9446 61.1333H81.2423C81.1549 61.3704 81.0641 61.6076 80.9463 61.8176H83.3042L83.8659 61.2688L84.986 62.1598C84.8817 62.2648 84.7068 62.3393 84.4243 62.3664C84.2931 63.2879 84.0711 63.8197 83.6137 64.0873C83.2739 64.2804 82.8165 64.3414 82.3019 64.355C82.3019 64.0873 82.2581 63.8942 82.0799 63.7621C81.9184 63.5995 81.5182 63.5081 81.091 63.4369L81.1044 63.1998C81.5316 63.2303 82.312 63.2879 82.5642 63.2879C82.7694 63.2879 82.8737 63.2743 82.9779 63.1998C83.1259 63.1117 83.2739 62.7831 83.3748 62.2512H80.6638C79.9406 63.2472 78.7634 63.8265 77.1556 64.1822C77.9662 64.4939 79.0291 64.5548 80.6335 64.5548C82.4162 64.5548 84.8044 64.5548 86.661 64.4939V64.6869C86.1733 64.792 85.8807 65.1307 85.8067 65.6524H80.647C77.8754 65.6524 76.6679 65.2798 75.605 63.5453C75.1038 64.2296 74.3235 65.1206 73.8358 65.6253C73.866 65.8184 73.792 65.9065 73.6575 65.981L72.9041 64.6294C73.3615 64.4227 74.0241 64.0501 74.6733 63.6639V60.2356H73.0218L72.9343 59.8054H74.4681L75.087 58.9585L76.5031 60.117C76.3988 60.222 76.1802 60.3542 75.7799 60.3982V63.2472C76.1331 63.6334 76.5165 63.901 76.9437 64.0941L76.9134 64.006C78.6389 63.3522 79.5673 62.4782 79.9339 61.1401H76.8832L76.7654 60.7099H80.8488V59.6698L82.1471 59.7884C82.0731 59.6394 82.0597 59.3887 82.0597 59.0296V58.5553H80.8051C80.3174 59.8325 78.9787 60.3237 77.1926 60.4998L77.1321 60.2627C78.5044 59.9375 79.2982 59.4327 79.5942 58.5553H78.0604C77.973 59.0465 77.7207 59.4022 77.4415 59.5648C77.1321 59.7444 76.6612 59.7444 76.5266 59.4158C76.4089 59.1041 76.6141 58.8365 76.8966 58.6739C77.3103 58.4943 77.7207 57.976 77.7375 57.4713H77.9898C78.0503 57.7084 78.0772 57.915 78.094 58.1251H80.8791V57.3222H79.2444V57.4848C79.2444 57.5898 78.7869 57.8405 78.3463 57.8405H78.1983V53.0165L79.3184 53.5077H80.6739L80.8219 52.2441L82.4129 52.5118H82.423ZM74.8617 57.81C74.5959 57.0986 73.7988 56.2822 73.1361 55.8215L73.2841 55.6894C76.5872 56.0451 76.0423 58.4063 74.8617 57.8134V57.81ZM75.3628 54.8255C75.1408 54.0972 74.3739 53.2537 73.755 52.776L73.903 52.6439C77.1455 53.1046 76.5132 55.4488 75.3628 54.8255ZM83.765 53.9346H79.2545V54.6324H83.765V53.9346ZM79.2545 55.0627V55.747H83.765V55.0627H79.2545ZM83.765 56.1772H79.2545V56.8886H83.765V56.1772ZM84.6194 60.7065L85.1508 60.1136H83.3513C82.7324 60.1136 82.4095 60.1001 82.2447 59.9341C82.2144 60.0222 82.1135 60.0967 81.9218 60.1272V60.7065H84.6194Z" fill="white"/>
<path d="M88.5278 52.7488L89.7522 53.3281H92.3623L92.9375 52.7047L94.1753 53.6533C94.0878 53.7583 93.8793 53.8769 93.6304 53.9209V57.8845C93.6169 57.9895 93.0552 58.2266 92.6886 58.2266H92.5103V57.4983H89.6815V65.5439C89.6815 65.7065 89.2678 66.0046 88.7229 66.0046H88.5312V52.7454L88.5278 52.7488ZM89.6782 53.7583V55.1845H92.5069V53.7583H89.6782ZM89.6782 57.0816H92.5069V55.6113H89.6782V57.0816ZM91.6963 58.6568L92.8769 59.1751H95.9445L96.5197 58.5383L97.7575 59.4868C97.67 59.5918 97.4615 59.7104 97.2126 59.7544V64.2092C97.1991 64.3278 96.6374 64.5954 96.2539 64.5954H96.0757V63.7654H92.8029V64.3752C92.8029 64.4937 92.3455 64.7478 91.8746 64.7478H91.6963V58.6602V58.6568ZM96.0757 61.2111V59.6088H92.8029V61.2111H96.0757ZM96.0757 63.3352V61.6278H92.8029V63.3352H96.0757ZM95.2079 52.8064L96.4019 53.3247H99.1298L99.705 52.6133L101.091 53.6668C100.986 53.7854 100.751 53.9175 100.442 53.9649V64.3887C100.442 65.2932 100.28 65.859 98.7464 66.008C98.7026 65.6218 98.6286 65.3102 98.4369 65.1306C98.2149 64.9375 97.8752 64.8054 97.2294 64.7004V64.4633C97.2294 64.4633 98.6454 64.5818 98.9549 64.5818C99.2072 64.5818 99.2778 64.4768 99.2778 64.2566V57.5016H96.3313V57.8133C96.3313 57.9319 95.8436 58.1995 95.3727 58.1995H95.2112V52.8098L95.2079 52.8064ZM96.3279 53.7583V55.1845H99.2744V53.7583H96.3279ZM96.3279 57.0816H99.2744V55.6113H96.3279V57.0816Z" fill="white"/>
<path d="M119.352 66.2958C118.824 66.2958 118.296 66.1976 117.808 66.079L117.69 65.5099C118.06 65.6657 118.669 65.7843 119.332 65.7843C122.086 65.7843 123.829 64.27 123.829 61.7666C123.829 59.8559 122.577 58.9108 121.054 58.9108C120.485 58.9108 119.977 59.1073 119.469 59.3444L119.295 58.9311C121.504 58.1824 122.675 57.139 122.675 55.5435C122.675 54.2833 121.797 53.6532 120.7 53.6532C119.274 53.6532 118.356 54.4018 117.633 55.1878L117.397 54.971C118.218 53.809 119.725 52.708 121.346 52.708C123.146 52.708 124.101 53.6328 124.101 55.0116C124.101 56.2921 123.183 57.2745 121.891 57.9656C124.101 57.9656 125.409 59.402 125.409 61.4515C125.409 64.3242 122.419 66.2958 119.348 66.2958H119.352Z" fill="white"/>
<path d="M135.302 61.8854H133.445C133.445 63.3625 133.465 64.5617 133.486 65.1139C133.506 65.5847 133.741 65.8016 134.091 65.9608L134.071 66.0387C133.798 65.9811 132.994 65.9608 132.682 65.9608C132.369 65.9608 131.588 65.9811 131.313 66.0387L131.292 65.9608C131.625 65.8049 131.858 65.5881 131.878 65.1139C131.898 64.582 131.918 63.3625 131.918 61.8854H126.836L126.779 61.5907L133.092 52.6338H133.482C133.442 54.0329 133.442 57.2207 133.442 59.5039V61.3739H135.298V61.8854H135.302ZM131.918 61.3739V55.0932L127.539 61.3739H131.918Z" fill="white"/>
<path d="M142.944 59.6836C142.769 60.0562 142.651 60.4526 142.591 60.8049H139.21C138.722 60.8049 138.447 60.8455 138.231 61.0217L138.154 60.9641C138.329 60.5914 138.447 60.1951 138.507 59.8428H141.888C142.355 59.8428 142.651 59.8021 142.866 59.626L142.944 59.6836Z" fill="white"/>
<path d="M154.592 61.8854H152.735C152.735 63.3625 152.755 64.5617 152.775 65.1139C152.795 65.5847 153.031 65.8016 153.381 65.9608L153.361 66.0387C153.088 65.9811 152.284 65.9608 151.971 65.9608C151.659 65.9608 150.878 65.9811 150.602 66.0387L150.582 65.9608C150.915 65.8049 151.147 65.5881 151.168 65.1139C151.188 64.582 151.208 63.3625 151.208 61.8854H146.126L146.068 61.5907L152.382 52.6338H152.772C152.732 54.0329 152.732 57.2207 152.732 59.5039V61.3739H154.588V61.8854H154.592ZM151.211 61.3739V55.0932L146.832 61.3739H151.211Z" fill="white"/>
<path d="M157.232 66.2958C156.704 66.2958 156.176 66.1976 155.688 66.079L155.57 65.5099C155.94 65.6657 156.549 65.7843 157.212 65.7843C159.967 65.7843 161.709 64.27 161.709 61.7666C161.709 59.8559 160.458 58.9108 158.934 58.9108C158.366 58.9108 157.858 59.1073 157.35 59.3444L157.175 58.9311C159.385 58.1824 160.555 57.139 160.555 55.5435C160.555 54.2833 159.677 53.6532 158.581 53.6532C157.155 53.6532 156.236 54.4018 155.513 55.1878L155.278 54.971C156.099 53.809 157.605 52.708 159.227 52.708C161.026 52.708 161.981 53.6328 161.981 55.0116C161.981 56.2921 161.063 57.2745 159.772 57.9656C161.981 57.9656 163.29 59.402 163.29 61.4515C163.29 64.3242 160.3 66.2958 157.229 66.2958H157.232Z" fill="white"/>
<path d="M166.798 62.2036V57.1695H165.042L164.925 56.7393H166.798V52.8638L168.507 53.0434C168.463 53.25 168.345 53.3991 167.962 53.4431V56.7393H168.332L168.981 55.7603C168.981 55.7603 169.748 56.4581 170.162 56.9324C170.131 57.095 169.983 57.1695 169.792 57.1695H167.965V61.7869L170.148 61.001L170.222 61.1941C169.207 61.8479 167.747 62.7964 165.769 63.9414C165.725 64.121 165.607 64.2666 165.459 64.3276L164.767 62.8743C165.194 62.7558 165.917 62.5186 166.802 62.207L166.798 62.2036ZM173.135 59.8729V54.0089H169.496L169.378 53.5786H176.29L177.057 52.5996C177.057 52.5996 177.911 53.2839 178.443 53.7717C178.399 53.9343 178.251 54.0089 178.029 54.0089H174.316V59.8729H176.556L177.336 58.8634C177.336 58.8634 178.234 59.5612 178.752 60.0795C178.722 60.2421 178.574 60.3167 178.369 60.3167H174.316V65.7064C174.316 65.7809 173.932 66.079 173.344 66.079H173.139V60.32H169.011L168.907 59.8763H173.139L173.135 59.8729ZM171.043 58.8193C171.043 57.6032 170.572 56.0719 170.145 54.9879L170.367 54.9134C173.243 57.4067 172.123 59.9305 171.046 58.8193H171.043ZM177.985 55.4486C177.925 55.6112 177.75 55.7467 177.441 55.7467C176.808 56.9798 176.011 58.301 175.244 59.192L175.009 59.0869C175.422 58.0029 175.893 56.326 176.233 54.8693L177.989 55.4486H177.985Z" fill="white"/>
<path d="M109.459 52.1523V66.2958" stroke="white" stroke-width="1.5" stroke-miterlimit="10"/>
</svg>
