<?xml version="1.0" encoding="UTF-8"?>
<svg id="_圖層_1" data-name="圖層_1" xmlns="http://www.w3.org/2000/svg" version="1.1" xmlns:xlink="http://www.w3.org/1999/xlink" viewBox="0 0 750 1438">
  <!-- Generator: Adobe Illustrator 29.3.1, SVG Export Plug-In . SVG Version: 2.1.0 Build 151)  -->
  <defs>
    <style>
      .st0 {
        fill: #aa8b5b;
      }

      .st1 {
        stroke: url(#_未命名漸層_7);
      }

      .st1, .st2, .st3, .st4, .st5 {
        fill: none;
        stroke-miterlimit: 10;
      }

      .st1, .st5 {
        stroke-width: 4.3px;
      }

      .st6 {
        fill: url(#_未命名漸層_11);
      }

      .st7, .st8, .st9 {
        fill: #fff;
      }

      .st10 {
        fill: #b28247;
        stroke-miterlimit: 10;
        stroke-width: .6px;
      }

      .st10, .st4 {
        stroke: #fff;
      }

      .st11 {
        fill: #606060;
      }

      .st12 {
        fill: #f3d7a3;
      }

      .st8 {
        stroke-miterlimit: 10;
        stroke-width: 2.7px;
      }

      .st8, .st9 {
        stroke: #8e3222;
      }

      .st13 {
        fill: url(#_未命名漸層_4);
      }

      .st13, .st14, .st15, .st16, .st17 {
        isolation: isolate;
        opacity: .5;
      }

      .st2 {
        stroke: url(#_未命名漸層_9);
        stroke-dasharray: 2.7;
        stroke-width: 2.7px;
      }

      .st14 {
        fill: url(#_未命名漸層_3);
      }

      .st18 {
        fill: #ae7e21;
      }

      .st15 {
        fill: url(#_未命名漸層);
      }

      .st16 {
        fill: url(#_未命名漸層_2);
      }

      .st3 {
        stroke: url(#_未命名漸層_8);
        stroke-width: 6.4px;
      }

      .st4 {
        stroke-width: .9px;
      }

      .st19 {
        fill: #a64741;
      }

      .st9 {
        stroke-miterlimit: 10;
        stroke-width: 2.7px;
      }

      .st20 {
        fill: url(#_未命名漸層_10);
      }

      .st5 {
        stroke: url(#_未命名漸層_6);
      }

      .st17 {
        fill: url(#_未命名漸層_5);
      }
    </style>
    <radialGradient id="_未命名漸層" data-name="未命名漸層" cx="332.5" cy="964" fx="332.5" fy="964" r="79" gradientTransform="translate(0 1437) scale(1 -1)" gradientUnits="userSpaceOnUse">
      <stop offset=".4" stop-color="#fff" stop-opacity="0"/>
      <stop offset=".7" stop-color="#fff" stop-opacity=".2"/>
      <stop offset=".9" stop-color="#fff"/>
      <stop offset=".9" stop-color="#fff" stop-opacity=".6"/>
      <stop offset="1" stop-color="#fff" stop-opacity="0"/>
    </radialGradient>
    <radialGradient id="_未命名漸層_2" data-name="未命名漸層 2" cx="353.5" cy="733" fx="353.5" fy="733" r="76" gradientTransform="translate(0 1437) scale(1 -1)" gradientUnits="userSpaceOnUse">
      <stop offset=".4" stop-color="#fff" stop-opacity="0"/>
      <stop offset=".7" stop-color="#fff" stop-opacity=".2"/>
      <stop offset=".9" stop-color="#fff"/>
      <stop offset=".9" stop-color="#fff" stop-opacity=".6"/>
      <stop offset="1" stop-color="#fff" stop-opacity="0"/>
    </radialGradient>
    <radialGradient id="_未命名漸層_3" data-name="未命名漸層 3" cx="330.5" cy="617" fx="330.5" fy="617" r="56" gradientTransform="translate(0 1437) scale(1 -1)" gradientUnits="userSpaceOnUse">
      <stop offset=".4" stop-color="#fff" stop-opacity="0"/>
      <stop offset=".7" stop-color="#fff" stop-opacity=".2"/>
      <stop offset=".9" stop-color="#fff"/>
      <stop offset=".9" stop-color="#fff" stop-opacity=".6"/>
      <stop offset="1" stop-color="#fff" stop-opacity="0"/>
    </radialGradient>
    <radialGradient id="_未命名漸層_4" data-name="未命名漸層 4" cx="248.5" cy="725" fx="248.5" fy="725" r="71" gradientTransform="translate(0 1437) scale(1 -1)" gradientUnits="userSpaceOnUse">
      <stop offset=".4" stop-color="#fff" stop-opacity="0"/>
      <stop offset=".7" stop-color="#fff" stop-opacity=".2"/>
      <stop offset=".9" stop-color="#fff"/>
      <stop offset=".9" stop-color="#fff" stop-opacity=".6"/>
      <stop offset="1" stop-color="#fff" stop-opacity="0"/>
    </radialGradient>
    <radialGradient id="_未命名漸層_5" data-name="未命名漸層 5" cx="466.5" cy="1060" fx="466.5" fy="1060" r="54" gradientTransform="translate(0 1437) scale(1 -1)" gradientUnits="userSpaceOnUse">
      <stop offset=".4" stop-color="#fff" stop-opacity="0"/>
      <stop offset=".7" stop-color="#fff" stop-opacity=".2"/>
      <stop offset=".9" stop-color="#fff"/>
      <stop offset=".9" stop-color="#fff" stop-opacity=".6"/>
      <stop offset="1" stop-color="#fff" stop-opacity="0"/>
    </radialGradient>
    <radialGradient id="_未命名漸層_6" data-name="未命名漸層 6" cx="512.2" cy="681.3" fx="512.2" fy="681.3" r="346.7" gradientTransform="translate(0 1437) scale(1 -1)" gradientUnits="userSpaceOnUse">
      <stop offset=".6" stop-color="#f3d7a3"/>
      <stop offset=".6" stop-color="#f3d7a4"/>
      <stop offset=".7" stop-color="#f6e3bf" stop-opacity=".7"/>
      <stop offset=".8" stop-color="#f9edd6" stop-opacity=".4"/>
      <stop offset=".8" stop-color="#fbf4e7" stop-opacity=".3"/>
      <stop offset=".9" stop-color="#fdfaf4" stop-opacity=".1"/>
      <stop offset="1" stop-color="#fefdfc" stop-opacity="0"/>
      <stop offset="1" stop-color="#fff" stop-opacity="0"/>
    </radialGradient>
    <radialGradient id="_未命名漸層_7" data-name="未命名漸層 7" cx="216.3" cy="733.4" fx="216.3" fy="733.4" r="261.4" gradientTransform="translate(0 1437) scale(1 -1)" gradientUnits="userSpaceOnUse">
      <stop offset=".6" stop-color="#b28247"/>
      <stop offset=".6" stop-color="#b28247" stop-opacity=".9"/>
      <stop offset=".7" stop-color="#b28247" stop-opacity=".6"/>
      <stop offset=".8" stop-color="#b28247" stop-opacity=".3"/>
      <stop offset=".9" stop-color="#b28247" stop-opacity=".2"/>
      <stop offset="1" stop-color="#b28247" stop-opacity="0"/>
      <stop offset="1" stop-color="#b28247" stop-opacity="0"/>
    </radialGradient>
    <radialGradient id="_未命名漸層_8" data-name="未命名漸層 8" cx="319.1" cy="680.8" fx="319.1" fy="680.8" r="273.7" gradientTransform="translate(0 1437) scale(1 -1)" gradientUnits="userSpaceOnUse">
      <stop offset=".2" stop-color="#fff"/>
      <stop offset=".6" stop-color="#fff"/>
      <stop offset=".7" stop-color="#fff"/>
      <stop offset=".8" stop-color="#fff"/>
      <stop offset=".8" stop-color="#fff" stop-opacity=".9"/>
      <stop offset=".8" stop-color="#fff" stop-opacity=".8"/>
      <stop offset=".9" stop-color="#fff" stop-opacity=".7"/>
      <stop offset=".9" stop-color="#fff" stop-opacity=".6"/>
      <stop offset=".9" stop-color="#fff" stop-opacity=".4"/>
      <stop offset="1" stop-color="#fff" stop-opacity=".2"/>
      <stop offset="1" stop-color="#fff" stop-opacity="0"/>
      <stop offset="1" stop-color="#fff" stop-opacity="0"/>
    </radialGradient>
    <radialGradient id="_未命名漸層_9" data-name="未命名漸層 9" cx="318.8" cy="680.1" fx="318.8" fy="680.1" r="273" gradientTransform="translate(0 1437) scale(1 -1)" gradientUnits="userSpaceOnUse">
      <stop offset=".2" stop-color="#e83828"/>
      <stop offset="1" stop-color="#ea5514" stop-opacity="0"/>
    </radialGradient>
    <linearGradient id="_未命名漸層_10" data-name="未命名漸層 10" x1="398" y1="920.5" x2="400.3" y2="742.7" gradientTransform="translate(0 1437) scale(1 -1)" gradientUnits="userSpaceOnUse">
      <stop offset="0" stop-color="#fff" stop-opacity="0"/>
      <stop offset="0" stop-color="#f2ede5" stop-opacity=".2"/>
      <stop offset="0" stop-color="#dfd3c1" stop-opacity=".4"/>
      <stop offset="0" stop-color="#d0bda1" stop-opacity=".6"/>
      <stop offset=".2" stop-color="#c3ac88" stop-opacity=".7"/>
      <stop offset=".2" stop-color="#b99e74" stop-opacity=".8"/>
      <stop offset=".3" stop-color="#b29466" stop-opacity=".9"/>
      <stop offset=".4" stop-color="#ae8e5e"/>
      <stop offset=".5" stop-color="#ad8d5c"/>
    </linearGradient>
    <linearGradient id="_未命名漸層_11" data-name="未命名漸層 11" x1="399.1" y1="801.3" x2="399.1" y2="754.2" gradientTransform="translate(0 1437) scale(1 -1)" gradientUnits="userSpaceOnUse">
      <stop offset="0" stop-color="#f8eecd"/>
      <stop offset=".2" stop-color="#f1e6c2"/>
      <stop offset=".4" stop-color="#e1d3a7"/>
      <stop offset=".7" stop-color="#c6b47b"/>
      <stop offset="1" stop-color="#af9954"/>
    </linearGradient>
  </defs>
  <rect class="st11" x="-118.6" y="-47" width="986" height="1688"/>
  <g>
    <circle class="st15" cx="332.5" cy="473" r="79"/>
    <circle class="st16" cx="353.5" cy="704" r="76"/>
    <circle class="st14" cx="330.5" cy="820" r="56"/>
    <circle class="st13" cx="248.5" cy="712" r="71"/>
    <circle class="st17" cx="466.5" cy="377" r="54"/>
  </g>
  <path class="st5" d="M646.4,1180.4c-7.7-106.9,24.7-180.3-60.6-346.1-35.3-58.1-41.5-482.3-47.9-502.9M305.9,540.7c-59.3,56-39.4-58.8,13.1,5.9,70.3,97.8,79.6,29.5,167.5,85.8,35.3,25.9,76.6,28.8,108.1,11.7s161.4-82.6,161.4-82.6"/>
  <path class="st1" d="M163.2,1060.7c1.8-80.6-.3-178.5,5-258.5,7.2-43.6-16.7-47.3-37.8-59.4,0,0-16-6,0-23,16-16.9,138.8-151.4,138.8-151.4,0,0,10.5-13.7,8.3-65-1-95.7,8.3-94.4,31.9-156.2"/>
  <g>
    <path class="st0" d="M586.6,855.1h-.5c-1.5,0-2.9-.7-4.2-1.7-1.3-1.1-2.1-2.5-2.5-4.1,0-.6-.2-1.3,0-2,0-.4,0-.9.2-1.3-1-.9-1.8-2-2.2-3.3-.6-1.6-.5-3.3,0-5,1-2.6,3.5-4.4,6.3-4.7.4-1.1,1.1-2,2-2.8s1.9-1.3,3-1.6c.3,0,.6,0,.9,0h1.7c1.5.2,2.8.7,3.9,1.7.9.8,1.7,1.8,2.1,2.9,1,0,1.9.3,2.8.8,2,1,3.3,2.7,3.8,4.9.2.7.2,1.5.2,2.3s-.4,2.2-1,3.2c-.4.7-.9,1.3-1.5,1.8.2.7.2,1.4.2,2.1,0,1.6-.6,3-1.5,4.1-1,1.3-2.4,2.2-4,2.7-.6.2-1.2.2-1.8.2s-.3,0-.5,0c-1.2,0-2.4-.4-3.4-1.1-.7.5-1.5.8-2.4,1-.5,0-1,.2-1.5.2v-.2Z"/>
    <path class="st7" d="M590.2,828.9h1c1.4.2,2.6.7,3.7,1.6,1,.8,1.7,1.8,2.1,3,1,0,2,.3,2.9.7,1.9,1,3.1,2.5,3.6,4.6.2.7.2,1.4.2,2.2s-.4,2.1-1,3c-.4.7-1,1.4-1.7,1.9.2.7.3,1.5.3,2.3,0,1.5-.6,2.8-1.4,3.9-1,1.3-2.3,2.1-3.8,2.5-.6,0-1.1.2-1.7.2s-.3,0-.4,0c-1.3,0-2.4-.5-3.4-1.2-.7.5-1.6.9-2.5,1-.5,0-.9,0-1.4,0h-.5c-1.4,0-2.8-.6-3.9-1.6-1.2-1-2-2.3-2.3-3.9,0-.6-.2-1.2,0-1.8,0-.5,0-1,.3-1.5-1.1-.8-1.9-1.9-2.3-3.3-.5-1.5-.5-3.1,0-4.7,1-2.6,3.5-4.3,6.2-4.4.4-1.1,1.1-2.1,2-2.9.8-.7,1.8-1.2,2.8-1.5.3,0,.6,0,.8,0h.6M590.2,828h-.6c-.3,0-.6,0-.9.2-1.2.3-2.2.8-3.2,1.7-.9.8-1.6,1.7-2,2.7-2.9.3-5.4,2.2-6.4,4.9-.7,1.8-.7,3.5,0,5.3.5,1.3,1.2,2.5,2.2,3.4,0,.4,0,.7,0,1.1,0,.7,0,1.4.2,2.1.4,1.8,1.3,3.2,2.6,4.4,1.3,1.1,2.8,1.7,4.4,1.8h.6c.6,0,1.1,0,1.6-.2.8-.2,1.6-.5,2.3-.9,1,.6,2.2.9,3.4,1h.5c.7,0,1.3,0,1.9-.2,1.7-.4,3.1-1.4,4.2-2.8,1-1.2,1.5-2.7,1.6-4.4,0-.7,0-1.4-.2-2,.6-.5,1.1-1.1,1.4-1.7.6-1,1-2.2,1.1-3.4,0-.9,0-1.7-.2-2.5-.6-2.3-1.9-4.1-4.1-5.1-.9-.4-1.8-.7-2.7-.8-.5-1.1-1.2-2-2.1-2.8-1.2-1-2.6-1.6-4.2-1.8h-1.2Z"/>
  </g>
  <path class="st7" d="M590.5,849.3c-.6,1.4-1.7,2.3-3.2,2.6-1.2.2-2.3,0-3.2-.8-1.1-.8-1.6-1.9-1.7-3.2,0-1.3.5-2.4,1.5-3.3-1.6-.2-2.9-1-3.6-2.5-.5-1-.5-2.1,0-3.1.5-1.2,1.3-2.1,2.6-2.5,1.2-.4,2.4-.3,3.6.4-.3-1.6,0-3,1.2-4.1.9-.8,1.9-1.2,3.1-1.1,1.3,0,2.3.7,3.1,1.7s1,2.2.7,3.5c1.6-.9,3.1-.9,4.6,0,1,.6,1.5,1.5,1.8,2.6.5,2.5-1.3,4.8-3.8,5l.2.2c.3.3.6.6.8,1,.4.7.6,1.4.5,2.2,0,.9-.3,1.7-.9,2.4-.6.8-1.4,1.3-2.4,1.5-1.1.2-2.1,0-3.1-.6-.7-.4-1.2-1-1.5-1.8,0,0,0,0,0-.2h0Z"/>
  <g>
    <g>
      <path class="st0" d="M625.8,636.3c-2.4,0-4.8-1.2-6.2-3.3-1.3-1.8-1.7-3.9-1.1-5.9-2.3-1.8-3.1-4.8-2.2-7.9,1-3,3.5-5,6.4-5.1,1-2.7,3.7-4.5,6.8-4.5s5.8,1.8,6.8,4.5c3,.2,5.5,2.2,6.5,5.2.9,2.9,0,5.9-2.3,7.8.6,2,.2,4.1-1.1,5.9-1.5,2-3.8,3.3-6.2,3.3h0c-1.3,0-2.6-.4-3.7-1.1-1.1.7-2.4,1.1-3.7,1.1Z"/>
      <path class="st7" d="M629.5,610.1c2.8,0,5.6,1.5,6.5,4.5,6.3.2,9.3,8.4,4,12.4,1.5,4.6-2.6,8.9-6.8,8.9s-2.5-.4-3.7-1.2c-1.2.8-2.4,1.2-3.7,1.2-4.3,0-8.4-4.2-6.9-8.9-5.1-3.6-2.3-12.4,4-12.4h0c1-3,3.7-4.5,6.5-4.5M629.5,609.2c-3.2,0-6,1.8-7.1,4.5-3,.2-5.5,2.3-6.5,5.4-1,3.1-.2,6.2,2.1,8.1-.5,2.1,0,4.2,1.3,6,1.5,2.1,4.1,3.4,6.6,3.4s2.6-.4,3.7-1c1.1.7,2.4,1,3.7,1,2.5,0,5-1.3,6.6-3.4,1.3-1.8,1.7-3.9,1.2-6,2.3-2,3.1-5.1,2.2-8.1-1-3-3.5-5.1-6.6-5.4-1.1-2.8-3.9-4.5-7.1-4.5h-.1Z"/>
    </g>
    <path class="st7" d="M629.5,630.4c-2.7,6.3-11.8-.2-6.5-4.8-6.9-.6-3.4-11.2,2.5-7.7-1.5-6.7,9.6-6.7,8.1,0,5.9-3.5,9.4,7.1,2.5,7.7,5.2,4.5-3.8,11.1-6.5,4.8h0Z"/>
  </g>
  <g>
    <g>
      <path class="st0" d="M-3.7,13.3c-2.4,0-4.8-1.2-6.2-3.3-1.3-1.8-1.7-3.9-1.1-5.9-2.3-1.8-3.1-4.8-2.2-7.9,1-3,3.5-5,6.4-5.1,1-2.7,3.6-4.4,6.8-4.4s5.8,1.8,6.8,4.5c3,.2,5.5,2.2,6.5,5.2.9,2.9,0,5.9-2.3,7.8.6,2,.2,4.1-1.1,5.9-1.5,2-3.8,3.3-6.2,3.3h0C2.4,13.4,1.1,13,0,12.3c-1.1.7-2.4,1.1-3.7,1.1h0Z"/>
      <path class="st7" d="M0-12.9c2.8,0,5.6,1.5,6.5,4.5,6.3.2,9.2,8.4,4,12.4,1.5,4.6-2.6,8.9-6.8,8.9S1.2,12.5,0,11.7c-1.2.8-2.4,1.2-3.7,1.2-4.3,0-8.4-4.2-6.9-8.9-5.1-3.6-2.3-12.4,4-12.4h0c1-3,3.7-4.5,6.5-4.5M0-13.7c-3.2,0-6,1.8-7.1,4.5-3,.2-5.5,2.3-6.5,5.4s-.2,6.2,2.1,8.1c-.5,2.1,0,4.2,1.3,6,1.5,2.1,4.1,3.4,6.6,3.4s2.5-.3,3.6-1c1.1.7,2.4,1,3.7,1,2.5,0,5-1.3,6.6-3.4,1.3-1.8,1.7-3.9,1.2-6,2.3-2,3.1-5.1,2.2-8.1-1-3-3.5-5.1-6.6-5.4-1.1-2.8-3.9-4.5-7.1-4.5h0Z"/>
    </g>
    <path class="st7" d="M0,7.5c-2.7,6.3-11.8-.2-6.5-4.8-6.9-.6-3.4-11.2,2.5-7.7-1.5-6.7,9.6-6.7,8.1,0,5.9-3.5,9.4,7.1,2.5,7.7C11.7,7.2,2.7,13.8,0,7.5Z"/>
  </g>
  <path class="st0" d="M589.9,838.7h-1.6l.8-1.4h2.2v9.9h-1.4v-8.5ZM625.3,620.3h-1.6l.8-1.4h2.2v9.9h-1.4v-8.5ZM628.9,623.8c-.3-6.6,6.9-6.5,6.6,0,.3,6.7-7,6.6-6.6,0ZM630.2,623.8c-.3,4.8,4.1,4.9,3.8,0,.3-4.8-4-4.9-3.8,0Z"/>
  <path class="st3" d="M275.5,1134.3c0-2.9,13-222.7,12.7-225.4-9.3-47.7-5-153.8.8-206.9,21.6-64.4,39.3-105.1,103.9-150.6,7.1-5.7,7.4-16.3.7-22.3l-154.8-148.7"/>
  <path class="st2" d="M275.5,1134.3c0-2.9,13-222.7,12.7-225.4-9.3-47.7-5-153.8.8-206.9,21.6-64.4,39.3-105.1,103.9-150.6,7.1-5.7,7.4-16.3.7-22.3l-154.8-148.7"/>
  <path class="st7" d="M244.2,645.6c-1.8,0-3.2-1.5-3.2-3.2s1.5-3.2,3.2-3.2,3.2,1.5,3.2,3.2-1.5,3.2-3.2,3.2Z"/>
  <path class="st4" d="M244.1,642.4h112l14.9,26.7M314.6,914.1l-13.5-24.1h-115.4"/>
  <path class="st7" d="M317.3,912.3c.9,1.6.3,3.5-1.2,4.4-1.6.9-3.5.3-4.4-1.2-.9-1.6-.3-3.5,1.2-4.4,1.6-.9,3.5-.3,4.4,1.2Z"/>
  <path class="st19" d="M276.4,828.7l-15.4-9.1c.2-6-3.6-12.1-11.5-12.1h-55.4c-16.4,0-16.4,23.2,0,23.2h55.4c4.4,0,7.5-1.9,9.4-4.6l17.6,2.5h-.1Z"/>
  <circle class="st8" cx="358.6" cy="497.9" r="6"/>
  <circle class="st9" cx="287.7" cy="708.4" r="6"/>
  <rect class="st10" x="138.5" y="654.9" width="86.8" height="18.8" rx="2.9" ry="2.9" transform="translate(-429.6 347.5) rotate(-47.3)"/>
  <rect class="st20" x="385" y="528.5" width="28" height="125.9"/>
  <g>
    <path class="st18" d="M417,650.5v1.7c-.7-9.2-8.5-16.5-17.9-16.5s-17.2,7.3-17.9,16.5v-1.8c0-9.9,8-18,18-18s18,8,18,18h-.2Z"/>
    <path class="st6" d="M399.1,635.7c-9.9,0-18,8-18,18,0,16.9,18,29.1,18,29.1,0,0,18-12.8,18-29.1s-8-18-18-18ZM399.1,661c-4,0-7.3-3.3-7.3-7.3s3.3-7.3,7.3-7.3,7.3,3.3,7.3,7.3-3.3,7.3-7.3,7.3Z"/>
  </g>
  <path class="st7" d="M198,815.6v-2.1h1.4v2.1h1v1.3h-1v1.6c.3,0,.5-.2.7-.3v-.7h2.6v-.6h-2v-1.1h2v-.5h-2.4v-1.2h2.4v-.7h1.4v.7h3.1v1.2h-3.1v.5h2.8v1.6h.5v1.3h-.5v1.6h-2.8v.6h2.8v1.1h-2.8v.7h3.3l-.2,1.4c-2.1,0-4.4.2-5.8-1.1-.2.4-.5.9-.8,1.2l-1.1-1c.8-.8,1.2-1.6,1.3-2.6l1.3.2c0,.4-.1.7-.2,1,.2.2.5.4.8.5v-2.1h-2.1v-1.2h2.1v-.6h-2.5v.9c-.2,0-.5.3-.8.4-.1,1.8.8,4.7-2.2,4.1l-.3-1.5c1.8.4,1.1-1.2,1.2-2.2-.3,0-.7.2-1,.3v-1.6c.3,0,.6-.2,1-.3v-2h-1.1v-1.3h1.1v.4ZM204.1,817.5h1.4v-.6h-1.4v.6ZM204.1,819.2h1.4v-.6h-1.4v.6ZM219.9,815.8h-.9v.5h-2v.4h2.5v3.6h-2.5v.5h3.1v1.2h-3.1v.8c.7,0,1.8,0,3.2-.2l-.2,1.4c-3.6-.1-6.8.3-8.5-1-.3.4-.6.9-1,1.3l-1-1.2c1.1-.9,1.5-1.6,1.9-3h-1.3c.4-.9.7-1.8.9-2.5h-1.3v-1.3h3c-.2.9-.5,1.7-.8,2.5h1.2c-.2,1.3-.5,2.3-.9,3.1h0c1,.8,1.5.6,3.5.7v-.8h-2.9v-1.2h2.9v-.5h-2.4v-3.6h2.4v-.4h-2v-.5h-1v-2.2h7.3c0,.1,0,2.4-.1,2.4ZM212.5,815.1l-1.2.9c-.4-.6-.9-1.2-1.6-1.8l1.1-.7c.6.5,1.2,1.1,1.7,1.7h0ZM215.5,815.3v-.6h-1.6v.6h1.6ZM215.5,818.1v-.6h-1.1v.6h1.1ZM215.5,818.9h-1.1v.6h1.1v-.6ZM216.9,815.3h1.6v-.6h-1.6v.6ZM216.9,818.1h1.2v-.6h-1.2v.6ZM218.2,818.9h-1.2v.6h1.2v-.6ZM225.5,813.8c-.5,1.1-.9,1.9-1.3,2.4h1c.3-.4.5-.9.8-1.3l1.2.7c-.8,1.3-1.7,2.5-2.6,3.4.4,0,.9,0,1.4-.2,0-.3-.2-.5-.3-.7l1-.3c.3.6.6,1.3,1,2.3l-1.2.4c0-.2-.1-.5-.2-.7-1.2.3-2.5.5-3.7.7l-.2-1.4h.6c.5-.5,1-1.1,1.4-1.7-.6,0-1.3,0-1.9.2l-.2-1.3h.5c.6-.8,1-1.8,1.4-3l1.5.4h-.2ZM223.8,821.2c0,.9-.1,1.8-.3,2.7h-1.4c.3-.9.4-1.8.5-2.8h1.2ZM225.7,823.4l-1.3.2c0-.7,0-1.6-.2-2.4h1.1c.2.5.3,1.3.4,2.2ZM227.5,822.4h1.5v-6.9h-1.9v-1.4h5.7v1.4h-2.2v6.9h2.4v1.4h-6.3v-.9h-.4c-.2-.7-.4-1.4-.6-2l1.1-.3c.2.4.6,1.1.7,1.8ZM237.8,813.8c-.3,1.1-.6,2-.9,2.7h.5c.3-.6.5-1.2.7-1.9l1.3.6c-.7,1.7-1.5,3-2.2,4,.3,0,.7,0,1.1,0,0-.3-.1-.6-.2-.9l1-.3c.2.5.3,1.1.4,1.6h2c.1,1.6-.6,3.5-1.7,4.6l-.9-1.2c.2,0,.3-.3.4-.4l-.7.2c-.1-.7-.3-1.2-.4-1.7l.9-.2c.2.3.3.8.5,1.3.2-.4.5-.8.6-1.3h-.8v-.2l-.8.2v-.4c-1,.2-2,.4-3,.6l-.2-1.4h.6c.4-.5.7-1,1-1.5-.5,0-.9.2-1.4.3l-.2-1.3h.5c.3-.8.6-1.9.9-3.2l1.3.3-.3-.4ZM236.6,821c0,1.1-.1,2-.2,2.7l-1.2-.3c.2-.8.3-1.7.4-2.5h1.1-.1ZM238.2,823.3l-1.2.2c0-.8,0-1.6-.1-2.5h1c.1.6.2,1.3.3,2.3ZM242.9,813.6c0,.3-.2.6-.3.8h2.5v4.4h-2.2c0,.4.2,1,.4,1.3.4-.2.7-.6,1-1.1l1.1.9c-.5.6-1,.9-1.4,1.2.4.5,1.1,1,1.8,1.4l-1.1,1.3c-.7-.5-1.2-1.1-1.6-1.7,0,0-.2-.3-.2-.4,0,1.9.1,2.8-2.1,2.5l-.2-1.3c.6,0,.8.2.9-.3,0,0,0-3.7,0-3.7h-1.9v-4.4h1.4c.1-.3.2-.7.2-1l1.6.2h0ZM243.8,816.1v-.6h-2.8v.6h2.8ZM243.8,817.1h-2.8v.6h2.8v-.6ZM204.5,634.7l.7-.8,1,.9-.7.8,1,.9-.6.6c.5,0,1-.2,1.5-.4v1c.1,0,.6-.6.6-.6l2.9,2.7c-1,1-2,1.5-3.6,2.5-.2,2.4-2.1,4.9-4.2,2.7l.7-1.2c1.1,1.5,2.2-1,2.2-2.6,1.1-.5,2-1,2.8-1.5l-.8-.8-6.1,6.7-1-.9,6.1-6.7c-.6.2-1.3.3-1.9.3l.7.7-.9,1-1.6-1.5h-1.1l1.9,1.7-3.7,4-1-.9.4-.4-1.6-1.4-.4.4-1-.9,2.6-2.8c-.2,0-.4,0-.6-.2l.4-1.4c.8.3,1.7.5,2.6.6l-1.5-1.4.9-1,1.5,1.3.7-.7-1.1-1,.9-1c.2.2,1.2,1.1,1.3,1.3ZM200.8,642.3l.6-.6-1.6-1.4-.6.6,1.6,1.4ZM202.1,640.9l.5-.6-1.6-1.4-.5.6,1.6,1.4ZM205.4,637.3l-.7-.7-.7.7h1.4,0ZM194.5,656.4l-1.1-1,.2-.2-3.8-3.5-.2.2-1.1-1,2.7-3,5.9,5.4-2.7,3h.1ZM194.3,654.5l.3-.3-3.8-3.5-.3.3,3.8,3.5ZM199.4,646.4c.3,1.4,1,2.9,1.9,4.5l-1.3.7c0,0-.1-.2-.2-.4l-2,2.2-6.5-6,2-2.2c-.1,0-.3,0-.4,0l.5-1.4c1.6.9,3.2,1.4,4.6,1.6l1.2,1.2h.2ZM195.2,653.5l.3-.3-3.8-3.5-.3.3,3.8,3.5ZM193.8,647.2l.7.3-.8-.7-.8.9.6.5c.1-.4.3-.7.3-1.1h0ZM199.6,650.8c-.3-.6-.6-1.3-.8-1.8l-.3.3-3.2-2.9.3-.3c-.6-.2-1.2-.4-1.8-.6l5.9,5.4h0ZM195.5,648.4l-.7-.7c0,.4,0,.8-.1,1.1l-.7-.2.7.7.8-.9h0ZM196.1,650.2c.4,0,.7,0,1.1-.3l-.7-.6-.8.9.9.8-.5-.9h0ZM198.4,647.9c-.2-.4-.3-.9-.4-1.3-.4,0-.9,0-1.3-.2l1.7,1.5ZM198.2,650.9l-.8-.7.4.7c-.3.2-.6.3-1,.4l.6.5.8-.9ZM188.3,653.8l-1.7,1.8.7.3c-.2.7-.5,1.4-.7,1.9l-1.1-.3c.3-.5.5-.9.7-1.4l-5.2,5.7-1-.9,7.4-8,1,.9h0ZM189.1,656.8l1.1-1.2,1.1,1-1.1,1.2,1.9,1.8-2.3,2.5.6.6-.9,1-1.6-1.5c-.7,1.4-.8,2.4-.4,3.8l-1.6.5c-.4-1.9,0-3.4,1-5.3-1.7,1.1-3.2,1.6-5.2,1.4l.3-1.5c1.3.2,2.6,0,3.7-.8l-1.4-1.3.9-1,1.5,1.4c.5-.3,1-1,1.5-1.5l-1.1-1,.9-1,1.1,1h0ZM185.6,654.4c-.8.9-1.6,1.6-2.3,2.1l-.7-1c.8-.6,1.5-1.2,2.2-1.9l.7.8h.1ZM189,659.1c-.4.4-.8.8-1.2,1.2l1,.9,1.4-1.6-.9-.9-.3.3h0ZM177.5,665.6c-.8.5-1.6.9-2.4,1.3l.9.8c-1,.8-1.9,1.4-2.7,1.7h-.1c.9,2.5,2.7,3.3,5.8,5.9l-1.2.9c-2.7-2.6-5.4-4.4-5.7-6.6-.5,0-1,.2-1.5.2v-1.6c1.5,0,2.2,0,3.4-.9l-1-.9c.9-.4,1.8-.8,2.5-1.2l-1-.9.8-.9,2.2,2v.2ZM181.3,666.1l.5-.5,1.1,1-.5.5,2.2,2.1-.8.9-2.2-2.1-.5.5,1.9,1.8-2.2,2.4-1.9-1.8h-.1c.6,1.4,1,2.4,1.2,3.1l-1.3.4c-.1-.7-.4-1.5-.7-2.4l-1.2,1.4-1.1-1,1.5-1.6c-1,.2-2,0-3,0l.3-1.6c.9.4,1.9.6,3,.5l-1.5-1.4,2.2-2.4,1.9,1.7.5-.5-2.2-2,.8-.9,2.2,2h0ZM178.3,664.8h-1.6v-2.6l1.4.2c.2.8.2,1.6.2,2.5h0ZM179.3,668.3l-.9-.8-.7.8.9.8.7-.8ZM181.3,670.1l-.9-.9-.7.8.9.9.7-.8ZM168.7,675.3c-.7.5-1.5.9-2.3,1.3l.9.8c-1,.8-1.9,1.4-2.7,1.7h0c.9,2.5,2.6,3.3,5.6,5.9l-1.1.9c-2.7-2.5-5.2-4.2-5.5-6.4-.5,0-1.1.2-1.7.2v-1.6c1.6,0,2.2-.1,3.6-.9l-1-.9c.9-.4,1.7-.8,2.4-1.2l-1-.9.8-.9,2.2,2h-.2ZM172.4,676.2l.8.7c.4,0,.8-.3,1.1-.5l1,1.2c-.4,0-.7.3-1,.3l1.2,1.1-.8.9-2.3-2.1c-.2,0-.3.2-.5.3l2.1,1.9-3.9,4.3-4.8-4.4,3.9-4.3,1.6,1.4c.1,0,.3-.2.5-.3l-1.9-1.7.8-.9,1.1,1c0-.3.2-.7.2-1l1.3.8c0,.4-.2.9-.4,1.3h0ZM170,682.1l-2.6-2.4-.4.4,2.6,2.4.4-.4ZM169.5,674.3h-1.6c.1-.8.2-1.6.1-2.5l1.4.2c.1.8.1,1.5,0,2.3h.1ZM170.7,681.4l.4-.4-2.6-2.4-.4.4,2.6,2.4ZM171.7,680.3l.4-.5-2.6-2.4-.4.5,2.6,2.4ZM162.7,684.1l-1.4,1.5c.9,0,1.8-.4,2.7-1l.9,1.1c-.2,0-.4.2-.6.3l2.1,1.9c-.8,1-2.4,1.5-3.5,1.6.2.7.6,1.5,1.1,2.2l-1.5.5s-.1-.2-.2-.3l-2.9,3.2-1.1-1,.4-.4-1.4-1.3-.4.4-1.1-1,2.9-3.1c-.1,0-.2,0-.3,0l.3-.8-.6.7-.6-.6-1.1,1.2c.4.2.7.4,1.1.5l-.9,1c-1.3-.6-2.7-1.3-4.1-2.1l.8-1.2c.1,0,.3.2.4.3l2.7-3,.9.8-2.6,2.8c.2,0,.3.2.5.3l3-3.2-1.2-1.1,2.7-3,2.9,2.7v.2ZM159.7,693l1-1.1-1.4-1.3-1,1.1,1.4,1.3ZM159.1,687.4c.9.6,1.7.9,2.4,1,0-.4,0-.9.1-1.3-.3,0-.6,0-.9,0l.2-1.1-.9,1-.7-.7-.8.9.5.5v-.3h0ZM160.8,684l-.9-.8-1,1.1.9.8,1-1.1ZM162.1,691.5c-.3-.6-.4-1.2-.5-1.8-.6,0-1.3-.2-1.9-.4l2.4,2.2ZM162.7,688.3c.6,0,1.1-.2,1.7-.4l-1.4-1.3h-.2c-.1.7-.2,1.2-.1,1.7ZM395.4,553.7h.6c0-.8,0-1.4-.1-2.1.3,0,3.7.2,2,.9-.5,0-.3.8-.3,1.1h3.7c0-.8,0-1.4-.1-2.1.3,0,3.7.2,2,.9-.5,0-.3.8-.3,1.1h.2c0,0,1.2-1.5,1.1-1.3,3.1,2.2.6,1.7-1.3,1.7v4.8h.5c0,.1,1.2-1.6,1.1-1.4.3-.2,1.6,1.4,1.5,1.6.3.4-4.4,0-4.5.2,1.4,1,3,1.7,4.7,1.9v.3c-.6,0-.9,1.1-1.2,1.4-1.4-.4-3.4-2-4.1-3.5h-2.7c-1.4,2.1-3,3.1-5.4,3.8v-.2c1.3-.8,2.7-2.1,3.4-3.5h-3.3l-.2-.6c.6,0,2.2.1,3.1,0v-4.8h-2.4l-.2-.6c.5,0,1.1,0,2,0l.2.2ZM398.2,562.4h.5c0-.6,0-1.4-.1-2,4.3.6,1.5.2,1.7,2h.3c.9-1.8,1.6-1.1,2.4.2.2.4-2.6,0-2.7.2v2h2.3c1.3-2.1,1.6-1.6,2.8.1-1.3.5-10.6,0-11.9.2l-.2-.6c1,.1,4.2.1,5.4,0v-2h-2.3l-.2-.6c.5,0,1.1,0,2,0v.3ZM401.3,555.4v-1.2h-3.7v1.2h3.7ZM401.3,557.1v-1.3h-3.7v1.3h3.7ZM401.3,559v-1.4h-3.7v1.4h3.7ZM397.5,571.8c1.4,1.5-.6.9-1.4,1v5.2c.6,0,1.2-.3,1.8-.5v.2c-1.1,1.2-2.6,1.8-3.7,2.5,0,0,0,.4-.2.4-.4,0-.7-1.4-1.1-2,.6,0,1.1,0,1.6-.2v-5.5h-1.3l-.2-.6c.7,0,1.1.1,1.6,0,0-1.2.1-3.1-.2-4.2.2,0,3.5.3,2,1-.2,0-.3.2-.3.4v2.9h.2c0-.2.6-1.3.6-1.3.1,0,.3.2.6.7h0ZM403.8,570.8c.2-.9,3.1.8,1.7,1.2-1.1,3.5.7,5.9-2,6.7-.4-.2-.2-1.3-1-1.5-.1.6.5,1.8-.7,1.8-1.7.2-.6-2.4-.8-3.2,0,0,0-3.1,0-3.1l-1.2.4c.2.4-.4,7.1.4,7,2.9-.2,4.7,1,5.2-2.9h.3c-.1,1.7,0,2.1.7,3.2-.8,1.8-5.9,1.2-7.2,1-1.9,0-.7-6.6-1-7.7-.4,0-.8.3-1.1.5l-.4-.5c.4,0,.9,0,1.5-.4,0-1.2,0-3.5-.1-4.7.5,0,3.4,0,2,1-.6,0-.2,2.8-.3,3.1l1.2-.5c0-1.3,0-3.2-.2-4.4.2,0,3.5,0,2,.9-.2,0-.3.2-.3.4v2.5l1-.4c.1-.3.3-.5.4-.7v.3ZM402.4,576.8c2.1,0,.7-1.8,1.1-5l-1.1.4v4.6ZM396.9,584.5c.7.2,1,.7.3.8-.9.3-.8,1.9-1.3,2.5h0c.3,0,.5.2.5.2-.8-.1-.4,9.2-.5,9.7-2.4,2.1-1.6-2-1.6-3.3,0,0,0-4.1,0-4.1-.4.6-.9,1.1-1.4,1.7l-.2-.2c1.6-2.8,2-4.4,2.6-7.6.5.2,1,.3,1.5.5v-.2ZM403.8,589.1c.8.2,1.1.4,1.1.7-1.7,1.9-1.6,5.2-3.2,7.1h1.6c0,0,1.3-1.6,1.3-1.5.2-.1,2.3,1.9,1.3,1.8-1.3,0-8.3,0-9.4,0l-.2-.6c.9,0,3.8.1,4.9,0,.8-2.6,1.2-5,1.4-8.2.5.2.9.3,1.2.5h0ZM402.2,584.3c1.5.2,0,.6-.1,1,0,0,0,2.2,0,2.2h1s1.2-1.7,1.2-1.5c.3-.1,2.2,1.9,1.2,1.8-1.2,0-7.1,0-8.2,0l-.2-.6c.7,0,2.4.1,3.3,0,0-.9,0-2.6-.1-3.5.7,0,1.3.2,1.9.3v.2ZM399.8,591.9c.4,1.4,1.2,3.6-.4,4-1.9-.8-.6-5.1-1.4-6.6l.2-.2c.7.9,1.3,1.8,1.6,2.8ZM395.5,601h7.8c.5-1.4,2-.2,2.4.5.1.2-.7.4-.6.6,0,.3.3,1.7-.3,1.8.2.1.9,1.1.9,1.1q0,.2-.2.2h-5.5c-.1.5-.2.9-.3,1.3h2.1c.9-1.4,1.8-.4,2.5.4.1.3-.5.7-.5.9,0,0,0,5.6,0,5.6h.1s1.1-1.4,1.1-1.3c.2,0,2.1,1.8,1.1,1.7-1.2,0-11.9,0-12.9,0l-.2-.6c.5,0,1.3.1,2.2,0,0-1.7.2-6.1-.2-7.6.9.2,2.1.9,3.2.7,0-.4.1-.8.2-1.3h-4.9l-.2-.6c1,.1,4,.1,5.2,0,0-.4.1-.7.2-1.1h-3.1c-2.5,1.9-1.3-2.2-1.7-3.5.5.2,1.1.4,1.6.6v.4ZM395.5,601.5v1.9h1.7v-1.9h-1.7ZM402,608.4v-1.3h-5.2v1.3h5.2ZM402,610.1v-1.2h-5.2v1.2h5.2ZM402,611.8v-1.3h-5.2v1.3h5.2ZM402,613.5v-1.3h-5.2v1.3h5.2ZM398.7,601.5v1.9h1.6v-1.9h-1.6ZM403.9,604.1c-.2,0-.4,0-.4-.3h-3.2c0,.4-.2.8-.2,1.1h3.4s.5-.6.7-.8h-.3,0ZM403.6,601.5h-1.7v1.9h1.7v-1.9Z"/>
  <path class="st12" d="M439.1,375.2c0-1.1,0-2.6-.2-3.6.3,0,3.3.1,1.9.9-.2,0-.3.2-.3.4v2.4h.3s.7-.7.7-.7c.2,0,1,1,.9.9.9.4,1.9.7,2.9.6v-1.9h-3.1l-.2-.6c.7,0,2.4.1,3.4.1,0-.8,0-1.5-.2-2.1.3,0,3.6.1,2.1.9-.5,0-.3.9-.3,1.2h1.2c0,0,1.1-1.5,1.1-1.3.2,0,.5.2.9.7,2.3,1.8-2.8.7-3.3,1v1.9h1.4c.7-1.5,2-.5,2.6.3,0,.3-.8.7-.7,1,0,0,0,6.9,0,6.9,0,.9-1.2,1.5-1.9,1.5-.5-.2-.3-1.3-1.2-1.5h0c0,.4-.9.5-1.3.5-.9-.3-.2-2-.4-3.1h-1.5v-.2,3.6c0,.3-.9.5-1.2.4-1.1-.1-.2-5.5-.5-6.4h0c-1.4,1.4-1.2-1.2-1.8-2.2,0,1.8,0,6.4,0,8.1,0,.4-1.7.7-1.6,0,0-1.7,0-4.4,0-6.1-.5,1.3-1,2.2-1.9,3.1h-.2c.9-2.4,1.6-4.7,2-6.8h-1.7l-.2-.6c.5,0,1.1.1,2,.1l.3.6ZM442.4,377.5c0-.6,0-1.2-.1-1.8h-1.7v.8c.7.4,1.2.8,1.6,1.2,0,.1.2.2.2.3v-.5ZM445.5,381.5v-1.8h-1.1l-.2-.6c.4,0,1.1.1,1.9.1.3-.9.7-1.8.7-2.7.7.5,2.6,1.1.9,1.4-.4.6-.7.9-1.3,1.3h.5c.7-.9,1-.8,1.5.2.2.4-1.3.1-1.4.2v1.8c.4.1.7-.3,1-.6.2,0,.4.3.7.6v-4.9h-4.7v4.9h1.6,0ZM445.5,377.4c.6.5.2,1.8-.6,1.8-.4-.4-.6-1.7-.8-2.3.7.2,1.2.4,1.4.6h0ZM447,382.3v1.7c2,.3,1.4-.7,1.5-2.1h-1.6v.4h.1ZM455.5,375.3h0c0-.8.2-2.9-.2-3.6.4,0,2.3.1,2.5.5,0,.3-.8.4-.7.8,0,0,0,2.3,0,2.3h.2c1-1.3,1.2-.9,2.1.2.2.4-2,0-2.2.2v1.2c.9.3,1.4.6,1.7,1.3h1.9c-.3-.8-.3-2-.9-3,1.3,0,3.1,1.9,1.9,3h-.1,1.6c.4-1.1.7-2.3.9-3.5.8.3,3.5,1.2,1.4,1.5-.5.8-1.1,1.4-1.8,2.1h1.2c1.2-1.7,1.3-1.3,2.6.2.2.4-3.9,0-4,.2v2.5h1c1.1-1.7,1.6-1.3,2.5.2.3.4-3.4,0-3.5.2-.2.8.7,4.3-.8,4.3-2,.2-.5-2.8-.9-4.3h-3l-.2-.6c.7,0,2.4.1,3.3.1v-2.5h-2.7c-.7,2-1.2.4-1.7-.7v7.4c0,.4-1.7.6-1.7.1,0,0,0-6.4,0-6.6-.6,1.4-1.1,2.2-1.9,3.2h-.2c.9-2.3,1.5-4.4,1.9-6.4h-1.6l-.2-.6c.5,0,1.2.1,2.1.1l-.5.2ZM463.4,372c1.4.2,0,.6-.2,1,0,0,0,1.1,0,1.1h1.1c0,0,1.2-1.4,1.1-1.3.2-.1,2.2,1.8,1.2,1.7-1.2,0-6.9,0-7.9,0l-.2-.6c.6,0,2.2.1,3.1.1,0-.7,0-1.6-.1-2.3.7,0,1.3.2,1.9.3h0ZM472.3,372.7h8.5c.8-1.4,2.1-.3,2.7.5,0,.2-.6.8-.5,1,0,0,0,11.3,0,11.3.2.3-.9.4-1.2.4-.6,0-.4-.8-.4-1.2h-9c.2.9-.4,1.2-1.3,1.1-1.2-.4-.1-2.8-.4-3.6,0-2.2,0-8.2,0-10.3.7.2,1.3.4,1.9.7h-.2ZM473.9,384.4c-.1-.2-.2-.4-.4-.7,0-.2-.2-.4-.3-.8.5,0,.9-.1,1.3-.2v-.9c-.7.2-1.4.6-2.2.7v-.2c1.1-.6,2.4-1.4,3.2-2.5h-.7c0,.4-.7.5-1.1.5-1.1-.2-.3-2.4-.5-3.4,1,.7,3.7.6,4.9.6.6-1.3,1.8-.2,2.3.5.1.2-.7.3-.6.6-.1.4.3,1.4-.4,1.5.7.4,1.9,1.1.3,1-.3.2-.6.5-1.1.7,0,0,.2.1.2.2.6.4,1.3.7,2.1.9v.3c-.7.2-1,.8-1.2,1.1-1.5-.6-2.7-2.2-3-3.9-.3.3-.6.6-.9.8v1.4c.4,0,.9-.2,1.2-.3v.2c-.8.9-2,1.3-3,1.8v.2h6.9v-11.2h-9v11.2c.1,0,2,0,2-.1ZM475.1,374.6h.6c0-.4,0-.8-.1-1.3.7.1,2.2,0,2.5.6,0,.3-.7.3-.7.7h.9c1-1.6,1.4-1.1,2.2.2.3.4-3.1.1-3.2.2v1.2h1.5c.6-.4,1.1-1.8,1.8-.5.4.5.8.8.3.9-1.2,0-7.3,0-8.3,0l-.2-.6c.7,0,2.5.1,3.5.1v-1.2h-2.4l-.2-.6c.5,0,1.2.1,2.1.1l-.3.2ZM478.3,379.3v-1.5h-3.5v1.5h3.5ZM477.7,380.8c.2.2.4.5.6.7,0-.1.2-.3.2-.4.2-.3.3-.6.5-.9-.4,0-.8.1-.8-.4h-1.1c.2.4.3.8.5,1h0ZM488.3,372.9h9.1c0,0,1.1-1.5,1.1-1.3.2-.1,2.2,1.8,1.2,1.7,0,0-10.9,0-10.9,0v10.2c.7,1.5,7.5.6,9.1.4.7-.7,2.4.9,1.1,1.3-14.9,1-11.7,1.4-12-12h-.8l-.2-.6c.5,0,1.2.1,2.1.1l.2.2ZM491.4,379.3h.7c.3-.3.3-.8.8-.8.3,0,2.1,1,1.3,1.4-.4,0-.1,2.8-.2,3,0,.5-1.8.7-1.5-.2h-1.1c0,.5,0,.7-.7.8-1.1.2-.9-.6-.9-1.3,0-.9,0-2.4,0-3.4.6.2,1.2.4,1.8.7l-.2-.2ZM493.2,374.5h2.4c.3-.2.3-.8.7-.8.2,0,2.2,1.1,1.4,1.5-.4,0-.1,2.3-.2,2.5,0,.4-1.8.8-1.7,0h-2.8c.2.5-.8.6-1.3.6-1.1-.2-.3-3.5-.5-4.5.6.2,1.3.5,2,.7ZM492.4,382.2v-2.5h-1.1v2.5h1.1ZM495.8,377.2v-2.2h-2.8v2.2h2.8ZM496.6,379.3h.8c.4-.3.3-.8.8-.8.3,0,2.2,1.2,1.2,1.5-.6,0-.2,2.5-.3,2.8,0,.5-1.9.7-1.6-.2h-1.3c0,.5,0,.6-.7.7-1.8.4-.5-3.6-1-4.7.7.2,1.4.6,2.1.7ZM497.6,382.2v-2.4h-1.3v2.4h1.3ZM328.5,695.8c1.6.5,1.2.7.3,1.1-.5.7-.8,1.1-1.5,1.4h4.6c1-1.8,2.3-.8,3.1.3,0,.2-.8.7-.7,1,0,0,0,7.9,0,7.9,0,.9.5,3.1-1.5,2.7-.6,0-.4-.8-.4-1.2h-7.3c0,.6.1,1-.8,1.2-1.5.3-.9-1.4-1-2.3,0-1.8.1-8.8,0-10.4,1,.3,2.2,1,3.3.8.3-1,.4-1.8.6-3,.6.3,1,.3,1.4.5ZM332.6,701.4v-2.7h-7.3v2.7h7.3ZM332.6,704.9v-3h-7.3v3h7.3ZM332.6,708.5v-3.2h-7.3v3.2h7.3ZM341.4,699.2h3.1c0-1.2,0-2.8-.2-3.8.4.1,4,.2,2.3,1.1-.8,0-.3,2.3-.4,2.7h3c.9-1.6,2.2-.4,2.8.5,0,.2-.8.7-.7,1.1,0,0,0,8.8,0,8.8.1.2-.2.4-.8.5-1,.1-1.1-.3-1-1.1h-8.5c.2.8-.5,1.2-1.3,1.1-1.3-.4-.2-2.9-.5-3.8,0-2.1,0-5.7,0-7.8.8.2,1.5.6,2.3.7ZM344.5,703.6v-4h-3.3v4h3.3ZM344.5,708.5v-4.4h-3.3v4.4h3.3ZM346.4,703.6h3.4v-4h-3.4v4ZM346.4,708.5h3.4v-4.4h-3.4v4.4ZM363.2,695.5c.7,0,.9.5.2.6-.6.2-.3.7-.4,1.1h3.5c1.3-2.2,1.6-1.4,2.9.2.2.6-4.5.2-4.7.3.6,0,1.9.6.8.8-.8.1-.8,1.3-1.6,1.7h2.4c1-1.4,2-.4,2.7.6,0,.3-1,.6-.9,1-.4,1.8,1.4,8.7-2.1,8.3-.5-.5-.3-1.5-1.8-1.8-.7,0-.9,0-.8-.7h-2.8c0,.6.2.9-.7,1.1-1.9.5-.7-3.6-1-4.7-.3,0-.5.2-.8.2l-.2-.2c1.4-.5,1.7-1.9,1.6-3.3h-1.8v9c0,.5-2,.8-1.9,0,0-3.4.2-6.8,0-10.2,1.2.4,2.5.9,3.8.7-.3-.8-.6-1.8-1.1-2.5h-3.6l-.3-.6c1.1.1,5.1.1,6.4,0,0-.7,0-1.3-.1-2,.8,0,1.5.3,2.3.3ZM362.9,704.4c.2-.2.5-.4.6-.6.4-.7,2.9.9,1.8,1.4-.6.8.2,2.1-.4,3,.6,0,1.5.3,1.5-.5,0,0,0-4.4,0-4.4-.6.4-2.2.1-3.1.2-1.2,0-.6-2.1-.7-2.7h-1.6c.2,1.5-.5,2.7-1.9,3.1.5.2,1,.3,1.5.6.2,0,2.2,0,2.3-.1ZM363.3,700.3c.3-.9.3-1.5.5-2.6h-4c.9.3,1.8,1.5.9,2.4,0,0-.2.2-.2.2h2.8ZM363.5,707.2v-2.3h-2.8v2.3h2.8ZM364.2,701.7c0,.6.2.5.8.5.8,0,.2-.4.6-1.3h.3c0,.5-.2,1,.5,1.2v-1.5h-2.4v1h.2ZM374.6,696h9.4c.8-1.4,2.2-.3,2.7.6,0,.3-.6.7-.6,1,0,0,0,12,0,12,0,.6-2.2.9-1.8-.3h-10c.4.9-1.8,1.2-1.8.3.1-3.9.2-10.6,0-14.5.7.2,1.4.4,2,.7v.2ZM384.4,708.9v-12.4h-10v12.4h10ZM377.3,699.7h.6c.2-.8.4-1.8.6-3,3.7,1.4,1.4.3.9,3h2.4c1.1-1.3,1.2-.9,2.1.2.3.4-3.3.1-3.4.2.3.6.6,1,1,1.4h.5c.9-1.5,1.4-.9,2.2.2.2.6-2.1.2-2.3.3.7.8,1.7,1.3,2.5,1.5v.3c-1.4.6-.8,2.8-2.5.1-.8,1.2-.5,2.7-2,2.6-.5-.4-.3-1.1-1.6-1.6v-.2c1.6.5,1.8.2,1.9-1.2h-2.1c.2.6-.5,3.2.5,3.3.8-.1,2.6.3,3.2-.2.1-.2.4-1.3.6-1.6h.3c0,1.9,0,1.1.6,2.1-.3,1.2-1.4.8-3.2,1-4.5.4-3.5-.9-3.6-4.5-.5.4-1.2.7-1.9,1.1v-.2c1-1,1.7-1.7,2.3-2.7h-2.2l-.3-.7c.5,0,1.8.1,2.7,0,.2-.4.4-.9.6-1.4h-2.4l-.3-.6c.5,0,1.2,0,2.2,0v.4ZM377.3,697.8c.9.4.4,1.6-.5,1.6-.8-.3-.9-1.3-1.7-1.9v-.3c1.2.2,1.8.2,2.2.6ZM378.4,703.2h1.7c.2-.4.6-.9,1-.6,0-.2-.1-.6-.3-.7h-2.5c-.2.3-.4.6-.6.8l.7.4h0ZM380.1,700.1h-.9c-.2.6-.4,1-.6,1.4h2c-.2-.5-.4-.9-.5-1.4ZM382.6,697.5c1.1.6.4.6,0,.8-.8.5-1.1.8-2.3,1v-.2c.5-.7,1.1-1.5,1.3-2.3.4.2.8.5,1.1.6h0ZM300.7,807.2h1.2c.7-.7.9-1.4,2-.6,1.2.9.8.7.3,1.6,0,0,0,6.1,0,6.1,0,.8.5,2.8-1.3,2.5-.6,0-.3-1.1-.4-1.5h-2.1c-.1.6.4,1.7-.7,1.8-1.4.3-.9-1.1-1-2,0-1.6.1-7.4-.1-8.9.7.2,1.4.4,2.1.8v.2ZM302.5,811v-3.4h-2.1v3.4h2.1ZM302.5,815v-3.6h-2.1v3.6h2.1ZM307.5,806.7h1.8c.3-.4.8-1.1,1.1-1.1.1,0,2,1.2,1.9,1.5,0,.4-1,.7-.9,1.1,0,0,0,10.4,0,10.4,0,1-1.5,1.8-2.4,1.8-.4,0-.3-.2-.4-.7-.2-.6-.7-1-1.7-1.4v-.3c1.1.1,2.5.8,2.7-.2,0,0,0-3.9,0-3.9h-2.4c.3,3.1-1.9,5.2-4.6,6.5l-.2-.2c4.1-2.1,3.1-10.3,3.2-14.3.8.2,1.5.5,2.1.8h-.2ZM309.6,813.4v-2.9h-2.3v2.9h2.4-.1ZM309.6,810.1v-2.9h-2.3v2.9h2.3ZM317.1,808.8h1s1.2-1.4,1.1-1.3c4.6,2.8-2.8,1.4-4,1.7l-.2-.6c.5,0,1.2,0,2.2,0h-.1ZM317.3,815.3h.6c.9-1.6,1.8-.8,2.6.1-.9,1-.4,2.1-.5,3.5,1-2.4,1.1-8.5.7-11.1.9.3,1.6.5,2.1.8h2.3c0-1,0-2.4-.2-3.2.9,0,3.6.4,2.1,1.1-.8.3-.2,1.6-.4,2.2h.9c1-1.3,1.3-1.1,2.3.2.3.4-3,.1-3.1.2,0,2.4,0,3.7.2,4.7.4-1,.7-2.3.9-3.7.6.3,1.9.5,2.1.9-1.4,1-1.7,3.9-2.4,4.8.9,2.6,1.3,2.2,2,0h.3c-.3,2.3-.4,2.3,0,3.9-.8,2.1-2.9-1.2-3.5-2.3-1.3,1.5-2.3,1.9-4.4,2.9v-.3c1.9-1.5,2.9-2.3,3.9-4-.3-1.2-.4-2-.6-3.4-1.1,2.5.6,5-2,5.3-.2-.4,0-1.1-1-1.4-.4,1.6-1.2,2.7-2.4,3.9h-.2c.1-.4.2-.6.3-.9-.5.2-1.6.5-1.4-.5h-1.3c0,.6.3,1.2-.7,1.3-2,.5-.6-4.5-1.1-5.7.6.2,1.3.4,1.9.7h0ZM317.7,806.6h.3s.9-1.2.9-1.1c.2,0,2,1.6,1,1.5-.9,0-3.6,0-4.2,0l-.2-.6c.5,0,1.2,0,2.2,0h0ZM317.7,811h.2c1.2-1.7,1.4-1.5,2.5.1,0,.7-4.1.1-4.5.3l-.2-.6c.5,0,1.2,0,2.2,0h-.2ZM317.8,813.1h.1c1.2-1.7,1.4-1.5,2.5.1,0,.7-4.1.1-4.4.3l-.2-.6c.5,0,1.2,0,2.2,0h-.2ZM318.4,818.6v-2.9h-1.3v2.9h1.3ZM323,816.1s.1,0,.2,0v-4h-.8c0,1.6-.1,2.8-.2,4h.8ZM325,809.1h-2.5v2.4h.5c.6-.9,1.2-.9,2,0v-2.5h0ZM328.9,806.1c1.1.6.1,1.7-.7,1.5-.3-.3-.4-1.4-.9-1.8.7,0,1.2.2,1.5.4h.1ZM340.6,805.8c.7,0,.9.5.2.6-.6.2-.3.7-.4,1.1h3.5c1.3-2.2,1.6-1.4,2.9.2.2.6-4.5.2-4.7.3.6,0,1.9.6.8.8-.8.1-.8,1.3-1.6,1.7h2.4c1-1.4,2-.4,2.7.6,0,.3-1,.6-.9,1-.4,1.8,1.4,8.7-2.1,8.3-.5-.5-.3-1.5-1.8-1.8-.7,0-.9,0-.8-.7h-2.8c0,.6.2.9-.7,1.1-1.9.5-.7-3.6-1-4.7-.3,0-.5.2-.8.2l-.2-.2c1.4-.5,1.7-1.9,1.6-3.3h-1.8v9c0,.5-2,.8-1.9,0,0-3.4.2-6.8,0-10.2,1.2.4,2.5.9,3.8.7-.3-.8-.6-1.8-1.1-2.5h-3.6l-.3-.6c1.1.1,5.1.1,6.4,0,0-.7,0-1.3-.1-2,.8,0,1.5.3,2.3.3ZM340.4,814.7c.2-.2.5-.4.6-.6.4-.7,2.9.9,1.8,1.4-.6.8.2,2.1-.4,3,.6,0,1.5.3,1.5-.5,0,0,0-4.4,0-4.4-.6.4-2.2.1-3.1.2-1.2,0-.6-2.1-.7-2.7h-1.6c.2,1.5-.5,2.7-1.9,3.1.5.2,1,.3,1.5.6.2,0,2.2,0,2.3-.1ZM340.8,810.5c.3-.9.3-1.5.5-2.6h-4c.9.3,1.8,1.5.9,2.4,0,0-.2.2-.2.2h2.8ZM341,817.4v-2.3h-2.8v2.3h2.8ZM341.7,812c0,.6.2.5.8.5.8,0,.2-.4.6-1.3h.3c0,.5-.2,1,.5,1.2v-1.5h-2.4v1h.2ZM352,806.3h9.4c.8-1.4,2.2-.3,2.7.6,0,.3-.6.7-.6,1,0,0,0,12,0,12,0,.6-2.2.9-1.8-.3h-10c.4.9-1.8,1.2-1.8.3.1-3.9.2-10.6,0-14.5.7.2,1.4.4,2,.7v.2ZM361.8,819.1v-12.4h-10v12.4h10ZM354.8,809.9h.6c.2-.8.4-1.8.6-3,3.7,1.4,1.4.3.9,3h2.4c1.1-1.3,1.2-.9,2.1.2.3.4-3.3.1-3.4.2.3.6.6,1,1,1.4h.5c.9-1.5,1.4-.9,2.2.2.2.6-2.1.2-2.3.3.7.8,1.7,1.3,2.5,1.5v.3c-1.4.6-.8,2.8-2.5.1-.8,1.2-.5,2.7-2,2.6-.5-.4-.3-1.1-1.6-1.6v-.2c1.6.5,1.8.2,1.9-1.2h-2.1c.2.6-.5,3.2.5,3.3.8-.1,2.6.3,3.2-.2.1-.2.4-1.3.6-1.6h.3c0,1.9,0,1.1.6,2.1-.3,1.2-1.4.8-3.2,1-4.5.4-3.5-.9-3.6-4.5-.5.4-1.2.7-1.9,1.1v-.2c1-1,1.7-1.7,2.3-2.7h-2.2l-.3-.7c.5,0,1.8.1,2.7,0,.2-.4.4-.9.6-1.4h-2.4l-.3-.6c.5,0,1.2,0,2.2,0v.4ZM354.8,808.1c.9.4.4,1.6-.5,1.6-.8-.3-.9-1.3-1.7-1.9v-.3c1.2.2,1.8.2,2.2.6ZM355.8,813.4h1.7c.2-.4.6-.9,1-.6,0-.2-.1-.6-.3-.7h-2.5c-.2.3-.4.6-.6.8l.7.4h0ZM357.6,810.4h-.9c-.2.6-.4,1-.6,1.4h2c-.2-.5-.4-.9-.5-1.4ZM360.1,807.7c1.1.6.4.6,0,.8-.8.5-1.1.8-2.3,1v-.2c.5-.7,1.1-1.5,1.3-2.3.4.2.8.5,1.1.6h0ZM283.7,459.3h1.9c.2-1.1.3-2.2.4-3.4.6.3,3.6.5,2.3,1.3-.8.2-.5,1.5-.8,2.1h5c1.4-2.3,1.8-2,3.2.1.3.6-8.3.2-8.4.3-1.1,3.9-2.9,6.9-5.8,9.5l-.2-.2c1.7-2.1,3.6-6,4.1-9.3h-3.7l-.3-.6c.5,0,1.2.1,2.2.1h0ZM288.5,463.5h3.3c1.3-2.2,1.6-1.4,2.9.2.2.6-3.5.2-3.7.3v5.4h1.8c1.4-2.3,1.9-1.9,3.2.1-1.3.5-10.6,0-11.9.2l-.2-.6c1,0,4.1.1,5.3.1v-5.4h-2.5l-.3-.6c.5,0,1.2.1,2.2.1v.2ZM303.2,458.7c0,.2,0,.3-.1.5,1.7,0,3.7,1.4,1.4,2.3-.5-.2-.9-1.4-1.6-1.7-.4.9-1.4,1.4-2.4,1.8v.2c.6,0,10.8.3,10.8-.5,3.1,2.1,1.5,1.5-.9,2.4,0,.2.1.4-.3.5-.6,0-.2,1.7-.3,2,0,.4-2,.8-1.7-.2h-1.6c-.5.6-1,1.1-1.5,1.5h4c.3-.4.5-.9.9-1,.3,0,2.6,1.2,1.5,1.7-.6,0-.2,1.8-.3,2.1-.2.7-2.1.8-1.7-.4h-7.8c.2.6-.7.9-1.3.8-1.1-.1-.3-3.1-.5-4.1,1.2.5,3.1,1,4.5.8.2-.4.4-.9.5-1.5h-2c.2.5-.7.6-1.1.6-1,0-.3-3-.5-3.9,1.2.8,5.5.6,6.9.6.6-1.1.9-1.2,2-.4.2-.4.4-.7.6-1.1h-10.1c0,.6,0,1.2-.5,1.6-.8.3-1.6,0-1.6-1,.5-.9,1.7-.8,1.8-2.1h.4v.4c1.5-1.1,1.5-3.4,1.4-5.1.5,0,3,.3,1.9.9-.6.1-.2,1-.4,1.3.5-.4,1-1,1.3-1.6,3.3,1.8.7,1.1-1.3,2.1l-.4.5ZM301.2,456.9c0,1.3.2,1.9-.5,2.6-.7.3-1.5,0-1.5-.9.5-.6,1.5-.7,1.8-1.7h.3-.1ZM309.3,469.5v-1.7h-7.8v1.7h7.8ZM308.2,465.5v-1.5h-5.5v1.5h5.5ZM307.3,457c0,1.3.2,2-.6,2.5-.7.3-1.5,0-1.5-.9.4-.6,1.6-.7,1.8-1.7h.3ZM309.4,458.6c0,.1,0,.3-.1.4.9.1,3.2.5,2.1,1.7-.8,1.2-1.4-.7-2.2-1.2h0c-.6,1.1-1.7,1.6-3.1,1.9v-.2c1.9-.9,2-3.4,1.9-5.2.5.1,3.2.4,2.1,1-.6.1-.2.8-.4,1.2.5-.3,1.1-.9,1.5-1.4,3.7,2.3.5,1.3-1.8,2v-.2ZM323.8,456.2c1.5.2-.1.6-.2,1,0,0,0,.9,0,.9h3.3s1.4-1.8,1.4-1.6c.3,0,2.7,2,1.6,2.1-1.5,0-12.8-.1-14,.1l-.3-.8c1.8.3,4.4.2,6.2.2,0-.7,0-1.4-.1-2.2.7,0,1.4.2,2.1.3ZM318.7,463.6h8.4c.8-.8.9-1.1,2-.2,1.5,1,.1.9-.1,1.8-.2,1.5.9,5.9-1.9,5.7-.5-.5-.3-1.5-1.8-1.8v-.3c.9-.1,2.2.6,2.1-.4,0,0,0-4.3,0-4.3h-9v6.4c0,.3-1,.6-1.3.5-1.2-.5,0-6.6-.6-8.2.8.2,1.6.5,2.4.9h-.2ZM320.4,459.6h4.7c.3-.3.5-1,.9-.9.3,0,2.6,1.2,1.5,1.7-.6,0-.2,1.8-.3,2.1,0,.4-1.8.8-1.7,0h0c0-.1-4.9-.1-4.9-.1h0c0,.5-.9.7-1.3.6-1.1-.3-.3-3-.5-4,.6.2,1.2.4,1.8.6h-.2ZM321.4,465.4h2.6c.3-.3.4-.8.8-.8.2,0,2.3,1.1,1.4,1.5-.4,0-.1,1.9-.2,2.2,0,.4-2,.8-1.7-.2h-2.9c.2.8-.5,1.2-1.3,1.1-1.1-.2-.1-3.3-.6-4.3.6.2,1.2.4,1.8.6h.1ZM325.3,461.9v-1.9h-4.9v1.9h4.9ZM324.3,467.6v-1.8h-2.9v1.8h2.9ZM336.5,456.2c1.6.6.4.4,0,.8h0c1.3.4,2.7,1.3,1.9,2.5h1.8v-1.3h-1.5l-.2-.6c.4,0,1,.1,1.8.1,0-.7,0-1.3-.1-2.1.4,0,3.2.1,2.1.7-.6.1-.4.9-.4,1.3h0c.8-1,1.1-1.2,1.9,0,0-.8,0-1.5-.1-2,.9,0,3.4.2,1.9.9-.9.4-.2,2.2-.4,2.9h.5s.5-.6.7-.8c-.2-.4-.3-1.2-.8-1.7v-.3c1.6,0,2.7.8,1.4,2,2.3,2.1-.6,1.1-1.7,1.3,0,2.3.1,3.2.2,4.5.3-1,.5-2.1.7-3.4.6.3,1.9.3,2,.9-1.3,1.1-1.5,3.9-2.2,4.7h0c.7,2.5.9.6,1.5-.6h.3c-.2,2.3-.3,2.3.1,3.9-.5,1.9-2.6-.6-2.9-1.9v-.2c-1,1.3-2,1.7-3.6,2.6v-.3c1.5-1.5,2.3-2.1,3.2-3.6-.6-2.2-.7-3.4-.8-6.7h-5.4v-.4c-1.3.2-1.2-1.5-2-2.3-.7,1.2-1.2,2-2.2,2.8h1.7c.5-.5.9-1.6,1.6-.5,1.3,1.3-.3,1-1.1,1v2.2h.3s.9-1.2.9-1.1c.1,0,.9.8,1.1,1,0-.8,0-1.9-.1-2.7.7.1,1.7.8,2.6.6.2-.2.3-.4.4-.5.1-.6,2.4.8,1.6,1.1-.6.4.4,2-.8,1.9-.3,0-.7.1-.8-.2h-1.5c.3.8-1.8,1-1.5.2h-2.2v4.1c.7,0,1.5-.2,2.1-.3v.2c-1.2,1-2.9,1.5-4.2,2,0,0,0,.4,0,.4-.4-.1-.7-1.3-1.1-2.1.7,0,1.4,0,2.1-.1v-4.3h-1.8l-.3-.6c.5,0,1.1.1,2,.1v-2.2h-1.1v-.3c-.4.2-.7.5-.9.7.6-1.6,1.8-3.3,2.2-5.5.5.2,1,.3,1.4.4l-.2.8ZM334.3,465.2c.8.8.3,2.7-.8,1.9-.2-.7,0-1.9-.3-2.8h.2c.4.3.8.6,1.1,1h-.2ZM338.3,464.5h.2v-.3c.5,0,2.5.1,3.4.1.7-1.2,1.1-.8,1.7.1.2.4-1.8.1-2,.2v1.3h.2c.9-1.1,1.3-.8,1.9.3.2.6-1.8.2-2,.3v1.1c.7,0,1.4-.2,2-.4v.2c-1.2,1-2.9,1.5-4.2,2,0,0,0,.4,0,.4-.5,0-.6-1.3-1-1.9.7,0,1.3,0,1.9-.2v-1.3h-1.3l-.3-.6c.4,0,.9,0,1.6.1v-1.3h-1.2c0,0-.6.1-.6.1-.4.8-.9,1.5-1.4,2.1h-.1c.2-1.1.3-2.1.4-3.3.4.2.8.3,1.3.5l-.4.5ZM341.5,462.9v-1.5h-1.4v1.5h1.4ZM343.5,458.3h-1.9v1.3h2v-1.4h-.1ZM352.5,457.8c.6,0,.7.6.2.6-.6.1-.2,1.2-.5,1.6h1c0-1.4,0-3-.2-4.2.2,0,3.8,0,2.3.9-.2,0-.3.2-.3.4,0,0,0,2.8,0,2.8h.3s.9-.9.8-.8c2.8,2,.2,1.1-1.1,1.3v2.8c.7-.2,1.4-.5,2-.8-.7.8-1.4,1.4-2.1,1.8v6c-3,2.5-1.5-3.6-1.8-5-.4.4-1.3.2-1.2.8-.4.7-1-1.2-1.3-1.9.9-.1,1.7-.3,2.5-.5v-3.3h-1.1c-.2,1-.6,1.7-1.3,2.6h-.1c.3-2.1.2-3.5.2-5.7.5.1,1,.2,1.5.3l.2.3ZM357.8,464.4h3.5c0-.8,0-1.1-.1-2.3,1.1.2,3.6.4,2.3,1.2-.6,0-.3.9-.4,1.2h.2s.9-1.2.9-1.1c2.7,1.9.6,1.5-1.1,1.5-.2,1.6,1,6.4-2,6-.5,0-.2,0-.3-.4,0-.5-.6-1-1.6-1.4v-.3c.9.1,1.9.5,2.2,0,0,0,0-3.9,0-3.9h-5.4l-.3-.6c.5,0,1.2.1,2.2.1h-.1ZM358.3,458.4h1.1c0-.8,0-1.7-.1-2.5.5,0,3.6.2,2.2.9-.7.2-.3,1.3-.4,1.7h1.3c1.3-2.1,1.7-1.6,2.9.1.2.4-4,0-4.1.2v2.7h.8c1.3-2.1,1.7-1.6,2.9.1-1,.8-6.3,0-7.5.3l-.2-.6c.5,0,1.3.1,2.3.1v-2.7h-3l-.3-.6c.5,0,1.2.1,2.2.1v.2ZM359.3,466.2c.9.7.5,2.1-.6,2.2-.7-.3-.7-2-1.4-2.6l.2-.3c.9.2,1.6.5,1.9.8h-.1ZM369.9,457.1h9.6c1.3-2.1,1.7-1.6,2.9.1,0,.2-.1.3-.3.3h-11.6v10.8c.2,1.4,8.6.7,9.7.3.8-.7,2.6,1,1.1,1.5-15.8,1-12.1,1.3-12.5-12.7h-.8l-.3-.6c.5,0,1.2.1,2.2.1v.2ZM373.2,463.9h.8c.6-.8.6-1.1,1.7-.3,1.1.7.7.7.1,1.3v2.8c0,.5-1.9.7-1.6-.2h-1.2c0,.5,0,.7-.7.8-1.1.2-1-.5-1-1.4,0-.9,0-2.8,0-3.7.6.2,1.2.4,1.9.7ZM375.1,458.8h2.6c.5-.8.8-1.1,1.7-.3,1,.7.7.7.2,1.3v2.3c0,.4-1.9.8-1.7-.1h-2.9c.2.5-.8.8-1.3.7-1.1-.2-.3-3.7-.5-4.7.7.2,1.3.4,2,.8h-.1ZM374.3,467v-2.6h-1.2v2.6h1.2ZM377.8,461.6v-2.4h-2.9v2.4h2.9ZM378.7,463.9h.9c.3-.4.3-.9.8-.9.2,0,2.4,1.2,1.3,1.5-.6,0-.2,2.7-.3,3,0,.4-2,.8-1.7-.2h-1.4c0,.5,0,.6-.7.7-1.8.4-.5-3.8-1-5,.7.2,1.4.4,2.1.9ZM379.8,466.9v-2.6h-1.4v2.6h1.4ZM213,707.8v-12h-1.6l-.3-.6c1.3.2,9.4,0,10.9,0,.1,0,1.4-1.8,1.4-1.6.3-.1,1.9,1.6,1.8,1.8,0,.7-10.1.1-10.5.3v3.4h6.6c.9-1.9,2-.9,2.9.1,0,.3-.8.6-.7,1-.3,1.1.9,4.6-.9,4.7-.8.1-1.1-.2-1-1h-7v3.8h7.5s1.4-1.9,1.4-1.7c.2,0,2.8,2.2,1.5,2.1-1.3,0-12.9,0-13.9,0l-.3-.6c.5,0,1.4,0,2.2.2ZM221.9,703.5v-3.8h-7v3.8h7ZM230.7,694.8h8.9c.4-.3.7-.9,1.1-.8.2-.2,1.8,1.5,1.8,1.6,0,.3-1.3.2-1.3.5-.6.3-1.1.5-1.5.7h0c2.1,1.6-3,.7-3.4.9v1.6c1.7,0,4.6.2,6.4-.2v.2c-.8.2-.7,1.2-1.2,1.5-3.8-.1-7,.3-9.3-2.8-1.1,1.8-1.8,2.5-3.9,3.5l-.2-.3c1.8-1.7,2.6-3.1,3.1-5.6.5.2,3.4.8,2,1.3-.7,0-.4.3-.7.6.7.7,1.3.9,2.1,1.2v-3.7c-1.4,0-4.4,0-5.8,0l-.2-.8c.6,0,1.4.2,2.2.2v.3ZM232,702.1h2.4c0-.5,0-1-.1-1.5.4,0,4,.2,2.3,1.1-.3,0-.4.2-.4.4h2.6c.3-.3.5-.8.9-.8.3,0,2.6,1.2,1.5,1.7-.6,0-.2,1.8-.3,2.1,0,.4-1.8.8-1.7,0h0c0,0-3,0-3,0v1.6c.8,0,1.6,0,2.4,0-.3-.3-.7-.5-1.1-.8v-.3c6.9.3,4.3,5.8,1.7,1.6-2.4.6-5.3,1.1-8.4,1.4,0,0,0,.7-.3.6-.6-.2-.7-1.4-1.1-2.2h5.1v-1.6h-2.6c0,.5-.1.6-.8.8-2,0-.5-3.1-1.1-4.5.7.2,1.3.5,2,.8v-.2ZM234.4,704.7v-2h-2.6v2h2.6ZM236.2,704.7h3v-2h-3v2ZM237.5,697.2c.5-.4,1.1-1.8,1.7-.9.1-.3.3-.7.4-1.1h-3.4v2h1.3ZM247.4,695.8c.6,0,.7.6.2.6-.6.1-.2,1.2-.5,1.6h1c0-1.4,0-3-.2-4.2.2,0,3.8,0,2.3.9-.2,0-.3.2-.3.4v2.8h.3s.9-.9.8-.8c2.8,2,.2,1.1-1.1,1.3v2.8c.7-.2,1.4-.5,2-.8-.7.8-1.4,1.4-2.1,1.8v6c-3,2.5-1.5-3.6-1.8-5-.4.4-1.3.2-1.2.8-.4.7-1-1.2-1.3-1.9.9,0,1.7-.3,2.5-.5v-3.3h-1.1c-.2,1-.6,1.7-1.3,2.6h-.1c.3-2.1.2-3.5.2-5.7.5,0,1,.2,1.5.3l.2.3ZM252.7,702.3h3.5c0-.8,0-1.1-.1-2.3,1.1.2,3.6.4,2.3,1.2-.6,0-.3.9-.4,1.2h.2s.9-1.2.9-1.1c2.7,1.9.6,1.5-1.1,1.5-.2,1.6,1,6.4-2,6-.5,0-.2,0-.3-.4,0-.5-.6-1-1.6-1.4v-.3c.9.1,1.9.5,2.2,0,0,0,0-3.9,0-3.9h-5.4l-.3-.6c.5,0,1.2,0,2.2,0h0ZM253.2,696.3h1.1c0-.8,0-1.7-.1-2.5.5,0,3.6.2,2.2.9-.7.2-.3,1.3-.4,1.7h1.3c1.3-2.1,1.7-1.6,2.9.1.2.4-4,0-4.1.2v2.7h.8c1.3-2.1,1.7-1.6,2.9.1-1,.8-6.3,0-7.5.3l-.2-.6c.5,0,1.3.1,2.3,0v-2.7h-3l-.3-.6c.5,0,1.2,0,2.2,0v.2ZM254.2,704.1c.9.7.5,2.1-.6,2.2-.7-.3-.7-2-1.4-2.6l.2-.3c.9.2,1.6.5,1.9.8h-.1ZM264.8,695.1h9.6c1.3-2.1,1.7-1.6,2.9.1,0,.2-.1.3-.3.3h-11.6v10.8c.2,1.4,8.6.7,9.7.3.8-.7,2.6,1,1.1,1.5-15.8,1-12.3,1.4-12.6-12.7h-.8l-.3-.6c.5,0,1.2,0,2.2,0v.2ZM268.1,701.8h.8c.6-.8.6-1.1,1.7-.3,1.1.7.7.7.1,1.3v2.8c0,.5-1.9.7-1.6-.2h-1.2c0,.5,0,.7-.7.8-1.1.2-1-.5-1-1.4,0-.9,0-2.8,0-3.7.6.2,1.2.4,1.9.7ZM270,696.8h2.6c.5-.8.8-1.1,1.7-.3,1,.7.7.7.2,1.3v2.3c0,.4-1.9.8-1.7,0h-2.9c.2.5-.8.8-1.3.7-1.1-.2-.3-3.7-.5-4.7.7.2,1.3.4,2,.8h-.1ZM269.1,704.9v-2.6h-1.2v2.6h1.2ZM272.7,699.6v-2.4h-2.9v2.4h2.9ZM273.6,701.8h.9c.3-.4.3-.9.8-.9.2,0,2.4,1.2,1.3,1.5-.6,0-.2,2.7-.3,3,0,.4-2,.8-1.7-.2h-1.4c0,.5,0,.6-.7.7-1.8.4-.5-3.8-1-5,.7.2,1.4.4,2.1.9ZM274.6,704.8v-2.6h-1.4v2.6h1.4Z"/>
  <path class="st7" d="M242.7,627.5h9.2s1.2-1.7,1.2-1.5c.3-.1,2.3,1.9,1.3,1.8-1.3,0-12.6,0-13.6,0l-.2-.6c.5,0,1.2,0,2.1,0v.2ZM242.8,624h1.5c0-.6,0-1.2-.2-1.7.4,0,3.6,0,2.2.9-.3,0-.3.5-.3.7h3.2c0-.6,0-1.2-.1-1.7.5.1,3.7,0,2.1,1-.3,0-.3.5-.3.7h.8c0,0,1.2-1.5,1.1-1.3.3-.2,1.6,1.4,1.5,1.6.1.4-3.3,0-3.5.2v1.9c0,.5-2.1.7-1.8,0h-3.1c.1.6-1.6.9-1.7.3,0-.5,0-1.6,0-2.1h-3.4l-.2-.6c.5,0,1.2,0,2.1,0h.1ZM243.7,636.8c-.8.2-1.8.4-2.8.5v-.4c1.7-.6,3.1-1.4,4.3-2.8,1.1.4,3.3,1.7,1.2,1.7-1,.4-1.8.9-2.7,1ZM244.3,629h6.2c.9-1.6,2-.7,2.8.3.1.3-.6.6-.5,1-.3,1,.8,3.9-.8,4.2-.5,0-1.1,0-1-.7h-7.1c0,.5,0,.7-.8.9-2,.6-.6-5.2-1.1-6.5.8.1,1.5.6,2.3.8ZM246.8,631.3v-1.8h-2.7v1.8h2.7ZM246.8,633.4v-1.7h-2.7v1.7h2.7ZM249.2,625.8v-1.4h-3.2v1.4h3.2ZM251.5,634.7c1.3.1,2.6,1.2,1.8,2.4-1.6.6-2.9-2-5-2.3v-.3c1.4,0,2.4,0,3.2.3h0ZM248.4,631.3h2.7v-1.8h-2.7v1.8ZM251.1,633.4v-1.7h-2.7v1.7h2.7ZM265.4,624.3c0,.6.2,1.1.5,1.6-.2.4,1.7.1,1.8.2,1.3-1.9,1.6-1.5,3,.2.3.4-4.4,0-4.5.2.6.9,2.3,2,3.3,2.2.6,0,.5-1.2.8-1.6h.3c-.3,2.4,1.3,4.5-2.4,3h.1c1.4,1,.5.8.3,1.8,0,0,0,2.6,0,2.6-.2.5.7,2.5-.8,2.7-.8.2-1.1-.3-1-1.1h-5.9c0,.6.1,1-.8,1.2-2,.6-.5-6.1-1.1-7.4-.3,0-.6,0-.5.3-.4.7-.8-1.2-1.2-1.9h1.4c0-1.4,0-4-.2-4.9,2.8,1.3,6.4,0,8.9-1.1,4,2.6,0,1.6-2.2,2.1h.2ZM266.6,630.6c.2-.4.8-.8,1.1-1-1.4-.7-2.7-1.8-3.4-3.2h-3.8v1.7c1.5,0,3-.2,4.3-.3v.2c-1.7.8-3.5,1.4-5.3,1.7,1.4.9,5.5.9,7.1.8h0ZM263.8,624.4c-1,0-2,0-3.1,0v1.5h3.6c-.2-.5-.3-1-.4-1.6h-.1ZM267.2,633.1v-2h-5.9v2h5.9ZM267.2,635.6v-2.1h-5.9v2.1h5.9ZM281.7,622.7c1.5.2-.2.5-.2,1.1,0,0,0,1.2,0,1.2h3s1.4-1.9,1.4-1.7c.3,0,2.4,2,1.4,2.1-1.5,0-12.4-.1-13.6.1l-.2-.8c1.7.3,4.5.2,6.2.2,0-.8,0-1.7-.1-2.5.7,0,1.4.2,2.1.3h0ZM277.2,628.3h2.7c0-.9,0-1.6-.2-2.2.3,0,3.6.3,2.1,1-.5,0-.3.9-.3,1.2h2.5c.9-1.7,2.3-.7,3,.5,0,.4-1,.7-.9,1.1-.2,1.6.9,6.1-1.9,6-.5-.6-.3-1.4-1.9-1.9v-.3c.9-.2,2.3.6,2.1-.4,0,0,0-4.5,0-4.5h-2.7c-.3.5.7,9-.7,8.6-1.8.3-.7-2.4-.9-3.3,0,0,0-5.2,0-5.2h-2.9v6.8c0,.5-1.8.8-1.7,0,0-2.9.2-5,0-7.9.7.2,1.3.4,1.9.7l-.2-.2ZM292,626.7c0-1.2.1-3-.2-4.1.2,0,3.6.3,2.1,1-.2,0-.3.2-.3.4v2.3c.2-.3.7-.8.7-.7.3,0,1.4,1.2,1.4,1.4.2.4-1.9,0-2.1.2v3.9c.7,0,1.3-.3,1.9-.5v.2c-1.1,1.4-2.8,1.9-3.9,2.7,0,.1,0,.5-.2.4-.5,0-.8-1.5-1.2-2.3.6,0,1.2-.2,1.8-.3v-4.2h-1.7l-.2-.6c.4,0,1.1,0,1.9,0h0ZM296.4,629.5h5.5c0,0,1.2-1.4,1.1-1.3.2,0,.5.2.9.7.5.6.9.9.4,1,0,0-5.7,0-5.7,0-.3.5-.7,1-1,1.3h4.2c0,0,.9-.6.9-.6.4,0,1.8,1.3,1.7,1.6,0,.2-.9.5-.9.7-.2,2.8.2,3.3-1.5,4.1-1.8.7-.5-1-2.6-1.5v-.3c3.3.5,2.5-.4,2.6-3.5h0c-1.6,2.9-3.4,4.2-6.4,5.2v-.3c1.8-1.2,3.5-2.9,4.4-5h-.5c-1.3,1.9-3.4,3.1-5.4,3.9v-.2c1.4-.9,2.7-2.2,3.5-3.7h-.5c-1,1-2.3,1.7-3.5,2.2v-.2c1.2-.9,2.3-2.3,3-3.7h-2l-.2-.6c.5,0,1.2,0,2.1,0h0ZM298,623.4h2.4c.7-.7.9-1.6,2-.6,1.4.9.5.9.2,1.8-.3,1,.8,3.7-.8,4-.6,0-1,.1-1-.5h-3.3c.2.6-.7.9-1.3.8-1.2-.7,0-4.9-.6-6.4.7.2,1.6.6,2.4.9ZM300.9,625.5v-1.7h-3.3v1.7h3.3ZM300.9,627.7v-1.7h-3.3v1.7h3.3ZM189.7,870.5c.9,0,1.1.6.2.8-.8.2-.4,1.7-.7,2.3h.8c.9-1.5,2-.3,2.6.6-1.6,1.2-.9,4-2,5.7h.1c2.9,1.6,1,5.3-.6,1.3-1.1,1.6-2,2.4-4,3.5v-.2c1.3-1.4,2.4-2.6,3-4.3-.3-.3-.6-.5-1-.8,0,.5-.4.9-.9.9-2.1-.4.7-4.7.5-6.2h-1.2l-.2-.6c.5,0,1,0,1.6,0,.2-1.2.4-2.3.5-3.4.5,0,1.1.2,1.8.3h-.5ZM189.6,878.1c.3-1.2.5-2.6.5-4h-1c-.3,1.8-.7,3.4-1,4.8.4.2.8.3,1.2.5,0-.4.3-.9.3-1.3ZM193.6,871.4h3.2c1-1.8,2.1-.5,2.9.6-1.1.3-2.5,1.4-3.3,2.1.9,0,1,.4.4.8-.6,0-.2,1.8-.3,2.1h1c1.2-2,1.6-1.8,2.7.1.2.6-3.5.2-3.7.3-.3,1.8,1.1,7.6-1.9,7.6-.5-.7-.5-1.6-2-2v-.3c.9,0,2.1.7,2.3-.3,0,0,0-4.9,0-4.9h-2.8l-.2-.6c.6,0,2.1.1,3,0,0-1,0-2.3-.1-3.1.4,0,.7,0,1,.2.4-.6.8-1.3,1.2-2.1-1.3,0-3.9,0-5.1,0l-.2-.8c.6,0,1.3.2,2.1.2h-.2ZM210.6,870.4c1.5.2-.2.5-.2,1.1,0,0,0,1.2,0,1.2h3s1.4-1.9,1.4-1.7c.3,0,2.4,2,1.4,2.1-1.5,0-12.4-.1-13.6.1l-.2-.8c1.7.3,4.5.2,6.2.2,0-.8,0-1.7-.1-2.5.7,0,1.4.2,2.1.3h0ZM206.1,876h2.7c0-.9,0-1.6-.2-2.2.3,0,3.6.3,2.1,1-.5,0-.3.9-.3,1.2h2.5c.9-1.7,2.3-.7,3,.5,0,.4-1,.7-.9,1.1-.2,1.6.9,6.1-1.9,6-.5-.6-.3-1.4-1.9-1.9v-.3c.9-.2,2.3.6,2.1-.4,0,0,0-4.5,0-4.5h-2.7c-.3.5.7,9-.7,8.6-1.8.3-.7-2.4-.9-3.3,0,0,0-5.2,0-5.2h-2.9v6.8c0,.5-1.8.8-1.7,0,0-2.9.2-5,0-7.9.7.2,1.3.4,1.9.7l-.2-.2ZM224.5,870.5c1.9.6-.4.6-.7,1.5h3.5c.3-.3.9-.8,1.1-.9.1-.1,2.2,1.5,2,1.7-1.6.7-3.1,2.3-4.5,3,.7,0,1.9.6.7.8-.2,0-.4.1-.4.2-.1,0-.2.2-.3.3h3c.9-.8.9-1.3,2.2-.2,1.5,1.3.4,1.2-.4,1.8-3.1,4.3-7.1,5-12.1,5.9v-.3c3-1,4.4-1.3,6.6-2.8-.9-.2-.9-1.7-1.7-2.4-1,.6-2.2,1.2-3.7,1.8l-.2-.3c1.5-1,3.5-2.4,4.6-4.2-1.7.8-3.5,1.3-5.5,1.7v-.3c2.4-1.3,6.2-1.6,2.9-4.2-.7.5-1.6,1-2.6,1.5l-.2-.3c1.5-1.1,3-3,3.9-5.1.7.3,1.3.3,1.8.8ZM224.1,874c.6.3.8,1,.4,1.4,1.5-.8,2.2-1.7,3-2.9h-4c-.4.4-.7.7-1.1,1h0c.8.2,1.4.4,1.7.5ZM225.9,879.5c.6.4.8,1.2.4,1.7,0,0,.2,0,.2-.2,1-.8,1.9-1.8,2.8-3.3h-3.5c-.5.5-1,.9-1.4,1.2.7.2,1.3.4,1.6.6h-.1ZM298.7,837.6v-12.9h3.2c-2.8,3-2.8,9.8,0,12.8h-3.2ZM308.8,831.5v.9h2.2c-.1-.6-.2-1.3-.3-2.1.5,0,1.5.2,1.9.3h0c1.5-.3,2.1,1.2.7,1.5-.4-.1-.3-1-.7-1.3,0,0-.2,0-.3.2-.6.1-.2,1-.2,1.3h1.4s.9-1.2.9-1.1c.3,0,1.2,1.2,1.2,1.3.2.4-3.4.1-3.5.2,0,.2,0,.3.1.4,0,.3.2.6.4.9.3-.3.5-.7.7-1.1.8.5,2.1,1,.8,1.3-.3.3-.5.5-.8.7,0,0,.2,0,.2.2,1.1.6,1.2-.4,1.6-1.4h.2c0,.9,0,1.9.4,2.6-.4,1.4-2.8,0-3.5-.7-1.1.6-2.4.9-3.6,1.1h0c1.3-.7,2.1-1,3.1-1.8-.4-.7-.5-1.2-.8-2.2h-2.3v.7c.7,0,1.3,0,1.9-.2v.2c-.6.3-1.3.6-1.9.8.1,1.2,0,3-1.5,2.9-.5-.4-.4-1.2-1.5-1.5v-.2c1.1,0,1.9.6,1.7-.8-.4.2-1.2.2-1.5.4-.2.9-.8-.8-1-1.3.9,0,1.7,0,2.5,0v-.8h-2.6l-.2-.5h2.8v-.7h-2.1v-.3c1.4-.1,2.4-.5,3.6-1.2.5.4,1.3.8,1.4,1.3-.3.2-1.2,0-1.5,0h0ZM309.1,825.6c.6.3.2,1.2-.3,1.4h2.5c.1-.6.2-1.1.3-1.8.4,0,2.5.5,1.4.9-.5,0-.5.6-1.1.8h1.5c1-1.3,1.2-.9,2.1.2.3.4-4.4,0-4.5.2v1h1.6c.9-1.2,1.2-1.2,1.9.1.2.4-3.4.1-3.5.2v1.1h2.5c1-1.5,1.2-.9,2.1,0-.8.5-9.8,0-10.7.2l-.2-.5c.9.1,3.8.1,4.8,0v-1.1h-3l-.2-.5c.7,0,2.4.1,3.2,0v-1h-4l-.2-.5h3c-.2-.5-.6-1.2-.7-1.8.8,0,1.2.3,1.4.4v.4ZM321.8,828.1h4.2c.2-.2.4-.6.7-.7.2,0,2,1,1.2,1.3-.6.4.4,2-.8,1.9h0c.3.1,1.1.9,1.1,1.2,0,.3-1.2.1-1.1.4-.5.3-1,.5-1.5.7h0c0,.4-.7.3-.6.7h2.6c.6-.5,1-1.9,1.9-.6.4.5.9.8.4,1,0,0-4.8,0-4.8,0,.2,1.8-.2,3.1-2,3.2-.3,0-.2,0-.3-.4-.1-.5-.6-.8-1.5-1.1v-.2c.8,0,1.6.3,2.1,0,.4-.2.1-1.2.2-1.5h-5.1l-.2-.5c.9.1,4.2.1,5.3,0,0-.5,0-.9-.1-1.3.6,0,1,.2,1.5.2l1-.9h-6l-.2-.6c1,.2,5,0,6.1,0,.3-.3.5-.5.8-.8,0,0-.1,0-.1-.2h-4.7c.2.5-.6.6-1,.6-.9-.1-.2-2.6-.4-3.4.5.2,1.1.4,1.6.6l-.3.2ZM324.7,825.4c.5,0,.7.4.2.5-.4,0-.3.5-.3.8h2.7s1.2-1.4,1.1-1.3c.3,0,2.2,1.6,1.2,1.6-1.2,0-10.2-.1-11.2.1l-.2-.6c1.5.3,3.5.2,4.9.2,0-.5,0-1.1-.1-1.6.6,0,1.1,0,1.7.2h0ZM326.3,830v-1.5h-4.7v1.5h4.7ZM333.8,830.2h2.5c0-.9.1-2,.1-3.4h-3.6l-.2-.6c1.6.2,5.6,0,7.2,0,1-1.6,1.5-1.1,2.3.2.2.4-4.1.1-4.2.2,0,1.3,0,2.5-.2,3.4h2.9c1.1-1.7,1.6-1.3,2.5.2.3.4-5.1,0-5.2.2.7,2.5,2.7,4.2,5.3,5v.3c-.8.1-.9,1-1.3,1.2-2.1-1.1-3.7-3.3-4.1-6-.4,3.2-2.7,4.9-5.8,5.8v-.2c2.4-1.3,4.2-3.5,4.4-6.2h-4.3l-.2-.6c.8,0,1.5,0,2.1,0l-.2.3ZM349.3,828.6c1.2,1.3-.7.8-1.3.9v4.3c.6,0,1.1-.3,1.6-.4-1,1.2-2.4,1.5-3.3,2.2,0,0,0,.1,0,.2-.4.8-.9-.9-1.1-1.5.5,0,1,0,1.4-.2v-4.6h-1.2l-.2-.5h1.4c0-1,.1-2.6-.2-3.5.4,0,1.8.2,2.1.4,0,0-.1.2-.3.4-.6,0-.2,2.4-.3,2.7h.2c0,0,.6-1.1.6-1.1.1,0,.4.4.6.7ZM354.8,827.7c.1-.6,2.6.8,1.5,1.2-1,2.5.4,4.6-1.2,5.3-1.1.8-.7-.8-1.5-1.1,0,.7.2,1.8-1,1.6-1.1,0-.1-4.3-.4-5.2l-1,.4c.1.3-.3,5.9.3,5.9.7-.1,3.4.4,3.8-.4.3-.5.5-1.2.7-2.1h.3c0,1.4,0,1.8.5,2.8-.7,1.5-5.1.8-6.2.8-1.7,0-.6-5.4-.9-6.4-.4,0-.7.3-1,.4l-.4-.5c.4,0,.8,0,1.4-.3,0-1,0-2.9-.1-3.9,1,.2,3.1,0,1.4,1.2,0,0,0,2.2,0,2.2l1-.4c0-1.1,0-2.7-.1-3.7.3,0,3.1.3,1.7.8-.2,0-.2.2-.2.3,0,0,0,2.1,0,2.1l.8-.3.3-.6h.3ZM353.6,832.7c1.7,0,.6-1.6.9-4.2l-1,.4v3.8h.1ZM360.1,837.6c2.8-3,2.8-9.8,0-12.8h3.2v12.9h-3.2ZM299.1,487.4v-12.9h3.2c-2.8,3-2.8,9.8,0,12.8h-3.2ZM310.2,477.6c.5.1.7.4.2.5-.6.1-.6,1.2-1.3,1.5h.5s.9-1.1.9-1c.1,0,.4.2.7.5,1.8,1.4-1.8.6-2.2.8v1.7h.4c1-1.5,1.2-.9,2.1.1.2.4-2.4.1-2.5.2v.5c3.4.2,1.6,4,.2.7v3.2c0,.3-.8.5-1.1.4-.9-.3-.1-1.4-.3-2.4h0c-.9.5-1.3,1.2-2.3,1.4,1.1-1.4,1.8-2.6,2.2-3.8h-1.8l-.2-.5c.4,0,1.4.1,2.1.1v-1.7h-2l-.2-.5c.7,0,2.5.1,3.4.1.1-.8.2-1.5.3-2.4.4.1.8.2,1.1.3l-.2.3ZM309.1,475.3c.5,0,.7.3.2.4-.5,0-.3.6-.3.9h.3c1-1.5,1.2-.9,2.1.1-.7.5-4.7,0-5.6.2l-.2-.5c.4,0,1.3.1,2,.1,0-.6,0-1.1-.1-1.7.5,0,1.1.1,1.6.2v.3ZM307.8,477.8c.9.6.1,1.8-.7,1.6-.2-.3-.3-1.4-.6-1.9l.2-.2c.5.2.9.4,1.1.5h0ZM313.2,476.8v2.5h1.4c.8-.7.8-1.6,1.9-.3,1.1.9-.3.7-.8.7-.3.5.7,7.5-.7,7.1-1.3.2-.5-1.4-.7-2.4,0,0,0-4.6,0-4.6h-1.3c.1,2.9-.3,5.2-2.5,7.1h-.2c1.7-2.8,1.3-8,1.2-11,.6.2,1.1.4,1.5.6.9-.3,1.4-.6,2.1-1.3,3.7,2.4-.3,1.4-2,1.9v-.3ZM321.1,480.1h3.2c0-.9.1-4.2-.1-5,.4,0,3,.1,1.9.7-.6,0-.2,3.9-.3,4.2h2.7c1.1-1.7,1.6-1.3,2.5.2.2.4-3.8.1-3.9.2v4.2c-.3,1.1,1.3.7,1.9.6.5,0,.7-2.4.9-2.8h.3c0,2.3-.2,1.9.5,3.1-.1,1.7-3.3.9-4.4,1.1-1.7-.2-.6-5.1-.9-6.2h-1.6c.3,3.4-1.1,5.6-4.3,6.4v-.2c2.4-1.5,3-3.3,2.9-6.3h-2.9l-.2-.5c.4,0,1,.1,1.7.1v.2ZM322.7,477.4c.6.5.6,2-.4,2-.7-.4-.7-2.1-1.5-2.7v-.2c.9.3,1.5.6,1.8,1h.1ZM329.1,476.4c.7.1,1,.5.3.6-1.1.7-1.4,1.8-2.7,2.4,0-1,.9-2.2,1-3.4.5.2.9.3,1.4.4ZM335.3,485.4h6.5c0,0,1.1-1.5,1.2-1.3.2,0,2.2,1.7,1.2,1.7-1.2,0-9.7-.1-10.7.1l-.2-.6c.8.1,1.5.1,2.1.1h-.1ZM336.2,477.1h4.7s1.2-1.4,1.1-1.3c.3,0,2.2,1.6,1.2,1.6-1.2,0-7.8-.1-8.9.1l-.2-.6c.8.1,1.5.2,2.1.2ZM336.7,481h3.5c0,0,1.2-1.5,1.1-1.3.2,0,2.2,1.7,1.2,1.7-1.2,0-6.7-.1-7.8.1l-.2-.6c.8.1,1.5.2,2.1.2h.1ZM348.7,477.4c0-.8,0-1.8-.2-2.4.3,0,1.9.2,2,.5,0,.2-.7.3-.6.6,0,0,0,1.3,0,1.3h.2c.8-1,1-.6,1.6.2.1.4-1.6.1-1.8.2v1.8h.4c.6-1.1,1.1-.8,1.7.1.1.4-2,.1-2.1.2v2c.3.2.8-.6,1-.7,2.1,1.6,0,1-1,1.1v2.5c2.3.8,6.1.8,8.4.1v.2c-.7.3-.7,1.4-1.1,1.7-4-.2-7.4.6-9.4-2.7,0,1.2-.4,2.2-1.2,2.9.1-2.2.1-3.4.1-6,.5.1,1.4.1,1.7.4v-1.3h-1.7l-.2-.5c.4,0,1.2.1,1.9.1v-1.8h-1.3l-.2-.5c.4,0,1.2.2,1.8,0ZM348.7,484.1v-2.6s-.1,0-.2.1c-.6.2-.1,1.2-.4,1.6.2.4.4.7.6.9h0ZM356.9,476.3c-.2-.4-.4-.8-.8-1.1v-.2c1.4.1,2.7.8,1.3,1.7.2,0,.7.7.8.7.2.4-2.5.1-2.6.2,0,1.1.2,2.1.4,2.9.3-.7.5-1.5.6-2.4.4.1,1.6.5,1.8.7-1,.5-1.3,2.6-1.8,3.1h0c.6,1.3,1.1,1.6,1.3-.1h.2c0,1.5-.1,1.4.2,2.4-.4,1.3-2.2-.2-2.7-1.1,0,0-.1.2-.2.2-.5.5-1.2,1.1-2.2,1.8l-.2-.2c.9-.9,1.6-1.8,2.1-2.7-.5-1.4-.5-2.5-.8-4.7h-1v4.7c.5-.1,1-.2,1.4-.4-.7,1-1.7,1.3-2.4,1.9,0,1.8-.9-.5-1.4-1.1.3,0,.7-.1,1-.2,0-1.3,0-4.8-.1-5.9.6.1,1.7.8,2.5.6,0-.7-.1-1.4-.1-2.2.6,0,2.9.4,1.6.9-.6.1-.2,1.1-.3,1.4h.8l.7-.7s-.1-.1-.2-.3h.1ZM361.4,487.4c2.8-3,2.8-9.8,0-12.8h3.2v12.9h-3.2ZM211.9,727.2v-12.9h3.2c-2.8,3-2.8,9.8,0,12.8h-3.2ZM219.7,718.7c.7.4.4,1.6-.4,1.6-.6-.3-.6-1.4-1.2-2v-.2c.9.2,1.4.4,1.7.6h0ZM221.7,717.5c-.6,2.9-1.3,4.9-1.3,7.1.5,1.3,0,2.3-1.4,1.6-.6-1,.6-2.3-1.1-2.6v-.3c2,.7,2.7-4.7,3.4-5.8h.4ZM220.5,715.4c.7.4.4,1.7-.4,1.6-.6-.4-.6-1.4-1.3-2v-.2c.9.2,1.4.4,1.7.6ZM222.9,716.1c0-.5,0-1-.1-1.4.4,0,3,.3,1.6.8-.4,0-.3.4-.3.6h1.9c0-.5,0-1.1-.1-1.5.4,0,3,.3,1.6.8-.4,0-.3.4-.3.6h.5c.7-1.2,1-.8,1.6.1.1.4-2.1.1-2.2.2-.1.5.4,1.6-.6,1.5-.3,0-.8.1-.8-.2h-.2v1h1.3c.2-.3.4-.6.7-.7.3,0,1.9,1,1.1,1.3-.4,0-.1,1.3-.2,1.5,0,.3-1.4.6-1.3,0h-1.6v1h1.8c.8-1,1-.6,1.6.2.3.4-3.3,0-3.4.2,0,.3,0,.6-.1.9h0c0,0,2.2,0,2.2,0,1-1.2,1.1-1.1,1.9.2.2.5-3.8,0-3.9.2,1.1,1.2,2.4,1.3,3.9,1.6v.3c-.4.2-.6.4-.8.7-.6,1.3-3.3-1.4-3.5-2.4-.6,1.9-2.3,2.3-4.3,2.7v-.2c1.3-.7,2.6-1.2,3.1-2.6h-2.8l-.2-.5c.7,0,2.3.1,3.1,0,0-.3.1-.7.1-1h-2.6l-.2-.5c.6,0,2,.1,2.8,0v-1h-1.4c.2.4-.6.5-1,.5-.9-.3,0-2.5-.5-3.3.7.3,1.9.6,2.7.5v-1h-.3c0,.4-1.4.5-1.4.1,0-.4,0-1,0-1.4h-1.3l-.2-.5c.5,0,1.5,0,2.1.4ZM224.5,720.6v-1.5h-1.4v1.5h1.4ZM226.1,717.3v-.8h-1.9v.9h1.9v-.2h0ZM225.8,720.6h1.6v-1.5h-1.6v1.5ZM238.8,716.9h.7v-2.2c.4,0,3.2.2,1.8.9-.5,0-.2,1.1-.3,1.4h.6c.7-1.2,1.8-.4,2.2.4,0,.1-.6.6-.5.8-.2.5.6,6.1-.6,5.8-.7.1-.7-.3-.7-.9h-.9c-.2.7.7,4.3-1,3.8-.8.3-.2-3.3-.4-3.8h-.9c0,.5.2,1-.6,1.1-1.1.2-.7-.9-.8-1.6,0,0,0-4,0-4h-2.2c0,1.3,0,6.7,0,7.8-1.5,1.1-1.4-.5-1.3-1.9,0,0,0-4.5,0-4.5,0,0-.5.1-.4.3,0,2.5-.1,3.8-1.5,5.5,0-1.9.3-4.4.2-6.4.4,0,1.3.2,1.6.4v-1.4h-1.7l-.2-.5h3.3s1-1,.9-.9c.2,0,.9.7,1.1.9,0-.6,0-1.1-.1-1.7.5.3,1.2.4,1.7.7ZM234.3,715.8h.3s.9-1.1.9-1c3.5,2.2-1.7,1-2.6,1.3l-.2-.5c.4,0,1,0,1.7,0h0ZM236.7,719.7c1.2.1,0,.4,0,.8,0,0,0,1.7,0,1.7-.2.8.6,2.3-.6,2.3-.4,0-.7.1-.7-.4,0-1.6,0-3.3,0-4.7.3,0,1,0,1.4.3ZM239.5,719.7v-2.4h-.9v2.4h.9ZM239.5,722.6v-2.5h-.9v2.5h.9ZM240.9,719.7h.9v-2.4h-.9v2.4ZM240.9,722.6h.9v-2.5h-.9v2.5ZM247.1,725.8v-9.5h-1.2l-.2-.5c1,.2,7.4,0,8.6,0,1.1-1.7,1.7-1.5,2.7.1,0,.5-8.2,0-8.4.2v2.7h5.2c.7-1.5,1.7-.7,2.4.1,0,.3-.6.4-.5.8-.3.9.7,3.6-.7,3.7-.7,0-.9-.2-.8-.8h-5.6v3h5.9c0,0,1.2-1.5,1.1-1.3.2,0,2.2,1.7,1.2,1.7-1,0-10.2,0-11,0l-.2-.5c.4,0,.9,0,1.5,0h0ZM254.1,722.4v-3h-5.6v3h5.6ZM261.2,715.5h7.1c.6-1.2,1.8,0,2.2.6,0,.3-1,.1-1,.3-.5.2-.9.4-1.2.6h0c1.7,1.3-2.4.5-2.7.7v1.3c1.4,0,3.6,0,5,0v.2c-.6.2-.5.9-.9,1.2-3-.1-5.6.4-7.3-2.2-.8,1.4-1.5,2.1-3.1,2.8l-.2-.2c1.4-1.3,2.1-2.5,2.5-4.4.4.2,2.6.6,1.6,1.1-.6,0-.3.3-.6.5.5.6,1.1.7,1.6,1v-2.9c-1.1,0-3.5,0-4.6,0l-.2-.6c.5,0,1.1.2,1.7.2v-.2ZM262.2,721.4h1.9v-1.2c.3,0,1.9.2,2.2.4,0,.3-.7.4-.7.7h2.1c.5-.6.6-1,1.5-.3.9.7.6.7,0,1.3v1.4c0,.2-1.4.6-1.3,0h0c0,0-2.4,0-2.4,0v1.2c.6,0,1.3,0,1.9,0-.3-.2-.6-.4-.9-.6v-.2c5.3.2,3.8,4.5,1.3,1.3-1.7.8-5.5.4-7,1.6-.5-.2-.5-1.1-.9-1.8h4.1v-1.3h-2.1c.2.5-.6.6-1,.6-.9-.5-.2-2.4-.4-3.5.5.2,1.1.4,1.6.6h0ZM264.1,723.4v-1.6h-2.1v1.6h2.1ZM265.5,723.4h2.4v-1.6h-2.4v1.6ZM266.6,717.5c.4-.2,1-1.6,1.4-.7.1-.2.2-.5.3-.9h-2.7v1.6h1ZM273.7,727.2c2.8-3,2.8-9.8,0-12.8h3.2v12.9h-3.2Z"/>
</svg>