<svg width="254" height="32" viewBox="0 0 254 32" fill="none" xmlns="http://www.w3.org/2000/svg">
<path d="M20.248 10.752H19.864L21.72 8.64L25.688 11.648C25.56 11.7973 25.368 11.9467 25.112 12.096C24.856 12.2453 24.536 12.3627 24.152 12.448V22.176C24.152 22.24 23.96 22.3467 23.576 22.496C23.2133 22.624 22.776 22.752 22.264 22.88C21.7733 22.9867 21.3147 23.04 20.888 23.04H20.248V10.752ZM5.272 10.752H22.2V11.648H5.272V10.752ZM5.272 19.296H22.168V20.192H5.272V19.296ZM0.664 3.872H22.232L24.536 1.024C24.536 1.024 24.6747 1.13066 24.952 1.344C25.2507 1.55733 25.6133 1.83467 26.04 2.176C26.488 2.496 26.9467 2.848 27.416 3.232C27.9067 3.59467 28.3547 3.94667 28.76 4.288C28.6747 4.62933 28.3653 4.8 27.832 4.8H0.92L0.664 3.872ZM0.376 27.84H23.288L25.656 24.864C25.656 24.864 25.7947 24.9707 26.072 25.184C26.3707 25.3973 26.744 25.6747 27.192 26.016C27.6613 26.3573 28.1413 26.7307 28.632 27.136C29.144 27.52 29.6027 27.8827 30.008 28.224C29.9227 28.5653 29.6133 28.736 29.08 28.736H0.632L0.376 27.84ZM4.12 4.16H8.024V28.096H4.12V4.16ZM33.144 2.72H58.072V3.616H33.432L33.144 2.72ZM56.664 2.72H56.312L58.168 0.831999L61.432 3.904C61.304 4.05333 61.144 4.14933 60.952 4.192C60.7813 4.23467 60.5253 4.26667 60.184 4.288C59.672 4.65067 59.0213 5.024 58.232 5.408C57.464 5.792 56.76 6.10133 56.12 6.336L55.8 6.112C55.9067 5.81333 56.0133 5.45067 56.12 5.024C56.248 4.59733 56.3547 4.18133 56.44 3.776C56.5253 3.34933 56.6 2.99733 56.664 2.72ZM39.448 6.976C40.1947 8.14933 41.1227 9.03467 42.232 9.632C43.3413 10.208 44.7067 10.592 46.328 10.784C47.9707 10.9547 49.9227 11.04 52.184 11.04C52.7387 11.04 53.432 11.04 54.264 11.04C55.096 11.04 55.992 11.04 56.952 11.04C57.912 11.04 58.8187 11.04 59.672 11.04C60.5467 11.0187 61.2827 10.9973 61.88 10.976V11.392C61.2827 11.52 60.8347 11.8613 60.536 12.416C60.2373 12.9707 60.088 13.6 60.088 14.304C59.64 14.304 59.064 14.304 58.36 14.304C57.656 14.304 56.8987 14.304 56.088 14.304C55.2987 14.304 54.5413 14.304 53.816 14.304C53.112 14.304 52.5253 14.304 52.056 14.304C49.688 14.304 47.672 14.112 46.008 13.728C44.3653 13.344 42.9893 12.64 41.88 11.616C40.792 10.5707 39.8747 9.088 39.128 7.168L39.448 6.976ZM47.064 7.04H52.184L54.072 4.896C54.072 4.896 54.2747 5.03466 54.68 5.312C55.0853 5.58933 55.5547 5.92 56.088 6.304C56.6427 6.688 57.144 7.06133 57.592 7.424C57.528 7.76533 57.24 7.936 56.728 7.936H47.064V7.04ZM45.048 2.72H48.856V12.48L45.048 12.16V2.72ZM37.944 4.704L43 5.632C42.936 5.86667 42.808 6.048 42.616 6.176C42.424 6.304 42.136 6.37867 41.752 6.4C41.432 7.616 40.9093 8.81067 40.184 9.984C39.48 11.136 38.5093 12.2133 37.272 13.216C36.056 14.2187 34.4773 15.072 32.536 15.776L32.312 15.424C33.656 14.4853 34.712 13.4187 35.48 12.224C36.2693 11.008 36.856 9.74933 37.24 8.448C37.624 7.14667 37.8587 5.89867 37.944 4.704ZM38.328 22.048H55.32V22.944H38.328V22.048ZM53.752 17.28H53.432L55.16 15.456L58.776 18.144C58.6907 18.2507 58.5413 18.368 58.328 18.496C58.136 18.6027 57.8907 18.688 57.592 18.752V23.232C57.592 23.296 57.4 23.4027 57.016 23.552C56.6533 23.68 56.2267 23.808 55.736 23.936C55.2667 24.0427 54.8187 24.096 54.392 24.096H53.752V17.28ZM36.408 17.28V15.712L40.44 17.28H55.224V18.208H40.216V23.84C40.216 23.9467 40.0453 24.096 39.704 24.288C39.384 24.48 38.968 24.6507 38.456 24.8C37.9653 24.928 37.4533 24.992 36.92 24.992H36.408V17.28ZM33.016 26.592C34.0827 26.6133 35.4373 26.624 37.08 26.624C38.744 26.624 40.6213 26.6133 42.712 26.592C44.824 26.5493 47.0853 26.5173 49.496 26.496C51.928 26.4533 54.4347 26.4 57.016 26.336L57.048 26.88C55.5547 27.2 53.8267 27.5307 51.864 27.872C49.9013 28.192 47.6293 28.5333 45.048 28.896C42.488 29.2587 39.5333 29.6747 36.184 30.144C35.9493 30.5067 35.64 30.72 35.256 30.784L33.016 26.592ZM44.984 14.24L49.944 14.656C49.9227 14.848 49.8373 15.0187 49.688 15.168C49.5387 15.296 49.272 15.392 48.888 15.456V27.232L44.984 27.68V14.24ZM51.608 24.224C53.5067 24.288 55.0747 24.5227 56.312 24.928C57.5493 25.312 58.4987 25.792 59.16 26.368C59.8427 26.944 60.2907 27.5307 60.504 28.128C60.7173 28.7253 60.7387 29.2587 60.568 29.728C60.4187 30.1973 60.1093 30.528 59.64 30.72C59.192 30.9333 58.6373 30.912 57.976 30.656C57.5493 29.9093 56.9627 29.152 56.216 28.384C55.4693 27.616 54.6693 26.8907 53.816 26.208C52.984 25.5253 52.1733 24.9493 51.384 24.48L51.608 24.224ZM70.296 26.048L69.176 24.928L77.912 16.224L69.176 7.488L70.264 6.4L79 15.136L87.736 6.4L88.824 7.488L80.088 16.224L88.824 24.928L87.704 26.048L79 17.312L70.296 26.048ZM107.448 0.735998C108.899 0.650665 110.051 0.746665 110.904 1.024C111.757 1.28 112.365 1.632 112.728 2.08C113.112 2.528 113.293 2.98667 113.272 3.456C113.251 3.92533 113.08 4.34133 112.76 4.704C112.461 5.04533 112.056 5.25867 111.544 5.344C111.032 5.408 110.488 5.28 109.912 4.96C109.784 4.448 109.581 3.94667 109.304 3.456C109.048 2.944 108.728 2.47467 108.344 2.048C107.96 1.6 107.587 1.22667 107.224 0.927999L107.448 0.735998ZM115.032 24.64V25.568H106.488V24.64H115.032ZM113.24 19.968L114.84 18.272L118.168 20.768C118.083 20.8747 117.933 20.992 117.72 21.12C117.528 21.2267 117.293 21.312 117.016 21.376V26.176C117.016 26.2613 116.845 26.3787 116.504 26.528C116.184 26.6773 115.8 26.816 115.352 26.944C114.925 27.0507 114.52 27.104 114.136 27.104H113.528V19.968H113.24ZM108.504 26.592C108.504 26.6773 108.355 26.8053 108.056 26.976C107.757 27.1467 107.384 27.296 106.936 27.424C106.488 27.552 106.029 27.616 105.56 27.616H105.08V19.968V18.56L108.632 19.968H115.416V20.864H108.504V26.592ZM116.856 12.96V13.856H104.76V12.96H116.856ZM115.224 8.288L116.92 6.4L120.6 9.152C120.515 9.25867 120.355 9.38667 120.12 9.536C119.907 9.664 119.64 9.76 119.32 9.824V14.528C119.32 14.592 119.139 14.688 118.776 14.816C118.413 14.944 117.987 15.0613 117.496 15.168C117.027 15.2747 116.589 15.328 116.184 15.328H115.544V8.288H115.224ZM106.712 14.56C106.712 14.6453 106.552 14.784 106.232 14.976C105.912 15.1467 105.507 15.3067 105.016 15.456C104.525 15.6053 104.024 15.68 103.512 15.68H103V8.288V6.752L106.872 8.288H116.92V9.184H106.712V14.56ZM101.816 29.632C101.816 29.7387 101.656 29.888 101.336 30.08C101.037 30.2933 100.643 30.4747 100.152 30.624C99.6827 30.7733 99.192 30.848 98.68 30.848H98.104V16.544V14.944L102.104 16.544H121.56V17.44H101.816V29.632ZM120.216 16.544L121.88 14.624L125.592 17.408C125.507 17.536 125.347 17.664 125.112 17.792C124.899 17.92 124.632 18.0053 124.312 18.048V26.784C124.312 27.5733 124.205 28.2453 123.992 28.8C123.779 29.376 123.331 29.8347 122.648 30.176C121.987 30.5173 120.963 30.752 119.576 30.88C119.533 30.3253 119.469 29.8347 119.384 29.408C119.299 29.0027 119.139 28.672 118.904 28.416C118.691 28.16 118.392 27.936 118.008 27.744C117.645 27.5307 117.091 27.3707 116.344 27.264V26.848C116.344 26.848 116.483 26.8587 116.76 26.88C117.059 26.9013 117.421 26.9227 117.848 26.944C118.275 26.944 118.68 26.9547 119.064 26.976C119.448 26.9973 119.725 27.008 119.896 27.008C120.152 27.008 120.323 26.9547 120.408 26.848C120.493 26.7413 120.536 26.592 120.536 26.4V16.544H120.216ZM121.848 2.112C121.848 2.112 121.976 2.21867 122.232 2.432C122.509 2.624 122.861 2.88 123.288 3.2C123.715 3.52 124.163 3.86133 124.632 4.224C125.101 4.58667 125.528 4.93867 125.912 5.28C125.827 5.62133 125.528 5.792 125.016 5.792H96.6L96.312 4.864H119.608L121.848 2.112ZM149.112 18.944C148.771 19.2427 148.195 19.2213 147.384 18.88C146.659 19.0507 145.805 19.2107 144.824 19.36C143.843 19.488 142.819 19.6053 141.752 19.712C140.707 19.8187 139.672 19.8933 138.648 19.936L138.552 19.424C139.448 19.168 140.387 18.8587 141.368 18.496C142.349 18.1333 143.277 17.76 144.152 17.376C145.048 16.9707 145.773 16.5973 146.328 16.256L149.112 18.944ZM142.104 16.448C142.104 16.5333 141.987 16.64 141.752 16.768C141.517 16.896 141.219 17.0133 140.856 17.12C140.493 17.2267 140.131 17.28 139.768 17.28H139.352V11.104V9.92L142.232 11.104H146.968V12H142.104V16.448ZM146.616 14.88V15.808H141.048V14.88H146.616ZM144.888 11.104L146.2 9.696L149.048 11.84C148.963 11.9467 148.813 12.0533 148.6 12.16C148.408 12.2667 148.173 12.3413 147.896 12.384V15.872C147.896 15.936 147.757 16.032 147.48 16.16C147.224 16.2667 146.915 16.3627 146.552 16.448C146.211 16.5333 145.901 16.576 145.624 16.576H145.176V11.104H144.888ZM137.88 25.824C138.563 25.76 139.501 25.6533 140.696 25.504C141.891 25.3333 143.235 25.1307 144.728 24.896C146.221 24.6613 147.757 24.4267 149.336 24.192L149.368 24.576C148.429 25.088 147.245 25.6853 145.816 26.368C144.408 27.0507 142.68 27.8187 140.632 28.672C140.547 28.8853 140.429 29.056 140.28 29.184C140.152 29.3333 140.003 29.4293 139.832 29.472L137.88 25.824ZM153.464 1.44C153.443 1.65333 153.347 1.84533 153.176 2.016C153.005 2.18667 152.717 2.29333 152.312 2.336C152.248 4.81067 152.216 7.21067 152.216 9.536C152.216 11.8613 152.291 14.048 152.44 16.096C152.589 18.144 152.867 19.9787 153.272 21.6C153.699 23.2213 154.296 24.576 155.064 25.664C155.235 25.8987 155.363 26.0053 155.448 25.984C155.533 25.9627 155.651 25.8027 155.8 25.504C156.013 25.0987 156.248 24.544 156.504 23.84C156.781 23.136 157.016 22.464 157.208 21.824L157.592 21.888L156.984 27.136C157.389 28.0107 157.624 28.6933 157.688 29.184C157.773 29.696 157.699 30.048 157.464 30.24C157.016 30.624 156.525 30.7627 155.992 30.656C155.459 30.5707 154.936 30.336 154.424 29.952C153.912 29.5893 153.507 29.1947 153.208 28.768C152.141 27.3173 151.32 25.6213 150.744 23.68C150.189 21.7387 149.784 19.584 149.528 17.216C149.293 14.848 149.155 12.2987 149.112 9.568C149.069 6.83733 149.048 3.95733 149.048 0.927999L153.464 1.44ZM158.296 12.544C158.211 12.736 158.072 12.8853 157.88 12.992C157.709 13.0987 157.411 13.152 156.984 13.152C156.621 14.7733 156.141 16.4267 155.544 18.112C154.968 19.7973 154.221 21.4293 153.304 23.008C152.387 24.5653 151.235 26.0053 149.848 27.328C148.461 28.6293 146.787 29.76 144.824 30.72L144.536 30.336C146.115 29.248 147.469 27.9787 148.6 26.528C149.731 25.0773 150.669 23.52 151.416 21.856C152.163 20.1707 152.749 18.4427 153.176 16.672C153.603 14.9013 153.923 13.1413 154.136 11.392L158.296 12.544ZM155.16 6.08C155.16 6.08 155.331 6.22933 155.672 6.528C156.035 6.80533 156.451 7.15733 156.92 7.584C157.389 7.98933 157.805 8.37333 158.168 8.736C158.083 9.07733 157.795 9.248 157.304 9.248H138.456L138.2 8.32H153.528L155.16 6.08ZM146.744 20.224C146.744 20.224 146.883 20.3413 147.16 20.576C147.459 20.7893 147.8 21.056 148.184 21.376C148.589 21.6747 148.952 21.9733 149.272 22.272C149.187 22.6133 148.909 22.784 148.44 22.784H138.808L138.552 21.856H145.368L146.744 20.224ZM146.68 3.104C146.68 3.104 146.829 3.232 147.128 3.488C147.427 3.72267 147.768 4.01067 148.152 4.352C148.557 4.672 148.909 4.992 149.208 5.312C149.144 5.65333 148.877 5.824 148.408 5.824H139.224L138.968 4.928H145.304L146.68 3.104ZM146.2 1.504C146.179 1.696 146.093 1.86666 145.944 2.016C145.816 2.144 145.56 2.24 145.176 2.304V9.024H142.072V1.12L146.2 1.504ZM153.208 2.464C154.424 2.784 155.309 3.18933 155.864 3.68C156.44 4.14933 156.76 4.62933 156.824 5.12C156.909 5.61067 156.813 6.02667 156.536 6.368C156.28 6.70933 155.928 6.90133 155.48 6.944C155.053 6.98667 154.616 6.80533 154.168 6.4C154.168 5.76 154.029 5.088 153.752 4.384C153.496 3.68 153.197 3.09333 152.856 2.624L153.208 2.464ZM145.08 18.784V25.952L142.04 26.656V18.784H145.08ZM139.32 17.728C139.256 17.92 139.128 18.08 138.936 18.208C138.744 18.3147 138.488 18.368 138.168 18.368C137.891 19.2 137.56 20.0747 137.176 20.992C136.813 21.888 136.387 22.688 135.896 23.392L135.352 23.2C135.523 22.304 135.672 21.2693 135.8 20.096C135.949 18.9013 136.045 17.7493 136.088 16.64L139.32 17.728ZM128.824 16.96C129.763 17.7707 130.435 18.5813 130.84 19.392C131.267 20.1813 131.491 20.896 131.512 21.536C131.533 22.176 131.427 22.6987 131.192 23.104C130.957 23.488 130.659 23.7013 130.296 23.744C129.933 23.7867 129.571 23.6053 129.208 23.2C129.293 22.5387 129.293 21.8453 129.208 21.12C129.123 20.3947 129.005 19.68 128.856 18.976C128.707 18.272 128.536 17.6427 128.344 17.088L128.824 16.96ZM127.96 26.304C128.579 26.2187 129.464 26.0587 130.616 25.824C131.789 25.568 133.112 25.28 134.584 24.96C136.056 24.64 137.56 24.2987 139.096 23.936L139.16 24.32C138.179 24.9173 136.941 25.6427 135.448 26.496C133.955 27.328 132.184 28.256 130.136 29.28C129.965 29.7493 129.699 30.0373 129.336 30.144L127.96 26.304ZM134.872 9.472V26.112L131.896 26.944V9.472H134.872ZM136.44 12.416C136.44 12.416 136.589 12.5547 136.888 12.832C137.187 13.1093 137.539 13.4507 137.944 13.856C138.349 14.24 138.701 14.6133 139 14.976C138.936 15.3173 138.669 15.488 138.2 15.488H128.568L128.312 14.56H135L136.44 12.416ZM135.192 7.168C135.192 7.168 135.352 7.30667 135.672 7.584C136.013 7.84 136.397 8.14933 136.824 8.512C137.272 8.87467 137.677 9.22667 138.04 9.568C137.955 9.90933 137.677 10.08 137.208 10.08H129.656L129.4 9.184H133.624L135.192 7.168ZM134.392 2.464C135.672 3.01867 136.643 3.584 137.304 4.16C137.965 4.736 138.392 5.28 138.584 5.792C138.776 6.28267 138.797 6.73067 138.648 7.136C138.52 7.52 138.275 7.808 137.912 8C137.571 8.17067 137.208 8.224 136.824 8.16C136.44 8.07467 136.077 7.84 135.736 7.456C135.651 6.79467 135.469 6.016 135.192 5.12C134.915 4.20267 134.52 3.328 134.008 2.496L134.392 2.464ZM134.872 2.624C134.467 3.60533 133.923 4.65067 133.24 5.76C132.579 6.848 131.811 7.904 130.936 8.928C130.083 9.952 129.176 10.8373 128.216 11.584L127.864 11.36C128.291 10.6773 128.696 9.888 129.08 8.992C129.485 8.07467 129.859 7.12533 130.2 6.144C130.541 5.16267 130.829 4.21333 131.064 3.296C131.299 2.35733 131.48 1.52533 131.608 0.799999L136.12 1.952C136.077 2.12267 135.96 2.272 135.768 2.4C135.597 2.528 135.299 2.60267 134.872 2.624ZM167.544 19.648C168.568 20.928 169.891 22.0053 171.512 22.88C173.155 23.7547 174.989 24.4587 177.016 24.992C179.043 25.5253 181.187 25.92 183.448 26.176C185.731 26.432 188.003 26.592 190.264 26.656V27.04C189.475 27.2747 188.845 27.7013 188.376 28.32C187.907 28.9387 187.587 29.7067 187.416 30.624C184.387 30.2187 181.571 29.6107 178.968 28.8C176.365 27.9893 174.061 26.88 172.056 25.472C170.051 24.0427 168.419 22.208 167.16 19.968L167.544 19.648ZM180.12 19.488L182.456 17.536L185.72 20.704C185.592 20.8747 185.421 20.992 185.208 21.056C184.995 21.0987 184.664 21.1307 184.216 21.152C182.509 23.0507 180.429 24.672 177.976 26.016C175.523 27.3387 172.781 28.3947 169.752 29.184C166.744 29.9733 163.523 30.5067 160.088 30.784L159.928 30.304C162.893 29.6853 165.709 28.8747 168.376 27.872C171.043 26.848 173.432 25.632 175.544 24.224C177.656 22.816 179.331 21.2373 180.568 19.488H180.12ZM182.68 19.488V20.384H161.496L161.208 19.488H182.68ZM180.76 0.831999C181.891 0.938665 182.765 1.152 183.384 1.472C184.003 1.77066 184.429 2.12266 184.664 2.528C184.899 2.93333 184.984 3.328 184.92 3.712C184.856 4.07467 184.675 4.37333 184.376 4.608C184.099 4.84267 183.757 4.97067 183.352 4.992C182.947 4.992 182.531 4.832 182.104 4.512C182.061 3.89333 181.88 3.264 181.56 2.624C181.24 1.96266 180.877 1.42933 180.472 1.024L180.76 0.831999ZM166.872 0.895998C168.003 1.024 168.877 1.248 169.496 1.568C170.115 1.86667 170.541 2.21867 170.776 2.624C171.011 3.008 171.096 3.392 171.032 3.776C170.968 4.13867 170.787 4.448 170.488 4.704C170.211 4.93867 169.869 5.06667 169.464 5.088C169.059 5.088 168.643 4.91733 168.216 4.576C168.195 3.95733 168.024 3.328 167.704 2.688C167.384 2.02667 167.011 1.49333 166.584 1.088L166.872 0.895998ZM167.832 2.24C167.747 2.432 167.597 2.592 167.384 2.72C167.192 2.82667 166.925 2.86933 166.584 2.848C165.752 4.42667 164.781 5.856 163.672 7.136C162.584 8.416 161.421 9.46133 160.184 10.272L159.768 9.952C160.579 8.864 161.347 7.50933 162.072 5.888C162.797 4.24533 163.384 2.54933 163.832 0.799999L167.832 2.24ZM181.208 2.112C181.144 2.32533 181.005 2.496 180.792 2.624C180.6 2.73067 180.333 2.77333 179.992 2.752C179.245 4.33067 178.349 5.73867 177.304 6.976C176.28 8.21333 175.171 9.23733 173.976 10.048L173.56 9.728C174.307 8.66133 175 7.33867 175.64 5.76C176.28 4.18133 176.781 2.528 177.144 0.799999L181.208 2.112ZM184.312 5.376V16.512H181.272V5.376H184.312ZM179.064 17.6C179.064 17.7067 178.829 17.8987 178.36 18.176C177.891 18.4533 177.24 18.592 176.408 18.592H175.864V6.912L177.752 4.256L179.48 4.928H179.064V17.6ZM187.032 14.08C187.032 14.08 187.192 14.208 187.512 14.464C187.832 14.6987 188.216 15.008 188.664 15.392C189.133 15.7547 189.539 16.1067 189.88 16.448C189.795 16.7893 189.517 16.96 189.048 16.96H177.528V16.064H185.464L187.032 14.08ZM186.264 10.656C186.264 10.656 186.403 10.7733 186.68 11.008C186.957 11.2213 187.299 11.4987 187.704 11.84C188.109 12.16 188.461 12.4693 188.76 12.768C188.696 13.1093 188.419 13.28 187.928 13.28H177.528V12.384H184.888L186.264 10.656ZM186.264 6.912C186.264 6.912 186.403 7.02933 186.68 7.264C186.957 7.47733 187.288 7.75467 187.672 8.096C188.077 8.416 188.429 8.72533 188.728 9.024C188.664 9.36533 188.397 9.536 187.928 9.536H177.528V8.64H184.888L186.264 6.912ZM186.488 3.168C186.488 3.168 186.637 3.28533 186.936 3.52C187.256 3.73333 187.629 4.01067 188.056 4.352C188.483 4.69333 188.877 5.024 189.24 5.344C189.176 5.68533 188.899 5.856 188.408 5.856H177.464V4.928H184.984L186.488 3.168ZM170.488 5.376V16.512H167.512V5.376H170.488ZM165.496 17.728C165.496 17.8347 165.261 18.0267 164.792 18.304C164.323 18.56 163.693 18.688 162.904 18.688H162.328V6.976L164.248 4.32L165.88 4.928H165.496V17.728ZM172.76 14.144C172.76 14.144 172.92 14.272 173.24 14.528C173.56 14.7627 173.933 15.0613 174.36 15.424C174.808 15.7867 175.203 16.128 175.544 16.448C175.459 16.7893 175.171 16.96 174.68 16.96H163.96V16.064H171.256L172.76 14.144ZM172.216 10.592C172.216 10.592 172.355 10.7093 172.632 10.944C172.909 11.1573 173.229 11.424 173.592 11.744C173.976 12.064 174.317 12.3733 174.616 12.672C174.531 13.0133 174.264 13.184 173.816 13.184H163.96V12.256H170.904L172.216 10.592ZM172.216 6.912C172.216 6.912 172.355 7.01867 172.632 7.232C172.909 7.44533 173.229 7.712 173.592 8.032C173.955 8.352 174.296 8.66133 174.616 8.96C174.531 9.30133 174.253 9.472 173.784 9.472H163.96V8.576H170.904L172.216 6.912ZM172.344 3.168C172.344 3.168 172.493 3.28533 172.792 3.52C173.112 3.75467 173.485 4.04267 173.912 4.384C174.36 4.704 174.755 5.024 175.096 5.344C175.011 5.68533 174.733 5.856 174.264 5.856H163.864V4.928H170.872L172.344 3.168ZM204.568 19.168C205.997 19.4667 207.117 19.8613 207.928 20.352C208.76 20.8213 209.357 21.3333 209.72 21.888C210.083 22.4427 210.243 22.976 210.2 23.488C210.179 23.9787 210.019 24.3947 209.72 24.736C209.421 25.056 209.037 25.2373 208.568 25.28C208.099 25.3227 207.597 25.152 207.064 24.768C206.936 24.128 206.712 23.488 206.392 22.848C206.093 22.208 205.752 21.5787 205.368 20.96C205.005 20.3413 204.643 19.808 204.28 19.36L204.568 19.168ZM217.848 14.208C217.827 14.4213 217.731 14.6027 217.56 14.752C217.389 14.88 217.112 14.9653 216.728 15.008V26.72C216.728 27.552 216.611 28.256 216.376 28.832C216.163 29.4293 215.693 29.8987 214.968 30.24C214.243 30.5813 213.123 30.816 211.608 30.944C211.544 30.3893 211.448 29.92 211.32 29.536C211.213 29.152 211 28.832 210.68 28.576C210.36 28.32 209.955 28.096 209.464 27.904C208.995 27.6907 208.269 27.5093 207.288 27.36V26.944C207.288 26.944 207.512 26.9547 207.96 26.976C208.408 26.9973 208.931 27.0293 209.528 27.072C210.125 27.1147 210.691 27.1467 211.224 27.168C211.779 27.1893 212.152 27.2 212.344 27.2C212.621 27.2 212.813 27.1573 212.92 27.072C213.027 26.9867 213.08 26.8267 213.08 26.592V13.76L217.848 14.208ZM214.904 1.216C214.883 1.42933 214.797 1.61067 214.648 1.76C214.499 1.888 214.232 1.97333 213.848 2.016V12.544H210.232V0.799999L214.904 1.216ZM219.128 14.624C219.128 14.624 219.235 14.72 219.448 14.912C219.683 15.0827 219.971 15.3173 220.312 15.616C220.653 15.8933 221.016 16.2027 221.4 16.544C221.784 16.864 222.136 17.1733 222.456 17.472C222.371 17.8133 222.083 17.984 221.592 17.984H203.128L202.872 17.056H217.272L219.128 14.624ZM217.752 9.504C217.752 9.504 217.859 9.6 218.072 9.792C218.307 9.96267 218.605 10.1973 218.968 10.496C219.331 10.7947 219.704 11.1147 220.088 11.456C220.493 11.776 220.856 12.0747 221.176 12.352C221.112 12.6933 220.813 12.864 220.28 12.864H205.016L204.76 11.968H215.896L217.752 9.504ZM218.456 3.68C218.456 3.68 218.573 3.776 218.808 3.968C219.064 4.13867 219.373 4.37333 219.736 4.672C220.12 4.97067 220.504 5.29067 220.888 5.632C221.293 5.97333 221.667 6.29333 222.008 6.592C221.944 6.93333 221.645 7.104 221.112 7.104H204.024L203.768 6.208H216.504L218.456 3.68ZM202.392 6.432C202.392 6.432 202.488 6.53867 202.68 6.752C202.893 6.944 203.149 7.18933 203.448 7.488C203.768 7.78667 204.088 8.11733 204.408 8.48C204.728 8.82133 205.016 9.14133 205.272 9.44C205.187 9.78133 204.909 9.952 204.44 9.952H193.976V9.056H200.76L202.392 6.432ZM192.184 18.528C192.909 18.336 193.933 18.0373 195.256 17.632C196.579 17.2053 198.072 16.7147 199.736 16.16C201.4 15.6053 203.117 15.0293 204.888 14.432L204.984 14.784C203.981 15.5947 202.701 16.5653 201.144 17.696C199.587 18.8053 197.677 20.096 195.416 21.568C195.309 22.0373 195.064 22.336 194.68 22.464L192.184 18.528ZM197.688 4.832C197.645 5.04533 197.528 5.22667 197.336 5.376C197.165 5.504 196.899 5.58933 196.536 5.632C196.152 7.72267 195.64 9.74933 195 11.712C194.36 13.6533 193.56 15.3173 192.6 16.704L192.088 16.48C192.365 15.328 192.589 14.0693 192.76 12.704C192.931 11.3173 193.059 9.888 193.144 8.416C193.251 6.944 193.304 5.51466 193.304 4.128L197.688 4.832ZM202.2 1.408C202.179 1.62133 202.083 1.81333 201.912 1.984C201.763 2.13333 201.475 2.24 201.048 2.304V29.536C201.048 29.6853 200.899 29.856 200.6 30.048C200.323 30.24 199.96 30.4107 199.512 30.56C199.085 30.7307 198.648 30.816 198.2 30.816H197.528V0.927999L202.2 1.408ZM229.304 3.552C229.304 3.78667 229.304 4.02133 229.304 4.256C229.304 4.49067 229.304 4.69333 229.304 4.864V25.28C229.304 25.7493 229.411 26.1227 229.624 26.4C229.837 26.656 230.211 26.848 230.744 26.976C231.277 27.0827 232.013 27.136 232.952 27.136H240.696C242.061 27.136 243.309 27.1253 244.44 27.104C245.571 27.0613 246.381 27.0293 246.872 27.008C247.171 26.9867 247.491 26.9547 247.832 26.912C248.195 26.8693 248.493 26.8373 248.728 26.816C249.261 26.752 249.88 26.592 250.584 26.336H250.904L251.096 26.4C251.992 26.5493 252.579 26.752 252.856 27.008C253.155 27.2427 253.304 27.52 253.304 27.84C253.304 28.288 253.133 28.64 252.792 28.896C252.451 29.1733 251.821 29.3867 250.904 29.536C249.987 29.6853 248.675 29.7813 246.968 29.824C245.283 29.888 243.096 29.92 240.408 29.92H233.336C231.608 29.92 230.189 29.824 229.08 29.632C227.971 29.44 227.149 29.0453 226.616 28.448C226.104 27.8507 225.848 26.9547 225.848 25.76V3.552H229.304ZM248.952 0.575998C248.952 0.575998 249.069 0.671998 249.304 0.863998C249.539 1.056 249.837 1.30133 250.2 1.6C250.563 1.89867 250.936 2.21867 251.32 2.56C251.725 2.90133 252.088 3.22133 252.408 3.52C252.323 3.86133 252.035 4.032 251.544 4.032H224.696L224.44 3.104H247.032L248.952 0.575998ZM247.224 16.672L248.696 15.136L251.768 17.44C251.683 17.5467 251.544 17.6533 251.352 17.76C251.181 17.8667 250.968 17.9413 250.712 17.984V24.512C250.712 24.576 250.552 24.6827 250.232 24.832C249.933 24.96 249.581 25.0773 249.176 25.184C248.771 25.2907 248.397 25.344 248.056 25.344H247.512V16.672H247.224ZM248.664 22.944V23.872H243.416V22.944H248.664ZM244.856 24.768C244.856 24.8533 244.717 24.9813 244.44 25.152C244.184 25.3013 243.853 25.44 243.448 25.568C243.064 25.6747 242.648 25.728 242.2 25.728H241.752V16.672V15.392L245.016 16.672H248.952V17.6H244.856V24.768ZM236.504 16.672L237.944 15.168L240.92 17.408C240.835 17.5147 240.696 17.6213 240.504 17.728C240.333 17.8347 240.131 17.9093 239.896 17.952V24.672C239.896 24.736 239.747 24.8427 239.448 24.992C239.149 25.12 238.797 25.2373 238.392 25.344C238.008 25.4293 237.645 25.472 237.304 25.472H236.76V16.672H236.504ZM238.104 22.944V23.872H232.92V22.944H238.104ZM234.2 25.28C234.2 25.3653 234.072 25.4827 233.816 25.632C233.56 25.7813 233.229 25.92 232.824 26.048C232.419 26.1547 232.003 26.208 231.576 26.208H231.128V16.672V15.392L234.328 16.672H238.008V17.6H234.2V25.28ZM243.576 6.528L245.208 4.8L248.632 7.36C248.547 7.46667 248.397 7.584 248.184 7.712C247.992 7.81867 247.747 7.89333 247.448 7.936V13.696C247.448 13.76 247.277 13.8667 246.936 14.016C246.595 14.144 246.2 14.272 245.752 14.4C245.304 14.5067 244.888 14.56 244.504 14.56H243.864V6.528H243.576ZM245.336 12.16V13.088H236.056V12.16H245.336ZM237.496 13.984C237.496 14.0907 237.336 14.2293 237.016 14.4C236.717 14.5707 236.333 14.7307 235.864 14.88C235.416 15.008 234.947 15.072 234.456 15.072H233.944V6.528V5.088L237.656 6.528H245.272V7.456H237.496V13.984Z" fill="white"/>
</svg>
