<svg width="190" height="47" viewBox="0 0 190 47" fill="none" xmlns="http://www.w3.org/2000/svg">
<path d="M17.672 1.104C19.848 0.975997 21.576 1.12 22.856 1.536C24.136 1.92 25.048 2.448 25.592 3.12C26.168 3.792 26.44 4.48 26.408 5.184C26.376 5.888 26.12 6.512 25.64 7.056C25.192 7.568 24.584 7.888 23.816 8.016C23.048 8.112 22.232 7.92 21.368 7.44C21.176 6.672 20.872 5.92 20.456 5.184C20.072 4.416 19.592 3.712 19.016 3.072C18.44 2.4 17.88 1.84 17.336 1.392L17.672 1.104ZM29.048 36.96V38.352H16.232V36.96H29.048ZM26.36 29.952L28.76 27.408L33.752 31.152C33.624 31.312 33.4 31.488 33.08 31.68C32.792 31.84 32.44 31.968 32.024 32.064V39.264C32.024 39.392 31.768 39.568 31.256 39.792C30.776 40.016 30.2 40.224 29.528 40.416C28.888 40.576 28.28 40.656 27.704 40.656H26.792V29.952H26.36ZM19.256 39.888C19.256 40.016 19.032 40.208 18.584 40.464C18.136 40.72 17.576 40.944 16.904 41.136C16.232 41.328 15.544 41.424 14.84 41.424H14.12V29.952V27.84L19.448 29.952H29.624V31.296H19.256V39.888ZM31.784 19.44V20.784H13.64V19.44H31.784ZM29.336 12.432L31.88 9.6L37.4 13.728C37.272 13.888 37.032 14.08 36.68 14.304C36.36 14.496 35.96 14.64 35.48 14.736V21.792C35.48 21.888 35.208 22.032 34.664 22.224C34.12 22.416 33.48 22.592 32.744 22.752C32.04 22.912 31.384 22.992 30.776 22.992H29.816V12.432H29.336ZM16.568 21.84C16.568 21.968 16.328 22.176 15.848 22.464C15.368 22.72 14.76 22.96 14.024 23.184C13.288 23.408 12.536 23.52 11.768 23.52H11V12.432V10.128L16.808 12.432H31.88V13.776H16.568V21.84ZM9.224 44.448C9.224 44.608 8.984 44.832 8.504 45.12C8.056 45.44 7.464 45.712 6.728 45.936C6.024 46.16 5.288 46.272 4.52 46.272H3.656V24.816V22.416L9.656 24.816H38.84V26.16H9.224V44.448ZM36.824 24.816L39.32 21.936L44.888 26.112C44.76 26.304 44.52 26.496 44.168 26.688C43.848 26.88 43.448 27.008 42.968 27.072V40.176C42.968 41.36 42.808 42.368 42.488 43.2C42.168 44.064 41.496 44.752 40.472 45.264C39.48 45.776 37.944 46.128 35.864 46.32C35.8 45.488 35.704 44.752 35.576 44.112C35.448 43.504 35.208 43.008 34.856 42.624C34.536 42.24 34.088 41.904 33.512 41.616C32.968 41.296 32.136 41.056 31.016 40.896V40.272C31.016 40.272 31.224 40.288 31.64 40.32C32.088 40.352 32.632 40.384 33.272 40.416C33.912 40.416 34.52 40.432 35.096 40.464C35.672 40.496 36.088 40.512 36.344 40.512C36.728 40.512 36.984 40.432 37.112 40.272C37.24 40.112 37.304 39.888 37.304 39.6V24.816H36.824ZM39.272 3.168C39.272 3.168 39.464 3.328 39.848 3.648C40.264 3.936 40.792 4.32 41.432 4.8C42.072 5.28 42.744 5.792 43.448 6.336C44.152 6.88 44.792 7.408 45.368 7.92C45.24 8.432 44.792 8.688 44.024 8.688H1.4L0.968 7.296H35.912L39.272 3.168ZM67.736 17.808C67.64 18.16 67.368 18.464 66.92 18.72C66.472 18.976 65.816 19.024 64.952 18.864L66.248 18.288C65.736 19.856 65.096 21.552 64.328 23.376C63.592 25.2 62.76 27.056 61.832 28.944C60.936 30.8 60.008 32.576 59.048 34.272C58.12 35.936 57.224 37.392 56.36 38.64L56.216 38.016H59.096C58.968 39.52 58.68 40.752 58.232 41.712C57.816 42.64 57.272 43.248 56.6 43.536L54.056 37.296C54.056 37.296 54.264 37.232 54.68 37.104C55.128 36.944 55.448 36.768 55.64 36.576C56.152 35.584 56.68 34.256 57.224 32.592C57.768 30.896 58.296 29.072 58.808 27.12C59.32 25.168 59.752 23.248 60.104 21.36C60.488 19.472 60.76 17.808 60.92 16.368L67.736 17.808ZM79.784 0.959999C81.736 1.568 83.224 2.288 84.248 3.12C85.304 3.92 86.008 4.752 86.36 5.616C86.712 6.48 86.792 7.28 86.6 8.016C86.44 8.72 86.088 9.28 85.544 9.696C85 10.112 84.36 10.304 83.624 10.272C82.92 10.208 82.216 9.84 81.512 9.168C81.576 8.272 81.512 7.344 81.32 6.384C81.128 5.424 80.856 4.496 80.504 3.6C80.152 2.704 79.752 1.92 79.304 1.248L79.784 0.959999ZM80.696 3.312C80.632 3.568 80.472 3.792 80.216 3.984C79.96 4.144 79.528 4.24 78.92 4.272C78.248 6.32 77.352 8.56 76.232 10.992C75.144 13.424 73.848 15.824 72.344 18.192C70.872 20.56 69.16 22.688 67.208 24.576L66.68 24.192C67.576 22.496 68.376 20.656 69.08 18.672C69.816 16.688 70.456 14.672 71 12.624C71.544 10.544 72.008 8.528 72.392 6.576C72.776 4.624 73.064 2.864 73.256 1.296L80.696 3.312ZM76.664 44.688C76.664 44.88 76.28 45.184 75.512 45.6C74.744 46.016 73.688 46.224 72.344 46.224H71.432V14.208L73.784 9.888L77.288 11.184H76.664V44.688ZM85.256 11.184V41.952H80.312V11.184H85.256ZM89.144 37.296C89.144 37.296 89.304 37.44 89.624 37.728C89.976 38.016 90.408 38.384 90.92 38.832C91.464 39.248 92.008 39.712 92.552 40.224C93.128 40.704 93.64 41.168 94.088 41.616C93.992 42.128 93.56 42.384 92.792 42.384H74.36V40.992H86.408L89.144 37.296ZM88.712 27.408C88.712 27.408 88.952 27.632 89.432 28.08C89.944 28.496 90.52 29.008 91.16 29.616C91.832 30.192 92.424 30.752 92.936 31.296C92.84 31.808 92.44 32.064 91.736 32.064H74.552V30.72H86.36L88.712 27.408ZM88.616 17.568C88.616 17.568 88.856 17.792 89.336 18.24C89.816 18.656 90.392 19.168 91.064 19.776C91.736 20.352 92.328 20.912 92.84 21.456C92.744 21.968 92.328 22.224 91.592 22.224H74.408V20.832H86.264L88.616 17.568ZM88.664 7.632C88.664 7.632 88.936 7.872 89.48 8.352C90.024 8.8 90.68 9.344 91.448 9.984C92.216 10.624 92.888 11.232 93.464 11.808C93.336 12.32 92.904 12.576 92.168 12.576H74.168V11.184H85.976L88.664 7.632ZM54.776 37.248C55.608 37.184 56.664 37.072 57.944 36.912C59.256 36.752 60.68 36.544 62.216 36.288C63.752 36 65.288 35.696 66.824 35.376L66.92 35.904C65.96 36.64 64.584 37.632 62.792 38.88C61 40.096 59.016 41.28 56.84 42.432L54.776 37.248ZM62.84 1.824C62.808 2.144 62.664 2.432 62.408 2.688C62.152 2.912 61.672 3.072 60.968 3.168C60.776 5.504 60.52 8.016 60.2 10.704C59.912 13.392 59.48 16.176 58.904 19.056C58.36 21.904 57.656 24.752 56.792 27.6C55.928 30.448 54.84 33.216 53.528 35.904C52.248 38.56 50.712 41.008 48.92 43.248L48.248 42.96C49.624 39.952 50.76 36.672 51.656 33.12C52.584 29.536 53.288 25.888 53.768 22.176C54.28 18.432 54.632 14.784 54.824 11.232C55.016 7.648 55.112 4.336 55.112 1.296L62.84 1.824ZM63.272 28.32C65.16 29.664 66.632 31.04 67.688 32.448C68.776 33.824 69.512 35.152 69.896 36.432C70.312 37.68 70.456 38.8 70.328 39.792C70.232 40.784 69.944 41.552 69.464 42.096C68.984 42.672 68.408 42.96 67.736 42.96C67.064 42.96 66.36 42.576 65.624 41.808C65.656 40.368 65.528 38.864 65.24 37.296C64.952 35.728 64.568 34.192 64.088 32.688C63.64 31.184 63.16 29.792 62.648 28.512L63.272 28.32ZM66.248 7.344C66.248 7.344 66.52 7.584 67.064 8.064C67.64 8.512 68.312 9.072 69.08 9.744C69.848 10.384 70.52 10.992 71.096 11.568C70.968 12.08 70.536 12.336 69.8 12.336H48.968L48.584 10.992H63.56L66.248 7.344ZM117.56 9.408C118.072 9.888 118.6 10.48 119.144 11.184C119.688 11.888 120.136 12.64 120.488 13.44C120.872 14.208 121.064 15.008 121.064 15.84C121.064 17.056 120.936 18.416 120.68 19.92C120.424 21.424 120.024 22.912 119.48 24.384C119.032 25.6 118.472 26.896 117.8 28.272C117.16 29.616 116.392 30.944 115.496 32.256C114.632 33.536 113.704 34.704 112.712 35.76C111.72 36.816 110.664 37.664 109.544 38.304C108.424 38.912 107.272 39.216 106.088 39.216C105.128 39.216 104.2 38.88 103.304 38.208C102.44 37.536 101.656 36.624 100.952 35.472C100.28 34.32 99.736 33.024 99.32 31.584C98.904 30.144 98.696 28.64 98.696 27.072C98.696 25.568 98.936 23.984 99.416 22.32C99.928 20.624 100.712 18.96 101.768 17.328C102.824 15.664 104.152 14.16 105.752 12.816C107.704 11.12 109.896 9.84 112.328 8.976C114.76 8.112 117.432 7.68 120.344 7.68C123.128 7.68 125.656 8.128 127.928 9.024C130.232 9.92 132.216 11.168 133.88 12.768C135.576 14.368 136.888 16.24 137.816 18.384C138.744 20.528 139.208 22.848 139.208 25.344C139.208 27.616 138.792 29.776 137.96 31.824C137.128 33.84 135.816 35.648 134.024 37.248C132.232 38.848 129.912 40.144 127.064 41.136C124.248 42.128 120.808 42.704 116.744 42.864L116.552 41.952C120.616 40.992 123.864 39.648 126.296 37.92C128.76 36.192 130.536 34.144 131.624 31.776C132.712 29.408 133.256 26.848 133.256 24.096C133.256 21.152 132.68 18.608 131.528 16.464C130.376 14.288 128.776 12.608 126.728 11.424C124.712 10.208 122.408 9.6 119.816 9.6C117.64 9.6 115.416 10.112 113.144 11.136C110.904 12.128 108.952 13.504 107.288 15.264C105.912 16.8 104.84 18.4 104.072 20.064C103.336 21.728 102.968 23.552 102.968 25.536C102.968 26.784 103.128 27.968 103.448 29.088C103.8 30.208 104.248 31.12 104.792 31.824C105.336 32.528 105.944 32.88 106.616 32.88C107.288 32.88 108.024 32.528 108.824 31.824C109.656 31.088 110.472 30.192 111.272 29.136C112.104 28.08 112.84 26.992 113.48 25.872C114.152 24.752 114.68 23.776 115.064 22.944C115.704 21.568 116.216 20.096 116.6 18.528C117.016 16.96 117.224 15.552 117.224 14.304C117.224 13.44 117.032 12.608 116.648 11.808C116.296 11.008 115.88 10.336 115.4 9.792L117.56 9.408ZM163.928 1.872C166.712 2.832 168.936 3.92 170.6 5.136C172.296 6.352 173.528 7.6 174.296 8.88C175.096 10.128 175.512 11.312 175.544 12.432C175.608 13.52 175.4 14.416 174.92 15.12C174.44 15.824 173.784 16.224 172.952 16.32C172.12 16.416 171.224 16.096 170.264 15.36C169.976 13.856 169.464 12.32 168.728 10.752C168.024 9.184 167.208 7.664 166.28 6.192C165.352 4.72 164.408 3.392 163.448 2.208L163.928 1.872ZM163.784 10.656C163.752 10.976 163.608 11.264 163.352 11.52C163.096 11.744 162.68 11.888 162.104 11.952V36.816C162.104 37.392 162.28 37.792 162.632 38.016C163.016 38.24 163.736 38.352 164.792 38.352H170.648C171.768 38.352 172.744 38.352 173.576 38.352C174.408 38.32 175.048 38.288 175.496 38.256C175.912 38.224 176.232 38.16 176.456 38.064C176.712 37.936 176.936 37.728 177.128 37.44C177.448 36.928 177.832 36.016 178.28 34.704C178.728 33.36 179.208 31.776 179.72 29.952H180.248L180.44 37.776C181.304 38.096 181.88 38.448 182.168 38.832C182.488 39.184 182.648 39.648 182.648 40.224C182.648 40.896 182.456 41.472 182.072 41.952C181.72 42.432 181.08 42.832 180.152 43.152C179.224 43.472 177.96 43.696 176.36 43.824C174.76 43.984 172.696 44.064 170.168 44.064H163.976C162.088 44.064 160.584 43.92 159.464 43.632C158.376 43.344 157.592 42.8 157.112 42C156.664 41.168 156.44 40 156.44 38.496V9.936L163.784 10.656ZM179 16.704C181.496 18.24 183.496 19.776 185 21.312C186.536 22.848 187.672 24.368 188.408 25.872C189.176 27.344 189.624 28.72 189.752 30C189.88 31.248 189.768 32.336 189.416 33.264C189.096 34.192 188.632 34.896 188.024 35.376C187.448 35.824 186.792 35.984 186.056 35.856C185.32 35.728 184.632 35.232 183.992 34.368C183.928 32.8 183.704 31.008 183.32 28.992C182.936 26.976 182.36 24.928 181.592 22.848C180.856 20.736 179.848 18.816 178.568 17.088L179 16.704ZM151.016 15.696C152.2 18.576 152.888 21.184 153.08 23.52C153.272 25.824 153.144 27.824 152.696 29.52C152.28 31.216 151.688 32.608 150.92 33.696C150.408 34.464 149.8 35.024 149.096 35.376C148.392 35.696 147.688 35.808 146.984 35.712C146.312 35.616 145.736 35.312 145.256 34.8C144.648 34.128 144.408 33.392 144.536 32.592C144.664 31.76 145.032 31.008 145.64 30.336C146.44 29.6 147.208 28.496 147.944 27.024C148.68 25.52 149.272 23.808 149.72 21.888C150.2 19.936 150.408 17.888 150.344 15.744L151.016 15.696Z" fill="#F3D7A3"/>
</svg>
