<svg width="1240" height="116" viewBox="0 0 1240 116" fill="none" xmlns="http://www.w3.org/2000/svg">
<path d="M29.568 7.68L37.056 8.4C36.992 8.752 36.832 9.056 36.576 9.312C36.352 9.536 35.92 9.696 35.28 9.792V50.256C35.28 50.448 35.04 50.704 34.56 51.024C34.08 51.376 33.488 51.664 32.784 51.888C32.08 52.144 31.376 52.272 30.672 52.272H29.568V7.68ZM1.488 27.792H37.872L40.992 23.664C40.992 23.664 41.184 23.824 41.568 24.144C41.952 24.432 42.432 24.816 43.008 25.296C43.616 25.776 44.24 26.288 44.88 26.832C45.552 27.376 46.144 27.888 46.656 28.368C46.528 28.88 46.08 29.136 45.312 29.136H1.872L1.488 27.792ZM22.512 7.488L28.176 12.24C27.664 12.752 26.672 12.784 25.2 12.336C23.408 12.912 21.296 13.488 18.864 14.064C16.464 14.64 13.92 15.152 11.232 15.6C8.576 16.016 5.952 16.336 3.36 16.56L3.168 15.888C4.896 15.408 6.672 14.832 8.496 14.16C10.352 13.488 12.144 12.768 13.872 12C15.632 11.232 17.248 10.464 18.72 9.696C20.192 8.896 21.456 8.16 22.512 7.488ZM13.536 13.104H19.2V25.968C19.2 27.792 19.104 29.68 18.912 31.632C18.72 33.584 18.336 35.52 17.76 37.44C17.184 39.36 16.304 41.216 15.12 43.008C13.968 44.8 12.432 46.48 10.512 48.048C8.592 49.648 6.192 51.056 3.312 52.272L2.928 51.792C5.264 49.968 7.136 48.032 8.544 45.984C9.952 43.936 11.008 41.824 11.712 39.648C12.448 37.44 12.928 35.2 13.152 32.928C13.408 30.624 13.536 28.304 13.536 25.968V13.104ZM76.032 11.184C76 15.12 75.888 18.992 75.696 22.8C75.536 26.576 75.12 30.224 74.448 33.744C73.776 37.232 72.672 40.544 71.136 43.68C69.6 46.784 67.424 49.648 64.608 52.272L63.936 51.6C65.76 48.656 67.152 45.584 68.112 42.384C69.072 39.152 69.728 35.824 70.08 32.4C70.432 28.976 70.624 25.488 70.656 21.936C70.72 18.384 70.752 14.8 70.752 11.184H76.032ZM76.848 24.672C77.424 27.712 78.288 30.432 79.44 32.832C80.592 35.2 81.952 37.296 83.52 39.12C85.12 40.912 86.896 42.48 88.848 43.824C90.8 45.168 92.88 46.32 95.088 47.28L94.992 47.808C93.84 47.936 92.816 48.384 91.92 49.152C91.056 49.92 90.368 50.928 89.856 52.176C87.904 50.8 86.176 49.264 84.672 47.568C83.168 45.872 81.856 43.952 80.736 41.808C79.616 39.632 78.672 37.168 77.904 34.416C77.136 31.632 76.544 28.48 76.128 24.96L76.848 24.672ZM82.56 10.944L84.72 8.4L89.76 12.288C89.472 12.672 88.912 12.912 88.08 13.008L86.448 25.152H81.264L83.04 10.944H82.56ZM86.304 24.384L89.232 21.504L94.128 25.872C93.968 26.128 93.744 26.304 93.456 26.4C93.168 26.496 92.752 26.576 92.208 26.64C91.44 29.488 90.448 32.208 89.232 34.8C88.048 37.392 86.528 39.792 84.672 42C82.816 44.176 80.56 46.144 77.904 47.904C75.248 49.664 72.112 51.136 68.496 52.32L68.112 51.648C71.888 49.76 75.04 47.424 77.568 44.64C80.128 41.856 82.16 38.752 83.664 35.328C85.168 31.872 86.256 28.224 86.928 24.384H86.304ZM89.52 24.384V25.728H72.72L73.008 24.384H89.52ZM85.152 10.944V12.288H67.008L66.576 10.944H85.152ZM69.216 20.16C69.056 20.448 68.736 20.64 68.256 20.736C67.776 20.832 67.152 20.688 66.384 20.304L67.872 20.064C67.136 21.056 66.176 22.176 64.992 23.424C63.808 24.672 62.512 25.936 61.104 27.216C59.696 28.496 58.24 29.712 56.736 30.864C55.232 32.016 53.792 33.008 52.416 33.84L52.32 33.264H54.72C54.592 34.768 54.272 35.936 53.76 36.768C53.28 37.568 52.736 38.08 52.128 38.304L50.112 32.544C50.112 32.544 50.32 32.48 50.736 32.352C51.184 32.224 51.536 32.08 51.792 31.92C52.816 31.184 53.888 30.176 55.008 28.896C56.16 27.616 57.28 26.224 58.368 24.72C59.488 23.184 60.496 21.664 61.392 20.16C62.288 18.656 62.96 17.344 63.408 16.224L69.216 20.16ZM64.224 10.56C64.096 10.848 63.792 11.072 63.312 11.232C62.864 11.36 62.24 11.264 61.44 10.944L62.928 10.656C62.192 11.84 61.232 13.152 60.048 14.592C58.864 16 57.616 17.376 56.304 18.72C55.024 20.064 53.776 21.184 52.56 22.08L52.512 21.504H55.104C54.976 22.944 54.688 24.08 54.24 24.912C53.824 25.744 53.328 26.288 52.752 26.544L50.4 20.784C50.4 20.784 50.576 20.736 50.928 20.64C51.312 20.512 51.616 20.384 51.84 20.256C52.384 19.648 52.96 18.816 53.568 17.76C54.176 16.704 54.752 15.552 55.296 14.304C55.84 13.024 56.32 11.776 56.736 10.56C57.184 9.312 57.504 8.24 57.696 7.344L64.224 10.56ZM54.24 38.592C55.232 41.312 55.616 43.648 55.392 45.6C55.168 47.552 54.624 49.008 53.76 49.968C53.408 50.384 52.928 50.672 52.32 50.832C51.744 50.992 51.168 50.976 50.592 50.784C50.048 50.592 49.632 50.24 49.344 49.728C48.992 48.992 48.96 48.288 49.248 47.616C49.536 46.944 50 46.368 50.64 45.888C51.088 45.472 51.552 44.88 52.032 44.112C52.512 43.344 52.896 42.48 53.184 41.52C53.472 40.528 53.6 39.552 53.568 38.592H54.24ZM62.064 37.152C63.952 37.792 65.344 38.544 66.24 39.408C67.136 40.24 67.648 41.072 67.776 41.904C67.904 42.736 67.776 43.44 67.392 44.016C67.008 44.592 66.48 44.928 65.808 45.024C65.136 45.12 64.432 44.848 63.696 44.208C63.696 43.088 63.472 41.904 63.024 40.656C62.608 39.376 62.112 38.304 61.536 37.44L62.064 37.152ZM57.552 37.968C59.248 39.248 60.432 40.528 61.104 41.808C61.808 43.088 62.128 44.272 62.064 45.36C62.032 46.416 61.76 47.264 61.248 47.904C60.768 48.544 60.16 48.88 59.424 48.912C58.72 48.944 58.032 48.544 57.36 47.712C57.648 46.144 57.728 44.496 57.6 42.768C57.472 41.008 57.248 39.472 56.928 38.16L57.552 37.968ZM62.4 27.216C64.416 28.176 65.904 29.2 66.864 30.288C67.824 31.344 68.384 32.368 68.544 33.36C68.704 34.352 68.592 35.184 68.208 35.856C67.824 36.496 67.28 36.864 66.576 36.96C65.872 37.056 65.152 36.768 64.416 36.096C64.416 35.136 64.272 34.144 63.984 33.12C63.728 32.064 63.408 31.056 63.024 30.096C62.64 29.104 62.24 28.224 61.824 27.456L62.4 27.216ZM51.168 32.496C52.064 32.464 53.28 32.416 54.816 32.352C56.384 32.256 58.144 32.144 60.096 32.016C62.08 31.856 64.096 31.712 66.144 31.584L66.192 32.16C64.88 32.768 63.024 33.552 60.624 34.512C58.256 35.472 55.632 36.448 52.752 37.44L51.168 32.496ZM50.928 20.88C51.728 20.912 52.784 20.944 54.096 20.976C55.408 20.976 56.864 20.976 58.464 20.976C60.096 20.944 61.744 20.912 63.408 20.88V21.552C62.416 22 60.96 22.624 59.04 23.424C57.152 24.192 55.088 24.976 52.848 25.776L50.928 20.88ZM115.872 43.68C115.744 43.904 115.536 44.064 115.248 44.16C114.992 44.256 114.608 44.24 114.096 44.112C112.88 45.104 111.424 46.048 109.728 46.944C108.032 47.84 106.176 48.64 104.16 49.344C102.144 50.08 100.08 50.656 97.968 51.072L97.584 50.496C99.28 49.632 100.896 48.592 102.432 47.376C104 46.16 105.408 44.896 106.656 43.584C107.936 42.24 108.944 40.976 109.68 39.792L115.872 43.68ZM125.088 41.088C128.032 41.056 130.48 41.296 132.432 41.808C134.416 42.32 135.968 42.992 137.088 43.824C138.208 44.624 138.96 45.472 139.344 46.368C139.76 47.264 139.856 48.08 139.632 48.816C139.44 49.552 139.008 50.08 138.336 50.4C137.664 50.752 136.816 50.784 135.792 50.496C135.216 49.728 134.496 48.912 133.632 48.048C132.8 47.216 131.872 46.4 130.848 45.6C129.824 44.768 128.784 44.016 127.728 43.344C126.704 42.64 125.712 42.048 124.752 41.568L125.088 41.088ZM127.008 23.808C127.008 24.608 126.864 25.504 126.576 26.496C126.32 27.456 125.76 28.432 124.896 29.424C124.064 30.416 122.784 31.344 121.056 32.208C119.36 33.072 117.072 33.808 114.192 34.416L113.856 33.84C116.256 32.848 118.048 31.776 119.232 30.624C120.416 29.472 121.184 28.32 121.536 27.168C121.92 25.984 122.112 24.864 122.112 23.808V20.928H127.008V23.808ZM134.688 20.4V21.792H118.608L118.176 20.4H134.688ZM131.184 20.4L133.44 17.952L137.664 21.504C137.376 21.824 136.864 22.048 136.128 22.176V28.272C136.128 28.496 136.16 28.656 136.224 28.752C136.288 28.816 136.432 28.848 136.656 28.848H137.568C137.76 28.848 137.92 28.848 138.048 28.848C138.176 28.848 138.288 28.848 138.384 28.848C138.512 28.848 138.64 28.832 138.768 28.8C138.896 28.768 139.008 28.688 139.104 28.56C139.264 28.336 139.472 27.92 139.728 27.312C139.984 26.672 140.224 25.968 140.448 25.2H141.024L141.168 28.608C141.712 28.832 142.064 29.088 142.224 29.376C142.384 29.664 142.464 30.016 142.464 30.432C142.464 31.296 142.032 31.984 141.168 32.496C140.336 32.976 138.96 33.216 137.04 33.216H135.12C134.096 33.216 133.328 33.104 132.816 32.88C132.304 32.656 131.968 32.272 131.808 31.728C131.68 31.152 131.616 30.4 131.616 29.472V20.4H131.184ZM117.6 25.392C119.936 25.2 121.904 25.232 123.504 25.488C125.136 25.744 126.432 26.16 127.392 26.736C128.384 27.28 129.088 27.888 129.504 28.56C129.952 29.2 130.144 29.824 130.08 30.432C130.048 31.008 129.808 31.456 129.36 31.776C128.912 32.096 128.304 32.208 127.536 32.112C126.832 31.344 125.888 30.576 124.704 29.808C123.552 29.008 122.304 28.272 120.96 27.6C119.648 26.896 118.416 26.352 117.264 25.968L117.6 25.392ZM124.704 34.704C124.672 35.024 124.528 35.312 124.272 35.568C124.048 35.792 123.6 35.936 122.928 36V50.832C122.928 50.96 122.672 51.136 122.16 51.36C121.68 51.584 121.072 51.776 120.336 51.936C119.6 52.096 118.832 52.176 118.032 52.176H116.976V33.984L124.704 34.704ZM136.512 33.792C136.512 33.792 136.704 33.952 137.088 34.272C137.472 34.592 137.952 34.992 138.528 35.472C139.104 35.92 139.712 36.432 140.352 37.008C141.024 37.552 141.616 38.064 142.128 38.544C142 39.056 141.552 39.312 140.784 39.312H99.504L99.12 37.92H133.44L136.512 33.792ZM99.504 30.96C100.624 30.896 102.16 30.752 104.112 30.528C106.096 30.304 108.32 30.048 110.784 29.76C113.28 29.44 115.84 29.104 118.464 28.752L118.56 29.424C116.864 30.16 114.752 31.024 112.224 32.016C109.728 32.976 106.72 34.08 103.2 35.328C102.912 35.968 102.48 36.352 101.904 36.48L99.504 30.96ZM111.408 20.736V30.672L106.32 31.92V20.736H111.408ZM113.616 17.664C113.616 17.664 113.856 17.856 114.336 18.24C114.816 18.624 115.392 19.104 116.064 19.68C116.768 20.224 117.392 20.752 117.936 21.264C117.808 21.776 117.376 22.032 116.64 22.032H100.944L100.56 20.688H111.216L113.616 17.664ZM136.944 8.4C136.944 8.4 137.216 8.624 137.76 9.072C138.304 9.488 138.96 10 139.728 10.608C140.496 11.216 141.184 11.808 141.792 12.384C141.664 12.896 141.232 13.152 140.496 13.152H124.272V11.76H134.304L136.944 8.4ZM116.832 8.544C116.832 8.544 117.088 8.752 117.6 9.168C118.112 9.584 118.704 10.096 119.376 10.704C120.048 11.28 120.656 11.84 121.2 12.384C121.072 12.896 120.656 13.152 119.952 13.152H106.512V11.76H114.432L116.832 8.544ZM127.632 14.16C129.232 14.096 130.464 14.224 131.328 14.544C132.224 14.864 132.832 15.264 133.152 15.744C133.472 16.192 133.568 16.656 133.44 17.136C133.344 17.616 133.072 18.032 132.624 18.384C132.208 18.704 131.696 18.88 131.088 18.912C130.512 18.944 129.904 18.72 129.264 18.24C129.2 17.536 128.96 16.832 128.544 16.128C128.16 15.392 127.728 14.832 127.248 14.448L127.632 14.16ZM130.272 9.312C130.144 9.6 129.92 9.84 129.6 10.032C129.312 10.192 128.896 10.256 128.352 10.224C127.104 12.24 125.664 14.016 124.032 15.552C122.432 17.056 120.736 18.272 118.944 19.2L118.368 18.816C119.328 17.344 120.24 15.552 121.104 13.44C122 11.296 122.704 9.088 123.216 6.816L130.272 9.312ZM109.104 13.968C110.704 13.808 111.968 13.856 112.896 14.112C113.824 14.368 114.48 14.736 114.864 15.216C115.248 15.696 115.424 16.192 115.392 16.704C115.36 17.216 115.168 17.68 114.816 18.096C114.464 18.48 114 18.72 113.424 18.816C112.848 18.912 112.224 18.784 111.552 18.432C111.36 17.632 110.976 16.848 110.4 16.08C109.856 15.312 109.296 14.72 108.72 14.304L109.104 13.968ZM111.888 9.264C111.792 9.552 111.584 9.792 111.264 9.984C110.944 10.144 110.512 10.208 109.968 10.176C108.4 12.608 106.592 14.64 104.544 16.272C102.496 17.904 100.4 19.184 98.256 20.112L97.776 19.632C99.12 18.192 100.416 16.336 101.664 14.064C102.944 11.792 103.952 9.376 104.688 6.816L111.888 9.264ZM163.392 7.344C165.504 7.216 167.168 7.344 168.384 7.728C169.6 8.112 170.448 8.64 170.928 9.312C171.44 9.952 171.648 10.624 171.552 11.328C171.488 12.032 171.216 12.64 170.736 13.152C170.256 13.632 169.632 13.92 168.864 14.016C168.096 14.112 167.264 13.904 166.368 13.392C166.24 12.304 165.84 11.232 165.168 10.176C164.528 9.088 163.808 8.24 163.008 7.632L163.392 7.344ZM182.448 13.824L185.28 10.944L190.32 15.696C190.128 15.888 189.888 16.016 189.6 16.08C189.344 16.144 188.96 16.192 188.448 16.224C187.744 16.896 186.848 17.632 185.76 18.432C184.704 19.232 183.696 19.872 182.736 20.352L182.304 20.064C182.432 19.456 182.528 18.768 182.592 18C182.688 17.232 182.768 16.48 182.832 15.744C182.928 14.976 182.976 14.336 182.976 13.824H182.448ZM152.16 11.136C152.832 12.96 153.168 14.592 153.168 16.032C153.168 17.472 152.912 18.688 152.4 19.68C151.92 20.672 151.312 21.408 150.576 21.888C150.064 22.208 149.504 22.384 148.896 22.416C148.288 22.416 147.728 22.288 147.216 22.032C146.704 21.744 146.336 21.312 146.112 20.736C145.824 19.872 145.888 19.136 146.304 18.528C146.72 17.888 147.28 17.376 147.984 16.992C148.592 16.672 149.152 16.224 149.664 15.648C150.208 15.072 150.656 14.384 151.008 13.584C151.36 12.784 151.52 11.968 151.488 11.136H152.16ZM185.136 13.824V15.168H151.392V13.824H185.136ZM187.248 27.552C187.088 27.776 186.864 27.92 186.576 27.984C186.32 28.048 185.92 28 185.376 27.84C184 28.448 182.384 29.072 180.528 29.712C178.672 30.352 176.72 30.96 174.672 31.536C172.624 32.112 170.592 32.592 168.576 32.976L168.192 32.4C169.76 31.504 171.376 30.496 173.04 29.376C174.736 28.224 176.32 27.072 177.792 25.92C179.264 24.736 180.464 23.696 181.392 22.8L187.248 27.552ZM173.52 29.616C174.416 32.176 175.728 34.384 177.456 36.24C179.216 38.064 181.216 39.584 183.456 40.8C185.728 42.016 188.048 43.024 190.416 43.824L190.368 44.352C188.128 44.768 186.608 46.352 185.808 49.104C183.6 47.76 181.648 46.224 179.952 44.496C178.288 42.736 176.864 40.672 175.68 38.304C174.496 35.904 173.568 33.104 172.896 29.904L173.52 29.616ZM171.36 38.112C169.472 39.712 167.2 41.248 164.544 42.72C161.888 44.16 159.024 45.44 155.952 46.56C152.88 47.68 149.744 48.576 146.544 49.248L146.208 48.528C149.088 47.504 151.904 46.16 154.656 44.496C157.44 42.832 159.968 40.992 162.24 38.976C164.544 36.96 166.4 34.88 167.808 32.736L171.36 38.112ZM168.192 31.728C166.56 32.912 164.624 34.096 162.384 35.28C160.176 36.464 157.808 37.552 155.28 38.544C152.784 39.536 150.288 40.368 147.792 41.04L147.504 40.416C149.68 39.392 151.856 38.128 154.032 36.624C156.24 35.12 158.272 33.504 160.128 31.776C162.016 30.016 163.536 28.32 164.688 26.688L168.192 31.728ZM163.152 24.96C165.296 26.336 167.072 27.952 168.48 29.808C169.888 31.632 170.944 33.552 171.648 35.568C172.352 37.584 172.768 39.552 172.896 41.472C173.056 43.36 172.96 45.072 172.608 46.608C172.288 48.144 171.776 49.344 171.072 50.208C170.464 50.976 169.552 51.52 168.336 51.84C167.152 52.16 165.712 52.32 164.016 52.32C163.984 50.72 163.6 49.536 162.864 48.768C162.576 48.448 162.064 48.144 161.328 47.856C160.624 47.536 159.792 47.264 158.832 47.04L158.784 46.464C159.456 46.496 160.208 46.544 161.04 46.608C161.872 46.672 162.656 46.72 163.392 46.752C164.16 46.784 164.736 46.8 165.12 46.8C165.472 46.8 165.76 46.784 165.984 46.752C166.208 46.688 166.384 46.544 166.512 46.32C166.928 45.712 167.232 44.832 167.424 43.68C167.616 42.496 167.68 41.136 167.616 39.6C167.552 38.064 167.344 36.464 166.992 34.8C166.64 33.104 166.112 31.456 165.408 29.856C164.704 28.224 163.808 26.72 162.72 25.344L163.152 24.96ZM170.832 21.456C169.2 23.184 167.184 24.784 164.784 26.256C162.416 27.696 159.808 28.976 156.96 30.096C154.144 31.216 151.232 32.176 148.224 32.976L147.84 32.352C150.016 31.36 152.08 30.224 154.032 28.944C155.984 27.632 157.792 26.272 159.456 24.864C161.152 23.424 162.576 22.032 163.728 20.688H170.832V21.456ZM178.752 16.992C178.752 16.992 178.928 17.136 179.28 17.424C179.632 17.68 180.08 18.032 180.624 18.48C181.2 18.928 181.792 19.408 182.4 19.92C183.008 20.4 183.568 20.864 184.08 21.312C184.048 21.568 183.904 21.76 183.648 21.888C183.424 22.016 183.136 22.08 182.784 22.08H153.216L152.832 20.688H175.824L178.752 16.992Z" fill="#F3D7A3"/>
<path d="M27.584 97.7005C27.584 97.7005 27.7867 97.8498 28.192 98.1485C28.5973 98.4258 29.0773 98.7671 29.632 99.1725C30.208 99.5778 30.72 99.9725 31.168 100.356C31.0827 100.698 30.7947 100.868 30.304 100.868H10.048L9.792 99.9725H25.664L27.584 97.7005ZM23.552 83.5885C23.4027 84.0578 22.9653 84.3138 22.24 84.3565C22.1333 84.9751 22.0053 85.6791 21.856 86.4685C21.7067 87.2365 21.5573 88.0045 21.408 88.7725C21.2587 89.5191 21.12 90.1805 20.992 90.7565H17.344C17.472 90.0738 17.6107 89.2631 17.76 88.3245C17.9093 87.3645 18.0587 86.3618 18.208 85.3165C18.3573 84.2711 18.4853 83.3005 18.592 82.4045L23.552 83.5885ZM12.448 102.692C13.024 104.314 13.2693 105.722 13.184 106.916C13.0987 108.09 12.8107 108.975 12.32 109.572C12.0853 109.85 11.7547 110.02 11.328 110.084C10.9013 110.17 10.4853 110.138 10.08 109.988C9.696 109.839 9.408 109.572 9.216 109.188C8.98133 108.655 8.97067 108.154 9.184 107.684C9.41867 107.215 9.76 106.831 10.208 106.532C10.464 106.298 10.7307 105.978 11.008 105.572C11.3067 105.146 11.552 104.676 11.744 104.164C11.936 103.652 12.0107 103.151 11.968 102.66L12.448 102.692ZM25.376 102.436C26.8267 102.82 27.968 103.311 28.8 103.908C29.632 104.484 30.2187 105.092 30.56 105.732C30.9227 106.351 31.0933 106.938 31.072 107.492C31.0507 108.026 30.88 108.474 30.56 108.836C30.2613 109.178 29.8773 109.37 29.408 109.412C28.96 109.434 28.4693 109.242 27.936 108.836C27.872 108.132 27.6907 107.407 27.392 106.66C27.0933 105.892 26.7413 105.167 26.336 104.484C25.9307 103.78 25.504 103.162 25.056 102.628L25.376 102.436ZM18.624 101.092C19.8827 101.455 20.864 101.892 21.568 102.404C22.272 102.916 22.7413 103.45 22.976 104.004C23.232 104.538 23.3067 105.039 23.2 105.508C23.1147 105.978 22.9013 106.362 22.56 106.66C22.2187 106.938 21.8133 107.076 21.344 107.076C20.896 107.055 20.448 106.831 20 106.404C20.0427 105.807 19.9893 105.199 19.84 104.58C19.6907 103.962 19.4773 103.364 19.2 102.788C18.944 102.212 18.6453 101.711 18.304 101.284L18.624 101.092ZM18.528 102.596C18.5067 102.81 18.4107 102.991 18.24 103.14C18.0907 103.268 17.856 103.354 17.536 103.396V108.196C17.536 108.388 17.5893 108.527 17.696 108.612C17.824 108.676 18.112 108.708 18.56 108.708H21.184C21.696 108.708 22.1547 108.708 22.56 108.708C22.9867 108.687 23.2853 108.666 23.456 108.644C23.7973 108.644 24.0533 108.538 24.224 108.324C24.352 108.132 24.512 107.78 24.704 107.268C24.9173 106.735 25.1413 106.116 25.376 105.412H25.728L25.824 108.388C26.272 108.559 26.5707 108.751 26.72 108.964C26.8693 109.156 26.944 109.402 26.944 109.7C26.944 110.148 26.7733 110.511 26.432 110.788C26.0907 111.087 25.472 111.3 24.576 111.428C23.7013 111.578 22.464 111.652 20.864 111.652H17.792C16.832 111.652 16.1067 111.567 15.616 111.396C15.1253 111.247 14.7947 110.97 14.624 110.564C14.4533 110.18 14.368 109.636 14.368 108.932V102.244L18.528 102.596ZM23.936 90.1805V97.0925H21.28V90.1805H23.936ZM19.296 90.1805V97.0925H16.704V90.1805H19.296ZM27.296 96.7085V97.6365H13.472V96.7085H27.296ZM11.552 88.8365L14.944 90.1805H25.76L27.264 88.4845L30.272 90.7245C30.1653 90.8738 30.0267 91.0018 29.856 91.1085C29.6853 91.1938 29.4187 91.2578 29.056 91.3005V97.8285C29.056 97.9138 28.8213 98.0525 28.352 98.2445C27.8827 98.4365 27.2427 98.5325 26.432 98.5325H25.888V91.1085H14.624V98.2765C14.624 98.3831 14.4 98.5431 13.952 98.7565C13.504 98.9485 12.8853 99.0445 12.096 99.0445H11.552V90.1805V88.8365ZM27.616 83.8765C27.616 83.8765 27.7333 83.9725 27.968 84.1645C28.224 84.3565 28.5333 84.6018 28.896 84.9005C29.2587 85.1991 29.6427 85.5191 30.048 85.8605C30.4533 86.1805 30.8267 86.4898 31.168 86.7885C31.0827 87.1298 30.784 87.3005 30.272 87.3005H10.144L9.888 86.4045H25.664L27.616 83.8765ZM11.008 84.9645C10.9227 85.1138 10.784 85.2311 10.592 85.3165C10.4213 85.4018 10.144 85.4125 9.76 85.3485C9.12 86.0738 8.33067 86.8631 7.392 87.7165C6.47467 88.5485 5.48267 89.3591 4.416 90.1485C3.34933 90.9165 2.24 91.6098 1.088 92.2285L0.8 91.9085C1.61067 90.9911 2.38933 89.9778 3.136 88.8685C3.904 87.7378 4.59733 86.6071 5.216 85.4765C5.856 84.3458 6.35733 83.3431 6.72 82.4685L11.008 84.9645ZM11.52 91.4605C11.456 91.6311 11.3387 91.7698 11.168 91.8765C10.9973 91.9618 10.6987 91.9831 10.272 91.9405C9.632 93.0071 8.84267 94.1591 7.904 95.3965C6.98667 96.6338 5.952 97.8498 4.8 99.0445C3.648 100.239 2.38933 101.295 1.024 102.212L0.736 101.924C1.39733 101.007 2.03733 100.004 2.656 98.9165C3.296 97.8285 3.872 96.7085 4.384 95.5565C4.91733 94.3831 5.38667 93.2631 5.792 92.1965C6.19733 91.1085 6.51733 90.1058 6.752 89.1885L11.52 91.4605ZM9.472 95.7165C9.408 95.8658 9.30133 95.9938 9.152 96.1005C9.00267 96.2071 8.77867 96.2818 8.48 96.3245V111.3C8.48 111.407 8.34133 111.556 8.064 111.748C7.78667 111.962 7.424 112.143 6.976 112.292C6.528 112.463 6.03733 112.548 5.504 112.548H4.832V95.9725L5.984 94.4365L9.472 95.7165ZM39.712 96.8685H56.32V97.7965H39.712V96.8685ZM39.712 108.26H56.32V109.156H39.712V108.26ZM54.496 85.9245H54.176L56.064 83.8125L59.84 86.7885C59.7333 86.9378 59.5733 87.0765 59.36 87.2045C59.1467 87.3111 58.88 87.3965 58.56 87.4605V110.82C58.5387 110.906 58.3467 111.055 57.984 111.268C57.6213 111.482 57.1733 111.663 56.64 111.812C56.128 111.983 55.6267 112.068 55.136 112.068H54.496V85.9245ZM37.888 85.9245V84.1965L42.112 85.9245H56.768V86.8205H41.824V110.852C41.824 111.023 41.6747 111.226 41.376 111.46C41.0773 111.695 40.672 111.898 40.16 112.068C39.6693 112.239 39.136 112.324 38.56 112.324H37.888V85.9245ZM87.328 86.0525L88.928 84.2925L92.352 86.8845C92.2667 86.9911 92.1067 87.1085 91.872 87.2365C91.6373 87.3645 91.3707 87.4605 91.072 87.5245V95.4925C91.072 95.5778 90.912 95.6951 90.592 95.8445C90.272 95.9725 89.888 96.0898 89.44 96.1965C89.0133 96.3031 88.5973 96.3565 88.192 96.3565H87.648V86.0525H87.328ZM85.952 82.9805C85.9307 83.2151 85.8347 83.4178 85.664 83.5885C85.5147 83.7378 85.2267 83.8445 84.8 83.9085V106.692C84.8 106.799 84.6507 106.927 84.352 107.076C84.0747 107.226 83.712 107.364 83.264 107.492C82.8373 107.599 82.3893 107.652 81.92 107.652H81.216V82.5325L85.952 82.9805ZM89.632 96.1645C89.632 96.1645 89.7387 96.2605 89.952 96.4525C90.1867 96.6231 90.4747 96.8471 90.816 97.1245C91.1573 97.4018 91.5093 97.7005 91.872 98.0205C92.256 98.3405 92.608 98.6498 92.928 98.9485C92.8427 99.2898 92.5547 99.4605 92.064 99.4605H76.16L75.904 98.5325H87.84L89.632 96.1645ZM90.624 100.228C90.624 100.228 90.752 100.324 91.008 100.516C91.264 100.708 91.584 100.964 91.968 101.284C92.352 101.583 92.7573 101.903 93.184 102.244C93.6107 102.564 93.9947 102.884 94.336 103.204C94.2933 103.375 94.1867 103.503 94.016 103.588C93.8667 103.674 93.6747 103.716 93.44 103.716H74.688L74.432 102.788H88.608L90.624 100.228ZM92.832 87.7165C92.832 87.7165 92.992 87.8871 93.312 88.2285C93.632 88.5485 94.0053 88.9325 94.432 89.3805C94.8587 89.8071 95.2213 90.2018 95.52 90.5645C95.4347 90.9058 95.1467 91.0765 94.656 91.0765H74.176L73.92 90.1805H91.328L92.832 87.7165ZM89.088 94.3405V95.2685H76.512L76.224 94.3405H89.088ZM89.184 86.0525V86.9805H76.224L75.936 86.0525H89.184ZM74.24 86.9805C74.0053 87.5138 73.7067 88.1751 73.344 88.9645C72.9813 89.7538 72.5867 90.5965 72.16 91.4925C71.7333 92.3885 71.3173 93.2525 70.912 94.0845C70.528 94.8951 70.1867 95.5885 69.888 96.1645H70.08L68.96 97.3165L65.792 95.3005C66.0267 95.1085 66.3253 94.9271 66.688 94.7565C67.072 94.5645 67.4133 94.4365 67.712 94.3725L66.528 95.3645C66.848 94.8098 67.2213 94.1058 67.648 93.2525C68.0747 92.3991 68.5013 91.5138 68.928 90.5965C69.3547 89.6578 69.7493 88.7618 70.112 87.9085C70.4747 87.0551 70.752 86.3511 70.944 85.7965L74.24 86.9805ZM70.56 85.7965L72.16 84.1645L75.36 87.0445C75.168 87.2578 74.848 87.4071 74.4 87.4925C73.9733 87.5778 73.4827 87.6098 72.928 87.5885C72.3947 87.5671 71.872 87.5245 71.36 87.4605L70.944 85.7965H70.56ZM66.464 97.8605C67.2747 100.1 68.2667 101.903 69.44 103.268C70.6347 104.612 72.064 105.636 73.728 106.34C75.392 107.044 77.3547 107.524 79.616 107.78C81.8987 108.015 84.5227 108.132 87.488 108.132C87.8933 108.132 88.416 108.132 89.056 108.132C89.696 108.132 90.3787 108.132 91.104 108.132C91.8293 108.132 92.5333 108.132 93.216 108.132C93.8987 108.111 94.496 108.1 95.008 108.1V108.484C94.2827 108.634 93.728 109.007 93.344 109.604C92.9813 110.18 92.7787 110.842 92.736 111.588C92.3093 111.588 91.744 111.588 91.04 111.588C90.336 111.588 89.632 111.588 88.928 111.588C88.224 111.588 87.648 111.588 87.2 111.588C84.128 111.588 81.4293 111.407 79.104 111.044C76.8 110.703 74.816 110.052 73.152 109.092C71.488 108.132 70.08 106.767 68.928 104.996C67.7973 103.226 66.8587 100.911 66.112 98.0525L66.464 97.8605ZM71.744 95.2365L73.472 93.4125L76.672 96.1325C76.5013 96.4098 76.1067 96.5805 75.488 96.6445C75.2533 98.2445 74.912 99.8125 74.464 101.348C74.0373 102.884 73.4293 104.346 72.64 105.732C71.8507 107.098 70.8267 108.356 69.568 109.508C68.3307 110.639 66.7947 111.642 64.96 112.516L64.736 112.1C66.5067 110.778 67.8933 109.231 68.896 107.46C69.8987 105.69 70.6347 103.759 71.104 101.668C71.5947 99.5778 71.9147 97.4338 72.064 95.2365H71.744ZM73.728 95.2365V96.1645H67.776L68.224 95.2365H73.728ZM72.576 85.7965V86.6925H65.28L64.992 85.7965H72.576ZM111.68 90.1805H122.976L124.544 87.6205C124.544 87.6205 124.715 87.7911 125.056 88.1325C125.397 88.4525 125.792 88.8471 126.24 89.3165C126.688 89.7645 127.072 90.1911 127.392 90.5965C127.307 90.9378 127.029 91.1085 126.56 91.1085H111.936L111.68 90.1805ZM118.944 82.5005L123.776 82.9805C123.755 83.1938 123.648 83.3858 123.456 83.5565C123.285 83.7058 122.997 83.8125 122.592 83.8765V108.26C122.592 109.071 122.475 109.764 122.24 110.34C122.027 110.938 121.568 111.407 120.864 111.748C120.16 112.111 119.072 112.356 117.6 112.484C117.536 111.93 117.44 111.45 117.312 111.044C117.205 110.66 117.003 110.34 116.704 110.084C116.405 109.807 116.021 109.572 115.552 109.38C115.104 109.188 114.421 109.028 113.504 108.9V108.452C113.504 108.452 113.707 108.463 114.112 108.484C114.517 108.506 114.997 108.538 115.552 108.58C116.107 108.623 116.629 108.655 117.12 108.676C117.632 108.698 117.984 108.708 118.176 108.708C118.453 108.708 118.645 108.655 118.752 108.548C118.88 108.442 118.944 108.282 118.944 108.068V82.5005ZM117.952 90.1805H122.176V90.6925C120.96 94.0205 119.136 97.0711 116.704 99.8445C114.293 102.618 111.381 104.954 107.968 106.852L107.648 106.468C109.269 105.082 110.741 103.482 112.064 101.668C113.408 99.8551 114.581 97.9565 115.584 95.9725C116.587 93.9885 117.376 92.0578 117.952 90.1805ZM97.344 90.1805H106.816L108.544 87.7165C108.544 87.7165 108.725 87.8765 109.088 88.1965C109.451 88.5165 109.877 88.9005 110.368 89.3485C110.859 89.7751 111.296 90.1805 111.68 90.5645C111.595 90.9058 111.307 91.0765 110.816 91.0765H97.6L97.344 90.1805ZM102.272 90.1805H106.08V90.6925C105.419 93.6791 104.331 96.4098 102.816 98.8845C101.323 101.359 99.392 103.535 97.024 105.412L96.64 105.06C97.6213 103.738 98.4747 102.266 99.2 100.644C99.9467 99.0018 100.576 97.2951 101.088 95.5245C101.6 93.7325 101.995 91.9511 102.272 90.1805ZM102.464 82.5325L107.264 83.0125C107.243 83.2471 107.147 83.4498 106.976 83.6205C106.827 83.7698 106.539 83.8765 106.112 83.9405V111.46C106.112 111.546 105.963 111.674 105.664 111.844C105.365 112.036 104.992 112.196 104.544 112.324C104.117 112.474 103.669 112.548 103.2 112.548H102.464V82.5325ZM106.112 93.8925C107.456 94.2765 108.501 94.7458 109.248 95.3005C110.016 95.8338 110.539 96.3885 110.816 96.9645C111.115 97.5191 111.221 98.0525 111.136 98.5645C111.072 99.0551 110.88 99.4498 110.56 99.7485C110.24 100.026 109.835 100.164 109.344 100.164C108.875 100.143 108.405 99.9191 107.936 99.4925C107.893 98.8738 107.765 98.2445 107.552 97.6045C107.339 96.9431 107.072 96.3138 106.752 95.7165C106.453 95.0978 106.133 94.5431 105.792 94.0525L106.112 93.8925ZM141.28 102.276L140.864 101.348C142.016 100.772 142.923 100.154 143.584 99.4925C144.267 98.8098 144.736 97.8711 144.992 96.6765L145.376 97.7965C143.968 97.2845 142.933 96.7298 142.272 96.1325C141.632 95.5351 141.312 94.8631 141.312 94.1165C141.312 93.3271 141.579 92.6765 142.112 92.1645C142.645 91.6311 143.317 91.3645 144.128 91.3645C144.619 91.3645 145.045 91.4285 145.408 91.5565C145.771 91.6631 146.133 91.8658 146.496 92.1645C146.688 92.6338 146.816 93.0498 146.88 93.4125C146.944 93.7538 146.976 94.1805 146.976 94.6925C146.976 96.6551 146.453 98.2871 145.408 99.5885C144.384 100.868 143.008 101.764 141.28 102.276ZM174.528 86.8845C174.336 87.4178 174.08 88.1111 173.76 88.9645C173.461 89.7965 173.131 90.6818 172.768 91.6205C172.427 92.5591 172.085 93.4658 171.744 94.3405C171.403 95.1938 171.093 95.9405 170.816 96.5805H171.04L170.016 97.6365L167.264 95.8125C167.477 95.6418 167.755 95.4818 168.096 95.3325C168.437 95.1618 168.747 95.0445 169.024 94.9805L168.032 95.9725C168.309 95.3751 168.629 94.6285 168.992 93.7325C169.355 92.8365 169.707 91.8978 170.048 90.9165C170.411 89.9351 170.741 88.9965 171.04 88.1005C171.339 87.2045 171.573 86.4578 171.744 85.8605L174.528 86.8845ZM171.328 85.8605L172.768 84.3885L175.68 86.9805C175.424 87.2578 174.944 87.4285 174.24 87.4925C173.536 87.5351 172.821 87.5031 172.096 87.3965L171.744 85.8605H171.328ZM171.936 95.6525L173.568 93.9245L176.64 96.4845C176.555 96.6551 176.427 96.7725 176.256 96.8365C176.085 96.9005 175.829 96.9538 175.488 96.9965C175.339 98.5111 175.115 100.004 174.816 101.476C174.517 102.948 174.059 104.356 173.44 105.7C172.843 107.044 172.021 108.303 170.976 109.476C169.931 110.628 168.619 111.642 167.04 112.516L166.752 112.1C168.288 110.778 169.429 109.231 170.176 107.46C170.944 105.69 171.467 103.802 171.744 101.796C172.021 99.7698 172.192 97.7218 172.256 95.6525H171.936ZM168.64 98.6285C169.259 100.698 170.005 102.383 170.88 103.684C171.776 104.964 172.843 105.956 174.08 106.66C175.317 107.343 176.768 107.812 178.432 108.068C180.096 108.303 182.005 108.42 184.16 108.42C184.565 108.42 185.077 108.42 185.696 108.42C186.315 108.42 186.955 108.42 187.616 108.42C188.299 108.42 188.96 108.42 189.6 108.42C190.261 108.42 190.816 108.41 191.264 108.388V108.804C190.667 108.932 190.208 109.284 189.888 109.86C189.568 110.436 189.397 111.076 189.376 111.78C188.992 111.78 188.448 111.78 187.744 111.78C187.04 111.78 186.336 111.78 185.632 111.78C184.928 111.78 184.363 111.78 183.936 111.78C181.653 111.78 179.637 111.599 177.888 111.236C176.16 110.874 174.667 110.223 173.408 109.284C172.171 108.346 171.136 107.034 170.304 105.348C169.472 103.642 168.8 101.455 168.288 98.7885L168.64 98.6285ZM172.704 85.8605V86.7565H168.608L168.32 85.8605H172.704ZM173.728 95.6525V96.5805H169.568L169.92 95.6525H173.728ZM187.52 100.836C187.52 100.836 187.68 100.986 188 101.284C188.341 101.562 188.736 101.914 189.184 102.34C189.632 102.746 190.016 103.13 190.336 103.492C190.272 103.834 190.005 104.004 189.536 104.004H174.976L174.72 103.076H185.952L187.52 100.836ZM189.248 88.2925C189.248 88.2925 189.365 88.4311 189.6 88.7085C189.835 88.9858 190.112 89.3165 190.432 89.7005C190.773 90.0631 191.051 90.4045 191.264 90.7245C191.2 91.0658 190.944 91.2365 190.496 91.2365H174.08L173.824 90.3405H188.064L189.248 88.2925ZM186.368 96.8685C186.368 96.8685 186.528 97.0071 186.848 97.2845C187.168 97.5618 187.531 97.9031 187.936 98.3085C188.363 98.6925 188.736 99.0551 189.056 99.3965C188.992 99.7378 188.725 99.9085 188.256 99.9085H175.936L175.68 99.0125H184.864L186.368 96.8685ZM184.544 86.0845L185.952 84.6125L188.864 86.8205C188.779 86.9058 188.651 87.0018 188.48 87.1085C188.309 87.2151 188.096 87.2898 187.84 87.3325V95.6205C187.84 95.6845 187.691 95.7805 187.392 95.9085C187.115 96.0365 186.784 96.1538 186.4 96.2605C186.016 96.3671 185.664 96.4205 185.344 96.4205H184.832V86.0845H184.544ZM183.456 83.1085C183.435 83.3005 183.339 83.4711 183.168 83.6205C183.019 83.7698 182.763 83.8658 182.4 83.9085V106.916C182.4 107.002 182.261 107.14 181.984 107.332C181.728 107.503 181.408 107.652 181.024 107.78C180.64 107.908 180.245 107.972 179.84 107.972H179.232V82.6605L183.456 83.1085ZM186.24 94.6925V95.6205H176.32L176.032 94.6925H186.24ZM186.208 86.0845V87.0125H175.872L175.584 86.0845H186.208ZM170.112 83.9725C170.027 84.1645 169.877 84.3245 169.664 84.4525C169.472 84.5805 169.195 84.6338 168.832 84.6125C168.235 86.6391 167.541 88.5591 166.752 90.3725C165.984 92.1858 165.109 93.8605 164.128 95.3965C163.168 96.9111 162.091 98.2765 160.896 99.4925L160.48 99.2365C161.141 97.8285 161.771 96.2071 162.368 94.3725C162.987 92.5165 163.541 90.5751 164.032 88.5485C164.523 86.5218 164.896 84.5058 165.152 82.5005L170.112 83.9725ZM168.032 92.1645C167.968 92.3138 167.851 92.4418 167.68 92.5485C167.531 92.6338 167.317 92.6978 167.04 92.7405V111.556C167.04 111.62 166.891 111.727 166.592 111.876C166.293 112.047 165.931 112.196 165.504 112.324C165.099 112.452 164.672 112.516 164.224 112.516H163.616V92.7085L164.896 90.9805L168.032 92.1645ZM211.84 105.284C213.696 105.284 215.243 105.444 216.48 105.764C217.717 106.084 218.688 106.5 219.392 107.012C220.096 107.524 220.576 108.058 220.832 108.612C221.088 109.146 221.152 109.636 221.024 110.084C220.896 110.532 220.619 110.863 220.192 111.076C219.787 111.29 219.275 111.3 218.656 111.108C218.144 110.468 217.483 109.807 216.672 109.124C215.883 108.42 215.04 107.759 214.144 107.14C213.248 106.522 212.405 105.999 211.616 105.572L211.84 105.284ZM199.84 100.356C201.291 100.228 202.464 100.271 203.36 100.484C204.256 100.676 204.928 100.975 205.376 101.38C205.845 101.786 206.112 102.212 206.176 102.66C206.261 103.108 206.197 103.514 205.984 103.876C205.771 104.239 205.451 104.495 205.024 104.644C204.597 104.772 204.085 104.73 203.488 104.516C203.253 104.047 202.912 103.567 202.464 103.076C202.037 102.586 201.568 102.127 201.056 101.7C200.565 101.252 200.085 100.89 199.616 100.612L199.84 100.356ZM220.16 102.34C219.989 102.618 219.616 102.65 219.04 102.436C218.485 102.65 217.781 102.884 216.928 103.14C216.075 103.375 215.2 103.61 214.304 103.844C213.429 104.079 212.64 104.282 211.936 104.452L211.68 104.132C212.213 103.706 212.8 103.204 213.44 102.628C214.08 102.031 214.709 101.434 215.328 100.836C215.947 100.239 216.459 99.7271 216.864 99.3005L220.16 102.34ZM197.664 107.588C198.197 107.46 198.944 107.258 199.904 106.98C200.885 106.682 201.984 106.34 203.2 105.956C204.416 105.572 205.653 105.188 206.912 104.804L207.04 105.124C206.336 105.743 205.419 106.511 204.288 107.428C203.179 108.346 201.856 109.391 200.32 110.564C200.192 111.012 199.936 111.3 199.552 111.428L197.664 107.588ZM212.32 88.1325C212.299 88.3671 212.192 88.5591 212 88.7085C211.829 88.8578 211.552 88.9645 211.168 89.0285V108.42C211.168 109.274 211.072 109.988 210.88 110.564C210.688 111.14 210.272 111.588 209.632 111.908C208.992 112.25 208 112.484 206.656 112.612C206.635 112.079 206.581 111.599 206.496 111.172C206.411 110.767 206.272 110.436 206.08 110.18C205.888 109.924 205.621 109.7 205.28 109.508C204.96 109.316 204.459 109.167 203.776 109.06V108.644C203.776 108.644 203.904 108.655 204.16 108.676C204.437 108.676 204.757 108.687 205.12 108.708C205.483 108.73 205.824 108.751 206.144 108.772C206.485 108.794 206.72 108.804 206.848 108.804C207.083 108.804 207.243 108.772 207.328 108.708C207.413 108.644 207.456 108.516 207.456 108.324V87.6845L212.32 88.1325ZM215.104 90.6285L216.704 88.9965L219.872 91.3965C219.701 91.6311 219.392 91.7911 218.944 91.8765V99.1405C218.944 99.2471 218.784 99.3965 218.464 99.5885C218.165 99.7805 217.792 99.9618 217.344 100.132C216.896 100.282 216.448 100.356 216 100.356H215.36V90.6285H215.104ZM220.576 92.6445C220.576 92.6445 220.715 92.7725 220.992 93.0285C221.269 93.2845 221.6 93.5938 221.984 93.9565C222.389 94.3191 222.741 94.6605 223.04 94.9805C222.955 95.3218 222.677 95.4925 222.208 95.4925H199.744L199.488 94.5645H219.2L220.576 92.6445ZM216.32 98.5645V99.4925H201.024L200.736 98.5645H216.32ZM216.256 90.6285V91.5245H201.056L200.768 90.6285H216.256ZM206.624 82.4365C207.925 82.4791 208.928 82.6498 209.632 82.9485C210.357 83.2471 210.837 83.5991 211.072 84.0045C211.328 84.4098 211.392 84.8045 211.264 85.1885C211.157 85.5725 210.923 85.9031 210.56 86.1805C210.197 86.4365 209.771 86.5645 209.28 86.5645C208.789 86.5431 208.288 86.3405 207.776 85.9565C207.755 85.3591 207.595 84.7511 207.296 84.1325C207.019 83.5138 206.72 83.0018 206.4 82.5965L206.624 82.4365ZM195.456 86.1805V85.0285L199.552 86.5005H198.976V95.1085C198.976 96.4738 198.923 97.9245 198.816 99.4605C198.731 100.975 198.496 102.511 198.112 104.068C197.749 105.604 197.163 107.087 196.352 108.516C195.541 109.924 194.432 111.226 193.024 112.42L192.704 112.196C193.579 110.511 194.208 108.719 194.592 106.82C194.976 104.9 195.211 102.948 195.296 100.964C195.403 98.9805 195.456 97.0285 195.456 95.1085V86.5005V86.1805ZM219.328 83.9085C219.328 83.9085 219.445 84.0045 219.68 84.1965C219.915 84.3885 220.213 84.6445 220.576 84.9645C220.939 85.2631 221.323 85.5831 221.728 85.9245C222.133 86.2658 222.496 86.5965 222.816 86.9165C222.731 87.2578 222.432 87.4285 221.92 87.4285H197.696V86.5005H217.376L219.328 83.9085ZM233.504 93.2845C234.997 93.3058 236.213 93.4765 237.152 93.7965C238.091 94.1165 238.795 94.5111 239.264 94.9805C239.755 95.4285 240.053 95.9085 240.16 96.4205C240.267 96.9111 240.224 97.3485 240.032 97.7325C239.84 98.0951 239.531 98.3405 239.104 98.4685C238.699 98.5965 238.219 98.5325 237.664 98.2765C237.387 97.7005 237.003 97.1245 236.512 96.5485C236.043 95.9511 235.509 95.3965 234.912 94.8845C234.336 94.3511 233.781 93.9031 233.248 93.5405L233.504 93.2845ZM232.32 104.452H247.616V105.38H232.32V104.452ZM243.52 94.5325H251.776V95.4285H243.52V94.5325ZM232.32 109.444H247.616V110.372H232.32V109.444ZM245.952 99.7485H245.632L247.328 97.8605L250.944 100.58C250.859 100.708 250.709 100.836 250.496 100.964C250.304 101.092 250.037 101.188 249.696 101.252V111.396C249.696 111.482 249.515 111.599 249.152 111.748C248.811 111.898 248.395 112.026 247.904 112.132C247.435 112.26 246.997 112.324 246.592 112.324H245.952V99.7485ZM249.952 86.0525H249.632L251.328 84.2285L254.848 86.9165C254.763 87.0445 254.603 87.1725 254.368 87.3005C254.155 87.4285 253.877 87.5245 253.536 87.5885V96.6765C253.536 96.7405 253.365 96.8471 253.024 96.9965C252.683 97.1245 252.288 97.2525 251.84 97.3805C251.392 97.4871 250.965 97.5405 250.56 97.5405H249.952V86.0525ZM230.944 99.7485V98.1805L234.88 99.7485H248.128V100.644H234.624V111.268C234.624 111.396 234.464 111.556 234.144 111.748C233.845 111.94 233.461 112.111 232.992 112.26C232.523 112.41 232.021 112.484 231.488 112.484H230.944V99.7485ZM241.792 86.0525V84.5805L245.472 86.0525H251.68V86.9805H245.344V97.0605C245.344 97.1671 245.195 97.3165 244.896 97.5085C244.597 97.6791 244.213 97.8391 243.744 97.9885C243.296 98.1165 242.816 98.1805 242.304 98.1805H241.792V86.0525ZM225.28 90.8525H236.448L238.272 88.4845C238.272 88.4845 238.453 88.6338 238.816 88.9325C239.2 89.2311 239.648 89.5938 240.16 90.0205C240.672 90.4471 241.131 90.8525 241.536 91.2365C241.451 91.5778 241.163 91.7485 240.672 91.7485H225.536L225.28 90.8525ZM231.904 86.2765H235.52C235.456 87.8978 235.328 89.3911 235.136 90.7565C234.944 92.1218 234.539 93.3805 233.92 94.5325C233.301 95.6631 232.32 96.6978 230.976 97.6365C229.653 98.5538 227.829 99.3538 225.504 100.036L225.216 99.5885C226.901 98.7565 228.192 97.8711 229.088 96.9325C229.984 95.9725 230.624 94.9485 231.008 93.8605C231.413 92.7725 231.659 91.5991 231.744 90.3405C231.829 89.0605 231.883 87.7058 231.904 86.2765ZM229.024 82.4685L233.536 83.7805C233.472 83.9725 233.333 84.1325 233.12 84.2605C232.928 84.3885 232.661 84.4525 232.32 84.4525C231.659 85.8178 230.869 87.0231 229.952 88.0685C229.035 89.0925 228.032 89.9245 226.944 90.5645L226.528 90.2445C227.104 89.3058 227.616 88.1431 228.064 86.7565C228.512 85.3698 228.832 83.9405 229.024 82.4685ZM229.504 86.2765H235.968L237.76 83.9085C237.76 83.9085 237.952 84.0578 238.336 84.3565C238.72 84.6551 239.168 85.0178 239.68 85.4445C240.192 85.8711 240.651 86.2765 241.056 86.6605C240.992 87.0018 240.704 87.1725 240.192 87.1725H229.504V86.2765ZM283.968 96.9325C283.968 96.9325 284.139 97.0605 284.48 97.3165C284.821 97.5725 285.216 97.8818 285.664 98.2445C286.112 98.5858 286.507 98.9271 286.848 99.2685C286.827 99.4391 286.741 99.5671 286.592 99.6525C286.443 99.7378 286.261 99.7805 286.048 99.7805H258.592L258.336 98.8525H282.4L283.968 96.9325ZM269.696 89.8605C269.696 89.8605 269.867 89.9885 270.208 90.2445C270.549 90.5005 270.955 90.8205 271.424 91.2045C271.893 91.5671 272.309 91.9191 272.672 92.2605C272.608 92.6018 272.32 92.7725 271.808 92.7725H258.496L258.24 91.8445H268.064L269.696 89.8605ZM280.8 82.8845C280.779 83.0978 280.683 83.2791 280.512 83.4285C280.363 83.5565 280.096 83.6525 279.712 83.7165V94.0525C279.712 94.1165 279.563 94.2231 279.264 94.3725C278.987 94.5218 278.624 94.6498 278.176 94.7565C277.728 94.8418 277.28 94.8845 276.832 94.8845H276.192V82.4685L280.8 82.8845ZM282.304 86.7565C282.304 86.7565 282.453 86.8845 282.752 87.1405C283.072 87.3751 283.445 87.6738 283.872 88.0365C284.32 88.3778 284.715 88.7085 285.056 89.0285C285.035 89.1991 284.939 89.3271 284.768 89.4125C284.619 89.4978 284.437 89.5405 284.224 89.5405H273.376L273.12 88.6125H280.768L282.304 86.7565ZM283.168 89.8605C283.168 89.8605 283.339 89.9885 283.68 90.2445C284.021 90.5005 284.427 90.8205 284.896 91.2045C285.365 91.5671 285.792 91.9191 286.176 92.2605C286.091 92.6018 285.803 92.7725 285.312 92.7725H272.512L272.256 91.8445H281.536L283.168 89.8605ZM282.56 83.5885C282.56 83.5885 282.731 83.7165 283.072 83.9725C283.413 84.2285 283.819 84.5485 284.288 84.9325C284.757 85.2951 285.184 85.6471 285.568 85.9885C285.525 86.1591 285.429 86.2871 285.28 86.3725C285.131 86.4578 284.949 86.5005 284.736 86.5005H272.8L272.544 85.6045H280.96L282.56 83.5885ZM278.048 95.5885L279.712 93.7965L283.2 96.4205C283.115 96.5485 282.965 96.6658 282.752 96.7725C282.56 96.8791 282.315 96.9645 282.016 97.0285V103.3C282.016 103.386 281.845 103.503 281.504 103.652C281.163 103.802 280.757 103.951 280.288 104.1C279.819 104.228 279.381 104.292 278.976 104.292H278.368V95.5885H278.048ZM267.968 82.8845C267.947 83.0765 267.861 83.2471 267.712 83.3965C267.563 83.5458 267.296 83.6418 266.912 83.6845V94.2765C266.912 94.3618 266.763 94.4791 266.464 94.6285C266.187 94.7778 265.824 94.9058 265.376 95.0125C264.949 95.0978 264.512 95.1405 264.064 95.1405H263.424V82.4685L267.968 82.8845ZM269.152 86.9165C269.152 86.9165 269.301 87.0338 269.6 87.2685C269.92 87.5031 270.293 87.7911 270.72 88.1325C271.147 88.4738 271.52 88.8045 271.84 89.1245C271.797 89.4658 271.531 89.6365 271.04 89.6365H259.328L259.072 88.7085H267.712L269.152 86.9165ZM269.248 83.6525C269.248 83.6525 269.408 83.7805 269.728 84.0365C270.069 84.2925 270.464 84.6018 270.912 84.9645C271.36 85.3058 271.776 85.6471 272.16 85.9885C272.075 86.3298 271.787 86.5005 271.296 86.5005H258.784L258.528 85.6045H267.68L269.248 83.6525ZM280.992 102.212V103.14H261.28L260.992 102.212H280.992ZM281.056 95.5885V96.5165H261.536L261.248 95.5885H281.056ZM269.216 104.42C269.173 104.847 268.843 105.114 268.224 105.22V108.644C268.224 108.858 268.288 108.996 268.416 109.06C268.565 109.124 268.939 109.156 269.536 109.156H273.376C274.059 109.156 274.688 109.156 275.264 109.156C275.84 109.156 276.245 109.146 276.48 109.124C276.757 109.103 276.949 109.071 277.056 109.028C277.184 108.986 277.312 108.89 277.44 108.74C277.632 108.484 277.845 108.09 278.08 107.556C278.336 107.002 278.624 106.308 278.944 105.476H279.296L279.392 108.804C279.947 108.975 280.309 109.167 280.48 109.38C280.672 109.594 280.768 109.86 280.768 110.18C280.768 110.586 280.651 110.906 280.416 111.14C280.181 111.375 279.776 111.546 279.2 111.652C278.645 111.78 277.856 111.866 276.832 111.908C275.829 111.972 274.539 112.004 272.96 112.004H268.864C267.669 112.004 266.752 111.919 266.112 111.748C265.472 111.578 265.035 111.279 264.8 110.852C264.587 110.447 264.48 109.86 264.48 109.092V104.068L269.216 104.42ZM261.952 104.452C262.379 105.604 262.56 106.618 262.496 107.492C262.453 108.367 262.251 109.092 261.888 109.668C261.547 110.266 261.131 110.682 260.64 110.916C260.149 111.151 259.627 111.204 259.072 111.076C258.517 110.948 258.155 110.618 257.984 110.084C257.835 109.551 257.899 109.092 258.176 108.708C258.475 108.324 258.848 108.036 259.296 107.844C259.637 107.674 259.979 107.428 260.32 107.108C260.661 106.767 260.939 106.372 261.152 105.924C261.387 105.455 261.504 104.975 261.504 104.484L261.952 104.452ZM280.256 104.644C281.707 104.836 282.859 105.146 283.712 105.572C284.565 105.999 285.184 106.49 285.568 107.044C285.952 107.578 286.144 108.1 286.144 108.612C286.144 109.124 285.995 109.562 285.696 109.924C285.419 110.287 285.045 110.5 284.576 110.564C284.107 110.628 283.605 110.479 283.072 110.116C282.987 109.476 282.784 108.836 282.464 108.196C282.165 107.535 281.792 106.916 281.344 106.34C280.917 105.764 280.469 105.274 280 104.868L280.256 104.644ZM270.272 103.524C271.509 103.588 272.491 103.78 273.216 104.1C273.963 104.399 274.496 104.762 274.816 105.188C275.136 105.615 275.285 106.042 275.264 106.468C275.243 106.895 275.093 107.258 274.816 107.556C274.539 107.834 274.187 108.004 273.76 108.068C273.355 108.111 272.907 107.972 272.416 107.652C272.331 107.183 272.16 106.703 271.904 106.212C271.648 105.722 271.349 105.263 271.008 104.836C270.667 104.41 270.325 104.047 269.984 103.748L270.272 103.524Z" fill="white"/>
<path d="M908.224 29.0911H910.276V33.3571C910.276 33.4111 910.123 33.5101 909.817 33.6541C909.511 33.7981 909.097 33.8701 908.575 33.8701H908.224V29.0911ZM903.553 25.8511L906.172 26.7151C906.1 26.8591 905.893 26.9581 905.551 27.0121V28.6591C905.551 29.0911 905.506 29.5591 905.416 30.0631C905.326 30.5671 905.137 31.0801 904.849 31.6021C904.561 32.1061 904.129 32.5921 903.553 33.0601C902.977 33.5281 902.203 33.9421 901.231 34.3021L900.988 33.9241C901.762 33.3841 902.329 32.8171 902.689 32.2231C903.049 31.6291 903.283 31.0351 903.391 30.4411C903.499 29.8291 903.553 29.2441 903.553 28.6861V25.8511ZM904.336 29.0911H911.113L912.355 27.5251C912.355 27.5251 912.49 27.6331 912.76 27.8491C913.03 28.0471 913.345 28.2991 913.705 28.6051C914.083 28.8931 914.416 29.1721 914.704 29.4421C914.65 29.7301 914.407 29.8741 913.975 29.8741H904.336V29.0911ZM911.275 24.8521L913.327 26.9041C913.039 27.1381 912.571 27.1111 911.923 26.8231C911.275 26.9311 910.519 27.0301 909.655 27.1201C908.791 27.2101 907.891 27.2911 906.955 27.3631C906.037 27.4171 905.146 27.4531 904.282 27.4711L904.147 27.0121C904.957 26.8501 905.803 26.6431 906.685 26.3911C907.585 26.1391 908.44 25.8781 909.25 25.6081C910.078 25.3201 910.753 25.0681 911.275 24.8521ZM897.37 29.0911H899.368V33.3841C899.368 33.4561 899.215 33.5641 898.909 33.7081C898.621 33.8521 898.216 33.9241 897.694 33.9241H897.37V29.0911ZM892.618 25.9051L895.21 26.7691C895.156 26.9311 894.949 27.0391 894.589 27.0931V28.9561C894.589 29.4241 894.544 29.9371 894.454 30.4951C894.382 31.0351 894.202 31.5931 893.914 32.1691C893.644 32.7271 893.239 33.2671 892.699 33.7891C892.159 34.3111 891.421 34.7791 890.485 35.1931L890.215 34.8151C890.953 34.2031 891.484 33.5731 891.808 32.9251C892.15 32.2591 892.366 31.5931 892.456 30.9271C892.564 30.2431 892.618 29.5951 892.618 28.9831V25.9051ZM893.671 29.0911H899.773L900.934 27.6331C900.934 27.6331 901.06 27.7321 901.312 27.9301C901.564 28.1281 901.861 28.3711 902.203 28.6591C902.545 28.9291 902.86 29.1901 903.148 29.4421C903.076 29.7301 902.842 29.8741 902.446 29.8741H893.671V29.0911ZM900.286 24.8521L902.284 26.8771C901.996 27.1111 901.537 27.0841 900.907 26.7961C900.313 26.9041 899.611 27.0121 898.801 27.1201C897.991 27.2101 897.145 27.3001 896.263 27.3901C895.399 27.4621 894.562 27.5071 893.752 27.5251L893.644 27.1201C894.4 26.9401 895.192 26.7151 896.02 26.4451C896.866 26.1751 897.658 25.8961 898.396 25.6081C899.152 25.3201 899.782 25.0681 900.286 24.8521ZM896.02 37.7581H909.331V38.5411H896.02V37.7581ZM896.02 40.8091H909.331V41.5921H896.02V40.8091ZM896.02 43.8601H909.331V44.6161H896.02V43.8601ZM908.197 34.7881H907.954L909.061 33.6271L911.383 35.4091C911.311 35.4991 911.185 35.5981 911.005 35.7061C910.825 35.7961 910.618 35.8591 910.384 35.8951V45.1021C910.384 45.1741 910.276 45.2641 910.06 45.3721C909.862 45.4621 909.619 45.5521 909.331 45.6421C909.061 45.7141 908.8 45.7501 908.548 45.7501H908.197V34.7881ZM894.94 34.7881V33.8161L897.262 34.7881H909.493V35.5711H897.1V45.4531C897.1 45.5251 897.01 45.6241 896.83 45.7501C896.65 45.8581 896.425 45.9571 896.155 46.0471C895.885 46.1371 895.597 46.1821 895.291 46.1821H894.94V34.7881ZM899.557 45.3181L902.068 47.1811C901.96 47.3071 901.789 47.3791 901.555 47.3971C901.339 47.4151 901.051 47.3701 900.691 47.2621C899.899 47.6221 898.963 47.9641 897.883 48.2881C896.821 48.6121 895.678 48.9001 894.454 49.1521C893.248 49.4041 892.042 49.5931 890.836 49.7191L890.701 49.2871C891.799 48.9991 892.906 48.6301 894.022 48.1801C895.156 47.7301 896.209 47.2531 897.181 46.7491C898.153 46.2451 898.945 45.7681 899.557 45.3181ZM904.12 45.9121C906.01 45.9841 907.576 46.1371 908.818 46.3711C910.06 46.5871 911.032 46.8391 911.734 47.1271C912.436 47.4151 912.922 47.7121 913.192 48.0181C913.48 48.3241 913.597 48.6031 913.543 48.8551C913.489 49.1071 913.336 49.3141 913.084 49.4761C912.832 49.6381 912.526 49.7101 912.166 49.6921C911.824 49.6921 911.482 49.5841 911.14 49.3681C910.456 48.8461 909.511 48.3061 908.305 47.7481C907.117 47.2081 905.686 46.7401 904.012 46.3441L904.12 45.9121ZM919.159 28.1731V27.4441L921.589 28.4431H921.211V34.3561C921.211 35.4361 921.175 36.6151 921.103 37.8931C921.031 39.1531 920.869 40.4491 920.617 41.7811C920.383 43.0951 919.996 44.3821 919.456 45.6421C918.916 46.8841 918.178 48.0361 917.242 49.0981L916.864 48.8281C917.584 47.3881 918.097 45.8491 918.403 44.2111C918.727 42.5731 918.934 40.9171 919.024 39.2431C919.114 37.5691 919.159 35.9401 919.159 34.3561V28.4431V28.1731ZM939.976 26.9041C939.976 26.9041 940.093 27.0121 940.327 27.2281C940.561 27.4261 940.831 27.6781 941.137 27.9841C941.461 28.2721 941.749 28.5511 942.001 28.8211C941.947 29.1091 941.722 29.2531 941.326 29.2531H920.293V28.4431H938.842L939.976 26.9041ZM928.879 34.7611L929.905 33.6541L932.2 35.3551C932.128 35.4451 931.993 35.5441 931.795 35.6521C931.597 35.7421 931.381 35.8051 931.147 35.8411V39.7021C931.147 39.7561 931.048 39.8281 930.85 39.9181C930.652 40.0081 930.427 40.0981 930.175 40.1881C929.923 40.2601 929.689 40.2961 929.473 40.2961H929.149V34.7611H928.879ZM929.797 38.4601V39.2431H923.749V38.4601H929.797ZM924.829 40.2421C924.829 40.2961 924.739 40.3771 924.559 40.4851C924.397 40.5751 924.19 40.6651 923.938 40.7551C923.686 40.8271 923.425 40.8631 923.155 40.8631H922.858V34.7611V33.8701L924.937 34.7611H930.067V35.5441H924.829V40.2421ZM936.007 25.1221C935.989 25.2841 935.908 25.4371 935.764 25.5811C935.638 25.7071 935.395 25.7971 935.035 25.8511C935.017 27.7051 935.062 29.5861 935.17 31.4941C935.296 33.4021 935.521 35.2471 935.845 37.0291C936.187 38.8111 936.664 40.4671 937.276 41.9971C937.906 43.5091 938.707 44.8141 939.679 45.9121C939.859 46.1461 939.994 46.2631 940.084 46.2631C940.192 46.2451 940.309 46.1011 940.435 45.8311C940.597 45.5071 940.786 45.0571 941.002 44.4811C941.236 43.8871 941.434 43.3291 941.596 42.8071L941.947 42.8611L941.434 47.1541C941.794 47.8021 942.001 48.2881 942.055 48.6121C942.127 48.9541 942.082 49.1971 941.92 49.3411C941.614 49.5931 941.245 49.6651 940.813 49.5571C940.399 49.4671 939.967 49.2601 939.517 48.9361C939.085 48.6121 938.716 48.2521 938.41 47.8561C937.312 46.5241 936.403 45.0211 935.683 43.3471C934.981 41.6551 934.432 39.8191 934.036 37.8391C933.64 35.8411 933.361 33.7441 933.199 31.5481C933.037 29.3521 932.956 27.0931 932.956 24.7711L936.007 25.1221ZM929.824 30.1171C929.824 30.1171 929.95 30.2161 930.202 30.4141C930.454 30.6121 930.751 30.8551 931.093 31.1431C931.453 31.4311 931.777 31.7191 932.065 32.0071C931.993 32.2951 931.759 32.4391 931.363 32.4391H922.453L922.237 31.6291H928.609L929.824 30.1171ZM941.029 32.0341C940.957 32.1781 940.831 32.2951 940.651 32.3851C940.471 32.4751 940.228 32.5021 939.922 32.4661C939.22 34.1581 938.365 35.6251 937.357 36.8671C936.367 38.1091 935.26 39.1621 934.036 40.0261C932.812 40.8721 931.498 41.5651 930.094 42.1051L929.797 41.7541C931.003 41.0701 932.137 40.2061 933.199 39.1621C934.279 38.1001 935.233 36.8761 936.061 35.4901C936.907 34.1041 937.582 32.5561 938.086 30.8461L941.029 32.0341ZM936.304 24.9601C937.186 25.1221 937.852 25.3561 938.302 25.6621C938.752 25.9501 939.031 26.2471 939.139 26.5531C939.247 26.8591 939.238 27.1291 939.112 27.3631C939.004 27.5971 938.806 27.7501 938.518 27.8221C938.248 27.8761 937.969 27.7861 937.681 27.5521C937.573 27.1381 937.357 26.7061 937.033 26.2561C936.709 25.8061 936.376 25.4461 936.034 25.1761L936.304 24.9601ZM925.99 41.8351C925.936 42.1951 925.675 42.4021 925.207 42.4561V47.0461C925.207 47.2081 925.252 47.3161 925.342 47.3701C925.432 47.4241 925.648 47.4511 925.99 47.4511H927.88C928.294 47.4511 928.654 47.4511 928.96 47.4511C929.284 47.4511 929.5 47.4421 929.608 47.4241C929.824 47.4241 929.977 47.3251 930.067 47.1271C930.157 46.9471 930.265 46.5961 930.391 46.0741C930.535 45.5341 930.67 44.9401 930.796 44.2921H931.147L931.228 47.2081C931.498 47.2981 931.669 47.4061 931.741 47.5321C931.831 47.6581 931.876 47.8111 931.876 47.9911C931.876 48.2431 931.759 48.4501 931.525 48.6121C931.309 48.7921 930.913 48.9271 930.337 49.0171C929.761 49.1071 928.915 49.1521 927.799 49.1521H925.585C924.991 49.1521 924.532 49.0981 924.208 48.9901C923.902 48.9001 923.695 48.7291 923.587 48.4771C923.497 48.2251 923.452 47.9011 923.452 47.5051V41.5381L925.99 41.8351ZM921.967 42.6181C922.345 43.8781 922.471 44.9671 922.345 45.8851C922.237 46.8031 922.021 47.4691 921.697 47.8831C921.535 48.0631 921.337 48.1981 921.103 48.2881C920.869 48.3961 920.644 48.4321 920.428 48.3961C920.212 48.3601 920.032 48.2521 919.888 48.0721C919.744 47.8201 919.726 47.5501 919.834 47.2621C919.942 46.9741 920.122 46.7311 920.374 46.5331C920.59 46.2991 920.788 45.9751 920.968 45.5611C921.148 45.1291 921.283 44.6521 921.373 44.1301C921.481 43.6081 921.517 43.1041 921.481 42.6181H921.967ZM931.525 42.1861C932.497 42.7801 933.226 43.3831 933.712 43.9951C934.216 44.6071 934.531 45.1831 934.657 45.7231C934.783 46.2631 934.774 46.7131 934.63 47.0731C934.486 47.4151 934.261 47.6221 933.955 47.6941C933.667 47.7661 933.361 47.6491 933.037 47.3431C933.019 46.8031 932.911 46.2361 932.713 45.6421C932.533 45.0301 932.299 44.4361 932.011 43.8601C931.741 43.2841 931.462 42.7801 931.174 42.3481L931.525 42.1861ZM926.206 40.6741C927.196 41.1241 927.943 41.6101 928.447 42.1321C928.951 42.6361 929.275 43.1131 929.419 43.5631C929.563 44.0131 929.572 44.4001 929.446 44.7241C929.338 45.0301 929.14 45.2191 928.852 45.2911C928.582 45.3631 928.285 45.2641 927.961 44.9941C927.925 44.5441 927.799 44.0671 927.583 43.5631C927.367 43.0411 927.106 42.5461 926.8 42.0781C926.494 41.6101 926.188 41.2051 925.882 40.8631L926.206 40.6741ZM955.96 29.4151C956.212 29.7031 956.455 30.0271 956.689 30.3871C956.923 30.7291 957.112 31.0981 957.256 31.4941C957.418 31.8901 957.499 32.2861 957.499 32.6821C957.499 33.3481 957.427 34.0681 957.283 34.8421C957.139 35.5981 956.923 36.3721 956.635 37.1641C956.419 37.8301 956.122 38.5501 955.744 39.3241C955.366 40.0801 954.934 40.8271 954.448 41.5651C953.98 42.3031 953.467 42.9781 952.909 43.5901C952.369 44.2021 951.811 44.6971 951.235 45.0751C950.659 45.4351 950.074 45.6151 949.48 45.6151C949.012 45.6151 948.544 45.4441 948.076 45.1021C947.626 44.7601 947.221 44.2921 946.861 43.6981C946.501 43.1041 946.204 42.4201 945.97 41.6461C945.754 40.8721 945.646 40.0621 945.646 39.2161C945.646 38.3341 945.781 37.4341 946.051 36.5161C946.339 35.5981 946.762 34.7161 947.32 33.8701C947.878 33.0061 948.562 32.2231 949.372 31.5211C950.47 30.5491 951.694 29.8291 953.044 29.3611C954.412 28.8751 955.843 28.6321 957.337 28.6321C958.777 28.6321 960.109 28.8661 961.333 29.3341C962.557 29.7841 963.619 30.4321 964.519 31.2781C965.419 32.1061 966.121 33.0961 966.625 34.2481C967.147 35.4001 967.408 36.6781 967.408 38.0821C967.408 39.2341 967.201 40.3681 966.787 41.4841C966.373 42.5821 965.698 43.5811 964.762 44.4811C963.844 45.3811 962.62 46.1281 961.09 46.7221C959.578 47.2981 957.706 47.6491 955.474 47.7751L955.366 47.1811C957.598 46.7491 959.425 46.0921 960.847 45.2101C962.269 44.3101 963.322 43.2121 964.006 41.9161C964.708 40.6201 965.059 39.1621 965.059 37.5421C965.059 35.9221 964.708 34.5181 964.006 33.3301C963.322 32.1421 962.377 31.2241 961.171 30.5761C959.983 29.9281 958.642 29.6041 957.148 29.6041C955.906 29.6041 954.655 29.8651 953.395 30.3871C952.135 30.8911 951.037 31.6201 950.101 32.5741C949.273 33.4201 948.616 34.3561 948.13 35.3821C947.662 36.4081 947.428 37.5061 947.428 38.6761C947.428 39.4861 947.536 40.2331 947.752 40.9171C947.968 41.5831 948.247 42.1141 948.589 42.5101C948.931 42.9061 949.282 43.1041 949.642 43.1041C950.074 43.1041 950.533 42.8881 951.019 42.4561C951.523 42.0061 952.018 41.4391 952.504 40.7551C952.99 40.0711 953.431 39.3691 953.827 38.6491C954.241 37.9111 954.583 37.2451 954.853 36.6511C955.141 35.9671 955.384 35.2291 955.582 34.4371C955.78 33.6451 955.879 32.9251 955.879 32.2771C955.879 31.7551 955.789 31.2871 955.609 30.8731C955.429 30.4411 955.204 30.0181 954.934 29.6041L955.96 29.4151ZM984.904 32.8441L985.174 32.4391C985.66 32.5471 986.101 32.6911 986.497 32.8711C986.911 33.0331 987.253 33.2581 987.523 33.5461C987.685 33.7261 987.775 33.9151 987.793 34.1131C987.829 34.2931 987.802 34.5091 987.712 34.7611C987.424 35.5711 986.974 36.4891 986.362 37.5151C985.75 38.5411 985.039 39.5671 984.229 40.5931C983.419 41.6011 982.564 42.5371 981.664 43.4011C980.566 44.4631 979.459 45.2731 978.343 45.8311C977.227 46.3891 976.201 46.6681 975.265 46.6681C974.635 46.6681 974.14 46.4881 973.78 46.1281C973.438 45.7681 973.267 45.2191 973.267 44.4811C973.267 43.5271 973.483 42.6091 973.915 41.7271C974.347 40.8451 974.923 40.0261 975.643 39.2701C976.363 38.4961 977.155 37.8031 978.019 37.1911C978.901 36.5791 979.774 36.0751 980.638 35.6791C981.43 35.3011 982.33 35.0041 983.338 34.7881C984.364 34.5541 985.426 34.4371 986.524 34.4371C988.162 34.4371 989.557 34.7611 990.709 35.4091C991.861 36.0391 992.743 36.8581 993.355 37.8661C993.985 38.8741 994.3 39.9451 994.3 41.0791C994.3 42.3931 993.985 43.5271 993.355 44.4811C992.725 45.4351 991.843 46.2271 990.709 46.8571C989.575 47.4871 988.234 47.9551 986.686 48.2611C985.156 48.5851 983.491 48.7651 981.691 48.8011L981.583 48.2341C983.833 47.9101 985.741 47.3971 987.307 46.6951C988.873 45.9931 990.061 45.1291 990.871 44.1031C991.699 43.0771 992.113 41.8891 992.113 40.5391C992.113 39.5671 991.879 38.6851 991.411 37.8931C990.943 37.1011 990.277 36.4711 989.413 36.0031C988.549 35.5171 987.514 35.2741 986.308 35.2741C985.318 35.2741 984.364 35.4001 983.446 35.6521C982.546 35.9041 981.601 36.2911 980.611 36.8131C979.477 37.4431 978.487 38.1721 977.641 39.0001C976.813 39.8281 976.165 40.6651 975.697 41.5111C975.229 42.3391 974.995 43.0771 974.995 43.7251C974.995 44.0671 975.058 44.3191 975.184 44.4811C975.328 44.6251 975.553 44.6971 975.859 44.6971C976.345 44.6971 976.885 44.5711 977.479 44.3191C978.091 44.0671 978.703 43.7341 979.315 43.3201C979.927 42.9061 980.485 42.4561 980.989 41.9701C981.493 41.5201 981.997 41.0071 982.501 40.4311C983.005 39.8371 983.491 39.2251 983.959 38.5951C984.427 37.9471 984.841 37.3171 985.201 36.7051C985.561 36.0931 985.84 35.5351 986.038 35.0311C986.236 34.5091 986.245 34.1041 986.065 33.8161C985.885 33.5101 985.498 33.1861 984.904 32.8441ZM978.937 27.0121L978.964 26.4991C979.216 26.4091 979.477 26.3281 979.747 26.2561C980.035 26.1841 980.278 26.1481 980.476 26.1481C980.998 26.1481 981.493 26.2291 981.961 26.3911C982.429 26.5531 982.807 26.7511 983.095 26.9851C983.401 27.2191 983.554 27.4351 983.554 27.6331C983.554 27.8131 983.5 27.9751 983.392 28.1191C983.302 28.2631 983.194 28.4251 983.068 28.6051C982.942 28.7671 982.843 29.0191 982.771 29.3611C982.627 29.8651 982.474 30.4771 982.312 31.1971C982.15 31.8991 981.997 32.6371 981.853 33.4111C981.727 34.1851 981.619 34.9501 981.529 35.7061C981.439 36.4621 981.394 37.1551 981.394 37.7851C981.394 38.7751 981.475 39.6211 981.637 40.3231C981.817 41.0071 982.015 41.6011 982.231 42.1051C982.465 42.5911 982.663 43.0231 982.825 43.4011C983.005 43.7791 983.095 44.1481 983.095 44.5081C983.095 44.8141 983.005 45.0391 982.825 45.1831C982.645 45.3091 982.42 45.3721 982.15 45.3721C981.772 45.3721 981.439 45.1561 981.151 44.7241C980.863 44.2741 980.62 43.6981 980.422 42.9961C980.224 42.2941 980.08 41.5291 979.99 40.7011C979.9 39.8551 979.855 39.0361 979.855 38.2441C979.855 37.4341 979.909 36.5251 980.017 35.5171C980.143 34.5091 980.278 33.5101 980.422 32.5201C980.584 31.5301 980.719 30.6391 980.827 29.8471C980.953 29.0551 981.016 28.4791 981.016 28.1191C981.016 27.8671 980.98 27.6961 980.908 27.6061C980.854 27.5161 980.719 27.4351 980.503 27.3631C980.287 27.2731 980.044 27.2011 979.774 27.1471C979.504 27.0931 979.225 27.0481 978.937 27.0121ZM974.131 29.8471L974.536 29.4691C975.022 29.8291 975.454 30.1081 975.832 30.3061C976.21 30.4861 976.588 30.6211 976.966 30.7111C977.362 30.7831 977.794 30.8191 978.262 30.8191C978.82 30.8191 979.378 30.7921 979.936 30.7381C980.512 30.6841 981.07 30.6121 981.61 30.5221C982.978 30.2881 984.13 30.0091 985.066 29.6851C986.002 29.3431 986.74 29.0461 987.28 28.7941C987.82 28.5241 988.171 28.3891 988.333 28.3891C988.873 28.3891 989.278 28.4701 989.548 28.6321C989.836 28.7941 989.98 29.0191 989.98 29.3071C989.98 29.5051 989.917 29.6761 989.791 29.8201C989.683 29.9641 989.494 30.0901 989.224 30.1981C988.9 30.3421 988.459 30.5041 987.901 30.6841C987.361 30.8461 986.74 31.0261 986.038 31.2241C985.336 31.4041 984.589 31.5751 983.797 31.7371C983.023 31.8991 982.249 32.0341 981.475 32.1421C980.935 32.2321 980.359 32.3041 979.747 32.3581C979.135 32.4121 978.55 32.4391 977.992 32.4391C977.362 32.4391 976.822 32.3491 976.372 32.1691C975.922 31.9891 975.526 31.7101 975.184 31.3321C974.842 30.9541 974.491 30.4591 974.131 29.8471ZM1004.88 27.4981C1005.06 27.8941 1005.28 28.2631 1005.53 28.6051C1005.78 28.9471 1006.08 29.1181 1006.42 29.1181C1006.68 29.1181 1007.04 29.0731 1007.53 28.9831C1008.02 28.8931 1008.54 28.7851 1009.1 28.6591C1009.67 28.5331 1010.21 28.3981 1010.72 28.2541C1011.24 28.1101 1011.66 27.9931 1011.99 27.9031C1012.24 27.8311 1012.42 27.7591 1012.53 27.6871C1012.65 27.5971 1012.76 27.5251 1012.85 27.4711C1012.96 27.3991 1013.07 27.3631 1013.2 27.3631C1013.43 27.3631 1013.7 27.4351 1014.01 27.5791C1014.32 27.7051 1014.6 27.8851 1014.87 28.1191C1015.14 28.3351 1015.37 28.5691 1015.55 28.8211C1015.73 29.0731 1015.82 29.3071 1015.82 29.5231C1015.82 29.7031 1015.75 29.8561 1015.6 29.9821C1015.46 30.1081 1015.26 30.2341 1015.01 30.3601C1014.76 30.4861 1014.48 30.6841 1014.17 30.9541C1013.79 31.2421 1013.32 31.6381 1012.74 32.1421C1012.18 32.6461 1011.59 33.1861 1010.96 33.7621C1010.35 34.3381 1009.77 34.8871 1009.23 35.4091C1008.69 35.9311 1008.28 36.3451 1007.99 36.6511C1007.88 36.7771 1007.85 36.8761 1007.88 36.9481C1007.94 37.0201 1008.03 37.0291 1008.15 36.9751C1008.71 36.7771 1009.38 36.5791 1010.15 36.3811C1010.94 36.1651 1011.81 36.0571 1012.77 36.0571C1013.94 36.0571 1015.02 36.3001 1016.01 36.7861C1017.02 37.2721 1017.81 37.9741 1018.38 38.8921C1018.98 39.8101 1019.27 40.9081 1019.25 42.1861C1019.23 43.3201 1018.89 44.3641 1018.22 45.3181C1017.56 46.2721 1016.6 47.0281 1015.36 47.5861C1014.14 48.1621 1012.64 48.4501 1010.88 48.4501C1009.85 48.4501 1008.94 48.3151 1008.15 48.0451C1007.38 47.7751 1006.77 47.3971 1006.32 46.9111C1005.88 46.4071 1005.67 45.8131 1005.67 45.1291C1005.67 44.3551 1005.97 43.7161 1006.59 43.2121C1007.2 42.7081 1007.96 42.4561 1008.88 42.4561C1009.55 42.4561 1010.2 42.6091 1010.85 42.9151C1011.52 43.2211 1012.08 43.6891 1012.55 44.3191C1013.02 44.9311 1013.31 45.7321 1013.42 46.7221L1011.55 47.0461C1011.43 45.9121 1011.07 45.0481 1010.47 44.4541C1009.9 43.8421 1009.2 43.5361 1008.39 43.5361C1007.91 43.5361 1007.5 43.6621 1007.18 43.9141C1006.86 44.1661 1006.69 44.5081 1006.69 44.9401C1006.69 45.4261 1006.99 45.8401 1007.58 46.1821C1008.2 46.5241 1009.11 46.6951 1010.34 46.6951C1011.89 46.6951 1013.16 46.4611 1014.17 45.9931C1015.2 45.5251 1015.95 44.9041 1016.44 44.1301C1016.93 43.3381 1017.18 42.4921 1017.2 41.5921C1017.21 40.8001 1017.03 40.0621 1016.66 39.3781C1016.3 38.6761 1015.75 38.1091 1015.01 37.6771C1014.27 37.2451 1013.35 37.0291 1012.25 37.0291C1010.98 37.0291 1009.82 37.2811 1008.77 37.7851C1007.75 38.2711 1006.79 38.9281 1005.91 39.7561C1005.05 40.5661 1004.24 41.4661 1003.48 42.4561C1003.25 42.7441 1003.05 42.9511 1002.89 43.0771C1002.72 43.1851 1002.53 43.2301 1002.29 43.2121C1002.08 43.2121 1001.88 43.0951 1001.7 42.8611C1001.52 42.6271 1001.44 42.3211 1001.46 41.9431C1001.47 41.6551 1001.56 41.3941 1001.73 41.1601C1001.89 40.9081 1002.14 40.6021 1002.48 40.2421C1003.24 39.4681 1004.03 38.6671 1004.86 37.8391C1005.69 36.9931 1006.5 36.1741 1007.31 35.3821C1008.14 34.5721 1008.91 33.7981 1009.61 33.0601C1010.31 32.3221 1010.92 31.6651 1011.45 31.0891C1011.97 30.5131 1012.35 30.0361 1012.58 29.6581C1012.74 29.4421 1012.79 29.2981 1012.71 29.2261C1012.64 29.1361 1012.52 29.1091 1012.34 29.1451C1012.03 29.1991 1011.62 29.3161 1011.09 29.4961C1010.59 29.6761 1010.07 29.8741 1009.53 30.0901C1009.01 30.3061 1008.56 30.5041 1008.18 30.6841C1007.93 30.7921 1007.69 30.9271 1007.48 31.0891C1007.26 31.2511 1007.03 31.3321 1006.77 31.3321C1006.38 31.3321 1006.01 31.2061 1005.67 30.9541C1005.33 30.7021 1005.04 30.4051 1004.8 30.0631C1004.57 29.7211 1004.43 29.4151 1004.37 29.1451C1004.32 28.8931 1004.3 28.6411 1004.32 28.3891C1004.34 28.1191 1004.37 27.8401 1004.43 27.5521L1004.88 27.4981ZM1032.32 31.0621H1045.57L1047 29.2261C1047 29.2261 1047.09 29.2981 1047.27 29.4421C1047.45 29.5861 1047.68 29.7661 1047.95 29.9821C1048.22 30.1981 1048.5 30.4321 1048.79 30.6841C1049.09 30.9361 1049.38 31.1791 1049.65 31.4131C1049.58 31.7011 1049.34 31.8451 1048.92 31.8451H1032.51L1032.32 31.0621ZM1033.07 38.7301H1045.22L1046.57 37.0021C1046.57 37.0021 1046.65 37.0741 1046.82 37.2181C1047 37.3441 1047.21 37.5151 1047.46 37.7311C1047.73 37.9291 1048.01 38.1541 1048.3 38.4061C1048.59 38.6401 1048.85 38.8651 1049.08 39.0811C1049.01 39.3691 1048.78 39.5131 1048.38 39.5131H1033.29L1033.07 38.7301ZM1031.67 47.7751H1046.03L1047.54 45.8581C1047.54 45.8581 1047.63 45.9301 1047.81 46.0741C1048.01 46.2181 1048.25 46.4071 1048.52 46.6411C1048.8 46.8751 1049.1 47.1271 1049.41 47.3971C1049.73 47.6491 1050.03 47.8921 1050.3 48.1261C1050.23 48.4141 1049.98 48.5581 1049.57 48.5581H1031.88L1031.67 47.7751ZM1037.12 25.0681C1038.36 25.3201 1039.36 25.6441 1040.12 26.0401C1040.89 26.4361 1041.48 26.8591 1041.87 27.3091C1042.27 27.7411 1042.52 28.1731 1042.63 28.6051C1042.74 29.0191 1042.72 29.3701 1042.58 29.6581C1042.45 29.9461 1042.23 30.1351 1041.93 30.2251C1041.62 30.3151 1041.27 30.2521 1040.88 30.0361C1040.68 29.4961 1040.35 28.9381 1039.9 28.3621C1039.45 27.7681 1038.96 27.2101 1038.42 26.6881C1037.9 26.1481 1037.38 25.6891 1036.88 25.3111L1037.12 25.0681ZM1039.31 31.2241H1041.6V48.2341H1039.31V31.2241ZM1028.48 33.3031L1028.91 32.7361L1031.48 33.7081C1031.43 33.8161 1031.34 33.9151 1031.21 34.0051C1031.08 34.0771 1030.9 34.1311 1030.67 34.1671V49.0711C1030.65 49.1251 1030.55 49.2061 1030.37 49.3141C1030.19 49.4221 1029.97 49.5211 1029.7 49.6111C1029.45 49.7011 1029.17 49.7461 1028.86 49.7461H1028.48V33.3031ZM1030.89 24.8521L1034.13 25.8511C1034.05 26.0131 1033.94 26.1481 1033.77 26.2561C1033.61 26.3641 1033.38 26.4091 1033.07 26.3911C1032.44 28.1191 1031.71 29.7481 1030.89 31.2781C1030.06 32.8081 1029.15 34.2211 1028.16 35.5171C1027.19 36.7951 1026.16 37.9201 1025.08 38.8921L1024.7 38.6491C1025.51 37.5331 1026.3 36.2371 1027.08 34.7611C1027.85 33.2851 1028.56 31.7011 1029.21 30.0091C1029.88 28.3171 1030.44 26.5981 1030.89 24.8521ZM1055.29 26.2021V25.3651L1057.86 26.4721H1057.48V32.8171C1057.48 33.8431 1057.45 34.9321 1057.4 36.0841C1057.35 37.2361 1057.23 38.4151 1057.05 39.6211C1056.87 40.8271 1056.6 42.0331 1056.24 43.2391C1055.88 44.4271 1055.38 45.5881 1054.75 46.7221C1054.12 47.8381 1053.34 48.8821 1052.4 49.8541L1052.03 49.5841C1053 47.9101 1053.71 46.1371 1054.16 44.2651C1054.63 42.3751 1054.93 40.4581 1055.08 38.5141C1055.22 36.5521 1055.29 34.6531 1055.29 32.8171V26.4721V26.2021ZM1071.79 26.4721L1072.92 25.2301L1075.38 27.1201C1075.31 27.2281 1075.17 27.3361 1074.95 27.4441C1074.75 27.5341 1074.52 27.6061 1074.25 27.6601V33.0871C1074.25 33.1411 1074.14 33.2221 1073.92 33.3301C1073.73 33.4201 1073.48 33.5101 1073.19 33.6001C1072.92 33.6721 1072.66 33.7081 1072.41 33.7081H1072.06V26.4721H1071.79ZM1073.22 31.4131V32.1961H1056.37V31.4131H1073.22ZM1073.14 26.4721V27.2551H1056.35V26.4721H1073.14ZM1074.22 34.4371C1074.22 34.4371 1074.31 34.5091 1074.49 34.6531C1074.67 34.7971 1074.9 34.9861 1075.17 35.2201C1075.44 35.4361 1075.71 35.6701 1076 35.9221C1076.31 36.1741 1076.59 36.4171 1076.84 36.6511C1076.77 36.9391 1076.52 37.0831 1076.11 37.0831H1057.43L1057.21 36.3001H1072.82L1074.22 34.4371ZM1071.28 40.7281L1072.41 39.4861L1074.84 41.3491C1074.77 41.4571 1074.63 41.5651 1074.41 41.6731C1074.21 41.7631 1073.98 41.8351 1073.71 41.8891V48.8011C1073.71 48.8551 1073.6 48.9361 1073.38 49.0441C1073.19 49.1521 1072.95 49.2511 1072.68 49.3411C1072.41 49.4311 1072.15 49.4761 1071.9 49.4761H1071.55V40.7281H1071.28ZM1061.18 48.9631C1061.18 49.0351 1061.09 49.1251 1060.91 49.2331C1060.75 49.3411 1060.53 49.4401 1060.26 49.5301C1059.99 49.6201 1059.7 49.6651 1059.4 49.6651H1059.1V40.7281V39.7561L1061.34 40.7281H1072.76V41.5111H1061.18V48.9631ZM1072.74 47.1811V47.9641H1060.07V47.1811H1072.74ZM1068.5 32.9791C1068.48 33.1591 1068.41 33.3121 1068.28 33.4381C1068.15 33.5461 1067.93 33.6181 1067.61 33.6541V41.2141H1065.47V32.6821L1068.5 32.9791ZM1082.37 26.8501V26.5801V25.8241L1084.91 26.8501H1084.53V35.0851C1084.53 36.3091 1084.48 37.5781 1084.37 38.8921C1084.28 40.1881 1084.07 41.4751 1083.72 42.7531C1083.4 44.0311 1082.89 45.2641 1082.19 46.4521C1081.5 47.6221 1080.55 48.6931 1079.32 49.6651L1078.95 49.3951C1079.97 48.0451 1080.73 46.5961 1081.21 45.0481C1081.7 43.5001 1082.01 41.8891 1082.16 40.2151C1082.3 38.5231 1082.37 36.8221 1082.37 35.1121V26.8501ZM1083.56 33.1411H1100.01V33.9511H1083.56V33.1411ZM1083.56 26.8501H1100.25V27.6061H1083.56V26.8501ZM1083.4 39.6211H1100.01V40.4041H1083.4V39.6211ZM1099.17 26.8501H1098.87L1100.01 25.4731L1102.6 27.4711C1102.51 27.5971 1102.35 27.7231 1102.14 27.8491C1101.92 27.9571 1101.66 28.0381 1101.36 28.0921V46.6951C1101.36 47.2351 1101.28 47.7031 1101.14 48.0991C1101 48.5131 1100.69 48.8371 1100.22 49.0711C1099.77 49.3231 1099.07 49.5031 1098.12 49.6111C1098.08 49.2691 1098.02 48.9631 1097.93 48.6931C1097.84 48.4231 1097.7 48.2071 1097.52 48.0451C1097.31 47.8651 1097.02 47.7121 1096.66 47.5861C1096.3 47.4601 1095.79 47.3521 1095.15 47.2621V46.8301C1095.15 46.8301 1095.29 46.8481 1095.58 46.8841C1095.87 46.9021 1096.21 46.9291 1096.6 46.9651C1097.02 46.9831 1097.4 47.0101 1097.76 47.0461C1098.12 47.0641 1098.38 47.0731 1098.52 47.0731C1098.77 47.0731 1098.94 47.0281 1099.03 46.9381C1099.12 46.8301 1099.17 46.6681 1099.17 46.4521V26.8501ZM1090.5 26.9311H1092.66V48.8011C1092.66 48.8911 1092.5 49.0261 1092.18 49.2061C1091.87 49.3861 1091.44 49.4761 1090.88 49.4761H1090.5V26.9311ZM1125.41 27.7681L1126.49 26.5801L1128.84 28.3891C1128.75 28.4791 1128.61 28.5781 1128.41 28.6861C1128.21 28.7761 1127.98 28.8481 1127.71 28.9021V35.9221C1127.71 35.9761 1127.61 36.0571 1127.41 36.1651C1127.21 36.2551 1126.99 36.3451 1126.74 36.4351C1126.48 36.5071 1126.23 36.5431 1125.98 36.5431H1125.68V27.7681H1125.41ZM1123.14 25.2031C1123.11 25.3831 1123.02 25.5361 1122.87 25.6621C1122.75 25.7881 1122.51 25.8781 1122.17 25.9321V45.6421C1122.17 45.7321 1122.08 45.8311 1121.9 45.9391C1121.74 46.0471 1121.53 46.1371 1121.28 46.2091C1121.03 46.2811 1120.77 46.3171 1120.5 46.3171H1120.07V24.8521L1123.14 25.2031ZM1126.82 36.8131C1126.82 36.8131 1126.89 36.8761 1127.03 37.0021C1127.19 37.1281 1127.39 37.2901 1127.63 37.4881C1127.88 37.6861 1128.14 37.9021 1128.41 38.1361C1128.68 38.3701 1128.92 38.5951 1129.14 38.8111C1129.07 39.0991 1128.83 39.2431 1128.44 39.2431H1115.15L1114.94 38.4331H1125.55L1126.82 36.8131ZM1128 40.3231C1128 40.3231 1128.09 40.3951 1128.25 40.5391C1128.43 40.6651 1128.65 40.8361 1128.92 41.0521C1129.19 41.2681 1129.47 41.4931 1129.76 41.7271C1130.07 41.9611 1130.34 42.1951 1130.57 42.4291C1130.53 42.5731 1130.45 42.6811 1130.33 42.7531C1130.22 42.8251 1130.07 42.8611 1129.87 42.8611H1113.75L1113.53 42.0781H1126.6L1128 40.3231ZM1129.3 29.6041C1129.3 29.6041 1129.42 29.7211 1129.65 29.9551C1129.9 30.1891 1130.19 30.4591 1130.52 30.7651C1130.84 31.0711 1131.13 31.3681 1131.38 31.6561C1131.31 31.9441 1131.07 32.0881 1130.68 32.0881H1113.34L1113.13 31.3051H1128.14L1129.3 29.6041ZM1126.57 34.8691V35.6791H1115.5L1115.26 34.8691H1126.57ZM1126.6 27.7681V28.5511H1115.42L1115.18 27.7681H1126.6ZM1113.18 28.2541C1112.98 28.7221 1112.72 29.2891 1112.4 29.9551C1112.07 30.6211 1111.72 31.3321 1111.35 32.0881C1110.99 32.8261 1110.63 33.5461 1110.27 34.2481C1109.92 34.9321 1109.61 35.5261 1109.32 36.0301H1109.51L1108.7 36.7861L1106.76 35.3551C1106.92 35.2291 1107.14 35.1031 1107.43 34.9771C1107.72 34.8511 1107.98 34.7701 1108.21 34.7341L1107.38 35.5171C1107.65 35.0311 1107.96 34.4371 1108.32 33.7351C1108.7 33.0331 1109.08 32.2951 1109.46 31.5211C1109.83 30.7291 1110.18 29.9731 1110.51 29.2531C1110.83 28.5331 1111.08 27.9211 1111.26 27.4171L1113.18 28.2541ZM1110.97 27.4171L1112.07 26.3101L1114.32 28.3081C1114.17 28.4521 1113.95 28.5601 1113.64 28.6321C1113.35 28.6861 1113.03 28.7131 1112.67 28.7131C1112.31 28.7131 1111.95 28.6951 1111.59 28.6591L1111.29 27.4171H1110.97ZM1107.27 37.8661C1107.95 39.8461 1108.78 41.4391 1109.75 42.6451C1110.72 43.8331 1111.89 44.7421 1113.26 45.3721C1114.63 45.9841 1116.22 46.3981 1118.04 46.6141C1119.88 46.8301 1121.99 46.9381 1124.39 46.9381C1124.76 46.9381 1125.23 46.9381 1125.79 46.9381C1126.37 46.9381 1126.97 46.9381 1127.6 46.9381C1128.23 46.9381 1128.84 46.9381 1129.44 46.9381C1130.03 46.9201 1130.55 46.9111 1131 46.9111V47.2621C1130.53 47.3341 1130.18 47.5321 1129.95 47.8561C1129.73 48.1981 1129.61 48.5851 1129.57 49.0171C1129.16 49.0171 1128.61 49.0171 1127.92 49.0171C1127.26 49.0171 1126.57 49.0171 1125.87 49.0171C1125.19 49.0171 1124.63 49.0171 1124.2 49.0171C1121.73 49.0171 1119.56 48.8731 1117.69 48.5851C1115.84 48.3151 1114.23 47.7931 1112.86 47.0191C1111.51 46.2451 1110.35 45.1471 1109.37 43.7251C1108.4 42.2851 1107.57 40.3951 1106.89 38.0551L1107.27 37.8661ZM1111.94 35.2741L1113.1 34.0591L1115.21 35.9221C1115.06 36.1381 1114.73 36.2641 1114.21 36.3001C1114.01 37.6321 1113.73 38.9461 1113.37 40.2421C1113.03 41.5201 1112.55 42.7441 1111.94 43.9141C1111.33 45.0661 1110.54 46.1371 1109.56 47.1271C1108.61 48.0991 1107.41 48.9631 1105.97 49.7191L1105.73 49.3141C1107.26 48.2161 1108.47 46.9291 1109.35 45.4531C1110.23 43.9771 1110.89 42.3751 1111.32 40.6471C1111.75 38.9011 1112.04 37.1101 1112.18 35.2741H1111.94ZM1113.29 35.2741V36.0571H1108.05L1108.46 35.2741H1113.29ZM1112.18 27.4171V28.2271H1106.22L1105.97 27.4171H1112.18ZM1145.18 31.1161H1154.71L1155.92 29.3611C1155.92 29.3611 1156.05 29.4781 1156.3 29.7121C1156.57 29.9461 1156.88 30.2251 1157.22 30.5491C1157.56 30.8731 1157.87 31.1791 1158.14 31.4671C1158.06 31.7551 1157.83 31.8991 1157.43 31.8991H1145.39L1145.18 31.1161ZM1151.68 24.8521L1154.82 25.1761C1154.8 25.3741 1154.71 25.5361 1154.55 25.6621C1154.4 25.7881 1154.16 25.8691 1153.82 25.9051V46.8571C1153.82 47.3791 1153.74 47.8381 1153.6 48.2341C1153.46 48.6301 1153.14 48.9451 1152.66 49.1791C1152.19 49.4311 1151.46 49.6021 1150.47 49.6921C1150.41 49.3681 1150.34 49.0891 1150.25 48.8551C1150.16 48.6211 1150 48.4321 1149.77 48.2881C1149.53 48.1081 1149.21 47.9551 1148.79 47.8291C1148.4 47.7211 1147.84 47.6221 1147.12 47.5321V47.1271C1147.12 47.1271 1147.28 47.1361 1147.61 47.1541C1147.93 47.1721 1148.33 47.1991 1148.79 47.2351C1149.26 47.2711 1149.7 47.2981 1150.12 47.3161C1150.53 47.3341 1150.82 47.3431 1150.98 47.3431C1151.25 47.3431 1151.43 47.2981 1151.52 47.2081C1151.63 47.1001 1151.68 46.9381 1151.68 46.7221V24.8521ZM1151.14 31.1161H1153.6V31.5481C1152.59 34.3201 1151.13 36.8851 1149.2 39.2431C1147.27 41.6011 1144.98 43.6081 1142.31 45.2641L1141.99 44.9131C1143.41 43.7431 1144.71 42.4021 1145.88 40.8901C1147.07 39.3781 1148.1 37.7851 1148.98 36.1111C1149.88 34.4371 1150.6 32.7721 1151.14 31.1161ZM1133.3 31.1161H1141.45L1142.72 29.4151C1142.72 29.4151 1142.85 29.5321 1143.12 29.7661C1143.39 29.9821 1143.71 30.2521 1144.07 30.5761C1144.45 30.8821 1144.77 31.1881 1145.04 31.4941C1144.97 31.7821 1144.74 31.9261 1144.34 31.9261H1133.51L1133.3 31.1161ZM1137.78 31.1161H1140.05V31.5481C1139.49 33.9961 1138.63 36.2731 1137.48 38.3791C1136.33 40.4851 1134.85 42.3661 1133.05 44.0221L1132.7 43.6711C1133.57 42.5371 1134.32 41.2861 1134.97 39.9181C1135.64 38.5501 1136.2 37.1191 1136.67 35.6251C1137.14 34.1311 1137.51 32.6281 1137.78 31.1161ZM1137.99 24.8521L1141.07 25.1761C1141.05 25.3741 1140.97 25.5361 1140.83 25.6621C1140.7 25.7881 1140.47 25.8781 1140.13 25.9321V49.0441C1140.13 49.1341 1140.04 49.2331 1139.86 49.3411C1139.68 49.4491 1139.46 49.5481 1139.21 49.6381C1138.96 49.7281 1138.7 49.7731 1138.43 49.7731H1137.99V24.8521ZM1140.13 34.5451C1141.15 34.9231 1141.97 35.3371 1142.58 35.7871C1143.2 36.2371 1143.64 36.6871 1143.91 37.1371C1144.18 37.5691 1144.31 37.9741 1144.31 38.3521C1144.33 38.7301 1144.25 39.0361 1144.07 39.2701C1143.91 39.5041 1143.67 39.6301 1143.37 39.6481C1143.06 39.6661 1142.75 39.5491 1142.42 39.2971C1142.33 38.7931 1142.14 38.2711 1141.86 37.7311C1141.57 37.1731 1141.24 36.6331 1140.88 36.1111C1140.52 35.5891 1140.17 35.1301 1139.83 34.7341L1140.13 34.5451ZM1163.21 29.1721C1163.55 29.5141 1163.87 29.8111 1164.16 30.0631C1164.46 30.2971 1164.81 30.4771 1165.21 30.6031C1165.62 30.7291 1166.16 30.7921 1166.8 30.7921C1167.42 30.7741 1168.07 30.7111 1168.77 30.6031C1169.49 30.4771 1170.21 30.3241 1170.91 30.1441C1171.61 29.9641 1172.27 29.7751 1172.88 29.5771C1173.49 29.3611 1174 29.1631 1174.42 28.9831C1174.96 28.7491 1175.32 28.5691 1175.5 28.4431C1175.7 28.3171 1175.89 28.2541 1176.09 28.2541C1176.43 28.2541 1176.74 28.3171 1177.01 28.4431C1177.3 28.5691 1177.44 28.7941 1177.44 29.1181C1177.44 29.2981 1177.37 29.4691 1177.23 29.6311C1177.1 29.7751 1176.9 29.9191 1176.63 30.0631C1176.25 30.2431 1175.69 30.4681 1174.93 30.7381C1174.17 31.0081 1173.31 31.2691 1172.34 31.5211C1171.38 31.7731 1170.39 31.9891 1169.34 32.1691C1168.32 32.3311 1167.32 32.4121 1166.34 32.4121C1165.62 32.4121 1165.06 32.3131 1164.64 32.1151C1164.23 31.9171 1163.89 31.6021 1163.62 31.1701C1163.35 30.7381 1163.04 30.1711 1162.7 29.4691L1163.21 29.1721ZM1174.2 43.6441C1174.2 44.0041 1174.11 44.3011 1173.93 44.5351C1173.77 44.7511 1173.53 44.8591 1173.2 44.8591C1172.91 44.8591 1172.65 44.7691 1172.42 44.5891C1172.2 44.4091 1172.1 44.1121 1172.1 43.6981C1172.1 43.4101 1172.11 43.0141 1172.15 42.5101C1172.19 42.0061 1172.21 41.4571 1172.23 40.8631C1172.27 40.2511 1172.27 39.6571 1172.23 39.0811C1172.21 37.8931 1172.07 37.0561 1171.8 36.5701C1171.53 36.0661 1171.04 35.8141 1170.34 35.8141C1169.85 35.8141 1169.34 35.9671 1168.8 36.2731C1168.28 36.5791 1167.78 36.9481 1167.29 37.3801C1166.82 37.8121 1166.4 38.2351 1166.02 38.6491C1165.71 38.9911 1165.42 39.3601 1165.13 39.7561C1164.84 40.1341 1164.56 40.4581 1164.29 40.7281C1164.04 40.9801 1163.79 41.1151 1163.54 41.1331C1163.23 41.1331 1162.98 41.0161 1162.78 40.7821C1162.6 40.5301 1162.51 40.2151 1162.51 39.8371C1162.49 39.4411 1162.69 39.0541 1163.1 38.6761C1163.54 38.2981 1164.05 37.8031 1164.64 37.1911C1165.35 36.4891 1166 35.7331 1166.61 34.9231C1167.23 34.0951 1167.78 33.2671 1168.26 32.4391C1168.75 31.6111 1169.14 30.8371 1169.45 30.1171C1169.77 29.3971 1169.99 28.7851 1170.1 28.2811C1170.17 28.0471 1170.18 27.8671 1170.12 27.7411C1170.07 27.5971 1169.92 27.4621 1169.67 27.3361C1169.5 27.2461 1169.29 27.1651 1169.02 27.0931C1168.75 27.0031 1168.44 26.9221 1168.1 26.8501L1168.13 26.3911C1168.41 26.3011 1168.7 26.2201 1168.99 26.1481C1169.3 26.0581 1169.56 26.0221 1169.77 26.0401C1170.01 26.0401 1170.28 26.0671 1170.58 26.1211C1170.91 26.1571 1171.22 26.2291 1171.53 26.3371C1171.83 26.4451 1172.09 26.5711 1172.28 26.7151C1172.48 26.8591 1172.58 27.0211 1172.58 27.2011C1172.58 27.3811 1172.53 27.5521 1172.42 27.7141C1172.33 27.8581 1172.22 28.0741 1172.1 28.3621C1171.93 28.6681 1171.74 29.0461 1171.53 29.4961C1171.31 29.9461 1171.09 30.3781 1170.85 30.7921C1170.53 31.4041 1170.13 32.1061 1169.67 32.8981C1169.2 33.6721 1168.56 34.5901 1167.75 35.6521C1167.69 35.7421 1167.69 35.8141 1167.72 35.8681C1167.76 35.9041 1167.82 35.8951 1167.91 35.8411C1168.36 35.5891 1168.83 35.3641 1169.31 35.1661C1169.82 34.9681 1170.34 34.8691 1170.88 34.8691C1171.78 34.8691 1172.49 35.1661 1173.01 35.7601C1173.54 36.3541 1173.85 37.2001 1173.96 38.2981C1174.05 38.8381 1174.1 39.4501 1174.12 40.1341C1174.16 40.8181 1174.17 41.4841 1174.17 42.1321C1174.19 42.7621 1174.2 43.2661 1174.2 43.6441ZM1179.22 32.5471C1179.78 32.6191 1180.22 32.7091 1180.55 32.8171C1180.87 32.9071 1181.17 33.0421 1181.44 33.2221C1181.69 33.3841 1181.94 33.6001 1182.19 33.8701C1182.45 34.1221 1182.65 34.4011 1182.81 34.7071C1182.98 34.9951 1183.06 35.2741 1183.06 35.5441C1183.06 35.7421 1183 35.8951 1182.9 36.0031C1182.81 36.0931 1182.64 36.1741 1182.41 36.2461C1182.19 36.3001 1181.9 36.3901 1181.52 36.5161C1180.91 36.6961 1180.22 36.9211 1179.47 37.1911C1178.71 37.4431 1177.93 37.7311 1177.12 38.0551C1176.33 38.3611 1175.54 38.6851 1174.77 39.0271C1174.01 39.3691 1173.33 39.7111 1172.72 40.0531C1171.8 40.5571 1170.97 41.0881 1170.23 41.6461C1169.51 42.1861 1168.94 42.7351 1168.5 43.2931C1168.07 43.8511 1167.86 44.4091 1167.86 44.9671C1167.86 45.4171 1168.02 45.7951 1168.34 46.1011C1168.68 46.4071 1169.16 46.6411 1169.77 46.8031C1170.39 46.9651 1171.12 47.0461 1171.99 47.0461C1173.32 47.0461 1174.41 46.9741 1175.25 46.8301C1176.1 46.6861 1176.79 46.5421 1177.33 46.3981C1177.89 46.2541 1178.37 46.1821 1178.76 46.1821C1179.12 46.1821 1179.43 46.2181 1179.68 46.2901C1179.95 46.3621 1180.16 46.4791 1180.3 46.6411C1180.45 46.7851 1180.52 46.9741 1180.52 47.2081C1180.52 47.4421 1180.45 47.6581 1180.3 47.8561C1180.18 48.0541 1179.88 48.2161 1179.41 48.3421C1179.11 48.4321 1178.61 48.5311 1177.93 48.6391C1177.26 48.7651 1176.52 48.8641 1175.71 48.9361C1174.92 49.0261 1174.14 49.0711 1173.36 49.0711C1171.67 49.0711 1170.33 48.9001 1169.34 48.5581C1168.37 48.2161 1167.67 47.7571 1167.24 47.1811C1166.82 46.6051 1166.61 45.9571 1166.61 45.2371C1166.61 44.6431 1166.79 44.0581 1167.13 43.4821C1167.47 42.8881 1167.93 42.3121 1168.5 41.7541C1169.08 41.1781 1169.75 40.6201 1170.5 40.0801C1171.26 39.5401 1172.04 39.0181 1172.85 38.5141C1173.39 38.1901 1173.99 37.8661 1174.63 37.5421C1175.3 37.2001 1175.97 36.8761 1176.63 36.5701C1177.32 36.2461 1177.95 35.9491 1178.55 35.6791C1179.14 35.3911 1179.66 35.1301 1180.11 34.8961C1180.35 34.7701 1180.47 34.6351 1180.49 34.4911C1180.53 34.3291 1180.45 34.1491 1180.25 33.9511C1180.12 33.7711 1179.93 33.6001 1179.68 33.4381C1179.45 33.2761 1179.2 33.1321 1178.93 33.0061L1179.22 32.5471ZM1191.94 43.1581C1192.55 44.3281 1193.29 45.1921 1194.15 45.7501C1195.04 46.3081 1196.1 46.6771 1197.34 46.8571C1198.6 47.0191 1200.11 47.1001 1201.88 47.1001C1202.47 47.1001 1203.24 47.1001 1204.17 47.1001C1205.11 47.1001 1206.1 47.1001 1207.14 47.1001C1208.19 47.1001 1209.18 47.1001 1210.11 47.1001C1211.07 47.0821 1211.85 47.0641 1212.46 47.0461V47.3971C1212.06 47.4691 1211.76 47.6581 1211.54 47.9641C1211.34 48.2881 1211.24 48.6661 1211.22 49.0981C1210.7 49.0981 1210.02 49.0981 1209.19 49.0981C1208.38 49.0981 1207.51 49.0981 1206.57 49.0981C1205.66 49.0981 1204.77 49.0981 1203.93 49.0981C1203.08 49.0981 1202.38 49.0981 1201.82 49.0981C1199.99 49.0981 1198.42 48.9451 1197.12 48.6391C1195.83 48.3331 1194.74 47.7751 1193.86 46.9651C1192.98 46.1371 1192.21 44.9311 1191.56 43.3471L1191.94 43.1581ZM1193.43 32.6281C1193.23 32.9881 1192.97 33.4201 1192.64 33.9241C1192.34 34.4281 1192 34.9591 1191.64 35.5171C1191.3 36.0751 1190.96 36.6151 1190.62 37.1371C1190.28 37.6411 1189.97 38.0821 1189.7 38.4601H1189.94L1189.11 39.1621L1187.4 37.7311C1187.57 37.6051 1187.79 37.4881 1188.08 37.3801C1188.39 37.2721 1188.66 37.2091 1188.89 37.1911L1188 37.8931C1188.27 37.5331 1188.57 37.0921 1188.92 36.5701C1189.26 36.0481 1189.61 35.4991 1189.97 34.9231C1190.33 34.3291 1190.66 33.7621 1190.97 33.2221C1191.29 32.6641 1191.55 32.1961 1191.75 31.8181L1193.43 32.6281ZM1191.56 31.7911L1192.59 30.7651L1194.67 32.6011C1194.47 32.7811 1194.13 32.9071 1193.64 32.9791C1193.16 33.0331 1192.68 33.0331 1192.21 32.9791L1191.91 31.7911H1191.56ZM1191.99 37.7581L1193.16 36.5971L1195.18 38.4061C1195.02 38.6041 1194.67 38.7211 1194.13 38.7571C1193.8 40.0891 1193.34 41.4301 1192.72 42.7801C1192.11 44.1121 1191.34 45.3811 1190.4 46.5871C1189.48 47.7931 1188.36 48.8641 1187.03 49.8001L1186.73 49.4761C1187.74 48.4861 1188.61 47.3431 1189.35 46.0471C1190.1 44.7331 1190.73 43.3651 1191.21 41.9431C1191.7 40.5211 1192.05 39.1261 1192.26 37.7581H1191.99ZM1192.48 31.7911V32.5741H1187.49L1187.24 31.7911H1192.48ZM1193.16 37.7581V38.5411H1188.84L1189.13 37.7581H1193.16ZM1188.81 24.8251C1189.8 25.1311 1190.58 25.4911 1191.16 25.9051C1191.75 26.3011 1192.17 26.7241 1192.43 27.1741C1192.7 27.6061 1192.83 28.0111 1192.83 28.3891C1192.85 28.7491 1192.77 29.0551 1192.59 29.3071C1192.41 29.5591 1192.17 29.7031 1191.89 29.7391C1191.6 29.7571 1191.28 29.6401 1190.94 29.3881C1190.87 28.9021 1190.71 28.3891 1190.46 27.8491C1190.2 27.3091 1189.91 26.7961 1189.56 26.3101C1189.22 25.8061 1188.87 25.3741 1188.51 25.0141L1188.81 24.8251ZM1195.56 25.5271L1197.75 26.4451H1197.39V28.0651C1197.39 28.0651 1197.24 28.0651 1196.94 28.0651C1196.65 28.0651 1196.19 28.0651 1195.56 28.0651V26.4451V25.5271ZM1195.37 33.2491C1195.8 33.2131 1196.39 33.1501 1197.12 33.0601C1197.86 32.9521 1198.7 32.8261 1199.63 32.6821C1200.57 32.5381 1201.53 32.3941 1202.5 32.2501L1202.58 32.6551C1202.13 32.8171 1201.55 33.0241 1200.85 33.2761C1200.15 33.5281 1199.37 33.7981 1198.53 34.0861C1197.68 34.3741 1196.82 34.6621 1195.94 34.9501L1195.37 33.2491ZM1196.99 26.7961L1197.39 27.0661V33.4921L1196.04 33.9781L1196.67 33.3841C1196.76 33.9241 1196.69 34.3381 1196.48 34.6261C1196.26 34.9141 1196.04 35.1121 1195.83 35.2201L1195.02 33.4111C1195.25 33.2671 1195.4 33.1411 1195.45 33.0331C1195.52 32.9071 1195.56 32.7361 1195.56 32.5201V26.7961H1196.99ZM1204.01 41.8351C1205.43 42.0871 1206.59 42.3841 1207.49 42.7261C1208.41 43.0501 1209.11 43.3921 1209.6 43.7521C1210.1 44.0941 1210.44 44.4271 1210.62 44.7511C1210.8 45.0751 1210.86 45.3631 1210.79 45.6151C1210.73 45.8671 1210.6 46.0651 1210.38 46.2091C1210.18 46.3351 1209.95 46.3891 1209.68 46.3711C1209.41 46.3351 1209.15 46.2001 1208.9 45.9661C1208.46 45.3721 1207.82 44.7511 1206.95 44.1031C1206.11 43.4371 1205.06 42.8251 1203.82 42.2671L1204.01 41.8351ZM1200.23 26.4451L1201.15 25.4731L1203.15 27.0121C1203.07 27.0841 1202.96 27.1651 1202.79 27.2551C1202.63 27.3451 1202.44 27.4081 1202.23 27.4441V30.7111C1202.23 30.7651 1202.14 30.8461 1201.96 30.9541C1201.8 31.0441 1201.6 31.1251 1201.36 31.1971C1201.15 31.2691 1200.93 31.3051 1200.72 31.3051H1200.45V26.4451H1200.23ZM1201.36 29.5771V30.3871H1196.48V29.5771H1201.36ZM1208.28 26.4451L1209.19 25.4731L1211.22 27.0121C1211.06 27.2281 1210.75 27.3721 1210.3 27.4441V30.5221C1210.3 30.5761 1210.21 30.6481 1210.03 30.7381C1209.87 30.8281 1209.67 30.9091 1209.44 30.9811C1209.2 31.0531 1208.99 31.0891 1208.79 31.0891H1208.49V26.4451H1208.28ZM1209.27 26.4451V27.2551H1204.47L1204.23 26.4451H1209.27ZM1203.58 25.5811V25.5271L1205.76 26.4451H1205.44V32.0071C1205.44 32.1691 1205.48 32.2771 1205.55 32.3311C1205.62 32.3851 1205.82 32.4121 1206.14 32.4121H1207.76C1208.09 32.4121 1208.38 32.4121 1208.65 32.4121C1208.94 32.4121 1209.15 32.4121 1209.27 32.4121C1209.36 32.4121 1209.45 32.4121 1209.52 32.4121C1209.61 32.3941 1209.69 32.3851 1209.76 32.3851C1209.83 32.3671 1209.91 32.3491 1210 32.3311C1210.11 32.3131 1210.2 32.2951 1210.27 32.2771H1210.52H1210.62C1210.91 32.3851 1211.12 32.4841 1211.25 32.5741C1211.37 32.6461 1211.43 32.7721 1211.43 32.9521C1211.43 33.1861 1211.32 33.3751 1211.08 33.5191C1210.87 33.6631 1210.48 33.7711 1209.92 33.8431C1209.38 33.8971 1208.6 33.9241 1207.57 33.9241L1205.66 33.8971C1205.06 33.8971 1204.61 33.8431 1204.31 33.7351C1204.02 33.6271 1203.82 33.4561 1203.71 33.2221C1203.62 32.9881 1203.58 32.6821 1203.58 32.3041V26.4451V25.5811ZM1202.42 42.7531C1202.34 42.8971 1202.21 42.9961 1202.01 43.0501C1201.81 43.0861 1201.53 43.0861 1201.17 43.0501C1200.74 43.4281 1200.19 43.8241 1199.53 44.2381C1198.86 44.6341 1198.14 45.0121 1197.37 45.3721C1196.59 45.7141 1195.8 45.9931 1194.99 46.2091L1194.75 45.8581C1195.41 45.4981 1196.06 45.0661 1196.69 44.5621C1197.34 44.0401 1197.92 43.5091 1198.42 42.9691C1198.94 42.4291 1199.35 41.9341 1199.63 41.4841L1202.42 42.7531ZM1207.41 34.4371C1207.39 34.5811 1207.33 34.7071 1207.22 34.8151C1207.13 34.9051 1206.96 34.9771 1206.71 35.0311V40.9441H1204.74V34.1671L1207.41 34.4371ZM1201.74 34.3831C1201.72 34.5271 1201.66 34.6531 1201.55 34.7611C1201.44 34.8511 1201.27 34.9231 1201.04 34.9771V40.9441H1199.04V34.1131L1201.74 34.3831ZM1209.6 39.0001C1209.6 39.0001 1209.72 39.1081 1209.98 39.3241C1210.23 39.5221 1210.53 39.7741 1210.87 40.0801C1211.23 40.3861 1211.54 40.6741 1211.81 40.9441C1211.74 41.2321 1211.51 41.3761 1211.11 41.3761H1194.8L1194.59 40.5931H1208.38L1209.6 39.0001ZM1209.17 35.4901C1209.17 35.4901 1209.28 35.5891 1209.52 35.7871C1209.75 35.9671 1210.03 36.2011 1210.35 36.4891C1210.68 36.7591 1210.97 37.0291 1211.22 37.2991C1211.16 37.5871 1210.93 37.7311 1210.52 37.7311H1195.91L1195.69 36.9481H1208.06L1209.17 35.4901ZM1209.22 29.5771V30.3871H1204.58V29.5771H1209.22ZM1201.5 26.4451V27.2551H1196.53L1196.29 26.4451H1201.5ZM1234.2 32.3041C1233.93 31.9441 1233.59 31.5391 1233.2 31.0891C1232.8 30.6211 1232.29 30.1621 1231.66 29.7121L1232.01 29.2531C1232.82 29.5231 1233.48 29.8201 1234.01 30.1441C1234.55 30.4501 1235 30.7831 1235.36 31.1431C1235.68 31.4311 1235.91 31.7101 1236.06 31.9801C1236.2 32.2321 1236.27 32.5021 1236.27 32.7901C1236.27 33.0061 1236.19 33.1861 1236.03 33.3301C1235.89 33.4741 1235.7 33.5461 1235.46 33.5461C1235.25 33.5461 1235.05 33.4291 1234.87 33.1951C1234.69 32.9431 1234.47 32.6461 1234.2 32.3041ZM1236.76 30.0631C1236.49 29.7211 1236.17 29.3611 1235.79 28.9831C1235.41 28.5871 1234.89 28.1461 1234.22 27.6601L1234.52 27.2551C1235.31 27.4711 1235.98 27.7231 1236.52 28.0111C1237.06 28.2811 1237.51 28.5601 1237.87 28.8481C1238.53 29.4061 1238.87 29.9641 1238.87 30.5221C1238.87 30.7741 1238.79 30.9721 1238.65 31.1161C1238.51 31.2421 1238.32 31.3051 1238.08 31.3051C1237.87 31.3051 1237.67 31.1881 1237.49 30.9541C1237.31 30.7021 1237.07 30.4051 1236.76 30.0631ZM1223.31 27.9841L1223.58 27.3631C1224.29 27.4891 1224.97 27.6421 1225.64 27.8221C1226.3 27.9841 1226.92 28.2361 1227.5 28.5781C1228.33 29.0101 1229.02 29.5861 1229.58 30.3061C1230.15 31.0081 1230.44 31.7641 1230.44 32.5741C1230.44 32.8261 1230.36 33.0151 1230.2 33.1411C1230.06 33.2491 1229.86 33.3211 1229.61 33.3571C1229.35 33.3931 1229.07 33.4201 1228.77 33.4381C1228.48 33.4381 1228.2 33.4651 1227.93 33.5191C1227.63 33.5551 1227.27 33.6361 1226.88 33.7621C1226.5 33.8881 1226.12 34.0501 1225.74 34.2481C1225.37 34.4461 1225.05 34.6711 1224.8 34.9231C1224.57 35.1751 1224.45 35.4451 1224.45 35.7331C1224.45 36.0031 1224.57 36.3091 1224.8 36.6511C1225.05 36.9931 1225.36 37.3441 1225.72 37.7041C1226.1 38.0641 1226.48 38.4241 1226.88 38.7841C1227.29 39.1441 1227.65 39.4861 1227.96 39.8101C1228.77 40.6381 1229.34 41.4571 1229.66 42.2671C1230 43.0591 1230.17 43.8691 1230.17 44.6971C1230.17 45.6691 1229.87 46.3981 1229.25 46.8841C1228.64 47.3521 1227.81 47.5861 1226.77 47.5861C1226.39 47.5861 1226.02 47.5591 1225.66 47.5051C1225.32 47.4511 1224.96 47.3701 1224.58 47.2621C1224.21 47.1541 1223.79 47.0191 1223.34 46.8571C1222.75 46.6231 1222.1 46.3711 1221.4 46.1011C1220.7 45.8131 1219.96 45.4711 1219.18 45.0751L1219.62 44.4541C1220.19 44.6881 1220.81 44.9221 1221.48 45.1561C1222.16 45.3721 1222.85 45.5521 1223.53 45.6961C1224.23 45.8401 1224.9 45.9121 1225.53 45.9121C1226.43 45.9121 1227.07 45.7501 1227.45 45.4261C1227.84 45.1021 1228.04 44.6611 1228.04 44.1031C1228.04 43.4911 1227.91 42.8881 1227.66 42.2941C1227.41 41.7001 1227 41.0431 1226.42 40.3231C1225.99 39.7651 1225.54 39.2341 1225.07 38.7301C1224.6 38.2081 1224.2 37.6951 1223.85 37.1911C1223.53 36.6691 1223.37 36.1741 1223.37 35.7061C1223.37 35.3281 1223.51 34.9681 1223.8 34.6261C1224.11 34.2661 1224.47 33.9331 1224.88 33.6271C1225.31 33.3211 1225.74 33.0421 1226.18 32.7901C1226.61 32.5201 1226.96 32.2861 1227.23 32.0881C1227.48 31.9081 1227.62 31.7461 1227.63 31.6021C1227.67 31.4401 1227.63 31.2421 1227.5 31.0081C1227.21 30.4141 1226.69 29.8561 1225.93 29.3341C1225.18 28.8121 1224.3 28.3621 1223.31 27.9841ZM1214.81 43.5091C1214.94 44.0491 1215.13 44.5081 1215.4 44.8861C1215.69 45.2641 1215.98 45.4531 1216.27 45.4531C1216.41 45.4531 1216.57 45.4171 1216.75 45.3451C1216.93 45.2731 1217.19 45.1381 1217.51 44.9401C1217.85 44.7421 1218.3 44.4631 1218.86 44.1031C1219.78 43.4731 1220.69 42.8701 1221.59 42.2941C1222.49 41.7001 1223.39 41.1691 1224.29 40.7011C1225.19 40.2331 1226.1 39.8641 1227.04 39.5941C1227.99 39.3241 1228.98 39.1891 1229.98 39.1891C1231.14 39.1891 1232.18 39.3511 1233.12 39.6751C1234.05 39.9991 1234.87 40.4221 1235.57 40.9441C1236.27 41.4481 1236.81 41.9881 1237.19 42.5641C1237.55 43.0861 1237.81 43.5541 1237.98 43.9681C1238.14 44.3821 1238.22 44.7961 1238.22 45.2101C1238.22 45.5341 1238.13 45.8311 1237.95 46.1011C1237.77 46.3531 1237.48 46.4791 1237.08 46.4791C1236.76 46.4791 1236.5 46.3261 1236.3 46.0201C1236.1 45.6961 1235.91 45.2911 1235.73 44.8051C1235.5 44.2111 1235.2 43.6441 1234.84 43.1041C1234.5 42.5461 1234.08 42.0421 1233.57 41.5921C1233.07 41.1241 1232.49 40.7641 1231.82 40.5121C1231.15 40.2421 1230.41 40.1071 1229.58 40.1071C1228.68 40.1071 1227.8 40.2601 1226.93 40.5661C1226.09 40.8541 1225.23 41.2681 1224.37 41.8081C1223.5 42.3481 1222.63 42.9871 1221.75 43.7251C1220.87 44.4451 1219.96 45.2281 1219.02 46.0741C1218.72 46.3621 1218.45 46.6591 1218.21 46.9651C1217.98 47.2711 1217.75 47.5231 1217.54 47.7211C1217.32 47.9371 1217.06 48.0451 1216.75 48.0451C1216.45 48.0451 1216.08 47.8921 1215.65 47.5861C1215.23 47.2801 1214.86 46.8931 1214.54 46.4251C1214.22 45.9571 1214.05 45.4891 1214.05 45.0211C1214.05 44.7691 1214.07 44.5171 1214.11 44.2651C1214.16 43.9951 1214.22 43.7521 1214.27 43.5361L1214.81 43.5091Z" fill="white"/>
<line y1="67.0474" x2="1240" y2="67.0474" stroke="white"/>
</svg>
