<svg width="310" height="51" viewBox="0 0 310 51" fill="none" xmlns="http://www.w3.org/2000/svg">
<path d="M14.936 3.36L18.212 3.675C18.184 3.829 18.114 3.962 18.002 4.074C17.904 4.172 17.715 4.242 17.435 4.284V21.987C17.435 22.071 17.33 22.183 17.12 22.323C16.91 22.477 16.651 22.603 16.343 22.701C16.035 22.813 15.727 22.869 15.419 22.869H14.936V3.36ZM2.651 12.159H18.569L19.934 10.353C19.934 10.353 20.018 10.423 20.186 10.563C20.354 10.689 20.564 10.857 20.816 11.067C21.082 11.277 21.355 11.501 21.635 11.739C21.929 11.977 22.188 12.201 22.412 12.411C22.356 12.635 22.16 12.747 21.824 12.747H2.819L2.651 12.159ZM11.849 3.276L14.327 5.355C14.103 5.579 13.669 5.593 13.025 5.397C12.241 5.649 11.317 5.901 10.253 6.153C9.203 6.405 8.09 6.629 6.914 6.825C5.752 7.007 4.604 7.147 3.47 7.245L3.386 6.951C4.142 6.741 4.919 6.489 5.717 6.195C6.529 5.901 7.313 5.586 8.069 5.25C8.839 4.914 9.546 4.578 10.19 4.242C10.834 3.892 11.387 3.57 11.849 3.276ZM7.922 5.733H10.4V11.361C10.4 12.159 10.358 12.985 10.274 13.839C10.19 14.693 10.022 15.54 9.77 16.38C9.518 17.22 9.133 18.032 8.615 18.816C8.111 19.6 7.439 20.335 6.599 21.021C5.759 21.721 4.709 22.337 3.449 22.869L3.281 22.659C4.303 21.861 5.122 21.014 5.738 20.118C6.354 19.222 6.816 18.298 7.124 17.346C7.446 16.38 7.656 15.4 7.754 14.406C7.866 13.398 7.922 12.383 7.922 11.361V5.733ZM35.264 4.893C35.25 6.615 35.201 8.309 35.117 9.975C35.047 11.627 34.865 13.223 34.571 14.763C34.277 16.289 33.794 17.738 33.122 19.11C32.45 20.468 31.498 21.721 30.266 22.869L29.972 22.575C30.77 21.287 31.379 19.943 31.799 18.543C32.219 17.129 32.506 15.673 32.66 14.175C32.814 12.677 32.898 11.151 32.912 9.597C32.94 8.043 32.954 6.475 32.954 4.893H35.264ZM35.621 10.794C35.873 12.124 36.251 13.314 36.755 14.364C37.259 15.4 37.854 16.317 38.54 17.115C39.24 17.899 40.017 18.585 40.871 19.173C41.725 19.761 42.635 20.265 43.601 20.685L43.559 20.916C43.055 20.972 42.607 21.168 42.215 21.504C41.837 21.84 41.536 22.281 41.312 22.827C40.458 22.225 39.702 21.553 39.044 20.811C38.386 20.069 37.812 19.229 37.322 18.291C36.832 17.339 36.419 16.261 36.083 15.057C35.747 13.839 35.488 12.46 35.306 10.92L35.621 10.794ZM38.12 4.788L39.065 3.675L41.27 5.376C41.144 5.544 40.899 5.649 40.535 5.691L39.821 11.004H37.553L38.33 4.788H38.12ZM39.758 10.668L41.039 9.408L43.181 11.319C43.111 11.431 43.013 11.508 42.887 11.55C42.761 11.592 42.579 11.627 42.341 11.655C42.005 12.901 41.571 14.091 41.039 15.225C40.521 16.359 39.856 17.409 39.044 18.375C38.232 19.327 37.245 20.188 36.083 20.958C34.921 21.728 33.549 22.372 31.967 22.89L31.799 22.596C33.451 21.77 34.83 20.748 35.936 19.53C37.056 18.312 37.945 16.954 38.603 15.456C39.261 13.944 39.737 12.348 40.031 10.668H39.758ZM41.165 10.668V11.256H33.815L33.941 10.668H41.165ZM39.254 4.788V5.376H31.316L31.127 4.788H39.254ZM32.282 8.82C32.212 8.946 32.072 9.03 31.862 9.072C31.652 9.114 31.379 9.051 31.043 8.883L31.694 8.778C31.372 9.212 30.952 9.702 30.434 10.248C29.916 10.794 29.349 11.347 28.733 11.907C28.117 12.467 27.48 12.999 26.822 13.503C26.164 14.007 25.534 14.441 24.932 14.805L24.89 14.553H25.94C25.884 15.211 25.744 15.722 25.52 16.086C25.31 16.436 25.072 16.66 24.806 16.758L23.924 14.238C23.924 14.238 24.015 14.21 24.197 14.154C24.393 14.098 24.547 14.035 24.659 13.965C25.107 13.643 25.576 13.202 26.066 12.642C26.57 12.082 27.06 11.473 27.536 10.815C28.026 10.143 28.467 9.478 28.859 8.82C29.251 8.162 29.545 7.588 29.741 7.098L32.282 8.82ZM30.098 4.62C30.042 4.746 29.909 4.844 29.699 4.914C29.503 4.97 29.23 4.928 28.88 4.788L29.531 4.662C29.209 5.18 28.789 5.754 28.271 6.384C27.753 7 27.207 7.602 26.633 8.19C26.073 8.778 25.527 9.268 24.995 9.66L24.974 9.408H26.108C26.052 10.038 25.926 10.535 25.73 10.899C25.548 11.263 25.331 11.501 25.079 11.613L24.05 9.093C24.05 9.093 24.127 9.072 24.281 9.03C24.449 8.974 24.582 8.918 24.68 8.862C24.918 8.596 25.17 8.232 25.436 7.77C25.702 7.308 25.954 6.804 26.192 6.258C26.43 5.698 26.64 5.152 26.822 4.62C27.018 4.074 27.158 3.605 27.242 3.213L30.098 4.62ZM25.73 16.884C26.164 18.074 26.332 19.096 26.234 19.95C26.136 20.804 25.898 21.441 25.52 21.861C25.366 22.043 25.156 22.169 24.89 22.239C24.638 22.309 24.386 22.302 24.134 22.218C23.896 22.134 23.714 21.98 23.588 21.756C23.434 21.434 23.42 21.126 23.546 20.832C23.672 20.538 23.875 20.286 24.155 20.076C24.351 19.894 24.554 19.635 24.764 19.299C24.974 18.963 25.142 18.585 25.268 18.165C25.394 17.731 25.45 17.304 25.436 16.884H25.73ZM29.153 16.254C29.979 16.534 30.588 16.863 30.98 17.241C31.372 17.605 31.596 17.969 31.652 18.333C31.708 18.697 31.652 19.005 31.484 19.257C31.316 19.509 31.085 19.656 30.791 19.698C30.497 19.74 30.189 19.621 29.867 19.341C29.867 18.851 29.769 18.333 29.573 17.787C29.391 17.227 29.174 16.758 28.922 16.38L29.153 16.254ZM27.179 16.611C27.921 17.171 28.439 17.731 28.733 18.291C29.041 18.851 29.181 19.369 29.153 19.845C29.139 20.307 29.02 20.678 28.796 20.958C28.586 21.238 28.32 21.385 27.998 21.399C27.69 21.413 27.389 21.238 27.095 20.874C27.221 20.188 27.256 19.467 27.2 18.711C27.144 17.941 27.046 17.269 26.906 16.695L27.179 16.611ZM29.3 11.907C30.182 12.327 30.833 12.775 31.253 13.251C31.673 13.713 31.918 14.161 31.988 14.595C32.058 15.029 32.009 15.393 31.841 15.687C31.673 15.967 31.435 16.128 31.127 16.17C30.819 16.212 30.504 16.086 30.182 15.792C30.182 15.372 30.119 14.938 29.993 14.49C29.881 14.028 29.741 13.587 29.573 13.167C29.405 12.733 29.23 12.348 29.048 12.012L29.3 11.907ZM24.386 14.217C24.778 14.203 25.31 14.182 25.982 14.154C26.668 14.112 27.438 14.063 28.292 14.007C29.16 13.937 30.042 13.874 30.938 13.818L30.959 14.07C30.385 14.336 29.573 14.679 28.523 15.099C27.487 15.519 26.339 15.946 25.079 16.38L24.386 14.217ZM24.281 9.135C24.631 9.149 25.093 9.163 25.667 9.177C26.241 9.177 26.878 9.177 27.578 9.177C28.292 9.163 29.013 9.149 29.741 9.135V9.429C29.307 9.625 28.67 9.898 27.83 10.248C27.004 10.584 26.101 10.927 25.121 11.277L24.281 9.135ZM52.694 19.11C52.638 19.208 52.547 19.278 52.421 19.32C52.309 19.362 52.141 19.355 51.917 19.299C51.385 19.733 50.748 20.146 50.006 20.538C49.264 20.93 48.452 21.28 47.57 21.588C46.688 21.91 45.785 22.162 44.861 22.344L44.693 22.092C45.435 21.714 46.142 21.259 46.814 20.727C47.5 20.195 48.116 19.642 48.662 19.068C49.222 18.48 49.663 17.927 49.985 17.409L52.694 19.11ZM56.726 17.976C58.014 17.962 59.085 18.067 59.939 18.291C60.807 18.515 61.486 18.809 61.976 19.173C62.466 19.523 62.795 19.894 62.963 20.286C63.145 20.678 63.187 21.035 63.089 21.357C63.005 21.679 62.816 21.91 62.522 22.05C62.228 22.204 61.857 22.218 61.409 22.092C61.157 21.756 60.842 21.399 60.464 21.021C60.1 20.657 59.694 20.3 59.246 19.95C58.798 19.586 58.343 19.257 57.881 18.963C57.433 18.655 56.999 18.396 56.579 18.186L56.726 17.976ZM57.566 10.416C57.566 10.766 57.503 11.158 57.377 11.592C57.265 12.012 57.02 12.439 56.642 12.873C56.278 13.307 55.718 13.713 54.962 14.091C54.22 14.469 53.219 14.791 51.959 15.057L51.812 14.805C52.862 14.371 53.646 13.902 54.164 13.398C54.682 12.894 55.018 12.39 55.172 11.886C55.34 11.368 55.424 10.878 55.424 10.416V9.156H57.566V10.416ZM60.926 8.925V9.534H53.891L53.702 8.925H60.926ZM59.393 8.925L60.38 7.854L62.228 9.408C62.102 9.548 61.878 9.646 61.556 9.702V12.369C61.556 12.467 61.57 12.537 61.598 12.579C61.626 12.607 61.689 12.621 61.787 12.621H62.186C62.27 12.621 62.34 12.621 62.396 12.621C62.452 12.621 62.501 12.621 62.543 12.621C62.599 12.621 62.655 12.614 62.711 12.6C62.767 12.586 62.816 12.551 62.858 12.495C62.928 12.397 63.019 12.215 63.131 11.949C63.243 11.669 63.348 11.361 63.446 11.025H63.698L63.761 12.516C63.999 12.614 64.153 12.726 64.223 12.852C64.293 12.978 64.328 13.132 64.328 13.314C64.328 13.692 64.139 13.993 63.761 14.217C63.397 14.427 62.795 14.532 61.955 14.532H61.115C60.667 14.532 60.331 14.483 60.107 14.385C59.883 14.287 59.736 14.119 59.666 13.881C59.61 13.629 59.582 13.3 59.582 12.894V8.925H59.393ZM53.45 11.109C54.472 11.025 55.333 11.039 56.033 11.151C56.747 11.263 57.314 11.445 57.734 11.697C58.168 11.935 58.476 12.201 58.658 12.495C58.854 12.775 58.938 13.048 58.91 13.314C58.896 13.566 58.791 13.762 58.595 13.902C58.399 14.042 58.133 14.091 57.797 14.049C57.489 13.713 57.076 13.377 56.558 13.041C56.054 12.691 55.508 12.369 54.92 12.075C54.346 11.767 53.807 11.529 53.303 11.361L53.45 11.109ZM56.558 15.183C56.544 15.323 56.481 15.449 56.369 15.561C56.271 15.659 56.075 15.722 55.781 15.75V22.239C55.781 22.295 55.669 22.372 55.445 22.47C55.235 22.568 54.969 22.652 54.647 22.722C54.325 22.792 53.989 22.827 53.639 22.827H53.177V14.868L56.558 15.183ZM61.724 14.784C61.724 14.784 61.808 14.854 61.976 14.994C62.144 15.134 62.354 15.309 62.606 15.519C62.858 15.715 63.124 15.939 63.404 16.191C63.698 16.429 63.957 16.653 64.181 16.863C64.125 17.087 63.929 17.199 63.593 17.199H45.533L45.365 16.59H60.38L61.724 14.784ZM45.533 13.545C46.023 13.517 46.695 13.454 47.549 13.356C48.417 13.258 49.39 13.146 50.468 13.02C51.56 12.88 52.68 12.733 53.828 12.579L53.87 12.873C53.128 13.195 52.204 13.573 51.098 14.007C50.006 14.427 48.69 14.91 47.15 15.456C47.024 15.736 46.835 15.904 46.583 15.96L45.533 13.545ZM50.741 9.072V13.419L48.515 13.965V9.072H50.741ZM51.707 7.728C51.707 7.728 51.812 7.812 52.022 7.98C52.232 8.148 52.484 8.358 52.778 8.61C53.086 8.848 53.359 9.079 53.597 9.303C53.541 9.527 53.352 9.639 53.03 9.639H46.163L45.995 9.051H50.657L51.707 7.728ZM61.913 3.675C61.913 3.675 62.032 3.773 62.27 3.969C62.508 4.151 62.795 4.375 63.131 4.641C63.467 4.907 63.768 5.166 64.034 5.418C63.978 5.642 63.789 5.754 63.467 5.754H56.369V5.145H60.758L61.913 3.675ZM53.114 3.738C53.114 3.738 53.226 3.829 53.45 4.011C53.674 4.193 53.933 4.417 54.227 4.683C54.521 4.935 54.787 5.18 55.025 5.418C54.969 5.642 54.787 5.754 54.479 5.754H48.599V5.145H52.064L53.114 3.738ZM57.839 6.195C58.539 6.167 59.078 6.223 59.456 6.363C59.848 6.503 60.114 6.678 60.254 6.888C60.394 7.084 60.436 7.287 60.38 7.497C60.338 7.707 60.219 7.889 60.023 8.043C59.841 8.183 59.617 8.26 59.351 8.274C59.099 8.288 58.833 8.19 58.553 7.98C58.525 7.672 58.42 7.364 58.238 7.056C58.07 6.734 57.881 6.489 57.671 6.321L57.839 6.195ZM58.994 4.074C58.938 4.2 58.84 4.305 58.7 4.389C58.574 4.459 58.392 4.487 58.154 4.473C57.608 5.355 56.978 6.132 56.264 6.804C55.564 7.462 54.822 7.994 54.038 8.4L53.786 8.232C54.206 7.588 54.605 6.804 54.983 5.88C55.375 4.942 55.683 3.976 55.907 2.982L58.994 4.074ZM49.733 6.111C50.433 6.041 50.986 6.062 51.392 6.174C51.798 6.286 52.085 6.447 52.253 6.657C52.421 6.867 52.498 7.084 52.484 7.308C52.47 7.532 52.386 7.735 52.232 7.917C52.078 8.085 51.875 8.19 51.623 8.232C51.371 8.274 51.098 8.218 50.804 8.064C50.72 7.714 50.552 7.371 50.3 7.035C50.062 6.699 49.817 6.44 49.565 6.258L49.733 6.111ZM50.951 4.053C50.909 4.179 50.818 4.284 50.678 4.368C50.538 4.438 50.349 4.466 50.111 4.452C49.425 5.516 48.634 6.405 47.738 7.119C46.842 7.833 45.925 8.393 44.987 8.799L44.777 8.589C45.365 7.959 45.932 7.147 46.478 6.153C47.038 5.159 47.479 4.102 47.801 2.982L50.951 4.053ZM73.484 3.213C74.408 3.157 75.136 3.213 75.668 3.381C76.2 3.549 76.571 3.78 76.781 4.074C77.005 4.354 77.096 4.648 77.054 4.956C77.026 5.264 76.907 5.53 76.697 5.754C76.487 5.964 76.214 6.09 75.878 6.132C75.542 6.174 75.178 6.083 74.786 5.859C74.73 5.383 74.555 4.914 74.261 4.452C73.981 3.976 73.666 3.605 73.316 3.339L73.484 3.213ZM81.821 6.048L83.06 4.788L85.265 6.867C85.181 6.951 85.076 7.007 84.95 7.035C84.838 7.063 84.67 7.084 84.446 7.098C84.138 7.392 83.746 7.714 83.27 8.064C82.808 8.414 82.367 8.694 81.947 8.904L81.758 8.778C81.814 8.512 81.856 8.211 81.884 7.875C81.926 7.539 81.961 7.21 81.989 6.888C82.031 6.552 82.052 6.272 82.052 6.048H81.821ZM68.57 4.872C68.864 5.67 69.011 6.384 69.011 7.014C69.011 7.644 68.899 8.176 68.675 8.61C68.465 9.044 68.199 9.366 67.877 9.576C67.653 9.716 67.408 9.793 67.142 9.807C66.876 9.807 66.631 9.751 66.407 9.639C66.183 9.513 66.022 9.324 65.924 9.072C65.798 8.694 65.826 8.372 66.008 8.106C66.19 7.826 66.435 7.602 66.743 7.434C67.009 7.294 67.254 7.098 67.478 6.846C67.716 6.594 67.912 6.293 68.066 5.943C68.22 5.593 68.29 5.236 68.276 4.872H68.57ZM82.997 6.048V6.636H68.234V6.048H82.997ZM83.921 12.054C83.851 12.152 83.753 12.215 83.627 12.243C83.515 12.271 83.34 12.25 83.102 12.18C82.5 12.446 81.793 12.719 80.981 12.999C80.169 13.279 79.315 13.545 78.419 13.797C77.523 14.049 76.634 14.259 75.752 14.427L75.584 14.175C76.27 13.783 76.977 13.342 77.705 12.852C78.447 12.348 79.14 11.844 79.784 11.34C80.428 10.822 80.953 10.367 81.359 9.975L83.921 12.054ZM77.915 12.957C78.307 14.077 78.881 15.043 79.637 15.855C80.407 16.653 81.282 17.318 82.262 17.85C83.256 18.382 84.271 18.823 85.307 19.173L85.286 19.404C84.306 19.586 83.641 20.279 83.291 21.483C82.325 20.895 81.471 20.223 80.729 19.467C80.001 18.697 79.378 17.794 78.86 16.758C78.342 15.708 77.936 14.483 77.642 13.083L77.915 12.957ZM76.97 16.674C76.144 17.374 75.15 18.046 73.988 18.69C72.826 19.32 71.573 19.88 70.229 20.37C68.885 20.86 67.513 21.252 66.113 21.546L65.966 21.231C67.226 20.783 68.458 20.195 69.662 19.467C70.88 18.739 71.986 17.934 72.98 17.052C73.988 16.17 74.8 15.26 75.416 14.322L76.97 16.674ZM75.584 13.881C74.87 14.399 74.023 14.917 73.043 15.435C72.077 15.953 71.041 16.429 69.935 16.863C68.843 17.297 67.751 17.661 66.659 17.955L66.533 17.682C67.485 17.234 68.437 16.681 69.389 16.023C70.355 15.365 71.244 14.658 72.056 13.902C72.882 13.132 73.547 12.39 74.051 11.676L75.584 13.881ZM73.379 10.92C74.317 11.522 75.094 12.229 75.71 13.041C76.326 13.839 76.788 14.679 77.096 15.561C77.404 16.443 77.586 17.304 77.642 18.144C77.712 18.97 77.67 19.719 77.516 20.391C77.376 21.063 77.152 21.588 76.844 21.966C76.578 22.302 76.179 22.54 75.647 22.68C75.129 22.82 74.499 22.89 73.757 22.89C73.743 22.19 73.575 21.672 73.253 21.336C73.127 21.196 72.903 21.063 72.581 20.937C72.273 20.797 71.909 20.678 71.489 20.58L71.468 20.328C71.762 20.342 72.091 20.363 72.455 20.391C72.819 20.419 73.162 20.44 73.484 20.454C73.82 20.468 74.072 20.475 74.24 20.475C74.394 20.475 74.52 20.468 74.618 20.454C74.716 20.426 74.793 20.363 74.849 20.265C75.031 19.999 75.164 19.614 75.248 19.11C75.332 18.592 75.36 17.997 75.332 17.325C75.304 16.653 75.213 15.953 75.059 15.225C74.905 14.483 74.674 13.762 74.366 13.062C74.058 12.348 73.666 11.69 73.19 11.088L73.379 10.92ZM76.739 9.387C76.025 10.143 75.143 10.843 74.093 11.487C73.057 12.117 71.916 12.677 70.67 13.167C69.438 13.657 68.164 14.077 66.848 14.427L66.68 14.154C67.632 13.72 68.535 13.223 69.389 12.663C70.243 12.089 71.034 11.494 71.762 10.878C72.504 10.248 73.127 9.639 73.631 9.051H76.739V9.387ZM80.204 7.434C80.204 7.434 80.281 7.497 80.435 7.623C80.589 7.735 80.785 7.889 81.023 8.085C81.275 8.281 81.534 8.491 81.8 8.715C82.066 8.925 82.311 9.128 82.535 9.324C82.521 9.436 82.458 9.52 82.346 9.576C82.248 9.632 82.122 9.66 81.968 9.66H69.032L68.864 9.051H78.923L80.204 7.434Z" fill="#F3D7A3"/>
<path d="M14.068 42.764C14.068 42.764 14.1567 42.8293 14.334 42.96C14.5113 43.0813 14.7213 43.2307 14.964 43.408C15.216 43.5853 15.44 43.758 15.636 43.926C15.5987 44.0753 15.4727 44.15 15.258 44.15H6.396L6.284 43.758H13.228L14.068 42.764ZM12.304 36.59C12.2387 36.7953 12.0473 36.9073 11.73 36.926C11.6833 37.1967 11.6273 37.5047 11.562 37.85C11.4967 38.186 11.4313 38.522 11.366 38.858C11.3007 39.1847 11.24 39.474 11.184 39.726H9.588C9.644 39.4273 9.70467 39.0727 9.77 38.662C9.83533 38.242 9.90067 37.8033 9.966 37.346C10.0313 36.8887 10.0873 36.464 10.134 36.072L12.304 36.59ZM7.446 44.948C7.698 45.6573 7.80533 46.2733 7.768 46.796C7.73067 47.3093 7.60467 47.6967 7.39 47.958C7.28733 48.0793 7.14267 48.154 6.956 48.182C6.76933 48.2193 6.58733 48.2053 6.41 48.14C6.242 48.0747 6.116 47.958 6.032 47.79C5.92933 47.5567 5.92467 47.3373 6.018 47.132C6.12067 46.9267 6.27 46.7587 6.466 46.628C6.578 46.5253 6.69467 46.3853 6.816 46.208C6.94667 46.0213 7.054 45.816 7.138 45.592C7.222 45.368 7.25467 45.1487 7.236 44.934L7.446 44.948ZM13.102 44.836C13.7367 45.004 14.236 45.2187 14.6 45.48C14.964 45.732 15.2207 45.998 15.37 46.278C15.5287 46.5487 15.6033 46.8053 15.594 47.048C15.5847 47.2813 15.51 47.4773 15.37 47.636C15.2393 47.7853 15.0713 47.8693 14.866 47.888C14.67 47.8973 14.4553 47.8133 14.222 47.636C14.194 47.328 14.1147 47.0107 13.984 46.684C13.8533 46.348 13.6993 46.0307 13.522 45.732C13.3447 45.424 13.158 45.1533 12.962 44.92L13.102 44.836ZM10.148 44.248C10.6987 44.4067 11.128 44.598 11.436 44.822C11.744 45.046 11.9493 45.2793 12.052 45.522C12.164 45.7553 12.1967 45.9747 12.15 46.18C12.1127 46.3853 12.0193 46.5533 11.87 46.684C11.7207 46.8053 11.5433 46.866 11.338 46.866C11.142 46.8567 10.946 46.7587 10.75 46.572C10.7687 46.3107 10.7453 46.0447 10.68 45.774C10.6147 45.5033 10.5213 45.242 10.4 44.99C10.288 44.738 10.1573 44.5187 10.008 44.332L10.148 44.248ZM10.106 44.906C10.0967 44.9993 10.0547 45.0787 9.98 45.144C9.91467 45.2 9.812 45.2373 9.672 45.256V47.356C9.672 47.44 9.69533 47.5007 9.742 47.538C9.798 47.566 9.924 47.58 10.12 47.58H11.268C11.492 47.58 11.6927 47.58 11.87 47.58C12.0567 47.5707 12.1873 47.5613 12.262 47.552C12.4113 47.552 12.5233 47.5053 12.598 47.412C12.654 47.328 12.724 47.174 12.808 46.95C12.9013 46.7167 12.9993 46.446 13.102 46.138H13.256L13.298 47.44C13.494 47.5147 13.6247 47.5987 13.69 47.692C13.7553 47.776 13.788 47.8833 13.788 48.014C13.788 48.21 13.7133 48.3687 13.564 48.49C13.4147 48.6207 13.144 48.714 12.752 48.77C12.3693 48.8353 11.828 48.868 11.128 48.868H9.784C9.364 48.868 9.04667 48.8307 8.832 48.756C8.61733 48.6907 8.47267 48.5693 8.398 48.392C8.32333 48.224 8.286 47.986 8.286 47.678V44.752L10.106 44.906ZM12.472 39.474V42.498H11.31V39.474H12.472ZM10.442 39.474V42.498H9.308V39.474H10.442ZM13.942 42.33V42.736H7.894V42.33H13.942ZM7.054 38.886L8.538 39.474H13.27L13.928 38.732L15.244 39.712C15.1973 39.7773 15.1367 39.8333 15.062 39.88C14.9873 39.9173 14.8707 39.9453 14.712 39.964V42.82C14.712 42.8573 14.6093 42.918 14.404 43.002C14.1987 43.086 13.9187 43.128 13.564 43.128H13.326V39.88H8.398V43.016C8.398 43.0627 8.3 43.1327 8.104 43.226C7.908 43.31 7.63733 43.352 7.292 43.352H7.054V39.474V38.886ZM14.082 36.716C14.082 36.716 14.1333 36.758 14.236 36.842C14.348 36.926 14.4833 37.0333 14.642 37.164C14.8007 37.2947 14.9687 37.4347 15.146 37.584C15.3233 37.724 15.4867 37.8593 15.636 37.99C15.5987 38.1393 15.468 38.214 15.244 38.214H6.438L6.326 37.822H13.228L14.082 36.716ZM6.816 37.192C6.77867 37.2573 6.718 37.3087 6.634 37.346C6.55933 37.3833 6.438 37.388 6.27 37.36C5.99 37.6773 5.64467 38.0227 5.234 38.396C4.83267 38.76 4.39867 39.1147 3.932 39.46C3.46533 39.796 2.98 40.0993 2.476 40.37L2.35 40.23C2.70467 39.8287 3.04533 39.3853 3.372 38.9C3.708 38.4053 4.01133 37.9107 4.282 37.416C4.562 36.9213 4.78133 36.4827 4.94 36.1L6.816 37.192ZM7.04 40.034C7.012 40.1087 6.96067 40.1693 6.886 40.216C6.81133 40.2533 6.68067 40.2627 6.494 40.244C6.214 40.7107 5.86867 41.2147 5.458 41.756C5.05667 42.2973 4.604 42.8293 4.1 43.352C3.596 43.8747 3.04533 44.3367 2.448 44.738L2.322 44.612C2.61133 44.2107 2.89133 43.772 3.162 43.296C3.442 42.82 3.694 42.33 3.918 41.826C4.15133 41.3127 4.35667 40.8227 4.534 40.356C4.71133 39.88 4.85133 39.4413 4.954 39.04L7.04 40.034ZM6.144 41.896C6.116 41.9613 6.06933 42.0173 6.004 42.064C5.93867 42.1107 5.84067 42.1433 5.71 42.162V48.714C5.71 48.7607 5.64933 48.826 5.528 48.91C5.40667 49.0033 5.248 49.0827 5.052 49.148C4.856 49.2227 4.64133 49.26 4.408 49.26H4.114V42.008L4.618 41.336L6.144 41.896ZM19.374 42.4H26.64V42.806H19.374V42.4ZM19.374 47.384H26.64V47.776H19.374V47.384ZM25.842 37.612H25.702L26.528 36.688L28.18 37.99C28.1333 38.0553 28.0633 38.116 27.97 38.172C27.8767 38.2187 27.76 38.256 27.62 38.284V48.504C27.6107 48.5413 27.5267 48.6067 27.368 48.7C27.2093 48.7933 27.0133 48.8727 26.78 48.938C26.556 49.0127 26.3367 49.05 26.122 49.05H25.842V37.612ZM18.576 37.612V36.856L20.424 37.612H26.836V38.004H20.298V48.518C20.298 48.5927 20.2327 48.6813 20.102 48.784C19.9713 48.8867 19.794 48.9753 19.57 49.05C19.3553 49.1247 19.122 49.162 18.87 49.162H18.576V37.612ZM40.206 37.668L40.906 36.898L42.404 38.032C42.3667 38.0787 42.2967 38.13 42.194 38.186C42.0913 38.242 41.9747 38.284 41.844 38.312V41.798C41.844 41.8353 41.774 41.8867 41.634 41.952C41.494 42.008 41.326 42.0593 41.13 42.106C40.9433 42.1527 40.7613 42.176 40.584 42.176H40.346V37.668H40.206ZM39.604 36.324C39.5947 36.4267 39.5527 36.5153 39.478 36.59C39.4127 36.6553 39.2867 36.702 39.1 36.73V46.698C39.1 46.7447 39.0347 46.8007 38.904 46.866C38.7827 46.9313 38.624 46.992 38.428 47.048C38.2413 47.0947 38.0453 47.118 37.84 47.118H37.532V36.128L39.604 36.324ZM41.214 42.092C41.214 42.092 41.2607 42.134 41.354 42.218C41.4567 42.2927 41.5827 42.3907 41.732 42.512C41.8813 42.6333 42.0353 42.764 42.194 42.904C42.362 43.044 42.516 43.1793 42.656 43.31C42.6187 43.4593 42.4927 43.534 42.278 43.534H35.32L35.208 43.128H40.43L41.214 42.092ZM41.648 43.87C41.648 43.87 41.704 43.912 41.816 43.996C41.928 44.08 42.068 44.192 42.236 44.332C42.404 44.4627 42.5813 44.6027 42.768 44.752C42.9547 44.892 43.1227 45.032 43.272 45.172C43.2533 45.2467 43.2067 45.3027 43.132 45.34C43.0667 45.3773 42.9827 45.396 42.88 45.396H34.676L34.564 44.99H40.766L41.648 43.87ZM42.614 38.396C42.614 38.396 42.684 38.4707 42.824 38.62C42.964 38.76 43.1273 38.928 43.314 39.124C43.5007 39.3107 43.6593 39.4833 43.79 39.642C43.7527 39.7913 43.6267 39.866 43.412 39.866H34.452L34.34 39.474H41.956L42.614 38.396ZM40.976 41.294V41.7H35.474L35.348 41.294H40.976ZM41.018 37.668V38.074H35.348L35.222 37.668H41.018ZM34.48 38.074C34.3773 38.3073 34.2467 38.5967 34.088 38.942C33.9293 39.2873 33.7567 39.656 33.57 40.048C33.3833 40.44 33.2013 40.818 33.024 41.182C32.856 41.5367 32.7067 41.84 32.576 42.092H32.66L32.17 42.596L30.784 41.714C30.8867 41.63 31.0173 41.5507 31.176 41.476C31.344 41.392 31.4933 41.336 31.624 41.308L31.106 41.742C31.246 41.4993 31.4093 41.1913 31.596 40.818C31.7827 40.4447 31.9693 40.0573 32.156 39.656C32.3427 39.2453 32.5153 38.8533 32.674 38.48C32.8327 38.1067 32.954 37.7987 33.038 37.556L34.48 38.074ZM32.87 37.556L33.57 36.842L34.97 38.102C34.886 38.1953 34.746 38.2607 34.55 38.298C34.3633 38.3353 34.1487 38.3493 33.906 38.34C33.6727 38.3307 33.444 38.312 33.22 38.284L33.038 37.556H32.87ZM31.078 42.834C31.4327 43.814 31.8667 44.6027 32.38 45.2C32.9027 45.788 33.528 46.236 34.256 46.544C34.984 46.852 35.8427 47.062 36.832 47.174C37.8307 47.2767 38.9787 47.328 40.276 47.328C40.4533 47.328 40.682 47.328 40.962 47.328C41.242 47.328 41.5407 47.328 41.858 47.328C42.1753 47.328 42.4833 47.328 42.782 47.328C43.0807 47.3187 43.342 47.314 43.566 47.314V47.482C43.2487 47.5473 43.006 47.7107 42.838 47.972C42.6793 48.224 42.5907 48.5133 42.572 48.84C42.3853 48.84 42.138 48.84 41.83 48.84C41.522 48.84 41.214 48.84 40.906 48.84C40.598 48.84 40.346 48.84 40.15 48.84C38.806 48.84 37.6253 48.7607 36.608 48.602C35.6 48.4527 34.732 48.168 34.004 47.748C33.276 47.328 32.66 46.7307 32.156 45.956C31.6613 45.1813 31.2507 44.1687 30.924 42.918L31.078 42.834ZM33.388 41.686L34.144 40.888L35.544 42.078C35.4693 42.1993 35.2967 42.274 35.026 42.302C34.9233 43.002 34.774 43.688 34.578 44.36C34.3913 45.032 34.1253 45.6713 33.78 46.278C33.4347 46.8753 32.9867 47.426 32.436 47.93C31.8947 48.4247 31.2227 48.8633 30.42 49.246L30.322 49.064C31.0967 48.4853 31.7033 47.8087 32.142 47.034C32.5807 46.2593 32.9027 45.4147 33.108 44.5C33.3227 43.5853 33.4627 42.6473 33.528 41.686H33.388ZM34.256 41.686V42.092H31.652L31.848 41.686H34.256ZM33.752 37.556V37.948H30.56L30.434 37.556H33.752ZM50.86 39.474H55.802L56.488 38.354C56.488 38.354 56.5627 38.4287 56.712 38.578C56.8613 38.718 57.034 38.8907 57.23 39.096C57.426 39.292 57.594 39.4787 57.734 39.656C57.6967 39.8053 57.5753 39.88 57.37 39.88H50.972L50.86 39.474ZM54.038 36.114L56.152 36.324C56.1427 36.4173 56.096 36.5013 56.012 36.576C55.9373 36.6413 55.8113 36.688 55.634 36.716V47.384C55.634 47.7387 55.5827 48.042 55.48 48.294C55.3867 48.5553 55.186 48.7607 54.878 48.91C54.57 49.0687 54.094 49.176 53.45 49.232C53.422 48.9893 53.38 48.7793 53.324 48.602C53.2773 48.434 53.1887 48.294 53.058 48.182C52.9273 48.0607 52.7593 47.958 52.554 47.874C52.358 47.79 52.0593 47.72 51.658 47.664V47.468C51.658 47.468 51.7467 47.4727 51.924 47.482C52.1013 47.4913 52.3113 47.5053 52.554 47.524C52.7967 47.5427 53.0253 47.5567 53.24 47.566C53.464 47.5753 53.618 47.58 53.702 47.58C53.8233 47.58 53.9073 47.5567 53.954 47.51C54.01 47.4633 54.038 47.3933 54.038 47.3V36.114ZM53.604 39.474H55.452V39.698C54.92 41.154 54.122 42.4887 53.058 43.702C52.0033 44.9153 50.7293 45.9373 49.236 46.768L49.096 46.6C49.8053 45.9933 50.4493 45.2933 51.028 44.5C51.616 43.7067 52.1293 42.876 52.568 42.008C53.0067 41.14 53.352 40.2953 53.604 39.474ZM44.588 39.474H48.732L49.488 38.396C49.488 38.396 49.5673 38.466 49.726 38.606C49.8847 38.746 50.0713 38.914 50.286 39.11C50.5007 39.2967 50.692 39.474 50.86 39.642C50.8227 39.7913 50.6967 39.866 50.482 39.866H44.7L44.588 39.474ZM46.744 39.474H48.41V39.698C48.1207 41.0047 47.6447 42.1993 46.982 43.282C46.3287 44.3647 45.484 45.3167 44.448 46.138L44.28 45.984C44.7093 45.4053 45.0827 44.7613 45.4 44.052C45.7267 43.3333 46.002 42.5867 46.226 41.812C46.45 41.028 46.6227 40.2487 46.744 39.474ZM46.828 36.128L48.928 36.338C48.9187 36.4407 48.8767 36.5293 48.802 36.604C48.7367 36.6693 48.6107 36.716 48.424 36.744V48.784C48.424 48.8213 48.3587 48.8773 48.228 48.952C48.0973 49.036 47.934 49.106 47.738 49.162C47.5513 49.2273 47.3553 49.26 47.15 49.26H46.828V36.128ZM48.424 41.098C49.012 41.266 49.4693 41.4713 49.796 41.714C50.132 41.9473 50.3607 42.19 50.482 42.442C50.6127 42.6847 50.6593 42.918 50.622 43.142C50.594 43.3567 50.51 43.5293 50.37 43.66C50.23 43.7813 50.0527 43.842 49.838 43.842C49.6327 43.8327 49.4273 43.7347 49.222 43.548C49.2033 43.2773 49.1473 43.002 49.054 42.722C48.9607 42.4327 48.844 42.1573 48.704 41.896C48.5733 41.6253 48.4333 41.3827 48.284 41.168L48.424 41.098ZM63.81 44.766L63.628 44.36C64.132 44.108 64.5287 43.8373 64.818 43.548C65.1167 43.2493 65.322 42.8387 65.434 42.316L65.602 42.806C64.986 42.582 64.5333 42.3393 64.244 42.078C63.964 41.8167 63.824 41.5227 63.824 41.196C63.824 40.8507 63.9407 40.566 64.174 40.342C64.4073 40.1087 64.7013 39.992 65.056 39.992C65.2707 39.992 65.4573 40.02 65.616 40.076C65.7747 40.1227 65.9333 40.2113 66.092 40.342C66.176 40.5473 66.232 40.7293 66.26 40.888C66.288 41.0373 66.302 41.224 66.302 41.448C66.302 42.3067 66.0733 43.0207 65.616 43.59C65.168 44.15 64.566 44.542 63.81 44.766ZM78.356 38.032C78.272 38.2653 78.16 38.5687 78.02 38.942C77.8893 39.306 77.7447 39.6933 77.586 40.104C77.4367 40.5147 77.2873 40.9113 77.138 41.294C76.9887 41.6673 76.8533 41.994 76.732 42.274H76.83L76.382 42.736L75.178 41.938C75.2713 41.8633 75.3927 41.7933 75.542 41.728C75.6913 41.6533 75.8267 41.602 75.948 41.574L75.514 42.008C75.6353 41.7467 75.7753 41.42 75.934 41.028C76.0927 40.636 76.2467 40.2253 76.396 39.796C76.5547 39.3667 76.6993 38.956 76.83 38.564C76.9607 38.172 77.0633 37.8453 77.138 37.584L78.356 38.032ZM76.956 37.584L77.586 36.94L78.86 38.074C78.748 38.1953 78.538 38.27 78.23 38.298C77.922 38.3167 77.6093 38.3027 77.292 38.256L77.138 37.584H76.956ZM77.222 41.868L77.936 41.112L79.28 42.232C79.2427 42.3067 79.1867 42.358 79.112 42.386C79.0373 42.414 78.9253 42.4373 78.776 42.456C78.7107 43.1187 78.6127 43.772 78.482 44.416C78.3513 45.06 78.1507 45.676 77.88 46.264C77.6187 46.852 77.2593 47.4027 76.802 47.916C76.3447 48.42 75.7707 48.8633 75.08 49.246L74.954 49.064C75.626 48.4853 76.1253 47.8087 76.452 47.034C76.788 46.2593 77.0167 45.4333 77.138 44.556C77.2593 43.6693 77.334 42.7733 77.362 41.868H77.222ZM75.78 43.17C76.0507 44.0753 76.3773 44.8127 76.76 45.382C77.152 45.942 77.6187 46.376 78.16 46.684C78.7013 46.9827 79.336 47.188 80.064 47.3C80.792 47.4027 81.6273 47.454 82.57 47.454C82.7473 47.454 82.9713 47.454 83.242 47.454C83.5127 47.454 83.7927 47.454 84.082 47.454C84.3807 47.454 84.67 47.454 84.95 47.454C85.2393 47.454 85.482 47.4493 85.678 47.44V47.622C85.4167 47.678 85.216 47.832 85.076 48.084C84.936 48.336 84.8613 48.616 84.852 48.924C84.684 48.924 84.446 48.924 84.138 48.924C83.83 48.924 83.522 48.924 83.214 48.924C82.906 48.924 82.6587 48.924 82.472 48.924C81.4733 48.924 80.5913 48.8447 79.826 48.686C79.07 48.5273 78.4167 48.2427 77.866 47.832C77.3247 47.4213 76.872 46.8473 76.508 46.11C76.144 45.3633 75.85 44.4067 75.626 43.24L75.78 43.17ZM77.558 37.584V37.976H75.766L75.64 37.584H77.558ZM78.006 41.868V42.274H76.186L76.34 41.868H78.006ZM84.04 44.136C84.04 44.136 84.11 44.2013 84.25 44.332C84.3993 44.4533 84.572 44.6073 84.768 44.794C84.964 44.9713 85.132 45.1393 85.272 45.298C85.244 45.4473 85.1273 45.522 84.922 45.522H78.552L78.44 45.116H83.354L84.04 44.136ZM84.796 38.648C84.796 38.648 84.8473 38.7087 84.95 38.83C85.0527 38.9513 85.174 39.096 85.314 39.264C85.4633 39.4227 85.5847 39.572 85.678 39.712C85.65 39.8613 85.538 39.936 85.342 39.936H78.16L78.048 39.544H84.278L84.796 38.648ZM83.536 42.4C83.536 42.4 83.606 42.4607 83.746 42.582C83.886 42.7033 84.0447 42.8527 84.222 43.03C84.4087 43.198 84.572 43.3567 84.712 43.506C84.684 43.6553 84.5673 43.73 84.362 43.73H78.972L78.86 43.338H82.878L83.536 42.4ZM82.738 37.682L83.354 37.038L84.628 38.004C84.5907 38.0413 84.5347 38.0833 84.46 38.13C84.3853 38.1767 84.292 38.2093 84.18 38.228V41.854C84.18 41.882 84.1147 41.924 83.984 41.98C83.8627 42.036 83.718 42.0873 83.55 42.134C83.382 42.1807 83.228 42.204 83.088 42.204H82.864V37.682H82.738ZM82.262 36.38C82.2527 36.464 82.2107 36.5387 82.136 36.604C82.0707 36.6693 81.9587 36.7113 81.8 36.73V46.796C81.8 46.8333 81.7393 46.894 81.618 46.978C81.506 47.0527 81.366 47.118 81.198 47.174C81.03 47.23 80.8573 47.258 80.68 47.258H80.414V36.184L82.262 36.38ZM83.48 41.448V41.854H79.14L79.014 41.448H83.48ZM83.466 37.682V38.088H78.944L78.818 37.682H83.466ZM76.424 36.758C76.3867 36.842 76.3213 36.912 76.228 36.968C76.144 37.024 76.0227 37.0473 75.864 37.038C75.6027 37.9247 75.2993 38.7647 74.954 39.558C74.618 40.3513 74.2353 41.084 73.806 41.756C73.386 42.4187 72.9147 43.016 72.392 43.548L72.21 43.436C72.4993 42.82 72.7747 42.1107 73.036 41.308C73.3067 40.496 73.5493 39.6467 73.764 38.76C73.9787 37.8733 74.142 36.9913 74.254 36.114L76.424 36.758ZM75.514 40.342C75.486 40.4073 75.4347 40.4633 75.36 40.51C75.2947 40.5473 75.2013 40.5753 75.08 40.594V48.826C75.08 48.854 75.0147 48.9007 74.884 48.966C74.7533 49.0407 74.5947 49.106 74.408 49.162C74.2307 49.218 74.044 49.246 73.848 49.246H73.582V40.58L74.142 39.824L75.514 40.342ZM94.68 46.082C95.492 46.082 96.1687 46.152 96.71 46.292C97.2513 46.432 97.676 46.614 97.984 46.838C98.292 47.062 98.502 47.2953 98.614 47.538C98.726 47.7713 98.754 47.986 98.698 48.182C98.642 48.378 98.5207 48.5227 98.334 48.616C98.1567 48.7093 97.9327 48.714 97.662 48.63C97.438 48.35 97.1487 48.0607 96.794 47.762C96.4487 47.454 96.08 47.1647 95.688 46.894C95.296 46.6233 94.9273 46.3947 94.582 46.208L94.68 46.082ZM89.43 43.926C90.0647 43.87 90.578 43.8887 90.97 43.982C91.362 44.066 91.656 44.1967 91.852 44.374C92.0573 44.5513 92.174 44.738 92.202 44.934C92.2393 45.13 92.2113 45.3073 92.118 45.466C92.0247 45.6247 91.8847 45.7367 91.698 45.802C91.5113 45.858 91.2873 45.8393 91.026 45.746C90.9233 45.5407 90.774 45.3307 90.578 45.116C90.3913 44.9013 90.186 44.7007 89.962 44.514C89.7473 44.318 89.5373 44.1593 89.332 44.038L89.43 43.926ZM98.32 44.794C98.2453 44.9153 98.082 44.9293 97.83 44.836C97.5873 44.9293 97.2793 45.032 96.906 45.144C96.5327 45.2467 96.15 45.3493 95.758 45.452C95.3753 45.5547 95.03 45.6433 94.722 45.718L94.61 45.578C94.8433 45.3913 95.1 45.172 95.38 44.92C95.66 44.6587 95.9353 44.3973 96.206 44.136C96.4767 43.8747 96.7007 43.6507 96.878 43.464L98.32 44.794ZM88.478 47.09C88.7113 47.034 89.038 46.9453 89.458 46.824C89.8873 46.6933 90.368 46.544 90.9 46.376C91.432 46.208 91.9733 46.04 92.524 45.872L92.58 46.012C92.272 46.2827 91.8707 46.6187 91.376 47.02C90.8907 47.4213 90.312 47.8787 89.64 48.392C89.584 48.588 89.472 48.714 89.304 48.77L88.478 47.09ZM94.89 38.578C94.8807 38.6807 94.834 38.7647 94.75 38.83C94.6753 38.8953 94.554 38.942 94.386 38.97V47.454C94.386 47.8273 94.344 48.14 94.26 48.392C94.176 48.644 93.994 48.84 93.714 48.98C93.434 49.1293 93 49.232 92.412 49.288C92.4027 49.0547 92.3793 48.8447 92.342 48.658C92.3047 48.4807 92.244 48.336 92.16 48.224C92.076 48.112 91.9593 48.014 91.81 47.93C91.67 47.846 91.4507 47.7807 91.152 47.734V47.552C91.152 47.552 91.208 47.5567 91.32 47.566C91.4413 47.566 91.5813 47.5707 91.74 47.58C91.8987 47.5893 92.048 47.5987 92.188 47.608C92.3373 47.6173 92.44 47.622 92.496 47.622C92.5987 47.622 92.6687 47.608 92.706 47.58C92.7433 47.552 92.762 47.496 92.762 47.412V38.382L94.89 38.578ZM96.108 39.67L96.808 38.956L98.194 40.006C98.1193 40.1087 97.984 40.1787 97.788 40.216V43.394C97.788 43.4407 97.718 43.506 97.578 43.59C97.4473 43.674 97.284 43.7533 97.088 43.828C96.892 43.8933 96.696 43.926 96.5 43.926H96.22V39.67H96.108ZM98.502 40.552C98.502 40.552 98.5627 40.608 98.684 40.72C98.8053 40.832 98.95 40.9673 99.118 41.126C99.2953 41.2847 99.4493 41.434 99.58 41.574C99.5427 41.7233 99.4213 41.798 99.216 41.798H89.388L89.276 41.392H97.9L98.502 40.552ZM96.64 43.142V43.548H89.948L89.822 43.142H96.64ZM96.612 39.67V40.062H89.962L89.836 39.67H96.612ZM92.398 36.086C92.9673 36.1047 93.406 36.1793 93.714 36.31C94.0313 36.4407 94.2413 36.5947 94.344 36.772C94.456 36.9493 94.484 37.122 94.428 37.29C94.3813 37.458 94.2787 37.6027 94.12 37.724C93.9613 37.836 93.7747 37.892 93.56 37.892C93.3453 37.8827 93.126 37.794 92.902 37.626C92.8927 37.3647 92.8227 37.0987 92.692 36.828C92.5707 36.5573 92.44 36.3333 92.3 36.156L92.398 36.086ZM87.512 37.724V37.22L89.304 37.864H89.052V41.63C89.052 42.2273 89.0287 42.862 88.982 43.534C88.9447 44.1967 88.842 44.8687 88.674 45.55C88.5153 46.222 88.2587 46.8707 87.904 47.496C87.5493 48.112 87.064 48.6813 86.448 49.204L86.308 49.106C86.6907 48.3687 86.966 47.5847 87.134 46.754C87.302 45.914 87.4047 45.06 87.442 44.192C87.4887 43.324 87.512 42.47 87.512 41.63V37.864V37.724ZM97.956 36.73C97.956 36.73 98.0073 36.772 98.11 36.856C98.2127 36.94 98.3433 37.052 98.502 37.192C98.6607 37.3227 98.8287 37.4627 99.006 37.612C99.1833 37.7613 99.342 37.906 99.482 38.046C99.4447 38.1953 99.314 38.27 99.09 38.27H88.492V37.864H97.102L97.956 36.73ZM104.158 40.832C104.811 40.8413 105.343 40.916 105.754 41.056C106.165 41.196 106.473 41.3687 106.678 41.574C106.893 41.77 107.023 41.98 107.07 42.204C107.117 42.4187 107.098 42.61 107.014 42.778C106.93 42.9367 106.795 43.044 106.608 43.1C106.431 43.156 106.221 43.128 105.978 43.016C105.857 42.764 105.689 42.512 105.474 42.26C105.269 41.9987 105.035 41.756 104.774 41.532C104.522 41.2987 104.279 41.1027 104.046 40.944L104.158 40.832ZM103.64 45.718H110.332V46.124H103.64V45.718ZM108.54 41.378H112.152V41.77H108.54V41.378ZM103.64 47.902H110.332V48.308H103.64V47.902ZM109.604 43.66H109.464L110.206 42.834L111.788 44.024C111.751 44.08 111.685 44.136 111.592 44.192C111.508 44.248 111.391 44.29 111.242 44.318V48.756C111.242 48.7933 111.163 48.8447 111.004 48.91C110.855 48.9753 110.673 49.0313 110.458 49.078C110.253 49.134 110.061 49.162 109.884 49.162H109.604V43.66ZM111.354 37.668H111.214L111.956 36.87L113.496 38.046C113.459 38.102 113.389 38.158 113.286 38.214C113.193 38.27 113.071 38.312 112.922 38.34V42.316C112.922 42.344 112.847 42.3907 112.698 42.456C112.549 42.512 112.376 42.568 112.18 42.624C111.984 42.6707 111.797 42.694 111.62 42.694H111.354V37.668ZM103.038 43.66V42.974L104.76 43.66H110.556V44.052H104.648V48.7C104.648 48.756 104.578 48.826 104.438 48.91C104.307 48.994 104.139 49.0687 103.934 49.134C103.729 49.1993 103.509 49.232 103.276 49.232H103.038V43.66ZM107.784 37.668V37.024L109.394 37.668H112.11V38.074H109.338V42.484C109.338 42.5307 109.273 42.596 109.142 42.68C109.011 42.7547 108.843 42.8247 108.638 42.89C108.442 42.946 108.232 42.974 108.008 42.974H107.784V37.668ZM100.56 39.768H105.446L106.244 38.732C106.244 38.732 106.323 38.7973 106.482 38.928C106.65 39.0587 106.846 39.2173 107.07 39.404C107.294 39.5907 107.495 39.768 107.672 39.936C107.635 40.0853 107.509 40.16 107.294 40.16H100.672L100.56 39.768ZM103.458 37.766H105.04C105.012 38.4753 104.956 39.1287 104.872 39.726C104.788 40.3233 104.611 40.874 104.34 41.378C104.069 41.8727 103.64 42.3253 103.052 42.736C102.473 43.1373 101.675 43.4873 100.658 43.786L100.532 43.59C101.269 43.226 101.834 42.8387 102.226 42.428C102.618 42.008 102.898 41.56 103.066 41.084C103.243 40.608 103.351 40.0947 103.388 39.544C103.425 38.984 103.449 38.3913 103.458 37.766ZM102.198 36.1L104.172 36.674C104.144 36.758 104.083 36.828 103.99 36.884C103.906 36.94 103.789 36.968 103.64 36.968C103.351 37.5653 103.005 38.0927 102.604 38.55C102.203 38.998 101.764 39.362 101.288 39.642L101.106 39.502C101.358 39.0913 101.582 38.5827 101.778 37.976C101.974 37.3693 102.114 36.744 102.198 36.1ZM102.408 37.766H105.236L106.02 36.73C106.02 36.73 106.104 36.7953 106.272 36.926C106.44 37.0567 106.636 37.2153 106.86 37.402C107.084 37.5887 107.285 37.766 107.462 37.934C107.434 38.0833 107.308 38.158 107.084 38.158H102.408V37.766ZM126.236 42.428C126.236 42.428 126.311 42.484 126.46 42.596C126.609 42.708 126.782 42.8433 126.978 43.002C127.174 43.1513 127.347 43.3007 127.496 43.45C127.487 43.5247 127.449 43.5807 127.384 43.618C127.319 43.6553 127.239 43.674 127.146 43.674H115.134L115.022 43.268H125.55L126.236 42.428ZM119.992 39.334C119.992 39.334 120.067 39.39 120.216 39.502C120.365 39.614 120.543 39.754 120.748 39.922C120.953 40.0807 121.135 40.2347 121.294 40.384C121.266 40.5333 121.14 40.608 120.916 40.608H115.092L114.98 40.202H119.278L119.992 39.334ZM124.85 36.282C124.841 36.3753 124.799 36.4547 124.724 36.52C124.659 36.576 124.542 36.618 124.374 36.646V41.168C124.374 41.196 124.309 41.2427 124.178 41.308C124.057 41.3733 123.898 41.4293 123.702 41.476C123.506 41.5133 123.31 41.532 123.114 41.532H122.834V36.1L124.85 36.282ZM125.508 37.976C125.508 37.976 125.573 38.032 125.704 38.144C125.844 38.2467 126.007 38.3773 126.194 38.536C126.39 38.6853 126.563 38.83 126.712 38.97C126.703 39.0447 126.661 39.1007 126.586 39.138C126.521 39.1753 126.441 39.194 126.348 39.194H121.602L121.49 38.788H124.836L125.508 37.976ZM125.886 39.334C125.886 39.334 125.961 39.39 126.11 39.502C126.259 39.614 126.437 39.754 126.642 39.922C126.847 40.0807 127.034 40.2347 127.202 40.384C127.165 40.5333 127.039 40.608 126.824 40.608H121.224L121.112 40.202H125.172L125.886 39.334ZM125.62 36.59C125.62 36.59 125.695 36.646 125.844 36.758C125.993 36.87 126.171 37.01 126.376 37.178C126.581 37.3367 126.768 37.4907 126.936 37.64C126.917 37.7147 126.875 37.7707 126.81 37.808C126.745 37.8453 126.665 37.864 126.572 37.864H121.35L121.238 37.472H124.92L125.62 36.59ZM123.646 41.84L124.374 41.056L125.9 42.204C125.863 42.26 125.797 42.3113 125.704 42.358C125.62 42.4047 125.513 42.442 125.382 42.47V45.214C125.382 45.2513 125.307 45.3027 125.158 45.368C125.009 45.4333 124.831 45.4987 124.626 45.564C124.421 45.62 124.229 45.648 124.052 45.648H123.786V41.84H123.646ZM119.236 36.282C119.227 36.366 119.189 36.4407 119.124 36.506C119.059 36.5713 118.942 36.6133 118.774 36.632V41.266C118.774 41.3033 118.709 41.3547 118.578 41.42C118.457 41.4853 118.298 41.5413 118.102 41.588C117.915 41.6253 117.724 41.644 117.528 41.644H117.248V36.1L119.236 36.282ZM119.754 38.046C119.754 38.046 119.819 38.0973 119.95 38.2C120.09 38.3027 120.253 38.4287 120.44 38.578C120.627 38.7273 120.79 38.872 120.93 39.012C120.911 39.1613 120.795 39.236 120.58 39.236H115.456L115.344 38.83H119.124L119.754 38.046ZM119.796 36.618C119.796 36.618 119.866 36.674 120.006 36.786C120.155 36.898 120.328 37.0333 120.524 37.192C120.72 37.3413 120.902 37.4907 121.07 37.64C121.033 37.7893 120.907 37.864 120.692 37.864H115.218L115.106 37.472H119.11L119.796 36.618ZM124.934 44.738V45.144H116.31L116.184 44.738H124.934ZM124.962 41.84V42.246H116.422L116.296 41.84H124.962ZM119.782 45.704C119.763 45.8907 119.619 46.0073 119.348 46.054V47.552C119.348 47.6453 119.376 47.706 119.432 47.734C119.497 47.762 119.661 47.776 119.922 47.776H121.602C121.901 47.776 122.176 47.776 122.428 47.776C122.68 47.776 122.857 47.7713 122.96 47.762C123.081 47.7527 123.165 47.7387 123.212 47.72C123.268 47.7013 123.324 47.6593 123.38 47.594C123.464 47.482 123.557 47.3093 123.66 47.076C123.772 46.8333 123.898 46.53 124.038 46.166H124.192L124.234 47.622C124.477 47.6967 124.635 47.7807 124.71 47.874C124.794 47.9673 124.836 48.084 124.836 48.224C124.836 48.4013 124.785 48.5413 124.682 48.644C124.579 48.7467 124.402 48.8213 124.15 48.868C123.907 48.924 123.562 48.9613 123.114 48.98C122.675 49.008 122.111 49.022 121.42 49.022H119.628C119.105 49.022 118.704 48.9847 118.424 48.91C118.144 48.8353 117.953 48.7047 117.85 48.518C117.757 48.3407 117.71 48.084 117.71 47.748V45.55L119.782 45.704ZM116.604 45.718C116.791 46.222 116.87 46.6653 116.842 47.048C116.823 47.4307 116.735 47.748 116.576 48C116.427 48.2613 116.245 48.4433 116.03 48.546C115.815 48.6487 115.587 48.672 115.344 48.616C115.101 48.56 114.943 48.4153 114.868 48.182C114.803 47.9487 114.831 47.748 114.952 47.58C115.083 47.412 115.246 47.286 115.442 47.202C115.591 47.1273 115.741 47.02 115.89 46.88C116.039 46.7307 116.161 46.558 116.254 46.362C116.357 46.1567 116.408 45.9467 116.408 45.732L116.604 45.718ZM124.612 45.802C125.247 45.886 125.751 46.0213 126.124 46.208C126.497 46.3947 126.768 46.6093 126.936 46.852C127.104 47.0853 127.188 47.314 127.188 47.538C127.188 47.762 127.123 47.9533 126.992 48.112C126.871 48.2707 126.707 48.364 126.502 48.392C126.297 48.42 126.077 48.3547 125.844 48.196C125.807 47.916 125.718 47.636 125.578 47.356C125.447 47.0667 125.284 46.796 125.088 46.544C124.901 46.292 124.705 46.0773 124.5 45.9L124.612 45.802ZM120.244 45.312C120.785 45.34 121.215 45.424 121.532 45.564C121.859 45.6947 122.092 45.8533 122.232 46.04C122.372 46.2267 122.437 46.4133 122.428 46.6C122.419 46.7867 122.353 46.9453 122.232 47.076C122.111 47.1973 121.957 47.272 121.77 47.3C121.593 47.3187 121.397 47.258 121.182 47.118C121.145 46.9127 121.07 46.7027 120.958 46.488C120.846 46.2733 120.715 46.0727 120.566 45.886C120.417 45.6993 120.267 45.5407 120.118 45.41L120.244 45.312Z" fill="white"/>
<path d="M162.544 12.792H163.456V14.688C163.456 14.712 163.388 14.756 163.252 14.82C163.116 14.884 162.932 14.916 162.7 14.916H162.544V12.792ZM160.468 11.352L161.632 11.736C161.6 11.8 161.508 11.844 161.356 11.868V12.6C161.356 12.792 161.336 13 161.296 13.224C161.256 13.448 161.172 13.676 161.044 13.908C160.916 14.132 160.724 14.348 160.468 14.556C160.212 14.764 159.868 14.948 159.436 15.108L159.328 14.94C159.672 14.7 159.924 14.448 160.084 14.184C160.244 13.92 160.348 13.656 160.396 13.392C160.444 13.12 160.468 12.86 160.468 12.612V11.352ZM160.816 12.792H163.828L164.38 12.096C164.38 12.096 164.44 12.144 164.56 12.24C164.68 12.328 164.82 12.44 164.98 12.576C165.148 12.704 165.296 12.828 165.424 12.948C165.4 13.076 165.292 13.14 165.1 13.14H160.816V12.792ZM163.9 10.908L164.812 11.82C164.684 11.924 164.476 11.912 164.188 11.784C163.9 11.832 163.564 11.876 163.18 11.916C162.796 11.956 162.396 11.992 161.98 12.024C161.572 12.048 161.176 12.064 160.792 12.072L160.732 11.868C161.092 11.796 161.468 11.704 161.86 11.592C162.26 11.48 162.64 11.364 163 11.244C163.368 11.116 163.668 11.004 163.9 10.908ZM157.72 12.792H158.608V14.7C158.608 14.732 158.54 14.78 158.404 14.844C158.276 14.908 158.096 14.94 157.864 14.94H157.72V12.792ZM155.608 11.376L156.76 11.76C156.736 11.832 156.644 11.88 156.484 11.904V12.732C156.484 12.94 156.464 13.168 156.424 13.416C156.392 13.656 156.312 13.904 156.184 14.16C156.064 14.408 155.884 14.648 155.644 14.88C155.404 15.112 155.076 15.32 154.66 15.504L154.54 15.336C154.868 15.064 155.104 14.784 155.248 14.496C155.4 14.2 155.496 13.904 155.536 13.608C155.584 13.304 155.608 13.016 155.608 12.744V11.376ZM156.076 12.792H158.788L159.304 12.144C159.304 12.144 159.36 12.188 159.472 12.276C159.584 12.364 159.716 12.472 159.868 12.6C160.02 12.72 160.16 12.836 160.288 12.948C160.256 13.076 160.152 13.14 159.976 13.14H156.076V12.792ZM159.016 10.908L159.904 11.808C159.776 11.912 159.572 11.9 159.292 11.772C159.028 11.82 158.716 11.868 158.356 11.916C157.996 11.956 157.62 11.996 157.228 12.036C156.844 12.068 156.472 12.088 156.112 12.096L156.064 11.916C156.4 11.836 156.752 11.736 157.12 11.616C157.496 11.496 157.848 11.372 158.176 11.244C158.512 11.116 158.792 11.004 159.016 10.908ZM157.12 16.644H163.036V16.992H157.12V16.644ZM157.12 18H163.036V18.348H157.12V18ZM157.12 19.356H163.036V19.692H157.12V19.356ZM162.532 15.324H162.424L162.916 14.808L163.948 15.6C163.916 15.64 163.86 15.684 163.78 15.732C163.7 15.772 163.608 15.8 163.504 15.816V19.908C163.504 19.94 163.456 19.98 163.36 20.028C163.272 20.068 163.164 20.108 163.036 20.148C162.916 20.18 162.8 20.196 162.688 20.196H162.532V15.324ZM156.64 15.324V14.892L157.672 15.324H163.108V15.672H157.6V20.064C157.6 20.096 157.56 20.14 157.48 20.196C157.4 20.244 157.3 20.288 157.18 20.328C157.06 20.368 156.932 20.388 156.796 20.388H156.64V15.324ZM158.692 20.004L159.808 20.832C159.76 20.888 159.684 20.92 159.58 20.928C159.484 20.936 159.356 20.916 159.196 20.868C158.844 21.028 158.428 21.18 157.948 21.324C157.476 21.468 156.968 21.596 156.424 21.708C155.888 21.82 155.352 21.904 154.816 21.96L154.756 21.768C155.244 21.64 155.736 21.476 156.232 21.276C156.736 21.076 157.204 20.864 157.636 20.64C158.068 20.416 158.42 20.204 158.692 20.004ZM160.72 20.268C161.56 20.3 162.256 20.368 162.808 20.472C163.36 20.568 163.792 20.68 164.104 20.808C164.416 20.936 164.632 21.068 164.752 21.204C164.88 21.34 164.932 21.464 164.908 21.576C164.884 21.688 164.816 21.78 164.704 21.852C164.592 21.924 164.456 21.956 164.296 21.948C164.144 21.948 163.992 21.9 163.84 21.804C163.536 21.572 163.116 21.332 162.58 21.084C162.052 20.844 161.416 20.636 160.672 20.46L160.72 20.268ZM167.404 12.384V12.06L168.484 12.504H168.316V15.132C168.316 15.612 168.3 16.136 168.268 16.704C168.236 17.264 168.164 17.84 168.052 18.432C167.948 19.016 167.776 19.588 167.536 20.148C167.296 20.7 166.968 21.212 166.552 21.684L166.384 21.564C166.704 20.924 166.932 20.24 167.068 19.512C167.212 18.784 167.304 18.048 167.344 17.304C167.384 16.56 167.404 15.836 167.404 15.132V12.504V12.384ZM176.656 11.82C176.656 11.82 176.708 11.868 176.812 11.964C176.916 12.052 177.036 12.164 177.172 12.3C177.316 12.428 177.444 12.552 177.556 12.672C177.532 12.8 177.432 12.864 177.256 12.864H167.908V12.504H176.152L176.656 11.82ZM171.724 15.312L172.18 14.82L173.2 15.576C173.168 15.616 173.108 15.66 173.02 15.708C172.932 15.748 172.836 15.776 172.732 15.792V17.508C172.732 17.532 172.688 17.564 172.6 17.604C172.512 17.644 172.412 17.684 172.3 17.724C172.188 17.756 172.084 17.772 171.988 17.772H171.844V15.312H171.724ZM172.132 16.956V17.304H169.444V16.956H172.132ZM169.924 17.748C169.924 17.772 169.884 17.808 169.804 17.856C169.732 17.896 169.64 17.936 169.528 17.976C169.416 18.008 169.3 18.024 169.18 18.024H169.048V15.312V14.916L169.972 15.312H172.252V15.66H169.924V17.748ZM174.892 11.028C174.884 11.1 174.848 11.168 174.784 11.232C174.728 11.288 174.62 11.328 174.46 11.352C174.452 12.176 174.472 13.012 174.52 13.86C174.576 14.708 174.676 15.528 174.82 16.32C174.972 17.112 175.184 17.848 175.456 18.528C175.736 19.2 176.092 19.78 176.524 20.268C176.604 20.372 176.664 20.424 176.704 20.424C176.752 20.416 176.804 20.352 176.86 20.232C176.932 20.088 177.016 19.888 177.112 19.632C177.216 19.368 177.304 19.12 177.376 18.888L177.532 18.912L177.304 20.82C177.464 21.108 177.556 21.324 177.58 21.468C177.612 21.62 177.592 21.728 177.52 21.792C177.384 21.904 177.22 21.936 177.028 21.888C176.844 21.848 176.652 21.756 176.452 21.612C176.26 21.468 176.096 21.308 175.96 21.132C175.472 20.54 175.068 19.872 174.748 19.128C174.436 18.376 174.192 17.56 174.016 16.68C173.84 15.792 173.716 14.86 173.644 13.884C173.572 12.908 173.536 11.904 173.536 10.872L174.892 11.028ZM172.144 13.248C172.144 13.248 172.2 13.292 172.312 13.38C172.424 13.468 172.556 13.576 172.708 13.704C172.868 13.832 173.012 13.96 173.14 14.088C173.108 14.216 173.004 14.28 172.828 14.28H168.868L168.772 13.92H171.604L172.144 13.248ZM177.124 14.1C177.092 14.164 177.036 14.216 176.956 14.256C176.876 14.296 176.768 14.308 176.632 14.292C176.32 15.044 175.94 15.696 175.492 16.248C175.052 16.8 174.56 17.268 174.016 17.652C173.472 18.028 172.888 18.336 172.264 18.576L172.132 18.42C172.668 18.116 173.172 17.732 173.644 17.268C174.124 16.796 174.548 16.252 174.916 15.636C175.292 15.02 175.592 14.332 175.816 13.572L177.124 14.1ZM175.024 10.956C175.416 11.028 175.712 11.132 175.912 11.268C176.112 11.396 176.236 11.528 176.284 11.664C176.332 11.8 176.328 11.92 176.272 12.024C176.224 12.128 176.136 12.196 176.008 12.228C175.888 12.252 175.764 12.212 175.636 12.108C175.588 11.924 175.492 11.732 175.348 11.532C175.204 11.332 175.056 11.172 174.904 11.052L175.024 10.956ZM170.44 18.456C170.416 18.616 170.3 18.708 170.092 18.732V20.772C170.092 20.844 170.112 20.892 170.152 20.916C170.192 20.94 170.288 20.952 170.44 20.952H171.28C171.464 20.952 171.624 20.952 171.76 20.952C171.904 20.952 172 20.948 172.048 20.94C172.144 20.94 172.212 20.896 172.252 20.808C172.292 20.728 172.34 20.572 172.396 20.34C172.46 20.1 172.52 19.836 172.576 19.548H172.732L172.768 20.844C172.888 20.884 172.964 20.932 172.996 20.988C173.036 21.044 173.056 21.112 173.056 21.192C173.056 21.304 173.004 21.396 172.9 21.468C172.804 21.548 172.628 21.608 172.372 21.648C172.116 21.688 171.74 21.708 171.244 21.708H170.26C169.996 21.708 169.792 21.684 169.648 21.636C169.512 21.596 169.42 21.52 169.372 21.408C169.332 21.296 169.312 21.152 169.312 20.976V18.324L170.44 18.456ZM168.652 18.804C168.82 19.364 168.876 19.848 168.82 20.256C168.772 20.664 168.676 20.96 168.532 21.144C168.46 21.224 168.372 21.284 168.268 21.324C168.164 21.372 168.064 21.388 167.968 21.372C167.872 21.356 167.792 21.308 167.728 21.228C167.664 21.116 167.656 20.996 167.704 20.868C167.752 20.74 167.832 20.632 167.944 20.544C168.04 20.44 168.128 20.296 168.208 20.112C168.288 19.92 168.348 19.708 168.388 19.476C168.436 19.244 168.452 19.02 168.436 18.804H168.652ZM172.9 18.612C173.332 18.876 173.656 19.144 173.872 19.416C174.096 19.688 174.236 19.944 174.292 20.184C174.348 20.424 174.344 20.624 174.28 20.784C174.216 20.936 174.116 21.028 173.98 21.06C173.852 21.092 173.716 21.04 173.572 20.904C173.564 20.664 173.516 20.412 173.428 20.148C173.348 19.876 173.244 19.612 173.116 19.356C172.996 19.1 172.872 18.876 172.744 18.684L172.9 18.612ZM170.536 17.94C170.976 18.14 171.308 18.356 171.532 18.588C171.756 18.812 171.9 19.024 171.964 19.224C172.028 19.424 172.032 19.596 171.976 19.74C171.928 19.876 171.84 19.96 171.712 19.992C171.592 20.024 171.46 19.98 171.316 19.86C171.3 19.66 171.244 19.448 171.148 19.224C171.052 18.992 170.936 18.772 170.8 18.564C170.664 18.356 170.528 18.176 170.392 18.024L170.536 17.94ZM183.76 12.936C183.872 13.064 183.98 13.208 184.084 13.368C184.188 13.52 184.272 13.684 184.336 13.86C184.408 14.036 184.444 14.212 184.444 14.388C184.444 14.684 184.412 15.004 184.348 15.348C184.284 15.684 184.188 16.028 184.06 16.38C183.964 16.676 183.832 16.996 183.664 17.34C183.496 17.676 183.304 18.008 183.088 18.336C182.88 18.664 182.652 18.964 182.404 19.236C182.164 19.508 181.916 19.728 181.66 19.896C181.404 20.056 181.144 20.136 180.88 20.136C180.672 20.136 180.464 20.06 180.256 19.908C180.056 19.756 179.876 19.548 179.716 19.284C179.556 19.02 179.424 18.716 179.32 18.372C179.224 18.028 179.176 17.668 179.176 17.292C179.176 16.9 179.236 16.5 179.356 16.092C179.484 15.684 179.672 15.292 179.92 14.916C180.168 14.532 180.472 14.184 180.832 13.872C181.32 13.44 181.864 13.12 182.464 12.912C183.072 12.696 183.708 12.588 184.372 12.588C185.012 12.588 185.604 12.692 186.148 12.9C186.692 13.1 187.164 13.388 187.564 13.764C187.964 14.132 188.276 14.572 188.5 15.084C188.732 15.596 188.848 16.164 188.848 16.788C188.848 17.3 188.756 17.804 188.572 18.3C188.388 18.788 188.088 19.232 187.672 19.632C187.264 20.032 186.72 20.364 186.04 20.628C185.368 20.884 184.536 21.04 183.544 21.096L183.496 20.832C184.488 20.64 185.3 20.348 185.932 19.956C186.564 19.556 187.032 19.068 187.336 18.492C187.648 17.916 187.804 17.268 187.804 16.548C187.804 15.828 187.648 15.204 187.336 14.676C187.032 14.148 186.612 13.74 186.076 13.452C185.548 13.164 184.952 13.02 184.288 13.02C183.736 13.02 183.18 13.136 182.62 13.368C182.06 13.592 181.572 13.916 181.156 14.34C180.788 14.716 180.496 15.132 180.28 15.588C180.072 16.044 179.968 16.532 179.968 17.052C179.968 17.412 180.016 17.744 180.112 18.048C180.208 18.344 180.332 18.58 180.484 18.756C180.636 18.932 180.792 19.02 180.952 19.02C181.144 19.02 181.348 18.924 181.564 18.732C181.788 18.532 182.008 18.28 182.224 17.976C182.44 17.672 182.636 17.36 182.812 17.04C182.996 16.712 183.148 16.416 183.268 16.152C183.396 15.848 183.504 15.52 183.592 15.168C183.68 14.816 183.724 14.496 183.724 14.208C183.724 13.976 183.684 13.768 183.604 13.584C183.524 13.392 183.424 13.204 183.304 13.02L183.76 12.936ZM196.624 14.46L196.744 14.28C196.96 14.328 197.156 14.392 197.332 14.472C197.516 14.544 197.668 14.644 197.788 14.772C197.86 14.852 197.9 14.936 197.908 15.024C197.924 15.104 197.912 15.2 197.872 15.312C197.744 15.672 197.544 16.08 197.272 16.536C197 16.992 196.684 17.448 196.324 17.904C195.964 18.352 195.584 18.768 195.184 19.152C194.696 19.624 194.204 19.984 193.708 20.232C193.212 20.48 192.756 20.604 192.34 20.604C192.06 20.604 191.84 20.524 191.68 20.364C191.528 20.204 191.452 19.96 191.452 19.632C191.452 19.208 191.548 18.8 191.74 18.408C191.932 18.016 192.188 17.652 192.508 17.316C192.828 16.972 193.18 16.664 193.564 16.392C193.956 16.12 194.344 15.896 194.728 15.72C195.08 15.552 195.48 15.42 195.928 15.324C196.384 15.22 196.856 15.168 197.344 15.168C198.072 15.168 198.692 15.312 199.204 15.6C199.716 15.88 200.108 16.244 200.38 16.692C200.66 17.14 200.8 17.616 200.8 18.12C200.8 18.704 200.66 19.208 200.38 19.632C200.1 20.056 199.708 20.408 199.204 20.688C198.7 20.968 198.104 21.176 197.416 21.312C196.736 21.456 195.996 21.536 195.196 21.552L195.148 21.3C196.148 21.156 196.996 20.928 197.692 20.616C198.388 20.304 198.916 19.92 199.276 19.464C199.644 19.008 199.828 18.48 199.828 17.88C199.828 17.448 199.724 17.056 199.516 16.704C199.308 16.352 199.012 16.072 198.628 15.864C198.244 15.648 197.784 15.54 197.248 15.54C196.808 15.54 196.384 15.596 195.976 15.708C195.576 15.82 195.156 15.992 194.716 16.224C194.212 16.504 193.772 16.828 193.396 17.196C193.028 17.564 192.74 17.936 192.532 18.312C192.324 18.68 192.22 19.008 192.22 19.296C192.22 19.448 192.248 19.56 192.304 19.632C192.368 19.696 192.468 19.728 192.604 19.728C192.82 19.728 193.06 19.672 193.324 19.56C193.596 19.448 193.868 19.3 194.14 19.116C194.412 18.932 194.66 18.732 194.884 18.516C195.108 18.316 195.332 18.088 195.556 17.832C195.78 17.568 195.996 17.296 196.204 17.016C196.412 16.728 196.596 16.448 196.756 16.176C196.916 15.904 197.04 15.656 197.128 15.432C197.216 15.2 197.22 15.02 197.14 14.892C197.06 14.756 196.888 14.612 196.624 14.46ZM193.972 11.868L193.984 11.64C194.096 11.6 194.212 11.564 194.332 11.532C194.46 11.5 194.568 11.484 194.656 11.484C194.888 11.484 195.108 11.52 195.316 11.592C195.524 11.664 195.692 11.752 195.82 11.856C195.956 11.96 196.024 12.056 196.024 12.144C196.024 12.224 196 12.296 195.952 12.36C195.912 12.424 195.864 12.496 195.808 12.576C195.752 12.648 195.708 12.76 195.676 12.912C195.612 13.136 195.544 13.408 195.472 13.728C195.4 14.04 195.332 14.368 195.268 14.712C195.212 15.056 195.164 15.396 195.124 15.732C195.084 16.068 195.064 16.376 195.064 16.656C195.064 17.096 195.1 17.472 195.172 17.784C195.252 18.088 195.34 18.352 195.436 18.576C195.54 18.792 195.628 18.984 195.7 19.152C195.78 19.32 195.82 19.484 195.82 19.644C195.82 19.78 195.78 19.88 195.7 19.944C195.62 20 195.52 20.028 195.4 20.028C195.232 20.028 195.084 19.932 194.956 19.74C194.828 19.54 194.72 19.284 194.632 18.972C194.544 18.66 194.48 18.32 194.44 17.952C194.4 17.576 194.38 17.212 194.38 16.86C194.38 16.5 194.404 16.096 194.452 15.648C194.508 15.2 194.568 14.756 194.632 14.316C194.704 13.876 194.764 13.48 194.812 13.128C194.868 12.776 194.896 12.52 194.896 12.36C194.896 12.248 194.88 12.172 194.848 12.132C194.824 12.092 194.764 12.056 194.668 12.024C194.572 11.984 194.464 11.952 194.344 11.928C194.224 11.904 194.1 11.884 193.972 11.868ZM191.836 13.128L192.016 12.96C192.232 13.12 192.424 13.244 192.592 13.332C192.76 13.412 192.928 13.472 193.096 13.512C193.272 13.544 193.464 13.56 193.672 13.56C193.92 13.56 194.168 13.548 194.416 13.524C194.672 13.5 194.92 13.468 195.16 13.428C195.768 13.324 196.28 13.2 196.696 13.056C197.112 12.904 197.44 12.772 197.68 12.66C197.92 12.54 198.076 12.48 198.148 12.48C198.388 12.48 198.568 12.516 198.688 12.588C198.816 12.66 198.88 12.76 198.88 12.888C198.88 12.976 198.852 13.052 198.796 13.116C198.748 13.18 198.664 13.236 198.544 13.284C198.4 13.348 198.204 13.42 197.956 13.5C197.716 13.572 197.44 13.652 197.128 13.74C196.816 13.82 196.484 13.896 196.132 13.968C195.788 14.04 195.444 14.1 195.1 14.148C194.86 14.188 194.604 14.22 194.332 14.244C194.06 14.268 193.8 14.28 193.552 14.28C193.272 14.28 193.032 14.24 192.832 14.16C192.632 14.08 192.456 13.956 192.304 13.788C192.152 13.62 191.996 13.4 191.836 13.128ZM205.504 12.084C205.584 12.26 205.68 12.424 205.792 12.576C205.904 12.728 206.036 12.804 206.188 12.804C206.3 12.804 206.464 12.784 206.68 12.744C206.896 12.704 207.128 12.656 207.376 12.6C207.632 12.544 207.872 12.484 208.096 12.42C208.328 12.356 208.516 12.304 208.66 12.264C208.772 12.232 208.852 12.2 208.9 12.168C208.956 12.128 209.004 12.096 209.044 12.072C209.092 12.04 209.144 12.024 209.2 12.024C209.304 12.024 209.424 12.056 209.56 12.12C209.696 12.176 209.824 12.256 209.944 12.36C210.064 12.456 210.164 12.56 210.244 12.672C210.324 12.784 210.364 12.888 210.364 12.984C210.364 13.064 210.332 13.132 210.268 13.188C210.204 13.244 210.116 13.3 210.004 13.356C209.892 13.412 209.768 13.5 209.632 13.62C209.464 13.748 209.252 13.924 208.996 14.148C208.748 14.372 208.484 14.612 208.204 14.868C207.932 15.124 207.676 15.368 207.436 15.6C207.196 15.832 207.012 16.016 206.884 16.152C206.836 16.208 206.82 16.252 206.836 16.284C206.86 16.316 206.9 16.32 206.956 16.296C207.204 16.208 207.5 16.12 207.844 16.032C208.196 15.936 208.584 15.888 209.008 15.888C209.528 15.888 210.008 15.996 210.448 16.212C210.896 16.428 211.248 16.74 211.504 17.148C211.768 17.556 211.896 18.044 211.888 18.612C211.88 19.116 211.728 19.58 211.432 20.004C211.136 20.428 210.712 20.764 210.16 21.012C209.616 21.268 208.952 21.396 208.168 21.396C207.712 21.396 207.308 21.336 206.956 21.216C206.612 21.096 206.34 20.928 206.14 20.712C205.948 20.488 205.852 20.224 205.852 19.92C205.852 19.576 205.988 19.292 206.26 19.068C206.532 18.844 206.872 18.732 207.28 18.732C207.576 18.732 207.868 18.8 208.156 18.936C208.452 19.072 208.704 19.28 208.912 19.56C209.12 19.832 209.248 20.188 209.296 20.628L208.468 20.772C208.412 20.268 208.252 19.884 207.988 19.62C207.732 19.348 207.424 19.212 207.064 19.212C206.848 19.212 206.668 19.268 206.524 19.38C206.38 19.492 206.308 19.644 206.308 19.836C206.308 20.052 206.44 20.236 206.704 20.388C206.976 20.54 207.384 20.616 207.928 20.616C208.616 20.616 209.184 20.512 209.632 20.304C210.088 20.096 210.424 19.82 210.64 19.476C210.856 19.124 210.968 18.748 210.976 18.348C210.984 17.996 210.904 17.668 210.736 17.364C210.576 17.052 210.332 16.8 210.004 16.608C209.676 16.416 209.268 16.32 208.78 16.32C208.212 16.32 207.696 16.432 207.232 16.656C206.776 16.872 206.352 17.164 205.96 17.532C205.576 17.892 205.216 18.292 204.88 18.732C204.776 18.86 204.688 18.952 204.616 19.008C204.544 19.056 204.456 19.076 204.352 19.068C204.256 19.068 204.168 19.016 204.088 18.912C204.008 18.808 203.972 18.672 203.98 18.504C203.988 18.376 204.028 18.26 204.1 18.156C204.172 18.044 204.284 17.908 204.436 17.748C204.772 17.404 205.124 17.048 205.492 16.68C205.86 16.304 206.224 15.94 206.584 15.588C206.952 15.228 207.292 14.884 207.604 14.556C207.916 14.228 208.188 13.936 208.42 13.68C208.652 13.424 208.82 13.212 208.924 13.044C208.996 12.948 209.016 12.884 208.984 12.852C208.952 12.812 208.896 12.8 208.816 12.816C208.68 12.84 208.496 12.892 208.264 12.972C208.04 13.052 207.808 13.14 207.568 13.236C207.336 13.332 207.136 13.42 206.968 13.5C206.856 13.548 206.752 13.608 206.656 13.68C206.56 13.752 206.456 13.788 206.344 13.788C206.168 13.788 206.004 13.732 205.852 13.62C205.7 13.508 205.572 13.376 205.468 13.224C205.364 13.072 205.3 12.936 205.276 12.816C205.252 12.704 205.244 12.592 205.252 12.48C205.26 12.36 205.276 12.236 205.3 12.108L205.504 12.084ZM217.696 13.668H223.588L224.224 12.852C224.224 12.852 224.264 12.884 224.344 12.948C224.424 13.012 224.524 13.092 224.644 13.188C224.764 13.284 224.888 13.388 225.016 13.5C225.152 13.612 225.28 13.72 225.4 13.824C225.368 13.952 225.26 14.016 225.076 14.016H217.78L217.696 13.668ZM218.032 17.076H223.432L224.032 16.308C224.032 16.308 224.068 16.34 224.14 16.404C224.22 16.46 224.316 16.536 224.428 16.632C224.548 16.72 224.672 16.82 224.8 16.932C224.928 17.036 225.044 17.136 225.148 17.232C225.116 17.36 225.012 17.424 224.836 17.424H218.128L218.032 17.076ZM217.408 21.096H223.792L224.464 20.244C224.464 20.244 224.504 20.276 224.584 20.34C224.672 20.404 224.776 20.488 224.896 20.592C225.024 20.696 225.156 20.808 225.292 20.928C225.436 21.04 225.568 21.148 225.688 21.252C225.656 21.38 225.548 21.444 225.364 21.444H217.504L217.408 21.096ZM219.832 11.004C220.384 11.116 220.828 11.26 221.164 11.436C221.508 11.612 221.768 11.8 221.944 12C222.12 12.192 222.232 12.384 222.28 12.576C222.328 12.76 222.32 12.916 222.256 13.044C222.2 13.172 222.104 13.256 221.968 13.296C221.832 13.336 221.676 13.308 221.5 13.212C221.412 12.972 221.268 12.724 221.068 12.468C220.868 12.204 220.648 11.956 220.408 11.724C220.176 11.484 219.948 11.28 219.724 11.112L219.832 11.004ZM220.804 13.74H221.824V21.3H220.804V13.74ZM215.992 14.664L216.184 14.412L217.324 14.844C217.3 14.892 217.26 14.936 217.204 14.976C217.148 15.008 217.068 15.032 216.964 15.048V21.672C216.956 21.696 216.912 21.732 216.832 21.78C216.752 21.828 216.652 21.872 216.532 21.912C216.42 21.952 216.296 21.972 216.16 21.972H215.992V14.664ZM217.06 10.908L218.5 11.352C218.468 11.424 218.416 11.484 218.344 11.532C218.272 11.58 218.168 11.6 218.032 11.592C217.752 12.36 217.428 13.084 217.06 13.764C216.692 14.444 216.288 15.072 215.848 15.648C215.416 16.216 214.96 16.716 214.48 17.148L214.312 17.04C214.672 16.544 215.024 15.968 215.368 15.312C215.712 14.656 216.028 13.952 216.316 13.2C216.612 12.448 216.86 11.684 217.06 10.908ZM227.908 11.508V11.136L229.048 11.628H228.88V14.448C228.88 14.904 228.868 15.388 228.844 15.9C228.82 16.412 228.768 16.936 228.688 17.472C228.608 18.008 228.488 18.544 228.328 19.08C228.168 19.608 227.948 20.124 227.668 20.628C227.388 21.124 227.04 21.588 226.624 22.02L226.456 21.9C226.888 21.156 227.204 20.368 227.404 19.536C227.612 18.696 227.748 17.844 227.812 16.98C227.876 16.108 227.908 15.264 227.908 14.448V11.628V11.508ZM235.24 11.628L235.744 11.076L236.836 11.916C236.804 11.964 236.74 12.012 236.644 12.06C236.556 12.1 236.452 12.132 236.332 12.156V14.568C236.332 14.592 236.284 14.628 236.188 14.676C236.1 14.716 235.992 14.756 235.864 14.796C235.744 14.828 235.628 14.844 235.516 14.844H235.36V11.628H235.24ZM235.876 13.824V14.172H228.388V13.824H235.876ZM235.84 11.628V11.976H228.376V11.628H235.84ZM236.32 15.168C236.32 15.168 236.36 15.2 236.44 15.264C236.52 15.328 236.62 15.412 236.74 15.516C236.86 15.612 236.984 15.716 237.112 15.828C237.248 15.94 237.372 16.048 237.484 16.152C237.452 16.28 237.344 16.344 237.16 16.344H228.856L228.76 15.996H235.696L236.32 15.168ZM235.012 17.964L235.516 17.412L236.596 18.24C236.564 18.288 236.5 18.336 236.404 18.384C236.316 18.424 236.212 18.456 236.092 18.48V21.552C236.092 21.576 236.044 21.612 235.948 21.66C235.86 21.708 235.756 21.752 235.636 21.792C235.516 21.832 235.4 21.852 235.288 21.852H235.132V17.964H235.012ZM230.524 21.624C230.524 21.656 230.484 21.696 230.404 21.744C230.332 21.792 230.236 21.836 230.116 21.876C229.996 21.916 229.868 21.936 229.732 21.936H229.6V17.964V17.532L230.596 17.964H235.672V18.312H230.524V21.624ZM235.66 20.832V21.18H230.032V20.832H235.66ZM233.776 14.52C233.768 14.6 233.736 14.668 233.68 14.724C233.624 14.772 233.524 14.804 233.38 14.82V18.18H232.432V14.388L233.776 14.52ZM239.944 11.796V11.676V11.34L241.072 11.796H240.904V15.456C240.904 16 240.88 16.564 240.832 17.148C240.792 17.724 240.696 18.296 240.544 18.864C240.4 19.432 240.172 19.98 239.86 20.508C239.556 21.028 239.132 21.504 238.588 21.936L238.42 21.816C238.876 21.216 239.212 20.572 239.428 19.884C239.644 19.196 239.784 18.48 239.848 17.736C239.912 16.984 239.944 16.228 239.944 15.468V11.796ZM240.472 14.592H247.78V14.952H240.472V14.592ZM240.472 11.796H247.888V12.132H240.472V11.796ZM240.4 17.472H247.78V17.82H240.4V17.472ZM247.408 11.796H247.276L247.78 11.184L248.932 12.072C248.892 12.128 248.824 12.184 248.728 12.24C248.632 12.288 248.516 12.324 248.38 12.348V20.616C248.38 20.856 248.348 21.064 248.284 21.24C248.22 21.424 248.084 21.568 247.876 21.672C247.676 21.784 247.364 21.864 246.94 21.912C246.924 21.76 246.896 21.624 246.856 21.504C246.816 21.384 246.756 21.288 246.676 21.216C246.58 21.136 246.452 21.068 246.292 21.012C246.132 20.956 245.908 20.908 245.62 20.868V20.676C245.62 20.676 245.684 20.684 245.812 20.7C245.94 20.708 246.092 20.72 246.268 20.736C246.452 20.744 246.624 20.756 246.784 20.772C246.944 20.78 247.056 20.784 247.12 20.784C247.232 20.784 247.308 20.764 247.348 20.724C247.388 20.676 247.408 20.604 247.408 20.508V11.796ZM243.556 11.832H244.516V21.552C244.516 21.592 244.444 21.652 244.3 21.732C244.164 21.812 243.972 21.852 243.724 21.852H243.556V11.832ZM259.072 12.204L259.552 11.676L260.596 12.48C260.556 12.52 260.492 12.564 260.404 12.612C260.316 12.652 260.212 12.684 260.092 12.708V15.828C260.092 15.852 260.048 15.888 259.96 15.936C259.872 15.976 259.772 16.016 259.66 16.056C259.548 16.088 259.436 16.104 259.324 16.104H259.192V12.204H259.072ZM258.064 11.064C258.048 11.144 258.008 11.212 257.944 11.268C257.888 11.324 257.784 11.364 257.632 11.388V20.148C257.632 20.188 257.592 20.232 257.512 20.28C257.44 20.328 257.348 20.368 257.236 20.4C257.124 20.432 257.008 20.448 256.888 20.448H256.696V10.908L258.064 11.064ZM259.696 16.224C259.696 16.224 259.728 16.252 259.792 16.308C259.864 16.364 259.952 16.436 260.056 16.524C260.168 16.612 260.284 16.708 260.404 16.812C260.524 16.916 260.632 17.016 260.728 17.112C260.696 17.24 260.592 17.304 260.416 17.304H254.512L254.416 16.944H259.132L259.696 16.224ZM260.224 17.784C260.224 17.784 260.26 17.816 260.332 17.88C260.412 17.936 260.512 18.012 260.632 18.108C260.752 18.204 260.876 18.304 261.004 18.408C261.14 18.512 261.26 18.616 261.364 18.72C261.348 18.784 261.312 18.832 261.256 18.864C261.208 18.896 261.14 18.912 261.052 18.912H253.888L253.792 18.564H259.6L260.224 17.784ZM260.8 13.02C260.8 13.02 260.852 13.072 260.956 13.176C261.068 13.28 261.196 13.4 261.34 13.536C261.484 13.672 261.612 13.804 261.724 13.932C261.692 14.06 261.588 14.124 261.412 14.124H253.708L253.612 13.776H260.284L260.8 13.02ZM259.588 15.36V15.72H254.668L254.56 15.36H259.588ZM259.6 12.204V12.552H254.632L254.524 12.204H259.6ZM253.636 12.42C253.548 12.628 253.432 12.88 253.288 13.176C253.144 13.472 252.988 13.788 252.82 14.124C252.66 14.452 252.5 14.772 252.34 15.084C252.188 15.388 252.048 15.652 251.92 15.876H252.004L251.644 16.212L250.78 15.576C250.852 15.52 250.952 15.464 251.08 15.408C251.208 15.352 251.324 15.316 251.428 15.3L251.056 15.648C251.176 15.432 251.316 15.168 251.476 14.856C251.644 14.544 251.812 14.216 251.98 13.872C252.148 13.52 252.304 13.184 252.448 12.864C252.592 12.544 252.704 12.272 252.784 12.048L253.636 12.42ZM252.652 12.048L253.144 11.556L254.14 12.444C254.076 12.508 253.976 12.556 253.84 12.588C253.712 12.612 253.568 12.624 253.408 12.624C253.248 12.624 253.088 12.616 252.928 12.6L252.796 12.048H252.652ZM251.008 16.692C251.312 17.572 251.68 18.28 252.112 18.816C252.544 19.344 253.064 19.748 253.672 20.028C254.28 20.3 254.988 20.484 255.796 20.58C256.612 20.676 257.552 20.724 258.616 20.724C258.784 20.724 258.992 20.724 259.24 20.724C259.496 20.724 259.764 20.724 260.044 20.724C260.324 20.724 260.596 20.724 260.86 20.724C261.124 20.716 261.356 20.712 261.556 20.712V20.868C261.348 20.9 261.192 20.988 261.088 21.132C260.992 21.284 260.936 21.456 260.92 21.648C260.736 21.648 260.492 21.648 260.188 21.648C259.892 21.648 259.588 21.648 259.276 21.648C258.972 21.648 258.724 21.648 258.532 21.648C257.436 21.648 256.472 21.584 255.64 21.456C254.816 21.336 254.1 21.104 253.492 20.76C252.892 20.416 252.376 19.928 251.944 19.296C251.512 18.656 251.144 17.816 250.84 16.776L251.008 16.692ZM253.084 15.54L253.6 15L254.536 15.828C254.472 15.924 254.324 15.98 254.092 15.996C254.004 16.588 253.88 17.172 253.72 17.748C253.568 18.316 253.356 18.86 253.084 19.38C252.812 19.892 252.46 20.368 252.028 20.808C251.604 21.24 251.072 21.624 250.432 21.96L250.324 21.78C251.004 21.292 251.54 20.72 251.932 20.064C252.324 19.408 252.616 18.696 252.808 17.928C253 17.152 253.128 16.356 253.192 15.54H253.084ZM253.684 15.54V15.888H251.356L251.536 15.54H253.684ZM253.192 12.048V12.408H250.54L250.432 12.048H253.192ZM267.856 13.692H272.092L272.632 12.912C272.632 12.912 272.688 12.964 272.8 13.068C272.92 13.172 273.056 13.296 273.208 13.44C273.36 13.584 273.496 13.72 273.616 13.848C273.584 13.976 273.48 14.04 273.304 14.04H267.952L267.856 13.692ZM270.748 10.908L272.14 11.052C272.132 11.14 272.092 11.212 272.02 11.268C271.956 11.324 271.848 11.36 271.696 11.376V20.688C271.696 20.92 271.664 21.124 271.6 21.3C271.536 21.476 271.396 21.616 271.18 21.72C270.972 21.832 270.648 21.908 270.208 21.948C270.184 21.804 270.152 21.68 270.112 21.576C270.072 21.472 270 21.388 269.896 21.324C269.792 21.244 269.648 21.176 269.464 21.12C269.288 21.072 269.04 21.028 268.72 20.988V20.808C268.72 20.808 268.792 20.812 268.936 20.82C269.08 20.828 269.256 20.84 269.464 20.856C269.672 20.872 269.868 20.884 270.052 20.892C270.236 20.9 270.364 20.904 270.436 20.904C270.556 20.904 270.636 20.884 270.676 20.844C270.724 20.796 270.748 20.724 270.748 20.628V10.908ZM270.508 13.692H271.6V13.884C271.152 15.116 270.5 16.256 269.644 17.304C268.788 18.352 267.768 19.244 266.584 19.98L266.44 19.824C267.072 19.304 267.648 18.708 268.168 18.036C268.696 17.364 269.156 16.656 269.548 15.912C269.948 15.168 270.268 14.428 270.508 13.692ZM262.576 13.692H266.2L266.764 12.936C266.764 12.936 266.824 12.988 266.944 13.092C267.064 13.188 267.204 13.308 267.364 13.452C267.532 13.588 267.676 13.724 267.796 13.86C267.764 13.988 267.66 14.052 267.484 14.052H262.672L262.576 13.692ZM264.568 13.692H265.576V13.884C265.328 14.972 264.948 15.984 264.436 16.92C263.924 17.856 263.268 18.692 262.468 19.428L262.312 19.272C262.696 18.768 263.032 18.212 263.32 17.604C263.616 16.996 263.868 16.36 264.076 15.696C264.284 15.032 264.448 14.364 264.568 13.692ZM264.664 10.908L266.032 11.052C266.024 11.14 265.988 11.212 265.924 11.268C265.868 11.324 265.764 11.364 265.612 11.388V21.66C265.612 21.7 265.572 21.744 265.492 21.792C265.412 21.84 265.316 21.884 265.204 21.924C265.092 21.964 264.976 21.984 264.856 21.984H264.664V10.908ZM265.612 15.216C266.068 15.384 266.432 15.568 266.704 15.768C266.976 15.968 267.172 16.168 267.292 16.368C267.412 16.56 267.472 16.74 267.472 16.908C267.48 17.076 267.444 17.212 267.364 17.316C267.292 17.42 267.188 17.476 267.052 17.484C266.916 17.492 266.776 17.44 266.632 17.328C266.592 17.104 266.508 16.872 266.38 16.632C266.252 16.384 266.108 16.144 265.948 15.912C265.788 15.68 265.632 15.476 265.48 15.3L265.612 15.216ZM275.872 12.828C276.024 12.98 276.164 13.112 276.292 13.224C276.428 13.328 276.584 13.408 276.76 13.464C276.944 13.52 277.18 13.548 277.468 13.548C277.74 13.54 278.032 13.512 278.344 13.464C278.664 13.408 278.98 13.34 279.292 13.26C279.604 13.18 279.896 13.096 280.168 13.008C280.44 12.912 280.668 12.824 280.852 12.744C281.092 12.64 281.252 12.56 281.332 12.504C281.42 12.448 281.508 12.42 281.596 12.42C281.748 12.42 281.884 12.448 282.004 12.504C282.132 12.56 282.196 12.66 282.196 12.804C282.196 12.884 282.164 12.96 282.1 13.032C282.044 13.096 281.956 13.16 281.836 13.224C281.668 13.304 281.416 13.404 281.08 13.524C280.744 13.644 280.36 13.76 279.928 13.872C279.504 13.984 279.06 14.08 278.596 14.16C278.14 14.232 277.696 14.268 277.264 14.268C276.944 14.268 276.692 14.224 276.508 14.136C276.324 14.048 276.172 13.908 276.052 13.716C275.932 13.524 275.796 13.272 275.644 12.96L275.872 12.828ZM280.756 19.26C280.756 19.42 280.716 19.552 280.636 19.656C280.564 19.752 280.456 19.8 280.312 19.8C280.184 19.8 280.068 19.76 279.964 19.68C279.868 19.6 279.82 19.468 279.82 19.284C279.82 19.156 279.828 18.98 279.844 18.756C279.86 18.532 279.872 18.288 279.88 18.024C279.896 17.752 279.896 17.488 279.88 17.232C279.872 16.704 279.808 16.332 279.688 16.116C279.568 15.892 279.352 15.78 279.04 15.78C278.824 15.78 278.596 15.848 278.356 15.984C278.124 16.12 277.9 16.284 277.684 16.476C277.476 16.668 277.288 16.856 277.12 17.04C276.984 17.192 276.852 17.356 276.724 17.532C276.596 17.7 276.472 17.844 276.352 17.964C276.24 18.076 276.128 18.136 276.016 18.144C275.88 18.144 275.768 18.092 275.68 17.988C275.6 17.876 275.56 17.736 275.56 17.568C275.552 17.392 275.64 17.22 275.824 17.052C276.016 16.884 276.244 16.664 276.508 16.392C276.82 16.08 277.112 15.744 277.384 15.384C277.656 15.016 277.9 14.648 278.116 14.28C278.332 13.912 278.508 13.568 278.644 13.248C278.788 12.928 278.884 12.656 278.932 12.432C278.964 12.328 278.968 12.248 278.944 12.192C278.92 12.128 278.852 12.068 278.74 12.012C278.668 11.972 278.572 11.936 278.452 11.904C278.332 11.864 278.196 11.828 278.044 11.796L278.056 11.592C278.184 11.552 278.312 11.516 278.44 11.484C278.576 11.444 278.692 11.428 278.788 11.436C278.892 11.436 279.012 11.448 279.148 11.472C279.292 11.488 279.432 11.52 279.568 11.568C279.704 11.616 279.816 11.672 279.904 11.736C279.992 11.8 280.036 11.872 280.036 11.952C280.036 12.032 280.012 12.108 279.964 12.18C279.924 12.244 279.876 12.34 279.82 12.468C279.748 12.604 279.664 12.772 279.568 12.972C279.472 13.172 279.372 13.364 279.268 13.548C279.124 13.82 278.948 14.132 278.74 14.484C278.532 14.828 278.248 15.236 277.888 15.708C277.864 15.748 277.86 15.78 277.876 15.804C277.892 15.82 277.92 15.816 277.96 15.792C278.16 15.68 278.368 15.58 278.584 15.492C278.808 15.404 279.04 15.36 279.28 15.36C279.68 15.36 279.996 15.492 280.228 15.756C280.46 16.02 280.6 16.396 280.648 16.884C280.688 17.124 280.712 17.396 280.72 17.7C280.736 18.004 280.744 18.3 280.744 18.588C280.752 18.868 280.756 19.092 280.756 19.26ZM282.988 14.328C283.236 14.36 283.432 14.4 283.576 14.448C283.72 14.488 283.852 14.548 283.972 14.628C284.084 14.7 284.196 14.796 284.308 14.916C284.42 15.028 284.512 15.152 284.584 15.288C284.656 15.416 284.692 15.54 284.692 15.66C284.692 15.748 284.668 15.816 284.62 15.864C284.58 15.904 284.508 15.94 284.404 15.972C284.308 15.996 284.176 16.036 284.008 16.092C283.736 16.172 283.432 16.272 283.096 16.392C282.76 16.504 282.412 16.632 282.052 16.776C281.7 16.912 281.352 17.056 281.008 17.208C280.672 17.36 280.368 17.512 280.096 17.664C279.688 17.888 279.32 18.124 278.992 18.372C278.672 18.612 278.416 18.856 278.224 19.104C278.032 19.352 277.936 19.6 277.936 19.848C277.936 20.048 278.008 20.216 278.152 20.352C278.304 20.488 278.516 20.592 278.788 20.664C279.06 20.736 279.388 20.772 279.772 20.772C280.364 20.772 280.848 20.74 281.224 20.676C281.6 20.612 281.908 20.548 282.148 20.484C282.396 20.42 282.608 20.388 282.784 20.388C282.944 20.388 283.08 20.404 283.192 20.436C283.312 20.468 283.404 20.52 283.468 20.592C283.532 20.656 283.564 20.74 283.564 20.844C283.564 20.948 283.532 21.044 283.468 21.132C283.412 21.22 283.28 21.292 283.072 21.348C282.936 21.388 282.716 21.432 282.412 21.48C282.116 21.536 281.788 21.58 281.428 21.612C281.076 21.652 280.728 21.672 280.384 21.672C279.632 21.672 279.036 21.596 278.596 21.444C278.164 21.292 277.852 21.088 277.66 20.832C277.476 20.576 277.384 20.288 277.384 19.968C277.384 19.704 277.46 19.444 277.612 19.188C277.764 18.924 277.968 18.668 278.224 18.42C278.48 18.164 278.776 17.916 279.112 17.676C279.448 17.436 279.796 17.204 280.156 16.98C280.396 16.836 280.66 16.692 280.948 16.548C281.244 16.396 281.54 16.252 281.836 16.116C282.14 15.972 282.424 15.84 282.688 15.72C282.952 15.592 283.184 15.476 283.384 15.372C283.488 15.316 283.544 15.256 283.552 15.192C283.568 15.12 283.532 15.04 283.444 14.952C283.388 14.872 283.304 14.796 283.192 14.724C283.088 14.652 282.976 14.588 282.856 14.532L282.988 14.328ZM288.64 19.044C288.912 19.564 289.24 19.948 289.624 20.196C290.016 20.444 290.488 20.608 291.04 20.688C291.6 20.76 292.272 20.796 293.056 20.796C293.32 20.796 293.66 20.796 294.076 20.796C294.492 20.796 294.932 20.796 295.396 20.796C295.86 20.796 296.3 20.796 296.716 20.796C297.14 20.788 297.488 20.78 297.76 20.772V20.928C297.584 20.96 297.448 21.044 297.352 21.18C297.264 21.324 297.216 21.492 297.208 21.684C296.976 21.684 296.676 21.684 296.308 21.684C295.948 21.684 295.56 21.684 295.144 21.684C294.736 21.684 294.344 21.684 293.968 21.684C293.592 21.684 293.28 21.684 293.032 21.684C292.216 21.684 291.52 21.616 290.944 21.48C290.368 21.344 289.884 21.096 289.492 20.736C289.1 20.368 288.76 19.832 288.472 19.128L288.64 19.044ZM289.3 14.364C289.212 14.524 289.096 14.716 288.952 14.94C288.816 15.164 288.668 15.4 288.508 15.648C288.356 15.896 288.204 16.136 288.052 16.368C287.9 16.592 287.764 16.788 287.644 16.956H287.752L287.38 17.268L286.624 16.632C286.696 16.576 286.796 16.524 286.924 16.476C287.06 16.428 287.18 16.4 287.284 16.392L286.888 16.704C287.008 16.544 287.144 16.348 287.296 16.116C287.448 15.884 287.604 15.64 287.764 15.384C287.924 15.12 288.072 14.868 288.208 14.628C288.352 14.38 288.468 14.172 288.556 14.004L289.3 14.364ZM288.472 13.992L288.928 13.536L289.852 14.352C289.764 14.432 289.612 14.488 289.396 14.52C289.18 14.544 288.968 14.544 288.76 14.52L288.628 13.992H288.472ZM288.664 16.644L289.18 16.128L290.08 16.932C290.008 17.02 289.852 17.072 289.612 17.088C289.468 17.68 289.26 18.276 288.988 18.876C288.716 19.468 288.372 20.032 287.956 20.568C287.548 21.104 287.048 21.58 286.456 21.996L286.324 21.852C286.772 21.412 287.16 20.904 287.488 20.328C287.824 19.744 288.1 19.136 288.316 18.504C288.532 17.872 288.688 17.252 288.784 16.644H288.664ZM288.88 13.992V14.34H286.66L286.552 13.992H288.88ZM289.18 16.644V16.992H287.26L287.392 16.644H289.18ZM287.248 10.896C287.688 11.032 288.036 11.192 288.292 11.376C288.556 11.552 288.744 11.74 288.856 11.94C288.976 12.132 289.036 12.312 289.036 12.48C289.044 12.64 289.008 12.776 288.928 12.888C288.848 13 288.744 13.064 288.616 13.08C288.488 13.088 288.348 13.036 288.196 12.924C288.164 12.708 288.092 12.48 287.98 12.24C287.868 12 287.736 11.772 287.584 11.556C287.432 11.332 287.276 11.14 287.116 10.98L287.248 10.896ZM290.248 11.208L291.22 11.616H291.064V12.336C291.064 12.336 290.996 12.336 290.86 12.336C290.732 12.336 290.528 12.336 290.248 12.336V11.616V11.208ZM290.164 14.64C290.356 14.624 290.616 14.596 290.944 14.556C291.272 14.508 291.644 14.452 292.06 14.388C292.476 14.324 292.9 14.26 293.332 14.196L293.368 14.376C293.168 14.448 292.912 14.54 292.6 14.652C292.288 14.764 291.944 14.884 291.568 15.012C291.192 15.14 290.808 15.268 290.416 15.396L290.164 14.64ZM290.884 11.772L291.064 11.892V14.748L290.464 14.964L290.74 14.7C290.78 14.94 290.752 15.124 290.656 15.252C290.56 15.38 290.464 15.468 290.368 15.516L290.008 14.712C290.112 14.648 290.176 14.592 290.2 14.544C290.232 14.488 290.248 14.412 290.248 14.316V11.772H290.884ZM294.004 18.456C294.636 18.568 295.152 18.7 295.552 18.852C295.96 18.996 296.272 19.148 296.488 19.308C296.712 19.46 296.864 19.608 296.944 19.752C297.024 19.896 297.048 20.024 297.016 20.136C296.992 20.248 296.932 20.336 296.836 20.4C296.748 20.456 296.644 20.48 296.524 20.472C296.404 20.456 296.288 20.396 296.176 20.292C295.984 20.028 295.696 19.752 295.312 19.464C294.936 19.168 294.472 18.896 293.92 18.648L294.004 18.456ZM292.324 11.616L292.732 11.184L293.62 11.868C293.588 11.9 293.536 11.936 293.464 11.976C293.392 12.016 293.308 12.044 293.212 12.06V13.512C293.212 13.536 293.172 13.572 293.092 13.62C293.02 13.66 292.932 13.696 292.828 13.728C292.732 13.76 292.636 13.776 292.54 13.776H292.42V11.616H292.324ZM292.828 13.008V13.368H290.656V13.008H292.828ZM295.9 11.616L296.308 11.184L297.208 11.868C297.136 11.964 297 12.028 296.8 12.06V13.428C296.8 13.452 296.76 13.484 296.68 13.524C296.608 13.564 296.52 13.6 296.416 13.632C296.312 13.664 296.216 13.68 296.128 13.68H295.996V11.616H295.9ZM296.344 11.616V11.976H294.208L294.1 11.616H296.344ZM293.812 11.232V11.208L294.784 11.616H294.64V14.088C294.64 14.16 294.656 14.208 294.688 14.232C294.72 14.256 294.808 14.268 294.952 14.268H295.672C295.816 14.268 295.948 14.268 296.068 14.268C296.196 14.268 296.288 14.268 296.344 14.268C296.384 14.268 296.42 14.268 296.452 14.268C296.492 14.26 296.528 14.256 296.56 14.256C296.592 14.248 296.628 14.24 296.668 14.232C296.716 14.224 296.756 14.216 296.788 14.208H296.896H296.944C297.072 14.256 297.164 14.3 297.22 14.34C297.276 14.372 297.304 14.428 297.304 14.508C297.304 14.612 297.252 14.696 297.148 14.76C297.052 14.824 296.88 14.872 296.632 14.904C296.392 14.928 296.044 14.94 295.588 14.94L294.736 14.928C294.472 14.928 294.272 14.904 294.136 14.856C294.008 14.808 293.92 14.732 293.872 14.628C293.832 14.524 293.812 14.388 293.812 14.22V11.616V11.232ZM293.296 18.864C293.264 18.928 293.204 18.972 293.116 18.996C293.028 19.012 292.904 19.012 292.744 18.996C292.552 19.164 292.308 19.34 292.012 19.524C291.716 19.7 291.396 19.868 291.052 20.028C290.708 20.18 290.356 20.304 289.996 20.4L289.888 20.244C290.184 20.084 290.472 19.892 290.752 19.668C291.04 19.436 291.296 19.2 291.52 18.96C291.752 18.72 291.932 18.5 292.06 18.3L293.296 18.864ZM295.516 15.168C295.508 15.232 295.48 15.288 295.432 15.336C295.392 15.376 295.316 15.408 295.204 15.432V18.06H294.328V15.048L295.516 15.168ZM292.996 15.144C292.988 15.208 292.96 15.264 292.912 15.312C292.864 15.352 292.788 15.384 292.684 15.408V18.06H291.796V15.024L292.996 15.144ZM296.488 17.196C296.488 17.196 296.544 17.244 296.656 17.34C296.768 17.428 296.9 17.54 297.052 17.676C297.212 17.812 297.352 17.94 297.472 18.06C297.44 18.188 297.336 18.252 297.16 18.252H289.912L289.816 17.904H295.948L296.488 17.196ZM296.296 15.636C296.296 15.636 296.348 15.68 296.452 15.768C296.556 15.848 296.68 15.952 296.824 16.08C296.968 16.2 297.096 16.32 297.208 16.44C297.184 16.568 297.08 16.632 296.896 16.632H290.404L290.308 16.284H295.804L296.296 15.636ZM296.32 13.008V13.368H294.256V13.008H296.32ZM292.888 11.616V11.976H290.68L290.572 11.616H292.888ZM307.42 14.22C307.3 14.06 307.152 13.88 306.976 13.68C306.8 13.472 306.572 13.268 306.292 13.068L306.448 12.864C306.808 12.984 307.104 13.116 307.336 13.26C307.576 13.396 307.776 13.544 307.936 13.704C308.08 13.832 308.184 13.956 308.248 14.076C308.312 14.188 308.344 14.308 308.344 14.436C308.344 14.532 308.308 14.612 308.236 14.676C308.172 14.74 308.088 14.772 307.984 14.772C307.888 14.772 307.8 14.72 307.72 14.616C307.64 14.504 307.54 14.372 307.42 14.22ZM308.56 13.224C308.44 13.072 308.296 12.912 308.128 12.744C307.96 12.568 307.728 12.372 307.432 12.156L307.564 11.976C307.916 12.072 308.212 12.184 308.452 12.312C308.692 12.432 308.892 12.556 309.052 12.684C309.348 12.932 309.496 13.18 309.496 13.428C309.496 13.54 309.464 13.628 309.4 13.692C309.336 13.748 309.252 13.776 309.148 13.776C309.052 13.776 308.964 13.724 308.884 13.62C308.804 13.508 308.696 13.376 308.56 13.224ZM302.584 12.3L302.704 12.024C303.016 12.08 303.32 12.148 303.616 12.228C303.912 12.3 304.188 12.412 304.444 12.564C304.812 12.756 305.12 13.012 305.368 13.332C305.624 13.644 305.752 13.98 305.752 14.34C305.752 14.452 305.716 14.536 305.644 14.592C305.58 14.64 305.492 14.672 305.38 14.688C305.268 14.704 305.144 14.716 305.008 14.724C304.88 14.724 304.756 14.736 304.636 14.76C304.5 14.776 304.344 14.812 304.168 14.868C304 14.924 303.832 14.996 303.664 15.084C303.496 15.172 303.356 15.272 303.244 15.384C303.14 15.496 303.088 15.616 303.088 15.744C303.088 15.864 303.14 16 303.244 16.152C303.356 16.304 303.492 16.46 303.652 16.62C303.82 16.78 303.992 16.94 304.168 17.1C304.352 17.26 304.512 17.412 304.648 17.556C305.008 17.924 305.26 18.288 305.404 18.648C305.556 19 305.632 19.36 305.632 19.728C305.632 20.16 305.496 20.484 305.224 20.7C304.952 20.908 304.584 21.012 304.12 21.012C303.952 21.012 303.788 21 303.628 20.976C303.476 20.952 303.316 20.916 303.148 20.868C302.98 20.82 302.796 20.76 302.596 20.688C302.332 20.584 302.044 20.472 301.732 20.352C301.42 20.224 301.092 20.072 300.748 19.896L300.94 19.62C301.196 19.724 301.472 19.828 301.768 19.932C302.072 20.028 302.376 20.108 302.68 20.172C302.992 20.236 303.288 20.268 303.568 20.268C303.968 20.268 304.252 20.196 304.42 20.052C304.596 19.908 304.684 19.712 304.684 19.464C304.684 19.192 304.628 18.924 304.516 18.66C304.404 18.396 304.22 18.104 303.964 17.784C303.772 17.536 303.572 17.3 303.364 17.076C303.156 16.844 302.976 16.616 302.824 16.392C302.68 16.16 302.608 15.94 302.608 15.732C302.608 15.564 302.672 15.404 302.8 15.252C302.936 15.092 303.096 14.944 303.28 14.808C303.472 14.672 303.664 14.548 303.856 14.436C304.048 14.316 304.204 14.212 304.324 14.124C304.436 14.044 304.496 13.972 304.504 13.908C304.52 13.836 304.5 13.748 304.444 13.644C304.316 13.38 304.084 13.132 303.748 12.9C303.412 12.668 303.024 12.468 302.584 12.3ZM298.804 19.2C298.86 19.44 298.948 19.644 299.068 19.812C299.196 19.98 299.324 20.064 299.452 20.064C299.516 20.064 299.588 20.048 299.668 20.016C299.748 19.984 299.86 19.924 300.004 19.836C300.156 19.748 300.356 19.624 300.604 19.464C301.012 19.184 301.416 18.916 301.816 18.66C302.216 18.396 302.616 18.16 303.016 17.952C303.416 17.744 303.824 17.58 304.24 17.46C304.664 17.34 305.1 17.28 305.548 17.28C306.06 17.28 306.524 17.352 306.94 17.496C307.356 17.64 307.72 17.828 308.032 18.06C308.344 18.284 308.584 18.524 308.752 18.78C308.912 19.012 309.028 19.22 309.1 19.404C309.172 19.588 309.208 19.772 309.208 19.956C309.208 20.1 309.168 20.232 309.088 20.352C309.008 20.464 308.88 20.52 308.704 20.52C308.56 20.52 308.444 20.452 308.356 20.316C308.268 20.172 308.184 19.992 308.104 19.776C308 19.512 307.868 19.26 307.708 19.02C307.556 18.772 307.368 18.548 307.144 18.348C306.92 18.14 306.66 17.98 306.364 17.868C306.068 17.748 305.736 17.688 305.368 17.688C304.968 17.688 304.576 17.756 304.192 17.892C303.816 18.02 303.436 18.204 303.052 18.444C302.668 18.684 302.28 18.968 301.888 19.296C301.496 19.616 301.092 19.964 300.676 20.34C300.54 20.468 300.42 20.6 300.316 20.736C300.212 20.872 300.112 20.984 300.016 21.072C299.92 21.168 299.804 21.216 299.668 21.216C299.532 21.216 299.368 21.148 299.176 21.012C298.992 20.876 298.828 20.704 298.684 20.496C298.54 20.288 298.468 20.08 298.468 19.872C298.468 19.76 298.476 19.648 298.492 19.536C298.516 19.416 298.54 19.308 298.564 19.212L298.804 19.2Z" fill="white"/>
<line y1="29.5" x2="310" y2="29.5" stroke="white"/>
</svg>
