<svg width="1240" height="124" viewBox="0 0 1240 124" fill="none" xmlns="http://www.w3.org/2000/svg">
<path d="M15.07 55.88C11.2567 55.88 8.26833 55.0917 6.105 53.515C3.97833 51.9383 2.73167 49.7017 2.365 46.805C2.62167 46.035 3.025 45.4667 3.575 45.1C4.16167 44.7333 4.785 44.55 5.445 44.55C6.39833 44.55 7.15 44.8433 7.7 45.43C8.28667 46.0167 8.70833 47.0983 8.965 48.675L10.175 54.34L7.59 52.635C8.43333 53.075 9.24 53.4233 10.01 53.68C10.8167 53.9367 11.7333 54.065 12.76 54.065C15.6567 54.065 17.8933 53.2583 19.47 51.645C21.0467 49.995 21.835 47.6483 21.835 44.605C21.835 41.415 21.065 38.995 19.525 37.345C18.0217 35.6583 15.7667 34.815 12.76 34.815H10.505V32.725H12.485C14.9783 32.725 17.0133 31.955 18.59 30.415C20.1667 28.875 20.955 26.5283 20.955 23.375C20.955 20.6983 20.3317 18.6633 19.085 17.27C17.875 15.8767 16.17 15.18 13.97 15.18C13.1633 15.18 12.3017 15.29 11.385 15.51C10.505 15.6933 9.53333 16.0233 8.47 16.5L11.55 15.07L10.34 20.46C10.0833 21.7067 9.625 22.5683 8.965 23.045C8.305 23.5217 7.535 23.76 6.655 23.76C6.06833 23.76 5.53667 23.6317 5.06 23.375C4.58333 23.0817 4.21667 22.6783 3.96 22.165C4.10667 20.1117 4.74833 18.4433 5.885 17.16C7.02167 15.84 8.47 14.8867 10.23 14.3C12.0267 13.6767 13.97 13.365 16.06 13.365C20.13 13.365 23.1733 14.2817 25.19 16.115C27.2433 17.9117 28.27 20.24 28.27 23.1C28.27 24.9333 27.8117 26.62 26.895 28.16C26.015 29.7 24.6217 30.9833 22.715 32.01C20.8083 33.0367 18.2783 33.6967 15.125 33.99V33.22C18.6083 33.4033 21.395 33.99 23.485 34.98C25.6117 35.97 27.1517 37.29 28.105 38.94C29.0583 40.59 29.535 42.4783 29.535 44.605C29.535 46.8417 28.93 48.8217 27.72 50.545C26.5467 52.2317 24.8783 53.5517 22.715 54.505C20.5517 55.4217 18.0033 55.88 15.07 55.88ZM65.7705 41.416C65.2585 41.864 64.3945 41.832 63.1785 41.32C62.0905 41.576 60.8105 41.816 59.3385 42.04C57.8665 42.232 56.3305 42.408 54.7305 42.568C53.1625 42.728 51.6105 42.84 50.0745 42.904L49.9305 42.136C51.2745 41.752 52.6825 41.288 54.1545 40.744C55.6265 40.2 57.0185 39.64 58.3305 39.064C59.6745 38.456 60.7625 37.896 61.5945 37.384L65.7705 41.416ZM55.2585 37.672C55.2585 37.8 55.0825 37.96 54.7305 38.152C54.3785 38.344 53.9305 38.52 53.3865 38.68C52.8425 38.84 52.2985 38.92 51.7545 38.92H51.1305V29.656V27.88L55.4505 29.656H62.5545V31H55.2585V37.672ZM62.0265 35.32V36.712H53.6745V35.32H62.0265ZM59.4345 29.656L61.4025 27.544L65.6745 30.76C65.5465 30.92 65.3225 31.08 65.0025 31.24C64.7145 31.4 64.3625 31.512 63.9465 31.576V36.808C63.9465 36.904 63.7385 37.048 63.3225 37.24C62.9385 37.4 62.4745 37.544 61.9305 37.672C61.4185 37.8 60.9545 37.864 60.5385 37.864H59.8665V29.656H59.4345ZM48.9225 51.736C49.9465 51.64 51.3545 51.48 53.1465 51.256C54.9385 51 56.9545 50.696 59.1945 50.344C61.4345 49.992 63.7385 49.64 66.1065 49.288L66.1545 49.864C64.7465 50.632 62.9705 51.528 60.8265 52.552C58.7145 53.576 56.1225 54.728 53.0505 56.008C52.9225 56.328 52.7465 56.584 52.5225 56.776C52.3305 57 52.1065 57.144 51.8505 57.208L48.9225 51.736ZM72.2985 15.16C72.2665 15.48 72.1225 15.768 71.8665 16.024C71.6105 16.28 71.1785 16.44 70.5705 16.504C70.4745 20.216 70.4265 23.816 70.4265 27.304C70.4265 30.792 70.5385 34.072 70.7625 37.144C70.9865 40.216 71.4025 42.968 72.0105 45.4C72.6505 47.832 73.5465 49.864 74.6985 51.496C74.9545 51.848 75.1465 52.008 75.2745 51.976C75.4025 51.944 75.5785 51.704 75.8025 51.256C76.1225 50.648 76.4745 49.816 76.8585 48.76C77.2745 47.704 77.6265 46.696 77.9145 45.736L78.4905 45.832L77.5785 53.704C78.1865 55.016 78.5385 56.04 78.6345 56.776C78.7625 57.544 78.6505 58.072 78.2985 58.36C77.6265 58.936 76.8905 59.144 76.0905 58.984C75.2905 58.856 74.5065 58.504 73.7385 57.928C72.9705 57.384 72.3625 56.792 71.9145 56.152C70.3145 53.976 69.0825 51.432 68.2185 48.52C67.3865 45.608 66.7785 42.376 66.3945 38.824C66.0425 35.272 65.8345 31.448 65.7705 27.352C65.7065 23.256 65.6745 18.936 65.6745 14.392L72.2985 15.16ZM79.5465 31.816C79.4185 32.104 79.2105 32.328 78.9225 32.488C78.6665 32.648 78.2185 32.728 77.5785 32.728C77.0345 35.16 76.3145 37.64 75.4185 40.168C74.5545 42.696 73.4345 45.144 72.0585 47.512C70.6825 49.848 68.9545 52.008 66.8745 53.992C64.7945 55.944 62.2825 57.64 59.3385 59.08L58.9065 58.504C61.2745 56.872 63.3065 54.968 65.0025 52.792C66.6985 50.616 68.1065 48.28 69.2265 45.784C70.3465 43.256 71.2265 40.664 71.8665 38.008C72.5065 35.352 72.9865 32.712 73.3065 30.088L79.5465 31.816ZM74.8425 22.12C74.8425 22.12 75.0985 22.344 75.6105 22.792C76.1545 23.208 76.7785 23.736 77.4825 24.376C78.1865 24.984 78.8105 25.56 79.3545 26.104C79.2265 26.616 78.7945 26.872 78.0585 26.872H49.7865L49.4025 25.48H72.3945L74.8425 22.12ZM62.2185 43.336C62.2185 43.336 62.4265 43.512 62.8425 43.864C63.2905 44.184 63.8025 44.584 64.3785 45.064C64.9865 45.512 65.5305 45.96 66.0105 46.408C65.8825 46.92 65.4665 47.176 64.7625 47.176H50.3145L49.9305 45.784H60.1545L62.2185 43.336ZM62.1225 17.656C62.1225 17.656 62.3465 17.848 62.7945 18.232C63.2425 18.584 63.7545 19.016 64.3305 19.528C64.9385 20.008 65.4665 20.488 65.9145 20.968C65.8185 21.48 65.4185 21.736 64.7145 21.736H50.9385L50.5545 20.392H60.0585L62.1225 17.656ZM61.4025 15.256C61.3705 15.544 61.2425 15.8 61.0185 16.024C60.8265 16.216 60.4425 16.36 59.8665 16.456V26.536H55.2105V14.68L61.4025 15.256ZM71.9145 16.696C73.7385 17.176 75.0665 17.784 75.8985 18.52C76.7625 19.224 77.2425 19.944 77.3385 20.68C77.4665 21.416 77.3225 22.04 76.9065 22.552C76.5225 23.064 75.9945 23.352 75.3225 23.416C74.6825 23.48 74.0265 23.208 73.3545 22.6C73.3545 21.64 73.1465 20.632 72.7305 19.576C72.3465 18.52 71.8985 17.64 71.3865 16.936L71.9145 16.696ZM59.7225 41.176V51.928L55.1625 52.984V41.176H59.7225ZM51.0825 39.592C50.9865 39.88 50.7945 40.12 50.5065 40.312C50.2185 40.472 49.8345 40.552 49.3545 40.552C48.9385 41.8 48.4425 43.112 47.8665 44.488C47.3225 45.832 46.6825 47.032 45.9465 48.088L45.1305 47.8C45.3865 46.456 45.6105 44.904 45.8025 43.144C46.0265 41.352 46.1705 39.624 46.2345 37.96L51.0825 39.592ZM35.3385 38.44C36.7465 39.656 37.7545 40.872 38.3625 42.088C39.0025 43.272 39.3385 44.344 39.3705 45.304C39.4025 46.264 39.2425 47.048 38.8905 47.656C38.5385 48.232 38.0905 48.552 37.5465 48.616C37.0025 48.68 36.4585 48.408 35.9145 47.8C36.0425 46.808 36.0425 45.768 35.9145 44.68C35.7865 43.592 35.6105 42.52 35.3865 41.464C35.1625 40.408 34.9065 39.464 34.6185 38.632L35.3385 38.44ZM34.0425 52.456C34.9705 52.328 36.2985 52.088 38.0265 51.736C39.7865 51.352 41.7705 50.92 43.9785 50.44C46.1865 49.96 48.4425 49.448 50.7465 48.904L50.8425 49.48C49.3705 50.376 47.5145 51.464 45.2745 52.744C43.0345 53.992 40.3785 55.384 37.3065 56.92C37.0505 57.624 36.6505 58.056 36.1065 58.216L34.0425 52.456ZM44.4105 27.208V52.168L39.9465 53.416V27.208H44.4105ZM46.7625 31.624C46.7625 31.624 46.9865 31.832 47.4345 32.248C47.8825 32.664 48.4105 33.176 49.0185 33.784C49.6265 34.36 50.1545 34.92 50.6025 35.464C50.5065 35.976 50.1065 36.232 49.4025 36.232H34.9545L34.5705 34.84H44.6025L46.7625 31.624ZM44.8905 23.752C44.8905 23.752 45.1305 23.96 45.6105 24.376C46.1225 24.76 46.6985 25.224 47.3385 25.768C48.0105 26.312 48.6185 26.84 49.1625 27.352C49.0345 27.864 48.6185 28.12 47.9145 28.12H36.5865L36.2025 26.776H42.5385L44.8905 23.752ZM43.6905 16.696C45.6105 17.528 47.0665 18.376 48.0585 19.24C49.0505 20.104 49.6905 20.92 49.9785 21.688C50.2665 22.424 50.2985 23.096 50.0745 23.704C49.8825 24.28 49.5145 24.712 48.9705 25C48.4585 25.256 47.9145 25.336 47.3385 25.24C46.7625 25.112 46.2185 24.76 45.7065 24.184C45.5785 23.192 45.3065 22.024 44.8905 20.68C44.4745 19.304 43.8825 17.992 43.1145 16.744L43.6905 16.696ZM44.4105 16.936C43.8025 18.408 42.9865 19.976 41.9625 21.64C40.9705 23.272 39.8185 24.856 38.5065 26.392C37.2265 27.928 35.8665 29.256 34.4265 30.376L33.8985 30.04C34.5385 29.016 35.1465 27.832 35.7225 26.488C36.3305 25.112 36.8905 23.688 37.4025 22.216C37.9145 20.744 38.3465 19.32 38.6985 17.944C39.0505 16.536 39.3225 15.288 39.5145 14.2L46.2825 15.928C46.2185 16.184 46.0425 16.408 45.7545 16.6C45.4985 16.792 45.0505 16.904 44.4105 16.936ZM83.9575 55V50.71C85.6442 48.84 87.2759 46.9883 88.8525 45.155C90.4292 43.3217 91.8959 41.635 93.2525 40.095C95.2692 37.785 96.8825 35.7683 98.0925 34.045C99.3392 32.3217 100.256 30.6717 100.843 29.095C101.466 27.5183 101.778 25.795 101.778 23.925C101.778 21.1383 101.136 18.9933 99.8525 17.49C98.6059 15.95 96.8642 15.18 94.6275 15.18C93.7842 15.18 92.9225 15.29 92.0425 15.51C91.1625 15.73 90.2459 16.0967 89.2925 16.61L91.8775 15.235L90.6125 21.01C90.3192 22.5867 89.8242 23.65 89.1275 24.2C88.4675 24.75 87.7525 25.025 86.9825 25.025C86.2859 25.025 85.6442 24.8233 85.0575 24.42C84.5075 24.0167 84.1042 23.5033 83.8475 22.88C84.0309 20.79 84.7459 19.0483 85.9925 17.655C87.2759 16.225 88.8892 15.1617 90.8325 14.465C92.8125 13.7317 94.9025 13.365 97.1025 13.365C101.246 13.365 104.308 14.3733 106.288 16.39C108.304 18.4067 109.313 21.0467 109.313 24.31C109.313 26.2167 108.799 28.0317 107.773 29.755C106.746 31.4417 105.188 33.2933 103.098 35.31C101.044 37.29 98.4225 39.655 95.2325 42.405C94.6092 42.955 93.8392 43.6517 92.9225 44.495C92.0425 45.3017 91.0709 46.2 90.0075 47.19C88.9809 48.1433 87.9359 49.1333 86.8725 50.16L87.4775 48.235V49.225H110.523V55H83.9575ZM145.563 42.856C148.411 44.04 150.715 45.336 152.475 46.744C154.235 48.152 155.531 49.544 156.363 50.92C157.227 52.264 157.707 53.496 157.803 54.616C157.931 55.736 157.787 56.648 157.371 57.352C156.955 58.088 156.347 58.504 155.547 58.6C154.779 58.696 153.931 58.376 153.003 57.64C152.683 56.456 152.235 55.224 151.659 53.944C151.115 52.664 150.475 51.4 149.739 50.152C149.003 48.872 148.219 47.64 147.387 46.456C146.587 45.272 145.803 44.168 145.035 43.144L145.563 42.856ZM145.659 14.968C145.627 15.288 145.483 15.576 145.227 15.832C144.971 16.088 144.523 16.248 143.883 16.312V32.344C143.883 35.16 143.643 37.88 143.163 40.504C142.683 43.128 141.867 45.624 140.715 47.992C139.595 50.328 138.011 52.456 135.963 54.376C133.947 56.264 131.371 57.88 128.235 59.224L127.803 58.744C129.947 57.112 131.691 55.304 133.035 53.32C134.411 51.304 135.467 49.176 136.203 46.936C136.939 44.664 137.451 42.312 137.739 39.88C138.027 37.416 138.171 34.904 138.171 32.344V14.248L145.659 14.968ZM147.723 23.176L150.363 20.392L155.595 24.376C155.467 24.568 155.227 24.76 154.875 24.952C154.555 25.112 154.139 25.24 153.627 25.336V38.824H148.203V23.176H147.723ZM155.883 34.456C155.883 34.456 156.139 34.712 156.651 35.224C157.163 35.704 157.755 36.28 158.427 36.952C159.131 37.624 159.739 38.264 160.251 38.872C160.123 39.384 159.691 39.64 158.955 39.64H129.291L128.907 38.248H153.483L155.883 34.456ZM151.467 23.176V24.568H132.027L131.595 23.176H151.467ZM127.131 22.792C128.827 23.784 130.043 24.808 130.779 25.864C131.547 26.888 131.947 27.848 131.979 28.744C132.043 29.64 131.867 30.376 131.451 30.952C131.067 31.496 130.539 31.8 129.867 31.864C129.227 31.928 128.603 31.624 127.995 30.952C128.123 29.64 128.027 28.264 127.707 26.824C127.387 25.352 127.003 24.088 126.555 23.032L127.131 22.792ZM118.347 23.32C119.339 25.944 119.803 28.28 119.739 30.328C119.707 32.344 119.387 33.864 118.779 34.888C118.491 35.368 118.075 35.72 117.531 35.944C117.019 36.168 116.491 36.232 115.947 36.136C115.435 36.04 115.019 35.768 114.699 35.32C114.283 34.712 114.171 34.088 114.363 33.448C114.587 32.808 114.971 32.248 115.515 31.768C115.899 31.256 116.267 30.552 116.619 29.656C116.971 28.728 117.243 27.72 117.435 26.632C117.627 25.512 117.675 24.408 117.579 23.32H118.347ZM127.995 15.016C127.931 15.336 127.771 15.608 127.515 15.832C127.291 16.056 126.859 16.216 126.219 16.312V57.736C126.219 57.896 126.011 58.088 125.595 58.312C125.179 58.568 124.651 58.792 124.011 58.984C123.371 59.176 122.699 59.272 121.995 59.272H120.939V14.248L127.995 15.016Z" fill="#F3D7A3"/>
<path d="M1.44 117.668V116.612L6.336 116.164H7.264L12.16 116.612V117.668H1.44ZM4.448 117.668C4.49067 115.855 4.512 114.031 4.512 112.196C4.512 110.34 4.512 108.474 4.512 106.596V105.06C4.512 103.204 4.512 101.359 4.512 99.5245C4.512 97.6685 4.49067 95.8125 4.448 93.9565H9.12C9.056 95.7698 9.01333 97.6258 8.992 99.5245C8.992 101.402 8.992 103.407 8.992 105.54V106.404C8.992 108.346 8.992 110.244 8.992 112.1C9.01333 113.956 9.056 115.812 9.12 117.668H4.448ZM20.288 118.084C18.9653 118.084 17.952 117.871 17.248 117.444C16.544 116.996 16.1067 116.207 15.936 115.076L14.784 110.308C14.592 109.434 14.3573 108.719 14.08 108.164C13.8027 107.588 13.408 107.172 12.896 106.916C12.4053 106.639 11.7227 106.5 10.848 106.5H6.848V105.38H11.328C12.5227 105.38 13.504 105.146 14.272 104.676C15.04 104.186 15.6053 103.546 15.968 102.756C16.352 101.946 16.544 101.05 16.544 100.068C16.544 98.4898 16.1067 97.2738 15.232 96.4205C14.3787 95.5671 13.0773 95.1405 11.328 95.1405H6.816V93.9565H12.384C15.1147 93.9565 17.2053 94.4898 18.656 95.5565C20.1067 96.6018 20.832 98.0738 20.832 99.9725C20.832 100.996 20.5547 101.946 20 102.82C19.4667 103.695 18.5813 104.431 17.344 105.028C16.128 105.604 14.5067 105.956 12.48 106.084V105.732C14.1867 105.796 15.4987 106.031 16.416 106.436C17.3547 106.82 18.048 107.386 18.496 108.132C18.9653 108.879 19.3173 109.818 19.552 110.948L20.992 117.284L18.784 116.292L23.744 116.612V117.668C23.1893 117.796 22.656 117.892 22.144 117.956C21.6533 118.042 21.0347 118.084 20.288 118.084ZM1.44 95.0125V93.9565H6.816V95.4605H6.336L1.44 95.0125ZM27.4873 96.4205L35.5513 94.5005L36.0313 94.8525L35.9033 100.004V110.148C35.9033 111.386 35.9139 112.644 35.9353 113.924C35.9566 115.183 35.9886 116.431 36.0313 117.668H31.4553C31.5193 115.151 31.5513 112.644 31.5513 110.148V97.0285L27.4873 97.5085V96.4205ZM35.7433 116.164L40.4792 116.708V117.668H26.7513V116.708L31.8073 116.164H35.7433ZM46.6198 105.348V104.868C47.5158 104.463 48.3904 104.186 49.2438 104.036C50.1184 103.866 51.0464 103.78 52.0278 103.78C54.5878 103.78 56.6144 104.378 58.1078 105.572C59.6011 106.767 60.3478 108.474 60.3478 110.692C60.3478 112.25 59.9638 113.594 59.1958 114.724C58.4278 115.855 57.3718 116.719 56.0278 117.316C54.6838 117.892 53.1264 118.18 51.3558 118.18C49.2864 118.18 47.6331 117.711 46.3958 116.772C45.1584 115.834 44.4438 114.532 44.2518 112.868C44.4224 112.463 44.6678 112.154 44.9878 111.94C45.3291 111.727 45.6918 111.62 46.0758 111.62C46.6304 111.62 47.0678 111.791 47.3878 112.132C47.7291 112.474 47.9531 113.05 48.0598 113.86L48.6998 117.188L47.6118 116.324C48.1238 116.602 48.5931 116.804 49.0198 116.932C49.4464 117.06 49.9798 117.124 50.6198 117.124C52.1984 117.124 53.4571 116.591 54.3958 115.524C55.3344 114.458 55.8038 113.007 55.8038 111.172C55.8038 109.231 55.3664 107.78 54.4918 106.82C53.6384 105.839 52.4544 105.348 50.9398 105.348C50.2784 105.348 49.6384 105.402 49.0198 105.508C48.4224 105.594 47.8144 105.754 47.1958 105.988L46.3318 105.508L47.0998 94.8845H59.5478V98.2445H47.7078L48.4438 95.8125L47.7398 105.348H46.6198ZM62.6483 118.02H86.1683L88.5043 115.108C88.5043 115.108 88.6429 115.215 88.9203 115.428C89.1976 115.642 89.5496 115.919 89.9763 116.26C90.4243 116.602 90.8829 116.964 91.3523 117.348C91.8429 117.711 92.2909 118.063 92.6963 118.404C92.6109 118.746 92.3016 118.916 91.7683 118.916H62.9043L62.6483 118.02ZM66.4563 107.492H83.6083L85.8483 104.676C85.8483 104.676 85.9869 104.783 86.2643 104.996C86.5416 105.21 86.8936 105.476 87.3203 105.796C87.7469 106.116 88.1949 106.468 88.6643 106.852C89.1336 107.215 89.5603 107.556 89.9443 107.876C89.8803 108.218 89.5816 108.388 89.0483 108.388H66.7123L66.4563 107.492ZM68.4083 98.4045H84.6323L86.8723 95.6525C86.8723 95.6525 87.0003 95.7485 87.2563 95.9405C87.5336 96.1325 87.8749 96.3885 88.2803 96.7085C88.7069 97.0285 89.1443 97.3698 89.5923 97.7325C90.0616 98.0951 90.4989 98.4471 90.9043 98.7885C90.8189 99.1298 90.5096 99.3005 89.9763 99.3005H67.9603L68.4083 98.4045ZM75.4803 90.6605L80.7603 91.1725C80.7389 91.3858 80.6429 91.5778 80.4722 91.7485C80.3229 91.8978 80.0349 92.0045 79.6083 92.0685V118.532H75.4803V90.6605ZM68.2803 91.6205L73.6883 93.2205C73.6243 93.4125 73.4856 93.5725 73.2723 93.7005C73.0803 93.8285 72.7923 93.8818 72.4083 93.8605C71.2776 96.8471 69.8909 99.4391 68.2483 101.636C66.6269 103.834 64.7816 105.658 62.7122 107.108L62.3283 106.852C63.1603 105.615 63.9603 104.186 64.7283 102.564C65.4962 100.922 66.1896 99.1618 66.8083 97.2845C67.4483 95.4071 67.9389 93.5191 68.2803 91.6205ZM120.344 101.636C120.344 101.636 120.451 101.732 120.664 101.924C120.899 102.095 121.176 102.33 121.496 102.628C121.838 102.906 122.19 103.204 122.552 103.524C122.915 103.844 123.246 104.154 123.544 104.452C123.459 104.794 123.171 104.964 122.68 104.964H112.536L112.28 104.036H118.552L120.344 101.636ZM119.864 92.1005C119.864 92.1005 119.971 92.1965 120.184 92.3885C120.398 92.5591 120.664 92.7938 120.984 93.0925C121.326 93.3698 121.678 93.6685 122.04 93.9885C122.424 94.3085 122.766 94.6178 123.064 94.9165C122.979 95.2578 122.691 95.4285 122.2 95.4285H112.568L112.312 94.5005H118.072L119.864 92.1005ZM97.0483 99.0445V97.9565L100.76 99.3645H100.248V103.364C100.248 104.026 100.184 104.719 100.056 105.444C99.9496 106.17 99.7256 106.895 99.3843 107.62C99.0429 108.346 98.5203 109.039 97.8163 109.7C97.1123 110.34 96.1736 110.916 95.0003 111.428L94.7443 111.076C95.4696 110.351 95.9923 109.572 96.3123 108.74C96.6323 107.887 96.8349 107.002 96.9203 106.084C97.0056 105.167 97.0483 104.271 97.0483 103.396V99.3645V99.0445ZM99.1283 105.348C99.7896 105.284 100.579 105.188 101.496 105.06C102.435 104.911 103.395 104.73 104.376 104.516C105.379 104.282 106.339 104.026 107.256 103.748L107.352 104.164C106.606 104.698 105.72 105.284 104.696 105.924C103.694 106.564 102.552 107.215 101.272 107.876C101.144 108.282 100.899 108.548 100.536 108.676L99.1283 105.348ZM99.3843 101.892C100.387 101.423 101.262 101.156 102.008 101.092C102.755 101.028 103.374 101.103 103.864 101.316C104.355 101.508 104.718 101.775 104.952 102.116C105.187 102.458 105.304 102.81 105.304 103.172C105.304 103.514 105.187 103.791 104.952 104.004C104.718 104.196 104.355 104.271 103.864 104.228C103.352 103.823 102.712 103.45 101.944 103.108C101.176 102.767 100.302 102.532 99.3203 102.404L99.3843 101.892ZM108.024 99.3645V100.26H98.0723L97.7843 99.3645H108.024ZM105.976 92.1965C105.891 92.4098 105.699 92.5698 105.4 92.6765C105.123 92.7831 104.707 92.7511 104.152 92.5805L105.272 92.3885C104.654 92.8365 103.875 93.2951 102.936 93.7645C101.998 94.2338 101.006 94.6711 99.9603 95.0765C98.9363 95.4605 97.9869 95.7698 97.1123 96.0045V95.6845H98.7763C98.7123 96.6658 98.5309 97.4338 98.2323 97.9885C97.9549 98.5431 97.6243 98.8951 97.2403 99.0445L95.6723 95.2365C95.6723 95.2365 95.7789 95.2151 95.9923 95.1725C96.2269 95.1085 96.4189 95.0445 96.5683 94.9805C97.1443 94.7458 97.7416 94.3511 98.3602 93.7965C99.0003 93.2418 99.5869 92.6551 100.12 92.0365C100.654 91.3965 101.027 90.8631 101.24 90.4365L105.976 92.1965ZM96.1523 95.5885C96.8989 95.6098 97.9123 95.6205 99.1923 95.6205C100.494 95.6205 101.944 95.6098 103.544 95.5885C105.166 95.5458 106.83 95.5031 108.536 95.4605V95.9405C107.384 96.2605 105.827 96.6658 103.864 97.1565C101.923 97.6258 99.7576 98.1058 97.3683 98.5965L96.1523 95.5885ZM115.544 101.284C115.48 101.732 115.15 101.999 114.552 102.084V107.172C114.552 107.364 114.606 107.503 114.712 107.588C114.84 107.652 115.118 107.684 115.544 107.684H118.072C118.52 107.684 118.947 107.684 119.352 107.684C119.758 107.684 120.056 107.674 120.248 107.652C120.611 107.652 120.878 107.567 121.048 107.396C121.198 107.247 121.368 107.002 121.56 106.66C121.774 106.298 121.976 105.882 122.168 105.412H122.52L122.616 107.396C123.086 107.588 123.406 107.78 123.576 107.972C123.747 108.164 123.832 108.41 123.832 108.708C123.832 109.178 123.651 109.551 123.288 109.828C122.947 110.084 122.328 110.266 121.432 110.372C120.536 110.479 119.288 110.532 117.688 110.532H114.68C113.678 110.532 112.92 110.458 112.408 110.308C111.896 110.138 111.555 109.85 111.384 109.444C111.214 109.039 111.128 108.484 111.128 107.78V100.932L115.544 101.284ZM105.656 99.3645L107.128 97.6685L110.488 100.196C110.403 100.303 110.243 100.42 110.008 100.548C109.795 100.676 109.518 100.772 109.176 100.836V107.62C109.176 108.26 109.08 108.815 108.888 109.284C108.718 109.732 108.366 110.095 107.832 110.372C107.299 110.628 106.467 110.81 105.336 110.916C105.315 110.511 105.272 110.159 105.208 109.86C105.166 109.54 105.059 109.284 104.888 109.092C104.718 108.922 104.494 108.762 104.216 108.612C103.939 108.463 103.523 108.346 102.968 108.26V107.844C102.968 107.844 103.064 107.855 103.256 107.876C103.47 107.876 103.715 107.887 103.992 107.908C104.291 107.908 104.568 107.919 104.824 107.94C105.102 107.94 105.304 107.94 105.432 107.94C105.646 107.94 105.784 107.898 105.848 107.812C105.934 107.706 105.976 107.578 105.976 107.428V99.3645H105.656ZM115.384 91.0125C115.342 91.4605 115.022 91.7378 114.424 91.8445V97.4765C114.424 97.6685 114.478 97.8071 114.584 97.8925C114.712 97.9778 114.979 98.0205 115.384 98.0205H117.848C118.296 98.0205 118.712 98.0205 119.096 98.0205C119.502 97.9991 119.8 97.9885 119.992 97.9885C120.142 97.9671 120.302 97.9565 120.472 97.9565C120.643 97.9351 120.771 97.9138 120.856 97.8925C120.984 97.8925 121.134 97.8818 121.304 97.8605C121.475 97.8178 121.624 97.7751 121.752 97.7325H122.072L122.2 97.7645C122.67 97.9565 123 98.1378 123.192 98.3085C123.384 98.4791 123.48 98.7031 123.48 98.9805C123.48 99.4285 123.299 99.7698 122.936 100.004C122.595 100.239 121.987 100.399 121.112 100.484C120.259 100.57 119.043 100.612 117.464 100.612H114.584C113.603 100.612 112.856 100.538 112.344 100.388C111.854 100.218 111.523 99.9405 111.352 99.5565C111.182 99.1511 111.096 98.6178 111.096 97.9565V90.6605L115.384 91.0125ZM105.176 93.1565C106.499 93.2845 107.544 93.5405 108.312 93.9245C109.08 94.3085 109.635 94.7458 109.976 95.2365C110.318 95.7058 110.478 96.1645 110.456 96.6125C110.435 97.0605 110.296 97.4445 110.04 97.7645C109.784 98.0631 109.443 98.2445 109.016 98.3085C108.59 98.3511 108.12 98.2125 107.608 97.8925C107.523 97.3378 107.331 96.7831 107.032 96.2285C106.755 95.6525 106.424 95.1191 106.04 94.6285C105.678 94.1378 105.294 93.7218 104.888 93.3805L105.176 93.1565ZM106.872 111.46C106.851 111.674 106.755 111.855 106.584 112.004C106.435 112.154 106.19 112.25 105.848 112.292V116.42C105.848 116.634 105.923 116.783 106.072 116.868C106.222 116.932 106.595 116.964 107.192 116.964H111.224C111.886 116.964 112.504 116.964 113.08 116.964C113.678 116.964 114.115 116.954 114.392 116.932C114.67 116.911 114.872 116.868 115 116.804C115.128 116.74 115.246 116.634 115.352 116.484C115.566 116.228 115.79 115.812 116.024 115.236C116.28 114.66 116.579 113.924 116.92 113.028H117.24L117.336 116.58C117.912 116.772 118.286 116.975 118.456 117.188C118.648 117.402 118.744 117.668 118.744 117.988C118.744 118.394 118.627 118.714 118.392 118.948C118.179 119.204 117.774 119.396 117.176 119.524C116.6 119.652 115.79 119.738 114.744 119.78C113.72 119.823 112.408 119.844 110.808 119.844H106.584C105.368 119.844 104.44 119.759 103.8 119.588C103.16 119.439 102.712 119.151 102.456 118.724C102.222 118.319 102.104 117.722 102.104 116.932V111.108L106.872 111.46ZM99.6083 111.332C100.035 112.548 100.206 113.636 100.12 114.596C100.035 115.556 99.7896 116.356 99.3843 116.996C99.0003 117.636 98.5416 118.084 98.0083 118.34C97.4749 118.618 96.9096 118.682 96.3123 118.532C95.7363 118.383 95.3523 118.031 95.1603 117.476C95.0323 116.922 95.1069 116.452 95.3843 116.068C95.6616 115.663 96.0456 115.354 96.5363 115.14C96.9416 114.948 97.3363 114.671 97.7203 114.308C98.1256 113.924 98.4563 113.487 98.7123 112.996C98.9896 112.484 99.1389 111.93 99.1603 111.332H99.6083ZM117.944 111.684C119.438 111.94 120.632 112.314 121.528 112.804C122.424 113.295 123.075 113.839 123.48 114.436C123.886 115.034 124.088 115.61 124.088 116.164C124.088 116.698 123.939 117.146 123.64 117.508C123.342 117.871 122.947 118.084 122.456 118.148C121.987 118.234 121.475 118.074 120.92 117.668C120.835 116.986 120.622 116.292 120.28 115.588C119.96 114.863 119.566 114.18 119.096 113.54C118.627 112.9 118.147 112.356 117.656 111.908L117.944 111.684ZM108.28 110.532C109.646 110.682 110.723 110.938 111.512 111.3C112.302 111.663 112.867 112.079 113.208 112.548C113.55 113.018 113.72 113.476 113.72 113.924C113.72 114.372 113.582 114.756 113.304 115.076C113.048 115.375 112.696 115.556 112.248 115.62C111.822 115.663 111.363 115.514 110.872 115.172C110.744 114.639 110.531 114.106 110.232 113.572C109.934 113.018 109.582 112.495 109.176 112.004C108.792 111.514 108.398 111.098 107.992 110.756L108.28 110.532ZM143.96 103.684C143.875 103.919 143.672 104.1 143.352 104.228C143.032 104.356 142.584 104.346 142.008 104.196L142.968 103.844C142.414 104.847 141.699 105.935 140.824 107.108C139.971 108.282 139.032 109.466 138.008 110.66C136.984 111.834 135.939 112.943 134.872 113.988C133.806 115.012 132.782 115.887 131.8 116.612L131.768 116.228H133.88C133.752 117.466 133.496 118.436 133.112 119.14C132.728 119.844 132.27 120.292 131.736 120.484L130.104 115.588C130.104 115.588 130.19 115.567 130.36 115.524C130.531 115.482 130.723 115.418 130.936 115.332C131.15 115.247 131.32 115.151 131.448 115.044C131.939 114.596 132.451 113.978 132.984 113.188C133.539 112.378 134.094 111.482 134.648 110.5C135.224 109.519 135.758 108.506 136.248 107.46C136.76 106.394 137.208 105.359 137.592 104.356C137.976 103.354 138.275 102.458 138.488 101.668L143.96 103.684ZM130.808 115.812C131.79 115.791 133.027 115.727 134.52 115.62C136.014 115.514 137.688 115.386 139.544 115.236C141.422 115.066 143.384 114.874 145.432 114.66C147.48 114.426 149.528 114.18 151.576 113.924L151.608 114.372C149.518 115.14 146.84 115.994 143.576 116.932C140.334 117.85 136.568 118.767 132.28 119.684L130.808 115.812ZM144.28 92.1325L145.496 90.1805L148.824 92.4525C148.632 92.7085 148.28 92.9005 147.768 93.0285C147.256 93.1565 146.659 93.2418 145.976 93.2845C146.488 94.8205 147.256 96.2711 148.28 97.6365C149.304 99.0018 150.542 100.207 151.992 101.252C153.464 102.298 155.139 103.13 157.016 103.748L156.92 104.132C156.11 104.41 155.395 104.9 154.776 105.604C154.179 106.287 153.774 107.023 153.56 107.812C151.15 106.191 149.251 104.1 147.864 101.54C146.499 98.9805 145.571 96.0151 145.08 92.6445V92.1325H144.28ZM145.848 92.1325V93.0605H141.432L141.144 92.1325H145.848ZM140.184 94.3725C140.099 94.5645 139.95 94.7138 139.736 94.8205C139.523 94.9271 139.224 94.9591 138.84 94.9165C137.326 98.0311 135.544 100.612 133.496 102.66C131.448 104.708 129.166 106.372 126.648 107.652L126.296 107.364C127.448 106.255 128.579 104.922 129.688 103.364C130.798 101.786 131.822 100.058 132.76 98.1805C133.699 96.3031 134.456 94.3405 135.032 92.2925L140.184 94.3725ZM144.952 108.228C146.808 108.975 148.344 109.786 149.56 110.66C150.798 111.535 151.758 112.431 152.44 113.348C153.144 114.266 153.624 115.14 153.88 115.972C154.158 116.804 154.243 117.551 154.136 118.212C154.051 118.895 153.827 119.428 153.464 119.812C153.102 120.196 152.654 120.388 152.12 120.388C151.587 120.388 151 120.143 150.36 119.652C150.19 118.692 149.912 117.711 149.528 116.708C149.166 115.706 148.718 114.714 148.184 113.732C147.672 112.751 147.107 111.812 146.488 110.916C145.891 110.02 145.262 109.188 144.6 108.42L144.952 108.228ZM173.336 109.252C175.256 109.615 176.814 110.063 178.008 110.596C179.203 111.108 180.099 111.663 180.696 112.26C181.315 112.836 181.688 113.402 181.816 113.956C181.966 114.49 181.944 114.938 181.752 115.3C181.582 115.663 181.294 115.898 180.888 116.004C180.483 116.111 180.035 116.026 179.544 115.748C179.267 115.258 178.819 114.671 178.2 113.988C177.603 113.284 176.867 112.559 175.992 111.812C175.139 111.066 174.179 110.351 173.112 109.668L173.336 109.252ZM171.736 108.964V111.716H168.76V110.468L171.736 108.964ZM168.504 113.956C168.931 113.871 169.528 113.732 170.296 113.54C171.064 113.348 171.918 113.124 172.856 112.868C173.795 112.612 174.755 112.356 175.736 112.1L175.864 112.516C175.438 112.772 174.883 113.124 174.2 113.572C173.539 114.02 172.792 114.5 171.96 115.012C171.128 115.503 170.264 116.004 169.368 116.516L168.504 113.956ZM171.032 110.788L171.736 111.204V114.116L169.208 115.044L170.136 114.084C170.328 114.874 170.296 115.503 170.04 115.972C169.806 116.442 169.55 116.751 169.272 116.9L167.608 114.404C168.12 114.084 168.44 113.839 168.568 113.668C168.696 113.476 168.76 113.263 168.76 113.028V110.788H171.032ZM182.424 110.116C182.339 110.223 182.211 110.287 182.04 110.308C181.87 110.33 181.646 110.287 181.368 110.18C181.006 110.33 180.547 110.49 179.992 110.66C179.459 110.81 178.904 110.97 178.328 111.14C177.774 111.29 177.272 111.439 176.824 111.588L176.536 111.236C176.878 110.938 177.24 110.575 177.624 110.148C178.03 109.722 178.414 109.284 178.776 108.836C179.16 108.388 179.48 108.004 179.736 107.684L182.424 110.116ZM174.648 107.588C173.539 108.847 172.078 109.924 170.264 110.82C168.472 111.695 166.531 112.41 164.44 112.964L164.152 112.484C165.667 111.823 167.043 111.023 168.28 110.084C169.539 109.146 170.552 108.143 171.32 107.076H174.648V107.588ZM180.184 98.2445C180.184 98.2445 180.355 98.3725 180.696 98.6285C181.038 98.8845 181.443 99.2045 181.912 99.5885C182.382 99.9511 182.808 100.303 183.192 100.644C183.107 100.986 182.83 101.156 182.36 101.156H164.856L164.6 100.228H178.584L180.184 98.2445ZM178.936 95.2365C178.936 95.2365 179.096 95.3645 179.416 95.6205C179.736 95.8551 180.12 96.1538 180.568 96.5165C181.016 96.8578 181.432 97.1991 181.816 97.5405C181.731 97.8818 181.454 98.0525 180.984 98.0525H166.072L165.816 97.1245H177.368L178.936 95.2365ZM175.896 94.6925C175.875 94.8631 175.8 95.0125 175.672 95.1405C175.566 95.2685 175.342 95.3645 175 95.4285V100.644H171.672V94.3085L175.896 94.6925ZM169.816 107.972C169.816 108.058 169.678 108.175 169.4 108.324C169.144 108.474 168.814 108.612 168.408 108.74C168.003 108.847 167.598 108.9 167.192 108.9H166.744V103.044V101.764L169.976 103.044H178.648V103.972H169.816V107.972ZM177.08 103.044L178.456 101.604L181.4 103.748C181.315 103.834 181.198 103.93 181.048 104.036C180.899 104.143 180.707 104.207 180.472 104.228V107.684C180.472 107.77 180.312 107.876 179.992 108.004C179.694 108.132 179.352 108.25 178.968 108.356C178.584 108.442 178.222 108.484 177.88 108.484H177.336V103.044H177.08ZM178.52 106.948V107.876H168.408V106.948H178.52ZM164.152 119.044C164.152 119.215 164.003 119.407 163.704 119.62C163.427 119.855 163.054 120.058 162.584 120.228C162.136 120.399 161.635 120.484 161.08 120.484H160.44V92.5485V90.8525L164.472 92.5485H184.44V93.4445H164.152V119.044ZM182.968 92.5485L184.792 90.5005L188.376 93.3805C188.27 93.5298 188.11 93.6685 187.896 93.7965C187.683 93.9031 187.406 93.9885 187.064 94.0525V119.076C187.064 119.162 186.894 119.3 186.552 119.492C186.211 119.706 185.795 119.887 185.304 120.036C184.814 120.207 184.344 120.292 183.896 120.292H183.288V92.5485H182.968ZM184.632 116.964V117.892H162.648V116.964H184.632ZM196.952 115.716L195.832 114.596L204.568 105.892L195.832 97.1565L196.92 96.0685L205.656 104.804L214.392 96.0685L215.48 97.1565L206.744 105.892L215.48 114.596L214.36 115.716L205.656 106.98L196.952 115.716ZM230.424 118.18C228.206 118.18 226.467 117.722 225.208 116.804C223.971 115.887 223.246 114.586 223.032 112.9C223.182 112.452 223.416 112.122 223.736 111.908C224.078 111.695 224.44 111.588 224.824 111.588C225.379 111.588 225.816 111.759 226.136 112.1C226.478 112.442 226.723 113.071 226.872 113.988L227.576 117.284L226.072 116.292C226.563 116.548 227.032 116.751 227.48 116.9C227.95 117.05 228.483 117.124 229.08 117.124C230.766 117.124 232.067 116.655 232.984 115.716C233.902 114.756 234.36 113.391 234.36 111.62C234.36 109.764 233.912 108.356 233.016 107.396C232.142 106.415 230.83 105.924 229.08 105.924H227.768V104.708H228.92C230.371 104.708 231.555 104.26 232.472 103.364C233.39 102.468 233.848 101.103 233.848 99.2685C233.848 97.7111 233.486 96.5271 232.76 95.7165C232.056 94.9058 231.064 94.5005 229.784 94.5005C229.315 94.5005 228.814 94.5645 228.28 94.6925C227.768 94.7991 227.203 94.9911 226.584 95.2685L228.376 94.4365L227.672 97.5725C227.523 98.2978 227.256 98.7991 226.872 99.0765C226.488 99.3538 226.04 99.4925 225.528 99.4925C225.187 99.4925 224.878 99.4178 224.6 99.2685C224.323 99.0978 224.11 98.8631 223.96 98.5645C224.046 97.3698 224.419 96.3991 225.08 95.6525C225.742 94.8845 226.584 94.3298 227.608 93.9885C228.654 93.6258 229.784 93.4445 231 93.4445C233.368 93.4445 235.139 93.9778 236.312 95.0445C237.507 96.0898 238.104 97.4445 238.104 99.1085C238.104 100.175 237.838 101.156 237.304 102.052C236.792 102.948 235.982 103.695 234.872 104.292C233.763 104.89 232.291 105.274 230.456 105.444V104.996C232.483 105.103 234.104 105.444 235.32 106.02C236.558 106.596 237.454 107.364 238.008 108.324C238.563 109.284 238.84 110.383 238.84 111.62C238.84 112.922 238.488 114.074 237.784 115.076C237.102 116.058 236.131 116.826 234.872 117.38C233.614 117.914 232.131 118.18 230.424 118.18ZM262.737 108.612C262.396 108.911 261.82 108.89 261.009 108.548C260.284 108.719 259.43 108.879 258.449 109.028C257.468 109.156 256.444 109.274 255.377 109.38C254.332 109.487 253.297 109.562 252.273 109.604L252.177 109.092C253.073 108.836 254.012 108.527 254.993 108.164C255.974 107.802 256.902 107.428 257.777 107.044C258.673 106.639 259.398 106.266 259.953 105.924L262.737 108.612ZM255.729 106.116C255.729 106.202 255.612 106.308 255.377 106.436C255.142 106.564 254.844 106.682 254.481 106.788C254.118 106.895 253.756 106.948 253.393 106.948H252.977V100.772V99.5885L255.857 100.772H260.593V101.668H255.729V106.116ZM260.241 104.548V105.476H254.673V104.548H260.241ZM258.513 100.772L259.825 99.3645L262.673 101.508C262.588 101.615 262.438 101.722 262.225 101.828C262.033 101.935 261.798 102.01 261.521 102.052V105.54C261.521 105.604 261.382 105.7 261.105 105.828C260.849 105.935 260.54 106.031 260.177 106.116C259.836 106.202 259.526 106.244 259.249 106.244H258.801V100.772H258.513ZM251.505 115.492C252.188 115.428 253.126 115.322 254.321 115.172C255.516 115.002 256.86 114.799 258.353 114.564C259.846 114.33 261.382 114.095 262.961 113.86L262.993 114.244C262.054 114.756 260.87 115.354 259.441 116.036C258.033 116.719 256.305 117.487 254.257 118.34C254.172 118.554 254.054 118.724 253.905 118.852C253.777 119.002 253.628 119.098 253.457 119.14L251.505 115.492ZM267.089 91.1085C267.068 91.3218 266.972 91.5138 266.801 91.6845C266.63 91.8551 266.342 91.9618 265.937 92.0045C265.873 94.4791 265.841 96.8791 265.841 99.2045C265.841 101.53 265.916 103.716 266.065 105.764C266.214 107.812 266.492 109.647 266.897 111.268C267.324 112.89 267.921 114.244 268.689 115.332C268.86 115.567 268.988 115.674 269.073 115.652C269.158 115.631 269.276 115.471 269.425 115.172C269.638 114.767 269.873 114.212 270.129 113.508C270.406 112.804 270.641 112.132 270.833 111.492L271.217 111.556L270.609 116.804C271.014 117.679 271.249 118.362 271.313 118.852C271.398 119.364 271.324 119.716 271.089 119.908C270.641 120.292 270.15 120.431 269.617 120.324C269.084 120.239 268.561 120.004 268.049 119.62C267.537 119.258 267.132 118.863 266.833 118.436C265.766 116.986 264.945 115.29 264.369 113.348C263.814 111.407 263.409 109.252 263.153 106.884C262.918 104.516 262.78 101.967 262.737 99.2365C262.694 96.5058 262.673 93.6258 262.673 90.5965L267.089 91.1085ZM271.921 102.212C271.836 102.404 271.697 102.554 271.505 102.66C271.334 102.767 271.036 102.82 270.609 102.82C270.246 104.442 269.766 106.095 269.169 107.78C268.593 109.466 267.846 111.098 266.929 112.676C266.012 114.234 264.86 115.674 263.473 116.996C262.086 118.298 260.412 119.428 258.449 120.388L258.161 120.004C259.74 118.916 261.094 117.647 262.225 116.196C263.356 114.746 264.294 113.188 265.041 111.524C265.788 109.839 266.374 108.111 266.801 106.34C267.228 104.57 267.548 102.81 267.761 101.06L271.921 102.212ZM268.785 95.7485C268.785 95.7485 268.956 95.8978 269.297 96.1965C269.66 96.4738 270.076 96.8258 270.545 97.2525C271.014 97.6578 271.43 98.0418 271.793 98.4045C271.708 98.7458 271.42 98.9165 270.929 98.9165H252.081L251.825 97.9885H267.153L268.785 95.7485ZM260.369 109.892C260.369 109.892 260.508 110.01 260.785 110.244C261.084 110.458 261.425 110.724 261.809 111.044C262.214 111.343 262.577 111.642 262.897 111.94C262.812 112.282 262.534 112.452 262.065 112.452H252.433L252.177 111.524H258.993L260.369 109.892ZM260.305 92.7725C260.305 92.7725 260.454 92.9005 260.753 93.1565C261.052 93.3911 261.393 93.6791 261.777 94.0205C262.182 94.3405 262.534 94.6605 262.833 94.9805C262.769 95.3218 262.502 95.4925 262.033 95.4925H252.849L252.593 94.5965H258.929L260.305 92.7725ZM259.825 91.1725C259.804 91.3645 259.718 91.5351 259.569 91.6845C259.441 91.8125 259.185 91.9085 258.801 91.9725V98.6925H255.697V90.7885L259.825 91.1725ZM266.833 92.1325C268.049 92.4525 268.934 92.8578 269.489 93.3485C270.065 93.8178 270.385 94.2978 270.449 94.7885C270.534 95.2791 270.438 95.6951 270.161 96.0365C269.905 96.3778 269.553 96.5698 269.105 96.6125C268.678 96.6551 268.241 96.4738 267.793 96.0685C267.793 95.4285 267.654 94.7565 267.377 94.0525C267.121 93.3485 266.822 92.7618 266.481 92.2925L266.833 92.1325ZM258.705 108.452V115.62L255.665 116.324V108.452H258.705ZM252.945 107.396C252.881 107.588 252.753 107.748 252.561 107.876C252.369 107.983 252.113 108.036 251.793 108.036C251.516 108.868 251.185 109.743 250.801 110.66C250.438 111.556 250.012 112.356 249.521 113.06L248.977 112.868C249.148 111.972 249.297 110.938 249.425 109.764C249.574 108.57 249.67 107.418 249.713 106.308L252.945 107.396ZM242.449 106.628C243.388 107.439 244.06 108.25 244.465 109.06C244.892 109.85 245.116 110.564 245.137 111.204C245.158 111.844 245.052 112.367 244.817 112.772C244.582 113.156 244.284 113.37 243.921 113.412C243.558 113.455 243.196 113.274 242.833 112.868C242.918 112.207 242.918 111.514 242.833 110.788C242.748 110.063 242.63 109.348 242.481 108.644C242.332 107.94 242.161 107.311 241.969 106.756L242.449 106.628ZM241.585 115.972C242.204 115.887 243.089 115.727 244.241 115.492C245.414 115.236 246.737 114.948 248.209 114.628C249.681 114.308 251.185 113.967 252.721 113.604L252.785 113.988C251.804 114.586 250.566 115.311 249.073 116.164C247.58 116.996 245.809 117.924 243.761 118.948C243.59 119.418 243.324 119.706 242.961 119.812L241.585 115.972ZM248.497 99.1405V115.78L245.521 116.612V99.1405H248.497ZM250.065 102.084C250.065 102.084 250.214 102.223 250.513 102.5C250.812 102.778 251.164 103.119 251.569 103.524C251.974 103.908 252.326 104.282 252.625 104.644C252.561 104.986 252.294 105.156 251.825 105.156H242.193L241.937 104.228H248.625L250.065 102.084ZM248.817 96.8365C248.817 96.8365 248.977 96.9751 249.297 97.2525C249.638 97.5085 250.022 97.8178 250.449 98.1805C250.897 98.5431 251.302 98.8951 251.665 99.2365C251.58 99.5778 251.302 99.7485 250.833 99.7485H243.281L243.025 98.8525H247.249L248.817 96.8365ZM248.017 92.1325C249.297 92.6871 250.268 93.2525 250.929 93.8285C251.59 94.4045 252.017 94.9485 252.209 95.4605C252.401 95.9511 252.422 96.3991 252.273 96.8045C252.145 97.1885 251.9 97.4765 251.537 97.6685C251.196 97.8391 250.833 97.8925 250.449 97.8285C250.065 97.7431 249.702 97.5085 249.361 97.1245C249.276 96.4631 249.094 95.6845 248.817 94.7885C248.54 93.8711 248.145 92.9965 247.633 92.1645L248.017 92.1325ZM248.497 92.2925C248.092 93.2738 247.548 94.3191 246.865 95.4285C246.204 96.5165 245.436 97.5725 244.561 98.5965C243.708 99.6205 242.801 100.506 241.841 101.252L241.489 101.028C241.916 100.346 242.321 99.5565 242.705 98.6605C243.11 97.7431 243.484 96.7938 243.825 95.8125C244.166 94.8311 244.454 93.8818 244.689 92.9645C244.924 92.0258 245.105 91.1938 245.233 90.4685L249.745 91.6205C249.702 91.7911 249.585 91.9405 249.393 92.0685C249.222 92.1965 248.924 92.2711 248.497 92.2925ZM273.681 108.484H297.649L299.793 105.7C299.793 105.7 299.921 105.807 300.177 106.02C300.454 106.212 300.796 106.479 301.201 106.82C301.628 107.14 302.065 107.482 302.513 107.844C302.961 108.207 303.366 108.559 303.729 108.9C303.644 109.242 303.334 109.412 302.801 109.412H273.937L273.681 108.484ZM274.801 98.7245H297.169L299.121 96.1005C299.121 96.1005 299.238 96.1965 299.473 96.3885C299.708 96.5805 300.006 96.8365 300.369 97.1565C300.732 97.4551 301.116 97.7858 301.521 98.1485C301.926 98.4898 302.3 98.8205 302.641 99.1405C302.556 99.4818 302.257 99.6525 301.745 99.6525H275.089L274.801 98.7245ZM281.361 90.8845L286.289 91.3005C286.268 91.5351 286.172 91.7378 286.001 91.9085C285.852 92.0578 285.564 92.1645 285.137 92.2285V108.932H281.361V90.8845ZM291.665 90.8845L296.689 91.3005C296.646 91.5351 296.54 91.7378 296.369 91.9085C296.22 92.0578 295.932 92.1645 295.505 92.2285V108.932H291.665V90.8845ZM291.249 111.3C293.553 111.642 295.441 112.143 296.913 112.804C298.385 113.466 299.516 114.191 300.305 114.98C301.094 115.77 301.596 116.538 301.809 117.284C302.044 118.031 302.044 118.682 301.809 119.236C301.574 119.791 301.18 120.154 300.625 120.324C300.07 120.495 299.42 120.399 298.673 120.036C298.289 119.268 297.809 118.5 297.233 117.732C296.657 116.964 296.017 116.207 295.313 115.46C294.63 114.692 293.916 113.978 293.169 113.316C292.422 112.655 291.697 112.068 290.993 111.556L291.249 111.3ZM283.025 110.372L287.569 113.028C287.484 113.178 287.345 113.295 287.153 113.38C286.982 113.444 286.716 113.455 286.353 113.412C285.457 114.308 284.369 115.215 283.089 116.132C281.83 117.028 280.433 117.86 278.897 118.628C277.382 119.418 275.782 120.068 274.097 120.58L273.873 120.196C275.174 119.343 276.412 118.351 277.585 117.22C278.78 116.09 279.846 114.927 280.785 113.732C281.724 112.516 282.47 111.396 283.025 110.372ZM305.457 98.4685H313.297L314.865 96.1005C314.865 96.1005 315.036 96.2605 315.377 96.5805C315.718 96.8791 316.102 97.2418 316.529 97.6685C316.956 98.0951 317.34 98.4898 317.681 98.8525C317.617 99.1938 317.34 99.3645 316.849 99.3645H305.713L305.457 98.4685ZM309.041 98.4685H312.625V98.9805C312.134 101.775 311.313 104.356 310.161 106.724C309.009 109.071 307.505 111.194 305.649 113.092L305.233 112.74C305.958 111.439 306.566 110.01 307.057 108.452C307.548 106.874 307.953 105.231 308.273 103.524C308.593 101.818 308.849 100.132 309.041 98.4685ZM309.489 90.5645L314.161 91.0445C314.14 91.2578 314.044 91.4498 313.873 91.6205C313.724 91.7698 313.425 91.8765 312.977 91.9405V119.46C312.977 119.546 312.838 119.674 312.561 119.844C312.284 120.036 311.932 120.196 311.505 120.324C311.1 120.452 310.673 120.516 310.225 120.516H309.489V90.5645ZM312.977 101.86C314.172 102.266 315.089 102.724 315.729 103.236C316.39 103.748 316.849 104.26 317.105 104.772C317.361 105.284 317.457 105.764 317.393 106.212C317.329 106.639 317.148 106.991 316.849 107.268C316.55 107.524 316.198 107.652 315.793 107.652C315.388 107.631 314.961 107.439 314.513 107.076C314.492 106.5 314.374 105.914 314.161 105.316C313.969 104.719 313.734 104.143 313.457 103.588C313.201 103.012 312.934 102.5 312.657 102.052L312.977 101.86ZM316.241 94.0205H330.641L332.241 92.0045C332.241 92.0045 332.401 92.1325 332.721 92.3885C333.062 92.6445 333.457 92.9645 333.905 93.3485C334.374 93.7325 334.79 94.0951 335.153 94.4365C335.068 94.7778 334.78 94.9485 334.289 94.9485H316.497L316.241 94.0205ZM317.329 97.5405H330.449L331.889 95.6525C331.889 95.6525 332.038 95.7805 332.337 96.0365C332.657 96.2711 333.02 96.5698 333.425 96.9325C333.852 97.2738 334.236 97.6045 334.577 97.9245C334.513 98.2658 334.236 98.4365 333.745 98.4365H317.585L317.329 97.5405ZM315.505 101.188H331.185L332.785 99.1405C332.785 99.1405 332.945 99.2791 333.265 99.5565C333.606 99.8125 334.001 100.132 334.449 100.516C334.897 100.9 335.302 101.263 335.665 101.604C335.58 101.946 335.302 102.116 334.833 102.116H315.761L315.505 101.188ZM314.641 113.06H332.529L333.873 110.884C333.873 110.884 334.012 111.034 334.289 111.332C334.588 111.61 334.918 111.951 335.281 112.356C335.665 112.74 335.996 113.103 336.273 113.444C336.209 113.786 335.942 113.956 335.473 113.956H314.897L314.641 113.06ZM319.953 90.7565L324.145 91.1405C324.124 91.3111 324.038 91.4711 323.889 91.6205C323.74 91.7485 323.516 91.8338 323.217 91.8765V101.508H319.953V90.7565ZM326.353 90.7565L330.577 91.1405C330.556 91.3325 330.47 91.5031 330.321 91.6525C330.172 91.7805 329.926 91.8765 329.585 91.9405V101.508H326.353V90.7565ZM323.441 101.348H326.673V113.412H323.441V101.348ZM319.857 108.548H331.281V109.444H319.857V108.548ZM329.585 104.42H329.265L330.769 102.692L334.161 105.22C334.076 105.327 333.926 105.444 333.713 105.572C333.5 105.679 333.233 105.764 332.913 105.828V116.804C332.913 117.53 332.817 118.148 332.625 118.66C332.454 119.172 332.07 119.578 331.473 119.876C330.876 120.175 329.958 120.378 328.721 120.484C328.7 120.015 328.646 119.599 328.561 119.236C328.497 118.874 328.358 118.586 328.145 118.372C327.953 118.159 327.686 117.967 327.345 117.796C327.004 117.626 326.502 117.487 325.841 117.38V116.932C325.841 116.932 325.969 116.943 326.225 116.964C326.502 116.986 326.822 117.007 327.185 117.028C327.569 117.05 327.921 117.071 328.241 117.092C328.582 117.114 328.828 117.124 328.977 117.124C329.233 117.124 329.393 117.071 329.457 116.964C329.542 116.858 329.585 116.698 329.585 116.484V104.42ZM317.329 104.42V103.012L320.753 104.42H330.545V105.316H320.561V119.396C320.561 119.482 320.422 119.61 320.145 119.78C319.889 119.972 319.558 120.132 319.153 120.26C318.748 120.41 318.31 120.484 317.841 120.484H317.329V104.42ZM343.921 115.716L342.801 114.596L351.537 105.892L342.801 97.1565L343.889 96.0685L352.625 104.804L361.361 96.0685L362.449 97.1565L353.713 105.892L362.449 114.596L361.329 115.716L352.625 106.98L343.921 115.716ZM377.169 109.316C378.193 110.596 379.516 111.674 381.137 112.548C382.78 113.423 384.614 114.127 386.641 114.66C388.668 115.194 390.812 115.588 393.073 115.844C395.356 116.1 397.628 116.26 399.889 116.324V116.708C399.1 116.943 398.47 117.37 398.001 117.988C397.532 118.607 397.212 119.375 397.041 120.292C394.012 119.887 391.196 119.279 388.593 118.468C385.99 117.658 383.686 116.548 381.681 115.14C379.676 113.711 378.044 111.876 376.785 109.636L377.169 109.316ZM389.745 109.156L392.081 107.204L395.345 110.372C395.217 110.543 395.046 110.66 394.833 110.724C394.62 110.767 394.289 110.799 393.841 110.82C392.134 112.719 390.054 114.34 387.601 115.684C385.148 117.007 382.406 118.063 379.377 118.852C376.369 119.642 373.148 120.175 369.713 120.452L369.553 119.972C372.518 119.354 375.334 118.543 378.001 117.54C380.668 116.516 383.057 115.3 385.169 113.892C387.281 112.484 388.956 110.906 390.193 109.156H389.745ZM392.305 109.156V110.052H371.121L370.833 109.156H392.305ZM390.385 90.5005C391.516 90.6071 392.39 90.8205 393.009 91.1405C393.628 91.4391 394.054 91.7911 394.289 92.1965C394.524 92.6018 394.609 92.9965 394.545 93.3805C394.481 93.7431 394.3 94.0418 394.001 94.2765C393.724 94.5111 393.382 94.6391 392.977 94.6605C392.572 94.6605 392.156 94.5005 391.729 94.1805C391.686 93.5618 391.505 92.9325 391.185 92.2925C390.865 91.6311 390.502 91.0978 390.097 90.6925L390.385 90.5005ZM376.497 90.5645C377.628 90.6925 378.502 90.9165 379.121 91.2365C379.74 91.5351 380.166 91.8871 380.401 92.2925C380.636 92.6765 380.721 93.0605 380.657 93.4445C380.593 93.8071 380.412 94.1165 380.113 94.3725C379.836 94.6071 379.494 94.7351 379.089 94.7565C378.684 94.7565 378.268 94.5858 377.841 94.2445C377.82 93.6258 377.649 92.9965 377.329 92.3565C377.009 91.6951 376.636 91.1618 376.209 90.7565L376.497 90.5645ZM377.457 91.9085C377.372 92.1005 377.222 92.2605 377.009 92.3885C376.817 92.4951 376.55 92.5378 376.209 92.5165C375.377 94.0951 374.406 95.5245 373.297 96.8045C372.209 98.0845 371.046 99.1298 369.809 99.9405L369.393 99.6205C370.204 98.5325 370.972 97.1778 371.697 95.5565C372.422 93.9138 373.009 92.2178 373.457 90.4685L377.457 91.9085ZM390.833 91.7805C390.769 91.9938 390.63 92.1645 390.417 92.2925C390.225 92.3991 389.958 92.4418 389.617 92.4205C388.87 93.9991 387.974 95.4071 386.929 96.6445C385.905 97.8818 384.796 98.9058 383.601 99.7165L383.185 99.3965C383.932 98.3298 384.625 97.0071 385.265 95.4285C385.905 93.8498 386.406 92.1965 386.769 90.4685L390.833 91.7805ZM393.937 95.0445V106.18H390.897V95.0445H393.937ZM388.689 107.268C388.689 107.375 388.454 107.567 387.985 107.844C387.516 108.122 386.865 108.26 386.033 108.26H385.489V96.5805L387.377 93.9245L389.105 94.5965H388.689V107.268ZM396.657 103.748C396.657 103.748 396.817 103.876 397.137 104.132C397.457 104.367 397.841 104.676 398.289 105.06C398.758 105.423 399.164 105.775 399.505 106.116C399.42 106.458 399.142 106.628 398.673 106.628H387.153V105.732H395.089L396.657 103.748ZM395.889 100.324C395.889 100.324 396.028 100.442 396.305 100.676C396.582 100.89 396.924 101.167 397.329 101.508C397.734 101.828 398.086 102.138 398.385 102.436C398.321 102.778 398.044 102.948 397.553 102.948H387.153V102.052H394.513L395.889 100.324ZM395.889 96.5805C395.889 96.5805 396.028 96.6978 396.305 96.9325C396.582 97.1458 396.913 97.4231 397.297 97.7645C397.702 98.0845 398.054 98.3938 398.353 98.6925C398.289 99.0338 398.022 99.2045 397.553 99.2045H387.153V98.3085H394.513L395.889 96.5805ZM396.113 92.8365C396.113 92.8365 396.262 92.9538 396.561 93.1885C396.881 93.4018 397.254 93.6791 397.681 94.0205C398.108 94.3618 398.502 94.6925 398.865 95.0125C398.801 95.3538 398.524 95.5245 398.033 95.5245H387.089V94.5965H394.609L396.113 92.8365ZM380.113 95.0445V106.18H377.137V95.0445H380.113ZM375.121 107.396C375.121 107.503 374.886 107.695 374.417 107.972C373.948 108.228 373.318 108.356 372.529 108.356H371.953V96.6445L373.873 93.9885L375.505 94.5965H375.121V107.396ZM382.385 103.812C382.385 103.812 382.545 103.94 382.865 104.196C383.185 104.431 383.558 104.73 383.985 105.092C384.433 105.455 384.828 105.796 385.169 106.116C385.084 106.458 384.796 106.628 384.305 106.628H373.585V105.732H380.881L382.385 103.812ZM381.841 100.26C381.841 100.26 381.98 100.378 382.257 100.612C382.534 100.826 382.854 101.092 383.217 101.412C383.601 101.732 383.942 102.042 384.241 102.34C384.156 102.682 383.889 102.852 383.441 102.852H373.585V101.924H380.529L381.841 100.26ZM381.841 96.5805C381.841 96.5805 381.98 96.6871 382.257 96.9005C382.534 97.1138 382.854 97.3805 383.217 97.7005C383.58 98.0205 383.921 98.3298 384.241 98.6285C384.156 98.9698 383.878 99.1405 383.409 99.1405H373.585V98.2445H380.529L381.841 96.5805ZM381.969 92.8365C381.969 92.8365 382.118 92.9538 382.417 93.1885C382.737 93.4231 383.11 93.7111 383.537 94.0525C383.985 94.3725 384.38 94.6925 384.721 95.0125C384.636 95.3538 384.358 95.5245 383.889 95.5245H373.489V94.5965H380.497L381.969 92.8365ZM420.657 94.1165C421.894 94.1805 422.822 94.3725 423.441 94.6925C424.081 95.0125 424.476 95.3858 424.625 95.8125C424.774 96.2391 424.753 96.6231 424.561 96.9645C424.39 97.3058 424.102 97.5298 423.697 97.6365C423.292 97.7431 422.844 97.6578 422.353 97.3805C422.204 96.8258 421.926 96.2711 421.521 95.7165C421.137 95.1405 420.753 94.6925 420.369 94.3725L420.657 94.1165ZM422.097 100.42L426.129 102.084C426.044 102.276 425.894 102.426 425.681 102.532C425.468 102.639 425.18 102.671 424.817 102.628C423.942 105.018 422.876 107.087 421.617 108.836C420.358 110.564 418.908 112.015 417.265 113.188C415.644 114.362 413.852 115.332 411.889 116.1L411.569 115.716C413.169 114.692 414.662 113.455 416.049 112.004C417.436 110.532 418.652 108.826 419.697 106.884C420.742 104.943 421.542 102.788 422.097 100.42ZM407.345 98.4045H421.777L423.249 96.4525C423.249 96.4525 423.409 96.5805 423.729 96.8365C424.049 97.0925 424.422 97.4018 424.849 97.7645C425.276 98.1271 425.649 98.4685 425.969 98.7885C425.884 99.1298 425.606 99.3005 425.137 99.3005H407.601L407.345 98.4045ZM416.081 94.1485L420.305 94.8845C420.284 95.0765 420.177 95.2471 419.985 95.3965C419.814 95.5458 419.558 95.6311 419.217 95.6525C419.217 97.1885 419.26 98.7245 419.345 100.26C419.452 101.775 419.633 103.236 419.889 104.644C420.166 106.052 420.561 107.354 421.073 108.548C421.585 109.743 422.257 110.767 423.089 111.62C423.281 111.834 423.42 111.93 423.505 111.908C423.612 111.887 423.729 111.759 423.857 111.524C424.028 111.183 424.241 110.714 424.497 110.116C424.753 109.519 424.977 108.932 425.169 108.356L425.521 108.452L425.009 112.804C425.436 113.551 425.692 114.127 425.777 114.532C425.862 114.938 425.798 115.268 425.585 115.524C425.201 115.908 424.742 116.079 424.209 116.036C423.697 115.994 423.185 115.823 422.673 115.524C422.161 115.204 421.724 114.874 421.361 114.532C419.868 112.911 418.748 111.055 418.001 108.964C417.276 106.852 416.774 104.548 416.497 102.052C416.241 99.5351 416.102 96.9005 416.081 94.1485ZM407.249 110.5C407.804 110.436 408.572 110.34 409.553 110.212C410.534 110.063 411.633 109.903 412.849 109.732C414.086 109.54 415.334 109.338 416.593 109.124L416.657 109.508C415.953 109.956 415.036 110.511 413.905 111.172C412.774 111.834 411.42 112.58 409.841 113.412C409.692 113.839 409.425 114.106 409.041 114.212L407.249 110.5ZM408.497 101.604V100.484L411.185 101.604H414.321V102.5H411.025V108.132C411.025 108.175 410.918 108.271 410.705 108.42C410.492 108.548 410.214 108.666 409.873 108.772C409.553 108.858 409.212 108.9 408.849 108.9H408.497V101.604ZM409.489 106.468H414.321V107.364H409.489V106.468ZM413.009 101.604H412.785L414.001 100.356L416.561 102.276C416.497 102.362 416.38 102.447 416.209 102.532C416.06 102.618 415.868 102.682 415.633 102.724V107.46C415.633 107.546 415.505 107.652 415.249 107.78C415.014 107.908 414.726 108.036 414.385 108.164C414.065 108.271 413.756 108.324 413.457 108.324H413.009V101.604ZM405.329 117.124H428.145V118.02H405.329V117.124ZM426.577 92.7085H426.257L427.985 90.7565L431.441 93.5405C431.185 93.8391 430.748 94.0631 430.129 94.2125V119.172C430.108 119.258 429.937 119.396 429.617 119.588C429.297 119.78 428.913 119.951 428.465 120.1C428.017 120.25 427.569 120.324 427.121 120.324H426.577V92.7085ZM403.121 92.7085V91.1405L406.929 92.7085H428.113V93.6045H406.609V119.204C406.609 119.332 406.47 119.503 406.193 119.716C405.916 119.951 405.564 120.143 405.137 120.292C404.71 120.463 404.23 120.548 403.697 120.548H403.121V92.7085ZM439.217 112.132C439.985 113.37 440.924 114.287 442.033 114.884C443.164 115.482 444.54 115.876 446.161 116.068C447.782 116.239 449.756 116.324 452.081 116.324C452.721 116.324 453.553 116.324 454.577 116.324C455.601 116.324 456.678 116.324 457.809 116.324C458.94 116.324 460.017 116.324 461.041 116.324C462.086 116.303 462.95 116.282 463.633 116.26V116.676C462.993 116.826 462.513 117.167 462.193 117.7C461.894 118.255 461.734 118.895 461.713 119.62C461.18 119.62 460.476 119.62 459.601 119.62C458.748 119.62 457.841 119.62 456.881 119.62C455.921 119.62 455.004 119.62 454.129 119.62C453.276 119.62 452.561 119.62 451.985 119.62C449.574 119.62 447.526 119.418 445.841 119.012C444.177 118.628 442.79 117.914 441.681 116.868C440.572 115.802 439.644 114.287 438.897 112.324L439.217 112.132ZM442.449 99.4605C442.214 99.8658 441.926 100.378 441.585 100.996C441.244 101.615 440.87 102.266 440.465 102.948C440.081 103.61 439.697 104.26 439.313 104.9C438.929 105.519 438.598 106.052 438.321 106.5H438.577L437.457 107.588L434.577 105.572C434.812 105.38 435.11 105.21 435.473 105.06C435.857 104.911 436.209 104.804 436.529 104.74L435.313 105.668C435.633 105.242 435.985 104.708 436.369 104.068C436.774 103.407 437.18 102.714 437.585 101.988C437.99 101.263 438.353 100.57 438.673 99.9085C439.014 99.2471 439.292 98.6925 439.505 98.2445L442.449 99.4605ZM439.089 98.2445L440.657 96.6765L443.793 99.4925C443.601 99.7058 443.292 99.8551 442.865 99.9405C442.438 100.004 441.958 100.036 441.425 100.036C440.913 100.015 440.401 99.9618 439.889 99.8765L439.505 98.2445H439.089ZM440.241 105.604L442.129 103.684L445.425 106.468C445.318 106.618 445.169 106.724 444.977 106.788C444.806 106.852 444.54 106.906 444.177 106.948C443.644 108.591 442.908 110.212 441.969 111.812C441.052 113.412 439.921 114.916 438.577 116.324C437.233 117.711 435.665 118.938 433.873 120.004L433.553 119.652C434.748 118.458 435.814 117.071 436.753 115.492C437.713 113.914 438.513 112.271 439.153 110.564C439.793 108.858 440.262 107.204 440.561 105.604H440.241ZM440.849 98.2445V99.1725H434.097L433.809 98.2445H440.849ZM441.585 105.604V106.5H437.105L437.457 105.604H441.585ZM435.217 91.0125C436.689 91.1405 437.862 91.4071 438.737 91.8125C439.612 92.1965 440.23 92.6551 440.593 93.1885C440.977 93.7005 441.158 94.2125 441.137 94.7245C441.116 95.2151 440.945 95.6418 440.625 96.0045C440.305 96.3671 439.889 96.5805 439.377 96.6445C438.886 96.7085 438.353 96.5485 437.777 96.1645C437.67 95.5671 437.468 94.9698 437.169 94.3725C436.892 93.7538 436.55 93.1671 436.145 92.6125C435.761 92.0578 435.366 91.5885 434.961 91.2045L435.217 91.0125ZM454.993 96.3245C454.716 96.7298 454.374 97.1991 453.969 97.7325C453.564 98.2658 453.148 98.7885 452.721 99.3005C452.316 99.7911 451.91 100.228 451.505 100.612H450.257C450.321 99.9725 450.364 99.2258 450.385 98.3725C450.406 97.5191 450.406 96.8365 450.385 96.3245H454.993ZM449.137 113.956C449.137 114.084 448.988 114.234 448.689 114.404C448.39 114.575 448.017 114.735 447.569 114.884C447.121 115.034 446.652 115.108 446.161 115.108H445.617V100.036V98.5005L449.297 100.036H458.481V100.932H449.137V113.956ZM460.049 91.3965C459.985 91.5885 459.857 91.7485 459.665 91.8765C459.473 91.9831 459.196 92.0365 458.833 92.0365C458.449 92.4845 457.98 92.9858 457.425 93.5405C456.87 94.0951 456.294 94.6498 455.697 95.2045C455.1 95.7378 454.513 96.2391 453.937 96.7085H453.457C453.692 96.0898 453.905 95.3965 454.097 94.6285C454.289 93.8605 454.47 93.0925 454.641 92.3245C454.833 91.5565 454.982 90.8525 455.089 90.2125L460.049 91.3965ZM458.321 112.196V113.092H447.249V112.196H458.321ZM458.321 108.068V108.996H447.249V108.068H458.321ZM458.321 104.036V104.932H447.249V104.036H458.321ZM456.657 100.036L458.321 98.2125L461.745 100.836C461.66 100.964 461.51 101.082 461.297 101.188C461.105 101.295 460.86 101.38 460.561 101.444V113.924C460.54 114.01 460.358 114.127 460.017 114.276C459.697 114.426 459.313 114.564 458.865 114.692C458.417 114.799 457.99 114.852 457.585 114.852H456.977V100.036H456.657ZM446.481 90.5325C447.825 90.7671 448.87 91.1085 449.617 91.5565C450.385 91.9831 450.908 92.4525 451.185 92.9645C451.484 93.4765 451.59 93.9671 451.505 94.4365C451.441 94.9058 451.238 95.2898 450.897 95.5885C450.577 95.8658 450.172 96.0151 449.681 96.0365C449.212 96.0578 448.721 95.8765 448.209 95.4925C448.145 94.6605 447.91 93.8071 447.505 92.9325C447.1 92.0578 446.662 91.3218 446.193 90.7245L446.481 90.5325ZM459.793 93.4125C459.793 93.4125 459.91 93.5085 460.145 93.7005C460.401 93.8925 460.71 94.1378 461.073 94.4365C461.457 94.7351 461.852 95.0658 462.257 95.4285C462.662 95.7698 463.025 96.1005 463.345 96.4205C463.26 96.7618 462.972 96.9325 462.481 96.9325H443.729L443.473 96.0045H457.841L459.793 93.4125Z" fill="white"/>
<path d="M1067.9 39.1431C1067.9 39.1431 1068 39.2151 1068.2 39.3591C1068.4 39.5031 1068.63 39.6921 1068.9 39.9261C1069.19 40.1421 1069.44 40.3671 1069.66 40.6011C1069.6 40.8891 1069.39 41.0331 1069.01 41.0331H1060.13L1059.91 40.2501H1066.93L1067.9 39.1431ZM1067.9 36.2541C1067.9 36.2541 1068 36.3351 1068.2 36.4971C1068.42 36.6411 1068.66 36.8211 1068.93 37.0371C1069.22 37.2531 1069.47 37.4781 1069.68 37.7121C1069.63 38.0001 1069.41 38.1441 1069.01 38.1441H1060.13L1059.91 37.3611H1066.96L1067.9 36.2541ZM1066.82 46.5141C1067.18 47.7921 1067.68 48.9171 1068.31 49.8891C1068.96 50.8611 1069.72 51.7071 1070.6 52.4271C1071.48 53.1471 1072.47 53.7591 1073.57 54.2631C1074.69 54.7671 1075.89 55.1811 1077.19 55.5051L1077.14 55.8021C1076.69 55.8741 1076.3 56.0721 1075.98 56.3961C1075.65 56.7201 1075.41 57.1521 1075.25 57.6921C1073.64 57.0441 1072.25 56.2431 1071.06 55.2891C1069.89 54.3351 1068.92 53.1651 1068.15 51.7791C1067.39 50.3751 1066.8 48.6921 1066.39 46.7301L1066.82 46.5141ZM1072.09 46.4061L1073.44 45.1101L1075.71 47.1081C1075.63 47.2341 1075.52 47.3241 1075.35 47.3781C1075.19 47.4321 1074.96 47.4591 1074.65 47.4591C1074.15 48.8811 1073.46 50.2311 1072.6 51.5091C1071.74 52.7871 1070.66 53.9391 1069.36 54.9651C1068.06 55.9731 1066.51 56.8191 1064.69 57.5031L1064.45 57.1251C1065.89 56.3331 1067.13 55.3791 1068.17 54.2631C1069.23 53.1471 1070.12 51.9231 1070.82 50.5911C1071.52 49.2591 1072.04 47.8641 1072.38 46.4061H1072.09ZM1052.38 53.6691C1053.06 53.6151 1053.99 53.5341 1055.16 53.4261C1056.33 53.3001 1057.65 53.1651 1059.13 53.0211C1060.62 52.8591 1062.16 52.6881 1063.74 52.5081L1063.8 52.9131C1062.72 53.2551 1061.4 53.6511 1059.83 54.1011C1058.26 54.5511 1056.39 55.0641 1054.21 55.6401C1054.16 55.8021 1054.07 55.9281 1053.94 56.0181C1053.82 56.1261 1053.7 56.1981 1053.59 56.2341L1052.38 53.6691ZM1057.37 43.3281V53.9661L1055.29 54.3711V43.3281H1057.37ZM1064.2 57.1791C1064.2 57.2511 1064.05 57.3681 1063.74 57.5301C1063.44 57.6921 1063.02 57.7731 1062.48 57.7731H1062.12V43.3281H1064.2V57.1791ZM1073.71 46.4061V47.2161H1064.99L1064.74 46.4061H1073.71ZM1074.19 41.4921C1074.19 41.4921 1074.27 41.5641 1074.44 41.7081C1074.62 41.8521 1074.84 42.0321 1075.11 42.2481C1075.38 42.4641 1075.66 42.7071 1075.95 42.9771C1076.25 43.2291 1076.53 43.4721 1076.79 43.7061C1076.71 43.9941 1076.47 44.1381 1076.06 44.1381H1052.51L1052.27 43.3281H1072.76L1074.19 41.4921ZM1058.61 41.9241C1058.61 41.9781 1058.52 42.0681 1058.34 42.1941C1058.16 42.3021 1057.94 42.4011 1057.67 42.4911C1057.4 42.5631 1057.11 42.5991 1056.81 42.5991H1056.48V34.4181V33.4191L1058.8 34.4181H1072.09V35.2011H1058.61V41.9241ZM1070.36 34.4181L1071.49 33.1761L1073.95 35.0391C1073.86 35.1471 1073.72 35.2551 1073.52 35.3631C1073.32 35.4531 1073.08 35.5251 1072.79 35.5791V41.7081C1072.79 41.7621 1072.68 41.8341 1072.47 41.9241C1072.27 42.0141 1072.02 42.1041 1071.74 42.1941C1071.47 42.2661 1071.21 42.3021 1070.98 42.3021H1070.63V34.4181H1070.36ZM1063.07 49.7811V50.5641H1056.35V49.7811H1063.07ZM1063.07 46.5141V47.3241H1056.35V46.5141H1063.07ZM1088.02 34.9581L1088.04 34.4181C1088.3 34.3641 1088.55 34.3191 1088.8 34.2831C1089.07 34.2471 1089.36 34.2291 1089.66 34.2291C1090.01 34.2291 1090.36 34.3101 1090.72 34.4721C1091.08 34.6161 1091.41 34.8051 1091.72 35.0391C1092.02 35.2731 1092.27 35.5161 1092.45 35.7681C1092.64 36.0201 1092.74 36.2451 1092.74 36.4431C1092.74 36.7131 1092.66 36.9381 1092.5 37.1181C1092.34 37.2801 1092.18 37.5231 1092.01 37.8471C1091.82 38.2791 1091.6 38.7831 1091.37 39.3591C1091.15 39.9171 1090.89 40.6641 1090.58 41.6001C1090.38 42.1761 1090.16 42.8781 1089.91 43.7061C1089.67 44.5341 1089.44 45.4161 1089.21 46.3521C1088.97 47.2701 1088.77 48.1701 1088.61 49.0521C1088.47 49.9161 1088.4 50.6721 1088.4 51.3201C1088.4 52.6521 1088.78 53.6331 1089.56 54.2631C1090.35 54.8751 1091.37 55.1811 1092.61 55.1811C1093.74 55.1811 1094.7 54.9651 1095.47 54.5331C1096.26 54.0831 1096.86 53.5071 1097.25 52.8051C1097.65 52.1031 1097.85 51.3561 1097.85 50.5641C1097.85 49.5741 1097.67 48.7011 1097.31 47.9451C1096.95 47.1891 1096.45 46.4961 1095.82 45.8661C1095.19 45.2361 1094.46 44.6151 1093.63 44.0031L1093.98 43.5711C1095.41 44.2371 1096.56 44.9661 1097.44 45.7581C1098.34 46.5321 1099 47.3781 1099.41 48.2961C1099.83 49.1961 1100.03 50.1501 1100.03 51.1581C1100.03 51.8241 1099.89 52.4991 1099.6 53.1831C1099.31 53.8671 1098.87 54.4971 1098.28 55.0731C1097.7 55.6491 1096.96 56.1081 1096.06 56.4501C1095.18 56.8101 1094.13 56.9901 1092.9 56.9901C1091.63 56.9901 1090.56 56.7471 1089.69 56.2611C1088.85 55.7931 1088.21 55.1451 1087.77 54.3171C1087.34 53.4711 1087.13 52.4991 1087.13 51.4011C1087.13 50.7171 1087.18 49.9251 1087.29 49.0251C1087.41 48.1251 1087.57 47.1981 1087.75 46.2441C1087.93 45.2721 1088.11 44.3631 1088.29 43.5171C1088.49 42.6531 1088.66 41.9331 1088.8 41.3571C1089.02 40.6191 1089.21 39.9351 1089.37 39.3051C1089.55 38.6751 1089.7 38.1171 1089.83 37.6311C1089.95 37.1451 1090.02 36.7671 1090.04 36.4971C1090.06 36.1731 1090.02 35.9391 1089.91 35.7951C1089.8 35.6511 1089.62 35.5161 1089.37 35.3901C1089.17 35.3001 1088.94 35.2191 1088.69 35.1471C1088.46 35.0571 1088.23 34.9941 1088.02 34.9581ZM1083.59 37.5231C1083.93 37.9911 1084.29 38.4141 1084.67 38.7921C1085.05 39.1701 1085.52 39.4761 1086.07 39.7101C1087.1 40.1061 1088.08 40.3221 1089.02 40.3581C1089.97 40.3761 1090.84 40.4211 1091.63 40.4931C1092.14 40.5471 1092.5 40.6911 1092.72 40.9251C1092.93 41.1591 1093.04 41.4111 1093.04 41.6811C1093.04 41.9511 1092.94 42.1491 1092.74 42.2751C1092.56 42.4011 1092.29 42.4731 1091.93 42.4911C1091.7 42.5091 1091.38 42.5091 1090.99 42.4911C1090.61 42.4731 1090.22 42.4551 1089.83 42.4371C1089.43 42.4011 1089.09 42.3831 1088.8 42.3831C1088.35 42.3831 1087.87 42.4641 1087.37 42.6261C1086.87 42.7881 1086.39 43.0131 1085.94 43.3011C1085.49 43.5891 1085.12 43.9041 1084.83 44.2461C1084.56 44.5701 1084.43 44.8941 1084.43 45.2181C1084.43 45.5061 1084.53 45.7851 1084.75 46.0551C1084.98 46.3071 1085.35 46.5321 1085.86 46.7301C1086.36 46.9281 1087.05 47.0811 1087.91 47.1891C1088.79 47.2971 1089.58 47.3421 1090.29 47.3241C1090.99 47.2881 1091.53 47.2881 1091.91 47.3241C1092.28 47.3421 1092.58 47.4411 1092.8 47.6211C1093.01 47.7831 1093.12 48.0261 1093.12 48.3501C1093.12 48.6381 1093.01 48.8721 1092.8 49.0521C1092.58 49.2321 1092.2 49.3491 1091.66 49.4031C1091.23 49.4391 1090.65 49.4481 1089.93 49.4301C1089.21 49.3941 1088.45 49.3041 1087.64 49.1601C1086.27 48.8901 1085.21 48.4401 1084.45 47.8101C1083.7 47.1621 1083.32 46.4241 1083.32 45.5961C1083.32 45.0921 1083.47 44.5971 1083.78 44.1111C1084.1 43.6071 1084.53 43.1301 1085.07 42.6801C1085.61 42.2301 1086.21 41.8431 1086.86 41.5191C1086.51 41.4111 1086.19 41.2941 1085.88 41.1681C1085.6 41.0421 1085.28 40.8711 1084.94 40.6551C1084.47 40.3311 1084.09 39.9531 1083.81 39.5211C1083.54 39.0711 1083.32 38.4861 1083.16 37.7661L1083.59 37.5231ZM1113.91 35.1471H1127.06L1128.49 33.3111C1128.49 33.3111 1128.58 33.3831 1128.76 33.5271C1128.94 33.6711 1129.17 33.8601 1129.44 34.0941C1129.71 34.3101 1129.99 34.5441 1130.3 34.7961C1130.61 35.0481 1130.88 35.2821 1131.14 35.4981C1131.12 35.6421 1131.04 35.7501 1130.89 35.8221C1130.77 35.8941 1130.61 35.9301 1130.41 35.9301H1114.13L1113.91 35.1471ZM1115.58 46.9461H1128.44V47.7291H1115.58V46.9461ZM1115.58 42.9231H1128.44V43.7061H1115.58V42.9231ZM1127.33 38.9541H1127.06L1128.19 37.7121L1130.65 39.5751C1130.56 39.6831 1130.42 39.7911 1130.22 39.8991C1130.02 40.0071 1129.78 40.0881 1129.49 40.1421V48.5661C1129.49 48.6201 1129.38 48.7011 1129.17 48.8091C1128.97 48.8991 1128.73 48.9891 1128.46 49.0791C1128.19 49.1511 1127.93 49.1871 1127.68 49.1871H1127.33V38.9541ZM1114.4 38.9541V37.9821L1116.66 38.9541H1128.3V39.7371H1116.5V48.6471C1116.5 48.7191 1116.41 48.8181 1116.23 48.9441C1116.05 49.0521 1115.83 49.1511 1115.56 49.2411C1115.29 49.3131 1115.01 49.3491 1114.72 49.3491H1114.4V38.9541ZM1120.74 35.1471H1122.9V45.6231C1122.9 46.8111 1122.82 47.9271 1122.66 48.9711C1122.5 50.0151 1122.2 50.9871 1121.77 51.8871C1121.34 52.7691 1120.71 53.5791 1119.9 54.3171C1119.11 55.0371 1118.08 55.6851 1116.8 56.2611C1115.54 56.8371 1113.97 57.3321 1112.1 57.7461L1111.86 57.3681C1113.71 56.7201 1115.22 56.0271 1116.37 55.2891C1117.54 54.5331 1118.44 53.6961 1119.07 52.7781C1119.72 51.8421 1120.16 50.7891 1120.39 49.6191C1120.62 48.4491 1120.74 47.1351 1120.74 45.6771V35.1471ZM1116.21 49.3221C1116.85 50.2941 1117.68 51.1491 1118.69 51.8871C1119.72 52.6071 1120.89 53.2011 1122.2 53.6691C1123.51 54.1371 1124.94 54.4971 1126.49 54.7491C1128.04 55.0011 1129.67 55.1541 1131.38 55.2081V55.5051C1130.91 55.6311 1130.51 55.8831 1130.16 56.2611C1129.84 56.6571 1129.62 57.1251 1129.52 57.6651C1127.23 57.3951 1125.21 56.9361 1123.44 56.2881C1121.68 55.6581 1120.17 54.7941 1118.91 53.6961C1117.65 52.5981 1116.62 51.2211 1115.83 49.5651L1116.21 49.3221ZM1109.43 41.0061L1110.37 39.7641L1112.43 40.5201C1112.39 40.6461 1112.3 40.7541 1112.16 40.8441C1112.03 40.9161 1111.85 40.9701 1111.62 41.0061V57.0441C1111.62 57.0981 1111.53 57.1791 1111.35 57.2871C1111.17 57.4131 1110.94 57.5211 1110.67 57.6111C1110.4 57.7011 1110.12 57.7461 1109.83 57.7461H1109.43V41.0061ZM1111.64 32.8521L1114.88 33.8511C1114.83 34.0131 1114.71 34.1481 1114.53 34.2561C1114.37 34.3641 1114.14 34.4091 1113.83 34.3911C1113.22 36.0651 1112.51 37.6671 1111.7 39.1971C1110.9 40.7091 1110.04 42.1041 1109.1 43.3821C1108.17 44.6601 1107.17 45.7851 1106.11 46.7571L1105.73 46.4871C1106.5 45.3891 1107.26 44.1111 1108 42.6531C1108.75 41.1771 1109.45 39.6021 1110.08 37.9281C1110.71 36.2541 1111.23 34.5621 1111.64 32.8521ZM1133.46 41.3031H1144.26L1145.61 39.4941C1145.61 39.4941 1145.69 39.5661 1145.85 39.7101C1146.03 39.8361 1146.25 40.0161 1146.5 40.2501C1146.75 40.4661 1147.02 40.7001 1147.31 40.9521C1147.6 41.1861 1147.86 41.4201 1148.09 41.6541C1148.02 41.9421 1147.78 42.0861 1147.36 42.0861H1133.67L1133.46 41.3031ZM1144.77 32.8521L1147.36 35.1741C1147.24 35.3001 1147.04 35.3721 1146.77 35.3901C1146.52 35.3901 1146.2 35.3181 1145.82 35.1741C1144.82 35.4801 1143.64 35.7771 1142.29 36.0651C1140.94 36.3531 1139.51 36.6141 1137.99 36.8481C1136.5 37.0641 1135.02 37.2261 1133.54 37.3341L1133.43 36.9291C1134.44 36.6951 1135.48 36.4161 1136.56 36.0921C1137.64 35.7681 1138.69 35.4261 1139.7 35.0661C1140.72 34.7061 1141.67 34.3371 1142.53 33.9591C1143.41 33.5631 1144.16 33.1941 1144.77 32.8521ZM1139.37 41.3031H1141.72V41.7351C1140.91 44.0571 1139.76 46.2081 1138.26 48.1881C1136.77 50.1501 1135.02 51.8601 1133 53.3181L1132.68 52.9671C1133.7 51.9411 1134.64 50.7891 1135.48 49.5111C1136.35 48.2331 1137.1 46.8921 1137.75 45.4881C1138.42 44.0841 1138.96 42.6891 1139.37 41.3031ZM1141.86 44.0031C1143.01 44.4531 1143.94 44.9391 1144.66 45.4611C1145.38 45.9831 1145.91 46.5051 1146.26 47.0271C1146.62 47.5311 1146.82 47.9991 1146.88 48.4311C1146.93 48.8631 1146.88 49.2141 1146.72 49.4841C1146.57 49.7541 1146.35 49.9071 1146.04 49.9431C1145.75 49.9791 1145.44 49.8621 1145.1 49.5921C1144.95 48.9981 1144.68 48.3771 1144.29 47.7291C1143.91 47.0631 1143.48 46.4241 1142.99 45.8121C1142.5 45.2001 1142.03 44.6601 1141.56 44.1921L1141.86 44.0031ZM1141.94 35.2011V57.0711C1141.94 57.1071 1141.86 57.1791 1141.72 57.2871C1141.58 57.4131 1141.37 57.5211 1141.1 57.6111C1140.83 57.7011 1140.52 57.7461 1140.18 57.7461H1139.8V35.8221L1141.94 35.2011ZM1148.74 35.1201L1151.76 35.4171C1151.75 35.5971 1151.67 35.7591 1151.52 35.9031C1151.38 36.0471 1151.13 36.1371 1150.79 36.1731V51.4551C1150.79 51.5271 1150.7 51.6171 1150.52 51.7251C1150.36 51.8331 1150.15 51.9321 1149.9 52.0221C1149.65 52.1121 1149.39 52.1571 1149.12 52.1571H1148.74V35.1201ZM1154.57 33.3111L1157.65 33.6351C1157.63 33.8151 1157.54 33.9771 1157.38 34.1211C1157.24 34.2471 1157 34.3371 1156.68 34.3911V54.7221C1156.68 55.2621 1156.61 55.7301 1156.46 56.1261C1156.32 56.5401 1156.02 56.8731 1155.57 57.1251C1155.12 57.3771 1154.42 57.5571 1153.47 57.6651C1153.41 57.3231 1153.34 57.0171 1153.25 56.7471C1153.16 56.4951 1153.02 56.2791 1152.82 56.0991C1152.58 55.9011 1152.28 55.7391 1151.9 55.6131C1151.54 55.4871 1151.03 55.3791 1150.36 55.2891V54.8841C1150.36 54.8841 1150.51 54.9021 1150.82 54.9381C1151.13 54.9561 1151.49 54.9831 1151.9 55.0191C1152.33 55.0371 1152.74 55.0551 1153.11 55.0731C1153.49 55.0911 1153.75 55.1001 1153.9 55.1001C1154.15 55.1001 1154.32 55.0551 1154.41 54.9651C1154.52 54.8751 1154.57 54.7311 1154.57 54.5331V33.3111ZM1176.33 39.7641V39.1701C1177.04 39.0261 1177.73 38.9721 1178.41 39.0081C1179.1 39.0441 1179.7 39.1611 1180.22 39.3591C1181.07 39.6471 1181.72 40.0521 1182.17 40.5741C1182.62 41.0961 1182.84 41.6631 1182.84 42.2751C1182.84 42.5991 1182.77 42.8691 1182.63 43.0851C1182.48 43.3011 1182.26 43.4091 1181.95 43.4091C1181.7 43.4091 1181.46 43.3641 1181.22 43.2741C1181.01 43.1841 1180.75 43.0941 1180.47 43.0041C1180.18 42.9141 1179.83 42.8781 1179.41 42.8961C1178.96 42.9501 1178.52 43.0581 1178.09 43.2201C1177.66 43.3821 1177.31 43.6161 1177.04 43.9221C1176.77 44.2101 1176.6 44.5701 1176.52 45.0021C1176.47 45.4341 1176.46 45.9021 1176.5 46.4061C1176.53 46.7301 1176.59 47.1801 1176.66 47.7561C1176.75 48.3141 1176.84 48.9261 1176.93 49.5921C1177.04 50.2581 1177.13 50.9151 1177.2 51.5631C1177.27 52.2111 1177.31 52.7871 1177.31 53.2911C1177.31 54.4251 1176.9 55.2981 1176.09 55.9101C1175.28 56.5401 1174.17 56.8551 1172.74 56.8551C1171.32 56.8551 1170.22 56.5491 1169.45 55.9371C1168.69 55.3251 1168.32 54.5961 1168.32 53.7501C1168.32 53.0481 1168.54 52.4181 1168.99 51.8601C1169.46 51.3021 1170.12 50.8611 1170.99 50.5371C1171.87 50.1951 1172.92 50.0241 1174.15 50.0241C1175.68 50.0241 1177.02 50.2491 1178.17 50.6991C1179.32 51.1311 1180.28 51.5901 1181.03 52.0761C1181.73 52.5081 1182.27 52.9401 1182.63 53.3721C1183 53.8041 1183.19 54.2271 1183.19 54.6411C1183.19 54.9831 1183.11 55.2441 1182.95 55.4241C1182.79 55.6041 1182.58 55.6941 1182.33 55.6941C1182.13 55.6941 1181.95 55.6401 1181.79 55.5321C1181.64 55.4061 1181.48 55.2531 1181.3 55.0731C1181.12 54.8931 1180.92 54.7041 1180.68 54.5061C1180.11 53.9481 1179.45 53.4351 1178.71 52.9671C1177.97 52.4991 1177.14 52.1301 1176.2 51.8601C1175.26 51.5721 1174.2 51.4281 1173.01 51.4281C1171.83 51.4281 1170.93 51.6351 1170.31 52.0491C1169.72 52.4631 1169.42 52.9041 1169.42 53.3721C1169.42 53.8401 1169.65 54.2361 1170.1 54.5601C1170.55 54.8661 1171.25 55.0191 1172.2 55.0191C1173.01 55.0191 1173.64 54.9021 1174.09 54.6681C1174.56 54.4341 1174.89 54.1101 1175.07 53.6961C1175.26 53.2821 1175.36 52.8051 1175.36 52.2651C1175.36 51.7071 1175.34 51.1221 1175.28 50.5101C1175.25 49.8801 1175.2 49.2591 1175.15 48.6471C1175.11 48.0171 1175.09 47.4321 1175.09 46.8921C1175.09 46.1001 1175.19 45.4341 1175.39 44.8941C1175.59 44.3361 1175.9 43.8321 1176.33 43.3821C1176.78 42.8961 1177.3 42.5181 1177.87 42.2481C1178.45 41.9781 1178.96 41.7351 1179.41 41.5191C1179.63 41.3931 1179.72 41.2491 1179.68 41.0871C1179.66 40.9251 1179.55 40.7721 1179.33 40.6281C1178.97 40.3401 1178.53 40.1331 1178.01 40.0071C1177.5 39.8631 1176.95 39.7821 1176.33 39.7641ZM1161.97 37.9281C1162.37 38.2341 1162.73 38.5041 1163.05 38.7381C1163.37 38.9721 1163.73 39.1521 1164.13 39.2781C1164.53 39.4041 1165.02 39.4671 1165.62 39.4671C1166.03 39.4671 1166.45 39.4401 1166.88 39.3861C1167.32 39.3141 1167.72 39.2331 1168.1 39.1431C1168.48 39.0531 1168.78 38.9811 1169.02 38.9271C1170.06 38.6391 1170.86 38.3691 1171.42 38.1171C1171.98 37.8651 1172.39 37.6671 1172.66 37.5231C1172.93 37.3791 1173.15 37.3071 1173.31 37.3071C1173.62 37.3071 1173.88 37.3971 1174.09 37.5771C1174.31 37.7391 1174.42 37.9641 1174.42 38.2521C1174.42 38.5041 1174.31 38.7201 1174.09 38.9001C1173.9 39.0801 1173.71 39.2241 1173.53 39.3321C1173.17 39.5301 1172.67 39.7461 1172.04 39.9801C1171.43 40.1961 1170.75 40.4031 1169.99 40.6011C1169.23 40.7811 1168.46 40.9251 1167.67 41.0331C1166.88 41.1411 1166.12 41.1951 1165.4 41.1951C1164.7 41.1951 1164.1 41.1051 1163.62 40.9251C1163.15 40.7451 1162.75 40.4391 1162.43 40.0071C1162.11 39.5751 1161.8 38.9901 1161.51 38.2521L1161.97 37.9281ZM1166.59 34.9311V34.4991C1166.82 34.3911 1167.1 34.3011 1167.42 34.2291C1167.75 34.1571 1168.06 34.1211 1168.37 34.1211C1168.77 34.1211 1169.15 34.1661 1169.53 34.2561C1169.93 34.3461 1170.24 34.4721 1170.48 34.6341C1170.62 34.7241 1170.7 34.8501 1170.72 35.0121C1170.75 35.1741 1170.74 35.4261 1170.66 35.7681C1170.59 36.1101 1170.47 36.5781 1170.29 37.1721C1170.12 37.7661 1169.9 38.5491 1169.61 39.5211C1169.47 39.9891 1169.27 40.5921 1169.02 41.3301C1168.78 42.0681 1168.5 42.8781 1168.15 43.7601C1167.81 44.6421 1167.43 45.5511 1167.02 46.4871C1166.62 47.4051 1166.19 48.3141 1165.72 49.2141C1165.26 50.1141 1164.78 50.9421 1164.29 51.6981C1164.06 52.0581 1163.83 52.3551 1163.62 52.5891C1163.4 52.8051 1163.15 52.9131 1162.86 52.9131C1162.54 52.9131 1162.29 52.7781 1162.13 52.5081C1161.97 52.2381 1161.89 51.9501 1161.89 51.6441C1161.89 51.3741 1161.93 51.1311 1162 50.9151C1162.07 50.6991 1162.2 50.4651 1162.4 50.2131C1163.01 49.4211 1163.64 48.5301 1164.29 47.5401C1164.96 46.5321 1165.59 45.4251 1166.18 44.2191C1166.79 43.0131 1167.29 41.7261 1167.67 40.3581C1167.79 39.9081 1167.91 39.4401 1168.02 38.9541C1168.14 38.4681 1168.23 38.0091 1168.29 37.5771C1168.36 37.1451 1168.41 36.7671 1168.42 36.4431C1168.44 36.1551 1168.41 35.9391 1168.32 35.7951C1168.23 35.6511 1168.06 35.5161 1167.83 35.3901C1167.63 35.2821 1167.42 35.1921 1167.18 35.1201C1166.95 35.0301 1166.75 34.9671 1166.59 34.9311ZM1209.27 35.6601C1209.27 35.6601 1209.36 35.7411 1209.54 35.9031C1209.72 36.0651 1209.95 36.2721 1210.22 36.5241C1210.51 36.7761 1210.8 37.0461 1211.08 37.3341C1211.39 37.6041 1211.67 37.8561 1211.92 38.0901C1211.85 38.3781 1211.6 38.5221 1211.16 38.5221H1187.57L1187.32 37.7391H1207.82L1209.27 35.6601ZM1196.45 32.7981C1197.55 32.9781 1198.43 33.2481 1199.1 33.6081C1199.78 33.9681 1200.27 34.3641 1200.58 34.7961C1200.89 35.2101 1201.06 35.6151 1201.09 36.0111C1201.15 36.4071 1201.08 36.7401 1200.9 37.0101C1200.72 37.2801 1200.47 37.4511 1200.15 37.5231C1199.82 37.5771 1199.46 37.4781 1199.07 37.2261C1198.96 36.7221 1198.75 36.2091 1198.45 35.6871C1198.14 35.1651 1197.78 34.6701 1197.37 34.2021C1196.97 33.7341 1196.58 33.3291 1196.18 32.9871L1196.45 32.7981ZM1202.47 39.3861C1204.05 39.8181 1205.36 40.3131 1206.39 40.8711C1207.43 41.4111 1208.23 41.9781 1208.79 42.5721C1209.36 43.1481 1209.75 43.6971 1209.95 44.2191C1210.15 44.7411 1210.19 45.1911 1210.08 45.5691C1209.99 45.9291 1209.79 46.1631 1209.46 46.2711C1209.14 46.3791 1208.75 46.3161 1208.3 46.0821C1208.05 45.5421 1207.7 44.9751 1207.25 44.3811C1206.8 43.7871 1206.29 43.2021 1205.71 42.6261C1205.15 42.0501 1204.57 41.5101 1203.96 41.0061C1203.36 40.4841 1202.79 40.0341 1202.23 39.6561L1202.47 39.3861ZM1194.64 44.0301C1195.32 45.6501 1196.25 47.0991 1197.42 48.3771C1198.61 49.6371 1199.98 50.7441 1201.53 51.6981C1203.07 52.6341 1204.76 53.4171 1206.57 54.0471C1208.41 54.6771 1210.32 55.1631 1212.3 55.5051L1212.24 55.8291C1211.74 55.9191 1211.31 56.1261 1210.95 56.4501C1210.59 56.7741 1210.33 57.2061 1210.17 57.7461C1207.61 57.0621 1205.29 56.1441 1203.2 54.9921C1201.11 53.8221 1199.3 52.3641 1197.77 50.6181C1196.24 48.8541 1195.05 46.7571 1194.21 44.3271L1194.64 44.0301ZM1197.31 40.5471C1197.24 40.6731 1197.13 40.7721 1196.99 40.8441C1196.85 40.8981 1196.62 40.9071 1196.31 40.8711C1195.77 41.5911 1195.1 42.3291 1194.29 43.0851C1193.48 43.8411 1192.57 44.5611 1191.56 45.2451C1190.57 45.9111 1189.51 46.4781 1188.38 46.9461L1188.13 46.5951C1189.03 45.9471 1189.88 45.2001 1190.67 44.3541C1191.48 43.4901 1192.2 42.5991 1192.83 41.6811C1193.46 40.7451 1193.96 39.8721 1194.32 39.0621L1197.31 40.5471ZM1206.44 44.8671C1206.37 45.0111 1206.25 45.1191 1206.09 45.1911C1205.93 45.2631 1205.67 45.2721 1205.33 45.2181C1204.43 47.1981 1203.16 49.0341 1201.53 50.7261C1199.91 52.4001 1197.91 53.8491 1195.53 55.0731C1193.16 56.2791 1190.37 57.1701 1187.16 57.7461L1187 57.3411C1189.88 56.5311 1192.41 55.4511 1194.59 54.1011C1196.76 52.7331 1198.58 51.1581 1200.04 49.3761C1201.5 47.5761 1202.61 45.6411 1203.39 43.5711L1206.44 44.8671ZM1219.32 51.1581C1219.98 52.2741 1220.78 53.1021 1221.69 53.6421C1222.63 54.1821 1223.77 54.5421 1225.12 54.7221C1226.47 54.8841 1228.08 54.9651 1229.96 54.9651C1230.48 54.9651 1231.14 54.9651 1231.95 54.9651C1232.78 54.9651 1233.66 54.9651 1234.57 54.9651C1235.49 54.9651 1236.36 54.9651 1237.19 54.9651C1238.04 54.9471 1238.74 54.9291 1239.3 54.9111V55.2621C1238.87 55.3521 1238.54 55.5681 1238.33 55.9101C1238.11 56.2521 1237.99 56.6571 1237.98 57.1251C1237.54 57.1251 1236.97 57.1251 1236.25 57.1251C1235.55 57.1251 1234.79 57.1251 1233.98 57.1251C1233.19 57.1251 1232.42 57.1251 1231.68 57.1251C1230.96 57.1251 1230.36 57.1251 1229.88 57.1251C1227.91 57.1251 1226.24 56.9721 1224.85 56.6661C1223.49 56.3601 1222.33 55.7931 1221.4 54.9651C1220.46 54.1191 1219.66 52.9221 1218.99 51.3741L1219.32 51.1581ZM1221.4 40.5741C1221.15 40.9521 1220.83 41.4111 1220.45 41.9511C1220.09 42.4731 1219.7 43.0311 1219.26 43.6251C1218.85 44.2011 1218.44 44.7591 1218.02 45.2991C1217.61 45.8391 1217.25 46.3071 1216.94 46.7031H1217.16L1216.32 47.4051L1214.62 45.8931C1214.8 45.7851 1215.03 45.6771 1215.32 45.5691C1215.63 45.4611 1215.9 45.3981 1216.13 45.3801L1215.19 46.0821C1215.51 45.7041 1215.88 45.2451 1216.29 44.7051C1216.73 44.1471 1217.15 43.5621 1217.56 42.9501C1218 42.3201 1218.4 41.7261 1218.78 41.1681C1219.16 40.6101 1219.46 40.1151 1219.7 39.6831L1221.4 40.5741ZM1219.35 39.7641L1220.45 38.6301L1222.75 40.6551C1222.62 40.7991 1222.41 40.9071 1222.1 40.9791C1221.79 41.0331 1221.45 41.0691 1221.07 41.0871C1220.71 41.0871 1220.34 41.0601 1219.97 41.0061L1219.67 39.7641H1219.35ZM1219.78 46.0281L1221.05 44.8131L1223.18 46.7031C1223.02 46.9191 1222.67 47.0361 1222.13 47.0541C1221.71 48.4041 1221.15 49.7451 1220.45 51.0771C1219.77 52.3911 1218.9 53.6241 1217.83 54.7761C1216.77 55.9281 1215.51 56.9271 1214.05 57.7731L1213.78 57.4221C1214.92 56.4861 1215.9 55.3971 1216.73 54.1551C1217.55 52.8951 1218.25 51.5721 1218.81 50.1861C1219.36 48.8001 1219.78 47.4141 1220.05 46.0281H1219.78ZM1220.24 39.7641V40.5471H1214.54L1214.3 39.7641H1220.24ZM1221.4 46.0281V46.8381H1216.29L1216.62 46.0281H1221.4ZM1216 32.8521C1217.08 33.0861 1217.94 33.3921 1218.59 33.7701C1219.26 34.1481 1219.75 34.5531 1220.07 34.9851C1220.42 35.3991 1220.61 35.7951 1220.67 36.1731C1220.74 36.5511 1220.7 36.8751 1220.53 37.1451C1220.37 37.3971 1220.15 37.5591 1219.86 37.6311C1219.57 37.7031 1219.25 37.6311 1218.89 37.4151C1218.74 36.9111 1218.5 36.3891 1218.16 35.8491C1217.82 35.3091 1217.43 34.7961 1217 34.3101C1216.56 33.8241 1216.14 33.4101 1215.73 33.0681L1216 32.8521ZM1234.95 39.6831L1235.95 38.4681L1238.35 40.3041C1238.28 40.4121 1238.14 40.5201 1237.92 40.6281C1237.72 40.7181 1237.49 40.7811 1237.22 40.8171V51.2931C1237.22 51.7791 1237.16 52.2021 1237.03 52.5621C1236.92 52.9041 1236.68 53.1831 1236.3 53.3991C1235.94 53.6151 1235.37 53.7591 1234.6 53.8311C1234.58 53.5611 1234.54 53.3091 1234.47 53.0751C1234.41 52.8411 1234.32 52.6521 1234.2 52.5081C1234.07 52.3821 1233.87 52.2651 1233.6 52.1571C1233.35 52.0311 1233 51.9411 1232.55 51.8871V51.4551C1232.55 51.4551 1232.64 51.4641 1232.82 51.4821C1233 51.5001 1233.21 51.5181 1233.47 51.5361C1233.72 51.5541 1233.96 51.5721 1234.2 51.5901C1234.45 51.6081 1234.63 51.6171 1234.74 51.6171C1234.93 51.6171 1235.06 51.5811 1235.11 51.5091C1235.19 51.4191 1235.22 51.2841 1235.22 51.1041V39.6831H1234.95ZM1226.72 35.7141C1227.87 35.9661 1228.8 36.2541 1229.5 36.5781C1230.2 36.9021 1230.73 37.2351 1231.09 37.5771C1231.47 37.9191 1231.7 38.2521 1231.79 38.5761C1231.9 38.8821 1231.9 39.1611 1231.79 39.4131C1231.7 39.6471 1231.55 39.8271 1231.33 39.9531C1231.14 40.0791 1230.91 40.1241 1230.66 40.0881C1230.41 40.0341 1230.17 39.8721 1229.96 39.6021C1229.72 39.0441 1229.32 38.4591 1228.74 37.8471C1228.17 37.2351 1227.42 36.6501 1226.5 36.0921L1226.72 35.7141ZM1233.95 34.1751L1235.25 32.9601L1237.44 35.0391C1237.33 35.1291 1237.18 35.1921 1237 35.2281C1236.84 35.2461 1236.62 35.2641 1236.33 35.2821C1235.88 35.6421 1235.32 36.0201 1234.65 36.4161C1234.01 36.8121 1233.32 37.1901 1232.6 37.5501C1231.9 37.9101 1231.25 38.2251 1230.66 38.4951L1230.36 38.2521C1230.78 37.8921 1231.23 37.4691 1231.74 36.9831C1232.26 36.4791 1232.75 35.9751 1233.2 35.4711C1233.66 34.9671 1234.02 34.5351 1234.28 34.1751H1233.95ZM1234.87 34.1751V34.9581H1223.8L1223.56 34.1751H1234.87ZM1231.58 52.7781C1231.58 52.8321 1231.43 52.9401 1231.14 53.1021C1230.86 53.2461 1230.47 53.3181 1229.98 53.3181H1229.69V39.6831H1231.58V52.7781ZM1236.03 47.4591V48.2421H1224.99V47.4591H1236.03ZM1236.03 43.4361V44.2461H1224.99V43.4361H1236.03ZM1225.96 53.1021C1225.96 53.1741 1225.88 53.2731 1225.72 53.3991C1225.56 53.5071 1225.35 53.6061 1225.1 53.6961C1224.84 53.7861 1224.57 53.8311 1224.26 53.8311H1223.94V39.6831V38.7111L1226.1 39.6831H1236.19V40.4661H1225.96V53.1021Z" fill="white"/>
<line y1="75.0474" x2="1240" y2="75.0474" stroke="white"/>
</svg>
