<svg width="310" height="60" viewBox="0 0 310 60" fill="none" xmlns="http://www.w3.org/2000/svg">
<path d="M9.672 28.448C7.73067 28.448 6.20933 28.0467 5.108 27.244C4.02533 26.4413 3.39067 25.3027 3.204 23.828C3.33467 23.436 3.54 23.1467 3.82 22.96C4.11867 22.7733 4.436 22.68 4.772 22.68C5.25733 22.68 5.64 22.8293 5.92 23.128C6.21867 23.4267 6.43333 23.9773 6.564 24.78L7.18 27.664L5.864 26.796C6.29333 27.02 6.704 27.1973 7.096 27.328C7.50667 27.4587 7.97333 27.524 8.496 27.524C9.97067 27.524 11.1093 27.1133 11.912 26.292C12.7147 25.452 13.116 24.2573 13.116 22.708C13.116 21.084 12.724 19.852 11.94 19.012C11.1747 18.1533 10.0267 17.724 8.496 17.724H7.348V16.66H8.356C9.62533 16.66 10.6613 16.268 11.464 15.484C12.2667 14.7 12.668 13.5053 12.668 11.9C12.668 10.5373 12.3507 9.50133 11.716 8.792C11.1 8.08267 10.232 7.728 9.112 7.728C8.70133 7.728 8.26267 7.784 7.796 7.896C7.348 7.98933 6.85333 8.15733 6.312 8.4L7.88 7.672L7.264 10.416C7.13333 11.0507 6.9 11.4893 6.564 11.732C6.228 11.9747 5.836 12.096 5.388 12.096C5.08933 12.096 4.81867 12.0307 4.576 11.9C4.33333 11.7507 4.14667 11.5453 4.016 11.284C4.09067 10.2387 4.41733 9.38933 4.996 8.736C5.57467 8.064 6.312 7.57867 7.208 7.28C8.12267 6.96267 9.112 6.804 10.176 6.804C12.248 6.804 13.7973 7.27067 14.824 8.204C15.8693 9.11867 16.392 10.304 16.392 11.76C16.392 12.6933 16.1587 13.552 15.692 14.336C15.244 15.12 14.5347 15.7733 13.564 16.296C12.5933 16.8187 11.3053 17.1547 9.7 17.304V16.912C11.4733 17.0053 12.892 17.304 13.956 17.808C15.0387 18.312 15.8227 18.984 16.308 19.824C16.7933 20.664 17.036 21.6253 17.036 22.708C17.036 23.8467 16.728 24.8547 16.112 25.732C15.5147 26.5907 14.6653 27.2627 13.564 27.748C12.4627 28.2147 11.1653 28.448 9.672 28.448ZM33.1087 22.057C32.8847 22.253 32.5067 22.239 31.9747 22.015C31.4987 22.127 30.9387 22.232 30.2947 22.33C29.6507 22.414 28.9787 22.491 28.2787 22.561C27.5927 22.631 26.9137 22.68 26.2417 22.708L26.1787 22.372C26.7667 22.204 27.3827 22.001 28.0267 21.763C28.6707 21.525 29.2797 21.28 29.8537 21.028C30.4417 20.762 30.9177 20.517 31.2817 20.293L33.1087 22.057ZM28.5097 20.419C28.5097 20.475 28.4327 20.545 28.2787 20.629C28.1247 20.713 27.9287 20.79 27.6907 20.86C27.4527 20.93 27.2147 20.965 26.9767 20.965H26.7037V16.912V16.135L28.5937 16.912H31.7017V17.5H28.5097V20.419ZM31.4707 19.39V19.999H27.8167V19.39H31.4707ZM30.3367 16.912L31.1977 15.988L33.0667 17.395C33.0107 17.465 32.9127 17.535 32.7727 17.605C32.6467 17.675 32.4927 17.724 32.3107 17.752V20.041C32.3107 20.083 32.2197 20.146 32.0377 20.23C31.8697 20.3 31.6667 20.363 31.4287 20.419C31.2047 20.475 31.0017 20.503 30.8197 20.503H30.5257V16.912H30.3367ZM25.7377 26.572C26.1857 26.53 26.8017 26.46 27.5857 26.362C28.3697 26.25 29.2517 26.117 30.2317 25.963C31.2117 25.809 32.2197 25.655 33.2557 25.501L33.2767 25.753C32.6607 26.089 31.8837 26.481 30.9457 26.929C30.0217 27.377 28.8877 27.881 27.5437 28.441C27.4877 28.581 27.4107 28.693 27.3127 28.777C27.2287 28.875 27.1307 28.938 27.0187 28.966L25.7377 26.572ZM35.9647 10.57C35.9507 10.71 35.8877 10.836 35.7757 10.948C35.6637 11.06 35.4747 11.13 35.2087 11.158C35.1667 12.782 35.1457 14.357 35.1457 15.883C35.1457 17.409 35.1947 18.844 35.2927 20.188C35.3907 21.532 35.5727 22.736 35.8387 23.8C36.1187 24.864 36.5107 25.753 37.0147 26.467C37.1267 26.621 37.2107 26.691 37.2667 26.677C37.3227 26.663 37.3997 26.558 37.4977 26.362C37.6377 26.096 37.7917 25.732 37.9597 25.27C38.1417 24.808 38.2957 24.367 38.4217 23.947L38.6737 23.989L38.2747 27.433C38.5407 28.007 38.6947 28.455 38.7367 28.777C38.7927 29.113 38.7437 29.344 38.5897 29.47C38.2957 29.722 37.9737 29.813 37.6237 29.743C37.2737 29.687 36.9307 29.533 36.5947 29.281C36.2587 29.043 35.9927 28.784 35.7967 28.504C35.0967 27.552 34.5577 26.439 34.1797 25.165C33.8157 23.891 33.5497 22.477 33.3817 20.923C33.2277 19.369 33.1367 17.696 33.1087 15.904C33.0807 14.112 33.0667 12.222 33.0667 10.234L35.9647 10.57ZM39.1357 17.857C39.0797 17.983 38.9887 18.081 38.8627 18.151C38.7507 18.221 38.5547 18.256 38.2747 18.256C38.0367 19.32 37.7217 20.405 37.3297 21.511C36.9517 22.617 36.4617 23.688 35.8597 24.724C35.2577 25.746 34.5017 26.691 33.5917 27.559C32.6817 28.413 31.5827 29.155 30.2947 29.785L30.1057 29.533C31.1417 28.819 32.0307 27.986 32.7727 27.034C33.5147 26.082 34.1307 25.06 34.6207 23.968C35.1107 22.862 35.4957 21.728 35.7757 20.566C36.0557 19.404 36.2657 18.249 36.4057 17.101L39.1357 17.857ZM37.0777 13.615C37.0777 13.615 37.1897 13.713 37.4137 13.909C37.6517 14.091 37.9247 14.322 38.2327 14.602C38.5407 14.868 38.8137 15.12 39.0517 15.358C38.9957 15.582 38.8067 15.694 38.4847 15.694H26.1157L25.9477 15.085H36.0067L37.0777 13.615ZM31.5547 22.897C31.5547 22.897 31.6457 22.974 31.8277 23.128C32.0237 23.268 32.2477 23.443 32.4997 23.653C32.7657 23.849 33.0037 24.045 33.2137 24.241C33.1577 24.465 32.9757 24.577 32.6677 24.577H26.3467L26.1787 23.968H30.6517L31.5547 22.897ZM31.5127 11.662C31.5127 11.662 31.6107 11.746 31.8067 11.914C32.0027 12.068 32.2267 12.257 32.4787 12.481C32.7447 12.691 32.9757 12.901 33.1717 13.111C33.1297 13.335 32.9547 13.447 32.6467 13.447H26.6197L26.4517 12.859H30.6097L31.5127 11.662ZM31.1977 10.612C31.1837 10.738 31.1277 10.85 31.0297 10.948C30.9457 11.032 30.7777 11.095 30.5257 11.137V15.547H28.4887V10.36L31.1977 10.612ZM35.7967 11.242C36.5947 11.452 37.1757 11.718 37.5397 12.04C37.9177 12.348 38.1277 12.663 38.1697 12.985C38.2257 13.307 38.1627 13.58 37.9807 13.804C37.8127 14.028 37.5817 14.154 37.2877 14.182C37.0077 14.21 36.7207 14.091 36.4267 13.825C36.4267 13.405 36.3357 12.964 36.1537 12.502C35.9857 12.04 35.7897 11.655 35.5657 11.347L35.7967 11.242ZM30.4627 21.952V26.656L28.4677 27.118V21.952H30.4627ZM26.6827 21.259C26.6407 21.385 26.5567 21.49 26.4307 21.574C26.3047 21.644 26.1367 21.679 25.9267 21.679C25.7447 22.225 25.5277 22.799 25.2757 23.401C25.0377 23.989 24.7577 24.514 24.4357 24.976L24.0787 24.85C24.1907 24.262 24.2887 23.583 24.3727 22.813C24.4707 22.029 24.5337 21.273 24.5617 20.545L26.6827 21.259ZM19.7947 20.755C20.4107 21.287 20.8517 21.819 21.1177 22.351C21.3977 22.869 21.5447 23.338 21.5587 23.758C21.5727 24.178 21.5027 24.521 21.3487 24.787C21.1947 25.039 20.9987 25.179 20.7607 25.207C20.5227 25.235 20.2847 25.116 20.0467 24.85C20.1027 24.416 20.1027 23.961 20.0467 23.485C19.9907 23.009 19.9137 22.54 19.8157 22.078C19.7177 21.616 19.6057 21.203 19.4797 20.839L19.7947 20.755ZM19.2277 26.887C19.6337 26.831 20.2147 26.726 20.9707 26.572C21.7407 26.404 22.6087 26.215 23.5747 26.005C24.5407 25.795 25.5277 25.571 26.5357 25.333L26.5777 25.585C25.9337 25.977 25.1217 26.453 24.1417 27.013C23.1617 27.559 21.9997 28.168 20.6557 28.84C20.5437 29.148 20.3687 29.337 20.1307 29.407L19.2277 26.887ZM23.7637 15.841V26.761L21.8107 27.307V15.841H23.7637ZM24.7927 17.773C24.7927 17.773 24.8907 17.864 25.0867 18.046C25.2827 18.228 25.5137 18.452 25.7797 18.718C26.0457 18.97 26.2767 19.215 26.4727 19.453C26.4307 19.677 26.2557 19.789 25.9477 19.789H19.6267L19.4587 19.18H23.8477L24.7927 17.773ZM23.9737 14.329C23.9737 14.329 24.0787 14.42 24.2887 14.602C24.5127 14.77 24.7647 14.973 25.0447 15.211C25.3387 15.449 25.6047 15.68 25.8427 15.904C25.7867 16.128 25.6047 16.24 25.2967 16.24H20.3407L20.1727 15.652H22.9447L23.9737 14.329ZM23.4487 11.242C24.2887 11.606 24.9257 11.977 25.3597 12.355C25.7937 12.733 26.0737 13.09 26.1997 13.426C26.3257 13.748 26.3397 14.042 26.2417 14.308C26.1577 14.56 25.9967 14.749 25.7587 14.875C25.5347 14.987 25.2967 15.022 25.0447 14.98C24.7927 14.924 24.5547 14.77 24.3307 14.518C24.2747 14.084 24.1557 13.573 23.9737 12.985C23.7917 12.383 23.5327 11.809 23.1967 11.263L23.4487 11.242ZM23.7637 11.347C23.4977 11.991 23.1407 12.677 22.6927 13.405C22.2587 14.119 21.7547 14.812 21.1807 15.484C20.6207 16.156 20.0257 16.737 19.3957 17.227L19.1647 17.08C19.4447 16.632 19.7107 16.114 19.9627 15.526C20.2287 14.924 20.4737 14.301 20.6977 13.657C20.9217 13.013 21.1107 12.39 21.2647 11.788C21.4187 11.172 21.5377 10.626 21.6217 10.15L24.5827 10.906C24.5547 11.018 24.4777 11.116 24.3517 11.2C24.2397 11.284 24.0437 11.333 23.7637 11.347ZM41.3057 28V25.816C42.1643 24.864 42.995 23.9213 43.7977 22.988C44.6003 22.0547 45.347 21.196 46.0377 20.412C47.0643 19.236 47.8857 18.2093 48.5017 17.332C49.1363 16.4547 49.603 15.6147 49.9017 14.812C50.219 14.0093 50.3777 13.132 50.3777 12.18C50.3777 10.7613 50.051 9.66933 49.3977 8.904C48.763 8.12 47.8763 7.728 46.7377 7.728C46.3083 7.728 45.8697 7.784 45.4217 7.896C44.9737 8.008 44.507 8.19467 44.0217 8.456L45.3377 7.756L44.6937 10.696C44.5443 11.4987 44.2923 12.04 43.9377 12.32C43.6017 12.6 43.2377 12.74 42.8457 12.74C42.491 12.74 42.1643 12.6373 41.8657 12.432C41.5857 12.2267 41.3803 11.9653 41.2497 11.648C41.343 10.584 41.707 9.69733 42.3417 8.988C42.995 8.26 43.8163 7.71867 44.8057 7.364C45.8137 6.99067 46.8777 6.804 47.9977 6.804C50.107 6.804 51.6657 7.31733 52.6737 8.344C53.7003 9.37067 54.2137 10.7147 54.2137 12.376C54.2137 13.3467 53.9523 14.2707 53.4297 15.148C52.907 16.0067 52.1137 16.9493 51.0497 17.976C50.0043 18.984 48.6697 20.188 47.0457 21.588C46.7283 21.868 46.3363 22.2227 45.8697 22.652C45.4217 23.0627 44.927 23.52 44.3857 24.024C43.863 24.5093 43.331 25.0133 42.7897 25.536L43.0977 24.556V25.06H54.8297V28H41.3057ZM70.3557 22.687C71.6017 23.205 72.6097 23.772 73.3797 24.388C74.1497 25.004 74.7167 25.613 75.0807 26.215C75.4587 26.803 75.6687 27.342 75.7107 27.832C75.7667 28.322 75.7037 28.721 75.5217 29.029C75.3397 29.351 75.0737 29.533 74.7237 29.575C74.3877 29.617 74.0167 29.477 73.6107 29.155C73.4707 28.637 73.2747 28.098 73.0227 27.538C72.7847 26.978 72.5047 26.425 72.1827 25.879C71.8607 25.319 71.5177 24.78 71.1537 24.262C70.8037 23.744 70.4607 23.261 70.1247 22.813L70.3557 22.687ZM70.3977 10.486C70.3837 10.626 70.3207 10.752 70.2087 10.864C70.0967 10.976 69.9007 11.046 69.6207 11.074V18.088C69.6207 19.32 69.5157 20.51 69.3057 21.658C69.0957 22.806 68.7387 23.898 68.2347 24.934C67.7447 25.956 67.0517 26.887 66.1557 27.727C65.2737 28.553 64.1467 29.26 62.7747 29.848L62.5857 29.638C63.5237 28.924 64.2867 28.133 64.8747 27.265C65.4767 26.383 65.9387 25.452 66.2607 24.472C66.5827 23.478 66.8067 22.449 66.9327 21.385C67.0587 20.307 67.1217 19.208 67.1217 18.088V10.171L70.3977 10.486ZM71.3007 14.077L72.4557 12.859L74.7447 14.602C74.6887 14.686 74.5837 14.77 74.4297 14.854C74.2897 14.924 74.1077 14.98 73.8837 15.022V20.923H71.5107V14.077H71.3007ZM74.8707 19.012C74.8707 19.012 74.9827 19.124 75.2067 19.348C75.4307 19.558 75.6897 19.81 75.9837 20.104C76.2917 20.398 76.5577 20.678 76.7817 20.944C76.7257 21.168 76.5367 21.28 76.2147 21.28H63.2367L63.0687 20.671H73.8207L74.8707 19.012ZM72.9387 14.077V14.686H64.4337L64.2447 14.077H72.9387ZM62.2917 13.909C63.0337 14.343 63.5657 14.791 63.8877 15.253C64.2237 15.701 64.3987 16.121 64.4127 16.513C64.4407 16.905 64.3637 17.227 64.1817 17.479C64.0137 17.717 63.7827 17.85 63.4887 17.878C63.2087 17.906 62.9357 17.773 62.6697 17.479C62.7257 16.905 62.6837 16.303 62.5437 15.673C62.4037 15.029 62.2357 14.476 62.0397 14.014L62.2917 13.909ZM58.4487 14.14C58.8827 15.288 59.0857 16.31 59.0577 17.206C59.0437 18.088 58.9037 18.753 58.6377 19.201C58.5117 19.411 58.3297 19.565 58.0917 19.663C57.8677 19.761 57.6367 19.789 57.3987 19.747C57.1747 19.705 56.9927 19.586 56.8527 19.39C56.6707 19.124 56.6217 18.851 56.7057 18.571C56.8037 18.291 56.9717 18.046 57.2097 17.836C57.3777 17.612 57.5387 17.304 57.6927 16.912C57.8467 16.506 57.9657 16.065 58.0497 15.589C58.1337 15.099 58.1547 14.616 58.1127 14.14H58.4487ZM62.6697 10.507C62.6417 10.647 62.5717 10.766 62.4597 10.864C62.3617 10.962 62.1727 11.032 61.8927 11.074V29.197C61.8927 29.267 61.8017 29.351 61.6197 29.449C61.4377 29.561 61.2067 29.659 60.9267 29.743C60.6467 29.827 60.3527 29.869 60.0447 29.869H59.5827V10.171L62.6697 10.507Z" fill="#F3D7A3"/>
<path d="M2.63 57V56.538L4.772 56.342H5.178L7.32 56.538V57H2.63ZM3.946 57C3.96467 56.2067 3.974 55.4087 3.974 54.606C3.974 53.794 3.974 52.9773 3.974 52.156V51.484C3.974 50.672 3.974 49.8647 3.974 49.062C3.974 48.25 3.96467 47.438 3.946 46.626H5.99C5.962 47.4193 5.94333 48.2313 5.934 49.062C5.934 49.8833 5.934 50.7607 5.934 51.694V52.072C5.934 52.9213 5.934 53.752 5.934 54.564C5.94333 55.376 5.962 56.188 5.99 57H3.946ZM10.876 57.182C10.2973 57.182 9.854 57.0887 9.546 56.902C9.238 56.706 9.04667 56.3607 8.972 55.866L8.468 53.78C8.384 53.3973 8.28133 53.0847 8.16 52.842C8.03867 52.59 7.866 52.408 7.642 52.296C7.42733 52.1747 7.12867 52.114 6.746 52.114H4.996V51.624H6.956C7.47867 51.624 7.908 51.5213 8.244 51.316C8.58 51.1013 8.82733 50.8213 8.986 50.476C9.154 50.1213 9.238 49.7293 9.238 49.3C9.238 48.6093 9.04667 48.0773 8.664 47.704C8.29067 47.3307 7.72133 47.144 6.956 47.144H4.982V46.626H7.418C8.61267 46.626 9.52733 46.8593 10.162 47.326C10.7967 47.7833 11.114 48.4273 11.114 49.258C11.114 49.706 10.9927 50.1213 10.75 50.504C10.5167 50.8867 10.1293 51.2087 9.588 51.47C9.056 51.722 8.34667 51.876 7.46 51.932V51.778C8.20667 51.806 8.78067 51.9087 9.182 52.086C9.59267 52.254 9.896 52.5013 10.092 52.828C10.2973 53.1547 10.4513 53.5653 10.554 54.06L11.184 56.832L10.218 56.398L12.388 56.538V57C12.1453 57.056 11.912 57.098 11.688 57.126C11.4733 57.1633 11.2027 57.182 10.876 57.182ZM2.63 47.088V46.626H4.982V47.284H4.772L2.63 47.088ZM14.0257 47.704L17.5537 46.864L17.7637 47.018L17.7077 49.272V53.71C17.7077 54.2513 17.7123 54.802 17.7217 55.362C17.731 55.9127 17.745 56.4587 17.7637 57H15.7617C15.7897 55.8987 15.8037 54.802 15.8037 53.71V47.97L14.0257 48.18V47.704ZM17.6377 56.342L19.7097 56.58V57H13.7037V56.58L15.9157 56.342H17.6377ZM22.3961 51.61V51.4C22.7881 51.2227 23.1708 51.1013 23.5441 51.036C23.9268 50.9613 24.3328 50.924 24.7621 50.924C25.8821 50.924 26.7688 51.1853 27.4221 51.708C28.0755 52.2307 28.4021 52.9773 28.4021 53.948C28.4021 54.6293 28.2341 55.2173 27.8981 55.712C27.5621 56.2067 27.1001 56.5847 26.5121 56.846C25.9241 57.098 25.2428 57.224 24.4681 57.224C23.5628 57.224 22.8395 57.0187 22.2981 56.608C21.7568 56.1973 21.4441 55.628 21.3601 54.9C21.4348 54.7227 21.5421 54.5873 21.6821 54.494C21.8315 54.4007 21.9901 54.354 22.1581 54.354C22.4008 54.354 22.5921 54.4287 22.7321 54.578C22.8815 54.7273 22.9795 54.9793 23.0261 55.334L23.3061 56.79L22.8301 56.412C23.0541 56.5333 23.2595 56.622 23.4461 56.678C23.6328 56.734 23.8661 56.762 24.1461 56.762C24.8368 56.762 25.3875 56.5287 25.7981 56.062C26.2088 55.5953 26.4141 54.9607 26.4141 54.158C26.4141 53.3087 26.2228 52.674 25.8401 52.254C25.4668 51.8247 24.9488 51.61 24.2861 51.61C23.9968 51.61 23.7168 51.6333 23.4461 51.68C23.1848 51.7173 22.9188 51.7873 22.6481 51.89L22.2701 51.68L22.6061 47.032H28.0521V48.502H22.8721L23.1941 47.438L22.8861 51.61H22.3961ZM29.4086 57.154H39.6986L40.7206 55.88C40.7206 55.88 40.7813 55.9267 40.9026 56.02C41.0239 56.1133 41.1779 56.2347 41.3646 56.384C41.5606 56.5333 41.7613 56.692 41.9666 56.86C42.1813 57.0187 42.3773 57.1727 42.5546 57.322C42.5173 57.4713 42.3819 57.546 42.1486 57.546H29.5206L29.4086 57.154ZM31.0746 52.548H38.5786L39.5586 51.316C39.5586 51.316 39.6193 51.3627 39.7406 51.456C39.8619 51.5493 40.0159 51.666 40.2026 51.806C40.3893 51.946 40.5853 52.1 40.7906 52.268C40.9959 52.4267 41.1826 52.576 41.3506 52.716C41.3226 52.8653 41.1919 52.94 40.9586 52.94H31.1866L31.0746 52.548ZM31.9286 48.572H39.0266L40.0066 47.368C40.0066 47.368 40.0626 47.41 40.1746 47.494C40.2959 47.578 40.4453 47.69 40.6226 47.83C40.8093 47.97 41.0006 48.1193 41.1966 48.278C41.4019 48.4367 41.5933 48.5907 41.7706 48.74C41.7333 48.8893 41.5979 48.964 41.3646 48.964H31.7326L31.9286 48.572ZM35.0226 45.184L37.3326 45.408C37.3233 45.5013 37.2813 45.5853 37.2066 45.66C37.1413 45.7253 37.0153 45.772 36.8286 45.8V57.378H35.0226V45.184ZM31.8726 45.604L34.2386 46.304C34.2106 46.388 34.1499 46.458 34.0566 46.514C33.9726 46.57 33.8466 46.5933 33.6786 46.584C33.1839 47.8907 32.5773 49.0247 31.8586 49.986C31.1493 50.9473 30.3419 51.7453 29.4366 52.38L29.2686 52.268C29.6326 51.7267 29.9826 51.1013 30.3186 50.392C30.6546 49.6733 30.9579 48.9033 31.2286 48.082C31.5086 47.2607 31.7233 46.4347 31.8726 45.604ZM54.6506 49.986C54.6506 49.986 54.6973 50.028 54.7906 50.112C54.8933 50.1867 55.0146 50.2893 55.1546 50.42C55.3039 50.5413 55.4579 50.672 55.6166 50.812C55.7753 50.952 55.9199 51.0873 56.0506 51.218C56.0133 51.3673 55.8873 51.442 55.6726 51.442H51.2346L51.1226 51.036H53.8666L54.6506 49.986ZM54.4406 45.814C54.4406 45.814 54.4873 45.856 54.5806 45.94C54.6739 46.0147 54.7906 46.1173 54.9306 46.248C55.0799 46.3693 55.2339 46.5 55.3926 46.64C55.5606 46.78 55.7099 46.9153 55.8406 47.046C55.8033 47.1953 55.6773 47.27 55.4626 47.27H51.2486L51.1366 46.864H53.6566L54.4406 45.814ZM44.4586 48.852V48.376L46.0826 48.992H45.8586V50.742C45.8586 51.0313 45.8306 51.3347 45.7746 51.652C45.7279 51.9693 45.6299 52.2867 45.4806 52.604C45.3313 52.9213 45.1026 53.2247 44.7946 53.514C44.4866 53.794 44.0759 54.046 43.5626 54.27L43.4506 54.116C43.7679 53.7987 43.9966 53.458 44.1366 53.094C44.2766 52.7207 44.3653 52.3333 44.4026 51.932C44.4399 51.5307 44.4586 51.1387 44.4586 50.756V48.992V48.852ZM45.3686 51.61C45.6579 51.582 46.0033 51.54 46.4046 51.484C46.8153 51.4187 47.2353 51.3393 47.6646 51.246C48.1033 51.1433 48.5233 51.0313 48.9246 50.91L48.9666 51.092C48.6399 51.3253 48.2526 51.582 47.8046 51.862C47.3659 52.142 46.8666 52.4267 46.3066 52.716C46.2506 52.8933 46.1433 53.01 45.9846 53.066L45.3686 51.61ZM45.4806 50.098C45.9193 49.8927 46.3019 49.776 46.6286 49.748C46.9553 49.72 47.2259 49.7527 47.4406 49.846C47.6553 49.93 47.8139 50.0467 47.9166 50.196C48.0193 50.3453 48.0706 50.4993 48.0706 50.658C48.0706 50.8073 48.0193 50.9287 47.9166 51.022C47.8139 51.106 47.6553 51.1387 47.4406 51.12C47.2166 50.9427 46.9366 50.7793 46.6006 50.63C46.2646 50.4807 45.8819 50.378 45.4526 50.322L45.4806 50.098ZM49.2606 48.992V49.384H44.9066L44.7806 48.992H49.2606ZM48.3646 45.856C48.3273 45.9493 48.2433 46.0193 48.1126 46.066C47.9913 46.1127 47.8093 46.0987 47.5666 46.024L48.0566 45.94C47.7859 46.136 47.4453 46.3367 47.0346 46.542C46.6239 46.7473 46.1899 46.9387 45.7326 47.116C45.2846 47.284 44.8693 47.4193 44.4866 47.522V47.382H45.2146C45.1866 47.8113 45.1073 48.1473 44.9766 48.39C44.8553 48.6327 44.7106 48.7867 44.5426 48.852L43.8566 47.186C43.8566 47.186 43.9033 47.1767 43.9966 47.158C44.0993 47.13 44.1833 47.102 44.2486 47.074C44.5006 46.9713 44.7619 46.7987 45.0326 46.556C45.3126 46.3133 45.5693 46.0567 45.8026 45.786C46.0359 45.506 46.1993 45.2727 46.2926 45.086L48.3646 45.856ZM44.0666 47.34C44.3933 47.3493 44.8366 47.354 45.3966 47.354C45.9659 47.354 46.6006 47.3493 47.3006 47.34C48.0099 47.3213 48.7379 47.3027 49.4846 47.284V47.494C48.9806 47.634 48.2993 47.8113 47.4406 48.026C46.5913 48.2313 45.6439 48.4413 44.5986 48.656L44.0666 47.34ZM52.5506 49.832C52.5226 50.028 52.3779 50.1447 52.1166 50.182V52.408C52.1166 52.492 52.1399 52.5527 52.1866 52.59C52.2426 52.618 52.3639 52.632 52.5506 52.632H53.6566C53.8526 52.632 54.0393 52.632 54.2166 52.632C54.3939 52.632 54.5246 52.6273 54.6086 52.618C54.7673 52.618 54.8839 52.5807 54.9586 52.506C55.0239 52.4407 55.0986 52.3333 55.1826 52.184C55.2759 52.0253 55.3646 51.8433 55.4486 51.638H55.6026L55.6446 52.506C55.8499 52.59 55.9899 52.674 56.0646 52.758C56.1393 52.842 56.1766 52.9493 56.1766 53.08C56.1766 53.2853 56.0973 53.4487 55.9386 53.57C55.7893 53.682 55.5186 53.7613 55.1266 53.808C54.7346 53.8547 54.1886 53.878 53.4886 53.878H52.1726C51.7339 53.878 51.4026 53.8453 51.1786 53.78C50.9546 53.7053 50.8053 53.5793 50.7306 53.402C50.6559 53.2247 50.6186 52.982 50.6186 52.674V49.678L52.5506 49.832ZM48.2246 48.992L48.8686 48.25L50.3386 49.356C50.3013 49.4027 50.2313 49.454 50.1286 49.51C50.0353 49.566 49.9139 49.608 49.7646 49.636V52.604C49.7646 52.884 49.7226 53.1267 49.6386 53.332C49.5639 53.528 49.4099 53.6867 49.1766 53.808C48.9433 53.92 48.5793 53.9993 48.0846 54.046C48.0753 53.8687 48.0566 53.7147 48.0286 53.584C48.0099 53.444 47.9633 53.332 47.8886 53.248C47.8139 53.1733 47.7159 53.1033 47.5946 53.038C47.4733 52.9727 47.2913 52.9213 47.0486 52.884V52.702C47.0486 52.702 47.0906 52.7067 47.1746 52.716C47.2679 52.716 47.3753 52.7207 47.4966 52.73C47.6273 52.73 47.7486 52.7347 47.8606 52.744C47.9819 52.744 48.0706 52.744 48.1266 52.744C48.2199 52.744 48.2806 52.7253 48.3086 52.688C48.3459 52.6413 48.3646 52.5853 48.3646 52.52V48.992H48.2246ZM52.4806 45.338C52.4619 45.534 52.3219 45.6553 52.0606 45.702V48.166C52.0606 48.25 52.0839 48.3107 52.1306 48.348C52.1866 48.3853 52.3033 48.404 52.4806 48.404H53.5586C53.7546 48.404 53.9366 48.404 54.1046 48.404C54.2819 48.3947 54.4126 48.39 54.4966 48.39C54.5619 48.3807 54.6319 48.376 54.7066 48.376C54.7813 48.3667 54.8373 48.3573 54.8746 48.348C54.9306 48.348 54.9959 48.3433 55.0706 48.334C55.1453 48.3153 55.2106 48.2967 55.2666 48.278H55.4066L55.4626 48.292C55.6679 48.376 55.8126 48.4553 55.8966 48.53C55.9806 48.6047 56.0226 48.7027 56.0226 48.824C56.0226 49.02 55.9433 49.1693 55.7846 49.272C55.6353 49.3747 55.3693 49.4447 54.9866 49.482C54.6133 49.5193 54.0813 49.538 53.3906 49.538H52.1306C51.7013 49.538 51.3746 49.5053 51.1506 49.44C50.9359 49.3653 50.7913 49.244 50.7166 49.076C50.6419 48.8987 50.6046 48.6653 50.6046 48.376V45.184L52.4806 45.338ZM48.0146 46.276C48.5933 46.332 49.0506 46.444 49.3866 46.612C49.7226 46.78 49.9653 46.9713 50.1146 47.186C50.2639 47.3913 50.3339 47.592 50.3246 47.788C50.3153 47.984 50.2546 48.152 50.1426 48.292C50.0306 48.4227 49.8813 48.502 49.6946 48.53C49.5079 48.5487 49.3026 48.488 49.0786 48.348C49.0413 48.1053 48.9573 47.8627 48.8266 47.62C48.7053 47.368 48.5606 47.1347 48.3926 46.92C48.2339 46.7053 48.0659 46.5233 47.8886 46.374L48.0146 46.276ZM48.7566 54.284C48.7473 54.3773 48.7053 54.4567 48.6306 54.522C48.5653 54.5873 48.4579 54.6293 48.3086 54.648V56.454C48.3086 56.5473 48.3413 56.6127 48.4066 56.65C48.4719 56.678 48.6353 56.692 48.8966 56.692H50.6606C50.9499 56.692 51.2206 56.692 51.4726 56.692C51.7339 56.692 51.9253 56.6873 52.0466 56.678C52.1679 56.6687 52.2566 56.65 52.3126 56.622C52.3686 56.594 52.4199 56.5473 52.4666 56.482C52.5599 56.37 52.6579 56.188 52.7606 55.936C52.8726 55.684 53.0033 55.362 53.1526 54.97H53.2926L53.3346 56.524C53.5866 56.608 53.7499 56.6967 53.8246 56.79C53.9086 56.8833 53.9506 57 53.9506 57.14C53.9506 57.3173 53.8993 57.4573 53.7966 57.56C53.7033 57.672 53.5259 57.756 53.2646 57.812C53.0126 57.868 52.6579 57.9053 52.2006 57.924C51.7526 57.9427 51.1786 57.952 50.4786 57.952H48.6306C48.0986 57.952 47.6926 57.9147 47.4126 57.84C47.1326 57.7747 46.9366 57.6487 46.8246 57.462C46.7219 57.2847 46.6706 57.0233 46.6706 56.678V54.13L48.7566 54.284ZM45.5786 54.228C45.7653 54.76 45.8399 55.236 45.8026 55.656C45.7653 56.076 45.6579 56.426 45.4806 56.706C45.3126 56.986 45.1119 57.182 44.8786 57.294C44.6453 57.4153 44.3979 57.4433 44.1366 57.378C43.8846 57.3127 43.7166 57.1587 43.6326 56.916C43.5766 56.6733 43.6093 56.468 43.7306 56.3C43.8519 56.1227 44.0199 55.9873 44.2346 55.894C44.4119 55.81 44.5846 55.6887 44.7526 55.53C44.9299 55.362 45.0746 55.1707 45.1866 54.956C45.3079 54.732 45.3733 54.4893 45.3826 54.228H45.5786ZM53.6006 54.382C54.2539 54.494 54.7766 54.6573 55.1686 54.872C55.5606 55.0867 55.8453 55.3247 56.0226 55.586C56.1999 55.8473 56.2886 56.0993 56.2886 56.342C56.2886 56.5753 56.2233 56.7713 56.0926 56.93C55.9619 57.0887 55.7893 57.182 55.5746 57.21C55.3693 57.2473 55.1453 57.1773 54.9026 57C54.8653 56.7013 54.7719 56.398 54.6226 56.09C54.4826 55.7727 54.3099 55.474 54.1046 55.194C53.8993 54.914 53.6893 54.676 53.4746 54.48L53.6006 54.382ZM49.3726 53.878C49.9699 53.9433 50.4413 54.0553 50.7866 54.214C51.1319 54.3727 51.3793 54.5547 51.5286 54.76C51.6779 54.9653 51.7526 55.166 51.7526 55.362C51.7526 55.558 51.6919 55.726 51.5706 55.866C51.4586 55.9967 51.3046 56.076 51.1086 56.104C50.9219 56.1227 50.7213 56.0573 50.5066 55.908C50.4506 55.6747 50.3573 55.4413 50.2266 55.208C50.0959 54.9653 49.9419 54.7367 49.7646 54.522C49.5966 54.3073 49.4239 54.1253 49.2466 53.976L49.3726 53.878ZM64.9826 50.882C64.9453 50.9847 64.8566 51.064 64.7166 51.12C64.5766 51.176 64.3806 51.1713 64.1286 51.106L64.5486 50.952C64.3059 51.3907 63.9933 51.8667 63.6106 52.38C63.2373 52.8933 62.8266 53.4113 62.3786 53.934C61.9306 54.4473 61.4733 54.9327 61.0066 55.39C60.5399 55.838 60.0919 56.2207 59.6626 56.538L59.6486 56.37H60.5726C60.5166 56.9113 60.4046 57.336 60.2366 57.644C60.0686 57.952 59.8679 58.148 59.6346 58.232L58.9206 56.09C58.9206 56.09 58.9579 56.0807 59.0326 56.062C59.1073 56.0433 59.1913 56.0153 59.2846 55.978C59.3779 55.9407 59.4526 55.8987 59.5086 55.852C59.7233 55.656 59.9473 55.3853 60.1806 55.04C60.4233 54.6853 60.6659 54.2933 60.9086 53.864C61.1606 53.4347 61.3939 52.9913 61.6086 52.534C61.8326 52.0673 62.0286 51.6147 62.1966 51.176C62.3646 50.7373 62.4953 50.3453 62.5886 50L64.9826 50.882ZM59.2286 56.188C59.6579 56.1787 60.1993 56.1507 60.8526 56.104C61.5059 56.0573 62.2386 56.0013 63.0506 55.936C63.8719 55.8613 64.7306 55.7773 65.6266 55.684C66.5226 55.5813 67.4186 55.474 68.3146 55.362L68.3286 55.558C67.4139 55.894 66.2426 56.2673 64.8146 56.678C63.3959 57.0793 61.7486 57.4807 59.8726 57.882L59.2286 56.188ZM65.1226 45.828L65.6546 44.974L67.1106 45.968C67.0266 46.08 66.8726 46.164 66.6486 46.22C66.4246 46.276 66.1633 46.3133 65.8646 46.332C66.0886 47.004 66.4246 47.6387 66.8726 48.236C67.3206 48.8333 67.8619 49.3607 68.4966 49.818C69.1406 50.2753 69.8733 50.6393 70.6946 50.91L70.6526 51.078C70.2979 51.1993 69.9853 51.414 69.7146 51.722C69.4533 52.0207 69.2759 52.3427 69.1826 52.688C68.1279 51.9787 67.2973 51.064 66.6906 49.944C66.0933 48.824 65.6873 47.5267 65.4726 46.052V45.828H65.1226ZM65.8086 45.828V46.234H63.8766L63.7506 45.828H65.8086ZM63.3306 46.808C63.2933 46.892 63.2279 46.9573 63.1346 47.004C63.0413 47.0507 62.9106 47.0647 62.7426 47.046C62.0799 48.4087 61.3006 49.538 60.4046 50.434C59.5086 51.33 58.5099 52.058 57.4086 52.618L57.2546 52.492C57.7586 52.0067 58.2533 51.4233 58.7386 50.742C59.2239 50.0513 59.6719 49.2953 60.0826 48.474C60.4933 47.6527 60.8246 46.794 61.0766 45.898L63.3306 46.808ZM65.4166 52.87C66.2286 53.1967 66.9006 53.5513 67.4326 53.934C67.9739 54.3167 68.3939 54.7087 68.6926 55.11C69.0006 55.5113 69.2106 55.894 69.3226 56.258C69.4439 56.622 69.4813 56.9487 69.4346 57.238C69.3973 57.5367 69.2993 57.77 69.1406 57.938C68.9819 58.106 68.7859 58.19 68.5526 58.19C68.3193 58.19 68.0626 58.0827 67.7826 57.868C67.7079 57.448 67.5866 57.0187 67.4186 56.58C67.2599 56.1413 67.0639 55.7073 66.8306 55.278C66.6066 54.8487 66.3593 54.438 66.0886 54.046C65.8273 53.654 65.5519 53.29 65.2626 52.954L65.4166 52.87ZM77.8346 53.318C78.6746 53.4767 79.3559 53.6727 79.8786 53.906C80.4013 54.13 80.7933 54.3727 81.0546 54.634C81.3253 54.886 81.4886 55.1333 81.5446 55.376C81.6099 55.6093 81.6006 55.8053 81.5166 55.964C81.4419 56.1227 81.3159 56.2253 81.1386 56.272C80.9613 56.3187 80.7653 56.2813 80.5506 56.16C80.4293 55.9453 80.2333 55.6887 79.9626 55.39C79.7013 55.082 79.3793 54.7647 78.9966 54.438C78.6233 54.1113 78.2033 53.7987 77.7366 53.5L77.8346 53.318ZM77.1346 53.192V54.396H75.8326V53.85L77.1346 53.192ZM75.7206 55.376C75.9073 55.3387 76.1686 55.278 76.5046 55.194C76.8406 55.11 77.2139 55.012 77.6246 54.9C78.0353 54.788 78.4553 54.676 78.8846 54.564L78.9406 54.746C78.7539 54.858 78.5113 55.012 78.2126 55.208C77.9233 55.404 77.5966 55.614 77.2326 55.838C76.8686 56.0527 76.4906 56.272 76.0986 56.496L75.7206 55.376ZM76.8266 53.99L77.1346 54.172V55.446L76.0286 55.852L76.4346 55.432C76.5186 55.7773 76.5046 56.0527 76.3926 56.258C76.2899 56.4633 76.1779 56.5987 76.0566 56.664L75.3286 55.572C75.5526 55.432 75.6926 55.3247 75.7486 55.25C75.8046 55.166 75.8326 55.0727 75.8326 54.97V53.99H76.8266ZM81.8106 53.696C81.7733 53.7427 81.7173 53.7707 81.6426 53.78C81.5679 53.7893 81.4699 53.7707 81.3486 53.724C81.1899 53.7893 80.9893 53.8593 80.7466 53.934C80.5133 53.9993 80.2706 54.0693 80.0186 54.144C79.7759 54.2093 79.5566 54.2747 79.3606 54.34L79.2346 54.186C79.3839 54.0553 79.5426 53.8967 79.7106 53.71C79.8879 53.5233 80.0559 53.332 80.2146 53.136C80.3826 52.94 80.5226 52.772 80.6346 52.632L81.8106 53.696ZM78.4086 52.59C77.9233 53.1407 77.2839 53.612 76.4906 54.004C75.7066 54.3867 74.8573 54.6993 73.9426 54.942L73.8166 54.732C74.4793 54.4427 75.0813 54.0927 75.6226 53.682C76.1733 53.2713 76.6166 52.8327 76.9526 52.366H78.4086V52.59ZM80.8306 48.502C80.8306 48.502 80.9053 48.558 81.0546 48.67C81.2039 48.782 81.3813 48.922 81.5866 49.09C81.7919 49.2487 81.9786 49.4027 82.1466 49.552C82.1093 49.7013 81.9879 49.776 81.7826 49.776H74.1246L74.0126 49.37H80.1306L80.8306 48.502ZM80.2846 47.186C80.2846 47.186 80.3546 47.242 80.4946 47.354C80.6346 47.4567 80.8026 47.5873 80.9986 47.746C81.1946 47.8953 81.3766 48.0447 81.5446 48.194C81.5073 48.3433 81.3859 48.418 81.1806 48.418H74.6566L74.5446 48.012H79.5986L80.2846 47.186ZM78.9546 46.948C78.9453 47.0227 78.9126 47.088 78.8566 47.144C78.8099 47.2 78.7119 47.242 78.5626 47.27V49.552H77.1066V46.78L78.9546 46.948ZM76.2946 52.758C76.2946 52.7953 76.2339 52.8467 76.1126 52.912C76.0006 52.9773 75.8559 53.038 75.6786 53.094C75.5013 53.1407 75.3239 53.164 75.1466 53.164H74.9506V50.602V50.042L76.3646 50.602H80.1586V51.008H76.2946V52.758ZM79.4726 50.602L80.0746 49.972L81.3626 50.91C81.3253 50.9473 81.2739 50.9893 81.2086 51.036C81.1433 51.0827 81.0593 51.1107 80.9566 51.12V52.632C80.9566 52.6693 80.8866 52.716 80.7466 52.772C80.6159 52.828 80.4666 52.8793 80.2986 52.926C80.1306 52.9633 79.9719 52.982 79.8226 52.982H79.5846V50.602H79.4726ZM80.1026 52.31V52.716H75.6786V52.31H80.1026ZM73.8166 57.602C73.8166 57.6767 73.7513 57.7607 73.6206 57.854C73.4993 57.9567 73.3359 58.0453 73.1306 58.12C72.9346 58.1947 72.7153 58.232 72.4726 58.232H72.1926V46.01V45.268L73.9566 46.01H82.6926V46.402H73.8166V57.602ZM82.0486 46.01L82.8466 45.114L84.4146 46.374C84.3679 46.4393 84.2979 46.5 84.2046 46.556C84.1113 46.6027 83.9899 46.64 83.8406 46.668V57.616C83.8406 57.6533 83.7659 57.714 83.6166 57.798C83.4673 57.8913 83.2853 57.9707 83.0706 58.036C82.8559 58.1107 82.6506 58.148 82.4546 58.148H82.1886V46.01H82.0486ZM82.7766 56.692V57.098H73.1586V56.692H82.7766ZM88.1666 56.146L87.6766 55.656L91.4986 51.848L87.6766 48.026L88.1526 47.55L91.9746 51.372L95.7966 47.55L96.2726 48.026L92.4506 51.848L96.2726 55.656L95.7826 56.146L91.9746 52.324L88.1666 56.146ZM102.811 57.224C101.84 57.224 101.079 57.0233 100.529 56.622C99.9873 56.2207 99.6699 55.6513 99.5766 54.914C99.6419 54.718 99.7446 54.5733 99.8846 54.48C100.034 54.3867 100.193 54.34 100.361 54.34C100.603 54.34 100.795 54.4147 100.935 54.564C101.084 54.7133 101.191 54.9887 101.257 55.39L101.565 56.832L100.907 56.398C101.121 56.51 101.327 56.5987 101.523 56.664C101.728 56.7293 101.961 56.762 102.223 56.762C102.96 56.762 103.529 56.5567 103.931 56.146C104.332 55.726 104.533 55.1287 104.533 54.354C104.533 53.542 104.337 52.926 103.945 52.506C103.562 52.0767 102.988 51.862 102.223 51.862H101.649V51.33H102.153C102.787 51.33 103.305 51.134 103.707 50.742C104.108 50.35 104.309 49.7527 104.309 48.95C104.309 48.2687 104.15 47.7507 103.833 47.396C103.525 47.0413 103.091 46.864 102.531 46.864C102.325 46.864 102.106 46.892 101.873 46.948C101.649 46.9947 101.401 47.0787 101.131 47.2L101.915 46.836L101.607 48.208C101.541 48.5253 101.425 48.7447 101.257 48.866C101.089 48.9873 100.893 49.048 100.669 49.048C100.519 49.048 100.384 49.0153 100.263 48.95C100.141 48.8753 100.048 48.7727 99.9826 48.642C100.02 48.1193 100.183 47.6947 100.473 47.368C100.762 47.032 101.131 46.7893 101.579 46.64C102.036 46.4813 102.531 46.402 103.063 46.402C104.099 46.402 104.873 46.6353 105.387 47.102C105.909 47.5593 106.171 48.152 106.171 48.88C106.171 49.3467 106.054 49.776 105.821 50.168C105.597 50.56 105.242 50.8867 104.757 51.148C104.271 51.4093 103.627 51.5773 102.825 51.652V51.456C103.711 51.5027 104.421 51.652 104.953 51.904C105.494 52.156 105.886 52.492 106.129 52.912C106.371 53.332 106.493 53.8127 106.493 54.354C106.493 54.9233 106.339 55.4273 106.031 55.866C105.732 56.2953 105.307 56.6313 104.757 56.874C104.206 57.1073 103.557 57.224 102.811 57.224ZM116.947 53.038C116.798 53.1687 116.546 53.1593 116.191 53.01C115.874 53.0847 115.501 53.1547 115.071 53.22C114.642 53.276 114.194 53.3273 113.727 53.374C113.27 53.4207 112.817 53.4533 112.369 53.472L112.327 53.248C112.719 53.136 113.13 53.0007 113.559 52.842C113.989 52.6833 114.395 52.52 114.777 52.352C115.169 52.1747 115.487 52.0113 115.729 51.862L116.947 53.038ZM113.881 51.946C113.881 51.9833 113.83 52.03 113.727 52.086C113.625 52.142 113.494 52.1933 113.335 52.24C113.177 52.2867 113.018 52.31 112.859 52.31H112.677V49.608V49.09L113.937 49.608H116.009V50H113.881V51.946ZM115.855 51.26V51.666H113.419V51.26H115.855ZM115.099 49.608L115.673 48.992L116.919 49.93C116.882 49.9767 116.817 50.0233 116.723 50.07C116.639 50.1167 116.537 50.1493 116.415 50.168V51.694C116.415 51.722 116.355 51.764 116.233 51.82C116.121 51.8667 115.986 51.9087 115.827 51.946C115.678 51.9833 115.543 52.002 115.421 52.002H115.225V49.608H115.099ZM112.033 56.048C112.332 56.02 112.743 55.9733 113.265 55.908C113.788 55.8333 114.376 55.7447 115.029 55.642C115.683 55.5393 116.355 55.4367 117.045 55.334L117.059 55.502C116.649 55.726 116.131 55.9873 115.505 56.286C114.889 56.5847 114.133 56.9207 113.237 57.294C113.2 57.3873 113.149 57.462 113.083 57.518C113.027 57.5833 112.962 57.6253 112.887 57.644L112.033 56.048ZM118.851 45.38C118.842 45.4733 118.8 45.5573 118.725 45.632C118.651 45.7067 118.525 45.7533 118.347 45.772C118.319 46.8547 118.305 47.9047 118.305 48.922C118.305 49.9393 118.338 50.896 118.403 51.792C118.469 52.688 118.59 53.4907 118.767 54.2C118.954 54.9093 119.215 55.502 119.551 55.978C119.626 56.0807 119.682 56.1273 119.719 56.118C119.757 56.1087 119.808 56.0387 119.873 55.908C119.967 55.7307 120.069 55.488 120.181 55.18C120.303 54.872 120.405 54.578 120.489 54.298L120.657 54.326L120.391 56.622C120.569 57.0047 120.671 57.3033 120.699 57.518C120.737 57.742 120.704 57.896 120.601 57.98C120.405 58.148 120.191 58.2087 119.957 58.162C119.724 58.1247 119.495 58.022 119.271 57.854C119.047 57.6953 118.87 57.5227 118.739 57.336C118.273 56.7013 117.913 55.9593 117.661 55.11C117.419 54.2607 117.241 53.318 117.129 52.282C117.027 51.246 116.966 50.1307 116.947 48.936C116.929 47.7413 116.919 46.4813 116.919 45.156L118.851 45.38ZM120.965 50.238C120.928 50.322 120.867 50.3873 120.783 50.434C120.709 50.4807 120.578 50.504 120.391 50.504C120.233 51.2133 120.023 51.9367 119.761 52.674C119.509 53.4113 119.183 54.1253 118.781 54.816C118.38 55.4973 117.876 56.1273 117.269 56.706C116.663 57.2753 115.93 57.77 115.071 58.19L114.945 58.022C115.636 57.546 116.229 56.9907 116.723 56.356C117.218 55.7213 117.629 55.04 117.955 54.312C118.282 53.5747 118.539 52.8187 118.725 52.044C118.912 51.2693 119.052 50.4993 119.145 49.734L120.965 50.238ZM119.593 47.41C119.593 47.41 119.668 47.4753 119.817 47.606C119.976 47.7273 120.158 47.8813 120.363 48.068C120.569 48.2453 120.751 48.4133 120.909 48.572C120.872 48.7213 120.746 48.796 120.531 48.796H112.285L112.173 48.39H118.879L119.593 47.41ZM115.911 53.598C115.911 53.598 115.972 53.6493 116.093 53.752C116.224 53.8453 116.373 53.962 116.541 54.102C116.719 54.2327 116.877 54.3633 117.017 54.494C116.98 54.6433 116.859 54.718 116.653 54.718H112.439L112.327 54.312H115.309L115.911 53.598ZM115.883 46.108C115.883 46.108 115.949 46.164 116.079 46.276C116.21 46.3787 116.359 46.5047 116.527 46.654C116.705 46.794 116.859 46.934 116.989 47.074C116.961 47.2233 116.845 47.298 116.639 47.298H112.621L112.509 46.906H115.281L115.883 46.108ZM115.673 45.408C115.664 45.492 115.627 45.5667 115.561 45.632C115.505 45.688 115.393 45.73 115.225 45.758V48.698H113.867V45.24L115.673 45.408ZM118.739 45.828C119.271 45.968 119.659 46.1453 119.901 46.36C120.153 46.5653 120.293 46.7753 120.321 46.99C120.359 47.2047 120.317 47.3867 120.195 47.536C120.083 47.6853 119.929 47.7693 119.733 47.788C119.547 47.8067 119.355 47.7273 119.159 47.55C119.159 47.27 119.099 46.976 118.977 46.668C118.865 46.36 118.735 46.1033 118.585 45.898L118.739 45.828ZM115.183 52.968V56.104L113.853 56.412V52.968H115.183ZM112.663 52.506C112.635 52.59 112.579 52.66 112.495 52.716C112.411 52.7627 112.299 52.786 112.159 52.786C112.038 53.15 111.893 53.5327 111.725 53.934C111.567 54.326 111.38 54.676 111.165 54.984L110.927 54.9C111.002 54.508 111.067 54.0553 111.123 53.542C111.189 53.0193 111.231 52.5153 111.249 52.03L112.663 52.506ZM108.071 52.17C108.482 52.5247 108.776 52.8793 108.953 53.234C109.14 53.5793 109.238 53.892 109.247 54.172C109.257 54.452 109.21 54.6807 109.107 54.858C109.005 55.026 108.874 55.1193 108.715 55.138C108.557 55.1567 108.398 55.0773 108.239 54.9C108.277 54.6107 108.277 54.3073 108.239 53.99C108.202 53.6727 108.151 53.36 108.085 53.052C108.02 52.744 107.945 52.4687 107.861 52.226L108.071 52.17ZM107.693 56.258C107.964 56.2207 108.351 56.1507 108.855 56.048C109.369 55.936 109.947 55.81 110.591 55.67C111.235 55.53 111.893 55.3807 112.565 55.222L112.593 55.39C112.164 55.6513 111.623 55.9687 110.969 56.342C110.316 56.706 109.541 57.112 108.645 57.56C108.571 57.7653 108.454 57.8913 108.295 57.938L107.693 56.258ZM110.717 48.894V56.174L109.415 56.538V48.894H110.717ZM111.403 50.182C111.403 50.182 111.469 50.2427 111.599 50.364C111.73 50.4853 111.884 50.6347 112.061 50.812C112.239 50.98 112.393 51.1433 112.523 51.302C112.495 51.4513 112.379 51.526 112.173 51.526H107.959L107.847 51.12H110.773L111.403 50.182ZM110.857 47.886C110.857 47.886 110.927 47.9467 111.067 48.068C111.217 48.18 111.385 48.3153 111.571 48.474C111.767 48.6327 111.945 48.7867 112.103 48.936C112.066 49.0853 111.945 49.16 111.739 49.16H108.435L108.323 48.768H110.171L110.857 47.886ZM110.507 45.828C111.067 46.0707 111.492 46.318 111.781 46.57C112.071 46.822 112.257 47.06 112.341 47.284C112.425 47.4987 112.435 47.6947 112.369 47.872C112.313 48.04 112.206 48.166 112.047 48.25C111.898 48.3247 111.739 48.348 111.571 48.32C111.403 48.2827 111.245 48.18 111.095 48.012C111.058 47.7227 110.979 47.382 110.857 46.99C110.736 46.5887 110.563 46.206 110.339 45.842L110.507 45.828ZM110.717 45.898C110.54 46.3273 110.302 46.7847 110.003 47.27C109.714 47.746 109.378 48.208 108.995 48.656C108.622 49.104 108.225 49.4913 107.805 49.818L107.651 49.72C107.838 49.4213 108.015 49.076 108.183 48.684C108.361 48.2827 108.524 47.8673 108.673 47.438C108.823 47.0087 108.949 46.5933 109.051 46.192C109.154 45.7813 109.233 45.4173 109.289 45.1L111.263 45.604C111.245 45.6787 111.193 45.744 111.109 45.8C111.035 45.856 110.904 45.8887 110.717 45.898ZM121.735 52.982H132.221L133.159 51.764C133.159 51.764 133.215 51.8107 133.327 51.904C133.449 51.988 133.598 52.1047 133.775 52.254C133.962 52.394 134.153 52.5433 134.349 52.702C134.545 52.8607 134.723 53.0147 134.881 53.164C134.844 53.3133 134.709 53.388 134.475 53.388H121.847L121.735 52.982ZM122.225 48.712H132.011L132.865 47.564C132.865 47.564 132.917 47.606 133.019 47.69C133.122 47.774 133.253 47.886 133.411 48.026C133.57 48.1567 133.738 48.3013 133.915 48.46C134.093 48.6093 134.256 48.754 134.405 48.894C134.368 49.0433 134.237 49.118 134.013 49.118H122.351L122.225 48.712ZM125.095 45.282L127.251 45.464C127.242 45.5667 127.2 45.6553 127.125 45.73C127.06 45.7953 126.934 45.842 126.747 45.87V53.178H125.095V45.282ZM129.603 45.282L131.801 45.464C131.783 45.5667 131.736 45.6553 131.661 45.73C131.596 45.7953 131.47 45.842 131.283 45.87V53.178H129.603V45.282ZM129.421 54.214C130.429 54.3633 131.255 54.5827 131.899 54.872C132.543 55.1613 133.038 55.4787 133.383 55.824C133.729 56.1693 133.948 56.5053 134.041 56.832C134.144 57.1587 134.144 57.4433 134.041 57.686C133.939 57.9287 133.766 58.0873 133.523 58.162C133.281 58.2367 132.996 58.1947 132.669 58.036C132.501 57.7 132.291 57.364 132.039 57.028C131.787 56.692 131.507 56.3607 131.199 56.034C130.901 55.698 130.588 55.3853 130.261 55.096C129.935 54.8067 129.617 54.55 129.309 54.326L129.421 54.214ZM125.823 53.808L127.811 54.97C127.774 55.0353 127.713 55.0867 127.629 55.124C127.555 55.152 127.438 55.1567 127.279 55.138C126.887 55.53 126.411 55.9267 125.851 56.328C125.301 56.72 124.689 57.084 124.017 57.42C123.355 57.7653 122.655 58.05 121.917 58.274L121.819 58.106C122.389 57.7327 122.93 57.2987 123.443 56.804C123.966 56.3093 124.433 55.8007 124.843 55.278C125.254 54.746 125.581 54.256 125.823 53.808ZM135.637 48.6H139.067L139.753 47.564C139.753 47.564 139.828 47.634 139.977 47.774C140.127 47.9047 140.295 48.0633 140.481 48.25C140.668 48.4367 140.836 48.6093 140.985 48.768C140.957 48.9173 140.836 48.992 140.621 48.992H135.749L135.637 48.6ZM137.205 48.6H138.773V48.824C138.559 50.0467 138.199 51.176 137.695 52.212C137.191 53.2387 136.533 54.1673 135.721 54.998L135.539 54.844C135.857 54.2747 136.123 53.6493 136.337 52.968C136.552 52.2773 136.729 51.5587 136.869 50.812C137.009 50.0653 137.121 49.328 137.205 48.6ZM137.401 45.142L139.445 45.352C139.436 45.4453 139.394 45.5293 139.319 45.604C139.254 45.6693 139.123 45.716 138.927 45.744V57.784C138.927 57.8213 138.867 57.8773 138.745 57.952C138.624 58.036 138.47 58.106 138.283 58.162C138.106 58.218 137.919 58.246 137.723 58.246H137.401V45.142ZM138.927 50.084C139.45 50.2613 139.851 50.462 140.131 50.686C140.421 50.91 140.621 51.134 140.733 51.358C140.845 51.582 140.887 51.792 140.859 51.988C140.831 52.1747 140.752 52.3287 140.621 52.45C140.491 52.562 140.337 52.618 140.159 52.618C139.982 52.6087 139.795 52.5247 139.599 52.366C139.59 52.114 139.539 51.8573 139.445 51.596C139.361 51.3347 139.259 51.0827 139.137 50.84C139.025 50.588 138.909 50.364 138.787 50.168L138.927 50.084ZM140.355 46.654H146.655L147.355 45.772C147.355 45.772 147.425 45.828 147.565 45.94C147.715 46.052 147.887 46.192 148.083 46.36C148.289 46.528 148.471 46.6867 148.629 46.836C148.592 46.9853 148.466 47.06 148.251 47.06H140.467L140.355 46.654ZM140.831 48.194H146.571L147.201 47.368C147.201 47.368 147.267 47.424 147.397 47.536C147.537 47.6387 147.696 47.7693 147.873 47.928C148.06 48.0773 148.228 48.222 148.377 48.362C148.349 48.5113 148.228 48.586 148.013 48.586H140.943L140.831 48.194ZM140.033 49.79H146.893L147.593 48.894C147.593 48.894 147.663 48.9547 147.803 49.076C147.953 49.188 148.125 49.328 148.321 49.496C148.517 49.664 148.695 49.8227 148.853 49.972C148.816 50.1213 148.695 50.196 148.489 50.196H140.145L140.033 49.79ZM139.655 54.984H147.481L148.069 54.032C148.069 54.032 148.13 54.0973 148.251 54.228C148.382 54.3493 148.527 54.4987 148.685 54.676C148.853 54.844 148.998 55.0027 149.119 55.152C149.091 55.3013 148.975 55.376 148.769 55.376H139.767L139.655 54.984ZM141.979 45.226L143.813 45.394C143.804 45.4687 143.767 45.5387 143.701 45.604C143.636 45.66 143.538 45.6973 143.407 45.716V49.93H141.979V45.226ZM144.779 45.226L146.627 45.394C146.618 45.478 146.581 45.5527 146.515 45.618C146.45 45.674 146.343 45.716 146.193 45.744V49.93H144.779V45.226ZM143.505 49.86H144.919V55.138H143.505V49.86ZM141.937 53.01H146.935V53.402H141.937V53.01ZM146.193 51.204H146.053L146.711 50.448L148.195 51.554C148.158 51.6007 148.093 51.652 147.999 51.708C147.906 51.7547 147.789 51.792 147.649 51.82V56.622C147.649 56.9393 147.607 57.21 147.523 57.434C147.449 57.658 147.281 57.8353 147.019 57.966C146.758 58.0967 146.357 58.1853 145.815 58.232C145.806 58.0267 145.783 57.8447 145.745 57.686C145.717 57.5273 145.657 57.4013 145.563 57.308C145.479 57.2147 145.363 57.1307 145.213 57.056C145.064 56.9813 144.845 56.9207 144.555 56.874V56.678C144.555 56.678 144.611 56.6827 144.723 56.692C144.845 56.7013 144.985 56.7107 145.143 56.72C145.311 56.7293 145.465 56.7387 145.605 56.748C145.755 56.7573 145.862 56.762 145.927 56.762C146.039 56.762 146.109 56.7387 146.137 56.692C146.175 56.6453 146.193 56.5753 146.193 56.482V51.204ZM140.831 51.204V50.588L142.329 51.204H146.613V51.596H142.245V57.756C142.245 57.7933 142.185 57.8493 142.063 57.924C141.951 58.008 141.807 58.078 141.629 58.134C141.452 58.1993 141.261 58.232 141.055 58.232H140.831V51.204ZM152.465 56.146L151.975 55.656L155.797 51.848L151.975 48.026L152.451 47.55L156.273 51.372L160.095 47.55L160.571 48.026L156.749 51.848L160.571 55.656L160.081 56.146L156.273 52.324L152.465 56.146ZM167.011 53.346C167.459 53.906 168.038 54.3773 168.747 54.76C169.466 55.1427 170.269 55.4507 171.155 55.684C172.042 55.9173 172.98 56.09 173.969 56.202C174.968 56.314 175.962 56.384 176.951 56.412V56.58C176.606 56.6827 176.331 56.8693 176.125 57.14C175.92 57.4107 175.78 57.7467 175.705 58.148C174.38 57.9707 173.148 57.7047 172.009 57.35C170.871 56.9953 169.863 56.51 168.985 55.894C168.108 55.2687 167.394 54.466 166.843 53.486L167.011 53.346ZM172.513 53.276L173.535 52.422L174.963 53.808C174.907 53.8827 174.833 53.934 174.739 53.962C174.646 53.9807 174.501 53.9947 174.305 54.004C173.559 54.8347 172.649 55.544 171.575 56.132C170.502 56.7107 169.303 57.1727 167.977 57.518C166.661 57.8633 165.252 58.0967 163.749 58.218L163.679 58.008C164.977 57.7373 166.209 57.3827 167.375 56.944C168.542 56.496 169.587 55.964 170.511 55.348C171.435 54.732 172.168 54.0413 172.709 53.276H172.513ZM173.633 53.276V53.668H164.365L164.239 53.276H173.633ZM172.793 45.114C173.288 45.1607 173.671 45.254 173.941 45.394C174.212 45.5247 174.399 45.6787 174.501 45.856C174.604 46.0333 174.641 46.206 174.613 46.374C174.585 46.5327 174.506 46.6633 174.375 46.766C174.254 46.8687 174.105 46.9247 173.927 46.934C173.75 46.934 173.568 46.864 173.381 46.724C173.363 46.4533 173.283 46.178 173.143 45.898C173.003 45.6087 172.845 45.3753 172.667 45.198L172.793 45.114ZM166.717 45.142C167.212 45.198 167.595 45.296 167.865 45.436C168.136 45.5667 168.323 45.7207 168.425 45.898C168.528 46.066 168.565 46.234 168.537 46.402C168.509 46.5607 168.43 46.696 168.299 46.808C168.178 46.9107 168.029 46.9667 167.851 46.976C167.674 46.976 167.492 46.9013 167.305 46.752C167.296 46.4813 167.221 46.206 167.081 45.926C166.941 45.6367 166.778 45.4033 166.591 45.226L166.717 45.142ZM167.137 45.73C167.1 45.814 167.035 45.884 166.941 45.94C166.857 45.9867 166.741 46.0053 166.591 45.996C166.227 46.6867 165.803 47.312 165.317 47.872C164.841 48.432 164.333 48.8893 163.791 49.244L163.609 49.104C163.964 48.628 164.3 48.0353 164.617 47.326C164.935 46.6073 165.191 45.8653 165.387 45.1L167.137 45.73ZM172.989 45.674C172.961 45.7673 172.901 45.842 172.807 45.898C172.723 45.9447 172.607 45.9633 172.457 45.954C172.131 46.6447 171.739 47.2607 171.281 47.802C170.833 48.3433 170.348 48.7913 169.825 49.146L169.643 49.006C169.97 48.5393 170.273 47.9607 170.553 47.27C170.833 46.5793 171.053 45.856 171.211 45.1L172.989 45.674ZM174.347 47.102V51.974H173.017V47.102H174.347ZM172.051 52.45C172.051 52.4967 171.949 52.5807 171.743 52.702C171.538 52.8233 171.253 52.884 170.889 52.884H170.651V47.774L171.477 46.612L172.233 46.906H172.051V52.45ZM175.537 50.91C175.537 50.91 175.607 50.966 175.747 51.078C175.887 51.1807 176.055 51.316 176.251 51.484C176.457 51.6427 176.634 51.7967 176.783 51.946C176.746 52.0953 176.625 52.17 176.419 52.17H171.379V51.778H174.851L175.537 50.91ZM175.201 49.412C175.201 49.412 175.262 49.4633 175.383 49.566C175.505 49.6593 175.654 49.7807 175.831 49.93C176.009 50.07 176.163 50.2053 176.293 50.336C176.265 50.4853 176.144 50.56 175.929 50.56H171.379V50.168H174.599L175.201 49.412ZM175.201 47.774C175.201 47.774 175.262 47.8253 175.383 47.928C175.505 48.0213 175.649 48.1427 175.817 48.292C175.995 48.432 176.149 48.5673 176.279 48.698C176.251 48.8473 176.135 48.922 175.929 48.922H171.379V48.53H174.599L175.201 47.774ZM175.299 46.136C175.299 46.136 175.365 46.1873 175.495 46.29C175.635 46.3833 175.799 46.5047 175.985 46.654C176.172 46.8033 176.345 46.948 176.503 47.088C176.475 47.2373 176.354 47.312 176.139 47.312H171.351V46.906H174.641L175.299 46.136ZM168.299 47.102V51.974H166.997V47.102H168.299ZM166.115 52.506C166.115 52.5527 166.013 52.6367 165.807 52.758C165.602 52.87 165.327 52.926 164.981 52.926H164.729V47.802L165.569 46.64L166.283 46.906H166.115V52.506ZM169.293 50.938C169.293 50.938 169.363 50.994 169.503 51.106C169.643 51.2087 169.807 51.3393 169.993 51.498C170.189 51.6567 170.362 51.806 170.511 51.946C170.474 52.0953 170.348 52.17 170.133 52.17H165.443V51.778H168.635L169.293 50.938ZM169.055 49.384C169.055 49.384 169.116 49.4353 169.237 49.538C169.359 49.6313 169.499 49.748 169.657 49.888C169.825 50.028 169.975 50.1633 170.105 50.294C170.068 50.4433 169.951 50.518 169.755 50.518H165.443V50.112H168.481L169.055 49.384ZM169.055 47.774C169.055 47.774 169.116 47.8207 169.237 47.914C169.359 48.0073 169.499 48.124 169.657 48.264C169.816 48.404 169.965 48.5393 170.105 48.67C170.068 48.8193 169.947 48.894 169.741 48.894H165.443V48.502H168.481L169.055 47.774ZM169.111 46.136C169.111 46.136 169.177 46.1873 169.307 46.29C169.447 46.3927 169.611 46.5187 169.797 46.668C169.993 46.808 170.166 46.948 170.315 47.088C170.278 47.2373 170.157 47.312 169.951 47.312H165.401V46.906H168.467L169.111 46.136ZM186.037 46.696C186.579 46.724 186.985 46.808 187.255 46.948C187.535 47.088 187.708 47.2513 187.773 47.438C187.839 47.6247 187.829 47.7927 187.745 47.942C187.671 48.0913 187.545 48.1893 187.367 48.236C187.19 48.2827 186.994 48.2453 186.779 48.124C186.714 47.8813 186.593 47.6387 186.415 47.396C186.247 47.144 186.079 46.948 185.911 46.808L186.037 46.696ZM186.667 49.454L188.431 50.182C188.394 50.266 188.329 50.3313 188.235 50.378C188.142 50.4247 188.016 50.4387 187.857 50.42C187.475 51.4653 187.008 52.3707 186.457 53.136C185.907 53.892 185.272 54.5267 184.553 55.04C183.844 55.5533 183.06 55.978 182.201 56.314L182.061 56.146C182.761 55.698 183.415 55.1567 184.021 54.522C184.628 53.878 185.16 53.1313 185.617 52.282C186.075 51.4327 186.425 50.49 186.667 49.454ZM180.213 48.572H186.527L187.171 47.718C187.171 47.718 187.241 47.774 187.381 47.886C187.521 47.998 187.685 48.1333 187.871 48.292C188.058 48.4507 188.221 48.6 188.361 48.74C188.324 48.8893 188.203 48.964 187.997 48.964H180.325L180.213 48.572ZM184.035 46.71L185.883 47.032C185.874 47.116 185.827 47.1907 185.743 47.256C185.669 47.3213 185.557 47.3587 185.407 47.368C185.407 48.04 185.426 48.712 185.463 49.384C185.51 50.0467 185.589 50.686 185.701 51.302C185.823 51.918 185.995 52.4873 186.219 53.01C186.443 53.5327 186.737 53.9807 187.101 54.354C187.185 54.4473 187.246 54.4893 187.283 54.48C187.33 54.4707 187.381 54.4147 187.437 54.312C187.512 54.1627 187.605 53.9573 187.717 53.696C187.829 53.4347 187.927 53.178 188.011 52.926L188.165 52.968L187.941 54.872C188.128 55.1987 188.24 55.4507 188.277 55.628C188.315 55.8053 188.287 55.95 188.193 56.062C188.025 56.23 187.825 56.3047 187.591 56.286C187.367 56.2673 187.143 56.1927 186.919 56.062C186.695 55.922 186.504 55.7773 186.345 55.628C185.692 54.9187 185.202 54.1067 184.875 53.192C184.558 52.268 184.339 51.26 184.217 50.168C184.105 49.0667 184.045 47.914 184.035 46.71ZM180.171 53.864C180.414 53.836 180.75 53.794 181.179 53.738C181.609 53.6727 182.089 53.6027 182.621 53.528C183.163 53.444 183.709 53.3553 184.259 53.262L184.287 53.43C183.979 53.626 183.578 53.8687 183.083 54.158C182.589 54.4473 181.996 54.774 181.305 55.138C181.24 55.3247 181.123 55.4413 180.955 55.488L180.171 53.864ZM180.717 49.972V49.482L181.893 49.972H183.265V50.364H181.823V52.828C181.823 52.8467 181.777 52.8887 181.683 52.954C181.59 53.01 181.469 53.0613 181.319 53.108C181.179 53.1453 181.03 53.164 180.871 53.164H180.717V49.972ZM181.151 52.1H183.265V52.492H181.151V52.1ZM182.691 49.972H182.593L183.125 49.426L184.245 50.266C184.217 50.3033 184.166 50.3407 184.091 50.378C184.026 50.4153 183.942 50.4433 183.839 50.462V52.534C183.839 52.5713 183.783 52.618 183.671 52.674C183.569 52.73 183.443 52.786 183.293 52.842C183.153 52.8887 183.018 52.912 182.887 52.912H182.691V49.972ZM179.331 56.762H189.313V57.154H179.331V56.762ZM188.627 46.08H188.487L189.243 45.226L190.755 46.444C190.643 46.5747 190.452 46.6727 190.181 46.738V57.658C190.172 57.6953 190.097 57.756 189.957 57.84C189.817 57.924 189.649 57.9987 189.453 58.064C189.257 58.1293 189.061 58.162 188.865 58.162H188.627V46.08ZM178.365 46.08V45.394L180.031 46.08H189.299V46.472H179.891V57.672C179.891 57.728 179.831 57.8027 179.709 57.896C179.588 57.9987 179.434 58.0827 179.247 58.148C179.061 58.2227 178.851 58.26 178.617 58.26H178.365V46.08ZM194.157 54.578C194.493 55.1193 194.904 55.5207 195.389 55.782C195.884 56.0433 196.486 56.216 197.195 56.3C197.905 56.3747 198.768 56.412 199.785 56.412C200.065 56.412 200.429 56.412 200.877 56.412C201.325 56.412 201.797 56.412 202.291 56.412C202.786 56.412 203.257 56.412 203.705 56.412C204.163 56.4027 204.541 56.3933 204.839 56.384V56.566C204.559 56.6313 204.349 56.7807 204.209 57.014C204.079 57.2567 204.009 57.5367 203.999 57.854C203.766 57.854 203.458 57.854 203.075 57.854C202.702 57.854 202.305 57.854 201.885 57.854C201.465 57.854 201.064 57.854 200.681 57.854C200.308 57.854 199.995 57.854 199.743 57.854C198.689 57.854 197.793 57.7653 197.055 57.588C196.327 57.42 195.721 57.1073 195.235 56.65C194.75 56.1833 194.344 55.5207 194.017 54.662L194.157 54.578ZM195.571 49.034C195.469 49.2113 195.343 49.4353 195.193 49.706C195.044 49.9767 194.881 50.2613 194.703 50.56C194.535 50.8493 194.367 51.134 194.199 51.414C194.031 51.6847 193.887 51.918 193.765 52.114H193.877L193.387 52.59L192.127 51.708C192.23 51.624 192.361 51.5493 192.519 51.484C192.687 51.4187 192.841 51.372 192.981 51.344L192.449 51.75C192.589 51.5633 192.743 51.33 192.911 51.05C193.089 50.7607 193.266 50.4573 193.443 50.14C193.621 49.8227 193.779 49.5193 193.919 49.23C194.069 48.9407 194.19 48.698 194.283 48.502L195.571 49.034ZM194.101 48.502L194.787 47.816L196.159 49.048C196.075 49.1413 195.94 49.2067 195.753 49.244C195.567 49.272 195.357 49.286 195.123 49.286C194.899 49.2767 194.675 49.2533 194.451 49.216L194.283 48.502H194.101ZM194.605 51.722L195.431 50.882L196.873 52.1C196.827 52.1653 196.761 52.212 196.677 52.24C196.603 52.268 196.486 52.2913 196.327 52.31C196.094 53.0287 195.772 53.738 195.361 54.438C194.96 55.138 194.465 55.796 193.877 56.412C193.289 57.0187 192.603 57.5553 191.819 58.022L191.679 57.868C192.202 57.3453 192.669 56.7387 193.079 56.048C193.499 55.3573 193.849 54.6387 194.129 53.892C194.409 53.1453 194.615 52.422 194.745 51.722H194.605ZM194.871 48.502V48.908H191.917L191.791 48.502H194.871ZM195.193 51.722V52.114H193.233L193.387 51.722H195.193ZM192.407 45.338C193.051 45.394 193.565 45.5107 193.947 45.688C194.33 45.856 194.601 46.0567 194.759 46.29C194.927 46.514 195.007 46.738 194.997 46.962C194.988 47.1767 194.913 47.3633 194.773 47.522C194.633 47.6807 194.451 47.774 194.227 47.802C194.013 47.83 193.779 47.76 193.527 47.592C193.481 47.3307 193.392 47.0693 193.261 46.808C193.14 46.5373 192.991 46.2807 192.813 46.038C192.645 45.7953 192.473 45.59 192.295 45.422L192.407 45.338ZM201.059 47.662C200.938 47.8393 200.789 48.0447 200.611 48.278C200.434 48.5113 200.252 48.74 200.065 48.964C199.888 49.1787 199.711 49.37 199.533 49.538H198.987C199.015 49.258 199.034 48.9313 199.043 48.558C199.053 48.1847 199.053 47.886 199.043 47.662H201.059ZM198.497 55.376C198.497 55.432 198.432 55.4973 198.301 55.572C198.171 55.6467 198.007 55.7167 197.811 55.782C197.615 55.8473 197.41 55.88 197.195 55.88H196.957V49.286V48.614L198.567 49.286H202.585V49.678H198.497V55.376ZM203.271 45.506C203.243 45.59 203.187 45.66 203.103 45.716C203.019 45.7627 202.898 45.786 202.739 45.786C202.571 45.982 202.366 46.2013 202.123 46.444C201.881 46.6867 201.629 46.9293 201.367 47.172C201.106 47.4053 200.849 47.6247 200.597 47.83H200.387C200.49 47.5593 200.583 47.256 200.667 46.92C200.751 46.584 200.831 46.248 200.905 45.912C200.989 45.576 201.055 45.268 201.101 44.988L203.271 45.506ZM202.515 54.606V54.998H197.671V54.606H202.515ZM202.515 52.8V53.206H197.671V52.8H202.515ZM202.515 51.036V51.428H197.671V51.036H202.515ZM201.787 49.286L202.515 48.488L204.013 49.636C203.976 49.692 203.911 49.7433 203.817 49.79C203.733 49.8367 203.626 49.874 203.495 49.902V55.362C203.486 55.3993 203.407 55.4507 203.257 55.516C203.117 55.5813 202.949 55.642 202.753 55.698C202.557 55.7447 202.371 55.768 202.193 55.768H201.927V49.286H201.787ZM197.335 45.128C197.923 45.2307 198.381 45.38 198.707 45.576C199.043 45.7627 199.272 45.968 199.393 46.192C199.524 46.416 199.571 46.6307 199.533 46.836C199.505 47.0413 199.417 47.2093 199.267 47.34C199.127 47.4613 198.95 47.5267 198.735 47.536C198.53 47.5453 198.315 47.466 198.091 47.298C198.063 46.934 197.961 46.5607 197.783 46.178C197.606 45.7953 197.415 45.4733 197.209 45.212L197.335 45.128ZM203.159 46.388C203.159 46.388 203.211 46.43 203.313 46.514C203.425 46.598 203.561 46.7053 203.719 46.836C203.887 46.9667 204.06 47.1113 204.237 47.27C204.415 47.4193 204.573 47.564 204.713 47.704C204.676 47.8533 204.55 47.928 204.335 47.928H196.131L196.019 47.522H202.305L203.159 46.388Z" fill="white"/>
<line y1="38.5" x2="310" y2="38.5" stroke="white"/>
<path d="M233.512 22.704C233.512 22.704 233.556 22.736 233.644 22.8C233.732 22.864 233.836 22.948 233.956 23.052C234.084 23.148 234.196 23.248 234.292 23.352C234.268 23.48 234.172 23.544 234.004 23.544H230.056L229.96 23.196H233.08L233.512 22.704ZM233.512 21.42C233.512 21.42 233.556 21.456 233.644 21.528C233.74 21.592 233.848 21.672 233.968 21.768C234.096 21.864 234.208 21.964 234.304 22.068C234.28 22.196 234.18 22.26 234.004 22.26H230.056L229.96 21.912H233.092L233.512 21.42ZM233.032 25.98C233.192 26.548 233.412 27.048 233.692 27.48C233.98 27.912 234.32 28.288 234.712 28.608C235.104 28.928 235.544 29.2 236.032 29.424C236.528 29.648 237.064 29.832 237.64 29.976L237.616 30.108C237.416 30.14 237.244 30.228 237.1 30.372C236.956 30.516 236.848 30.708 236.776 30.948C236.064 30.66 235.444 30.304 234.916 29.88C234.396 29.456 233.964 28.936 233.62 28.32C233.284 27.696 233.024 26.948 232.84 26.076L233.032 25.98ZM235.372 25.932L235.972 25.356L236.98 26.244C236.948 26.3 236.896 26.34 236.824 26.364C236.752 26.388 236.648 26.4 236.512 26.4C236.288 27.032 235.984 27.632 235.6 28.2C235.216 28.768 234.736 29.28 234.16 29.736C233.584 30.184 232.892 30.56 232.084 30.864L231.976 30.696C232.616 30.344 233.168 29.92 233.632 29.424C234.104 28.928 234.496 28.384 234.808 27.792C235.12 27.2 235.352 26.58 235.504 25.932H235.372ZM226.612 29.16C226.916 29.136 227.328 29.1 227.848 29.052C228.368 28.996 228.956 28.936 229.612 28.872C230.276 28.8 230.96 28.724 231.664 28.644L231.688 28.824C231.208 28.976 230.62 29.152 229.924 29.352C229.228 29.552 228.396 29.78 227.428 30.036C227.404 30.108 227.364 30.164 227.308 30.204C227.252 30.252 227.2 30.284 227.152 30.3L226.612 29.16ZM228.832 24.564V29.292L227.908 29.472V24.564H228.832ZM231.868 30.72C231.868 30.752 231.8 30.804 231.664 30.876C231.528 30.948 231.34 30.984 231.1 30.984H230.944V24.564H231.868V30.72ZM236.092 25.932V26.292H232.216L232.108 25.932H236.092ZM236.308 23.748C236.308 23.748 236.344 23.78 236.416 23.844C236.496 23.908 236.596 23.988 236.716 24.084C236.836 24.18 236.96 24.288 237.088 24.408C237.224 24.52 237.348 24.628 237.46 24.732C237.428 24.86 237.32 24.924 237.136 24.924H226.672L226.564 24.564H235.672L236.308 23.748ZM229.384 23.94C229.384 23.964 229.344 24.004 229.264 24.06C229.184 24.108 229.084 24.152 228.964 24.192C228.844 24.224 228.716 24.24 228.58 24.24H228.436V20.604V20.16L229.468 20.604H235.372V20.952H229.384V23.94ZM234.604 20.604L235.108 20.052L236.2 20.88C236.16 20.928 236.096 20.976 236.008 21.024C235.92 21.064 235.812 21.096 235.684 21.12V23.844C235.684 23.868 235.636 23.9 235.54 23.94C235.452 23.98 235.344 24.02 235.216 24.06C235.096 24.092 234.984 24.108 234.88 24.108H234.724V20.604H234.604ZM231.364 27.432V27.78H228.376V27.432H231.364ZM231.364 25.98V26.34H228.376V25.98H231.364ZM242.452 20.844L242.464 20.604C242.576 20.58 242.688 20.56 242.8 20.544C242.92 20.528 243.048 20.52 243.184 20.52C243.336 20.52 243.492 20.556 243.652 20.628C243.812 20.692 243.96 20.776 244.096 20.88C244.232 20.984 244.34 21.092 244.42 21.204C244.508 21.316 244.552 21.416 244.552 21.504C244.552 21.624 244.516 21.724 244.444 21.804C244.372 21.876 244.3 21.984 244.228 22.128C244.14 22.32 244.044 22.544 243.94 22.8C243.844 23.048 243.728 23.38 243.592 23.796C243.504 24.052 243.404 24.364 243.292 24.732C243.188 25.1 243.084 25.492 242.98 25.908C242.876 26.316 242.788 26.716 242.716 27.108C242.652 27.492 242.62 27.828 242.62 28.116C242.62 28.708 242.792 29.144 243.136 29.424C243.488 29.696 243.94 29.832 244.492 29.832C244.996 29.832 245.42 29.736 245.764 29.544C246.116 29.344 246.38 29.088 246.556 28.776C246.732 28.464 246.82 28.132 246.82 27.78C246.82 27.34 246.74 26.952 246.58 26.616C246.42 26.28 246.2 25.972 245.92 25.692C245.64 25.412 245.316 25.136 244.948 24.864L245.104 24.672C245.736 24.968 246.248 25.292 246.64 25.644C247.04 25.988 247.332 26.364 247.516 26.772C247.7 27.172 247.792 27.596 247.792 28.044C247.792 28.34 247.728 28.64 247.6 28.944C247.472 29.248 247.276 29.528 247.012 29.784C246.756 30.04 246.428 30.244 246.028 30.396C245.636 30.556 245.168 30.636 244.624 30.636C244.056 30.636 243.58 30.528 243.196 30.312C242.82 30.104 242.536 29.816 242.344 29.448C242.152 29.072 242.056 28.64 242.056 28.152C242.056 27.848 242.08 27.496 242.128 27.096C242.184 26.696 242.252 26.284 242.332 25.86C242.412 25.428 242.492 25.024 242.572 24.648C242.66 24.264 242.736 23.944 242.8 23.688C242.896 23.36 242.98 23.056 243.052 22.776C243.132 22.496 243.2 22.248 243.256 22.032C243.312 21.816 243.344 21.648 243.352 21.528C243.36 21.384 243.34 21.28 243.292 21.216C243.244 21.152 243.164 21.092 243.052 21.036C242.964 20.996 242.864 20.96 242.752 20.928C242.648 20.888 242.548 20.86 242.452 20.844ZM240.484 21.984C240.636 22.192 240.796 22.38 240.964 22.548C241.132 22.716 241.34 22.852 241.588 22.956C242.044 23.132 242.48 23.228 242.896 23.244C243.32 23.252 243.708 23.272 244.06 23.304C244.284 23.328 244.444 23.392 244.54 23.496C244.636 23.6 244.684 23.712 244.684 23.832C244.684 23.952 244.64 24.04 244.552 24.096C244.472 24.152 244.352 24.184 244.192 24.192C244.088 24.2 243.948 24.2 243.772 24.192C243.604 24.184 243.432 24.176 243.256 24.168C243.08 24.152 242.928 24.144 242.8 24.144C242.6 24.144 242.388 24.18 242.164 24.252C241.94 24.324 241.728 24.424 241.528 24.552C241.328 24.68 241.164 24.82 241.036 24.972C240.916 25.116 240.856 25.26 240.856 25.404C240.856 25.532 240.904 25.656 241 25.776C241.104 25.888 241.268 25.988 241.492 26.076C241.716 26.164 242.02 26.232 242.404 26.28C242.796 26.328 243.148 26.348 243.46 26.34C243.772 26.324 244.012 26.324 244.18 26.34C244.348 26.348 244.48 26.392 244.576 26.472C244.672 26.544 244.72 26.652 244.72 26.796C244.72 26.924 244.672 27.028 244.576 27.108C244.48 27.188 244.312 27.24 244.072 27.264C243.88 27.28 243.624 27.284 243.304 27.276C242.984 27.26 242.644 27.22 242.284 27.156C241.676 27.036 241.204 26.836 240.868 26.556C240.532 26.268 240.364 25.94 240.364 25.572C240.364 25.348 240.432 25.128 240.568 24.912C240.712 24.688 240.904 24.476 241.144 24.276C241.384 24.076 241.648 23.904 241.936 23.76C241.784 23.712 241.64 23.66 241.504 23.604C241.376 23.548 241.236 23.472 241.084 23.376C240.876 23.232 240.708 23.064 240.58 22.872C240.46 22.672 240.364 22.412 240.292 22.092L240.484 21.984ZM253.96 20.928H259.804L260.44 20.112C260.44 20.112 260.48 20.144 260.56 20.208C260.64 20.272 260.74 20.356 260.86 20.46C260.98 20.556 261.108 20.66 261.244 20.772C261.38 20.884 261.504 20.988 261.616 21.084C261.608 21.148 261.572 21.196 261.508 21.228C261.452 21.26 261.38 21.276 261.292 21.276H254.056L253.96 20.928ZM254.704 26.172H260.416V26.52H254.704V26.172ZM254.704 24.384H260.416V24.732H254.704V24.384ZM259.924 22.62H259.804L260.308 22.068L261.4 22.896C261.36 22.944 261.296 22.992 261.208 23.04C261.12 23.088 261.012 23.124 260.884 23.148V26.892C260.884 26.916 260.836 26.952 260.74 27C260.652 27.04 260.548 27.08 260.428 27.12C260.308 27.152 260.192 27.168 260.08 27.168H259.924V22.62ZM254.176 22.62V22.188L255.184 22.62H260.356V22.968H255.112V26.928C255.112 26.96 255.072 27.004 254.992 27.06C254.912 27.108 254.812 27.152 254.692 27.192C254.572 27.224 254.448 27.24 254.32 27.24H254.176V22.62ZM256.996 20.928H257.956V25.584C257.956 26.112 257.92 26.608 257.848 27.072C257.776 27.536 257.644 27.968 257.452 28.368C257.26 28.76 256.984 29.12 256.624 29.448C256.272 29.768 255.812 30.056 255.244 30.312C254.684 30.568 253.988 30.788 253.156 30.972L253.048 30.804C253.872 30.516 254.54 30.208 255.052 29.88C255.572 29.544 255.972 29.172 256.252 28.764C256.54 28.348 256.736 27.88 256.84 27.36C256.944 26.84 256.996 26.256 256.996 25.608V20.928ZM254.98 27.228C255.268 27.66 255.636 28.04 256.084 28.368C256.54 28.688 257.06 28.952 257.644 29.16C258.228 29.368 258.864 29.528 259.552 29.64C260.24 29.752 260.964 29.82 261.724 29.844V29.976C261.516 30.032 261.336 30.144 261.184 30.312C261.04 30.488 260.944 30.696 260.896 30.936C259.88 30.816 258.98 30.612 258.196 30.324C257.412 30.044 256.74 29.66 256.18 29.172C255.62 28.684 255.164 28.072 254.812 27.336L254.98 27.228ZM251.968 23.532L252.388 22.98L253.3 23.316C253.284 23.372 253.244 23.42 253.18 23.46C253.124 23.492 253.044 23.516 252.94 23.532V30.66C252.94 30.684 252.9 30.72 252.82 30.768C252.74 30.824 252.64 30.872 252.52 30.912C252.4 30.952 252.276 30.972 252.148 30.972H251.968V23.532ZM252.952 19.908L254.392 20.352C254.368 20.424 254.316 20.484 254.236 20.532C254.164 20.58 254.06 20.6 253.924 20.592C253.652 21.336 253.336 22.048 252.976 22.728C252.624 23.4 252.24 24.02 251.824 24.588C251.408 25.156 250.964 25.656 250.492 26.088L250.324 25.968C250.668 25.48 251.004 24.912 251.332 24.264C251.668 23.608 251.976 22.908 252.256 22.164C252.536 21.42 252.768 20.668 252.952 19.908ZM262.648 23.664H267.448L268.048 22.86C268.048 22.86 268.084 22.892 268.156 22.956C268.236 23.012 268.332 23.092 268.444 23.196C268.556 23.292 268.676 23.396 268.804 23.508C268.932 23.612 269.048 23.716 269.152 23.82C269.12 23.948 269.012 24.012 268.828 24.012H262.744L262.648 23.664ZM267.676 19.908L268.828 20.94C268.772 20.996 268.684 21.028 268.564 21.036C268.452 21.036 268.312 21.004 268.144 20.94C267.696 21.076 267.172 21.208 266.572 21.336C265.972 21.464 265.336 21.58 264.664 21.684C264 21.78 263.34 21.852 262.684 21.9L262.636 21.72C263.084 21.616 263.548 21.492 264.028 21.348C264.508 21.204 264.972 21.052 265.42 20.892C265.876 20.732 266.296 20.568 266.68 20.4C267.072 20.224 267.404 20.06 267.676 19.908ZM265.276 23.664H266.32V23.856C265.96 24.888 265.448 25.844 264.784 26.724C264.12 27.596 263.34 28.356 262.444 29.004L262.3 28.848C262.756 28.392 263.172 27.88 263.548 27.312C263.932 26.744 264.268 26.148 264.556 25.524C264.852 24.9 265.092 24.28 265.276 23.664ZM266.38 24.864C266.892 25.064 267.308 25.28 267.628 25.512C267.948 25.744 268.184 25.976 268.336 26.208C268.496 26.432 268.588 26.64 268.612 26.832C268.636 27.024 268.612 27.18 268.54 27.3C268.476 27.42 268.376 27.488 268.24 27.504C268.112 27.52 267.972 27.468 267.82 27.348C267.756 27.084 267.636 26.808 267.46 26.52C267.292 26.224 267.1 25.94 266.884 25.668C266.668 25.396 266.456 25.156 266.248 24.948L266.38 24.864ZM266.416 20.952V30.672C266.416 30.688 266.384 30.72 266.32 30.768C266.256 30.824 266.164 30.872 266.044 30.912C265.924 30.952 265.788 30.972 265.636 30.972H265.468V21.228L266.416 20.952ZM269.44 20.916L270.784 21.048C270.776 21.128 270.74 21.2 270.676 21.264C270.612 21.328 270.504 21.368 270.352 21.384V28.176C270.352 28.208 270.312 28.248 270.232 28.296C270.16 28.344 270.068 28.388 269.956 28.428C269.844 28.468 269.728 28.488 269.608 28.488H269.44V20.916ZM272.032 20.112L273.4 20.256C273.392 20.336 273.352 20.408 273.28 20.472C273.216 20.528 273.112 20.568 272.968 20.592V29.628C272.968 29.868 272.936 30.076 272.872 30.252C272.808 30.436 272.676 30.584 272.476 30.696C272.276 30.808 271.964 30.888 271.54 30.936C271.516 30.784 271.484 30.648 271.444 30.528C271.404 30.416 271.34 30.32 271.252 30.24C271.148 30.152 271.012 30.08 270.844 30.024C270.684 29.968 270.456 29.92 270.16 29.88V29.7C270.16 29.7 270.228 29.708 270.364 29.724C270.5 29.732 270.66 29.744 270.844 29.76C271.036 29.768 271.216 29.776 271.384 29.784C271.552 29.792 271.668 29.796 271.732 29.796C271.844 29.796 271.92 29.776 271.96 29.736C272.008 29.696 272.032 29.632 272.032 29.544V20.112ZM281.704 22.98V22.716C282.016 22.652 282.324 22.628 282.628 22.644C282.932 22.66 283.2 22.712 283.432 22.8C283.808 22.928 284.096 23.108 284.296 23.34C284.496 23.572 284.596 23.824 284.596 24.096C284.596 24.24 284.564 24.36 284.5 24.456C284.436 24.552 284.336 24.6 284.2 24.6C284.088 24.6 283.98 24.58 283.876 24.54C283.78 24.5 283.668 24.46 283.54 24.42C283.412 24.38 283.256 24.364 283.072 24.372C282.872 24.396 282.676 24.444 282.484 24.516C282.292 24.588 282.136 24.692 282.016 24.828C281.896 24.956 281.82 25.116 281.788 25.308C281.764 25.5 281.76 25.708 281.776 25.932C281.792 26.076 281.816 26.276 281.848 26.532C281.888 26.78 281.928 27.052 281.968 27.348C282.016 27.644 282.056 27.936 282.088 28.224C282.12 28.512 282.136 28.768 282.136 28.992C282.136 29.496 281.956 29.884 281.596 30.156C281.236 30.436 280.74 30.576 280.108 30.576C279.476 30.576 278.988 30.44 278.644 30.168C278.308 29.896 278.14 29.572 278.14 29.196C278.14 28.884 278.24 28.604 278.44 28.356C278.648 28.108 278.944 27.912 279.328 27.768C279.72 27.616 280.188 27.54 280.732 27.54C281.412 27.54 282.008 27.64 282.52 27.84C283.032 28.032 283.456 28.236 283.792 28.452C284.104 28.644 284.34 28.836 284.5 29.028C284.668 29.22 284.752 29.408 284.752 29.592C284.752 29.744 284.716 29.86 284.644 29.94C284.572 30.02 284.48 30.06 284.368 30.06C284.28 30.06 284.2 30.036 284.128 29.988C284.064 29.932 283.992 29.864 283.912 29.784C283.832 29.704 283.74 29.62 283.636 29.532C283.38 29.284 283.088 29.056 282.76 28.848C282.432 28.64 282.06 28.476 281.644 28.356C281.228 28.228 280.756 28.164 280.228 28.164C279.7 28.164 279.3 28.256 279.028 28.44C278.764 28.624 278.632 28.82 278.632 29.028C278.632 29.236 278.732 29.412 278.932 29.556C279.132 29.692 279.444 29.76 279.868 29.76C280.228 29.76 280.508 29.708 280.708 29.604C280.916 29.5 281.06 29.356 281.14 29.172C281.228 28.988 281.272 28.776 281.272 28.536C281.272 28.288 281.26 28.028 281.236 27.756C281.22 27.476 281.2 27.2 281.176 26.928C281.16 26.648 281.152 26.388 281.152 26.148C281.152 25.796 281.196 25.5 281.284 25.26C281.372 25.012 281.512 24.788 281.704 24.588C281.904 24.372 282.132 24.204 282.388 24.084C282.644 23.964 282.872 23.856 283.072 23.76C283.168 23.704 283.208 23.64 283.192 23.568C283.184 23.496 283.132 23.428 283.036 23.364C282.876 23.236 282.68 23.144 282.448 23.088C282.224 23.024 281.976 22.988 281.704 22.98ZM275.32 22.164C275.496 22.3 275.656 22.42 275.8 22.524C275.944 22.628 276.104 22.708 276.28 22.764C276.456 22.82 276.676 22.848 276.94 22.848C277.124 22.848 277.312 22.836 277.504 22.812C277.696 22.78 277.876 22.744 278.044 22.704C278.212 22.664 278.348 22.632 278.452 22.608C278.916 22.48 279.272 22.36 279.52 22.248C279.768 22.136 279.952 22.048 280.072 21.984C280.192 21.92 280.288 21.888 280.36 21.888C280.496 21.888 280.612 21.928 280.708 22.008C280.804 22.08 280.852 22.18 280.852 22.308C280.852 22.42 280.804 22.516 280.708 22.596C280.62 22.676 280.536 22.74 280.456 22.788C280.296 22.876 280.076 22.972 279.796 23.076C279.524 23.172 279.22 23.264 278.884 23.352C278.548 23.432 278.204 23.496 277.852 23.544C277.5 23.592 277.164 23.616 276.844 23.616C276.532 23.616 276.268 23.576 276.052 23.496C275.844 23.416 275.668 23.28 275.524 23.088C275.38 22.896 275.244 22.636 275.116 22.308L275.32 22.164ZM277.372 20.832V20.64C277.476 20.592 277.6 20.552 277.744 20.52C277.888 20.488 278.028 20.472 278.164 20.472C278.34 20.472 278.512 20.492 278.68 20.532C278.856 20.572 278.996 20.628 279.1 20.7C279.164 20.74 279.2 20.796 279.208 20.868C279.224 20.94 279.216 21.052 279.184 21.204C279.152 21.356 279.096 21.564 279.016 21.828C278.944 22.092 278.844 22.44 278.716 22.872C278.652 23.08 278.564 23.348 278.452 23.676C278.348 24.004 278.22 24.364 278.068 24.756C277.916 25.148 277.748 25.552 277.564 25.968C277.388 26.376 277.196 26.78 276.988 27.18C276.78 27.58 276.568 27.948 276.352 28.284C276.248 28.444 276.148 28.576 276.052 28.68C275.956 28.776 275.844 28.824 275.716 28.824C275.572 28.824 275.464 28.764 275.392 28.644C275.32 28.524 275.284 28.396 275.284 28.26C275.284 28.14 275.3 28.032 275.332 27.936C275.364 27.84 275.424 27.736 275.512 27.624C275.784 27.272 276.064 26.876 276.352 26.436C276.648 25.988 276.928 25.496 277.192 24.96C277.464 24.424 277.684 23.852 277.852 23.244C277.908 23.044 277.96 22.836 278.008 22.62C278.064 22.404 278.104 22.2 278.128 22.008C278.16 21.816 278.18 21.648 278.188 21.504C278.196 21.376 278.18 21.28 278.14 21.216C278.1 21.152 278.028 21.092 277.924 21.036C277.836 20.988 277.74 20.948 277.636 20.916C277.532 20.876 277.444 20.848 277.372 20.832ZM296.344 21.156C296.344 21.156 296.384 21.192 296.464 21.264C296.544 21.336 296.644 21.428 296.764 21.54C296.892 21.652 297.02 21.772 297.148 21.9C297.284 22.02 297.408 22.132 297.52 22.236C297.488 22.364 297.376 22.428 297.184 22.428H286.696L286.588 22.08H295.696L296.344 21.156ZM290.644 19.884C291.132 19.964 291.524 20.084 291.82 20.244C292.124 20.404 292.344 20.58 292.48 20.772C292.616 20.956 292.692 21.136 292.708 21.312C292.732 21.488 292.704 21.636 292.624 21.756C292.544 21.876 292.432 21.952 292.288 21.984C292.144 22.008 291.984 21.964 291.808 21.852C291.76 21.628 291.668 21.4 291.532 21.168C291.396 20.936 291.236 20.716 291.052 20.508C290.876 20.3 290.7 20.12 290.524 19.968L290.644 19.884ZM293.32 22.812C294.024 23.004 294.604 23.224 295.06 23.472C295.524 23.712 295.88 23.964 296.128 24.228C296.384 24.484 296.556 24.728 296.644 24.96C296.732 25.192 296.752 25.392 296.704 25.56C296.664 25.72 296.572 25.824 296.428 25.872C296.284 25.92 296.112 25.892 295.912 25.788C295.8 25.548 295.644 25.296 295.444 25.032C295.244 24.768 295.016 24.508 294.76 24.252C294.512 23.996 294.252 23.756 293.98 23.532C293.716 23.3 293.46 23.1 293.212 22.932L293.32 22.812ZM289.84 24.876C290.144 25.596 290.556 26.24 291.076 26.808C291.604 27.368 292.212 27.86 292.9 28.284C293.588 28.7 294.336 29.048 295.144 29.328C295.96 29.608 296.808 29.824 297.688 29.976L297.664 30.12C297.44 30.16 297.248 30.252 297.088 30.396C296.928 30.54 296.812 30.732 296.74 30.972C295.604 30.668 294.572 30.26 293.644 29.748C292.716 29.228 291.912 28.58 291.232 27.804C290.552 27.02 290.024 26.088 289.648 25.008L289.84 24.876ZM291.028 23.328C290.996 23.384 290.948 23.428 290.884 23.46C290.82 23.484 290.72 23.488 290.584 23.472C290.344 23.792 290.044 24.12 289.684 24.456C289.324 24.792 288.92 25.112 288.472 25.416C288.032 25.712 287.56 25.964 287.056 26.172L286.948 26.016C287.348 25.728 287.724 25.396 288.076 25.02C288.436 24.636 288.756 24.24 289.036 23.832C289.316 23.416 289.536 23.028 289.696 22.668L291.028 23.328ZM295.084 25.248C295.052 25.312 295 25.36 294.928 25.392C294.856 25.424 294.744 25.428 294.592 25.404C294.192 26.284 293.628 27.1 292.9 27.852C292.18 28.596 291.292 29.24 290.236 29.784C289.18 30.32 287.94 30.716 286.516 30.972L286.444 30.792C287.724 30.432 288.848 29.952 289.816 29.352C290.784 28.744 291.592 28.044 292.24 27.252C292.888 26.452 293.384 25.592 293.728 24.672L295.084 25.248ZM300.808 28.044C301.104 28.54 301.456 28.908 301.864 29.148C302.28 29.388 302.788 29.548 303.388 29.628C303.988 29.7 304.704 29.736 305.536 29.736C305.768 29.736 306.064 29.736 306.424 29.736C306.792 29.736 307.18 29.736 307.588 29.736C307.996 29.736 308.384 29.736 308.752 29.736C309.128 29.728 309.44 29.72 309.688 29.712V29.868C309.496 29.908 309.352 30.004 309.256 30.156C309.16 30.308 309.108 30.488 309.1 30.696C308.908 30.696 308.652 30.696 308.332 30.696C308.02 30.696 307.684 30.696 307.324 30.696C306.972 30.696 306.632 30.696 306.304 30.696C305.984 30.696 305.716 30.696 305.5 30.696C304.628 30.696 303.884 30.628 303.268 30.492C302.66 30.356 302.148 30.104 301.732 29.736C301.316 29.36 300.96 28.828 300.664 28.14L300.808 28.044ZM301.732 23.34C301.62 23.508 301.48 23.712 301.312 23.952C301.152 24.184 300.976 24.432 300.784 24.696C300.6 24.952 300.416 25.2 300.232 25.44C300.048 25.68 299.888 25.888 299.752 26.064H299.848L299.476 26.376L298.72 25.704C298.8 25.656 298.904 25.608 299.032 25.56C299.168 25.512 299.288 25.484 299.392 25.476L298.972 25.788C299.116 25.62 299.28 25.416 299.464 25.176C299.656 24.928 299.844 24.668 300.028 24.396C300.22 24.116 300.4 23.852 300.568 23.604C300.736 23.356 300.872 23.136 300.976 22.944L301.732 23.34ZM300.82 22.98L301.312 22.476L302.332 23.376C302.276 23.44 302.18 23.488 302.044 23.52C301.908 23.544 301.756 23.56 301.588 23.568C301.428 23.568 301.264 23.556 301.096 23.532L300.964 22.98H300.82ZM301.012 25.764L301.576 25.224L302.524 26.064C302.452 26.16 302.296 26.212 302.056 26.22C301.872 26.82 301.624 27.416 301.312 28.008C301.008 28.592 300.62 29.14 300.148 29.652C299.676 30.164 299.116 30.608 298.468 30.984L298.348 30.828C298.852 30.412 299.288 29.928 299.656 29.376C300.024 28.816 300.332 28.228 300.58 27.612C300.828 26.996 301.012 26.38 301.132 25.764H301.012ZM301.216 22.98V23.328H298.684L298.576 22.98H301.216ZM301.732 25.764V26.124H299.464L299.608 25.764H301.732ZM299.332 19.908C299.812 20.012 300.196 20.148 300.484 20.316C300.78 20.484 301 20.664 301.144 20.856C301.296 21.04 301.384 21.216 301.408 21.384C301.44 21.552 301.42 21.696 301.348 21.816C301.276 21.928 301.176 22 301.048 22.032C300.92 22.064 300.776 22.032 300.616 21.936C300.552 21.712 300.444 21.48 300.292 21.24C300.14 21 299.968 20.772 299.776 20.556C299.584 20.34 299.396 20.156 299.212 20.004L299.332 19.908ZM307.756 22.944L308.2 22.404L309.268 23.22C309.236 23.268 309.172 23.316 309.076 23.364C308.988 23.404 308.884 23.432 308.764 23.448V28.104C308.764 28.32 308.736 28.508 308.68 28.668C308.632 28.82 308.524 28.944 308.356 29.04C308.196 29.136 307.944 29.2 307.6 29.232C307.592 29.112 307.572 29 307.54 28.896C307.516 28.792 307.476 28.708 307.42 28.644C307.364 28.588 307.276 28.536 307.156 28.488C307.044 28.432 306.888 28.392 306.688 28.368V28.176C306.688 28.176 306.728 28.18 306.808 28.188C306.888 28.196 306.984 28.204 307.096 28.212C307.208 28.22 307.316 28.228 307.42 28.236C307.532 28.244 307.612 28.248 307.66 28.248C307.748 28.248 307.804 28.232 307.828 28.2C307.86 28.16 307.876 28.1 307.876 28.02V22.944H307.756ZM304.096 21.18C304.608 21.292 305.02 21.42 305.332 21.564C305.644 21.708 305.88 21.856 306.04 22.008C306.208 22.16 306.312 22.308 306.352 22.452C306.4 22.588 306.4 22.712 306.352 22.824C306.312 22.928 306.244 23.008 306.148 23.064C306.06 23.12 305.96 23.14 305.848 23.124C305.736 23.1 305.632 23.028 305.536 22.908C305.432 22.66 305.252 22.4 304.996 22.128C304.74 21.856 304.408 21.596 304 21.348L304.096 21.18ZM307.312 20.496L307.888 19.956L308.86 20.88C308.812 20.92 308.748 20.948 308.668 20.964C308.596 20.972 308.496 20.98 308.368 20.988C308.168 21.148 307.92 21.316 307.624 21.492C307.336 21.668 307.032 21.836 306.712 21.996C306.4 22.156 306.112 22.296 305.848 22.416L305.716 22.308C305.9 22.148 306.104 21.96 306.328 21.744C306.56 21.52 306.776 21.296 306.976 21.072C307.184 20.848 307.344 20.656 307.456 20.496H307.312ZM307.72 20.496V20.844H302.8L302.692 20.496H307.72ZM306.256 28.764C306.256 28.788 306.192 28.836 306.064 28.908C305.936 28.972 305.764 29.004 305.548 29.004H305.416V22.944H306.256V28.764ZM308.236 26.4V26.748H303.328V26.4H308.236ZM308.236 24.612V24.972H303.328V24.612H308.236ZM303.76 28.908C303.76 28.94 303.724 28.984 303.652 29.04C303.58 29.088 303.488 29.132 303.376 29.172C303.264 29.212 303.14 29.232 303.004 29.232H302.86V22.944V22.512L303.82 22.944H308.308V23.292H303.76V28.908Z" fill="white"/>
</svg>
