<svg width="1240" height="116" viewBox="0 0 1240 116" fill="none" xmlns="http://www.w3.org/2000/svg">
<path d="M36.912 28.992C36.816 29.28 36.624 29.52 36.336 29.712C36.048 29.872 35.632 29.936 35.088 29.904C34.288 30.576 33.28 31.312 32.064 32.112C30.88 32.912 29.744 33.632 28.656 34.272H27.936C28.32 33.28 28.704 32.112 29.088 30.768C29.504 29.392 29.84 28.176 30.096 27.12L36.912 28.992ZM36.864 8.88C36.64 9.552 36.032 9.872 35.04 9.84C34.176 10.576 33.104 11.36 31.824 12.192C30.544 13.024 29.312 13.776 28.128 14.448H27.408C27.824 13.456 28.24 12.272 28.656 10.896C29.104 9.52 29.44 8.288 29.664 7.2L36.864 8.88ZM12.864 27.216C14.848 27.344 16.368 27.664 17.424 28.176C18.48 28.688 19.168 29.28 19.488 29.952C19.84 30.592 19.92 31.216 19.728 31.824C19.536 32.432 19.152 32.944 18.576 33.36C18 33.744 17.328 33.92 16.56 33.888C15.824 33.824 15.072 33.472 14.304 32.832C14.368 31.872 14.208 30.896 13.824 29.904C13.472 28.912 13.04 28.096 12.528 27.456L12.864 27.216ZM12.672 7.344C14.624 7.504 16.144 7.856 17.232 8.4C18.352 8.912 19.104 9.504 19.488 10.176C19.904 10.848 20.048 11.504 19.92 12.144C19.792 12.784 19.472 13.328 18.96 13.776C18.448 14.192 17.824 14.416 17.088 14.448C16.352 14.448 15.6 14.16 14.832 13.584C14.736 12.528 14.432 11.456 13.92 10.368C13.408 9.248 12.864 8.32 12.288 7.584L12.672 7.344ZM37.584 16.608C37.584 16.608 37.856 16.832 38.4 17.28C38.976 17.696 39.664 18.224 40.464 18.864C41.264 19.472 41.984 20.064 42.624 20.64C42.496 21.152 42.064 21.408 41.328 21.408H6.912L6.528 20.016H34.848L37.584 16.608ZM41.328 30C41.328 30 41.616 30.24 42.192 30.72C42.8 31.168 43.504 31.712 44.304 32.352C45.136 32.992 45.872 33.616 46.512 34.224C46.384 34.736 45.936 34.992 45.168 34.992H1.92L1.536 33.6H38.496L41.328 30ZM40.128 22.464C40.128 22.464 40.416 22.688 40.992 23.136C41.6 23.584 42.304 24.128 43.104 24.768C43.904 25.408 44.624 26.032 45.264 26.64C45.136 27.152 44.688 27.408 43.92 27.408H3.648L3.264 26.016H37.296L40.128 22.464ZM39.216 10.752C39.216 10.752 39.504 10.96 40.08 11.376C40.656 11.792 41.344 12.304 42.144 12.912C42.944 13.488 43.664 14.064 44.304 14.64C44.176 15.152 43.744 15.408 43.008 15.408H4.752L4.368 14.064H36.48L39.216 10.752ZM26.736 14.064V26.976H21.168V14.064H26.736ZM36.72 47.568V48.96H11.808V47.568H36.72ZM33.12 38.928L35.712 36.096L41.232 40.224C41.104 40.384 40.88 40.56 40.56 40.752C40.24 40.944 39.84 41.088 39.36 41.184V50.64C39.36 50.736 39.088 50.88 38.544 51.072C38 51.296 37.36 51.488 36.624 51.648C35.888 51.84 35.216 51.936 34.608 51.936H33.6V38.928H33.12ZM14.688 50.448C14.688 50.608 14.448 50.816 13.968 51.072C13.488 51.36 12.88 51.616 12.144 51.84C11.408 52.064 10.64 52.176 9.84 52.176H9.072V38.928V36.576L15.072 38.928H36.576V40.32H14.688V50.448ZM67.536 18.864V20.208H55.68L55.248 18.864H67.536ZM80.832 15.408C80.8 15.632 80.688 15.84 80.496 16.032C80.336 16.192 80.016 16.304 79.536 16.368V22.704C79.536 22.8 79.312 22.928 78.864 23.088C78.448 23.216 77.92 23.344 77.28 23.472C76.672 23.568 76.064 23.616 75.456 23.616H74.352V14.784L80.832 15.408ZM70.464 15.312C70.432 15.568 70.32 15.792 70.128 15.984C69.968 16.144 69.664 16.256 69.216 16.32V22.848C69.216 22.912 69.008 23.008 68.592 23.136C68.176 23.232 67.664 23.328 67.056 23.424C66.448 23.52 65.84 23.568 65.232 23.568H64.128V14.736L70.464 15.312ZM85.968 15.984C85.968 15.984 86.224 16.192 86.736 16.608C87.248 16.992 87.856 17.472 88.56 18.048C89.264 18.624 89.888 19.184 90.432 19.728C90.304 20.24 89.888 20.496 89.184 20.496H77.568L77.184 19.104H83.52L85.968 15.984ZM79.92 41.52C81.584 41.36 82.912 41.408 83.904 41.664C84.896 41.92 85.632 42.288 86.112 42.768C86.624 43.248 86.896 43.76 86.928 44.304C86.96 44.816 86.816 45.296 86.496 45.744C86.176 46.16 85.744 46.448 85.2 46.608C84.688 46.736 84.08 46.64 83.376 46.32C83.088 45.488 82.56 44.672 81.792 43.872C81.056 43.04 80.304 42.384 79.536 41.904L79.92 41.52ZM70.272 38.88C69.984 40.48 69.536 41.968 68.928 43.344C68.32 44.72 67.36 46 66.048 47.184C64.736 48.336 62.88 49.36 60.48 50.256C58.08 51.184 54.912 51.968 50.976 52.608L50.592 51.936C53.504 51.072 55.856 50.144 57.648 49.152C59.44 48.16 60.816 47.104 61.776 45.984C62.768 44.864 63.472 43.712 63.888 42.528C64.304 41.344 64.592 40.128 64.752 38.88H70.272ZM77.952 38.832C77.952 39.088 77.952 39.36 77.952 39.648C77.952 39.904 77.952 40.144 77.952 40.368V46.224C77.952 46.544 78.032 46.752 78.192 46.848C78.384 46.944 78.848 46.992 79.584 46.992H84.096C84.864 46.992 85.584 46.992 86.256 46.992C86.928 46.992 87.424 46.976 87.744 46.944C88.096 46.912 88.352 46.864 88.512 46.8C88.672 46.704 88.832 46.544 88.992 46.32C89.248 45.968 89.552 45.376 89.904 44.544C90.256 43.68 90.64 42.64 91.056 41.424H91.584L91.728 46.512C92.464 46.768 92.96 47.056 93.216 47.376C93.472 47.696 93.6 48.064 93.6 48.48C93.6 49.12 93.328 49.632 92.784 50.016C92.272 50.4 91.28 50.656 89.808 50.784C88.368 50.944 86.256 51.024 83.472 51.024H78.384C76.752 51.024 75.52 50.896 74.688 50.64C73.856 50.416 73.28 50 72.96 49.392C72.672 48.784 72.528 47.952 72.528 46.896V38.832H77.952ZM62.208 40.848C62.208 40.976 61.984 41.184 61.536 41.472C61.088 41.76 60.496 42.016 59.76 42.24C59.056 42.432 58.32 42.528 57.552 42.528H56.784V24.336V22.08L62.592 24.336H84.144V25.728H62.208V40.848ZM80.496 24.336L83.04 21.648L88.224 25.584C88.096 25.744 87.888 25.92 87.6 26.112C87.312 26.272 86.944 26.384 86.496 26.448V39.648C86.496 39.744 86.24 39.904 85.728 40.128C85.216 40.32 84.608 40.512 83.904 40.704C83.2 40.896 82.544 40.992 81.936 40.992H80.976V24.336H80.496ZM83.904 29.088V30.48H59.04V29.088H83.904ZM83.616 33.744V35.136H58.8V33.744H83.616ZM83.568 38.304V39.696H58.704V38.304H83.568ZM68.256 6.912C70.176 6.944 71.648 7.168 72.672 7.584C73.728 8 74.432 8.512 74.784 9.12C75.136 9.728 75.216 10.32 75.024 10.896C74.832 11.472 74.464 11.952 73.92 12.336C73.376 12.72 72.72 12.912 71.952 12.912C71.216 12.912 70.48 12.624 69.744 12.048C69.712 11.152 69.504 10.256 69.12 9.36C68.736 8.464 68.32 7.728 67.872 7.152L68.256 6.912ZM87.504 12.72L90.048 10.08L94.656 14.448C94.496 14.64 94.272 14.768 93.984 14.832C93.728 14.896 93.344 14.944 92.832 14.976C92.224 15.488 91.44 16.032 90.48 16.608C89.52 17.152 88.624 17.6 87.792 17.952L87.312 17.664C87.44 16.96 87.584 16.128 87.744 15.168C87.904 14.176 88 13.36 88.032 12.72H87.504ZM55.488 10.176C56.128 11.744 56.448 13.168 56.448 14.448C56.48 15.696 56.272 16.736 55.824 17.568C55.376 18.4 54.8 18.992 54.096 19.344C53.616 19.6 53.088 19.712 52.512 19.68C51.936 19.648 51.408 19.488 50.928 19.2C50.48 18.88 50.16 18.432 49.968 17.856C49.776 16.992 49.888 16.256 50.304 15.648C50.752 15.04 51.344 14.592 52.08 14.304C52.784 13.984 53.44 13.44 54.048 12.672C54.656 11.872 54.912 11.056 54.816 10.224L55.488 10.176ZM89.616 12.72V14.064H55.536V12.72H89.616ZM114.576 43.92C113.392 44.816 111.952 45.728 110.256 46.656C108.592 47.584 106.768 48.432 104.784 49.2C102.832 49.968 100.8 50.592 98.688 51.072L98.4 50.592C99.584 49.92 100.752 49.12 101.904 48.192C103.088 47.264 104.208 46.272 105.264 45.216C106.32 44.16 107.264 43.12 108.096 42.096C108.928 41.04 109.584 40.096 110.064 39.264L117.12 43.056C116.96 43.344 116.688 43.568 116.304 43.728C115.92 43.888 115.344 43.952 114.576 43.92ZM124.896 40.464C128.064 40.592 130.704 40.976 132.816 41.616C134.96 42.224 136.64 42.96 137.856 43.824C139.104 44.688 139.952 45.584 140.4 46.512C140.88 47.408 141.04 48.224 140.88 48.96C140.72 49.696 140.32 50.224 139.68 50.544C139.04 50.896 138.208 50.944 137.184 50.688C136.512 49.856 135.664 48.976 134.64 48.048C133.616 47.152 132.528 46.272 131.376 45.408C130.224 44.512 129.056 43.68 127.872 42.912C126.688 42.144 125.584 41.472 124.56 40.896L124.896 40.464ZM124.896 34.032C124.864 34.352 124.72 34.64 124.464 34.896C124.208 35.12 123.76 35.28 123.12 35.376V51.072C123.12 51.2 122.864 51.376 122.352 51.6C121.872 51.824 121.248 52.016 120.48 52.176C119.744 52.368 118.976 52.464 118.176 52.464H117.168V33.36L124.896 34.032ZM136.464 33.456C136.464 33.456 136.656 33.6 137.04 33.888C137.424 34.176 137.904 34.544 138.48 34.992C139.088 35.44 139.712 35.92 140.352 36.432C140.992 36.944 141.568 37.424 142.08 37.872C142.048 38.128 141.904 38.32 141.648 38.448C141.424 38.576 141.136 38.64 140.784 38.64H99.264L98.88 37.296H133.44L136.464 33.456ZM117.072 7.104C119.184 7.296 120.816 7.68 121.968 8.256C123.152 8.832 123.968 9.488 124.416 10.224C124.864 10.96 125.024 11.68 124.896 12.384C124.768 13.088 124.432 13.68 123.888 14.16C123.376 14.608 122.72 14.848 121.92 14.88C121.152 14.88 120.368 14.576 119.568 13.968C119.44 12.784 119.088 11.6 118.512 10.416C117.968 9.2 117.376 8.192 116.736 7.392L117.072 7.104ZM115.344 10.224C115.216 10.48 114.992 10.688 114.672 10.848C114.352 11.008 113.904 11.056 113.328 10.992C111.376 13.968 109.184 16.592 106.752 18.864C104.32 21.136 101.808 23.008 99.216 24.48L98.688 24.048C99.84 22.736 100.992 21.168 102.144 19.344C103.296 17.52 104.4 15.568 105.456 13.488C106.512 11.376 107.424 9.232 108.192 7.056L115.344 10.224ZM110.352 34.08C110.352 34.208 110.16 34.416 109.776 34.704C109.424 34.96 108.912 35.2 108.24 35.424C107.568 35.648 106.752 35.76 105.792 35.76H104.784V16.176L107.088 12.96L110.976 14.448H110.352V34.08ZM124.656 14.496V31.824H118.896V14.496H124.656ZM132.816 21.984C132.816 21.984 133.088 22.208 133.632 22.656C134.208 23.072 134.88 23.6 135.648 24.24C136.448 24.88 137.152 25.488 137.76 26.064C137.632 26.576 137.2 26.832 136.464 26.832H108.576V25.44H130.128L132.816 21.984ZM132.864 16.416C132.864 16.416 133.136 16.64 133.68 17.088C134.256 17.504 134.928 18.032 135.696 18.672C136.496 19.312 137.2 19.92 137.808 20.496C137.68 21.008 137.248 21.264 136.512 21.264H108.576V19.872H130.176L132.864 16.416ZM134.736 27.408C134.736 27.408 134.912 27.552 135.264 27.84C135.616 28.128 136.064 28.496 136.608 28.944C137.184 29.392 137.776 29.872 138.384 30.384C139.024 30.896 139.6 31.392 140.112 31.872C140.08 32.128 139.936 32.32 139.68 32.448C139.424 32.576 139.12 32.64 138.768 32.64H108.576V31.248H131.76L134.736 27.408ZM133.968 10.704C133.968 10.704 134.128 10.848 134.448 11.136C134.8 11.392 135.248 11.744 135.792 12.192C136.336 12.64 136.896 13.12 137.472 13.632C138.08 14.112 138.624 14.576 139.104 15.024C139.008 15.536 138.56 15.792 137.76 15.792H108.72V14.448H131.088L133.968 10.704ZM154.224 16.368H175.2L177.456 13.536C177.456 13.536 177.68 13.728 178.128 14.112C178.608 14.464 179.168 14.912 179.808 15.456C180.448 15.968 181.04 16.464 181.584 16.944C181.456 17.456 181.024 17.712 180.288 17.712H154.608L154.224 16.368ZM153.552 37.104H176.16L178.32 34.32C178.32 34.32 178.544 34.512 178.992 34.896C179.472 35.248 180.016 35.68 180.624 36.192C181.264 36.704 181.84 37.2 182.352 37.68C182.224 38.192 181.824 38.448 181.152 38.448H153.936L153.552 37.104ZM174.192 20.208H173.808L175.824 18.144L180.096 21.264C179.968 21.424 179.776 21.568 179.52 21.696C179.296 21.824 179.008 21.92 178.656 21.984V28.848C178.656 28.976 178.448 29.136 178.032 29.328C177.616 29.52 177.12 29.696 176.544 29.856C176 29.984 175.472 30.048 174.96 30.048H174.192V20.208ZM157.008 20.208V18.336L161.664 20.208H176.352V21.552H161.424V29.568C161.424 29.696 161.232 29.872 160.848 30.096C160.464 30.288 159.984 30.48 159.408 30.672C158.832 30.832 158.24 30.912 157.632 30.912H157.008V20.208ZM169.92 34.032L176.16 34.608C176.032 35.248 175.488 35.632 174.528 35.76V41.616C174.528 42.672 174.4 43.552 174.144 44.256C173.92 44.96 173.392 45.52 172.56 45.936C171.76 46.352 170.528 46.624 168.864 46.752C168.832 46.144 168.752 45.616 168.624 45.168C168.528 44.688 168.352 44.304 168.096 44.016C167.84 43.76 167.488 43.52 167.04 43.296C166.592 43.04 165.92 42.864 165.024 42.768V42.096C165.024 42.096 165.2 42.112 165.552 42.144C165.904 42.144 166.32 42.16 166.8 42.192C167.312 42.224 167.792 42.256 168.24 42.288C168.688 42.288 169.008 42.288 169.2 42.288C169.488 42.288 169.68 42.24 169.776 42.144C169.872 42.016 169.92 41.84 169.92 41.616V34.032ZM158.4 38.064C160.032 38.16 161.296 38.432 162.192 38.88C163.12 39.296 163.744 39.776 164.064 40.32C164.416 40.864 164.544 41.408 164.448 41.952C164.384 42.464 164.144 42.896 163.728 43.248C163.312 43.6 162.816 43.792 162.24 43.824C161.664 43.856 161.056 43.632 160.416 43.152C160.352 42.288 160.064 41.424 159.552 40.56C159.072 39.664 158.544 38.928 157.968 38.352L158.4 38.064ZM159.168 24.048H176.64V25.392H159.168V24.048ZM159.168 27.936H176.64V29.328H159.168V27.936ZM165.456 12.816L171.456 13.392C171.424 13.68 171.312 13.92 171.12 14.112C170.928 14.304 170.576 14.448 170.064 14.544V33.024H165.456V12.816ZM154.176 31.728C155.648 31.76 157.584 31.776 159.984 31.776C162.384 31.776 165.104 31.76 168.144 31.728C171.184 31.664 174.32 31.616 177.552 31.584V32.4C175.44 32.752 172.768 33.136 169.536 33.552C166.304 33.936 162.384 34.384 157.776 34.896C157.648 35.216 157.472 35.456 157.248 35.616C157.024 35.744 156.8 35.84 156.576 35.904L154.176 31.728ZM172.128 29.664C174.464 29.728 176.272 29.952 177.552 30.336C178.832 30.688 179.712 31.12 180.192 31.632C180.704 32.144 180.896 32.656 180.768 33.168C180.672 33.648 180.384 34.048 179.904 34.368C179.456 34.656 178.928 34.8 178.32 34.8C177.712 34.8 177.168 34.528 176.688 33.984C176.304 33.344 175.712 32.704 174.912 32.064C174.144 31.392 173.12 30.832 171.84 30.384L172.128 29.664ZM151.056 47.808H185.28V49.152H151.056V47.808ZM182.784 10.464H182.304L184.944 7.536L190.128 11.664C189.744 12.144 189.088 12.496 188.16 12.72V50.016C188.128 50.144 187.856 50.352 187.344 50.64C186.864 50.928 186.288 51.184 185.616 51.408C184.944 51.632 184.272 51.744 183.6 51.744H182.784V10.464ZM147.792 10.464V8.064L153.504 10.464H184.848V11.808H153.072V50.304C153.072 50.528 152.864 50.8 152.448 51.12C152.032 51.44 151.488 51.712 150.816 51.936C150.176 52.192 149.472 52.32 148.704 52.32H147.792V10.464Z" fill="#F3D7A3"/>
<path d="M12.896 82.9485L18.176 83.4285C18.1547 83.6631 18.0587 83.8658 17.888 84.0365C17.7387 84.1858 17.4507 84.2925 17.024 84.3565V110.404H12.896V82.9485ZM15.2 95.0445H22.272L24.544 92.1005C24.544 92.1005 24.6827 92.2178 24.96 92.4525C25.2587 92.6658 25.6213 92.9431 26.048 93.2845C26.4747 93.6045 26.9227 93.9565 27.392 94.3405C27.8613 94.7245 28.288 95.0871 28.672 95.4285C28.5867 95.7698 28.288 95.9405 27.776 95.9405H15.2V95.0445ZM0.96 109.892H24.512L26.848 106.948C26.848 106.948 26.9867 107.055 27.264 107.268C27.5413 107.482 27.904 107.77 28.352 108.132C28.8 108.474 29.2587 108.836 29.728 109.22C30.2187 109.604 30.6667 109.967 31.072 110.308C30.9867 110.65 30.6773 110.82 30.144 110.82H1.248L0.96 109.892ZM56.608 96.9965C56.544 97.1885 56.416 97.3485 56.224 97.4765C56.032 97.5831 55.7547 97.6258 55.392 97.6045C54.8587 98.0525 54.1867 98.5431 53.376 99.0765C52.5867 99.6098 51.8293 100.09 51.104 100.516H50.624C50.88 99.8551 51.136 99.0765 51.392 98.1805C51.6693 97.2631 51.8933 96.4525 52.064 95.7485L56.608 96.9965ZM56.576 83.5885C56.4267 84.0365 56.0213 84.2498 55.36 84.2285C54.784 84.7191 54.0693 85.2418 53.216 85.7965C52.3627 86.3511 51.5413 86.8525 50.752 87.3005H50.272C50.5493 86.6391 50.8267 85.8498 51.104 84.9325C51.4027 84.0151 51.6267 83.1938 51.776 82.4685L56.576 83.5885ZM40.576 95.8125C41.8987 95.8978 42.912 96.1111 43.616 96.4525C44.32 96.7938 44.7787 97.1885 44.992 97.6365C45.2267 98.0631 45.28 98.4791 45.152 98.8845C45.024 99.2898 44.768 99.6311 44.384 99.9085C44 100.164 43.552 100.282 43.04 100.26C42.5493 100.218 42.048 99.9831 41.536 99.5565C41.5787 98.9165 41.472 98.2658 41.216 97.6045C40.9813 96.9431 40.6933 96.3991 40.352 95.9725L40.576 95.8125ZM40.448 82.5645C41.7493 82.6711 42.7627 82.9058 43.488 83.2685C44.2347 83.6098 44.736 84.0045 44.992 84.4525C45.2693 84.9005 45.3653 85.3378 45.28 85.7645C45.1947 86.1911 44.9813 86.5538 44.64 86.8525C44.2987 87.1298 43.8827 87.2791 43.392 87.3005C42.9013 87.3005 42.4 87.1085 41.888 86.7245C41.824 86.0205 41.6213 85.3058 41.28 84.5805C40.9387 83.8338 40.576 83.2151 40.192 82.7245L40.448 82.5645ZM57.056 88.7405C57.056 88.7405 57.2373 88.8898 57.6 89.1885C57.984 89.4658 58.4427 89.8178 58.976 90.2445C59.5093 90.6498 59.9893 91.0445 60.416 91.4285C60.3307 91.7698 60.0427 91.9405 59.552 91.9405H36.608L36.352 91.0125H55.232L57.056 88.7405ZM59.552 97.6685C59.552 97.6685 59.744 97.8285 60.128 98.1485C60.5333 98.4471 61.0027 98.8098 61.536 99.2365C62.0907 99.6631 62.5813 100.079 63.008 100.484C62.9227 100.826 62.624 100.996 62.112 100.996H33.28L33.024 100.068H57.664L59.552 97.6685ZM58.752 92.6445C58.752 92.6445 58.944 92.7938 59.328 93.0925C59.7333 93.3911 60.2027 93.7538 60.736 94.1805C61.2693 94.6071 61.7493 95.0231 62.176 95.4285C62.0907 95.7698 61.792 95.9405 61.28 95.9405H34.432L34.176 95.0125H56.864L58.752 92.6445ZM58.144 84.8365C58.144 84.8365 58.336 84.9751 58.72 85.2525C59.104 85.5298 59.5627 85.8711 60.096 86.2765C60.6293 86.6605 61.1093 87.0445 61.536 87.4285C61.4507 87.7698 61.1627 87.9405 60.672 87.9405H35.168L34.912 87.0445H56.32L58.144 84.8365ZM49.824 87.0445V95.6525H46.112V87.0445H49.824ZM56.48 109.38V110.308H39.872V109.38H56.48ZM54.08 103.62L55.808 101.732L59.488 104.484C59.4027 104.591 59.2533 104.708 59.04 104.836C58.8267 104.964 58.56 105.06 58.24 105.124V111.428C58.24 111.492 58.0587 111.588 57.696 111.716C57.3333 111.866 56.9067 111.994 56.416 112.1C55.9253 112.228 55.4773 112.292 55.072 112.292H54.4V103.62H54.08ZM41.792 111.3C41.792 111.407 41.632 111.546 41.312 111.716C40.992 111.908 40.5867 112.079 40.096 112.228C39.6053 112.378 39.0933 112.452 38.56 112.452H38.048V103.62V102.052L42.048 103.62H56.384V104.548H41.792V111.3ZM88.896 82.9805C88.8747 83.1511 88.8 83.2898 88.672 83.3965C88.5653 83.5031 88.3627 83.5778 88.064 83.6205V91.5885C88.064 91.6738 87.904 91.7911 87.584 91.9405C87.264 92.0685 86.8693 92.1858 86.4 92.2925C85.9307 92.3991 85.4827 92.4525 85.056 92.4525H84.32V82.5645L88.896 82.9805ZM75.712 82.9485C75.6907 83.1191 75.616 83.2578 75.488 83.3645C75.3813 83.4711 75.168 83.5458 74.848 83.5885V91.6525C74.848 91.7378 74.688 91.8551 74.368 92.0045C74.0693 92.1538 73.6853 92.2818 73.216 92.3885C72.768 92.4951 72.3093 92.5485 71.84 92.5485H71.168V82.5325L75.712 82.9485ZM92 84.2605C92 84.2605 92.1067 84.3671 92.32 84.5805C92.5547 84.7725 92.8533 85.0178 93.216 85.3165C93.5787 85.6151 93.9413 85.9458 94.304 86.3085C94.688 86.6498 95.04 86.9698 95.36 87.2685C95.2747 87.6098 94.9867 87.7805 94.496 87.7805H81.408L81.152 86.8845H90.08L92 84.2605ZM77.28 84.2605C77.28 84.2605 77.3973 84.3671 77.632 84.5805C77.8667 84.7725 78.1547 85.0178 78.496 85.3165C78.8587 85.6151 79.232 85.9458 79.616 86.3085C80 86.6498 80.352 86.9698 80.672 87.2685C80.5867 87.6098 80.2987 87.7805 79.808 87.7805H65.408L65.152 86.8845H75.424L77.28 84.2605ZM82.368 91.9725C82.2827 92.1431 82.144 92.2818 81.952 92.3885C81.7813 92.4738 81.4933 92.5058 81.088 92.4845C80.1493 94.2551 78.944 96.0365 77.472 97.8285C76 99.5991 74.24 101.242 72.192 102.756C70.1653 104.25 67.8187 105.476 65.152 106.436L64.928 106.116C67.04 104.772 68.9067 103.183 70.528 101.348C72.1493 99.5138 73.5253 97.5938 74.656 95.5885C75.7867 93.5618 76.6507 91.6205 77.248 89.7645L82.368 91.9725ZM75.968 111.46C75.968 111.546 75.84 111.674 75.584 111.844C75.328 112.036 74.9547 112.207 74.464 112.356C73.9947 112.527 73.4293 112.612 72.768 112.612H72.032V100.708L72.992 99.4605L76.384 100.708H75.968V111.46ZM90.624 92.5805C90.624 92.5805 90.7413 92.6765 90.976 92.8685C91.232 93.0605 91.552 93.3165 91.936 93.6365C92.32 93.9351 92.7147 94.2658 93.12 94.6285C93.5467 94.9698 93.9413 95.3005 94.304 95.6205C94.2827 95.7911 94.1867 95.9191 94.016 96.0045C93.8453 96.0898 93.6427 96.1325 93.408 96.1325H66.048L65.792 95.2045H88.576L90.624 92.5805ZM85.792 100.708L87.584 98.7565L91.328 101.604C91.2427 101.732 91.0827 101.86 90.848 101.988C90.6347 102.095 90.3573 102.191 90.016 102.276V111.428C90.016 111.492 89.8347 111.599 89.472 111.748C89.1093 111.898 88.672 112.036 88.16 112.164C87.6693 112.292 87.2107 112.356 86.784 112.356H86.112V100.708H85.792ZM88.416 100.708V101.636H73.792V100.708H88.416ZM88.416 108.964V109.892H73.536V108.964H88.416ZM113.888 83.9085V107.908C113.888 108.783 113.771 109.54 113.536 110.18C113.323 110.82 112.843 111.332 112.096 111.716C111.371 112.1 110.24 112.356 108.704 112.484C108.64 111.866 108.544 111.332 108.416 110.884C108.288 110.436 108.075 110.063 107.776 109.764C107.477 109.444 107.093 109.188 106.624 108.996C106.155 108.783 105.461 108.602 104.544 108.452V108.004C104.544 108.004 104.747 108.015 105.152 108.036C105.557 108.058 106.037 108.09 106.592 108.132C107.168 108.175 107.712 108.207 108.224 108.228C108.736 108.25 109.088 108.26 109.28 108.26C109.579 108.26 109.781 108.207 109.888 108.1C109.995 107.994 110.048 107.834 110.048 107.62V82.5325L115.008 83.0445C114.987 83.2578 114.901 83.4391 114.752 83.5885C114.603 83.7378 114.315 83.8445 113.888 83.9085ZM97.408 91.9085H106.56V92.8365H97.696L97.408 91.9085ZM105.024 91.9085H104.672L106.592 89.9245L109.984 92.8685C109.877 93.0178 109.728 93.1245 109.536 93.1885C109.365 93.2525 109.099 93.3058 108.736 93.3485C108.245 95.4391 107.531 97.4871 106.592 99.4925C105.653 101.498 104.405 103.354 102.848 105.06C101.291 106.767 99.328 108.239 96.96 109.476L96.672 109.124C98.3147 107.716 99.6907 106.074 100.8 104.196C101.931 102.319 102.837 100.335 103.52 98.2445C104.224 96.1325 104.725 94.0205 105.024 91.9085ZM113.888 87.1725C114.357 89.8605 115.04 92.2071 115.936 94.2125C116.853 96.2178 117.909 97.9458 119.104 99.3965C120.32 100.847 121.621 102.084 123.008 103.108C124.395 104.111 125.792 104.954 127.2 105.636L127.072 105.988C126.283 106.138 125.6 106.522 125.024 107.14C124.469 107.738 124.053 108.474 123.776 109.348C122.411 108.239 121.184 107.023 120.096 105.7C119.029 104.378 118.069 102.863 117.216 101.156C116.363 99.4285 115.637 97.4338 115.04 95.1725C114.443 92.9111 113.963 90.2978 113.6 87.3325L113.888 87.1725ZM122.08 87.9405L126.496 90.7565C126.389 90.9058 126.251 91.0231 126.08 91.1085C125.909 91.1725 125.621 91.1831 125.216 91.1405C124.512 91.7378 123.68 92.3991 122.72 93.1245C121.76 93.8498 120.736 94.5645 119.648 95.2685C118.56 95.9725 117.461 96.6231 116.352 97.2205L116.064 96.9005C116.811 96.0258 117.568 95.0445 118.336 93.9565C119.104 92.8685 119.819 91.7911 120.48 90.7245C121.141 89.6578 121.675 88.7298 122.08 87.9405ZM141.28 102.276L140.864 101.348C142.016 100.772 142.923 100.154 143.584 99.4925C144.267 98.8098 144.736 97.8711 144.992 96.6765L145.376 97.7965C143.968 97.2845 142.933 96.7298 142.272 96.1325C141.632 95.5351 141.312 94.8631 141.312 94.1165C141.312 93.3271 141.579 92.6765 142.112 92.1645C142.645 91.6311 143.317 91.3645 144.128 91.3645C144.619 91.3645 145.045 91.4285 145.408 91.5565C145.771 91.6631 146.133 91.8658 146.496 92.1645C146.688 92.6338 146.816 93.0498 146.88 93.4125C146.944 93.7538 146.976 94.1805 146.976 94.6925C146.976 96.6551 146.453 98.2871 145.408 99.5885C144.384 100.868 143.008 101.764 141.28 102.276ZM173.952 82.9165C175.808 83.5565 177.291 84.2818 178.4 85.0925C179.531 85.9031 180.352 86.7351 180.864 87.5885C181.397 88.4205 181.675 89.2098 181.696 89.9565C181.739 90.6818 181.6 91.2791 181.28 91.7485C180.96 92.2178 180.523 92.4845 179.968 92.5485C179.413 92.6125 178.816 92.3991 178.176 91.9085C177.984 90.9058 177.643 89.8818 177.152 88.8365C176.683 87.7911 176.139 86.7778 175.52 85.7965C174.901 84.8151 174.272 83.9298 173.632 83.1405L173.952 82.9165ZM173.856 88.7725C173.835 88.9858 173.739 89.1778 173.568 89.3485C173.397 89.4978 173.12 89.5938 172.736 89.6365V106.212C172.736 106.596 172.853 106.863 173.088 107.012C173.344 107.162 173.824 107.236 174.528 107.236H178.432C179.179 107.236 179.829 107.236 180.384 107.236C180.939 107.215 181.365 107.194 181.664 107.172C181.941 107.151 182.155 107.108 182.304 107.044C182.475 106.959 182.624 106.82 182.752 106.628C182.965 106.287 183.221 105.679 183.52 104.804C183.819 103.908 184.139 102.852 184.48 101.636H184.832L184.96 106.852C185.536 107.066 185.92 107.3 186.112 107.556C186.325 107.791 186.432 108.1 186.432 108.484C186.432 108.932 186.304 109.316 186.048 109.636C185.813 109.956 185.387 110.223 184.768 110.436C184.149 110.65 183.307 110.799 182.24 110.884C181.173 110.991 179.797 111.044 178.112 111.044H173.984C172.725 111.044 171.723 110.948 170.976 110.756C170.251 110.564 169.728 110.202 169.408 109.668C169.109 109.114 168.96 108.335 168.96 107.332V88.2925L173.856 88.7725ZM184 92.8045C185.664 93.8285 186.997 94.8525 188 95.8765C189.024 96.9005 189.781 97.9138 190.272 98.9165C190.784 99.8978 191.083 100.815 191.168 101.668C191.253 102.5 191.179 103.226 190.944 103.844C190.731 104.463 190.421 104.932 190.016 105.252C189.632 105.551 189.195 105.658 188.704 105.572C188.213 105.487 187.755 105.156 187.328 104.58C187.285 103.535 187.136 102.34 186.88 100.996C186.624 99.6525 186.24 98.2871 185.728 96.9005C185.237 95.4925 184.565 94.2125 183.712 93.0605L184 92.8045ZM165.344 92.1325C166.133 94.0525 166.592 95.7911 166.72 97.3485C166.848 98.8845 166.763 100.218 166.464 101.348C166.187 102.479 165.792 103.407 165.28 104.132C164.939 104.644 164.533 105.018 164.064 105.252C163.595 105.466 163.125 105.54 162.656 105.476C162.208 105.412 161.824 105.21 161.504 104.868C161.099 104.42 160.939 103.93 161.024 103.396C161.109 102.842 161.355 102.34 161.76 101.892C162.293 101.402 162.805 100.666 163.296 99.6845C163.787 98.6818 164.181 97.5405 164.48 96.2605C164.8 94.9591 164.939 93.5938 164.896 92.1645L165.344 92.1325ZM205.024 90.2445V91.1405H197.12L196.832 90.2445H205.024ZM213.888 87.9405C213.867 88.0898 213.792 88.2285 213.664 88.3565C213.557 88.4631 213.344 88.5378 213.024 88.5805V92.8045C213.024 92.8685 212.875 92.9538 212.576 93.0605C212.299 93.1458 211.947 93.2311 211.52 93.3165C211.115 93.3805 210.709 93.4125 210.304 93.4125H209.568V87.5245L213.888 87.9405ZM206.976 87.8765C206.955 88.0471 206.88 88.1965 206.752 88.3245C206.645 88.4311 206.443 88.5058 206.144 88.5485V92.9005C206.144 92.9431 206.005 93.0071 205.728 93.0925C205.451 93.1565 205.109 93.2205 204.704 93.2845C204.299 93.3485 203.893 93.3805 203.488 93.3805H202.752V87.4925L206.976 87.8765ZM217.312 88.3245C217.312 88.3245 217.483 88.4631 217.824 88.7405C218.165 88.9965 218.571 89.3165 219.04 89.7005C219.509 90.0845 219.925 90.4578 220.288 90.8205C220.203 91.1618 219.925 91.3325 219.456 91.3325H211.712L211.456 90.4045H215.68L217.312 88.3245ZM213.28 105.348C214.389 105.242 215.275 105.274 215.936 105.444C216.597 105.615 217.088 105.86 217.408 106.18C217.749 106.5 217.931 106.842 217.952 107.204C217.973 107.546 217.877 107.866 217.664 108.164C217.451 108.442 217.163 108.634 216.8 108.74C216.459 108.826 216.053 108.762 215.584 108.548C215.392 107.994 215.04 107.45 214.528 106.916C214.037 106.362 213.536 105.924 213.024 105.604L213.28 105.348ZM206.848 103.588C206.656 104.655 206.357 105.647 205.952 106.564C205.547 107.482 204.907 108.335 204.032 109.124C203.157 109.892 201.92 110.575 200.32 111.172C198.72 111.791 196.608 112.314 193.984 112.74L193.728 112.292C195.669 111.716 197.237 111.098 198.432 110.436C199.627 109.775 200.544 109.071 201.184 108.324C201.845 107.578 202.315 106.81 202.592 106.02C202.869 105.231 203.061 104.42 203.168 103.588H206.848ZM211.968 103.556C211.968 103.727 211.968 103.908 211.968 104.1C211.968 104.271 211.968 104.431 211.968 104.58V108.484C211.968 108.698 212.021 108.836 212.128 108.9C212.256 108.964 212.565 108.996 213.056 108.996H216.064C216.576 108.996 217.056 108.996 217.504 108.996C217.952 108.996 218.283 108.986 218.496 108.964C218.731 108.943 218.901 108.911 219.008 108.868C219.115 108.804 219.221 108.698 219.328 108.548C219.499 108.314 219.701 107.919 219.936 107.364C220.171 106.788 220.427 106.095 220.704 105.284H221.056L221.152 108.676C221.643 108.847 221.973 109.039 222.144 109.252C222.315 109.466 222.4 109.711 222.4 109.988C222.4 110.415 222.219 110.756 221.856 111.012C221.515 111.268 220.853 111.439 219.872 111.524C218.912 111.631 217.504 111.684 215.648 111.684H212.256C211.168 111.684 210.347 111.599 209.792 111.428C209.237 111.279 208.853 111.002 208.64 110.596C208.448 110.191 208.352 109.636 208.352 108.932V103.556H211.968ZM201.472 104.9C201.472 104.986 201.323 105.124 201.024 105.316C200.725 105.508 200.331 105.679 199.84 105.828C199.371 105.956 198.88 106.02 198.368 106.02H197.856V93.8925V92.3885L201.728 93.8925H216.096V94.8205H201.472V104.9ZM213.664 93.8925L215.36 92.1005L218.816 94.7245C218.731 94.8311 218.592 94.9485 218.4 95.0765C218.208 95.1831 217.963 95.2578 217.664 95.3005V104.1C217.664 104.164 217.493 104.271 217.152 104.42C216.811 104.548 216.405 104.676 215.936 104.804C215.467 104.932 215.029 104.996 214.624 104.996H213.984V93.8925H213.664ZM215.936 97.0605V97.9885H199.36V97.0605H215.936ZM215.744 100.164V101.092H199.2V100.164H215.744ZM215.712 103.204V104.132H199.136V103.204H215.712ZM205.504 82.2765C206.784 82.2978 207.765 82.4471 208.448 82.7245C209.152 83.0018 209.621 83.3431 209.856 83.7485C210.091 84.1538 210.144 84.5485 210.016 84.9325C209.888 85.3165 209.643 85.6365 209.28 85.8925C208.917 86.1485 208.48 86.2765 207.968 86.2765C207.477 86.2765 206.987 86.0845 206.496 85.7005C206.475 85.1031 206.336 84.5058 206.08 83.9085C205.824 83.3111 205.547 82.8205 205.248 82.4365L205.504 82.2765ZM218.336 86.1485L220.032 84.3885L223.104 87.3005C222.997 87.4285 222.848 87.5138 222.656 87.5565C222.485 87.5991 222.229 87.6311 221.888 87.6525C221.483 87.9938 220.96 88.3565 220.32 88.7405C219.68 89.1031 219.083 89.4018 218.528 89.6365L218.208 89.4445C218.293 88.9751 218.389 88.4205 218.496 87.7805C218.603 87.1191 218.667 86.5751 218.688 86.1485H218.336ZM196.992 84.4525C197.419 85.4978 197.632 86.4471 197.632 87.3005C197.653 88.1325 197.515 88.8258 197.216 89.3805C196.917 89.9351 196.533 90.3298 196.064 90.5645C195.744 90.7351 195.392 90.8098 195.008 90.7885C194.624 90.7671 194.272 90.6605 193.952 90.4685C193.653 90.2551 193.44 89.9565 193.312 89.5725C193.184 88.9965 193.259 88.5058 193.536 88.1005C193.835 87.6951 194.229 87.3965 194.72 87.2045C195.189 86.9911 195.627 86.6285 196.032 86.1165C196.437 85.5831 196.608 85.0391 196.544 84.4845L196.992 84.4525ZM219.744 86.1485V87.0445H197.024V86.1485H219.744ZM241.28 87.8125C241.728 90.3938 242.411 92.7831 243.328 94.9805C244.245 97.1565 245.333 99.1405 246.592 100.932C247.851 102.724 249.227 104.335 250.72 105.764C252.235 107.172 253.803 108.399 255.424 109.444L255.232 109.764C254.421 109.764 253.664 109.988 252.96 110.436C252.277 110.906 251.723 111.546 251.296 112.356C249.419 110.586 247.765 108.538 246.336 106.212C244.928 103.887 243.755 101.231 242.816 98.2445C241.877 95.2365 241.184 91.8338 240.736 88.0365L241.28 87.8125ZM249.312 88.8685L251.296 86.8205L254.72 89.9245C254.613 90.0951 254.464 90.2231 254.272 90.3085C254.08 90.3725 253.792 90.4365 253.408 90.5005C253.003 92.8898 252.437 95.1831 251.712 97.3805C250.987 99.5778 249.984 101.636 248.704 103.556C247.445 105.476 245.803 107.194 243.776 108.708C241.771 110.202 239.275 111.45 236.288 112.452L236 112.1C238.283 110.884 240.224 109.455 241.824 107.812C243.445 106.17 244.789 104.356 245.856 102.372C246.923 100.367 247.765 98.2338 248.384 95.9725C249.003 93.6898 249.451 91.3218 249.728 88.8685H249.312ZM251.36 88.8685V89.7965H243.712L243.424 88.8685H251.36ZM235.008 87.4605C234.923 87.6738 234.731 87.8338 234.432 87.9405C234.155 88.0471 233.739 88.0258 233.184 87.8765L234.24 87.6525C233.685 88.3778 232.981 89.1671 232.128 90.0205C231.296 90.8525 230.411 91.6525 229.472 92.4205C228.555 93.1671 227.691 93.7751 226.88 94.2445V93.8925H228.8C228.736 94.9805 228.544 95.8658 228.224 96.5485C227.925 97.2311 227.541 97.6685 227.072 97.8605L225.28 93.4125C225.28 93.4125 225.419 93.3805 225.696 93.3165C225.973 93.2525 226.187 93.1671 226.336 93.0605C226.699 92.7618 227.072 92.3138 227.456 91.7165C227.84 91.1191 228.213 90.4578 228.576 89.7325C228.939 89.0071 229.248 88.2925 229.504 87.5885C229.781 86.8845 229.984 86.2765 230.112 85.7645L235.008 87.4605ZM226.048 93.4445C226.752 93.4018 227.712 93.3165 228.928 93.1885C230.165 93.0391 231.541 92.8685 233.056 92.6765C234.592 92.4845 236.16 92.2818 237.76 92.0685L237.824 92.4525C236.779 92.9431 235.339 93.5938 233.504 94.4045C231.691 95.1938 229.653 96.0151 227.392 96.8685L226.048 93.4445ZM248.896 83.3325C248.853 83.5245 248.725 83.6951 248.512 83.8445C248.32 83.9725 248.043 84.0471 247.68 84.0685C247.168 86.3511 246.517 88.4951 245.728 90.5005C244.96 92.4845 244.075 94.3085 243.072 95.9725C242.069 97.6151 240.939 99.0765 239.68 100.356L239.264 100.1C239.989 98.5645 240.661 96.8365 241.28 94.9165C241.92 92.9751 242.464 90.9271 242.912 88.7725C243.381 86.5965 243.723 84.4205 243.936 82.2445L248.896 83.3325ZM224.864 107.684C225.739 107.578 226.997 107.407 228.64 107.172C230.283 106.938 232.139 106.65 234.208 106.308C236.277 105.967 238.411 105.604 240.608 105.22L240.672 105.604C239.307 106.33 237.568 107.162 235.456 108.1C233.365 109.039 230.795 110.116 227.744 111.332C227.552 111.759 227.253 112.026 226.848 112.132L224.864 107.684ZM234.592 89.0605C235.979 89.5938 237.067 90.1911 237.856 90.8525C238.667 91.5138 239.232 92.1751 239.552 92.8365C239.872 93.4978 240.011 94.1058 239.968 94.6605C239.925 95.2151 239.744 95.6631 239.424 96.0045C239.125 96.3245 238.741 96.4951 238.272 96.5165C237.824 96.5378 237.344 96.3245 236.832 95.8765C236.747 95.1298 236.565 94.3618 236.288 93.5725C236.032 92.7831 235.723 92.0151 235.36 91.2685C234.997 90.5005 234.635 89.8178 234.272 89.2205L234.592 89.0605ZM235.392 96.2285C235.349 96.4205 235.253 96.5911 235.104 96.7405C234.976 96.8898 234.709 96.9858 234.304 97.0285V107.396L230.528 108.228V95.8125L235.392 96.2285ZM236.832 98.4685C236.832 98.4685 237.013 98.6391 237.376 98.9805C237.739 99.3005 238.165 99.6951 238.656 100.164C239.147 100.612 239.573 101.028 239.936 101.412C239.851 101.754 239.563 101.924 239.072 101.924H226.048L225.792 101.028H235.104L236.832 98.4685ZM237.344 82.6285C237.344 82.6285 237.461 82.7351 237.696 82.9485C237.952 83.1405 238.272 83.3965 238.656 83.7165C239.04 84.0365 239.435 84.3778 239.84 84.7405C240.267 85.1031 240.651 85.4445 240.992 85.7645C240.907 86.1058 240.597 86.2765 240.064 86.2765H225.312L225.056 85.3805H235.296L237.344 82.6285ZM263.136 104.068C263.84 105.348 264.683 106.298 265.664 106.916C266.667 107.514 267.872 107.908 269.28 108.1C270.709 108.271 272.437 108.356 274.464 108.356C275.189 108.356 276.117 108.356 277.248 108.356C278.379 108.356 279.573 108.356 280.832 108.356C282.112 108.356 283.317 108.356 284.448 108.356C285.6 108.335 286.549 108.314 287.296 108.292V108.676C286.677 108.826 286.219 109.167 285.92 109.7C285.621 110.234 285.472 110.842 285.472 111.524C284.853 111.524 284.053 111.524 283.072 111.524C282.112 111.524 281.077 111.524 279.968 111.524C278.88 111.524 277.845 111.524 276.864 111.524C275.883 111.524 275.072 111.524 274.432 111.524C272.277 111.524 270.453 111.322 268.96 110.916C267.488 110.511 266.261 109.786 265.28 108.74C264.299 107.695 263.477 106.202 262.816 104.26L263.136 104.068ZM265.44 92.2605C265.227 92.6445 264.928 93.1351 264.544 93.7325C264.181 94.3085 263.787 94.9271 263.36 95.5885C262.955 96.2285 262.549 96.8471 262.144 97.4445C261.76 98.0205 261.408 98.5218 261.088 98.9485H261.312L260.224 99.9725L257.472 97.9565C257.685 97.7858 257.984 97.6258 258.368 97.4765C258.773 97.3271 259.136 97.2205 259.456 97.1565L258.176 98.0845C258.517 97.6578 258.891 97.1458 259.296 96.5485C259.723 95.9298 260.149 95.2791 260.576 94.5965C261.003 93.9138 261.397 93.2631 261.76 92.6445C262.123 92.0045 262.421 91.4605 262.656 91.0125L265.44 92.2605ZM262.4 91.0125L263.872 89.5085L266.848 92.1965C266.592 92.4738 266.091 92.6445 265.344 92.7085C264.619 92.7511 263.904 92.7191 263.2 92.6125L262.816 91.0125H262.4ZM262.912 98.1485L264.64 96.4205L267.648 99.0125C267.477 99.2471 267.072 99.3965 266.432 99.4605C265.984 101.103 265.355 102.724 264.544 104.324C263.733 105.924 262.709 107.439 261.472 108.868C260.235 110.298 258.741 111.546 256.992 112.612L256.672 112.26C257.867 111.044 258.901 109.658 259.776 108.1C260.672 106.543 261.408 104.911 261.984 103.204C262.56 101.476 262.976 99.7911 263.232 98.1485H262.912ZM263.392 91.0125V91.9405H257.664L257.376 91.0125H263.392ZM264.448 98.1485V99.0765H259.968L260.352 98.1485H264.448ZM258.88 82.5325C260.309 82.7885 261.429 83.1618 262.24 83.6525C263.051 84.1218 263.616 84.6338 263.936 85.1885C264.277 85.7431 264.427 86.2765 264.384 86.7885C264.341 87.2791 264.16 87.6951 263.84 88.0365C263.541 88.3778 263.147 88.5698 262.656 88.6125C262.187 88.6338 261.685 88.4525 261.152 88.0685C261.088 87.4285 260.917 86.7885 260.64 86.1485C260.384 85.4871 260.075 84.8685 259.712 84.2925C259.349 83.6951 258.976 83.1618 258.592 82.6925L258.88 82.5325ZM273.728 99.9725V102.884H270.432V101.604L273.728 99.9725ZM270.144 105.476C270.592 105.37 271.221 105.199 272.032 104.964C272.864 104.73 273.792 104.463 274.816 104.164C275.84 103.844 276.875 103.514 277.92 103.172L278.048 103.588C277.621 103.887 277.045 104.292 276.32 104.804C275.616 105.295 274.816 105.85 273.92 106.468C273.045 107.066 272.128 107.663 271.168 108.26L270.144 105.476ZM272.928 101.86L273.728 102.34V105.636L270.912 106.66L271.936 105.636C272.149 106.49 272.117 107.172 271.84 107.684C271.584 108.175 271.307 108.516 271.008 108.708L269.216 105.956C269.749 105.615 270.08 105.348 270.208 105.156C270.357 104.964 270.432 104.73 270.432 104.452V101.86H272.928ZM286.72 99.8125C286.613 99.9618 286.443 100.068 286.208 100.132C285.973 100.196 285.685 100.164 285.344 100.036C284.533 100.442 283.691 100.836 282.816 101.22C281.963 101.604 281.163 101.924 280.416 102.18L280.064 101.796C280.533 101.284 281.056 100.634 281.632 99.8445C282.229 99.0338 282.827 98.2018 283.424 97.3485L286.72 99.8125ZM276 99.7165C278.005 100.25 279.627 100.847 280.864 101.508C282.123 102.148 283.061 102.81 283.68 103.492C284.32 104.154 284.704 104.772 284.832 105.348C284.96 105.903 284.917 106.372 284.704 106.756C284.491 107.14 284.16 107.375 283.712 107.46C283.285 107.546 282.827 107.439 282.336 107.14C282.037 106.586 281.568 105.924 280.928 105.156C280.309 104.367 279.552 103.535 278.656 102.66C277.781 101.786 276.8 100.954 275.712 100.164L276 99.7165ZM277.312 97.6365C276.117 99.1938 274.517 100.548 272.512 101.7C270.528 102.852 268.363 103.802 266.016 104.548L265.728 104.1C267.371 103.204 268.843 102.138 270.144 100.9C271.445 99.6631 272.501 98.4045 273.312 97.1245H277.312V97.6365ZM283.264 87.3005C283.264 87.3005 283.445 87.4498 283.808 87.7485C284.192 88.0258 284.64 88.3671 285.152 88.7725C285.664 89.1565 286.123 89.5405 286.528 89.9245C286.464 90.2658 286.187 90.4365 285.696 90.4365H266.624L266.368 89.5405H281.472L283.264 87.3005ZM281.856 83.7165C281.856 83.7165 282.027 83.8551 282.368 84.1325C282.731 84.3885 283.157 84.7085 283.648 85.0925C284.139 85.4551 284.576 85.8178 284.96 86.1805C284.875 86.5218 284.587 86.6925 284.096 86.6925H267.776L267.52 85.7645H280.16L281.856 83.7165ZM278.432 82.8525C278.411 83.0445 278.336 83.2045 278.208 83.3325C278.08 83.4605 277.856 83.5458 277.536 83.5885V90.1165H274.048V82.4685L278.432 82.8525ZM272.16 98.1165C272.16 98.2018 272.011 98.3298 271.712 98.5005C271.435 98.6498 271.072 98.7885 270.624 98.9165C270.176 99.0445 269.717 99.1085 269.248 99.1085H268.768V92.4845V91.0765L272.32 92.4845H281.92V93.3805H272.16V98.1165ZM279.232 92.4845L280.768 90.8525L284.032 93.2845C283.947 93.3911 283.797 93.4978 283.584 93.6045C283.371 93.7111 283.125 93.7965 282.848 93.8605V97.8925C282.848 97.9565 282.688 98.0738 282.368 98.2445C282.069 98.4151 281.707 98.5751 281.28 98.7245C280.875 98.8525 280.48 98.9165 280.096 98.9165H279.552V92.4845H279.232ZM281.728 96.8685V97.7965H269.984V96.8685H281.728Z" fill="white"/>
<path d="M1032.34 25.7971C1032.33 25.9771 1032.24 26.1391 1032.07 26.2831C1031.93 26.4091 1031.7 26.4991 1031.37 26.5531V27.5251H1029.18V25.9321V25.4731L1032.34 25.7971ZM1030.83 26.7691L1031.37 27.0931V47.9371H1031.56L1030.78 49.1251L1028.43 47.6401C1028.57 47.4601 1028.77 47.2801 1029.02 47.1001C1029.27 46.9201 1029.5 46.7941 1029.7 46.7221L1029.18 47.6131V26.7691H1030.83ZM1046.84 45.1561C1046.84 45.1561 1046.93 45.2371 1047.11 45.3991C1047.31 45.5431 1047.54 45.7321 1047.81 45.9661C1048.1 46.2001 1048.4 46.4521 1048.71 46.7221C1049.03 46.9921 1049.32 47.2531 1049.57 47.5051C1049.5 47.7931 1049.26 47.9371 1048.87 47.9371H1030.37V47.1271H1045.3L1046.84 45.1561ZM1043.9 40.4851V41.2951H1036.96V40.4851H1043.9ZM1047.68 30.9541C1047.68 30.9541 1047.76 31.0261 1047.92 31.1701C1048.1 31.2961 1048.33 31.4761 1048.6 31.7101C1048.87 31.9261 1049.15 32.1601 1049.43 32.4121C1049.74 32.6641 1050 32.9071 1050.22 33.1411C1050.16 33.4291 1049.93 33.5731 1049.52 33.5731H1025.22L1024.97 32.7901H1046.28L1047.68 30.9541ZM1039.07 25.2841C1039.03 25.4641 1038.94 25.6261 1038.8 25.7701C1038.65 25.8961 1038.41 25.9861 1038.07 26.0401V43.0501C1038.07 43.1401 1037.98 43.2481 1037.8 43.3741C1037.64 43.4821 1037.42 43.5811 1037.15 43.6711C1036.88 43.7611 1036.6 43.8061 1036.31 43.8061H1035.91V24.9601L1039.07 25.2841ZM1046.06 25.6891C1046.04 25.8691 1045.96 26.0221 1045.82 26.1481C1045.67 26.2741 1045.42 26.3641 1045.06 26.4181V42.4291C1045.06 42.5191 1044.97 42.6271 1044.79 42.7531C1044.63 42.8611 1044.41 42.9601 1044.14 43.0501C1043.87 43.1221 1043.59 43.1581 1043.31 43.1581H1042.9V25.3651L1046.06 25.6891ZM1063.42 26.4991H1065.53V35.6521H1063.42V26.4991ZM1071.22 26.4181H1070.95L1072.09 25.1761L1074.52 27.0391C1074.45 27.1471 1074.3 27.2551 1074.09 27.3631C1073.89 27.4531 1073.66 27.5251 1073.41 27.5791V36.5701C1073.41 36.6421 1073.3 36.7321 1073.09 36.8401C1072.87 36.9301 1072.62 37.0201 1072.33 37.1101C1072.06 37.1821 1071.81 37.2181 1071.57 37.2181H1071.22V26.4181ZM1056.94 30.7381H1072.47V31.5211H1056.94V30.7381ZM1056.91 35.2741H1072.47V36.0301H1056.91V35.2741ZM1055.78 26.4181V25.4191L1058.1 26.4181H1072.47V27.2011H1057.94V36.7321C1057.94 36.8041 1057.85 36.9031 1057.67 37.0291C1057.49 37.1371 1057.26 37.2361 1056.99 37.3261C1056.72 37.4161 1056.44 37.4611 1056.13 37.4611H1055.78V26.4181ZM1061.23 35.4091H1063.77V35.8411C1062.62 37.5331 1061.06 38.9641 1059.1 40.1341C1057.14 41.2861 1054.85 42.1951 1052.24 42.8611L1052.03 42.4561C1054.11 41.6641 1055.94 40.6651 1057.51 39.4591C1059.09 38.2531 1060.33 36.9031 1061.23 35.4091ZM1066.53 35.3821C1067.19 36.2641 1068.09 37.0381 1069.23 37.7041C1070.38 38.3701 1071.64 38.9281 1073.01 39.3781C1074.39 39.8281 1075.75 40.1791 1077.08 40.4311L1077.06 40.7011C1076.61 40.7911 1076.24 41.0071 1075.95 41.3491C1075.66 41.6911 1075.46 42.1231 1075.35 42.6451C1074.06 42.2131 1072.82 41.6641 1071.63 40.9981C1070.46 40.3321 1069.4 39.5581 1068.44 38.6761C1067.51 37.7761 1066.74 36.7681 1066.15 35.6521L1066.53 35.3821ZM1067.12 38.9461L1070.01 39.2431C1069.99 39.3871 1069.93 39.5131 1069.82 39.6211C1069.71 39.7111 1069.52 39.7741 1069.25 39.8101V49.0711C1069.25 49.1431 1069.16 49.2331 1068.98 49.3411C1068.8 49.4491 1068.58 49.5391 1068.31 49.6111C1068.04 49.7011 1067.79 49.7461 1067.55 49.7461H1067.12V38.9461ZM1059.78 38.9461L1062.8 39.2701C1062.78 39.4141 1062.71 39.5491 1062.58 39.6751C1062.46 39.8011 1062.23 39.8821 1061.91 39.9181V42.0781C1061.89 42.8161 1061.76 43.5631 1061.53 44.3191C1061.31 45.0751 1060.9 45.7951 1060.29 46.4791C1059.68 47.1631 1058.81 47.7841 1057.7 48.3421C1056.58 48.9181 1055.11 49.3951 1053.3 49.7731L1053.08 49.4221C1054.47 48.9721 1055.6 48.4681 1056.48 47.9101C1057.38 47.3521 1058.07 46.7491 1058.53 46.1011C1059 45.4531 1059.33 44.7871 1059.51 44.1031C1059.69 43.4011 1059.78 42.7081 1059.78 42.0241V38.9461ZM1082.89 29.6581C1083.21 29.5141 1083.55 29.3791 1083.91 29.2531C1084.29 29.1091 1084.62 29.0371 1084.89 29.0371C1085.19 29.0371 1085.52 29.1091 1085.88 29.2531C1086.24 29.3791 1086.59 29.5591 1086.91 29.7931C1087.23 30.0091 1087.5 30.2341 1087.69 30.4681C1087.89 30.7021 1087.99 30.9091 1087.99 31.0891C1087.99 31.2511 1087.94 31.4221 1087.83 31.6021C1087.74 31.7641 1087.64 31.9441 1087.53 32.1421C1087.42 32.3221 1087.35 32.5651 1087.32 32.8711C1087.28 33.1591 1087.24 33.6361 1087.21 34.3021C1087.19 34.9681 1087.16 35.7421 1087.13 36.6241C1087.11 37.5061 1087.08 38.4061 1087.05 39.3241C1087.03 40.2421 1087.01 41.0971 1086.99 41.8891C1086.99 42.6811 1086.99 43.3291 1086.99 43.8331C1086.99 44.0851 1087.1 44.1841 1087.32 44.1301C1088.25 43.8421 1089.24 43.4461 1090.29 42.9421C1091.35 42.4381 1092.43 41.8621 1093.53 41.2141C1094.62 40.5661 1095.69 39.8641 1096.74 39.1081C1097.8 38.3521 1098.81 37.5781 1099.76 36.7861C1100.72 35.9761 1101.57 35.1751 1102.33 34.3831L1102.81 34.8691C1101.14 37.1911 1099.06 39.3151 1096.58 41.2411C1094.09 43.1671 1091.4 44.8501 1088.5 46.2901C1088.22 46.4521 1088 46.6231 1087.86 46.8031C1087.71 46.9651 1087.58 47.1091 1087.45 47.2351C1087.32 47.3611 1087.15 47.4241 1086.94 47.4241C1086.76 47.4241 1086.53 47.3341 1086.26 47.1541C1086.01 46.9741 1085.76 46.7581 1085.51 46.5061C1085.25 46.2361 1085.05 45.9661 1084.89 45.6961C1084.72 45.4261 1084.64 45.2101 1084.64 45.0481C1084.64 44.8141 1084.72 44.5711 1084.89 44.3191C1085.05 44.0671 1085.14 43.7161 1085.16 43.2661C1085.16 42.9601 1085.16 42.5011 1085.18 41.8891C1085.2 41.2771 1085.21 40.5841 1085.21 39.8101C1085.21 39.0361 1085.21 38.2351 1085.21 37.4071C1085.21 36.5791 1085.2 35.7781 1085.18 35.0041C1085.18 34.2121 1085.17 33.5101 1085.16 32.8981C1085.16 32.2681 1085.14 31.7821 1085.1 31.4401C1085.1 31.2421 1085.05 31.0711 1084.94 30.9271C1084.85 30.7651 1084.65 30.6211 1084.35 30.4951C1084.04 30.3691 1083.56 30.2431 1082.91 30.1171L1082.89 29.6581ZM1124.52 33.8431C1124.22 33.4291 1123.86 32.9881 1123.44 32.5201C1123.05 32.0521 1122.51 31.5661 1121.82 31.0621L1122.15 30.6301C1122.92 30.8821 1123.59 31.1791 1124.17 31.5211C1124.76 31.8631 1125.24 32.1961 1125.6 32.5201C1126.34 33.1501 1126.69 33.7531 1126.65 34.3291C1126.64 34.5631 1126.56 34.7431 1126.41 34.8691C1126.29 34.9951 1126.11 35.0581 1125.87 35.0581C1125.66 35.0581 1125.45 34.9501 1125.25 34.7341C1125.05 34.5001 1124.81 34.2031 1124.52 33.8431ZM1127.22 31.4401C1126.92 31.0441 1126.53 30.6211 1126.06 30.1711C1125.61 29.7211 1125.03 29.2711 1124.33 28.8211L1124.66 28.3891C1125.47 28.6051 1126.16 28.8571 1126.74 29.1451C1127.31 29.4331 1127.78 29.7211 1128.14 30.0091C1128.93 30.6751 1129.33 31.3231 1129.33 31.9531C1129.33 32.1691 1129.26 32.3491 1129.11 32.4931C1128.99 32.6191 1128.81 32.6821 1128.6 32.6821C1128.36 32.6821 1128.15 32.5741 1127.95 32.3581C1127.75 32.1241 1127.51 31.8181 1127.22 31.4401ZM1106.35 38.1361L1106.76 37.8121C1107.06 38.0641 1107.37 38.2801 1107.67 38.4601C1107.98 38.6221 1108.23 38.7031 1108.43 38.7031C1108.63 38.7031 1108.83 38.6491 1109.02 38.5411C1109.24 38.4151 1109.49 38.2171 1109.78 37.9471C1110.1 37.6591 1110.47 37.2991 1110.89 36.8671C1111.3 36.4351 1111.71 35.9851 1112.13 35.5171C1112.56 35.0491 1112.97 34.6171 1113.34 34.2211C1113.72 33.8071 1114.02 33.4921 1114.23 33.2761C1114.54 32.9521 1114.84 32.7001 1115.13 32.5201C1115.43 32.3221 1115.76 32.2231 1116.1 32.2231C1116.49 32.2231 1116.87 32.3041 1117.23 32.4661C1117.59 32.6281 1117.98 32.9161 1118.39 33.3301C1119.56 34.4821 1120.77 35.6431 1122.01 36.8131C1123.25 37.9651 1124.48 39.0541 1125.68 40.0801C1126.89 41.1061 1128.01 41.9701 1129.06 42.6721C1129.45 42.9241 1129.76 43.2481 1129.98 43.6441C1130.19 44.0221 1130.3 44.4181 1130.3 44.8321C1130.3 45.1381 1130.21 45.3901 1130.03 45.5881C1129.87 45.7681 1129.64 45.8581 1129.35 45.8581C1128.94 45.8581 1128.39 45.5971 1127.71 45.0751C1127.04 44.5531 1126.23 43.8241 1125.28 42.8881C1124.95 42.5461 1124.53 42.1141 1124.01 41.5921C1123.49 41.0521 1122.92 40.4671 1122.31 39.8371C1121.71 39.1891 1121.11 38.5411 1120.5 37.8931C1119.89 37.2451 1119.3 36.6421 1118.74 36.0841C1118.2 35.5261 1117.74 35.0581 1117.37 34.6801C1117.11 34.4281 1116.9 34.2481 1116.72 34.1401C1116.54 34.0321 1116.36 33.9781 1116.18 33.9781C1116.03 33.9781 1115.88 34.0231 1115.72 34.1131C1115.58 34.2031 1115.4 34.3741 1115.18 34.6261C1114.96 34.8781 1114.68 35.2201 1114.34 35.6521C1114.02 36.0841 1113.67 36.5521 1113.29 37.0561C1112.93 37.5421 1112.57 38.0191 1112.21 38.4871C1111.87 38.9551 1111.58 39.3421 1111.35 39.6481C1111.04 40.0801 1110.75 40.4401 1110.48 40.7281C1110.23 41.0161 1109.91 41.1601 1109.51 41.1601C1109.1 41.1601 1108.64 41.0071 1108.13 40.7011C1107.65 40.3951 1107.26 40.0531 1106.97 39.6751C1106.79 39.4771 1106.66 39.2521 1106.57 39.0001C1106.48 38.7301 1106.4 38.4421 1106.35 38.1361ZM1143.48 29.2801C1143.84 29.1181 1144.16 29.0101 1144.45 28.9561C1144.74 28.9021 1145.03 28.8751 1145.34 28.8751C1145.64 28.8751 1145.97 28.9381 1146.31 29.0641C1146.67 29.1721 1147.01 29.3251 1147.34 29.5231C1147.66 29.7031 1147.92 29.9011 1148.12 30.1171C1148.32 30.3151 1148.42 30.5041 1148.42 30.6841C1148.42 30.8821 1148.36 31.0441 1148.25 31.1701C1148.16 31.2781 1148.07 31.4131 1147.96 31.5751C1147.85 31.7191 1147.78 31.9351 1147.74 32.2231C1147.71 32.4931 1147.67 32.9521 1147.63 33.6001C1147.62 34.2481 1147.59 34.9951 1147.55 35.8411C1147.52 36.6691 1147.49 37.5151 1147.47 38.3791C1147.45 39.2431 1147.44 40.0351 1147.42 40.7551C1147.4 41.4751 1147.39 42.0421 1147.39 42.4561C1147.39 42.7981 1147.55 42.9061 1147.88 42.7801C1149.1 42.2761 1150.31 41.6461 1151.49 40.8901C1152.7 40.1341 1153.85 39.3151 1154.95 38.4331C1156.05 37.5331 1157.04 36.6241 1157.92 35.7061L1158.46 36.1381C1157.69 37.2721 1156.76 38.3791 1155.68 39.4591C1154.62 40.5391 1153.48 41.5471 1152.28 42.4831C1151.07 43.4191 1149.87 44.2471 1148.66 44.9671C1148.44 45.0751 1148.25 45.2281 1148.09 45.4261C1147.93 45.6241 1147.77 45.7951 1147.61 45.9391C1147.44 46.0831 1147.26 46.1551 1147.04 46.1551C1146.86 46.1551 1146.65 46.0741 1146.42 45.9121C1146.2 45.7501 1146 45.5521 1145.8 45.3181C1145.6 45.0841 1145.43 44.8501 1145.28 44.6161C1145.16 44.3821 1145.1 44.1931 1145.1 44.0491C1145.1 43.8691 1145.12 43.7161 1145.18 43.5901C1145.23 43.4461 1145.29 43.2751 1145.37 43.0771C1145.44 42.8791 1145.48 42.6001 1145.5 42.2401C1145.52 41.9521 1145.54 41.4661 1145.55 40.7821C1145.59 40.0981 1145.62 39.3061 1145.63 38.4061C1145.65 37.5061 1145.66 36.5881 1145.66 35.6521C1145.68 34.7161 1145.68 33.8431 1145.66 33.0331C1145.66 32.2051 1145.64 31.5301 1145.61 31.0081C1145.59 30.6481 1145.4 30.3781 1145.04 30.1981C1144.7 30.0181 1144.19 29.8921 1143.5 29.8201L1143.48 29.2801ZM1138.02 32.7631V32.2231C1138.26 32.1511 1138.52 32.0881 1138.8 32.0341C1139.11 31.9621 1139.43 31.9351 1139.75 31.9531C1140 31.9711 1140.3 32.0431 1140.64 32.1691C1141 32.2951 1141.34 32.4661 1141.67 32.6821C1142.01 32.8801 1142.29 33.0961 1142.5 33.3301C1142.72 33.5641 1142.83 33.7981 1142.83 34.0321C1142.83 34.3201 1142.74 34.5631 1142.56 34.7611C1142.38 34.9591 1142.25 35.2291 1142.18 35.5711C1141.87 36.9931 1141.37 38.4151 1140.67 39.8371C1139.97 41.2411 1139.02 42.5821 1137.83 43.8601C1136.66 45.1381 1135.22 46.2811 1133.51 47.2891L1133.08 46.7761C1134.14 45.8941 1135.1 44.9131 1135.94 43.8331C1136.81 42.7531 1137.54 41.6371 1138.13 40.4851C1138.74 39.3331 1139.21 38.2171 1139.53 37.1371C1139.86 36.0571 1140.02 35.0761 1140.02 34.1941C1140.02 33.9241 1139.9 33.6991 1139.67 33.5191C1139.45 33.3211 1139.18 33.1681 1138.86 33.0601C1138.55 32.9341 1138.27 32.8351 1138.02 32.7631ZM1171.96 29.4151C1172.21 29.7031 1172.46 30.0271 1172.69 30.3871C1172.92 30.7291 1173.11 31.0981 1173.26 31.4941C1173.42 31.8901 1173.5 32.2861 1173.5 32.6821C1173.5 33.3481 1173.43 34.0681 1173.28 34.8421C1173.14 35.5981 1172.92 36.3721 1172.63 37.1641C1172.42 37.8301 1172.12 38.5501 1171.74 39.3241C1171.37 40.0801 1170.93 40.8271 1170.45 41.5651C1169.98 42.3031 1169.47 42.9781 1168.91 43.5901C1168.37 44.2021 1167.81 44.6971 1167.24 45.0751C1166.66 45.4351 1166.07 45.6151 1165.48 45.6151C1165.01 45.6151 1164.54 45.4441 1164.08 45.1021C1163.63 44.7601 1163.22 44.2921 1162.86 43.6981C1162.5 43.1041 1162.2 42.4201 1161.97 41.6461C1161.75 40.8721 1161.65 40.0621 1161.65 39.2161C1161.65 38.3341 1161.78 37.4341 1162.05 36.5161C1162.34 35.5981 1162.76 34.7161 1163.32 33.8701C1163.88 33.0061 1164.56 32.2231 1165.37 31.5211C1166.47 30.5491 1167.69 29.8291 1169.04 29.3611C1170.41 28.8751 1171.84 28.6321 1173.34 28.6321C1174.78 28.6321 1176.11 28.8661 1177.33 29.3341C1178.56 29.7841 1179.62 30.4321 1180.52 31.2781C1181.42 32.1061 1182.12 33.0961 1182.63 34.2481C1183.15 35.4001 1183.41 36.6781 1183.41 38.0821C1183.41 39.2341 1183.2 40.3681 1182.79 41.4841C1182.37 42.5821 1181.7 43.5811 1180.76 44.4811C1179.84 45.3811 1178.62 46.1281 1177.09 46.7221C1175.58 47.2981 1173.71 47.6491 1171.47 47.7751L1171.37 47.1811C1173.6 46.7491 1175.43 46.0921 1176.85 45.2101C1178.27 44.3101 1179.32 43.2121 1180.01 41.9161C1180.71 40.6201 1181.06 39.1621 1181.06 37.5421C1181.06 35.9221 1180.71 34.5181 1180.01 33.3301C1179.32 32.1421 1178.38 31.2241 1177.17 30.5761C1175.98 29.9281 1174.64 29.6041 1173.15 29.6041C1171.91 29.6041 1170.66 29.8651 1169.4 30.3871C1168.14 30.8911 1167.04 31.6201 1166.1 32.5741C1165.27 33.4201 1164.62 34.3561 1164.13 35.3821C1163.66 36.4081 1163.43 37.5061 1163.43 38.6761C1163.43 39.4861 1163.54 40.2331 1163.75 40.9171C1163.97 41.5831 1164.25 42.1141 1164.59 42.5101C1164.93 42.9061 1165.28 43.1041 1165.64 43.1041C1166.07 43.1041 1166.53 42.8881 1167.02 42.4561C1167.52 42.0061 1168.02 41.4391 1168.5 40.7551C1168.99 40.0711 1169.43 39.3691 1169.83 38.6491C1170.24 37.9111 1170.58 37.2451 1170.85 36.6511C1171.14 35.9671 1171.38 35.2291 1171.58 34.4371C1171.78 33.6451 1171.88 32.9251 1171.88 32.2771C1171.88 31.7551 1171.79 31.2871 1171.61 30.8731C1171.43 30.4411 1171.2 30.0181 1170.93 29.6041L1171.96 29.4151ZM1187.27 47.9641H1207.36L1208.9 45.9931C1208.9 45.9931 1208.99 46.0651 1209.17 46.2091C1209.36 46.3531 1209.61 46.5421 1209.9 46.7761C1210.2 47.0101 1210.52 47.2711 1210.84 47.5591C1211.16 47.8291 1211.46 48.0811 1211.73 48.3151C1211.66 48.6031 1211.41 48.7471 1210.98 48.7471H1187.51L1187.27 47.9641ZM1198.45 31.8721L1201.69 32.1961C1201.65 32.3761 1201.56 32.5291 1201.42 32.6551C1201.27 32.7811 1201.03 32.8801 1200.69 32.9521V48.3691H1198.45V31.8721ZM1191.67 36.8401L1194.8 37.1641C1194.78 37.3441 1194.69 37.5061 1194.53 37.6501C1194.39 37.7761 1194.15 37.8661 1193.83 37.9201V48.3961H1191.67V36.8401ZM1199.88 39.0001H1204.58L1206.09 37.0561C1206.09 37.0561 1206.18 37.1281 1206.36 37.2721C1206.56 37.4161 1206.8 37.6141 1207.09 37.8661C1207.38 38.1001 1207.67 38.3521 1207.98 38.6221C1208.3 38.8741 1208.59 39.1261 1208.84 39.3781C1208.77 39.6481 1208.53 39.7831 1208.11 39.7831H1199.88V39.0001ZM1200.2 26.4991C1199.54 27.5071 1198.71 28.5331 1197.72 29.5771C1196.75 30.6211 1195.67 31.6471 1194.48 32.6551C1193.29 33.6451 1192.05 34.5721 1190.75 35.4361C1189.47 36.2821 1188.21 37.0111 1186.95 37.6231L1186.73 37.2451C1187.63 36.6871 1188.55 36.0211 1189.48 35.2471C1190.44 34.4551 1191.36 33.6181 1192.26 32.7361C1193.16 31.8361 1194 30.9181 1194.78 29.9821C1195.57 29.0461 1196.25 28.1191 1196.83 27.2011C1197.4 26.2831 1197.84 25.4371 1198.12 24.6631L1201.85 25.6081C1201.8 25.7701 1201.68 25.8961 1201.5 25.9861C1201.32 26.0581 1201.05 26.1121 1200.69 26.1481C1201.32 26.9941 1202.07 27.8131 1202.93 28.6051C1203.79 29.3791 1204.74 30.1171 1205.76 30.8191C1206.79 31.5031 1207.86 32.1421 1208.98 32.7361C1210.09 33.3121 1211.22 33.8341 1212.35 34.3021L1212.33 34.7341C1212 34.8061 1211.7 34.9411 1211.41 35.1391C1211.14 35.3371 1210.91 35.5711 1210.73 35.8411C1210.55 36.1111 1210.44 36.3901 1210.38 36.6781C1208.96 35.8861 1207.59 34.9591 1206.28 33.8971C1204.96 32.8351 1203.78 31.6741 1202.71 30.4141C1201.67 29.1541 1200.83 27.8491 1200.2 26.4991ZM1228.9 43.3471C1230.72 43.6891 1232.21 44.0581 1233.36 44.4541C1234.53 44.8501 1235.44 45.2551 1236.09 45.6691C1236.75 46.0831 1237.21 46.4881 1237.46 46.8841C1237.71 47.2621 1237.81 47.5861 1237.76 47.8561C1237.72 48.1441 1237.58 48.3691 1237.33 48.5311C1237.09 48.6931 1236.81 48.7561 1236.49 48.7201C1236.17 48.6841 1235.86 48.5311 1235.57 48.2611C1234.92 47.5771 1234.02 46.8391 1232.87 46.0471C1231.72 45.2371 1230.35 44.4721 1228.77 43.7521L1228.9 43.3471ZM1224.23 44.5351C1224.12 44.6611 1223.99 44.7421 1223.83 44.7781C1223.68 44.7961 1223.48 44.7691 1223.21 44.6971C1222.38 45.3991 1221.43 46.0291 1220.37 46.5871C1219.33 47.1451 1218.27 47.6131 1217.19 47.9911C1216.11 48.3871 1215.09 48.6841 1214.13 48.8821L1214 48.4771C1214.85 48.0811 1215.72 47.5951 1216.62 47.0191C1217.54 46.4431 1218.44 45.7951 1219.32 45.0751C1220.22 44.3371 1221.04 43.5541 1221.78 42.7261L1224.23 44.5351ZM1227.5 49.1791C1227.5 49.2331 1227.34 49.3411 1227.01 49.5031C1226.69 49.6831 1226.25 49.7731 1225.69 49.7731H1225.34V34.9231H1227.5V49.1791ZM1230.69 25.1491C1230.67 25.3291 1230.6 25.4821 1230.47 25.6081C1230.34 25.7161 1230.13 25.7881 1229.82 25.8241V30.6841H1227.82V24.8791L1230.69 25.1491ZM1226.1 25.1491C1226.08 25.3291 1226.01 25.4731 1225.88 25.5811C1225.75 25.6891 1225.54 25.7701 1225.23 25.8241V30.6841H1223.29V24.8791L1226.1 25.1491ZM1233.06 31.8451C1233.01 31.9891 1232.89 32.1151 1232.71 32.2231C1232.55 32.3131 1232.32 32.3401 1232.04 32.3041C1231.62 32.7361 1231.12 33.1951 1230.52 33.6811C1229.93 34.1671 1229.34 34.6081 1228.74 35.0041H1228.17C1228.53 34.4461 1228.89 33.7891 1229.25 33.0331C1229.63 32.2771 1229.94 31.5841 1230.17 30.9541L1233.06 31.8451ZM1236.36 26.3911C1236.28 26.5171 1236.16 26.6251 1235.98 26.7151C1235.8 26.7871 1235.56 26.8141 1235.28 26.7961C1234.75 27.3901 1234.1 28.0471 1233.3 28.7671C1232.53 29.4691 1231.76 30.0991 1230.98 30.6571H1230.42C1230.79 30.1711 1231.16 29.6221 1231.52 29.0101C1231.9 28.3801 1232.26 27.7501 1232.6 27.1201C1232.94 26.4721 1233.24 25.8781 1233.49 25.3381L1236.36 26.3911ZM1220.97 31.0891C1221.79 31.2871 1222.44 31.5481 1222.91 31.8721C1223.38 32.1781 1223.7 32.5021 1223.88 32.8441C1224.08 33.1681 1224.16 33.4831 1224.12 33.7891C1224.11 34.0771 1224 34.3111 1223.8 34.4911C1223.62 34.6711 1223.39 34.7701 1223.1 34.7881C1222.83 34.8061 1222.55 34.6891 1222.26 34.4371C1222.23 33.8971 1222.04 33.3301 1221.69 32.7361C1221.37 32.1241 1221.03 31.6381 1220.67 31.2781L1220.97 31.0891ZM1217.59 25.5001C1218.53 25.7701 1219.27 26.0941 1219.83 26.4721C1220.39 26.8501 1220.79 27.2371 1221.05 27.6331C1221.3 28.0111 1221.42 28.3801 1221.42 28.7401C1221.42 29.0821 1221.33 29.3701 1221.15 29.6041C1220.99 29.8201 1220.77 29.9371 1220.48 29.9551C1220.21 29.9731 1219.92 29.8651 1219.62 29.6311C1219.56 29.1811 1219.41 28.7131 1219.16 28.2271C1218.92 27.7411 1218.64 27.2821 1218.32 26.8501C1218 26.4001 1217.66 26.0221 1217.32 25.7161L1217.59 25.5001ZM1233.68 36.4081C1233.68 36.4081 1233.81 36.5071 1234.06 36.7051C1234.33 36.9031 1234.65 37.1461 1235.01 37.4341C1235.37 37.7221 1235.7 38.0011 1236 38.2711C1235.93 38.5591 1235.69 38.7031 1235.28 38.7031H1217.48L1217.27 37.9201H1232.41L1233.68 36.4081ZM1235.06 33.0331C1235.06 33.0331 1235.19 33.1411 1235.46 33.3571C1235.75 33.5551 1236.09 33.8071 1236.46 34.1131C1236.84 34.4191 1237.18 34.7161 1237.49 35.0041C1237.44 35.2921 1237.21 35.4361 1236.81 35.4361H1216.16L1215.94 34.6531H1233.74L1235.06 33.0331ZM1236.14 39.4861C1236.14 39.4861 1236.22 39.5491 1236.38 39.6751C1236.56 39.8011 1236.78 39.9721 1237.03 40.1881C1237.3 40.3861 1237.58 40.6021 1237.87 40.8361C1238.17 41.0701 1238.44 41.2951 1238.68 41.5111C1238.61 41.7991 1238.36 41.9431 1237.95 41.9431H1214.89L1214.65 41.1601H1234.79L1236.14 39.4861ZM1236.33 28.7131C1236.33 28.7131 1236.46 28.8211 1236.73 29.0371C1237.02 29.2351 1237.35 29.4871 1237.73 29.7931C1238.13 30.0991 1238.49 30.3961 1238.81 30.6841C1238.74 30.9721 1238.5 31.1161 1238.08 31.1161H1214.57L1214.32 30.3331H1234.98L1236.33 28.7131Z" fill="white"/>
<line y1="67.0474" x2="1240" y2="67.0474" stroke="white"/>
</svg>
