<svg width="310" height="51" viewBox="0 0 310 51" fill="none" xmlns="http://www.w3.org/2000/svg">
<path d="M18.149 12.684C18.107 12.81 18.023 12.915 17.897 12.999C17.771 13.069 17.589 13.097 17.351 13.083C17.001 13.377 16.56 13.699 16.028 14.049C15.51 14.399 15.013 14.714 14.537 14.994H14.222C14.39 14.56 14.558 14.049 14.726 13.461C14.908 12.859 15.055 12.327 15.167 11.865L18.149 12.684ZM18.128 3.885C18.03 4.179 17.764 4.319 17.33 4.305C16.952 4.627 16.483 4.97 15.923 5.334C15.363 5.698 14.824 6.027 14.306 6.321H13.991C14.173 5.887 14.355 5.369 14.537 4.767C14.733 4.165 14.88 3.626 14.978 3.15L18.128 3.885ZM7.628 11.907C8.496 11.963 9.161 12.103 9.623 12.327C10.085 12.551 10.386 12.81 10.526 13.104C10.68 13.384 10.715 13.657 10.631 13.923C10.547 14.189 10.379 14.413 10.127 14.595C9.875 14.763 9.581 14.84 9.245 14.826C8.923 14.798 8.594 14.644 8.258 14.364C8.286 13.944 8.216 13.517 8.048 13.083C7.894 12.649 7.705 12.292 7.481 12.012L7.628 11.907ZM7.544 3.213C8.398 3.283 9.063 3.437 9.539 3.675C10.029 3.899 10.358 4.158 10.526 4.452C10.708 4.746 10.771 5.033 10.715 5.313C10.659 5.593 10.519 5.831 10.295 6.027C10.071 6.209 9.798 6.307 9.476 6.321C9.154 6.321 8.825 6.195 8.489 5.943C8.447 5.481 8.314 5.012 8.09 4.536C7.866 4.046 7.628 3.64 7.376 3.318L7.544 3.213ZM18.443 7.266C18.443 7.266 18.562 7.364 18.8 7.56C19.052 7.742 19.353 7.973 19.703 8.253C20.053 8.519 20.368 8.778 20.648 9.03C20.592 9.254 20.403 9.366 20.081 9.366H5.024L4.856 8.757H17.246L18.443 7.266ZM20.081 13.125C20.081 13.125 20.207 13.23 20.459 13.44C20.725 13.636 21.033 13.874 21.383 14.154C21.747 14.434 22.069 14.707 22.349 14.973C22.293 15.197 22.097 15.309 21.761 15.309H2.84L2.672 14.7H18.842L20.081 13.125ZM19.556 9.828C19.556 9.828 19.682 9.926 19.934 10.122C20.2 10.318 20.508 10.556 20.858 10.836C21.208 11.116 21.523 11.389 21.803 11.655C21.747 11.879 21.551 11.991 21.215 11.991H3.596L3.428 11.382H18.317L19.556 9.828ZM19.157 4.704C19.157 4.704 19.283 4.795 19.535 4.977C19.787 5.159 20.088 5.383 20.438 5.649C20.788 5.901 21.103 6.153 21.383 6.405C21.327 6.629 21.138 6.741 20.816 6.741H4.079L3.911 6.153H17.96L19.157 4.704ZM13.697 6.153V11.802H11.261V6.153H13.697ZM18.065 20.811V21.42H7.166V20.811H18.065ZM16.49 17.031L17.624 15.792L20.039 17.598C19.983 17.668 19.885 17.745 19.745 17.829C19.605 17.913 19.43 17.976 19.22 18.018V22.155C19.22 22.197 19.101 22.26 18.863 22.344C18.625 22.442 18.345 22.526 18.023 22.596C17.701 22.68 17.407 22.722 17.141 22.722H16.7V17.031H16.49ZM8.426 22.071C8.426 22.141 8.321 22.232 8.111 22.344C7.901 22.47 7.635 22.582 7.313 22.68C6.991 22.778 6.655 22.827 6.305 22.827H5.969V17.031V16.002L8.594 17.031H18.002V17.64H8.426V22.071ZM31.547 8.253V8.841H26.36L26.171 8.253H31.547ZM37.364 6.741C37.35 6.839 37.301 6.93 37.217 7.014C37.147 7.084 37.007 7.133 36.797 7.161V9.933C36.797 9.975 36.699 10.031 36.503 10.101C36.321 10.157 36.09 10.213 35.81 10.269C35.544 10.311 35.278 10.332 35.012 10.332H34.529V6.468L37.364 6.741ZM32.828 6.699C32.814 6.811 32.765 6.909 32.681 6.993C32.611 7.063 32.478 7.112 32.282 7.14V9.996C32.282 10.024 32.191 10.066 32.009 10.122C31.827 10.164 31.603 10.206 31.337 10.248C31.071 10.29 30.805 10.311 30.539 10.311H30.056V6.447L32.828 6.699ZM39.611 6.993C39.611 6.993 39.723 7.084 39.947 7.266C40.171 7.434 40.437 7.644 40.745 7.896C41.053 8.148 41.326 8.393 41.564 8.631C41.508 8.855 41.326 8.967 41.018 8.967H35.936L35.768 8.358H38.54L39.611 6.993ZM36.965 18.165C37.693 18.095 38.274 18.116 38.708 18.228C39.142 18.34 39.464 18.501 39.674 18.711C39.898 18.921 40.017 19.145 40.031 19.383C40.045 19.607 39.982 19.817 39.842 20.013C39.702 20.195 39.513 20.321 39.275 20.391C39.051 20.447 38.785 20.405 38.477 20.265C38.351 19.901 38.12 19.544 37.784 19.194C37.462 18.83 37.133 18.543 36.797 18.333L36.965 18.165ZM32.744 17.01C32.618 17.71 32.422 18.361 32.156 18.963C31.89 19.565 31.47 20.125 30.896 20.643C30.322 21.147 29.51 21.595 28.46 21.987C27.41 22.393 26.024 22.736 24.302 23.016L24.134 22.722C25.408 22.344 26.437 21.938 27.221 21.504C28.005 21.07 28.607 20.608 29.027 20.118C29.461 19.628 29.769 19.124 29.951 18.606C30.133 18.088 30.259 17.556 30.329 17.01H32.744ZM36.104 16.989C36.104 17.101 36.104 17.22 36.104 17.346C36.104 17.458 36.104 17.563 36.104 17.661V20.223C36.104 20.363 36.139 20.454 36.209 20.496C36.293 20.538 36.496 20.559 36.818 20.559H38.792C39.128 20.559 39.443 20.559 39.737 20.559C40.031 20.559 40.248 20.552 40.388 20.538C40.542 20.524 40.654 20.503 40.724 20.475C40.794 20.433 40.864 20.363 40.934 20.265C41.046 20.111 41.179 19.852 41.333 19.488C41.487 19.11 41.655 18.655 41.837 18.123H42.068L42.131 20.349C42.453 20.461 42.67 20.587 42.782 20.727C42.894 20.867 42.95 21.028 42.95 21.21C42.95 21.49 42.831 21.714 42.593 21.882C42.369 22.05 41.935 22.162 41.291 22.218C40.661 22.288 39.737 22.323 38.519 22.323H36.293C35.579 22.323 35.04 22.267 34.676 22.155C34.312 22.057 34.06 21.875 33.92 21.609C33.794 21.343 33.731 20.979 33.731 20.517V16.989H36.104ZM29.216 17.871C29.216 17.927 29.118 18.018 28.922 18.144C28.726 18.27 28.467 18.382 28.145 18.48C27.837 18.564 27.515 18.606 27.179 18.606H26.843V10.647V9.66L29.384 10.647H38.813V11.256H29.216V17.871ZM37.217 10.647L38.33 9.471L40.598 11.193C40.542 11.263 40.451 11.34 40.325 11.424C40.199 11.494 40.038 11.543 39.842 11.571V17.346C39.842 17.388 39.73 17.458 39.506 17.556C39.282 17.64 39.016 17.724 38.708 17.808C38.4 17.892 38.113 17.934 37.847 17.934H37.427V10.647H37.217ZM38.708 12.726V13.335H27.83V12.726H38.708ZM38.582 14.763V15.372H27.725V14.763H38.582ZM38.561 16.758V17.367H27.683V16.758H38.561ZM31.862 3.024C32.702 3.038 33.346 3.136 33.794 3.318C34.256 3.5 34.564 3.724 34.718 3.99C34.872 4.256 34.907 4.515 34.823 4.767C34.739 5.019 34.578 5.229 34.34 5.397C34.102 5.565 33.815 5.649 33.479 5.649C33.157 5.649 32.835 5.523 32.513 5.271C32.499 4.879 32.408 4.487 32.24 4.095C32.072 3.703 31.89 3.381 31.694 3.129L31.862 3.024ZM40.283 5.565L41.396 4.41L43.412 6.321C43.342 6.405 43.244 6.461 43.118 6.489C43.006 6.517 42.838 6.538 42.614 6.552C42.348 6.776 42.005 7.014 41.585 7.266C41.165 7.504 40.773 7.7 40.409 7.854L40.199 7.728C40.255 7.42 40.318 7.056 40.388 6.636C40.458 6.202 40.5 5.845 40.514 5.565H40.283ZM26.276 4.452C26.556 5.138 26.696 5.761 26.696 6.321C26.71 6.867 26.619 7.322 26.423 7.686C26.227 8.05 25.975 8.309 25.667 8.463C25.457 8.575 25.226 8.624 24.974 8.61C24.722 8.596 24.491 8.526 24.281 8.4C24.085 8.26 23.945 8.064 23.861 7.812C23.777 7.434 23.826 7.112 24.008 6.846C24.204 6.58 24.463 6.384 24.785 6.258C25.093 6.118 25.38 5.88 25.646 5.544C25.912 5.194 26.024 4.837 25.982 4.473L26.276 4.452ZM41.207 5.565V6.153H26.297V5.565H41.207ZM52.127 19.215C51.609 19.607 50.979 20.006 50.237 20.412C49.509 20.818 48.711 21.189 47.843 21.525C46.989 21.861 46.1 22.134 45.176 22.344L45.05 22.134C45.568 21.84 46.079 21.49 46.583 21.084C47.101 20.678 47.591 20.244 48.053 19.782C48.515 19.32 48.928 18.865 49.292 18.417C49.656 17.955 49.943 17.542 50.153 17.178L53.24 18.837C53.17 18.963 53.051 19.061 52.883 19.131C52.715 19.201 52.463 19.229 52.127 19.215ZM56.642 17.703C58.028 17.759 59.183 17.927 60.107 18.207C61.045 18.473 61.78 18.795 62.312 19.173C62.858 19.551 63.229 19.943 63.425 20.349C63.635 20.741 63.705 21.098 63.635 21.42C63.565 21.742 63.39 21.973 63.11 22.113C62.83 22.267 62.466 22.288 62.018 22.176C61.724 21.812 61.353 21.427 60.905 21.021C60.457 20.629 59.981 20.244 59.477 19.866C58.973 19.474 58.462 19.11 57.944 18.774C57.426 18.438 56.943 18.144 56.495 17.892L56.642 17.703ZM56.642 14.889C56.628 15.029 56.565 15.155 56.453 15.267C56.341 15.365 56.145 15.435 55.865 15.477V22.344C55.865 22.4 55.753 22.477 55.529 22.575C55.319 22.673 55.046 22.757 54.71 22.827C54.388 22.911 54.052 22.953 53.702 22.953H53.261V14.595L56.642 14.889ZM61.703 14.637C61.703 14.637 61.787 14.7 61.955 14.826C62.123 14.952 62.333 15.113 62.585 15.309C62.851 15.505 63.124 15.715 63.404 15.939C63.684 16.163 63.936 16.373 64.16 16.569C64.146 16.681 64.083 16.765 63.971 16.821C63.873 16.877 63.747 16.905 63.593 16.905H45.428L45.26 16.317H60.38L61.703 14.637ZM53.219 3.108C54.143 3.192 54.857 3.36 55.361 3.612C55.879 3.864 56.236 4.151 56.432 4.473C56.628 4.795 56.698 5.11 56.642 5.418C56.586 5.726 56.439 5.985 56.201 6.195C55.977 6.391 55.69 6.496 55.34 6.51C55.004 6.51 54.661 6.377 54.311 6.111C54.255 5.593 54.101 5.075 53.849 4.557C53.611 4.025 53.352 3.584 53.072 3.234L53.219 3.108ZM52.463 4.473C52.407 4.585 52.309 4.676 52.169 4.746C52.029 4.816 51.833 4.837 51.581 4.809C50.727 6.111 49.768 7.259 48.704 8.253C47.64 9.247 46.541 10.066 45.407 10.71L45.176 10.521C45.68 9.947 46.184 9.261 46.688 8.463C47.192 7.665 47.675 6.811 48.137 5.901C48.599 4.977 48.998 4.039 49.334 3.087L52.463 4.473ZM50.279 14.91C50.279 14.966 50.195 15.057 50.027 15.183C49.873 15.295 49.649 15.4 49.355 15.498C49.061 15.596 48.704 15.645 48.284 15.645H47.843V7.077L48.851 5.67L50.552 6.321H50.279V14.91ZM56.537 6.342V13.923H54.017V6.342H56.537ZM60.107 9.618C60.107 9.618 60.226 9.716 60.464 9.912C60.716 10.094 61.01 10.325 61.346 10.605C61.696 10.885 62.004 11.151 62.27 11.403C62.214 11.627 62.025 11.739 61.703 11.739H49.502V11.13H58.931L60.107 9.618ZM60.128 7.182C60.128 7.182 60.247 7.28 60.485 7.476C60.737 7.658 61.031 7.889 61.367 8.169C61.717 8.449 62.025 8.715 62.291 8.967C62.235 9.191 62.046 9.303 61.724 9.303H49.502V8.694H58.952L60.128 7.182ZM60.947 11.991C60.947 11.991 61.024 12.054 61.178 12.18C61.332 12.306 61.528 12.467 61.766 12.663C62.018 12.859 62.277 13.069 62.543 13.293C62.823 13.517 63.075 13.734 63.299 13.944C63.285 14.056 63.222 14.14 63.11 14.196C62.998 14.252 62.865 14.28 62.711 14.28H49.502V13.671H59.645L60.947 11.991ZM60.611 4.683C60.611 4.683 60.681 4.746 60.821 4.872C60.975 4.984 61.171 5.138 61.409 5.334C61.647 5.53 61.892 5.74 62.144 5.964C62.41 6.174 62.648 6.377 62.858 6.573C62.816 6.797 62.62 6.909 62.27 6.909H49.565V6.321H59.351L60.611 4.683ZM69.473 7.161H78.65L79.637 5.922C79.637 5.922 79.735 6.006 79.931 6.174C80.141 6.328 80.386 6.524 80.666 6.762C80.946 6.986 81.205 7.203 81.443 7.413C81.387 7.637 81.198 7.749 80.876 7.749H69.641L69.473 7.161ZM69.179 16.233H79.07L80.015 15.015C80.015 15.015 80.113 15.099 80.309 15.267C80.519 15.421 80.757 15.61 81.023 15.834C81.303 16.058 81.555 16.275 81.779 16.485C81.723 16.709 81.548 16.821 81.254 16.821H69.347L69.179 16.233ZM78.209 8.841H78.041L78.923 7.938L80.792 9.303C80.736 9.373 80.652 9.436 80.54 9.492C80.442 9.548 80.316 9.59 80.162 9.618V12.621C80.162 12.677 80.071 12.747 79.889 12.831C79.707 12.915 79.49 12.992 79.238 13.062C79 13.118 78.769 13.146 78.545 13.146H78.209V8.841ZM70.691 8.841V8.022L72.728 8.841H79.154V9.429H72.623V12.936C72.623 12.992 72.539 13.069 72.371 13.167C72.203 13.251 71.993 13.335 71.741 13.419C71.489 13.489 71.23 13.524 70.964 13.524H70.691V8.841ZM76.34 14.889L79.07 15.141C79.014 15.421 78.776 15.589 78.356 15.645V18.207C78.356 18.669 78.3 19.054 78.188 19.362C78.09 19.67 77.859 19.915 77.495 20.097C77.145 20.279 76.606 20.398 75.878 20.454C75.864 20.188 75.829 19.957 75.773 19.761C75.731 19.551 75.654 19.383 75.542 19.257C75.43 19.145 75.276 19.04 75.08 18.942C74.884 18.83 74.59 18.753 74.198 18.711V18.417C74.198 18.417 74.275 18.424 74.429 18.438C74.583 18.438 74.765 18.445 74.975 18.459C75.199 18.473 75.409 18.487 75.605 18.501C75.801 18.501 75.941 18.501 76.025 18.501C76.151 18.501 76.235 18.48 76.277 18.438C76.319 18.382 76.34 18.305 76.34 18.207V14.889ZM71.3 16.653C72.014 16.695 72.567 16.814 72.959 17.01C73.365 17.192 73.638 17.402 73.778 17.64C73.932 17.878 73.988 18.116 73.946 18.354C73.918 18.578 73.813 18.767 73.631 18.921C73.449 19.075 73.232 19.159 72.98 19.173C72.728 19.187 72.462 19.089 72.182 18.879C72.154 18.501 72.028 18.123 71.804 17.745C71.594 17.353 71.363 17.031 71.111 16.779L71.3 16.653ZM71.636 10.521H79.28V11.109H71.636V10.521ZM71.636 12.222H79.28V12.831H71.636V12.222ZM74.387 5.607L77.012 5.859C76.998 5.985 76.949 6.09 76.865 6.174C76.781 6.258 76.627 6.321 76.403 6.363V14.448H74.387V5.607ZM69.452 13.881C70.096 13.895 70.943 13.902 71.993 13.902C73.043 13.902 74.233 13.895 75.563 13.881C76.893 13.853 78.265 13.832 79.679 13.818V14.175C78.755 14.329 77.586 14.497 76.172 14.679C74.758 14.847 73.043 15.043 71.027 15.267C70.971 15.407 70.894 15.512 70.796 15.582C70.698 15.638 70.6 15.68 70.502 15.708L69.452 13.881ZM77.306 12.978C78.328 13.006 79.119 13.104 79.679 13.272C80.239 13.426 80.624 13.615 80.834 13.839C81.058 14.063 81.142 14.287 81.086 14.511C81.044 14.721 80.918 14.896 80.708 15.036C80.512 15.162 80.281 15.225 80.015 15.225C79.749 15.225 79.511 15.106 79.301 14.868C79.133 14.588 78.874 14.308 78.524 14.028C78.188 13.734 77.74 13.489 77.18 13.293L77.306 12.978ZM68.087 20.916H83.06V21.504H68.087V20.916ZM81.968 4.578H81.758L82.913 3.297L85.181 5.103C85.013 5.313 84.726 5.467 84.32 5.565V21.882C84.306 21.938 84.187 22.029 83.963 22.155C83.753 22.281 83.501 22.393 83.207 22.491C82.913 22.589 82.619 22.638 82.325 22.638H81.968V4.578ZM66.659 4.578V3.528L69.158 4.578H82.871V5.166H68.969V22.008C68.969 22.106 68.878 22.225 68.696 22.365C68.514 22.505 68.276 22.624 67.982 22.722C67.702 22.834 67.394 22.89 67.058 22.89H66.659V4.578Z" fill="#F3D7A3"/>
<path d="M7.642 36.31L9.952 36.52C9.94267 36.6227 9.90067 36.7113 9.826 36.786C9.76067 36.8513 9.63467 36.898 9.448 36.926V48.322H7.642V36.31ZM8.65 41.602H11.744L12.738 40.314C12.738 40.314 12.7987 40.3653 12.92 40.468C13.0507 40.5613 13.2093 40.6827 13.396 40.832C13.5827 40.972 13.7787 41.126 13.984 41.294C14.1893 41.462 14.376 41.6207 14.544 41.77C14.5067 41.9193 14.376 41.994 14.152 41.994H8.65V41.602ZM2.42 48.098H12.724L13.746 46.81C13.746 46.81 13.8067 46.8567 13.928 46.95C14.0493 47.0433 14.208 47.1693 14.404 47.328C14.6 47.4773 14.8007 47.636 15.006 47.804C15.2207 47.972 15.4167 48.1307 15.594 48.28C15.5567 48.4293 15.4213 48.504 15.188 48.504H2.546L2.42 48.098ZM26.766 42.456C26.738 42.54 26.682 42.61 26.598 42.666C26.514 42.7127 26.3927 42.7313 26.234 42.722C26.0007 42.918 25.7067 43.1327 25.352 43.366C25.0067 43.5993 24.6753 43.8093 24.358 43.996H24.148C24.26 43.7067 24.372 43.366 24.484 42.974C24.6053 42.5727 24.7033 42.218 24.778 41.91L26.766 42.456ZM26.752 36.59C26.6867 36.786 26.5093 36.8793 26.22 36.87C25.968 37.0847 25.6553 37.3133 25.282 37.556C24.9087 37.7987 24.5493 38.018 24.204 38.214H23.994C24.1153 37.9247 24.2367 37.5793 24.358 37.178C24.4887 36.7767 24.5867 36.4173 24.652 36.1L26.752 36.59ZM19.752 41.938C20.3307 41.9753 20.774 42.0687 21.082 42.218C21.39 42.3673 21.5907 42.54 21.684 42.736C21.7867 42.9227 21.81 43.1047 21.754 43.282C21.698 43.4593 21.586 43.6087 21.418 43.73C21.25 43.842 21.054 43.8933 20.83 43.884C20.6153 43.8653 20.396 43.7627 20.172 43.576C20.1907 43.296 20.144 43.0113 20.032 42.722C19.9293 42.4327 19.8033 42.1947 19.654 42.008L19.752 41.938ZM19.696 36.142C20.2653 36.1887 20.7087 36.2913 21.026 36.45C21.3527 36.5993 21.572 36.772 21.684 36.968C21.8053 37.164 21.8473 37.3553 21.81 37.542C21.7727 37.7287 21.6793 37.8873 21.53 38.018C21.3807 38.1393 21.1987 38.2047 20.984 38.214C20.7693 38.214 20.55 38.13 20.326 37.962C20.298 37.654 20.2093 37.3413 20.06 37.024C19.9107 36.6973 19.752 36.4267 19.584 36.212L19.696 36.142ZM26.962 38.844C26.962 38.844 27.0413 38.9093 27.2 39.04C27.368 39.1613 27.5687 39.3153 27.802 39.502C28.0353 39.6793 28.2453 39.852 28.432 40.02C28.3947 40.1693 28.2687 40.244 28.054 40.244H18.016L17.904 39.838H26.164L26.962 38.844ZM28.054 42.75C28.054 42.75 28.138 42.82 28.306 42.96C28.4833 43.0907 28.6887 43.2493 28.922 43.436C29.1647 43.6227 29.3793 43.8047 29.566 43.982C29.5287 44.1313 29.398 44.206 29.174 44.206H16.56L16.448 43.8H27.228L28.054 42.75ZM27.704 40.552C27.704 40.552 27.788 40.6173 27.956 40.748C28.1333 40.8787 28.3387 41.0373 28.572 41.224C28.8053 41.4107 29.0153 41.5927 29.202 41.77C29.1647 41.9193 29.034 41.994 28.81 41.994H17.064L16.952 41.588H26.878L27.704 40.552ZM27.438 37.136C27.438 37.136 27.522 37.1967 27.69 37.318C27.858 37.4393 28.0587 37.5887 28.292 37.766C28.5253 37.934 28.7353 38.102 28.922 38.27C28.8847 38.4193 28.7587 38.494 28.544 38.494H17.386L17.274 38.102H26.64L27.438 37.136ZM23.798 38.102V41.868H22.174V38.102H23.798ZM26.71 47.874V48.28H19.444V47.874H26.71ZM25.66 45.354L26.416 44.528L28.026 45.732C27.9887 45.7787 27.9233 45.83 27.83 45.886C27.7367 45.942 27.62 45.984 27.48 46.012V48.77C27.48 48.798 27.4007 48.84 27.242 48.896C27.0833 48.9613 26.8967 49.0173 26.682 49.064C26.4673 49.12 26.2713 49.148 26.094 49.148H25.8V45.354H25.66ZM20.284 48.714C20.284 48.7607 20.214 48.8213 20.074 48.896C19.934 48.98 19.7567 49.0547 19.542 49.12C19.3273 49.1853 19.1033 49.218 18.87 49.218H18.646V45.354V44.668L20.396 45.354H26.668V45.76H20.284V48.714ZM40.892 36.324C40.8827 36.3987 40.85 36.4593 40.794 36.506C40.7473 36.5527 40.6587 36.5853 40.528 36.604V40.09C40.528 40.1273 40.458 40.1787 40.318 40.244C40.178 40.3 40.0053 40.3513 39.8 40.398C39.5947 40.4447 39.3987 40.468 39.212 40.468H38.89V36.142L40.892 36.324ZM35.124 36.31C35.1147 36.3847 35.082 36.4453 35.026 36.492C34.9793 36.5387 34.886 36.5713 34.746 36.59V40.118C34.746 40.1553 34.676 40.2067 34.536 40.272C34.4053 40.3373 34.2373 40.3933 34.032 40.44C33.836 40.4867 33.6353 40.51 33.43 40.51H33.136V36.128L35.124 36.31ZM42.25 36.884C42.25 36.884 42.2967 36.9307 42.39 37.024C42.4927 37.108 42.6233 37.2153 42.782 37.346C42.9407 37.4767 43.0993 37.6213 43.258 37.78C43.426 37.9293 43.58 38.0693 43.72 38.2C43.6827 38.3493 43.5567 38.424 43.342 38.424H37.616L37.504 38.032H41.41L42.25 36.884ZM35.81 36.884C35.81 36.884 35.8613 36.9307 35.964 37.024C36.0667 37.108 36.1927 37.2153 36.342 37.346C36.5007 37.4767 36.664 37.6213 36.832 37.78C37 37.9293 37.154 38.0693 37.294 38.2C37.2567 38.3493 37.1307 38.424 36.916 38.424H30.616L30.504 38.032H34.998L35.81 36.884ZM38.036 40.258C37.9987 40.3327 37.938 40.3933 37.854 40.44C37.7793 40.4773 37.6533 40.4913 37.476 40.482C37.0653 41.2567 36.538 42.036 35.894 42.82C35.25 43.5947 34.48 44.3133 33.584 44.976C32.6973 45.6293 31.6707 46.166 30.504 46.586L30.406 46.446C31.33 45.858 32.1467 45.1627 32.856 44.36C33.5653 43.5573 34.1673 42.7173 34.662 41.84C35.1567 40.9533 35.5347 40.104 35.796 39.292L38.036 40.258ZM35.236 48.784C35.236 48.8213 35.18 48.8773 35.068 48.952C34.956 49.036 34.7927 49.1107 34.578 49.176C34.3727 49.2507 34.1253 49.288 33.836 49.288H33.514V44.08L33.934 43.534L35.418 44.08H35.236V48.784ZM41.648 40.524C41.648 40.524 41.6993 40.566 41.802 40.65C41.914 40.734 42.054 40.846 42.222 40.986C42.39 41.1167 42.5627 41.2613 42.74 41.42C42.9267 41.5693 43.0993 41.714 43.258 41.854C43.2487 41.9287 43.2067 41.9847 43.132 42.022C43.0573 42.0593 42.9687 42.078 42.866 42.078H30.896L30.784 41.672H40.752L41.648 40.524ZM39.534 44.08L40.318 43.226L41.956 44.472C41.9187 44.528 41.8487 44.584 41.746 44.64C41.6527 44.6867 41.5313 44.7287 41.382 44.766V48.77C41.382 48.798 41.3027 48.8447 41.144 48.91C40.9853 48.9753 40.794 49.036 40.57 49.092C40.3553 49.148 40.1547 49.176 39.968 49.176H39.674V44.08H39.534ZM40.682 44.08V44.486H34.284V44.08H40.682ZM40.682 47.692V48.098H34.172V47.692H40.682ZM51.826 36.73V47.23C51.826 47.6127 51.7747 47.944 51.672 48.224C51.5787 48.504 51.3687 48.728 51.042 48.896C50.7247 49.064 50.23 49.176 49.558 49.232C49.53 48.9613 49.488 48.728 49.432 48.532C49.376 48.336 49.2827 48.1727 49.152 48.042C49.0213 47.902 48.8533 47.79 48.648 47.706C48.4427 47.6127 48.1393 47.5333 47.738 47.468V47.272C47.738 47.272 47.8267 47.2767 48.004 47.286C48.1813 47.2953 48.3913 47.3093 48.634 47.328C48.886 47.3467 49.124 47.3607 49.348 47.37C49.572 47.3793 49.726 47.384 49.81 47.384C49.9407 47.384 50.0293 47.3607 50.076 47.314C50.1227 47.2673 50.146 47.1973 50.146 47.104V36.128L52.316 36.352C52.3067 36.4453 52.2693 36.5247 52.204 36.59C52.1387 36.6553 52.0127 36.702 51.826 36.73ZM44.616 40.23H48.62V40.636H44.742L44.616 40.23ZM47.948 40.23H47.794L48.634 39.362L50.118 40.65C50.0713 40.7153 50.006 40.762 49.922 40.79C49.8473 40.818 49.7307 40.8413 49.572 40.86C49.3573 41.7747 49.0447 42.6707 48.634 43.548C48.2233 44.4253 47.6773 45.2373 46.996 45.984C46.3147 46.7307 45.456 47.3747 44.42 47.916L44.294 47.762C45.0127 47.146 45.6147 46.4273 46.1 45.606C46.5947 44.7847 46.9913 43.9167 47.29 43.002C47.598 42.078 47.8173 41.154 47.948 40.23ZM51.826 38.158C52.0313 39.334 52.33 40.3607 52.722 41.238C53.1233 42.1153 53.5853 42.8713 54.108 43.506C54.64 44.1407 55.2093 44.682 55.816 45.13C56.4227 45.5687 57.034 45.9373 57.65 46.236L57.594 46.39C57.2487 46.4553 56.95 46.6233 56.698 46.894C56.4553 47.1553 56.2733 47.4773 56.152 47.86C55.5547 47.3747 55.018 46.8427 54.542 46.264C54.0753 45.6853 53.6553 45.0227 53.282 44.276C52.9087 43.52 52.5913 42.6473 52.33 41.658C52.0687 40.6687 51.8587 39.5253 51.7 38.228L51.826 38.158ZM55.41 38.494L57.342 39.726C57.2953 39.7913 57.2347 39.8427 57.16 39.88C57.0853 39.908 56.9593 39.9127 56.782 39.894C56.474 40.1553 56.11 40.4447 55.69 40.762C55.27 41.0793 54.822 41.392 54.346 41.7C53.87 42.008 53.3893 42.2927 52.904 42.554L52.778 42.414C53.1047 42.0313 53.436 41.602 53.772 41.126C54.108 40.65 54.4207 40.1787 54.71 39.712C54.9993 39.2453 55.2327 38.8393 55.41 38.494ZM63.81 44.766L63.628 44.36C64.132 44.108 64.5287 43.8373 64.818 43.548C65.1167 43.2493 65.322 42.8387 65.434 42.316L65.602 42.806C64.986 42.582 64.5333 42.3393 64.244 42.078C63.964 41.8167 63.824 41.5227 63.824 41.196C63.824 40.8507 63.9407 40.566 64.174 40.342C64.4073 40.1087 64.7013 39.992 65.056 39.992C65.2707 39.992 65.4573 40.02 65.616 40.076C65.7747 40.1227 65.9333 40.2113 66.092 40.342C66.176 40.5473 66.232 40.7293 66.26 40.888C66.288 41.0373 66.302 41.224 66.302 41.448C66.302 42.3067 66.0733 43.0207 65.616 43.59C65.168 44.15 64.566 44.542 63.81 44.766ZM78.104 36.296C78.916 36.576 79.5647 36.8933 80.05 37.248C80.5447 37.6027 80.904 37.9667 81.128 38.34C81.3613 38.704 81.4827 39.0493 81.492 39.376C81.5107 39.6933 81.45 39.9547 81.31 40.16C81.17 40.3653 80.9787 40.482 80.736 40.51C80.4933 40.538 80.232 40.4447 79.952 40.23C79.868 39.7913 79.7187 39.3433 79.504 38.886C79.2987 38.4287 79.0607 37.9853 78.79 37.556C78.5193 37.1267 78.244 36.7393 77.964 36.394L78.104 36.296ZM78.062 38.858C78.0527 38.9513 78.0107 39.0353 77.936 39.11C77.8613 39.1753 77.74 39.2173 77.572 39.236V46.488C77.572 46.656 77.6233 46.7727 77.726 46.838C77.838 46.9033 78.048 46.936 78.356 46.936H80.064C80.3907 46.936 80.6753 46.936 80.918 46.936C81.1607 46.9267 81.3473 46.9173 81.478 46.908C81.5993 46.8987 81.6927 46.88 81.758 46.852C81.8327 46.8147 81.898 46.754 81.954 46.67C82.0473 46.5207 82.1593 46.2547 82.29 45.872C82.4207 45.48 82.5607 45.018 82.71 44.486H82.864L82.92 46.768C83.172 46.8613 83.34 46.964 83.424 47.076C83.5173 47.1787 83.564 47.314 83.564 47.482C83.564 47.678 83.508 47.846 83.396 47.986C83.2933 48.126 83.1067 48.2427 82.836 48.336C82.5653 48.4293 82.1967 48.4947 81.73 48.532C81.2633 48.5787 80.6613 48.602 79.924 48.602H78.118C77.5673 48.602 77.1287 48.56 76.802 48.476C76.4847 48.392 76.256 48.2333 76.116 48C75.9853 47.7573 75.92 47.4167 75.92 46.978V38.648L78.062 38.858ZM82.5 40.622C83.228 41.07 83.8113 41.518 84.25 41.966C84.698 42.414 85.0293 42.8573 85.244 43.296C85.468 43.7253 85.5987 44.1267 85.636 44.5C85.6733 44.864 85.6407 45.1813 85.538 45.452C85.4447 45.7227 85.3093 45.928 85.132 46.068C84.964 46.1987 84.7727 46.2453 84.558 46.208C84.3433 46.1707 84.1427 46.026 83.956 45.774C83.9373 45.3167 83.872 44.794 83.76 44.206C83.648 43.618 83.48 43.0207 83.256 42.414C83.0413 41.798 82.7473 41.238 82.374 40.734L82.5 40.622ZM74.338 40.328C74.6833 41.168 74.884 41.9287 74.94 42.61C74.996 43.282 74.9587 43.8653 74.828 44.36C74.7067 44.8547 74.534 45.2607 74.31 45.578C74.1607 45.802 73.9833 45.9653 73.778 46.068C73.5727 46.1613 73.3673 46.194 73.162 46.166C72.966 46.138 72.798 46.0493 72.658 45.9C72.4807 45.704 72.4107 45.4893 72.448 45.256C72.4853 45.0133 72.5927 44.794 72.77 44.598C73.0033 44.3833 73.2273 44.0613 73.442 43.632C73.6567 43.1933 73.8293 42.694 73.96 42.134C74.1 41.5647 74.1607 40.9673 74.142 40.342L74.338 40.328ZM91.698 39.502V39.894H88.24L88.114 39.502H91.698ZM95.576 38.494C95.5667 38.5593 95.534 38.62 95.478 38.676C95.4313 38.7227 95.338 38.7553 95.198 38.774V40.622C95.198 40.65 95.1327 40.6873 95.002 40.734C94.8807 40.7713 94.7267 40.8087 94.54 40.846C94.3627 40.874 94.1853 40.888 94.008 40.888H93.686V38.312L95.576 38.494ZM92.552 38.466C92.5427 38.5407 92.51 38.606 92.454 38.662C92.4073 38.7087 92.3187 38.7413 92.188 38.76V40.664C92.188 40.6827 92.1273 40.7107 92.006 40.748C91.8847 40.776 91.7353 40.804 91.558 40.832C91.3807 40.86 91.2033 40.874 91.026 40.874H90.704V38.298L92.552 38.466ZM97.074 38.662C97.074 38.662 97.1487 38.7227 97.298 38.844C97.4473 38.956 97.6247 39.096 97.83 39.264C98.0353 39.432 98.2173 39.5953 98.376 39.754C98.3387 39.9033 98.2173 39.978 98.012 39.978H94.624L94.512 39.572H96.36L97.074 38.662ZM95.31 46.11C95.7953 46.0633 96.1827 46.0773 96.472 46.152C96.7613 46.2267 96.976 46.334 97.116 46.474C97.2653 46.614 97.3447 46.7633 97.354 46.922C97.3633 47.0713 97.3213 47.2113 97.228 47.342C97.1347 47.4633 97.0087 47.5473 96.85 47.594C96.7007 47.6313 96.5233 47.6033 96.318 47.51C96.234 47.2673 96.08 47.0293 95.856 46.796C95.6413 46.5533 95.422 46.362 95.198 46.222L95.31 46.11ZM92.496 45.34C92.412 45.8067 92.2813 46.2407 92.104 46.642C91.9267 47.0433 91.6467 47.4167 91.264 47.762C90.8813 48.098 90.34 48.3967 89.64 48.658C88.94 48.9287 88.016 49.1573 86.868 49.344L86.756 49.148C87.6053 48.896 88.2913 48.6253 88.814 48.336C89.3367 48.0467 89.738 47.7387 90.018 47.412C90.3073 47.0853 90.5127 46.7493 90.634 46.404C90.7553 46.0587 90.8393 45.704 90.886 45.34H92.496ZM94.736 45.326C94.736 45.4007 94.736 45.48 94.736 45.564C94.736 45.6387 94.736 45.7087 94.736 45.774V47.482C94.736 47.5753 94.7593 47.636 94.806 47.664C94.862 47.692 94.9973 47.706 95.212 47.706H96.528C96.752 47.706 96.962 47.706 97.158 47.706C97.354 47.706 97.4987 47.7013 97.592 47.692C97.6947 47.6827 97.7693 47.6687 97.816 47.65C97.8627 47.622 97.9093 47.5753 97.956 47.51C98.0307 47.4073 98.1193 47.2347 98.222 46.992C98.3247 46.74 98.4367 46.4367 98.558 46.082H98.712L98.754 47.566C98.9687 47.6407 99.1133 47.7247 99.188 47.818C99.2627 47.9113 99.3 48.0187 99.3 48.14C99.3 48.3267 99.2207 48.476 99.062 48.588C98.9127 48.7 98.6233 48.7747 98.194 48.812C97.774 48.8587 97.158 48.882 96.346 48.882H94.862C94.386 48.882 94.0267 48.8447 93.784 48.77C93.5413 48.7047 93.3733 48.5833 93.28 48.406C93.196 48.2287 93.154 47.986 93.154 47.678V45.326H94.736ZM90.144 45.914C90.144 45.9513 90.0787 46.012 89.948 46.096C89.8173 46.18 89.6447 46.2547 89.43 46.32C89.2247 46.376 89.01 46.404 88.786 46.404H88.562V41.098V40.44L90.256 41.098H96.542V41.504H90.144V45.914ZM95.478 41.098L96.22 40.314L97.732 41.462C97.6947 41.5087 97.634 41.56 97.55 41.616C97.466 41.6627 97.3587 41.6953 97.228 41.714V45.564C97.228 45.592 97.1533 45.6387 97.004 45.704C96.8547 45.76 96.6773 45.816 96.472 45.872C96.2667 45.928 96.0753 45.956 95.898 45.956H95.618V41.098H95.478ZM96.472 42.484V42.89H89.22V42.484H96.472ZM96.388 43.842V44.248H89.15V43.842H96.388ZM96.374 45.172V45.578H89.122V45.172H96.374ZM91.908 36.016C92.468 36.0253 92.8973 36.0907 93.196 36.212C93.504 36.3333 93.7093 36.4827 93.812 36.66C93.9147 36.8373 93.938 37.01 93.882 37.178C93.826 37.346 93.7187 37.486 93.56 37.598C93.4013 37.71 93.21 37.766 92.986 37.766C92.7713 37.766 92.5567 37.682 92.342 37.514C92.3327 37.2527 92.272 36.9913 92.16 36.73C92.048 36.4687 91.9267 36.254 91.796 36.086L91.908 36.016ZM97.522 37.71L98.264 36.94L99.608 38.214C99.5613 38.27 99.496 38.3073 99.412 38.326C99.3373 38.3447 99.2253 38.3587 99.076 38.368C98.8987 38.5173 98.67 38.676 98.39 38.844C98.11 39.0027 97.8487 39.1333 97.606 39.236L97.466 39.152C97.5033 38.9467 97.5453 38.704 97.592 38.424C97.6387 38.1347 97.6667 37.8967 97.676 37.71H97.522ZM88.184 36.968C88.3707 37.4253 88.464 37.8407 88.464 38.214C88.4733 38.578 88.4127 38.8813 88.282 39.124C88.1513 39.3667 87.9833 39.5393 87.778 39.642C87.638 39.7167 87.484 39.7493 87.316 39.74C87.148 39.7307 86.994 39.684 86.854 39.6C86.7233 39.5067 86.63 39.376 86.574 39.208C86.518 38.956 86.5507 38.7413 86.672 38.564C86.8027 38.3867 86.9753 38.256 87.19 38.172C87.3953 38.0787 87.5867 37.92 87.764 37.696C87.9413 37.4627 88.016 37.2247 87.988 36.982L88.184 36.968ZM98.138 37.71V38.102H88.198V37.71H98.138ZM107.56 38.438C107.756 39.5673 108.055 40.6127 108.456 41.574C108.857 42.526 109.333 43.394 109.884 44.178C110.435 44.962 111.037 45.6667 111.69 46.292C112.353 46.908 113.039 47.4447 113.748 47.902L113.664 48.042C113.309 48.042 112.978 48.14 112.67 48.336C112.371 48.5413 112.129 48.8213 111.942 49.176C111.121 48.4013 110.397 47.5053 109.772 46.488C109.156 45.4707 108.643 44.3087 108.232 43.002C107.821 41.686 107.518 40.1973 107.322 38.536L107.56 38.438ZM111.074 38.9L111.942 38.004L113.44 39.362C113.393 39.4367 113.328 39.4927 113.244 39.53C113.16 39.558 113.034 39.586 112.866 39.614C112.689 40.6593 112.441 41.6627 112.124 42.624C111.807 43.5853 111.368 44.486 110.808 45.326C110.257 46.166 109.539 46.9173 108.652 47.58C107.775 48.2333 106.683 48.7793 105.376 49.218L105.25 49.064C106.249 48.532 107.098 47.9067 107.798 47.188C108.507 46.4693 109.095 45.676 109.562 44.808C110.029 43.9307 110.397 42.9973 110.668 42.008C110.939 41.0093 111.135 39.9733 111.256 38.9H111.074ZM111.97 38.9V39.306H108.624L108.498 38.9H111.97ZM104.816 38.284C104.779 38.3773 104.695 38.4473 104.564 38.494C104.443 38.5407 104.261 38.5313 104.018 38.466L104.48 38.368C104.237 38.6853 103.929 39.0307 103.556 39.404C103.192 39.768 102.805 40.118 102.394 40.454C101.993 40.7807 101.615 41.0467 101.26 41.252V41.098H102.1C102.072 41.574 101.988 41.9613 101.848 42.26C101.717 42.5587 101.549 42.75 101.344 42.834L100.56 40.888C100.56 40.888 100.621 40.874 100.742 40.846C100.863 40.818 100.957 40.7807 101.022 40.734C101.181 40.6033 101.344 40.4073 101.512 40.146C101.68 39.8847 101.843 39.5953 102.002 39.278C102.161 38.9607 102.296 38.648 102.408 38.34C102.529 38.032 102.618 37.766 102.674 37.542L104.816 38.284ZM100.896 40.902C101.204 40.8833 101.624 40.846 102.156 40.79C102.697 40.7247 103.299 40.65 103.962 40.566C104.634 40.482 105.32 40.3933 106.02 40.3L106.048 40.468C105.591 40.6827 104.961 40.9673 104.158 41.322C103.365 41.6673 102.473 42.0267 101.484 42.4L100.896 40.902ZM110.892 36.478C110.873 36.562 110.817 36.6367 110.724 36.702C110.64 36.758 110.519 36.7907 110.36 36.8C110.136 37.7987 109.851 38.7367 109.506 39.614C109.17 40.482 108.783 41.28 108.344 42.008C107.905 42.7267 107.411 43.366 106.86 43.926L106.678 43.814C106.995 43.142 107.289 42.386 107.56 41.546C107.84 40.6967 108.078 39.8007 108.274 38.858C108.479 37.906 108.629 36.954 108.722 36.002L110.892 36.478ZM100.378 47.132C100.761 47.0853 101.311 47.0107 102.03 46.908C102.749 46.8053 103.561 46.6793 104.466 46.53C105.371 46.3807 106.305 46.222 107.266 46.054L107.294 46.222C106.697 46.5393 105.936 46.9033 105.012 47.314C104.097 47.7247 102.973 48.196 101.638 48.728C101.554 48.9147 101.423 49.0313 101.246 49.078L100.378 47.132ZM104.634 38.984C105.241 39.2173 105.717 39.4787 106.062 39.768C106.417 40.0573 106.664 40.3467 106.804 40.636C106.944 40.9253 107.005 41.1913 106.986 41.434C106.967 41.6767 106.888 41.8727 106.748 42.022C106.617 42.162 106.449 42.2367 106.244 42.246C106.048 42.2553 105.838 42.162 105.614 41.966C105.577 41.6393 105.497 41.3033 105.376 40.958C105.264 40.6127 105.129 40.2767 104.97 39.95C104.811 39.614 104.653 39.3153 104.494 39.054L104.634 38.984ZM104.984 42.12C104.965 42.204 104.923 42.2787 104.858 42.344C104.802 42.4093 104.685 42.4513 104.508 42.47V47.006L102.856 47.37V41.938L104.984 42.12ZM105.614 43.1C105.614 43.1 105.693 43.1747 105.852 43.324C106.011 43.464 106.197 43.6367 106.412 43.842C106.627 44.038 106.813 44.22 106.972 44.388C106.935 44.5373 106.809 44.612 106.594 44.612H100.896L100.784 44.22H104.858L105.614 43.1ZM105.838 36.17C105.838 36.17 105.889 36.2167 105.992 36.31C106.104 36.394 106.244 36.506 106.412 36.646C106.58 36.786 106.753 36.9353 106.93 37.094C107.117 37.2527 107.285 37.402 107.434 37.542C107.397 37.6913 107.261 37.766 107.028 37.766H100.574L100.462 37.374H104.942L105.838 36.17ZM117.122 45.55C117.43 46.11 117.799 46.5253 118.228 46.796C118.667 47.0573 119.194 47.23 119.81 47.314C120.435 47.3887 121.191 47.426 122.078 47.426C122.395 47.426 122.801 47.426 123.296 47.426C123.791 47.426 124.313 47.426 124.864 47.426C125.424 47.426 125.951 47.426 126.446 47.426C126.95 47.4167 127.365 47.4073 127.692 47.398V47.566C127.421 47.6313 127.221 47.7807 127.09 48.014C126.959 48.2473 126.894 48.5133 126.894 48.812C126.623 48.812 126.273 48.812 125.844 48.812C125.424 48.812 124.971 48.812 124.486 48.812C124.01 48.812 123.557 48.812 123.128 48.812C122.699 48.812 122.344 48.812 122.064 48.812C121.121 48.812 120.323 48.7233 119.67 48.546C119.026 48.3687 118.489 48.0513 118.06 47.594C117.631 47.1367 117.271 46.4833 116.982 45.634L117.122 45.55ZM118.13 40.384C118.037 40.552 117.906 40.7667 117.738 41.028C117.579 41.28 117.407 41.5507 117.22 41.84C117.043 42.12 116.865 42.3907 116.688 42.652C116.52 42.904 116.366 43.1233 116.226 43.31H116.324L115.848 43.758L114.644 42.876C114.737 42.8013 114.868 42.7313 115.036 42.666C115.213 42.6007 115.372 42.554 115.512 42.526L114.952 42.932C115.101 42.7453 115.265 42.5213 115.442 42.26C115.629 41.9893 115.815 41.7047 116.002 41.406C116.189 41.1073 116.361 40.8227 116.52 40.552C116.679 40.272 116.809 40.034 116.912 39.838L118.13 40.384ZM116.8 39.838L117.444 39.18L118.746 40.356C118.634 40.4773 118.415 40.552 118.088 40.58C117.771 40.5987 117.458 40.5847 117.15 40.538L116.982 39.838H116.8ZM117.024 42.96L117.78 42.204L119.096 43.338C119.021 43.4407 118.844 43.506 118.564 43.534C118.368 44.2527 118.093 44.962 117.738 45.662C117.383 46.362 116.935 47.0247 116.394 47.65C115.853 48.2753 115.199 48.8213 114.434 49.288L114.294 49.134C114.817 48.602 115.269 47.9953 115.652 47.314C116.044 46.6327 116.366 45.9187 116.618 45.172C116.87 44.416 117.052 43.6787 117.164 42.96H117.024ZM117.234 39.838V40.244H114.728L114.602 39.838H117.234ZM117.696 42.96V43.366H115.736L115.904 42.96H117.696ZM115.26 36.128C115.885 36.24 116.375 36.4033 116.73 36.618C117.085 36.8233 117.332 37.0473 117.472 37.29C117.621 37.5327 117.687 37.766 117.668 37.99C117.649 38.2047 117.57 38.3867 117.43 38.536C117.299 38.6853 117.127 38.7693 116.912 38.788C116.707 38.7973 116.487 38.718 116.254 38.55C116.226 38.27 116.151 37.99 116.03 37.71C115.918 37.4207 115.783 37.15 115.624 36.898C115.465 36.6367 115.302 36.4033 115.134 36.198L115.26 36.128ZM121.756 43.758V45.032H120.314V44.472L121.756 43.758ZM120.188 46.166C120.384 46.1193 120.659 46.0447 121.014 45.942C121.378 45.8393 121.784 45.7227 122.232 45.592C122.68 45.452 123.133 45.3073 123.59 45.158L123.646 45.34C123.459 45.4707 123.207 45.648 122.89 45.872C122.582 46.0867 122.232 46.3293 121.84 46.6C121.457 46.8613 121.056 47.1227 120.636 47.384L120.188 46.166ZM121.406 44.584L121.756 44.794V46.236L120.524 46.684L120.972 46.236C121.065 46.6093 121.051 46.908 120.93 47.132C120.818 47.3467 120.697 47.496 120.566 47.58L119.782 46.376C120.015 46.2267 120.16 46.11 120.216 46.026C120.281 45.942 120.314 45.8393 120.314 45.718V44.584H121.406ZM127.44 43.688C127.393 43.7533 127.319 43.8 127.216 43.828C127.113 43.856 126.987 43.842 126.838 43.786C126.483 43.9633 126.115 44.136 125.732 44.304C125.359 44.472 125.009 44.612 124.682 44.724L124.528 44.556C124.733 44.332 124.962 44.0473 125.214 43.702C125.475 43.3473 125.737 42.9833 125.998 42.61L127.44 43.688ZM122.75 43.646C123.627 43.8793 124.337 44.1407 124.878 44.43C125.429 44.71 125.839 44.9993 126.11 45.298C126.39 45.5873 126.558 45.858 126.614 46.11C126.67 46.3527 126.651 46.558 126.558 46.726C126.465 46.894 126.32 46.9967 126.124 47.034C125.937 47.0713 125.737 47.0247 125.522 46.894C125.391 46.6513 125.186 46.362 124.906 46.026C124.635 45.6807 124.304 45.3167 123.912 44.934C123.529 44.5513 123.1 44.1873 122.624 43.842L122.75 43.646ZM123.324 42.736C122.801 43.4173 122.101 44.01 121.224 44.514C120.356 45.018 119.409 45.4333 118.382 45.76L118.256 45.564C118.975 45.172 119.619 44.7053 120.188 44.164C120.757 43.6227 121.219 43.072 121.574 42.512H123.324V42.736ZM125.928 38.214C125.928 38.214 126.007 38.2793 126.166 38.41C126.334 38.5313 126.53 38.6807 126.754 38.858C126.978 39.026 127.179 39.194 127.356 39.362C127.328 39.5113 127.207 39.586 126.992 39.586H118.648L118.536 39.194H125.144L125.928 38.214ZM125.312 36.646C125.312 36.646 125.387 36.7067 125.536 36.828C125.695 36.94 125.881 37.08 126.096 37.248C126.311 37.4067 126.502 37.5653 126.67 37.724C126.633 37.8733 126.507 37.948 126.292 37.948H119.152L119.04 37.542H124.57L125.312 36.646ZM123.814 36.268C123.805 36.352 123.772 36.422 123.716 36.478C123.66 36.534 123.562 36.5713 123.422 36.59V39.446H121.896V36.1L123.814 36.268ZM121.07 42.946C121.07 42.9833 121.005 43.0393 120.874 43.114C120.753 43.1793 120.594 43.24 120.398 43.296C120.202 43.352 120.001 43.38 119.796 43.38H119.586V40.482V39.866L121.14 40.482H125.34V40.874H121.07V42.946ZM124.164 40.482L124.836 39.768L126.264 40.832C126.227 40.8787 126.161 40.9253 126.068 40.972C125.975 41.0187 125.867 41.056 125.746 41.084V42.848C125.746 42.876 125.676 42.9273 125.536 43.002C125.405 43.0767 125.247 43.1467 125.06 43.212C124.883 43.268 124.71 43.296 124.542 43.296H124.304V40.482H124.164ZM125.256 42.4V42.806H120.118V42.4H125.256Z" fill="white"/>
<path d="M212.708 11.328C212.7 11.408 212.66 11.48 212.588 11.544C212.524 11.6 212.42 11.64 212.276 11.664V12.096H211.304V11.388V11.184L212.708 11.328ZM212.036 11.76L212.276 11.904V21.168H212.36L212.012 21.696L210.968 21.036C211.032 20.956 211.12 20.876 211.232 20.796C211.344 20.716 211.444 20.66 211.532 20.628L211.304 21.024V11.76H212.036ZM219.152 19.932C219.152 19.932 219.192 19.968 219.272 20.04C219.36 20.104 219.464 20.188 219.584 20.292C219.712 20.396 219.844 20.508 219.98 20.628C220.124 20.748 220.252 20.864 220.364 20.976C220.332 21.104 220.228 21.168 220.052 21.168H211.832V20.808H218.468L219.152 19.932ZM217.844 17.856V18.216H214.76V17.856H217.844ZM219.524 13.62C219.524 13.62 219.56 13.652 219.632 13.716C219.712 13.772 219.812 13.852 219.932 13.956C220.052 14.052 220.176 14.156 220.304 14.268C220.44 14.38 220.556 14.488 220.652 14.592C220.628 14.72 220.524 14.784 220.34 14.784H209.54L209.432 14.436H218.9L219.524 13.62ZM215.696 11.1C215.68 11.18 215.64 11.252 215.576 11.316C215.512 11.372 215.404 11.412 215.252 11.436V18.996C215.252 19.036 215.212 19.084 215.132 19.14C215.06 19.188 214.964 19.232 214.844 19.272C214.724 19.312 214.6 19.332 214.472 19.332H214.292V10.956L215.696 11.1ZM218.804 11.28C218.796 11.36 218.76 11.428 218.696 11.484C218.632 11.54 218.52 11.58 218.36 11.604V18.72C218.36 18.76 218.32 18.808 218.24 18.864C218.168 18.912 218.072 18.956 217.952 18.996C217.832 19.028 217.708 19.044 217.58 19.044H217.4V11.136L218.804 11.28ZM226.52 11.64H227.456V15.708H226.52V11.64ZM229.988 11.604H229.868L230.372 11.052L231.452 11.88C231.42 11.928 231.356 11.976 231.26 12.024C231.172 12.064 231.072 12.096 230.96 12.12V16.116C230.96 16.148 230.912 16.188 230.816 16.236C230.72 16.276 230.608 16.316 230.48 16.356C230.36 16.388 230.248 16.404 230.144 16.404H229.988V11.604ZM223.64 13.524H230.54V13.872H223.64V13.524ZM223.628 15.54H230.54V15.876H223.628V15.54ZM223.124 11.604V11.16L224.156 11.604H230.54V11.952H224.084V16.188C224.084 16.22 224.044 16.264 223.964 16.32C223.884 16.368 223.784 16.412 223.664 16.452C223.544 16.492 223.416 16.512 223.28 16.512H223.124V11.604ZM225.548 15.6H226.676V15.792C226.164 16.544 225.472 17.18 224.6 17.7C223.728 18.212 222.712 18.616 221.552 18.912L221.456 18.732C222.384 18.38 223.196 17.936 223.892 17.4C224.596 16.864 225.148 16.264 225.548 15.6ZM227.9 15.588C228.196 15.98 228.596 16.324 229.1 16.62C229.612 16.916 230.172 17.164 230.78 17.364C231.396 17.564 232 17.72 232.592 17.832L232.58 17.952C232.38 17.992 232.216 18.088 232.088 18.24C231.96 18.392 231.872 18.584 231.824 18.816C231.248 18.624 230.696 18.38 230.168 18.084C229.648 17.788 229.176 17.444 228.752 17.052C228.336 16.652 227.996 16.204 227.732 15.708L227.9 15.588ZM228.164 17.172L229.448 17.304C229.44 17.368 229.412 17.424 229.364 17.472C229.316 17.512 229.232 17.54 229.112 17.556V21.672C229.112 21.704 229.072 21.744 228.992 21.792C228.912 21.84 228.812 21.88 228.692 21.912C228.572 21.952 228.46 21.972 228.356 21.972H228.164V17.172ZM224.9 17.172L226.244 17.316C226.236 17.38 226.204 17.44 226.148 17.496C226.092 17.552 225.992 17.588 225.848 17.604V18.564C225.84 18.892 225.784 19.224 225.68 19.56C225.584 19.896 225.4 20.216 225.128 20.52C224.856 20.824 224.472 21.1 223.976 21.348C223.48 21.604 222.828 21.816 222.02 21.984L221.924 21.828C222.54 21.628 223.044 21.404 223.436 21.156C223.836 20.908 224.14 20.64 224.348 20.352C224.556 20.064 224.7 19.768 224.78 19.464C224.86 19.152 224.9 18.844 224.9 18.54V17.172ZM235.172 13.044C235.316 12.98 235.468 12.92 235.628 12.864C235.796 12.8 235.94 12.768 236.06 12.768C236.196 12.768 236.344 12.8 236.504 12.864C236.664 12.92 236.816 13 236.96 13.104C237.104 13.2 237.22 13.3 237.308 13.404C237.396 13.508 237.44 13.6 237.44 13.68C237.44 13.752 237.416 13.828 237.368 13.908C237.328 13.98 237.284 14.06 237.236 14.148C237.188 14.228 237.156 14.336 237.14 14.472C237.124 14.6 237.108 14.812 237.092 15.108C237.084 15.404 237.072 15.748 237.056 16.14C237.048 16.532 237.036 16.932 237.02 17.34C237.012 17.748 237.004 18.128 236.996 18.48C236.996 18.832 236.996 19.12 236.996 19.344C236.996 19.456 237.044 19.5 237.14 19.476C237.556 19.348 237.996 19.172 238.46 18.948C238.932 18.724 239.412 18.468 239.9 18.18C240.388 17.892 240.864 17.58 241.328 17.244C241.8 16.908 242.248 16.564 242.672 16.212C243.096 15.852 243.476 15.496 243.812 15.144L244.028 15.36C243.284 16.392 242.36 17.336 241.256 18.192C240.152 19.048 238.956 19.796 237.668 20.436C237.54 20.508 237.444 20.584 237.38 20.664C237.316 20.736 237.256 20.8 237.2 20.856C237.144 20.912 237.068 20.94 236.972 20.94C236.892 20.94 236.792 20.9 236.672 20.82C236.56 20.74 236.448 20.644 236.336 20.532C236.224 20.412 236.132 20.292 236.06 20.172C235.988 20.052 235.952 19.956 235.952 19.884C235.952 19.78 235.988 19.672 236.06 19.56C236.132 19.448 236.172 19.292 236.18 19.092C236.18 18.956 236.184 18.752 236.192 18.48C236.2 18.208 236.204 17.9 236.204 17.556C236.204 17.212 236.204 16.856 236.204 16.488C236.204 16.12 236.2 15.764 236.192 15.42C236.192 15.068 236.188 14.756 236.18 14.484C236.18 14.204 236.172 13.988 236.156 13.836C236.156 13.748 236.132 13.672 236.084 13.608C236.044 13.536 235.956 13.472 235.82 13.416C235.684 13.36 235.472 13.304 235.184 13.248L235.172 13.044ZM253.676 14.904C253.54 14.72 253.38 14.524 253.196 14.316C253.02 14.108 252.78 13.892 252.476 13.668L252.62 13.476C252.964 13.588 253.264 13.72 253.52 13.872C253.784 14.024 253.996 14.172 254.156 14.316C254.484 14.596 254.64 14.864 254.624 15.12C254.616 15.224 254.58 15.304 254.516 15.36C254.46 15.416 254.38 15.444 254.276 15.444C254.18 15.444 254.088 15.396 254 15.3C253.912 15.196 253.804 15.064 253.676 14.904ZM254.876 13.836C254.74 13.66 254.568 13.472 254.36 13.272C254.16 13.072 253.904 12.872 253.592 12.672L253.736 12.48C254.096 12.576 254.404 12.688 254.66 12.816C254.916 12.944 255.124 13.072 255.284 13.2C255.636 13.496 255.812 13.784 255.812 14.064C255.812 14.16 255.78 14.24 255.716 14.304C255.66 14.36 255.584 14.388 255.488 14.388C255.384 14.388 255.288 14.34 255.2 14.244C255.112 14.14 255.004 14.004 254.876 13.836ZM245.6 16.812L245.78 16.668C245.916 16.78 246.052 16.876 246.188 16.956C246.324 17.028 246.436 17.064 246.524 17.064C246.612 17.064 246.7 17.04 246.788 16.992C246.884 16.936 246.996 16.848 247.124 16.728C247.268 16.6 247.432 16.44 247.616 16.248C247.8 16.056 247.984 15.856 248.168 15.648C248.36 15.44 248.54 15.248 248.708 15.072C248.876 14.888 249.008 14.748 249.104 14.652C249.24 14.508 249.372 14.396 249.5 14.316C249.636 14.228 249.78 14.184 249.932 14.184C250.108 14.184 250.276 14.22 250.436 14.292C250.596 14.364 250.768 14.492 250.952 14.676C251.472 15.188 252.008 15.704 252.56 16.224C253.112 16.736 253.656 17.22 254.192 17.676C254.728 18.132 255.228 18.516 255.692 18.828C255.868 18.94 256.004 19.084 256.1 19.26C256.196 19.428 256.244 19.604 256.244 19.788C256.244 19.924 256.204 20.036 256.124 20.124C256.052 20.204 255.952 20.244 255.824 20.244C255.64 20.244 255.396 20.128 255.092 19.896C254.796 19.664 254.436 19.34 254.012 18.924C253.868 18.772 253.68 18.58 253.448 18.348C253.216 18.108 252.964 17.848 252.692 17.568C252.428 17.28 252.16 16.992 251.888 16.704C251.616 16.416 251.356 16.148 251.108 15.9C250.868 15.652 250.664 15.444 250.496 15.276C250.384 15.164 250.288 15.084 250.208 15.036C250.128 14.988 250.048 14.964 249.968 14.964C249.904 14.964 249.836 14.984 249.764 15.024C249.7 15.064 249.62 15.14 249.524 15.252C249.428 15.364 249.304 15.516 249.152 15.708C249.008 15.9 248.852 16.108 248.684 16.332C248.524 16.548 248.364 16.76 248.204 16.968C248.052 17.176 247.924 17.348 247.82 17.484C247.684 17.676 247.556 17.836 247.436 17.964C247.324 18.092 247.18 18.156 247.004 18.156C246.82 18.156 246.616 18.088 246.392 17.952C246.176 17.816 246.004 17.664 245.876 17.496C245.796 17.408 245.736 17.308 245.696 17.196C245.656 17.076 245.624 16.948 245.6 16.812ZM262.1 12.876C262.26 12.804 262.404 12.756 262.532 12.732C262.66 12.708 262.792 12.696 262.928 12.696C263.064 12.696 263.208 12.724 263.36 12.78C263.52 12.828 263.672 12.896 263.816 12.984C263.96 13.064 264.076 13.152 264.164 13.248C264.252 13.336 264.296 13.42 264.296 13.5C264.296 13.588 264.272 13.66 264.224 13.716C264.184 13.764 264.14 13.824 264.092 13.896C264.044 13.96 264.012 14.056 263.996 14.184C263.98 14.304 263.964 14.508 263.948 14.796C263.94 15.084 263.928 15.416 263.912 15.792C263.896 16.16 263.884 16.536 263.876 16.92C263.868 17.304 263.86 17.656 263.852 17.976C263.844 18.296 263.84 18.548 263.84 18.732C263.84 18.884 263.912 18.932 264.056 18.876C264.6 18.652 265.136 18.372 265.664 18.036C266.2 17.7 266.712 17.336 267.2 16.944C267.688 16.544 268.128 16.14 268.52 15.732L268.76 15.924C268.416 16.428 268.004 16.92 267.524 17.4C267.052 17.88 266.548 18.328 266.012 18.744C265.476 19.16 264.94 19.528 264.404 19.848C264.308 19.896 264.224 19.964 264.152 20.052C264.08 20.14 264.008 20.216 263.936 20.28C263.864 20.344 263.78 20.376 263.684 20.376C263.604 20.376 263.512 20.34 263.408 20.268C263.312 20.196 263.22 20.108 263.132 20.004C263.044 19.9 262.968 19.796 262.904 19.692C262.848 19.588 262.82 19.504 262.82 19.44C262.82 19.36 262.832 19.292 262.856 19.236C262.88 19.172 262.908 19.096 262.94 19.008C262.972 18.92 262.992 18.796 263 18.636C263.008 18.508 263.016 18.292 263.024 17.988C263.04 17.684 263.052 17.332 263.06 16.932C263.068 16.532 263.072 16.124 263.072 15.708C263.08 15.292 263.08 14.904 263.072 14.544C263.072 14.176 263.064 13.876 263.048 13.644C263.04 13.484 262.956 13.364 262.796 13.284C262.644 13.204 262.416 13.148 262.112 13.116L262.1 12.876ZM259.676 14.424V14.184C259.78 14.152 259.896 14.124 260.024 14.1C260.16 14.068 260.3 14.056 260.444 14.064C260.556 14.072 260.688 14.104 260.84 14.16C261 14.216 261.152 14.292 261.296 14.388C261.448 14.476 261.572 14.572 261.668 14.676C261.764 14.78 261.812 14.884 261.812 14.988C261.812 15.116 261.772 15.224 261.692 15.312C261.612 15.4 261.556 15.52 261.524 15.672C261.388 16.304 261.164 16.936 260.852 17.568C260.54 18.192 260.12 18.788 259.592 19.356C259.072 19.924 258.432 20.432 257.672 20.88L257.48 20.652C257.952 20.26 258.376 19.824 258.752 19.344C259.136 18.864 259.46 18.368 259.724 17.856C259.996 17.344 260.204 16.848 260.348 16.368C260.492 15.888 260.564 15.452 260.564 15.06C260.564 14.94 260.512 14.84 260.408 14.76C260.312 14.672 260.192 14.604 260.048 14.556C259.912 14.5 259.788 14.456 259.676 14.424ZM274.76 12.936C274.872 13.064 274.98 13.208 275.084 13.368C275.188 13.52 275.272 13.684 275.336 13.86C275.408 14.036 275.444 14.212 275.444 14.388C275.444 14.684 275.412 15.004 275.348 15.348C275.284 15.684 275.188 16.028 275.06 16.38C274.964 16.676 274.832 16.996 274.664 17.34C274.496 17.676 274.304 18.008 274.088 18.336C273.88 18.664 273.652 18.964 273.404 19.236C273.164 19.508 272.916 19.728 272.66 19.896C272.404 20.056 272.144 20.136 271.88 20.136C271.672 20.136 271.464 20.06 271.256 19.908C271.056 19.756 270.876 19.548 270.716 19.284C270.556 19.02 270.424 18.716 270.32 18.372C270.224 18.028 270.176 17.668 270.176 17.292C270.176 16.9 270.236 16.5 270.356 16.092C270.484 15.684 270.672 15.292 270.92 14.916C271.168 14.532 271.472 14.184 271.832 13.872C272.32 13.44 272.864 13.12 273.464 12.912C274.072 12.696 274.708 12.588 275.372 12.588C276.012 12.588 276.604 12.692 277.148 12.9C277.692 13.1 278.164 13.388 278.564 13.764C278.964 14.132 279.276 14.572 279.5 15.084C279.732 15.596 279.848 16.164 279.848 16.788C279.848 17.3 279.756 17.804 279.572 18.3C279.388 18.788 279.088 19.232 278.672 19.632C278.264 20.032 277.72 20.364 277.04 20.628C276.368 20.884 275.536 21.04 274.544 21.096L274.496 20.832C275.488 20.64 276.3 20.348 276.932 19.956C277.564 19.556 278.032 19.068 278.336 18.492C278.648 17.916 278.804 17.268 278.804 16.548C278.804 15.828 278.648 15.204 278.336 14.676C278.032 14.148 277.612 13.74 277.076 13.452C276.548 13.164 275.952 13.02 275.288 13.02C274.736 13.02 274.18 13.136 273.62 13.368C273.06 13.592 272.572 13.916 272.156 14.34C271.788 14.716 271.496 15.132 271.28 15.588C271.072 16.044 270.968 16.532 270.968 17.052C270.968 17.412 271.016 17.744 271.112 18.048C271.208 18.344 271.332 18.58 271.484 18.756C271.636 18.932 271.792 19.02 271.952 19.02C272.144 19.02 272.348 18.924 272.564 18.732C272.788 18.532 273.008 18.28 273.224 17.976C273.44 17.672 273.636 17.36 273.812 17.04C273.996 16.712 274.148 16.416 274.268 16.152C274.396 15.848 274.504 15.52 274.592 15.168C274.68 14.816 274.724 14.496 274.724 14.208C274.724 13.976 274.684 13.768 274.604 13.584C274.524 13.392 274.424 13.204 274.304 13.02L274.76 12.936ZM281.564 21.18H290.492L291.176 20.304C291.176 20.304 291.216 20.336 291.296 20.4C291.384 20.464 291.492 20.548 291.62 20.652C291.756 20.756 291.896 20.872 292.04 21C292.184 21.12 292.316 21.232 292.436 21.336C292.404 21.464 292.292 21.528 292.1 21.528H281.672L281.564 21.18ZM286.532 14.028L287.972 14.172C287.956 14.252 287.916 14.32 287.852 14.376C287.788 14.432 287.68 14.476 287.528 14.508V21.36H286.532V14.028ZM283.52 16.236L284.912 16.38C284.904 16.46 284.864 16.532 284.792 16.596C284.728 16.652 284.624 16.692 284.48 16.716V21.372H283.52V16.236ZM287.168 17.196H289.256L289.928 16.332C289.928 16.332 289.968 16.364 290.048 16.428C290.136 16.492 290.244 16.58 290.372 16.692C290.5 16.796 290.632 16.908 290.768 17.028C290.912 17.14 291.04 17.252 291.152 17.364C291.12 17.484 291.012 17.544 290.828 17.544H287.168V17.196ZM287.312 11.64C287.016 12.088 286.648 12.544 286.208 13.008C285.776 13.472 285.296 13.928 284.768 14.376C284.24 14.816 283.688 15.228 283.112 15.612C282.544 15.988 281.98 16.312 281.42 16.584L281.324 16.416C281.724 16.168 282.132 15.872 282.548 15.528C282.972 15.176 283.384 14.804 283.784 14.412C284.184 14.012 284.556 13.604 284.9 13.188C285.252 12.772 285.556 12.36 285.812 11.952C286.068 11.544 286.26 11.168 286.388 10.824L288.044 11.244C288.02 11.316 287.968 11.372 287.888 11.412C287.808 11.444 287.688 11.468 287.528 11.484C287.808 11.86 288.14 12.224 288.524 12.576C288.908 12.92 289.328 13.248 289.784 13.56C290.24 13.864 290.716 14.148 291.212 14.412C291.708 14.668 292.208 14.9 292.712 15.108L292.7 15.3C292.556 15.332 292.42 15.392 292.292 15.48C292.172 15.568 292.072 15.672 291.992 15.792C291.912 15.912 291.86 16.036 291.836 16.164C291.204 15.812 290.596 15.4 290.012 14.928C289.428 14.456 288.9 13.94 288.428 13.38C287.964 12.82 287.592 12.24 287.312 11.64ZM300.068 19.128C300.876 19.28 301.536 19.444 302.048 19.62C302.568 19.796 302.972 19.976 303.26 20.16C303.556 20.344 303.76 20.524 303.872 20.7C303.984 20.868 304.028 21.012 304.004 21.132C303.988 21.26 303.924 21.36 303.812 21.432C303.708 21.504 303.584 21.532 303.44 21.516C303.296 21.5 303.16 21.432 303.032 21.312C302.744 21.008 302.344 20.68 301.832 20.328C301.32 19.968 300.712 19.628 300.008 19.308L300.068 19.128ZM297.992 19.656C297.944 19.712 297.884 19.748 297.812 19.764C297.748 19.772 297.656 19.76 297.536 19.728C297.168 20.04 296.748 20.32 296.276 20.568C295.812 20.816 295.34 21.024 294.86 21.192C294.38 21.368 293.928 21.5 293.504 21.588L293.444 21.408C293.82 21.232 294.208 21.016 294.608 20.76C295.016 20.504 295.416 20.216 295.808 19.896C296.208 19.568 296.572 19.22 296.9 18.852L297.992 19.656ZM299.444 21.72C299.444 21.744 299.372 21.792 299.228 21.864C299.084 21.944 298.888 21.984 298.64 21.984H298.484V15.384H299.444V21.72ZM300.86 11.04C300.852 11.12 300.82 11.188 300.764 11.244C300.708 11.292 300.612 11.324 300.476 11.34V13.5H299.588V10.92L300.86 11.04ZM298.82 11.04C298.812 11.12 298.78 11.184 298.724 11.232C298.668 11.28 298.572 11.316 298.436 11.34V13.5H297.572V10.92L298.82 11.04ZM301.916 14.016C301.892 14.08 301.84 14.136 301.76 14.184C301.688 14.224 301.588 14.236 301.46 14.22C301.276 14.412 301.052 14.616 300.788 14.832C300.524 15.048 300.26 15.244 299.996 15.42H299.744C299.904 15.172 300.064 14.88 300.224 14.544C300.392 14.208 300.528 13.9 300.632 13.62L301.916 14.016ZM303.38 11.592C303.348 11.648 303.292 11.696 303.212 11.736C303.132 11.768 303.028 11.78 302.9 11.772C302.668 12.036 302.376 12.328 302.024 12.648C301.68 12.96 301.336 13.24 300.992 13.488H300.74C300.908 13.272 301.072 13.028 301.232 12.756C301.4 12.476 301.56 12.196 301.712 11.916C301.864 11.628 301.996 11.364 302.108 11.124L303.38 11.592ZM296.54 13.68C296.908 13.768 297.196 13.884 297.404 14.028C297.612 14.164 297.756 14.308 297.836 14.46C297.924 14.604 297.96 14.744 297.944 14.88C297.936 15.008 297.888 15.112 297.8 15.192C297.72 15.272 297.616 15.316 297.488 15.324C297.368 15.332 297.244 15.28 297.116 15.168C297.1 14.928 297.016 14.676 296.864 14.412C296.72 14.14 296.568 13.924 296.408 13.764L296.54 13.68ZM295.04 11.196C295.456 11.316 295.788 11.46 296.036 11.628C296.284 11.796 296.464 11.968 296.576 12.144C296.688 12.312 296.744 12.476 296.744 12.636C296.744 12.788 296.704 12.916 296.624 13.02C296.552 13.116 296.452 13.168 296.324 13.176C296.204 13.184 296.076 13.136 295.94 13.032C295.916 12.832 295.848 12.624 295.736 12.408C295.632 12.192 295.508 11.988 295.364 11.796C295.22 11.596 295.072 11.428 294.92 11.292L295.04 11.196ZM302.192 16.044C302.192 16.044 302.248 16.088 302.36 16.176C302.48 16.264 302.62 16.372 302.78 16.5C302.94 16.628 303.088 16.752 303.224 16.872C303.192 17 303.084 17.064 302.9 17.064H294.992L294.896 16.716H301.628L302.192 16.044ZM302.804 14.544C302.804 14.544 302.864 14.592 302.984 14.688C303.112 14.776 303.26 14.888 303.428 15.024C303.596 15.16 303.748 15.292 303.884 15.42C303.86 15.548 303.76 15.612 303.584 15.612H294.404L294.308 15.264H302.216L302.804 14.544ZM303.284 17.412C303.284 17.412 303.32 17.44 303.392 17.496C303.472 17.552 303.568 17.628 303.68 17.724C303.8 17.812 303.924 17.908 304.052 18.012C304.188 18.116 304.308 18.216 304.412 18.312C304.38 18.44 304.272 18.504 304.088 18.504H293.84L293.732 18.156H302.684L303.284 17.412ZM303.368 12.624C303.368 12.624 303.428 12.672 303.548 12.768C303.676 12.856 303.824 12.968 303.992 13.104C304.168 13.24 304.328 13.372 304.472 13.5C304.44 13.628 304.332 13.692 304.148 13.692H293.696L293.588 13.344H302.768L303.368 12.624Z" fill="white"/>
<line y1="29.5" x2="310" y2="29.5" stroke="white"/>
</svg>
