<svg width="41" height="41" fill="none" xmlns="http://www.w3.org/2000/svg"><g clip-path="url(#clip0_82_23)"><g filter="url(#filter0_d_82_23)"><path d="M19.4046 31.139C18.9012 31.6424 18.1039 31.6733 17.5638 31.2328L17.4593 31.139L7.40559 21.0853C7.22183 20.9016 7.10223 20.6781 7.04426 20.4428C7.04089 20.4291 7.03744 20.4155 7.03449 20.4017C7.02901 20.3761 7.02483 20.3504 7.02082 20.3246C7.01824 20.308 7.01596 20.2914 7.01399 20.2748C7.01103 20.2497 7.00874 20.2247 7.00715 20.1996C7.00612 20.1833 7.00468 20.1671 7.00422 20.1508C7.00353 20.1257 7.00355 20.1006 7.00422 20.0756C7.00478 20.0544 7.0066 20.0333 7.00813 20.0121C7.00958 19.9922 7.01167 19.9724 7.01399 19.9525C7.01634 19.9323 7.01855 19.9121 7.0218 19.892C7.02566 19.8681 7.03035 19.8444 7.03547 19.8207C7.03915 19.8036 7.04383 19.7868 7.04817 19.7699C7.05429 19.746 7.06028 19.7222 7.0677 19.6986C7.07338 19.6805 7.07981 19.6628 7.08625 19.6449C7.09474 19.6214 7.10281 19.5977 7.11262 19.5746C7.11841 19.5609 7.1259 19.5481 7.13215 19.5345C7.14419 19.5086 7.15649 19.4827 7.17024 19.4574C7.17843 19.4423 7.18683 19.4273 7.19563 19.4125C7.20813 19.3914 7.22097 19.3705 7.23469 19.35C7.24966 19.3276 7.26612 19.3062 7.28254 19.2845C7.32028 19.2347 7.36016 19.1855 7.40559 19.14L17.4593 9.08631C17.9963 8.54952 18.8677 8.54944 19.4046 9.08631C19.9413 9.62324 19.9413 10.4947 19.4046 11.0316L10.3236 20.1127L19.4046 29.1937L19.4984 29.2982C19.9388 29.8383 19.908 30.6356 19.4046 31.139Z" fill="white"/></g></g><defs><filter id="filter0_d_82_23" x="3.00391" y="8.68369" width="20.8032" height="30.8577" filterUnits="userSpaceOnUse" color-interpolation-filters="sRGB"><feFlood flood-opacity="0" result="BackgroundImageFix"/><feColorMatrix in="SourceAlpha" type="matrix" values="0 0 0 0 0 0 0 0 0 0 0 0 0 0 0 0 0 0 127 0" result="hardAlpha"/><feOffset dy="4"/><feGaussianBlur stdDeviation="2"/><feComposite in2="hardAlpha" operator="out"/><feColorMatrix type="matrix" values="0 0 0 0 0 0 0 0 0 0 0 0 0 0 0 0 0 0 0.6 0"/><feBlend mode="normal" in2="BackgroundImageFix" result="effect1_dropShadow_82_23"/><feBlend mode="normal" in="SourceGraphic" in2="effect1_dropShadow_82_23" result="shape"/></filter><clipPath id="clip0_82_23"><rect width="40.2145" height="40.2145" fill="white" transform="translate(40.2144 40.2198) rotate(-180)"/></clipPath></defs></svg>