<svg width="1188" height="51" fill="none" xmlns="http://www.w3.org/2000/svg"><path d="M950.888 13.6731C951.446 14.2185 951.744 14.569 951.744 14.6989C951.744 14.9716 951.562 15.1014 951.212 15.1014H943.433C942.733 16.3479 941.903 17.4387 940.97 18.3865H944.717C945.144 17.8931 945.546 17.4646 945.922 17.0881C946.195 16.7635 946.454 16.5947 946.7 16.5947C946.947 16.5947 947.478 16.8673 948.334 17.4127C949.358 18.1139 949.864 18.5813 949.864 18.828C949.864 19.1007 949.682 19.3474 949.306 19.6201C949.034 19.8668 948.904 20.1395 948.904 20.4381V24.2427C948.904 25.1127 948.93 26.2813 949.008 27.7485C949.008 28.0991 948.554 28.3458 947.647 28.5146C947.219 28.5666 946.895 28.5925 946.713 28.5925C946.233 28.5925 945.987 28.3199 945.987 27.7485V27.4239H943.576V33.5917C943.576 35.0849 943.07 36.0588 942.072 36.5003C941.099 36.9677 940.412 37.2014 939.932 37.2014C939.66 37.2014 939.453 36.8768 939.284 36.2795C939.012 35.3576 938.026 34.6175 936.25 34.0202L936.354 33.4748C937.612 33.6436 938.688 33.6956 939.595 33.6956C940.218 33.6956 940.529 33.4229 940.529 32.8515V27.4239H937.689V27.7485C937.689 28.0991 937.236 28.3458 936.38 28.5146C935.978 28.5666 935.68 28.5925 935.498 28.5925C934.941 28.5925 934.668 28.3199 934.668 27.7485C934.72 26.8007 934.772 25.8528 934.772 24.8919V21.0614C934.772 19.698 934.694 18.3995 934.565 17.127C935.719 17.4516 936.898 17.8931 938.13 18.3995H939.53C939.803 17.4776 940.01 16.3869 940.179 15.1144H933.022V22.3339C933.022 24.827 932.892 27.0344 932.62 28.9042C932.27 30.5922 931.686 32.1633 930.857 33.6047C930.105 34.7733 929.119 35.9159 927.887 37.0846L927.382 36.8638C928.354 34.9681 928.99 33.2021 929.34 31.5141C929.767 29.4755 929.988 26.4111 929.988 22.3339C929.988 17.9581 929.884 14.8158 929.69 12.894C931.375 13.3874 932.698 13.8939 933.631 14.3873H947.271C947.271 14.3873 947.543 14.1146 948.023 13.5433C948.645 12.7772 949.047 12.3746 949.254 12.3746C949.436 12.3746 950.006 12.8031 950.914 13.6731H950.888ZM937.287 30.1377C938.039 30.5662 938.441 30.9038 938.441 31.1116C938.441 31.3064 938.221 31.4102 937.858 31.4362C937.404 31.4362 937.132 31.5141 937.08 31.6569C936.458 32.475 935.822 33.2021 935.122 33.8254C934.344 34.6175 933.113 35.3966 931.427 36.2146L931.207 35.7861C932.114 34.8382 932.918 33.8254 933.618 32.7217C934.422 31.4232 934.98 30.1767 935.304 29.0081C936.056 29.4366 936.704 29.8261 937.287 30.1507V30.1377ZM945.974 22.5417V19.1527H937.689V22.5417H945.974ZM945.974 26.6708V23.2818H937.689V26.6708H945.974ZM949.332 31.0986C950.94 31.8907 951.744 32.6957 951.744 33.5657C951.744 34.163 951.588 34.6564 951.264 34.981C950.836 35.4485 950.408 35.6822 949.98 35.6822C949.604 35.6822 949.228 35.3836 948.878 34.7863C948.425 34.0202 947.776 33.1242 946.947 32.1244C946.519 31.631 945.715 30.9038 944.509 29.9559L944.833 29.5274C946.713 30.0209 948.217 30.5273 949.332 31.0986Z" fill="#F3D7A3"/><path d="M959.847 15.9454H966.2C966.174 14.6989 966.122 13.5562 966.005 12.5564C966.861 12.6603 967.937 12.8291 969.247 13.0498C970.154 13.1537 970.608 13.3744 970.608 13.6471C970.608 13.9198 970.31 14.1405 969.752 14.2963C969.324 14.4002 969.143 14.621 969.143 14.8937V15.9584H974.588C974.588 15.9584 974.964 15.5818 975.522 14.8157C976.17 13.9717 976.572 13.5432 976.702 13.5432C977.052 13.5432 977.609 13.9717 978.361 14.7898C979.113 15.6078 979.515 16.1142 979.515 16.283C979.515 16.5817 979.334 16.7115 978.984 16.7115H969.143V19.4513H972.708C973.11 18.9579 973.486 18.5294 973.862 18.1528C974.135 17.8282 974.368 17.6594 974.588 17.6594C974.809 17.6594 975.34 17.9321 976.17 18.4255C977.13 19.0747 977.648 19.5422 977.648 19.7889C977.648 20.0616 977.441 20.3083 977.026 20.5809C976.728 20.8277 976.598 21.1003 976.598 21.399V24.788C976.598 25.658 976.624 26.8266 976.702 28.2939C976.702 28.6445 976.222 28.8912 975.301 29.06C974.874 29.1119 974.549 29.1379 974.394 29.1379C973.888 29.1379 973.642 28.8652 973.642 28.2939V27.6446H969.571C971.153 29.1119 972.76 30.2286 974.42 30.9817C976.326 31.8257 978.232 32.423 980.125 32.7477L980.047 33.3709C979.295 33.6176 978.789 34.124 978.491 34.9161C978.296 35.5134 978.089 35.812 977.843 35.812C977.467 35.812 976.663 35.4095 975.379 34.6174C974.044 33.8513 972.773 32.8255 971.593 31.579C970.634 30.5532 969.804 29.5145 969.13 28.4627V31.6959C969.13 33.319 969.156 34.9291 969.234 36.5522C969.234 36.8768 968.754 37.1495 967.807 37.3442C967.406 37.3962 967.107 37.4221 966.926 37.4221C966.278 37.4221 965.992 37.1235 965.992 36.5522C966.122 34.7862 966.213 33.1631 966.213 31.6959V30.0079C965.539 30.774 964.929 31.3713 964.359 31.8517C963.231 32.7736 961.921 33.6176 960.469 34.3188C958.991 35.02 957.383 35.6173 955.62 36.1367L955.438 35.7082C957.293 34.8122 959.03 33.6955 960.638 32.3451C962.193 30.9817 963.503 29.4365 964.579 27.6446H961.817V28.4107C961.817 28.7613 961.364 29.0081 960.482 29.1769C960.08 29.2288 959.782 29.2548 959.626 29.2548C959.069 29.2548 958.797 28.9821 958.797 28.4107C958.848 27.4629 958.874 26.515 958.874 25.5281V22.0223C958.874 20.6718 958.797 19.3604 958.693 18.1139C959.924 18.4385 961.182 18.9059 962.479 19.4773H966.226V16.7375H959.847C958.291 16.7375 957.215 16.7894 956.605 16.8414L956.178 15.7766C957.007 15.9065 958.239 15.9714 959.847 15.9714V15.9454ZM966.226 23.1649V20.2044H961.83V23.1649H966.226ZM966.226 26.8915V23.905H961.83V26.8915H966.226ZM969.143 23.1649H973.642V20.2044H969.143V23.1649ZM969.143 26.8915H973.642V23.905H969.143V26.8915Z" fill="#F3D7A3"/><path d="M986.983 14.6989H989.291C989.291 14.6989 989.641 14.3483 990.121 13.699C990.704 12.9329 991.08 12.5564 991.197 12.5564C991.495 12.5564 991.975 12.933 992.675 13.6731C993.349 14.4392 993.699 14.8677 993.699 14.9975C993.699 15.2962 993.57 15.439 993.298 15.439H991.392V32.8385C991.392 34.4097 991.418 35.6562 991.495 36.6431C991.495 36.9417 991.067 37.1624 990.238 37.3183C989.862 37.3702 989.563 37.3962 989.408 37.3962C988.98 37.3962 988.786 37.1235 988.786 36.6301C988.837 35.7341 988.889 34.4876 988.889 32.8256V30.9558C987.93 31.6829 986.957 32.2542 985.998 32.6697C985.817 32.7217 985.726 32.7996 985.726 32.9164C985.674 33.0203 985.648 33.1631 985.648 33.319C985.57 33.5657 985.466 33.6696 985.324 33.6696C984.974 33.6696 984.572 33.0723 984.092 31.8257C983.962 31.5011 983.742 30.9298 983.418 30.1767C983.898 30.1507 984.351 30.0988 984.779 30.0468V15.465C984.351 15.4909 984.001 15.5169 983.729 15.5429L983.327 14.4781C984.157 14.6469 985.363 14.6989 986.97 14.6989H986.983ZM988.876 19.4513V15.439H987.191V19.4513H988.876ZM988.876 24.4374V20.2044H987.191V24.4374H988.876ZM988.876 29.4365V25.1776H987.191V29.7092C987.787 29.6313 988.345 29.5404 988.876 29.4365ZM996.98 13.5303C997.706 13.8289 998.082 14.1535 998.082 14.4781C998.082 14.6469 997.9 14.7248 997.55 14.7508C997.174 14.8028 996.993 14.8287 996.928 14.8807C996.098 16.0752 995.126 17.14 994.037 18.0879C994.257 18.1658 994.413 18.2567 994.568 18.3086C995.022 18.5813 995.268 18.9059 995.268 19.2565C995.268 19.724 995.048 20.1525 994.646 20.5809C994.374 20.9056 993.998 21.0484 993.57 21.0484C993.298 21.0484 993.064 20.7757 992.87 20.2304C992.597 19.4643 992.118 18.7111 991.469 17.984L991.69 17.5555C992.221 17.6594 992.74 17.7503 993.168 17.8542C993.79 16.257 994.27 14.5171 994.62 12.6733C995.424 12.9719 996.228 13.2705 996.98 13.5432V13.5303ZM999.495 15.9714C1000.14 16.244 1000.49 16.5427 1000.49 16.8154C1000.49 16.9842 1000.34 17.0621 1000.01 17.0621C999.689 17.114 999.508 17.166 999.456 17.2309C998.147 19.2435 996.617 21.0614 994.905 22.7364C995.955 22.6585 996.941 22.5417 997.874 22.4378C997.745 21.7885 997.524 21.1653 997.252 20.516L997.576 20.2174C998.536 20.7368 999.21 21.1912 999.586 21.5808C1000.04 22.1261 1000.29 22.5806 1000.29 22.9701C1000.29 23.5415 1000.16 23.97 999.91 24.2686C999.586 24.6192 999.21 24.788 998.834 24.788C998.587 24.788 998.432 24.7361 998.328 24.5673C998.198 24.4894 998.082 24.0738 998.004 23.3207C998.004 23.2428 997.978 23.1519 997.978 23.1C996.643 24.0219 995.268 24.6711 993.881 25.0866C993.661 25.1386 993.583 25.1905 993.583 25.3074C993.557 25.3853 993.531 25.4762 993.505 25.5801C993.453 25.7748 993.401 25.8527 993.285 25.8527C992.986 25.8527 992.636 25.3593 992.26 24.3335C992.131 24.0609 991.936 23.6324 991.703 22.9831C992.455 22.9572 993.181 22.9052 993.907 22.8403C995.385 20.4511 996.539 17.9321 997.369 15.2442C998.121 15.5169 998.821 15.7636 999.508 16.0103L999.495 15.9714ZM994.97 26.502C995.852 26.6059 996.305 26.7747 996.305 26.9954C996.305 27.2421 996.059 27.4239 995.631 27.5927C995.307 27.6966 995.152 27.8913 995.152 28.164V31.0077H996.759C996.785 30.3584 996.811 29.5924 996.811 28.7873C996.811 27.8654 996.733 26.6968 996.63 25.2814C997.433 25.4113 998.237 25.5541 999.041 25.7099C999.547 25.8138 999.923 25.9307 1000.17 26.0086C1000.14 25.8528 1000.12 25.658 1000.09 25.4892C1000.77 25.5931 1001.6 25.7099 1002.58 25.8657C1003.49 25.9696 1003.94 26.1125 1003.94 26.3332C1003.94 26.6059 1003.7 26.8266 1003.27 26.9824C1002.94 27.1123 1002.79 27.333 1002.79 27.6057V31.1116H1004.47V28.3718C1004.47 27.6446 1004.4 26.9824 1004.25 26.45C1004.9 26.5539 1005.73 26.6708 1006.69 26.8266C1007.55 26.9305 1008 27.0733 1008 27.294C1008 27.5667 1007.75 27.7615 1007.33 27.8914C1007 27.9952 1006.85 28.19 1006.85 28.4627V32.7217C1006.85 33.0203 1006.47 33.2411 1005.77 33.3709C1005.45 33.4228 1005.21 33.4488 1005.07 33.4488C1004.64 33.4488 1004.45 33.319 1004.45 33.0203V31.8517H1002.76V36.734C1002.76 37.0326 1002.39 37.2533 1001.63 37.4092C1001.26 37.4351 1001.01 37.4611 1000.88 37.4611C1000.38 37.4611 1000.13 37.3312 1000.13 37.0586C1000.18 36.6301 1000.23 36.2925 1000.23 36.1107V27.5018C1000.23 27.2291 1000.21 26.9565 1000.21 26.7357C1000.1 26.7877 1000.03 26.8396 999.91 26.8656C999.534 27.0344 999.326 27.1902 999.288 27.385C999.288 29.878 999.21 31.4881 999.067 32.1633C998.821 33.0333 998.51 33.7345 998.082 34.3318C997.706 34.8771 997.109 35.4225 996.37 35.9029C995.644 36.3314 994.516 36.7989 993.025 37.2663L992.805 36.9417C993.764 36.3964 994.568 35.7731 995.216 35.1238C995.748 34.5785 996.124 33.9293 996.396 33.1112C996.5 32.7866 996.578 32.3451 996.669 31.7608H995.113V32.8126C995.113 33.1112 994.737 33.3319 994.037 33.4618C993.686 33.5137 993.44 33.5397 993.336 33.5397C992.909 33.5397 992.688 33.4099 992.688 33.1112V28.0342C992.688 27.307 992.61 26.6448 992.481 26.1125C993.155 26.2163 993.959 26.3332 994.918 26.489L994.97 26.502ZM1004.67 13.4783C1005.42 13.8029 1005.82 14.1275 1005.82 14.4781C1005.82 14.6469 1005.6 14.7248 1005.23 14.7508C1004.82 14.8028 1004.6 14.8287 1004.58 14.8807C1003.67 16.1272 1002.65 17.2958 1001.49 18.3216C1001.76 18.4255 1001.97 18.5424 1002.14 18.6203C1002.57 18.9189 1002.79 19.2695 1002.79 19.646C1002.79 20.1654 1002.57 20.6459 1002.14 21.0874C1001.84 21.412 1001.47 21.5808 1001.01 21.5808C1000.77 21.5808 1000.56 21.2821 1000.39 20.6589C1000.18 19.8148 999.767 19.0098 999.21 18.1918L999.43 17.7633C999.91 17.8671 1000.31 17.984 1000.66 18.0619C1001.31 16.3479 1001.79 14.5041 1002.17 12.5564C1003.02 12.881 1003.85 13.1797 1004.66 13.4783H1004.67ZM1006.85 16.5167C1007.49 16.7894 1007.84 17.0621 1007.84 17.3348C1007.84 17.5036 1007.66 17.5815 1007.34 17.6075C1007.01 17.6594 1006.83 17.7113 1006.81 17.7762C1005.71 19.4643 1004.45 21.0095 1003 22.4767C1003.96 22.3988 1004.85 22.2819 1005.71 22.1261C1005.6 21.5548 1005.43 20.9835 1005.23 20.4381L1005.55 20.1135C1006.46 20.6069 1007.11 21.0354 1007.48 21.412C1007.91 21.9314 1008.16 22.3599 1008.16 22.7364C1008.16 23.3597 1008.03 23.8531 1007.75 24.2037C1007.4 24.5803 1007.03 24.775 1006.6 24.775C1006.38 24.775 1006.25 24.7231 1006.15 24.5543C1006.04 24.4764 1005.93 24.0349 1005.87 23.2818C1005.87 23.1779 1005.85 23.061 1005.85 22.9572C1004.8 23.7752 1003.73 24.3985 1002.63 24.775C1002.48 24.827 1002.43 24.8789 1002.43 24.9958C1002.37 25.0477 1002.35 25.1256 1002.35 25.2425C1002.3 25.4372 1002.22 25.5151 1002.1 25.5151C1001.8 25.5151 1001.45 25.0217 1001.08 23.9959C1000.95 23.7233 1000.75 23.2948 1000.52 22.6715C1001 22.6455 1001.48 22.6195 1001.97 22.5676C1003.15 20.4511 1004.06 18.1658 1004.71 15.7766C1005.46 16.0493 1006.19 16.296 1006.87 16.5427L1006.85 16.5167Z" fill="#F3D7A3"/><path d="M1024.22 13.2058C1025.18 13.4785 1025.67 13.7252 1025.67 13.9329C1025.67 14.2056 1025.37 14.4004 1024.84 14.4523C1024.79 14.4783 1024.76 14.4783 1024.76 14.4783C1026.32 16.3481 1027.95 17.7894 1029.61 18.7633C1031.62 19.9059 1033.63 20.685 1035.62 21.1524L1035.51 21.7757C1034.74 22.0484 1034.2 22.5937 1033.88 23.3988C1033.7 24.0221 1033.48 24.3207 1033.21 24.3207C1032.83 24.3207 1032 23.8273 1030.66 22.8275C1029.26 21.8536 1027.93 20.6071 1026.7 19.0229C1025.62 17.6985 1024.71 16.3091 1024.01 14.8938C1022.51 17.0623 1020.93 18.8022 1019.22 20.1007C1017.28 21.8147 1014.72 23.4637 1011.53 25.0349L1011.23 24.6324C1013.06 23.3599 1015.01 21.5939 1017.1 19.3346C1018.81 17.4908 1020.34 15.2054 1021.69 12.4397C1022.65 12.7383 1023.52 12.9851 1024.23 13.1668L1024.22 13.2058ZM1018.97 27.5149H1027.76C1028.14 27.0475 1028.51 26.645 1028.89 26.2944C1029.16 25.9958 1029.39 25.8399 1029.64 25.8399C1029.86 25.8399 1030.37 26.1126 1031.17 26.606C1032.08 27.2553 1032.57 27.7227 1032.57 27.9694C1032.57 28.2421 1032.41 28.4888 1032.09 28.7615C1031.84 29.0082 1031.74 29.2809 1031.74 29.5536V32.7608C1031.74 33.6308 1031.77 34.8254 1031.84 36.3446C1031.84 36.6952 1031.36 36.9678 1030.39 37.1366C1029.94 37.1886 1029.61 37.2145 1029.42 37.2145C1028.94 37.2145 1028.69 36.9159 1028.69 36.3446V35.2798H1018.32V36.4484C1018.32 36.7731 1017.87 37.0457 1016.99 37.2405C1016.58 37.2925 1016.29 37.3184 1016.13 37.3184C1015.57 37.3184 1015.3 37.0198 1015.3 36.4484C1015.35 35.5006 1015.4 34.5786 1015.4 33.5918V30.0859C1015.4 28.7355 1015.33 27.4241 1015.18 26.1516C1016.42 26.5022 1017.67 26.9696 1018.96 27.5409L1018.97 27.5149ZM1020.51 22.8405H1024.7C1024.7 22.8405 1025.05 22.4639 1025.58 21.7497C1026.2 20.9317 1026.57 20.5032 1026.71 20.5032C1027.03 20.5032 1027.57 20.9057 1028.32 21.6978C1029.04 22.5158 1029.42 22.9963 1029.42 23.1651C1029.42 23.4637 1029.24 23.5936 1028.91 23.5936H1020.53C1019 23.5936 1017.93 23.6455 1017.28 23.6975L1016.88 22.6327C1017.71 22.7625 1018.92 22.8275 1020.53 22.8275L1020.51 22.8405ZM1028.69 34.5137V28.2681H1018.32V34.5137H1028.69Z" fill="#F3D7A3"/><path d="M1042.75 14.595H1043.6C1043.95 14.2964 1044.3 13.9978 1044.65 13.7251C1045.08 13.4005 1045.35 13.2057 1045.48 13.2057C1045.73 13.2057 1046.21 13.5043 1046.91 14.0497C1047.82 14.8418 1048.31 15.3741 1048.31 15.6468C1048.31 15.8416 1048.01 15.9974 1047.45 16.1143C1046.9 16.1662 1046.52 16.3869 1046.33 16.7116L1043.56 22.2171H1044.85C1045.07 21.9704 1045.3 21.7496 1045.55 21.5419C1045.95 21.2173 1046.25 21.0485 1046.43 21.0485C1046.7 21.0485 1047.23 21.3471 1048.01 21.9444C1048.82 22.7105 1049.24 23.2169 1049.24 23.4896C1049.24 23.7103 1048.94 23.9181 1048.39 24.1388C1047.88 24.3596 1047.61 24.5673 1047.58 24.7621C1047.08 27.1513 1046.48 29.1379 1045.85 30.7091C1045.69 31.0597 1045.5 31.3843 1045.31 31.7089C1045.85 32.2543 1046.55 32.6308 1047.4 32.8775C1048.71 33.4229 1051.24 33.6696 1054.99 33.6696C1057.85 33.6696 1060.78 33.4489 1063.73 33.0204L1063.92 33.6696C1062.9 34.2409 1062.31 34.9161 1062.21 35.7342C1062.05 36.4613 1061.78 36.8509 1061.43 36.8509C1055.05 36.8509 1050.84 36.5522 1048.83 35.9809C1046.77 35.4355 1045.24 34.5656 1044.24 33.319C1043.97 33.6696 1043.71 33.9942 1043.43 34.2929C1042.15 35.5394 1040.92 36.5133 1039.74 37.1755L1039.31 36.8509C1040.87 35.1629 1042.12 33.319 1043.08 31.2545C1042.68 30.2287 1042.44 29.0081 1042.36 27.6187C1042.41 27.1253 1042.33 26.8916 1042.14 26.8916C1042.09 26.8916 1042.03 27.1383 1041.98 27.5928C1041.9 28.2939 1041.76 28.9821 1041.58 29.6054C1041.48 30.0339 1041.42 30.3066 1041.42 30.3975C1041.48 30.5663 1041.55 30.7221 1041.62 30.8649C1041.67 31.0337 1041.72 31.1636 1041.72 31.2415C1041.72 31.4622 1041.62 31.5661 1041.42 31.5661C1041.15 31.5661 1040.78 31.2934 1040.3 30.7481C1039.89 30.3715 1039.47 30.0209 1039.01 29.6314C1039.84 28.7874 1040.57 27.7616 1041.22 26.567C1041.54 26.0216 1041.87 25.723 1042.15 25.723C1042.77 25.723 1043.08 26.1255 1043.08 26.8916C1043.27 27.7356 1043.51 28.4887 1043.84 29.2029C1044.37 27.411 1044.74 25.3464 1044.96 22.9572H1043.2L1042.67 24.009C1042.54 24.3855 1042.35 24.5803 1042.09 24.6063C1041.81 24.6582 1041.55 24.6582 1041.23 24.6582C1041.01 24.6582 1040.7 24.6063 1040.27 24.4375C1040 24.3336 1039.87 24.1908 1039.87 24.009L1043.84 15.3222H1042.79C1041.8 15.3222 1040.85 15.3741 1039.97 15.4261L1039.54 14.3613C1040.65 14.5301 1041.71 14.5821 1042.79 14.5821L1042.75 14.595ZM1052.54 15.4261C1052.48 14.3613 1052.41 13.4134 1052.29 12.5435C1053.09 12.6214 1054.14 12.7642 1055.38 12.972C1056.23 13.0758 1056.68 13.2706 1056.68 13.5173C1056.68 13.816 1056.41 14.0627 1055.93 14.2185C1055.58 14.3224 1055.43 14.5431 1055.43 14.8677V15.4131H1057.31C1057.63 15.1144 1057.9 14.8158 1058.16 14.5431C1058.54 14.1406 1058.81 13.9199 1058.99 13.9199C1059.27 13.9199 1059.77 14.2185 1060.47 14.8158C1061.27 15.465 1061.7 15.8676 1061.7 16.0364C1061.7 16.309 1061.51 16.5298 1061.2 16.7375C1060.82 17.0102 1060.67 17.2829 1060.67 17.5296V18.8021H1060.99C1061.09 18.6073 1061.26 18.3087 1061.47 17.9321C1061.69 17.4387 1061.85 17.205 1061.92 17.205C1062.08 17.205 1062.35 17.5036 1062.78 18.075C1063.18 18.6203 1063.4 18.9709 1063.4 19.1397C1063.4 19.4124 1063.3 19.5422 1063.08 19.5422H1060.67C1060.69 20.7888 1060.72 21.6068 1060.77 22.0093V22.9312C1060.77 23.2818 1060.32 23.5286 1059.43 23.6974C1059.03 23.7753 1058.73 23.8012 1058.58 23.8012C1058.15 23.8012 1057.9 23.5805 1057.88 23.152H1055.44V25.8139H1057.96C1057.96 25.8139 1058.23 25.5152 1058.63 24.9699C1059.11 24.3206 1059.41 23.996 1059.51 23.996C1059.78 23.996 1060.24 24.3206 1060.82 24.9699C1061.42 25.6191 1061.7 25.9957 1061.7 26.1125C1061.7 26.4112 1061.57 26.541 1061.3 26.541H1055.43V29.4236H1058.24C1058.24 29.4236 1058.59 29.0471 1059.12 28.3589C1059.74 27.5928 1060.11 27.1902 1060.25 27.1902C1060.57 27.1902 1061.08 27.5668 1061.78 28.3329C1062.48 29.099 1062.86 29.5535 1062.86 29.7223C1062.86 30.0209 1062.67 30.1508 1062.35 30.1508H1055.44V32.1634C1055.44 32.514 1055.01 32.7607 1054.16 32.9295C1053.78 32.9814 1053.51 33.0074 1053.35 33.0074C1052.7 33.0074 1052.42 32.7347 1052.42 32.1634C1052.47 31.4622 1052.5 30.774 1052.52 30.1508H1050.62C1049.09 30.1508 1048.02 30.2027 1047.38 30.2546L1046.97 29.1899C1047.8 29.3587 1049.01 29.4106 1050.62 29.4106H1052.55C1052.57 28.7354 1052.6 28.0862 1052.6 27.4889V26.541H1051.77C1050.24 26.541 1049.17 26.5929 1048.53 26.6449L1048.13 25.5801C1048.96 25.7489 1050.16 25.8009 1051.77 25.8009H1052.6V23.139C1051.34 23.139 1050.32 23.1909 1049.57 23.2429L1049.17 22.1911C1050.1 22.3599 1051.25 22.4119 1052.6 22.4119V19.5292H1049.89C1049.36 19.5292 1048.66 19.5812 1047.8 19.6331L1047.38 18.5814C1048.45 18.7372 1049.31 18.8021 1049.89 18.8021H1052.6V17.3089C1052.6 16.9063 1052.57 16.5168 1052.57 16.1402C1050.81 16.1402 1049.57 16.1922 1048.85 16.2441L1048.43 15.1794C1049.55 15.3482 1050.94 15.4001 1052.55 15.4001L1052.54 15.4261ZM1055.43 18.8281H1057.84V16.1662H1055.43V18.8281ZM1055.43 22.4378H1057.84V19.5552H1055.43V22.4378Z" fill="#F3D7A3"/><path d="M1073.07 13.2835C1073.83 13.5302 1074.2 13.7769 1074.2 14.0496C1074.2 14.3223 1073.98 14.4781 1073.55 14.543C1073.13 14.595 1072.88 14.7118 1072.83 14.8157C1072.72 15.0105 1072.61 15.1663 1072.5 15.3351H1075.34C1075.34 15.3351 1075.64 15.0624 1076.12 14.4911C1076.79 13.725 1077.22 13.3225 1077.43 13.3225C1077.61 13.3225 1078.21 13.751 1079.17 14.6209C1079.76 15.1663 1080.05 15.5169 1080.05 15.6467C1080.05 15.9194 1079.85 16.0493 1079.52 16.0493H1074.34C1074.72 16.2181 1075.04 16.3999 1075.3 16.5687C1075.86 16.9452 1076.16 17.3348 1076.16 17.6594C1076.16 18.2567 1075.94 18.7501 1075.54 19.1007C1075.26 19.3474 1074.98 19.4513 1074.6 19.4513C1074.41 19.4513 1074.25 19.3993 1074.15 19.2565C1074.02 19.1526 1073.9 18.828 1073.83 18.3346C1073.72 17.6853 1073.45 16.9193 1073.02 16.0493H1071.97C1071.54 16.6466 1071.06 17.1659 1070.57 17.5944C1069.74 18.3605 1068.67 19.1137 1067.36 19.8798L1067.03 19.5552C1067.99 18.4125 1068.74 17.3348 1069.29 16.3219C1069.79 15.2962 1070.22 14.0107 1070.6 12.5434C1071.43 12.8161 1072.23 13.0628 1073.03 13.2705L1073.07 13.2835ZM1070.95 29.008H1078.08V28.7873C1078.08 27.9173 1077.97 27.1382 1077.75 26.45C1078.53 26.5539 1079.47 26.7227 1080.59 26.8785C1081.62 26.9824 1082.15 27.1772 1082.15 27.3979C1082.15 27.7225 1081.88 27.9692 1081.4 28.1251C1081.05 28.2289 1080.89 28.4497 1080.89 28.7743V28.9951H1086.54C1086.54 28.9951 1086.89 28.6185 1087.43 27.9303C1088.05 27.1642 1088.41 26.7617 1088.53 26.7617C1088.85 26.7617 1089.38 27.1382 1090.08 27.9043C1090.78 28.6704 1091.16 29.1509 1091.16 29.3197C1091.16 29.5924 1090.98 29.7222 1090.63 29.7222H1081.46C1082.82 30.696 1084.35 31.4102 1086.05 31.8647C1087.91 32.41 1089.75 32.7866 1091.6 33.0073L1091.5 33.6566C1090.75 33.9033 1090.21 34.4227 1089.84 35.2018C1089.66 35.799 1089.46 36.0977 1089.31 36.0977C1088.96 36.0977 1088.15 35.825 1086.92 35.2797C1085.64 34.6824 1084.41 33.9292 1083.28 33.0333C1082.34 32.2152 1081.57 31.3453 1080.92 30.4234V36.6171C1080.92 36.9417 1080.49 37.2144 1079.66 37.3832C1079.26 37.4351 1078.99 37.4611 1078.83 37.4611C1078.27 37.4611 1078 37.2663 1078 36.9417C1078.05 36.4483 1078.1 36.0977 1078.1 35.8769V31.2674C1077.38 31.8906 1076.7 32.3841 1076.09 32.7606C1074.97 33.4358 1073.71 34.0331 1072.26 34.5525C1070.8 35.0719 1069.22 35.5004 1067.51 35.8769L1067.29 35.3316C1069 34.7343 1070.64 33.9422 1072.17 32.9684C1073.62 32.0465 1074.85 30.9557 1075.84 29.7092H1070.96C1069.43 29.7092 1068.35 29.7611 1067.72 29.8131L1067.29 28.7483C1068.15 28.9171 1069.35 28.9691 1070.96 28.9691L1070.95 29.008ZM1071.67 20.3212H1074.91C1074.91 20.3212 1075.16 20.0745 1075.5 19.672C1075.93 19.1786 1076.2 18.9449 1076.28 18.9449C1076.5 18.9449 1076.83 19.2175 1077.33 19.711C1077.81 20.2303 1078.08 20.529 1078.08 20.6329C1078.08 20.9315 1077.97 21.0614 1077.75 21.0614H1074.41V23.9959C1075.41 23.918 1076.52 23.7752 1077.75 23.6194L1077.97 24.0219C1076.37 24.9698 1075.01 25.619 1073.88 25.9436C1072.59 26.3462 1071.52 26.6188 1070.66 26.7357C1070.16 26.8136 1069.91 26.8915 1069.91 27.0084C1069.86 27.1382 1069.83 27.333 1069.81 27.5537C1069.75 27.9043 1069.65 28.0731 1069.48 28.0731C1069.16 28.0731 1068.81 27.4239 1068.41 26.1254C1068.28 25.7748 1068.08 25.1775 1067.81 24.3595C1069.09 24.3595 1070.39 24.3076 1071.67 24.1907V21.0744C1070.14 21.0744 1069.07 21.1263 1068.43 21.1782L1068.03 20.1135C1068.86 20.2823 1070.07 20.3342 1071.67 20.3342V20.3212ZM1083.74 13.2835C1084.5 13.5302 1084.9 13.7769 1084.9 14.0496C1084.9 14.3223 1084.68 14.4781 1084.25 14.543C1083.82 14.595 1083.58 14.7118 1083.52 14.8157C1083.39 15.0105 1083.25 15.1663 1083.15 15.3351H1086.87C1086.87 15.3351 1087.14 15.0624 1087.65 14.4911C1088.32 13.725 1088.75 13.3225 1088.96 13.3225C1089.14 13.3225 1089.71 13.751 1090.67 14.6209C1091.25 15.1663 1091.58 15.5169 1091.58 15.6467C1091.58 15.9194 1091.39 16.0493 1091.04 16.0493H1085.44C1086.04 16.244 1086.47 16.3999 1086.73 16.5687C1087.37 16.9452 1087.7 17.2698 1087.7 17.5425C1087.7 18.0359 1087.59 18.4125 1087.37 18.7111C1087.1 18.9838 1086.87 19.1137 1086.62 19.1137C1086.78 19.2435 1086.95 19.3864 1087.13 19.5162C1087.78 20.0096 1088.11 20.4121 1088.11 20.7108C1088.11 20.9315 1087.91 21.1393 1087.49 21.412C1087.06 21.6067 1086.84 21.8145 1086.84 22.0872V23.2558C1086.84 23.6323 1086.92 23.8791 1087.09 23.957C1087.24 24.0609 1087.57 24.0868 1088.05 24.0868L1088.58 24.0349C1088.85 24.0349 1089.09 23.7882 1089.25 23.2428C1089.41 22.6974 1089.6 21.9703 1089.88 21.0224L1090.3 21.1263L1090.41 22.5157C1090.41 22.8922 1090.56 23.3077 1090.89 23.7622C1091.32 24.1907 1091.56 24.5153 1091.56 24.736C1091.56 25.2814 1091.21 25.6839 1090.54 25.9047C1089.73 26.1774 1088.9 26.3072 1088.05 26.3072C1086.49 26.3072 1085.61 26.2293 1085.44 26.0605C1084.74 25.8398 1084.42 25.0607 1084.42 23.6713V20.4641H1083.64C1083.42 21.3341 1083.16 22.0872 1082.81 22.6845C1082.91 22.7624 1083.03 22.8143 1083.11 22.8792C1083.43 23.1 1083.59 23.3467 1083.59 23.5544C1083.59 24.0998 1083.37 24.5543 1083.01 24.9438C1082.63 25.4372 1082.2 25.6709 1081.7 25.6709C1081.51 25.6709 1081.19 25.3983 1080.74 24.801C1080.31 25.0477 1079.78 25.2684 1079.18 25.4762C1078.19 25.8008 1076.92 26.0475 1075.43 26.1773L1075.33 25.7748C1076.33 25.5021 1077.11 25.2295 1077.64 24.9568C1078.09 24.7361 1078.57 24.4114 1079.09 23.9829C1079.25 23.8531 1079.39 23.6843 1079.54 23.4895C1079.01 22.9961 1078.42 22.5676 1077.75 22.1651L1078.08 21.5418C1078.93 21.6457 1079.71 21.7885 1080.36 21.8924C1080.52 21.425 1080.63 20.9445 1080.74 20.4511C1079.93 20.4771 1079.23 20.503 1078.7 20.555L1078.27 19.4902C1079.23 19.659 1080.39 19.711 1081.73 19.711H1084.15C1084.44 19.4383 1084.68 19.2175 1084.9 19.0617C1085.08 18.9319 1085.25 18.815 1085.4 18.7371C1085.27 18.5683 1085.16 18.3086 1085.08 17.945C1084.95 17.2958 1084.6 16.6466 1084 15.9843H1082.53C1082.23 16.309 1081.94 16.5816 1081.64 16.8283C1080.97 17.3737 1080.09 17.945 1079.01 18.5423L1078.69 18.2177C1079.39 17.2958 1079.95 16.3999 1080.32 15.5818C1080.7 14.7118 1081.05 13.6861 1081.32 12.4915C1082.15 12.7641 1082.95 13.0108 1083.73 13.2186L1083.74 13.2835Z" fill="#F3D7A3"/><path d="M1098.84 15.6468H1105.62C1105.59 14.4522 1105.54 13.4005 1105.42 12.4656C1106.23 12.5695 1106.98 12.6863 1107.63 12.7902C1109.08 13.0109 1109.83 13.1927 1109.83 13.4135C1109.83 13.7121 1109.56 13.9848 1109.08 14.2315C1108.75 14.3354 1108.6 14.5561 1108.57 14.8807V15.6468H1114.12C1114.12 15.6468 1114.5 15.2443 1115.03 14.5042C1115.7 13.6342 1116.11 13.2057 1116.21 13.2057C1116.56 13.2057 1117.12 13.6342 1117.89 14.4522C1118.65 15.2703 1119.05 15.7767 1119.05 15.9455C1119.05 16.2441 1118.87 16.374 1118.52 16.374H1108.57V18.5944H1112.46C1112.76 18.2438 1113.02 17.9451 1113.27 17.6725C1113.49 17.4517 1113.69 17.3219 1113.94 17.3219C1114.24 17.3219 1114.77 17.6205 1115.55 18.1918C1116.4 18.7891 1116.86 19.1917 1116.86 19.4384C1116.86 19.6591 1116.66 19.8409 1116.35 20.0357C1116.03 20.2564 1115.87 20.4382 1115.82 20.607V23.0481C1115.82 23.2429 1115.66 23.3728 1115.39 23.4766C1115.66 23.6454 1116.04 23.8791 1116.47 24.2687C1117.27 24.9179 1117.7 25.3334 1117.7 25.4893C1117.7 25.7619 1117.54 26.0346 1117.25 26.2813C1116.92 26.554 1116.77 26.8267 1116.77 27.0994V27.9434H1117.19C1117.3 27.6187 1117.44 27.2941 1117.62 26.9436C1117.84 26.4761 1118.05 26.2424 1118.24 26.2424C1118.4 26.2424 1118.62 26.4631 1118.94 26.8656C1119.37 27.5149 1119.59 27.9823 1119.59 28.281C1119.59 28.5537 1119.49 28.6835 1119.29 28.6835H1116.78C1116.78 29.0601 1116.81 29.4756 1116.83 29.8521C1116.86 31.4492 1116.88 32.3712 1116.88 32.6179C1116.88 32.9685 1116.4 33.2152 1115.46 33.384C1115.06 33.4359 1114.76 33.4619 1114.58 33.4619C1114.1 33.4619 1113.85 33.1892 1113.85 32.6179V31.8518H1108.6V33.6696C1108.6 35.1889 1108.17 36.1887 1107.34 36.6302C1106.38 37.1236 1105.66 37.3962 1105.14 37.3962C1104.86 37.3962 1104.63 37.0976 1104.46 36.5263C1104.19 35.5524 1102.93 34.7604 1100.74 34.0852L1100.85 33.5658C1102.15 33.7865 1103.28 33.8904 1104.19 33.8904C1104.72 33.8904 1105.12 33.8125 1105.4 33.6437C1105.55 33.5398 1105.67 33.2931 1105.67 32.9165V31.8518H1100.44C1099.16 31.8518 1098.14 31.9037 1097.38 31.9557L1096.98 30.9039C1097.91 31.0727 1099.07 31.1246 1100.44 31.1246H1105.67V28.6835H1097.81C1097.01 28.6835 1096.15 28.7354 1095.3 28.7874L1094.89 27.7226C1096.18 27.8784 1097.15 27.9434 1097.81 27.9434H1105.67V25.6061H1100.62C1099.44 25.6061 1098.51 25.6581 1097.81 25.71L1097.38 24.6582C1098.49 24.827 1099.55 24.879 1100.62 24.879H1105.67V22.9572H1101.05V23.2819C1101.05 23.6324 1100.6 23.8791 1099.72 24.0479C1099.32 24.0999 1099.02 24.1259 1098.86 24.1259C1098.3 24.1259 1098.03 23.8532 1098.03 23.2819C1098.08 22.7884 1098.14 22.2301 1098.14 21.5938V19.776C1098.14 19.1267 1098.08 18.3606 1098.03 17.4387C1099.06 17.7374 1100.12 18.1139 1101.2 18.6074H1105.67V16.387H1098.86C1097.33 16.387 1096.26 16.4389 1095.62 16.4908L1095.19 15.4391C1096.05 15.5949 1097.25 15.6598 1098.86 15.6598L1098.84 15.6468ZM1101.04 19.3345V22.2171H1105.66V19.3345H1101.04ZM1112.85 19.3345H1108.56V22.2171H1112.85V19.3345ZM1113.6 23.8142C1113.1 23.8142 1112.85 23.5675 1112.85 23.0481V22.9443H1108.56V24.866H1113.28C1113.6 24.5673 1113.88 24.2687 1114.11 23.97C1114.21 23.8921 1114.29 23.8142 1114.36 23.7493C1114 23.8012 1113.76 23.8013 1113.6 23.8013V23.8142ZM1108.57 27.9434H1113.82V25.6061H1108.57V27.9434ZM1108.57 31.1246H1113.82V28.6835H1108.57V31.1246Z" fill="#F3D7A3"/><path d="M1126.5 21.6718H1131.83C1132.1 21.4511 1132.29 21.2693 1132.45 21.1005C1132.93 20.7239 1133.28 20.5032 1133.53 20.5032C1133.8 20.5032 1134.33 20.8538 1135.14 21.529C1135.94 22.2302 1136.34 22.6976 1136.34 22.9443C1136.34 23.191 1135.99 23.3209 1135.35 23.3469C1134.79 23.3988 1134.41 23.4767 1134.24 23.5936C1132.96 24.7103 1131.96 25.4893 1131.21 25.9308L1130.99 25.7101C1131.29 24.892 1131.61 23.7883 1131.92 22.4249H1130.59V34.1761C1130.59 35.5006 1130.16 36.3705 1129.33 36.7601C1128.55 37.1626 1127.97 37.3833 1127.53 37.3833C1127.31 37.3833 1127.15 37.0587 1127.02 36.4614C1126.8 35.5915 1125.95 34.8903 1124.51 34.293L1124.61 33.8904C1125.63 34.1112 1126.49 34.1891 1127.24 34.1891C1127.57 34.1891 1127.75 33.9424 1127.75 33.462V27.5409C1127.13 28.5667 1126.44 29.4627 1125.69 30.2807C1124.88 31.1247 1124 31.8259 1123.03 32.3972L1122.93 32.0726C1123.75 31.0468 1124.53 29.6834 1125.26 28.0603C1125.93 26.4632 1126.52 24.5804 1127.02 22.4379H1126.49C1125.34 22.4379 1124.26 22.5158 1123.25 22.6587L1122.82 21.3862C1123.9 21.6069 1125.13 21.6848 1126.49 21.6848L1126.5 21.6718ZM1134.11 13.9979C1134.97 14.6731 1135.4 15.1925 1135.4 15.543C1135.4 15.7638 1135.05 15.8936 1134.4 15.9456C1133.65 16.0494 1133.19 16.1663 1133.09 16.2702C1132.26 17.0623 1131.4 17.7634 1130.48 18.3607C1130.89 18.7633 1131.11 19.2047 1131.11 19.6592C1131.11 20.1526 1130.89 20.5811 1130.52 21.0226C1130.22 21.3472 1129.87 21.49 1129.45 21.49C1128.92 21.49 1128.45 21.1135 1128.09 20.2954C1127.58 19.1788 1126.68 18.101 1125.45 17.0363L1125.67 16.6078C1127.28 16.9584 1128.54 17.309 1129.39 17.6985L1130.6 14.9068H1126.18C1125.16 14.9068 1124.27 14.9847 1123.57 15.1275L1123.15 13.855C1124.22 14.0758 1125.23 14.1796 1126.18 14.1796H1130.39C1130.85 13.855 1131.22 13.5823 1131.55 13.3616C1131.9 13.1409 1132.17 13.011 1132.38 13.011C1132.7 13.011 1133.26 13.3616 1134.11 14.0108V13.9979ZM1135.51 27.9434H1137.1C1137.23 27.0215 1137.3 26.0217 1137.3 24.9829C1138.11 25.0608 1138.94 25.1777 1139.74 25.3335C1140.9 25.5543 1141.48 25.7361 1141.48 25.9308C1141.48 26.2035 1141.3 26.4242 1140.95 26.5281C1140.52 26.658 1140.32 26.8268 1140.32 26.9956C1140.27 27.3461 1140.22 27.6708 1140.17 27.9434H1142.2C1142.48 27.5929 1142.68 27.3202 1142.9 27.1254C1143.31 26.6969 1143.63 26.4502 1143.89 26.4502C1144.15 26.4502 1144.69 26.7748 1145.5 27.3981C1146.3 28.0473 1146.7 28.5148 1146.7 28.7875C1146.7 28.9563 1146.55 29.1381 1146.25 29.3588C1145.93 29.6834 1145.77 29.9561 1145.77 30.1768C1145.72 31.4753 1145.56 32.8127 1145.34 34.1372C1145.12 35.111 1144.91 35.7992 1144.64 36.1498C1144.42 36.5264 1143.94 36.825 1143.24 37.0457C1142.54 37.2145 1142.04 37.2925 1141.69 37.2925C1141.39 37.2925 1141.18 36.9938 1141.04 36.4225C1140.86 35.5525 1139.91 34.7994 1138.22 34.0852L1138.33 33.6827C1140.16 33.9554 1141.3 34.0852 1141.79 34.0852C1142.01 34.0852 1142.14 34.0073 1142.24 33.8385C1142.35 33.6437 1142.46 32.9685 1142.57 31.774C1142.67 30.6832 1142.72 29.6574 1142.72 28.6836H1139.99C1139.64 30.2288 1139.16 31.5013 1138.54 32.54C1137.84 33.6827 1136.93 34.6306 1135.77 35.3318C1134.62 36.0979 1133.09 36.7731 1131.18 37.3963L1130.96 36.9678C1132.27 36.0979 1133.43 35.1759 1134.43 34.2021C1135.28 33.2542 1135.9 32.2803 1136.25 31.2935C1136.55 30.5014 1136.78 29.6315 1136.95 28.6836H1135.48C1134.08 28.6836 1133.14 28.7615 1132.66 28.9043L1132.23 27.6318C1133.26 27.8526 1134.32 27.9564 1135.48 27.9564L1135.51 27.9434ZM1138.89 13.011C1139.77 13.2837 1140.22 13.5304 1140.22 13.7122C1140.22 13.9849 1139.97 14.1796 1139.55 14.2835C1139.02 14.3874 1138.74 14.5302 1138.74 14.686C1138.59 15.0886 1138.42 15.4521 1138.29 15.7508H1142.74C1142.74 15.7508 1143.01 15.4781 1143.51 14.9068C1144.19 14.1147 1144.62 13.7122 1144.82 13.7122C1145.02 13.7122 1145.58 14.1796 1146.53 15.0366C1147.13 15.582 1147.42 15.9326 1147.42 16.0364C1147.42 16.3351 1147.24 16.4649 1146.91 16.4649H1144.98C1144.55 17.7634 1143.93 19.0229 1143.19 20.1526C1142.89 20.646 1142.59 21.0486 1142.31 21.3732C1142.46 21.477 1142.66 21.5679 1142.87 21.6199C1144.32 22.2172 1145.87 22.6457 1147.53 22.9184L1147.34 23.4637C1146.59 23.7883 1146.11 24.3077 1145.83 24.957C1145.68 25.6062 1145.54 25.9048 1145.43 25.9048C1145.11 25.9048 1144.36 25.6062 1143.15 25.0089C1142.07 24.4895 1141.14 23.8662 1140.34 23.1391C1139.53 23.6845 1138.65 24.1649 1137.63 24.5804C1136.02 25.2296 1134.28 25.749 1132.35 26.0996L1132.13 25.6971C1133.76 25.0998 1135.14 24.4765 1136.25 23.8273C1137.21 23.2819 1138.11 22.6327 1138.85 21.8406C1138.9 21.7887 1138.92 21.7627 1138.95 21.7108C1138.55 21.2174 1138.22 20.711 1137.95 20.1656C1137.58 19.5164 1137.2 18.7503 1136.85 17.8803C1136.67 18.101 1136.5 18.2828 1136.34 18.4516C1135.86 18.945 1135.06 19.4774 1133.98 20.0747L1133.69 19.6462C1134.44 18.6464 1135.05 17.5816 1135.51 16.439C1135.94 15.3223 1136.27 13.9199 1136.5 12.2319C1137.25 12.4527 1138.03 12.7253 1138.83 12.998L1138.89 13.011ZM1139.96 20.0747C1139.96 20.0747 1140.09 20.1786 1140.14 20.2046C1140.25 19.9838 1140.39 19.7761 1140.52 19.5293C1141.02 18.6074 1141.43 17.6076 1141.75 16.4909H1137.91C1137.76 16.7636 1137.61 16.9584 1137.51 17.0882C1137.46 17.1401 1137.43 17.1921 1137.43 17.2181C1138.31 18.5815 1139.14 19.5293 1139.95 20.0617L1139.96 20.0747Z" fill="#F3D7A3"/><path d="M1161.42 18.9579C1162.38 19.6071 1162.9 20.0745 1162.9 20.3213C1162.9 20.5939 1162.68 20.8406 1162.28 21.0744C1161.98 21.3471 1161.85 21.6197 1161.85 21.8924V24.4374C1161.85 25.3074 1161.87 26.476 1161.93 27.9433C1161.93 28.2939 1161.47 28.5406 1160.56 28.7094C1160.14 28.7613 1159.81 28.7873 1159.66 28.7873C1159.15 28.7873 1158.9 28.5146 1158.9 27.9433V26.9954H1155.29C1155.24 27.6187 1155.18 28.19 1155.13 28.7094C1154.83 30.4494 1154.35 32.0724 1153.68 33.5917C1153.1 34.7862 1152.28 35.9808 1151.27 37.1754L1150.74 36.9547C1151.38 34.994 1151.84 33.1502 1152.07 31.4232C1152.37 29.3067 1152.53 26.1254 1152.53 21.8924C1152.53 18.5294 1152.42 16.0882 1152.2 14.595C1153.56 15.0235 1154.66 15.439 1155.49 15.8415C1156.14 15.5169 1156.67 15.1923 1157.1 14.8677C1157.88 14.3743 1158.68 13.5952 1159.54 12.5564C1160.42 13.2576 1161.15 13.777 1161.68 14.1535C1162.48 14.7508 1162.88 15.1793 1162.88 15.426C1162.88 15.6468 1162.73 15.7506 1162.46 15.7506L1161.1 15.6467C1159.06 16.3479 1157.15 16.8414 1155.44 17.0621V20.1005H1157.96C1158.33 19.5811 1158.71 19.1267 1159.09 18.7111C1159.36 18.3865 1159.62 18.1918 1159.84 18.1918C1160.06 18.1918 1160.59 18.4644 1161.42 18.9579ZM1155.43 21.8924C1155.43 23.4636 1155.38 24.9308 1155.33 26.2293H1158.89V20.8277H1155.43V21.8924ZM1166.42 16.9193V22.3209H1170.31C1170.31 22.3209 1170.61 22.0482 1171.14 21.4509C1171.84 20.6329 1172.3 20.2044 1172.51 20.2044C1172.71 20.2044 1173.31 20.6718 1174.29 21.5938C1174.92 22.1391 1175.23 22.4897 1175.23 22.6585C1175.23 22.9312 1175.05 23.061 1174.7 23.061H1171.96V36.3055C1171.96 36.656 1171.48 36.9287 1170.56 37.0975C1170.13 37.1495 1169.83 37.1754 1169.68 37.1754C1169.17 37.1754 1168.93 36.8768 1168.93 36.3055C1169.06 35.3316 1169.15 33.9163 1169.15 32.0724V23.061H1166.41C1166.36 25.2035 1166.19 27.0733 1165.93 28.7094C1165.53 30.4494 1164.83 32.0724 1163.82 33.5917C1162.94 34.7862 1161.76 35.9808 1160.25 37.1754L1159.72 36.9547C1161.12 34.994 1162.08 33.1502 1162.56 31.4232C1163.18 29.3067 1163.49 26.1254 1163.49 21.8924C1163.49 18.4774 1163.39 15.9973 1163.17 14.4781C1164.57 14.9066 1165.69 15.3481 1166.55 15.7506C1167.36 15.452 1168.03 15.1533 1168.51 14.8287C1169.39 14.4002 1170.31 13.6861 1171.25 12.7642C1172.13 13.4394 1172.86 13.9587 1173.39 14.3353C1174.19 14.9586 1174.59 15.4 1174.59 15.6338C1174.59 15.8545 1174.44 15.9324 1174.16 15.9324L1172.83 15.8545C1170.52 16.3739 1168.38 16.7245 1166.42 16.9193Z" fill="#F3D7A3"/><path d="M1187.71 1H915.376V50.7445H1187.71V1Z" stroke="#F3D7A3" stroke-width="0.5" stroke-miterlimit="10"/><path d="M668.542 13.9719C669.021 14.2965 669.268 14.699 669.268 15.1405C669.268 15.6858 669.021 16.2312 668.542 16.7116C668.386 16.8804 668.243 16.9843 668.14 17.0362H674.039C674.233 16.387 674.389 15.7637 674.493 15.1924C674.596 14.5432 674.713 13.7251 674.817 12.8032C675.673 13.0499 676.502 13.2966 677.306 13.5044C678.084 13.7511 678.486 13.9978 678.486 14.2705C678.486 14.5432 678.266 14.699 677.838 14.7639C677.41 14.8159 677.164 14.9327 677.112 15.0366C676.762 15.582 676.36 16.0364 675.932 16.426C675.685 16.6467 675.426 16.8285 675.102 17.0492H678.162C678.162 17.0492 678.512 16.6727 679.018 15.9975C679.666 15.2314 680.042 14.8288 680.146 14.8288C680.47 14.8288 681.001 15.2054 681.701 15.9715C682.402 16.7376 682.778 17.218 682.778 17.3868C682.778 17.6595 682.596 17.7894 682.246 17.7894H673.131V20.4512H676.191C676.191 20.4512 676.515 20.1006 676.995 19.5033C677.578 18.8022 677.954 18.4386 678.071 18.4386C678.369 18.4386 678.849 18.7892 679.497 19.4644C680.146 20.1656 680.496 20.607 680.496 20.7629C680.496 21.0355 680.34 21.1654 680.068 21.1654H673.157V23.8273H679.134C679.134 23.8273 679.484 23.4507 680.016 22.7365C680.625 21.9185 681.001 21.49 681.118 21.49C681.442 21.49 681.974 21.8925 682.726 22.6846C683.478 23.5026 683.854 23.9831 683.854 24.1519C683.854 24.4246 683.672 24.5544 683.322 24.5544H676.813C677.164 24.7102 677.488 24.853 677.799 24.9829C678.68 25.3075 679.134 25.6062 679.134 25.9308C679.134 26.1256 678.914 26.2554 678.512 26.3333C678.084 26.4112 677.812 26.5281 677.76 26.6579C677.228 27.2033 676.58 27.6837 675.802 28.1512H678.693C678.693 28.1512 679.044 27.7746 679.575 27.0604C680.197 26.2424 680.56 25.8139 680.703 25.8139C681.027 25.8139 681.559 26.2164 682.311 27.0085C683.037 27.8266 683.413 28.307 683.413 28.4758C683.413 28.7485 683.231 28.8783 682.907 28.8783H663.848C662.292 28.8783 661.216 28.9303 660.607 28.9822L660.179 27.9174C661.009 28.0862 662.24 28.1382 663.848 28.1382H666.688C666.584 27.9694 666.467 27.7616 666.415 27.5149C666.143 26.5411 665.689 25.5542 664.989 24.6323L665.041 24.5284H663.511C661.955 24.5284 660.879 24.5804 660.27 24.6323L659.842 23.5676C660.698 23.7364 661.903 23.7883 663.511 23.7883H669.994V21.1264H666.428C664.898 21.1264 663.822 21.1784 663.187 21.2303L662.785 20.1785C663.615 20.3344 664.82 20.3993 666.428 20.3993H669.994V17.7374H664.445C662.915 17.7374 661.838 17.7894 661.203 17.8413L660.775 16.7765C661.631 16.9453 662.837 16.9973 664.445 16.9973H666.934C666.83 16.8415 666.713 16.5688 666.636 16.2052C666.363 15.2833 665.961 14.3614 665.378 13.4914L665.702 12.9461C667.064 13.2707 668.01 13.5953 668.542 13.9199V13.9719ZM666.817 31.0338H676.36C676.762 30.5663 677.138 30.1638 677.514 29.7872C677.786 29.4886 678.019 29.3198 678.266 29.3198C678.486 29.3198 678.992 29.5925 679.796 30.0859C680.703 30.7351 681.196 31.2026 681.196 31.4493C681.196 31.722 680.975 31.9687 680.599 32.2414C680.275 32.4881 680.146 32.7608 680.146 33.0594V33.2801C680.146 34.1242 680.172 35.2668 680.249 36.76C680.249 37.1106 679.77 37.3833 678.849 37.5521C678.421 37.604 678.123 37.63 677.941 37.63C677.462 37.63 677.215 37.3314 677.215 36.76V35.8122H666.117V36.76C666.117 37.1106 665.663 37.3833 664.782 37.5521C664.38 37.604 664.081 37.63 663.926 37.63C663.329 37.63 663.07 37.3314 663.07 36.76C663.122 35.8122 663.174 34.8902 663.174 33.9164V33.5918C663.174 32.2673 663.096 30.9559 662.953 29.6834C664.185 30.008 665.469 30.4754 666.817 31.0727V31.0338ZM677.228 35.059V31.7739H666.13V35.059H677.228ZM674.493 28.1642C675.024 27.0475 675.374 25.8529 675.569 24.5544H666.182C667.012 24.8531 667.634 25.1517 668.036 25.4503C668.49 25.8529 668.736 26.3463 668.736 26.8917C668.736 27.3591 668.555 27.7876 668.179 28.1642H674.506H674.493Z" fill="#F3D7A3"/><path d="M697.195 17.3607C698.181 17.4646 698.699 17.6334 698.699 17.8801C698.699 18.2047 698.427 18.4514 697.895 18.6073C697.519 18.7111 697.364 18.9319 697.364 19.2565V21.5937C697.364 21.8924 696.962 22.1131 696.158 22.243C695.782 22.2949 695.51 22.3209 695.354 22.3209C694.797 22.3209 694.524 22.1521 694.524 21.8015C694.576 21.3081 694.628 20.9575 694.628 20.7368V20.3083H690.959C689.701 20.3083 688.677 20.3602 687.925 20.4121L687.497 19.3474C688.457 19.5162 689.61 19.5681 690.959 19.5681H694.628V19.1396C694.628 18.2956 694.55 17.5685 694.408 16.9192C695.16 17.0231 696.093 17.1919 697.195 17.3477V17.3607ZM701.279 13.4523C701.928 13.5043 702.278 13.6731 702.278 13.9717C702.278 14.0756 702.057 14.2444 701.681 14.4392C701.227 14.6339 701.007 14.8677 701.007 15.1403V15.6597H707.49C707.84 15.3611 708.138 15.1144 708.371 14.9326C708.721 14.582 708.994 14.3872 709.175 14.3872C709.422 14.3872 709.979 14.7638 710.861 15.5299C711.665 16.1791 712.092 16.6725 712.092 16.9452C712.092 17.166 711.872 17.3218 711.47 17.3737C710.99 17.3737 710.692 17.4257 710.64 17.4776C710.29 17.5815 709.94 17.6983 709.564 17.8022C709.888 18.0229 710.342 18.3995 710.926 18.9449C711.483 19.4642 711.781 19.7889 711.781 19.8928C711.781 20.1914 711.626 20.3212 711.353 20.3212H704.547V21.4899C704.547 21.8145 704.145 22.0352 703.341 22.1391C702.965 22.1911 702.718 22.217 702.563 22.217C702.005 22.217 701.733 22.0482 701.733 21.6976C701.785 21.2042 701.837 20.8536 701.837 20.6329V19.1396C701.837 18.2956 701.759 17.5685 701.616 16.9192C702.368 17.0231 703.302 17.1919 704.378 17.3477C705.402 17.4516 705.908 17.6204 705.908 17.8671C705.908 18.1918 705.636 18.4385 705.104 18.5943C704.728 18.6982 704.547 18.9189 704.547 19.2435V19.5681H707.386C707.386 19.5681 707.632 19.2955 708.086 18.7501C708.358 18.4255 708.566 18.1788 708.76 17.984C708.358 18.0879 707.956 18.2047 707.58 18.2826L707.179 18.0619C707.451 17.5166 707.684 16.9452 707.905 16.3479H691.231C691.179 16.9192 691.153 17.3477 691.101 17.6204C690.972 18.2437 690.751 18.6852 690.453 18.8929C690.272 19.0617 690.077 19.1137 689.896 19.1137C689.273 19.1137 688.768 18.9449 688.366 18.5683C687.99 18.2437 687.808 17.8022 687.808 17.2049C687.808 17.0101 688.055 16.8024 688.586 16.5557C689.118 16.309 689.546 16.0103 689.87 15.6857C690.168 15.3871 690.427 14.9326 690.648 14.3353L691.27 14.4392V15.6078H698.181V15.2053C698.181 14.4781 698.103 13.712 697.96 12.9459C699.088 13.0498 700.19 13.2186 701.253 13.4134L701.279 13.4523ZM694.654 22.7624H704.469C704.845 22.3339 705.221 21.9184 705.545 21.5937C705.817 21.3211 706.051 21.1653 706.271 21.1653C706.452 21.1653 706.945 21.412 707.749 21.8924C708.631 22.5157 709.084 22.9571 709.084 23.1649C709.084 23.4376 708.903 23.6843 708.553 23.892C708.281 24.1388 708.151 24.3855 708.151 24.6581V28.0472C708.151 28.8912 708.177 30.0338 708.255 31.4362C708.255 31.7868 707.801 32.0335 706.919 32.2023C706.517 32.2542 706.219 32.2802 706.063 32.2802C705.636 32.2802 705.389 32.0854 705.337 31.6569H703.548V34.6174C703.548 35.1109 703.795 35.3446 704.274 35.4095C704.702 35.4614 705.402 35.4874 706.362 35.4874C707.593 35.4614 708.397 35.2926 708.773 35.02C708.994 34.7213 709.37 33.8513 709.927 32.3841H710.355L710.459 34.6044C710.459 34.8511 710.614 35.0719 710.99 35.2796C711.47 35.5004 711.716 35.7082 711.716 35.9808C711.716 36.4743 711.314 36.8248 710.537 37.0975C709.655 37.4221 708.255 37.5909 706.349 37.5909H704.417C703.717 37.5909 703.081 37.539 702.511 37.4221C701.357 37.3183 700.8 36.8508 700.8 36.0977V31.6439H698.764C698.582 32.7346 698.258 33.5657 697.805 34.137C697.377 34.7083 696.845 35.1628 696.197 35.6043C695.497 36.0068 694.615 36.3963 693.539 36.721C692.139 37.1235 690.596 37.4871 688.871 37.8117L688.547 37.1624C689.481 36.9417 690.427 36.643 691.335 36.2665C692.242 35.8899 693.02 35.4744 693.669 34.994C694.291 34.5655 694.745 34.0721 695.004 33.5787C695.328 33.0333 695.51 32.3841 695.536 31.6569H694.083V31.8777C694.083 32.2282 693.682 32.475 692.904 32.6438C692.528 32.6957 692.255 32.7217 692.1 32.7217C691.542 32.7217 691.27 32.449 691.27 31.8777C691.322 31.0337 691.374 30.1896 691.374 29.3197V25.0866C691.374 23.8401 691.296 22.6455 691.153 21.4769C692.281 21.8015 693.461 22.204 694.641 22.7494L694.654 22.7624ZM705.299 25.5022V23.4895H694.096V25.5022H705.299ZM705.299 28.2679V26.2553H694.096V28.2679H705.299ZM705.299 30.9298V29.008H694.096V30.9298H705.299ZM707.179 33.0203C707.606 33.267 707.827 33.5657 707.827 33.8903C707.827 34.2669 707.671 34.5915 707.373 34.9161C707.166 35.1628 706.893 35.2667 706.569 35.2667C706.245 35.2667 706.012 35.02 705.791 34.5395C705.493 33.8903 704.987 33.267 704.261 32.6178L704.482 32.2932C705.765 32.5399 706.647 32.7866 707.191 33.0203H707.179Z" fill="#F3D7A3"/><path d="M718.834 15.0236H719.69C720.04 14.7249 720.39 14.4263 720.74 14.1536C721.168 13.829 721.44 13.6342 721.57 13.6342C721.816 13.6342 722.296 13.9329 722.996 14.4782C723.904 15.2703 724.396 15.8027 724.396 16.0753C724.396 16.2701 724.098 16.4259 723.541 16.5428C722.983 16.5947 722.607 16.8155 722.413 17.1401L719.651 22.6456H720.935C721.155 22.3989 721.388 22.1782 721.635 21.9704C722.037 21.6458 722.335 21.477 722.516 21.477C722.789 21.477 723.32 21.7757 724.098 22.3729C724.902 23.139 725.33 23.6454 725.33 23.9181C725.33 24.1389 725.032 24.3466 724.474 24.5674C723.968 24.7881 723.696 24.9959 723.67 25.1906C723.165 27.5798 722.568 29.5665 721.933 31.1376C721.777 31.4882 721.583 31.8128 721.401 32.1375C721.933 32.6828 722.633 33.0594 723.489 33.3061C724.798 33.8514 727.326 34.0981 731.073 34.0981C733.939 34.0981 736.869 33.8774 739.812 33.4489L740.007 34.0981C738.982 34.6695 738.399 35.3447 738.295 36.1627C738.14 36.8899 737.867 37.2794 737.517 37.2794C731.138 37.2794 726.925 36.9808 724.915 36.4094C722.853 35.8641 721.323 34.9941 720.325 33.7476C720.053 34.0982 719.794 34.4228 719.521 34.7214C718.238 35.968 717.006 36.9418 715.826 37.604L715.398 37.2794C716.954 35.5914 718.212 33.7476 719.171 31.683C718.769 30.6572 718.523 29.4366 718.445 28.0473C718.497 27.5539 718.419 27.3201 718.225 27.3201C718.173 27.3201 718.121 27.5668 718.069 28.0213C717.991 28.7225 717.849 29.4107 717.667 30.0339C717.564 30.4624 717.512 30.7351 717.512 30.826C717.564 30.9948 717.641 31.1506 717.706 31.2935C717.758 31.4623 717.81 31.5921 717.81 31.67C717.81 31.8907 717.706 31.9946 717.512 31.9946C717.239 31.9946 716.863 31.7219 716.384 31.1766C715.982 30.8 715.554 30.4494 715.1 30.0599C715.93 29.2159 716.656 28.1901 717.304 26.9955C717.628 26.4502 717.952 26.1515 718.238 26.1515C718.86 26.1515 719.171 26.554 719.171 27.3201C719.353 28.1641 719.599 28.9173 719.923 29.6314C720.455 27.8395 720.831 25.7749 721.051 23.3858H719.288L718.756 24.4375C718.627 24.8141 718.432 25.0088 718.173 25.0348C717.901 25.0868 717.641 25.0868 717.317 25.0868C717.11 25.0868 716.786 25.0348 716.358 24.866C716.085 24.7621 715.956 24.6193 715.956 24.4375L719.923 15.7507H718.873C717.888 15.7507 716.941 15.8027 716.06 15.8546L715.632 14.7899C716.734 14.9587 717.797 15.0106 718.873 15.0106L718.834 15.0236ZM728.623 15.8676C728.571 14.8028 728.493 13.855 728.377 12.985C729.18 13.0629 730.231 13.2057 731.462 13.4135C732.318 13.5174 732.772 13.7121 732.772 13.9588C732.772 14.2575 732.5 14.5042 732.02 14.66C731.67 14.7639 731.514 14.9846 731.514 15.3093V15.8546H733.394C733.718 15.556 733.991 15.2573 734.25 14.9846C734.626 14.5821 734.898 14.3614 735.08 14.3614C735.352 14.3614 735.858 14.66 736.558 15.2573C737.362 15.9065 737.79 16.3091 737.79 16.4779C737.79 16.7506 737.595 16.9713 737.284 17.1791C736.908 17.4517 736.752 17.7244 736.752 17.9711V19.2436H737.076C737.18 19.0489 737.349 18.7502 737.556 18.3736C737.777 17.8802 737.932 17.6465 738.01 17.6465C738.165 17.6465 738.438 17.9452 738.866 18.5165C739.268 19.0618 739.488 19.4124 739.488 19.5812C739.488 19.8539 739.384 19.9838 739.164 19.9838H736.752C736.778 21.2303 736.804 22.0483 736.856 22.4509V23.3728C736.856 23.7234 736.402 23.9701 735.521 24.1259C735.119 24.2038 734.82 24.2298 734.665 24.2298C734.237 24.2298 733.991 24.009 733.965 23.5805H731.527V26.2424H734.043C734.043 26.2424 734.315 25.9437 734.717 25.3984C735.196 24.7491 735.495 24.4245 735.598 24.4245C735.871 24.4245 736.324 24.7491 736.908 25.3984C737.504 26.0476 737.79 26.4242 737.79 26.541C737.79 26.8397 737.66 26.9695 737.388 26.9695H731.514V29.8522H734.328C734.328 29.8522 734.678 29.4756 735.209 28.7874C735.832 28.0213 736.195 27.6188 736.337 27.6188C736.662 27.6188 737.167 27.9953 737.867 28.7614C738.567 29.5275 738.943 29.982 738.943 30.1508C738.943 30.4494 738.762 30.5793 738.438 30.5793H731.527V32.5919C731.527 32.9425 731.099 33.1892 730.244 33.358C729.868 33.41 729.595 33.4359 729.44 33.4359C728.792 33.4359 728.506 33.1633 728.506 32.5919C728.558 31.8908 728.584 31.2026 728.61 30.5793H726.704C725.174 30.5793 724.111 30.6312 723.463 30.6832L723.061 29.6184C723.891 29.7872 725.096 29.8392 726.704 29.8392H728.636C728.662 29.164 728.688 28.5147 728.688 27.9174V26.9695H727.858C726.328 26.9695 725.252 27.0215 724.617 27.0734L724.215 26.0087C725.045 26.1775 726.25 26.2294 727.858 26.2294H728.688V23.5675C727.43 23.5675 726.406 23.6195 725.654 23.6714L725.252 22.6197C726.185 22.7885 727.339 22.8404 728.688 22.8404V19.9578H725.978C725.446 19.9578 724.746 20.0097 723.891 20.0617L723.463 19.0099C724.539 19.1657 725.395 19.2306 725.978 19.2306H728.688V17.7374C728.688 17.3349 728.662 16.9453 728.662 16.5688C726.899 16.5688 725.654 16.6207 724.941 16.6726L724.513 15.6079C725.641 15.7767 727.028 15.8286 728.636 15.8286L728.623 15.8676ZM731.514 19.2566H733.926V16.5947H731.514V19.2566ZM731.514 22.8664H733.926V19.9838H731.514V22.8664Z" fill="#F3D7A3"/><path d="M746.723 18.4126H749.031C749.031 18.4126 749.381 18.0361 749.913 17.3479C750.522 16.5818 750.898 16.1792 751.015 16.1792C751.339 16.1792 751.87 16.5558 752.57 17.3219C753.271 18.088 753.647 18.5425 753.647 18.7113C753.647 19.0099 753.465 19.1398 753.141 19.1398H746.736C745.206 19.1398 744.13 19.1917 743.495 19.2436L743.093 18.1789C743.923 18.3477 745.128 18.3996 746.736 18.3996L746.723 18.4126ZM747.981 14.9197H748.512C748.512 14.9197 748.836 14.5691 749.316 13.9199C749.9 13.1928 750.276 12.8032 750.392 12.8032C750.716 12.8032 751.196 13.1798 751.896 13.8939C752.57 14.66 752.921 15.0885 752.921 15.2573C752.921 15.53 752.765 15.6599 752.493 15.6599H747.994C746.464 15.6599 745.388 15.7118 744.752 15.7637L744.324 14.712C745.18 14.8678 746.386 14.9327 747.994 14.9327L747.981 14.9197ZM747.981 21.9185H748.512C748.512 21.9185 748.836 21.5679 749.316 20.9187C749.9 20.1526 750.276 19.776 750.392 19.776C750.716 19.776 751.196 20.1526 751.896 20.8927C752.57 21.6588 752.921 22.0873 752.921 22.2171C752.921 22.5158 752.765 22.6456 752.493 22.6456H747.994C746.464 22.6456 745.388 22.6976 744.752 22.7495L744.324 21.6848C745.18 21.8536 746.386 21.9055 747.994 21.9055L747.981 21.9185ZM747.773 28.7095H748.927C749.277 28.307 749.627 27.9434 749.951 27.6188C750.198 27.3461 750.405 27.2163 750.626 27.2163C750.807 27.2163 751.3 27.463 752.052 27.8915C752.908 28.4888 753.335 28.8913 753.335 29.112C753.335 29.3587 753.128 29.6055 752.752 29.8392C752.428 30.0599 752.298 30.3326 752.298 30.6053V32.8257C752.298 33.6697 752.324 34.8123 752.402 36.2147C752.402 36.5393 751.948 36.812 751.066 36.9808C750.665 37.0327 750.366 37.0587 750.211 37.0587C749.731 37.0587 749.485 36.76 749.485 36.2147V35.4875H747.397V36.6562C747.397 36.9808 746.969 37.2535 746.114 37.4223C745.738 37.4742 745.465 37.5002 745.31 37.5002C744.713 37.5002 744.454 37.2015 744.454 36.6562C744.506 35.7342 744.558 34.8123 744.558 33.8904V31.2286C744.558 29.9301 744.48 28.6835 744.337 27.424C745.465 27.7486 746.619 28.1512 747.799 28.6965L747.773 28.7095ZM748.097 25.3075H748.525C748.525 25.3075 748.849 24.9569 749.329 24.3077C749.913 23.5416 750.289 23.165 750.405 23.165C750.729 23.165 751.209 23.5416 751.909 24.2817C752.583 25.0478 752.933 25.4763 752.933 25.6062C752.933 25.9048 752.778 26.0347 752.506 26.0347H748.11C746.58 26.0347 745.504 26.0866 744.869 26.1385L744.441 25.0868C745.297 25.2556 746.503 25.3075 748.11 25.3075H748.097ZM749.459 34.7344V29.4367H747.371V34.7344H749.459ZM756.888 25.5023H761.931C762.256 25.2296 762.515 25.0348 762.683 24.931C763.111 24.6063 763.461 24.4375 763.708 24.4375C763.928 24.4375 764.486 24.8141 765.367 25.5542C766.197 26.3723 766.625 26.8787 766.625 27.0994C766.625 27.3461 766.301 27.5019 765.717 27.5669C765.16 27.6188 764.81 27.7357 764.641 27.8395C764.084 29.2549 763.28 30.5274 762.256 31.696C762.035 31.9687 761.828 32.2414 761.607 32.4881C763.435 33.436 765.471 34.2021 767.688 34.7344L767.584 35.3837C766.729 35.6823 766.158 36.0848 765.925 36.6302C765.627 37.2794 765.393 37.6041 765.173 37.6041C764.797 37.6041 764.149 37.3054 763.189 36.76C762.061 36.2147 760.881 35.3966 759.65 34.3709C759.624 34.3709 759.624 34.3449 759.624 34.3449C759.299 34.6176 758.975 34.8383 758.664 35.0201C757.108 36.1108 754.943 37.0067 752.182 37.7079L752 37.1626C753.984 36.1887 755.967 34.6955 757.925 32.6828C757.925 32.6828 757.951 32.6569 757.977 32.6309C757.627 32.2024 757.303 31.7609 757.044 31.2675C756.266 30.0989 755.617 28.4498 755.138 26.2684C754.606 26.2944 754.152 26.3203 753.776 26.3463L753.348 25.2815C754.606 25.4114 755.786 25.4763 756.914 25.4763L756.888 25.5023ZM758.444 14.8029H760.129C760.453 14.4263 760.752 14.1277 760.985 13.881C761.361 13.5044 761.685 13.3096 761.919 13.3096C762.269 13.3096 762.826 13.6342 763.604 14.2315C764.356 14.8288 764.732 15.2963 764.732 15.6469C764.732 15.8936 764.512 16.1663 764.084 16.439C763.604 16.6597 763.358 16.9324 763.358 17.257V19.6981C763.358 20.1266 763.41 20.3993 763.513 20.4902C763.591 20.5941 763.786 20.646 764.097 20.646L764.55 20.5681C764.771 20.5681 764.978 20.2954 765.134 19.75C765.238 19.2047 765.432 18.4516 765.64 17.4647L766.067 17.5426L766.171 18.8151C766.171 19.2436 766.353 19.7111 766.729 20.2045C767.26 20.6979 767.533 21.0485 767.533 21.2563C767.533 21.8795 767.182 22.321 766.534 22.5807C765.756 22.9053 764.926 23.0741 764.071 23.0741C762.515 23.0741 761.685 22.9962 761.53 22.7755C760.829 22.5548 760.505 21.7107 760.505 20.1915V15.517H758.197C758.172 17.5297 757.99 19.1008 757.666 20.2175C757.29 21.3602 756.693 22.2821 755.89 22.9573C755.06 23.6325 754.01 24.2038 752.752 24.6453L752.532 24.1259C753.154 23.5805 753.685 22.9573 754.113 22.2821C754.386 21.8146 754.645 21.1394 754.865 20.2175C755.047 19.1657 755.164 18.049 755.164 16.9064C755.164 15.6339 755.086 14.5432 754.943 13.6213C756.279 13.9718 757.432 14.3484 758.379 14.7899L758.444 14.8029ZM757.744 29.4107C758.197 30.008 758.729 30.5274 759.325 30.9818C760.311 29.6184 761.179 28.0473 761.931 26.2554H755.825C756.304 27.3981 756.953 28.4238 757.757 29.3977L757.744 29.4107Z" fill="#F3D7A3"/><path d="M849.863 1H577.525V50.7445H849.863V1Z" stroke="#F3D7A3" stroke-width="0.5" stroke-miterlimit="10"/><path d="M872.623 17.7001L888.778 33.8791" stroke="#F3D7A3" stroke-miterlimit="10"/><path d="M888.778 17.7001L872.623 33.8791" stroke="#F3D7A3" stroke-miterlimit="10"/><path d="M553 26L151 26" stroke="white" stroke-miterlimit="10"/><path d="M8.544 30.3165C9.568 31.5965 10.8907 32.6738 12.512 33.5485C14.1547 34.4231 15.9893 35.1271 18.016 35.6605C20.0427 36.1938 22.1867 36.5885 24.448 36.8445C26.7307 37.1005 29.0027 37.2605 31.264 37.3245V37.7085C30.4747 37.9431 29.8453 38.3698 29.376 38.9885C28.9067 39.6071 28.5867 40.3751 28.416 41.2925C25.3867 40.8871 22.5707 40.2791 19.968 39.4685C17.3653 38.6578 15.0613 37.5485 13.056 36.1405C11.0507 34.7111 9.41867 32.8765 8.16 30.6365L8.544 30.3165ZM21.12 30.1565L23.456 28.2045L26.72 31.3725C26.592 31.5431 26.4213 31.6605 26.208 31.7245C25.9947 31.7671 25.664 31.7991 25.216 31.8205C23.5093 33.7191 21.4293 35.3405 18.976 36.6845C16.5227 38.0071 13.7813 39.0631 10.752 39.8525C7.744 40.6418 4.52267 41.1751 1.088 41.4525L0.928 40.9725C3.89333 40.3538 6.70933 39.5431 9.376 38.5405C12.0427 37.5165 14.432 36.3005 16.544 34.8925C18.656 33.4845 20.3307 31.9058 21.568 30.1565H21.12ZM23.68 30.1565V31.0525H2.496L2.208 30.1565H23.68ZM21.76 11.5005C22.8907 11.6071 23.7653 11.8205 24.384 12.1405C25.0027 12.4391 25.4293 12.7911 25.664 13.1965C25.8987 13.6018 25.984 13.9965 25.92 14.3805C25.856 14.7431 25.6747 15.0418 25.376 15.2765C25.0987 15.5111 24.7573 15.6391 24.352 15.6605C23.9467 15.6605 23.5307 15.5005 23.104 15.1805C23.0613 14.5618 22.88 13.9325 22.56 13.2925C22.24 12.6311 21.8773 12.0978 21.472 11.6925L21.76 11.5005ZM7.872 11.5645C9.00267 11.6925 9.87733 11.9165 10.496 12.2365C11.1147 12.5351 11.5413 12.8871 11.776 13.2925C12.0107 13.6765 12.096 14.0605 12.032 14.4445C11.968 14.8071 11.7867 15.1165 11.488 15.3725C11.2107 15.6071 10.8693 15.7351 10.464 15.7565C10.0587 15.7565 9.64267 15.5858 9.216 15.2445C9.19467 14.6258 9.024 13.9965 8.704 13.3565C8.384 12.6951 8.01067 12.1618 7.584 11.7565L7.872 11.5645ZM8.832 12.9085C8.74667 13.1005 8.59733 13.2605 8.384 13.3885C8.192 13.4951 7.92533 13.5378 7.584 13.5165C6.752 15.0951 5.78133 16.5245 4.672 17.8045C3.584 19.0845 2.42133 20.1298 1.184 20.9405L0.768 20.6205C1.57867 19.5325 2.34667 18.1778 3.072 16.5565C3.79733 14.9138 4.384 13.2178 4.832 11.4685L8.832 12.9085ZM22.208 12.7805C22.144 12.9938 22.0053 13.1645 21.792 13.2925C21.6 13.3991 21.3333 13.4418 20.992 13.4205C20.2453 14.9991 19.3493 16.4071 18.304 17.6445C17.28 18.8818 16.1707 19.9058 14.976 20.7165L14.56 20.3965C15.3067 19.3298 16 18.0071 16.64 16.4285C17.28 14.8498 17.7813 13.1965 18.144 11.4685L22.208 12.7805ZM25.312 16.0445V27.1805H22.272V16.0445H25.312ZM20.064 28.2685C20.064 28.3751 19.8293 28.5671 19.36 28.8445C18.8907 29.1218 18.24 29.2605 17.408 29.2605H16.864V17.5805L18.752 14.9245L20.48 15.5965H20.064V28.2685ZM28.032 24.7485C28.032 24.7485 28.192 24.8765 28.512 25.1325C28.832 25.3671 29.216 25.6765 29.664 26.0605C30.1333 26.4231 30.5387 26.7751 30.88 27.1165C30.7947 27.4578 30.5173 27.6285 30.048 27.6285H18.528V26.7325H26.464L28.032 24.7485ZM27.264 21.3245C27.264 21.3245 27.4027 21.4418 27.68 21.6765C27.9573 21.8898 28.2987 22.1671 28.704 22.5085C29.1093 22.8285 29.4613 23.1378 29.76 23.4365C29.696 23.7778 29.4187 23.9485 28.928 23.9485H18.528V23.0525H25.888L27.264 21.3245ZM27.264 17.5805C27.264 17.5805 27.4027 17.6978 27.68 17.9325C27.9573 18.1458 28.288 18.4231 28.672 18.7645C29.0773 19.0845 29.4293 19.3938 29.728 19.6925C29.664 20.0338 29.3973 20.2045 28.928 20.2045H18.528V19.3085H25.888L27.264 17.5805ZM27.488 13.8365C27.488 13.8365 27.6373 13.9538 27.936 14.1885C28.256 14.4018 28.6293 14.6791 29.056 15.0205C29.4827 15.3618 29.8773 15.6925 30.24 16.0125C30.176 16.3538 29.8987 16.5245 29.408 16.5245H18.464V15.5965H25.984L27.488 13.8365ZM11.488 16.0445V27.1805H8.512V16.0445H11.488ZM6.496 28.3965C6.496 28.5031 6.26133 28.6951 5.792 28.9725C5.32267 29.2285 4.69333 29.3565 3.904 29.3565H3.328V17.6445L5.248 14.9885L6.88 15.5965H6.496V28.3965ZM13.76 24.8125C13.76 24.8125 13.92 24.9405 14.24 25.1965C14.56 25.4311 14.9333 25.7298 15.36 26.0925C15.808 26.4551 16.2027 26.7965 16.544 27.1165C16.4587 27.4578 16.1707 27.6285 15.68 27.6285H4.96V26.7325H12.256L13.76 24.8125ZM13.216 21.2605C13.216 21.2605 13.3547 21.3778 13.632 21.6125C13.9093 21.8258 14.2293 22.0925 14.592 22.4125C14.976 22.7325 15.3173 23.0418 15.616 23.3405C15.5307 23.6818 15.264 23.8525 14.816 23.8525H4.96V22.9245H11.904L13.216 21.2605ZM13.216 17.5805C13.216 17.5805 13.3547 17.6871 13.632 17.9005C13.9093 18.1138 14.2293 18.3805 14.592 18.7005C14.9547 19.0205 15.296 19.3298 15.616 19.6285C15.5307 19.9698 15.2533 20.1405 14.784 20.1405H4.96V19.2445H11.904L13.216 17.5805ZM13.344 13.8365C13.344 13.8365 13.4933 13.9538 13.792 14.1885C14.112 14.4231 14.4853 14.7111 14.912 15.0525C15.36 15.3725 15.7547 15.6925 16.096 16.0125C16.0107 16.3538 15.7333 16.5245 15.264 16.5245H4.864V15.5965H11.872L13.344 13.8365ZM54.72 19.0205V37.2925L51.328 37.7405V19.0205H54.72ZM55.936 13.6125C55.8507 13.8045 55.648 13.9431 55.328 14.0285C55.0293 14.1138 54.624 14.0498 54.112 13.8365L55.168 13.7085C54.528 14.2845 53.7067 14.9031 52.704 15.5645C51.7227 16.2258 50.6773 16.8658 49.568 17.4845C48.4587 18.0818 47.4133 18.5618 46.432 18.9245L46.4 18.5725H48.096C48.0107 19.5965 47.8187 20.4178 47.52 21.0365C47.2213 21.6338 46.8693 22.0071 46.464 22.1565L44.896 18.1245C44.896 18.1245 45.024 18.0925 45.28 18.0285C45.536 17.9645 45.7493 17.9005 45.92 17.8365C46.432 17.5378 46.9653 17.1325 47.52 16.6205C48.0747 16.0871 48.6187 15.5005 49.152 14.8605C49.6853 14.2205 50.1547 13.5911 50.56 12.9725C50.9653 12.3538 51.2853 11.8205 51.52 11.3725L55.936 13.6125ZM45.632 18.3805C46.464 18.3805 47.616 18.3591 49.088 18.3165C50.56 18.2525 52.224 18.1778 54.08 18.0925C55.936 17.9858 57.8347 17.8685 59.776 17.7405L59.808 18.2205C58.4213 18.6258 56.576 19.1271 54.272 19.7245C51.9893 20.3005 49.44 20.8871 46.624 21.4845L45.632 18.3805ZM38.336 20.2045H37.248L37.632 20.0445C37.6107 20.5138 37.5787 21.0898 37.536 21.7725C37.4933 22.4338 37.44 23.1378 37.376 23.8845C37.312 24.6098 37.2373 25.3245 37.152 26.0285C37.088 26.7111 37.024 27.3085 36.96 27.8205H37.216L36.064 29.1965L33.056 27.3725C33.2693 27.1805 33.536 26.9991 33.856 26.8285C34.176 26.6365 34.4747 26.4871 34.752 26.3805L33.952 27.5645C34.0373 27.0525 34.112 26.4125 34.176 25.6445C34.2613 24.8765 34.336 24.0658 34.4 23.2125C34.464 22.3378 34.5173 21.4951 34.56 20.6845C34.6027 19.8738 34.624 19.1805 34.624 18.6045L38.336 20.2045ZM42.368 26.8925V27.8205H35.296L35.456 26.8925H42.368ZM40.192 26.8925L41.952 25.1645L45.088 27.7885C44.9813 27.9165 44.8213 28.0338 44.608 28.1405C44.416 28.2258 44.1493 28.2898 43.808 28.3325C43.7227 30.5725 43.5733 32.4925 43.36 34.0925C43.168 35.6711 42.9013 36.9405 42.56 37.9005C42.24 38.8605 41.8133 39.5538 41.28 39.9805C40.8107 40.3645 40.2453 40.6525 39.584 40.8445C38.944 41.0365 38.1867 41.1325 37.312 41.1325C37.312 40.6631 37.2587 40.2258 37.152 39.8205C37.0667 39.4365 36.896 39.1165 36.64 38.8605C36.384 38.6258 35.968 38.4125 35.392 38.2205C34.816 38.0071 34.1867 37.8365 33.504 37.7085L33.536 37.2605C33.984 37.3031 34.5067 37.3458 35.104 37.3885C35.7013 37.4311 36.256 37.4738 36.768 37.5165C37.28 37.5378 37.6533 37.5485 37.888 37.5485C38.3787 37.5485 38.7413 37.4418 38.976 37.2285C39.232 36.9725 39.4667 36.4071 39.68 35.5325C39.8933 34.6578 40.064 33.4951 40.192 32.0445C40.3413 30.5938 40.4587 28.8765 40.544 26.8925H40.192ZM40.096 13.8365L41.696 12.0445L45.152 14.6685C45.0453 14.8178 44.864 14.9565 44.608 15.0845C44.3733 15.2125 44.0853 15.3085 43.744 15.3725V22.6045C43.744 22.6685 43.584 22.7645 43.264 22.8925C42.944 22.9991 42.5707 23.1058 42.144 23.2125C41.7387 23.3191 41.3547 23.3725 40.992 23.3725H40.448V13.8365H40.096ZM42.112 20.2045V21.1325H36.192V20.2045H42.112ZM42.752 13.8365V14.7645H34.112L33.824 13.8365H42.752ZM48.672 32.3005C48.672 32.3858 48.5333 32.5031 48.256 32.6525C48 32.8018 47.6587 32.9405 47.232 33.0685C46.8267 33.1965 46.4 33.2605 45.952 33.2605H45.504V23.7885V22.4445L48.864 23.7885H59.008V24.7165H48.672V32.3005ZM43.68 37.1325C44.704 37.0898 46.08 37.0151 47.808 36.9085C49.5573 36.8018 51.52 36.6738 53.696 36.5245C55.8933 36.3751 58.1867 36.2151 60.576 36.0445L60.608 36.5245C59.2 37.0365 57.3973 37.6018 55.2 38.2205C53.024 38.8391 50.2933 39.5645 47.008 40.3965C46.9013 40.6098 46.7733 40.7698 46.624 40.8765C46.4747 41.0045 46.3147 41.0898 46.144 41.1325L43.68 37.1325ZM57.248 23.7885L58.752 22.1565L61.984 24.5885C61.8987 24.6738 61.76 24.7805 61.568 24.9085C61.3973 25.0151 61.1627 25.1005 60.864 25.1645V31.7245C60.864 31.7885 60.704 31.8845 60.384 32.0125C60.064 32.1405 59.6907 32.2578 59.264 32.3645C58.8373 32.4711 58.4427 32.5245 58.08 32.5245H57.536V23.7885H57.248ZM58.944 30.0285V30.9245H47.264V30.0285H58.944ZM56.896 33.0045C58.4533 33.5805 59.68 34.2418 60.576 34.9885C61.472 35.7138 62.112 36.4498 62.496 37.1965C62.88 37.9218 63.0613 38.5938 63.04 39.2125C63.0187 39.8311 62.848 40.3325 62.528 40.7165C62.2293 41.1005 61.8347 41.3031 61.344 41.3245C60.8533 41.3458 60.32 41.1325 59.744 40.6845C59.6373 39.8311 59.4133 38.9671 59.072 38.0925C58.7307 37.1965 58.336 36.3218 57.888 35.4685C57.4613 34.6151 57.024 33.8471 56.576 33.1645L56.896 33.0045ZM55.36 15.0205C56.9387 15.2551 58.208 15.6178 59.168 16.1085C60.128 16.5991 60.832 17.1431 61.28 17.7405C61.7493 18.3378 61.9947 18.9245 62.016 19.5005C62.0587 20.0765 61.9413 20.5671 61.664 20.9725C61.408 21.3565 61.0453 21.5911 60.576 21.6765C60.1067 21.7618 59.584 21.6231 59.008 21.2605C58.8587 20.5351 58.5813 19.7991 58.176 19.0525C57.7707 18.3058 57.2907 17.6018 56.736 16.9405C56.2027 16.2791 55.648 15.7138 55.072 15.2445L55.36 15.0205ZM81.376 27.3085C81.3547 27.5005 81.2587 27.6711 81.088 27.8205C80.9173 27.9485 80.5973 28.0445 80.128 28.1085V30.8285C80.0853 30.8285 79.9787 30.8285 79.808 30.8285C79.6587 30.8285 79.392 30.8285 79.008 30.8285C78.6453 30.8285 78.112 30.8285 77.408 30.8285V28.9085V27.0205L81.376 27.3085ZM79.488 29.3885L80.128 29.8045V34.8925H80.384L79.424 36.3965L76.448 34.5405C76.6187 34.3271 76.8533 34.1138 77.152 33.9005C77.472 33.6658 77.7493 33.5058 77.984 33.4205L77.408 34.5085V29.3885H79.488ZM94.944 27.6285C94.9227 27.8205 94.8373 27.9911 94.688 28.1405C94.5387 28.2685 94.2933 28.3538 93.952 28.3965V36.2685C93.952 36.3325 93.8347 36.4285 93.6 36.5565C93.3867 36.6845 93.1093 36.7911 92.768 36.8765C92.4267 36.9618 92.0853 37.0045 91.744 37.0045H91.232V27.2765L94.944 27.6285ZM92.8 33.9645V34.8925H88.16V33.9645H92.8ZM83.296 33.9645V34.8925H78.944V33.9645H83.296ZM90.528 26.3485C90.5067 26.5618 90.4 26.7538 90.208 26.9245C90.0373 27.0738 89.7493 27.1805 89.344 27.2445V40.6205C89.344 40.7058 89.216 40.8125 88.96 40.9405C88.7253 41.0685 88.416 41.1858 88.032 41.2925C87.6693 41.3991 87.296 41.4525 86.912 41.4525H86.368V25.9645L90.528 26.3485ZM85.952 26.3485C85.9307 26.5618 85.8453 26.7431 85.696 26.8925C85.5467 27.0205 85.28 27.1058 84.896 27.1485V32.1085C84.8747 33.0685 84.7467 34.0071 84.512 34.9245C84.2987 35.8205 83.904 36.6845 83.328 37.5165C82.752 38.3485 81.9307 39.1058 80.864 39.7885C79.8187 40.4925 78.464 41.1005 76.8 41.6125L76.512 41.2285C78.048 40.4391 79.2107 39.5645 80 38.6045C80.8107 37.6231 81.3547 36.5778 81.632 35.4685C81.9307 34.3591 82.08 33.2285 82.08 32.0765V25.9325L85.952 26.3485ZM95.104 16.8765C94.9973 17.0471 94.784 17.1645 94.464 17.2285C94.144 17.2925 93.7387 17.1965 93.248 16.9405L94.208 16.7805C93.7387 17.4418 93.1093 18.2205 92.32 19.1165C91.5307 20.0125 90.688 20.8871 89.792 21.7405C88.896 22.5725 88.0213 23.2871 87.168 23.8845L87.136 23.5005H88.32C88.2133 24.2898 88.0213 24.8978 87.744 25.3245C87.4667 25.7298 87.1573 25.9751 86.816 26.0605L85.888 23.0845C85.888 23.0845 85.9947 23.0631 86.208 23.0205C86.4213 22.9565 86.6027 22.8818 86.752 22.7965C87.2213 22.3698 87.712 21.8258 88.224 21.1645C88.736 20.4818 89.2267 19.7458 89.696 18.9565C90.1653 18.1671 90.592 17.3885 90.976 16.6205C91.36 15.8525 91.6587 15.1911 91.872 14.6365L95.104 16.8765ZM92.704 13.0365C92.6187 13.2071 92.4267 13.3565 92.128 13.4845C91.8507 13.5911 91.4347 13.5485 90.88 13.3565L91.84 13.1645C91.456 13.7191 90.976 14.3271 90.4 14.9885C89.824 15.6498 89.2053 16.2898 88.544 16.9085C87.904 17.5058 87.296 18.0178 86.72 18.4445L86.656 18.0605H87.968C87.904 18.8071 87.7547 19.3831 87.52 19.7885C87.3067 20.1938 87.0613 20.4605 86.784 20.5885L85.504 17.6445C85.504 17.6445 85.5893 17.6231 85.76 17.5805C85.9307 17.5165 86.0693 17.4525 86.176 17.3885C86.56 16.9831 86.9333 16.4178 87.296 15.6925C87.68 14.9458 88.0213 14.1671 88.32 13.3565C88.6187 12.5458 88.8213 11.8631 88.928 11.3085L92.704 13.0365ZM91.456 20.1405C92.5867 20.7591 93.408 21.3991 93.92 22.0605C94.432 22.7005 94.72 23.3085 94.784 23.8845C94.8693 24.4605 94.7947 24.9405 94.56 25.3245C94.3253 25.6871 94.0053 25.8898 93.6 25.9325C93.216 25.9751 92.832 25.8045 92.448 25.4205C92.448 24.8445 92.3733 24.2471 92.224 23.6285C92.0747 23.0098 91.8933 22.4125 91.68 21.8365C91.488 21.2605 91.2853 20.7378 91.072 20.2685L91.456 20.1405ZM86.24 23.1805C86.688 23.1591 87.296 23.1271 88.064 23.0845C88.832 23.0205 89.6853 22.9565 90.624 22.8925C91.584 22.8071 92.5547 22.7218 93.536 22.6365L93.568 23.0845C92.9493 23.3618 92.0427 23.7565 90.848 24.2685C89.6533 24.7805 88.3947 25.2818 87.072 25.7725L86.24 23.1805ZM86.016 17.7725C86.4213 17.7725 86.9653 17.7831 87.648 17.8045C88.352 17.8045 89.12 17.8045 89.952 17.8045C90.8053 17.7831 91.648 17.7618 92.48 17.7405L92.512 18.2205C92.1707 18.3698 91.712 18.5511 91.136 18.7645C90.56 18.9778 89.9093 19.2125 89.184 19.4685C88.4587 19.7245 87.7333 19.9698 87.008 20.2045L86.016 17.7725ZM86.592 16.9405C86.4853 17.1111 86.272 17.2285 85.952 17.2925C85.632 17.3565 85.2373 17.2498 84.768 16.9725L85.728 16.8445C85.1947 17.5058 84.5013 18.2845 83.648 19.1805C82.7947 20.0551 81.856 20.9191 80.832 21.7725C79.8293 22.6045 78.8587 23.3191 77.92 23.9165L77.888 23.5645H79.072C78.9867 24.3111 78.7947 24.8978 78.496 25.3245C78.1973 25.7511 77.888 26.0071 77.568 26.0925L76.64 23.1165C76.64 23.1165 76.7467 23.0951 76.96 23.0525C77.1947 22.9885 77.376 22.9138 77.504 22.8285C78.0373 22.4231 78.592 21.8791 79.168 21.1965C79.7653 20.5138 80.3413 19.7778 80.896 18.9885C81.4507 18.1991 81.952 17.4205 82.4 16.6525C82.848 15.8845 83.1893 15.2231 83.424 14.6685L86.592 16.9405ZM84.352 13.0685C84.2667 13.2605 84.0747 13.4098 83.776 13.5165C83.4987 13.6231 83.0827 13.5805 82.528 13.3885L83.52 13.1965C83.1147 13.7298 82.6027 14.3271 81.984 14.9885C81.3653 15.6285 80.7147 16.2471 80.032 16.8445C79.3493 17.4418 78.6987 17.9431 78.08 18.3485L78.048 17.9965H79.36C79.2747 18.7218 79.1147 19.2978 78.88 19.7245C78.6667 20.1298 78.4213 20.3965 78.144 20.5245L76.864 17.5805C76.864 17.5805 76.9493 17.5591 77.12 17.5165C77.2907 17.4525 77.44 17.3885 77.568 17.3245C77.9733 16.9405 78.3787 16.3858 78.784 15.6605C79.2107 14.9138 79.5947 14.1458 79.936 13.3565C80.2773 12.5458 80.512 11.8738 80.64 11.3405L84.352 13.0685ZM82.752 20.2045C83.84 20.8018 84.6293 21.4205 85.12 22.0605C85.6107 22.6791 85.8773 23.2658 85.92 23.8205C85.984 24.3751 85.8987 24.8338 85.664 25.1965C85.4293 25.5378 85.12 25.7298 84.736 25.7725C84.352 25.8151 83.9573 25.6338 83.552 25.2285C83.5733 24.4391 83.456 23.5965 83.2 22.7005C82.944 21.7831 82.656 20.9938 82.336 20.3325L82.752 20.2045ZM76.992 23.2125C77.44 23.1911 78.048 23.1591 78.816 23.1165C79.6053 23.0738 80.48 23.0098 81.44 22.9245C82.4213 22.8391 83.4133 22.7538 84.416 22.6685L84.448 23.1485C84.0213 23.3191 83.456 23.5538 82.752 23.8525C82.0693 24.1511 81.3013 24.4711 80.448 24.8125C79.5947 25.1538 78.72 25.4845 77.824 25.8045L76.992 23.2125ZM77.248 17.6765C77.6533 17.6765 78.1973 17.6871 78.88 17.7085C79.584 17.7085 80.352 17.7085 81.184 17.7085C82.0373 17.7085 82.88 17.6978 83.712 17.6765L83.744 18.1565C83.424 18.3058 82.9653 18.4978 82.368 18.7325C81.792 18.9458 81.1413 19.1805 80.416 19.4365C79.712 19.6711 78.9867 19.9165 78.24 20.1725L77.248 17.6765ZM75.84 40.6205C75.8187 40.7271 75.5733 40.8978 75.104 41.1325C74.656 41.3885 74.0267 41.5165 73.216 41.5165H72.672V14.0605H75.84V40.6205ZM73.984 26.3485V27.2765H68.448V26.3485H73.984ZM73.984 20.1725V21.0685H68.448V20.1725H73.984ZM69.824 34.4445C69.8027 34.4658 69.5787 34.5191 69.152 34.6045C68.7253 34.6898 68.1173 34.7325 67.328 34.7325H66.816V14.1565H69.824V34.4445ZM75.424 11.6605C75.424 11.6605 75.616 11.8098 76 12.1085C76.384 12.3858 76.832 12.7378 77.344 13.1645C77.8773 13.5698 78.3467 13.9538 78.752 14.3165C78.6667 14.6578 78.3787 14.8285 77.888 14.8285H65.12L64.864 13.9325H73.6L75.424 11.6605ZM64.832 33.6765C65.408 33.5911 66.208 33.4525 67.232 33.2605C68.2773 33.0685 69.4613 32.8445 70.784 32.5885C72.1067 32.3325 73.4507 32.0551 74.816 31.7565L74.912 32.1085C74.08 32.6631 73.024 33.3565 71.744 34.1885C70.4853 34.9991 68.96 35.9165 67.168 36.9405C66.9973 37.3885 66.72 37.6658 66.336 37.7725L64.832 33.6765ZM96.832 29.0685H120.992L123.232 26.3165C123.232 26.3165 123.36 26.4125 123.616 26.6045C123.893 26.7965 124.245 27.0631 124.672 27.4045C125.099 27.7245 125.536 28.0658 125.984 28.4285C126.453 28.7911 126.891 29.1325 127.296 29.4525C127.211 29.7938 126.901 29.9645 126.368 29.9645H97.088L96.832 29.0685ZM98.592 22.1565H119.744L121.92 19.4365C121.92 19.4365 122.059 19.5431 122.336 19.7565C122.613 19.9485 122.955 20.2045 123.36 20.5245C123.765 20.8445 124.192 21.1858 124.64 21.5485C125.109 21.8898 125.525 22.2205 125.888 22.5405C125.824 22.8818 125.525 23.0525 124.992 23.0525H98.848L98.592 22.1565ZM119.968 11.5325L123.872 15.3085C123.701 15.4578 123.424 15.5431 123.04 15.5645C122.677 15.5645 122.229 15.4578 121.696 15.2445C120.224 15.5431 118.571 15.8205 116.736 16.0765C114.923 16.3325 113.003 16.5565 110.976 16.7485C108.971 16.9191 106.933 17.0471 104.864 17.1325C102.795 17.2178 100.757 17.2498 98.752 17.2285L98.688 16.7485C100.565 16.5138 102.496 16.2045 104.48 15.8205C106.485 15.4365 108.448 15.0098 110.368 14.5405C112.309 14.0711 114.101 13.5805 115.744 13.0685C117.408 12.5565 118.816 12.0445 119.968 11.5325ZM110.08 15.3405H114.176V36.5885C114.176 37.4845 114.037 38.2738 113.76 38.9565C113.504 39.6605 112.96 40.2258 112.128 40.6525C111.296 41.1005 110.048 41.3885 108.384 41.5165C108.32 40.8551 108.203 40.2791 108.032 39.7885C107.883 39.3191 107.616 38.9351 107.232 38.6365C106.848 38.3165 106.368 38.0498 105.792 37.8365C105.237 37.6018 104.395 37.4098 103.264 37.2605V36.8445C103.264 36.8445 103.435 36.8551 103.776 36.8765C104.117 36.8978 104.544 36.9191 105.056 36.9405C105.589 36.9618 106.144 36.9938 106.72 37.0365C107.296 37.0578 107.819 37.0791 108.288 37.1005C108.757 37.1218 109.088 37.1325 109.28 37.1325C109.579 37.1325 109.781 37.0791 109.888 36.9725C110.016 36.8445 110.08 36.6631 110.08 36.4285V15.3405Z" fill="white"/></svg>