<svg width="1240" height="109" fill="none" xmlns="http://www.w3.org/2000/svg"><g clip-path="url(#clip0_28_916)"><path d="M116.426 11.8467C128.204 11.7588 142.64 10.391 152.475 8.42071C155.377 9.53761 156.867 8.87249 157.593 8.11953L158.163 7.51716L150.518 -0.0124512L149.974 0.213437C141.862 3.48882 127.233 7.07793 115.933 8.55876L114.987 8.68425L115.7 11.8467H116.413H116.426Z" fill="#F3D7A3"/><path d="M132.545 28.3114L132.817 28.5875C133.698 29.4785 134.722 29.9428 135.72 29.9428C136.057 29.9428 136.394 29.8926 136.718 29.7797C138.221 29.2777 139.296 27.6965 139.517 25.6509C139.892 22.1246 137.754 16.8789 130.588 12.7L130.2 12.4741L127.764 13.5283L128.334 14.3691C130.627 17.7323 132.934 23.4046 132.584 27.9349L132.558 28.3114H132.545Z" fill="#F3D7A3"/><path d="M161.908 46.2068C159.666 43.7722 156.245 40.7604 156.103 40.6349L155.351 39.9698L153.071 43.2075V36.4811C154.509 36.0418 155.766 35.3391 156.375 34.5861L156.906 33.9335L148.963 27.5585L145.516 31.248H143.702C146.773 28.1106 150.414 23.2038 154.535 16.6405C156.284 16.6154 157.58 15.8625 158.034 14.4193L158.267 13.6914L148.471 9.6631L148.186 10.5666C146.099 17.2555 143.236 24.6847 140.877 29.5036L140.54 30.1813L142.277 31.2605H116.931L117.683 33.8833L117.527 33.7453C114.936 31.3233 110.711 27.8597 110.672 27.822L109.96 27.2322L106.072 32.2896H99.6841V25.4878H111.087C112.694 25.4878 113.821 24.7098 114.184 23.3544L114.301 22.9027L113.977 22.5638C111.735 20.2296 108.236 17.2178 108.094 17.0923L107.381 16.4899L103.844 20.9952H99.6841V14.7581H112.176C113.782 14.7581 114.91 13.9801 115.272 12.6247L115.389 12.1604L115.052 11.8216C112.461 9.21132 108.405 5.73515 108.366 5.71005L107.653 5.10768L103.571 10.2655H99.6841V5.35867C102.185 4.7061 102.833 3.26293 102.911 2.12094L102.962 1.31778L92.4018 0.050293V10.2404H78.0833L79.2365 14.7456H92.4147V20.9826H80.2472L81.4005 25.4878H92.4147V32.2896H76.0229L77.1892 36.6944H114.638C116.283 36.6944 117.475 35.8912 117.825 34.561L117.877 34.3602L118.279 35.7532H130.537V44.6005H114.275L107.161 39.0286L103.999 42.831H88.6569L81.0247 39.2419V58.8064C81.0247 67.9172 81.0247 77.3543 76.5672 84.8086L76.2432 85.3482L78.3554 87.5444L79.0033 86.9796C84.1605 82.4744 86.9983 76.275 87.9183 67.4905H104.44V77.9441C104.44 78.8477 104.323 78.8728 103.61 78.8728C102.237 78.8728 96.0429 78.3206 95.9781 78.3206L95.0193 78.2327V81.3826L95.7579 81.4956C98.3754 81.9097 100.047 82.4744 100.876 83.2525C101.719 83.9678 101.978 85.4737 102.107 86.5404L102.211 87.3687L103.066 87.2808C110.219 86.5906 111.567 83.7294 111.567 78.6845V48.0516C112.305 47.8257 113.083 47.5119 113.718 47.1355L114.223 49.0932H130.537V58.2291H116.076L117.385 62.6339H130.524V77.1912C130.524 78.1073 130.485 78.2955 129.254 78.2955C127.518 78.2955 118.382 77.5551 118.292 77.5551L117.346 77.4798V80.6548L118.123 80.7426C121.92 81.1693 124.188 81.8219 125.509 82.9262C126.274 83.4658 126.857 84.9216 126.935 86.5781L126.986 87.4816L127.919 87.3812C136.018 86.5153 137.677 82.8007 137.677 77.4798V62.6465H145.957V67.4152H147.641C149.443 67.4152 152.876 66.1101 153.084 64.83V49.1183H159.031C160.638 49.1183 161.765 48.3402 162.128 46.9849L162.245 46.5456L161.934 46.2068H161.908ZM137.651 44.613V35.7657H145.931V44.613H137.651ZM145.944 49.1183V58.2542H137.664V49.1183H145.944ZM104.414 57.3255V62.9978H88.1775C88.2293 61.5421 88.2293 60.1491 88.2293 58.8064V57.3255H104.414ZM88.2423 52.8329V47.3488H104.427V52.8329H88.2423Z" fill="#F3D7A3"/><path d="M121.091 29.0768C121.972 29.9051 122.969 30.3318 123.928 30.3318C124.304 30.3318 124.68 30.269 125.043 30.131C126.507 29.5913 127.505 28.0478 127.66 26.0901C127.79 24.4587 127.505 18.7613 118.447 13.8043L118.019 13.5784L115.661 14.8082L116.205 15.5863C118.421 18.7864 120.805 24.1826 120.805 28.4619V28.8258L121.078 29.0768H121.091Z" fill="#F3D7A3"/><path d="M190.182 48.7166C183.858 48.7166 178.209 50.8375 173.855 54.8282C169.164 59.0322 166.365 65.0434 166.365 70.8788C166.365 77.9817 170.291 84.4572 174.619 84.4572C181.189 84.4572 187.616 72.1965 189.534 66.5995C190.648 63.3743 191.231 60.1993 191.231 57.4134C191.231 55.7694 190.687 54.1129 189.547 52.2681C189.677 52.2681 189.793 52.2681 189.91 52.2681C198.708 52.2681 205.096 58.6557 205.096 67.4528C205.096 77.4547 198.747 83.6917 186.23 85.9631L185.387 86.1137L185.88 88.9875L186.683 88.9248C208.466 87.3937 210.824 74.0538 210.824 68.394C210.824 56.9867 202.155 48.7041 190.195 48.7041L190.182 48.7166ZM186.606 56.9114C186.606 59.4965 185.647 62.8598 184.74 65.1187C182.044 71.4937 177.496 78.3833 174.827 78.3833C173.375 78.3833 171.199 75.0326 171.199 69.9752C171.199 65.5955 173.077 61.3287 176.511 57.9404C178.909 55.4933 182.005 53.7489 185.491 52.8454C186.269 54.2886 186.593 55.5058 186.593 56.9114H186.606Z" fill="#F3D7A3"/><path d="M305.235 55.945C294.714 53.8367 281.121 48.9801 273.229 41.5634H285.397V45.6671H287.198C288.87 45.6671 292.887 44.249 293.107 42.8937V12.0599C294.765 11.6207 296.139 10.9054 296.852 10.0646L297.422 9.39946L288.546 2.56006L284.956 6.62605H240.303L232.723 3.14988V46.3447H234.615C237.051 46.3447 240.433 44.8765 240.433 43.4458V41.5885H249.115C242.623 50.1346 232.71 57.1999 220.348 62.0816L219.506 62.4079L220.918 65.4825L221.657 65.2692C231.401 62.4707 239.733 58.6808 246.458 53.9998V60.9898C246.458 69.1971 243.919 79.4123 224.158 85.6744L223.108 86.0132L224.845 88.7616L225.466 88.6235C250.501 82.8634 253.909 70.9415 254.078 61.1781V54.6022C255.879 54.2132 256.838 53.2971 257.084 51.7786L257.226 50.9127L251.305 50.1974C254.22 47.6248 256.851 44.7384 259.144 41.576H268.072C269.925 44.6004 272.374 47.4993 275.38 50.235L271.001 49.7707V88.5482H273.074C275.251 88.5482 278.711 87.218 278.711 85.6368V54.4265C279.203 54.3261 279.631 54.163 279.968 53.9497C285.488 57.9905 292.122 61.3538 299.702 63.9264L300.622 64.2401L300.856 63.324C301.517 60.7138 303.046 59.007 305.145 58.5302L305.754 58.3921L305.974 56.0956L305.197 55.945H305.235ZM266.362 21.5598V11.1187H285.397V21.5598H266.362ZM285.397 25.9646V37.0582H266.362V25.9646H285.397ZM258.652 11.1187V21.5598H240.433V11.1187H258.652ZM258.652 25.9646V37.0582H240.433V25.9646H258.652Z" fill="#F3D7A3"/><path d="M18.5674 41.0865H19.3578C19.8632 41.0865 20.4204 41.0112 20.9905 40.8731C21.5995 40.7225 22.079 40.5719 22.4288 40.4088C22.8565 40.1955 23.0508 40.0323 23.0508 39.8315V38.6142H42.695V40.8355H43.628C44.2629 40.8355 45.0275 40.71 45.9216 40.459C47.2173 40.0951 47.3599 39.9068 47.4117 39.706V29.5034H18.5674V41.0865ZM23.0379 37.0581V31.0721H42.6821V37.0581H23.0379Z" fill="#F3D7A3"/><path d="M40.9198 24.9231C42.2934 23.9819 43.6669 22.6893 45.0275 21.0955L45.1959 20.9073L42.721 19.9661H53.3724V18.4476H35.1147V14.8459H49.6923V13.2898H35.1147V9.73834H51.5972V8.18222H38.2505C40.0905 7.05278 41.6973 5.6849 43.032 4.10368L43.2004 3.90289L38.5745 2.39697L38.5097 2.57266C37.6933 4.89429 36.8899 6.7767 36.1124 8.18222H27.9749C28.4284 7.81829 28.7005 7.32887 28.7783 6.73905C28.8819 5.91079 28.3507 5.05744 27.2104 4.22918C26.1348 3.41347 24.4374 2.8613 22.1827 2.58521H22.1179L21.4441 2.97424L21.5996 3.13738C23.1804 4.7437 24.0745 6.41277 24.2559 8.06928V8.14458L24.3337 8.19477H14.395L14.9392 9.75089H30.398V13.3024H16.7274L17.2068 14.8585H30.385V18.4601H12.6716L13.164 19.9786L19.7855 20.0163C20.3297 20.5684 20.7832 21.2586 21.1331 22.0995C21.5218 22.9528 21.7032 23.7685 21.6773 24.534V24.6344L21.7551 24.6972C21.8847 24.785 22.0013 24.8729 22.1309 24.9482H11L11.4924 26.5043H54.5645V24.9482H40.9198V24.9231ZM26.3292 23.7685C26.6013 23.0407 26.3292 22.25 25.4999 21.4343C24.9038 20.8445 23.9968 20.3551 22.7917 19.9661H30.385V24.9231H25.461C25.8757 24.6344 26.1737 24.2454 26.3292 23.7685ZM35.1017 24.9231V19.9661H40.6995C40.0905 21.6979 39.4297 23.3669 38.7429 24.9231H35.1017Z" fill="#F3D7A3"/><path d="M52.9058 81.8219L52.7633 77.4422H51.934L51.8951 77.5677C51.1306 79.8516 50.5734 81.2572 50.2365 81.734C50.0551 82.0101 49.757 82.1482 49.3165 82.1482C48.85 82.1733 47.4764 82.1858 45.2347 82.1858H40.4792C39.5851 82.1858 39.2352 82.1231 39.1186 82.0729C39.0797 82.0478 38.9501 81.9976 38.9501 81.6964V76.5512H41.8397V77.2539H41.5417C41.3085 77.2288 41.14 77.2163 41.0104 77.2163H40.9327L40.2718 77.7935L40.4921 77.919C41.3214 78.4085 42.1507 79.0234 42.98 79.7512C43.8223 80.4791 44.4443 81.1568 44.8071 81.7717L44.833 81.8219L44.8978 81.847C45.7271 82.1733 46.4528 82.1607 47.0618 81.847C47.8393 81.3952 48.1114 80.7175 47.8393 79.9018C47.4635 78.81 46.3232 78.032 44.4313 77.5928C44.7812 77.4924 45.1181 77.3794 45.442 77.2414C46.2973 76.9025 46.4916 76.7143 46.5305 76.501V62.3327H39.9608V59.6472H47.5931C48.3964 59.6472 48.8759 59.3836 49.0314 58.8566L49.0573 58.7436L48.9666 58.6683C48.7463 58.4675 48.4094 58.1915 47.9559 57.8401C49.6922 56.8738 51.2472 55.7694 52.5559 54.5647L52.6207 54.5145V52.3184H35.0627V48.0516L30.2683 47.512V52.3184H18.6062C18.4766 51.6909 18.2434 50.9881 17.9194 50.2477L17.8676 50.1222L16.8439 50.185L16.8698 50.3732C16.9864 51.3646 16.7273 52.3435 16.1053 53.2721C15.5092 54.2008 14.7706 54.8659 13.9025 55.2675C12.3216 55.9953 11.7514 56.9993 12.2309 58.2166C12.503 58.9068 13.0861 59.3335 13.9673 59.484C14.8095 59.6095 15.6 59.4464 16.2608 59.0574C17.0772 58.6558 17.725 57.9781 18.2045 57.0369C18.658 56.1459 18.8524 55.0918 18.7876 53.8745H47.5542C47.295 55.1796 47.0229 56.5977 46.7378 58.0911H39.9608V54.6525L35.4385 54.1129V58.0911H29.9962V54.6525L25.5257 54.1129V58.0911H17.6343L18.1138 59.6472H25.5128V62.3327H19.0856V78.8226H19.8761C20.7313 78.8226 21.5865 78.6594 22.4158 78.3583C23.3488 78.0069 23.7505 77.7182 23.7505 77.4045V76.5512H25.733C25.0074 78.8351 23.5172 80.6924 21.3144 82.0729C19.0208 83.516 15.6388 84.6706 11.272 85.5114L11.0776 85.549L11.2979 86.4651H11.4664C17.1419 85.9506 21.6254 84.9216 24.8001 83.378C27.9877 81.8721 30.1128 79.5756 31.1365 76.5512H34.3501V82.3866C34.3501 83.7419 34.687 84.6455 35.3608 85.0973C36.0475 85.5365 37.447 85.7498 39.611 85.7498H44.8201C48.6038 85.7498 51.1565 85.5992 52.4134 85.2855C53.774 84.9592 54.4608 84.3443 54.4608 83.4659C54.4608 82.7003 53.9295 82.1356 52.8669 81.8093L52.9058 81.8219ZM29.9962 62.3327V59.6472H35.4385V62.3327H29.9962ZM23.7634 66.587V63.9014H41.8268V66.587H23.7634ZM23.7634 70.7157V68.1556H41.8268V70.7157H23.7634ZM41.8268 72.2718V74.995H23.7634V72.2718H41.8268Z" fill="#F3D7A3"/><path d="M64.6846 14.984V12.311H67.1854V11.5706H61.2637V12.311H64.3347V14.984H61.2637V15.7244H67.1854V14.984H64.6846Z" fill="#F3D7A3"/><path d="M67.4057 19.5394L61.2637 17.0671V17.4562L66.0063 19.3386L64.0367 20.1166V18.8617H63.6998V20.2547L61.2637 21.2335V22.0116L67.2243 19.6147L67.4057 19.5394Z" fill="#F3D7A3"/><path d="M64.4384 25.7514C64.555 25.9647 64.7234 26.1655 64.9178 26.3286C65.2029 26.5796 65.5009 26.7051 65.8119 26.7051C66.3043 26.7051 66.6801 26.4416 66.9133 25.9145C67.0947 25.5255 67.1854 25.0486 67.1854 24.4713V23.3921H61.2637V23.4674C61.2637 24.0698 61.2637 24.4337 61.2637 24.5466C61.2637 25.2368 61.3673 25.8141 61.5876 26.2408C61.8727 26.793 62.3262 27.0691 62.9482 27.0691C63.3888 27.0691 63.7516 26.9059 64.0367 26.5796C64.231 26.3537 64.3736 26.0651 64.4643 25.7388L64.4384 25.7514ZM61.5876 24.3709V24.12H66.8485V24.396C66.8485 25.4502 66.4857 25.9647 65.7342 25.9647C65.4491 25.9647 65.1899 25.8894 64.9826 25.7514C64.6846 25.5631 64.542 25.2745 64.542 24.898V24.5592H64.2051V24.9608C64.2051 25.3623 64.1015 25.6886 63.92 25.9271C63.6998 26.2031 63.3758 26.3412 62.9352 26.3412C62.0282 26.3412 61.5876 25.6886 61.5876 24.3584V24.3709Z" fill="#F3D7A3"/><path d="M67.1854 28.575H61.2637V29.3154H67.1854V28.575Z" fill="#F3D7A3"/><path d="M67.1854 34.4731V30.6079H66.8485V32.1766H61.2637V32.917H66.8485V34.4731H67.1854Z" fill="#F3D7A3"/><path d="M67.4057 36.5813L61.2637 34.1216V34.4981L66.0063 36.393L64.0367 37.1711V35.9161H63.6998V37.3091L61.2637 38.288V39.066L67.2243 36.6565L67.4057 36.5813Z" fill="#F3D7A3"/><path d="M64.4384 42.8058C64.555 43.0192 64.7234 43.2199 64.9178 43.3831C65.2029 43.6341 65.5009 43.7596 65.8119 43.7596C66.3043 43.7596 66.6801 43.496 66.9133 42.969C67.0947 42.5799 67.1854 42.103 67.1854 41.5258V40.4465H61.2637V40.5218C61.2637 41.1242 61.2637 41.4881 61.2637 41.6011C61.2637 42.2913 61.3673 42.8686 61.5876 43.2952C61.8727 43.8474 62.3262 44.1235 62.9482 44.1235C63.3888 44.1235 63.7516 43.9604 64.0367 43.6341C64.231 43.4082 64.3736 43.1195 64.4643 42.7933L64.4384 42.8058ZM66.8485 41.1744V41.4505C66.8485 42.5046 66.4857 43.0191 65.7342 43.0191C65.4491 43.0191 65.1899 42.9439 64.9826 42.8058C64.6846 42.6176 64.542 42.3289 64.542 41.9525V41.6136H64.2051V42.0152C64.2051 42.4168 64.1015 42.7431 63.92 42.9815C63.6998 43.2576 63.3758 43.3956 62.9352 43.3956C62.0282 43.3956 61.5876 42.7431 61.5876 41.4128V41.1618H66.8485V41.1744Z" fill="#F3D7A3"/><path d="M67.1854 46.3698V45.6294H61.2637V48.5534H61.6006V46.3698H67.1854Z" fill="#F3D7A3"/><path d="M64.3347 50.5991V52.4689H64.6846V50.5991H66.8485V52.6822H67.1854V49.8586H61.2637V52.7826H61.6006V50.5991H64.3347Z" fill="#F3D7A3"/><path d="M67.1854 59.2832C67.1854 58.6808 67.1854 58.2416 67.1854 57.953V57.8777H61.2637V58.6056H66.8615V59.1201C66.8615 59.6973 66.7319 60.124 66.4728 60.3876C66.2654 60.6009 65.9544 60.7013 65.5527 60.7013C65.151 60.7013 64.8789 60.5883 64.6327 60.3499C64.3736 60.0989 64.244 59.735 64.244 59.2832V59.0322H63.9071V59.1075C63.9071 59.1828 63.9071 59.2832 63.9071 59.4087C63.9071 59.9483 64.0496 60.4378 64.3736 60.8268C64.6975 61.2284 65.0992 61.4292 65.5527 61.4292C66.0063 61.4292 66.395 61.2911 66.6671 61.0276C67.0299 60.6762 67.2114 60.0864 67.1984 59.2832H67.1854Z" fill="#F3D7A3"/><path d="M67.1854 63.4244V62.6965H61.2637V65.6205H61.6006V63.4244H67.1854Z" fill="#F3D7A3"/><path d="M67.4057 68.8332L61.2637 66.3735V66.75L66.0063 68.645L64.0367 69.423V68.1681H63.6998V69.5611L61.2637 70.5399V71.318L67.2243 68.9085L67.4057 68.8332Z" fill="#F3D7A3"/><path d="M62.3781 76.2875C61.8209 75.9362 61.5488 75.4467 61.5488 74.7942C61.5488 74.2294 61.808 73.7651 62.3263 73.3886C62.8446 73.0122 63.4796 72.8239 64.2311 72.8239C64.9827 72.8239 65.6435 72.9871 66.1359 73.3133C66.6542 73.6522 66.9134 74.0914 66.9134 74.6436C66.9134 75.1957 66.7061 75.6977 66.2785 76.0993L66.2137 76.162L66.6024 76.5009L66.6542 76.4381C67.043 75.9612 67.2503 75.3714 67.2503 74.6561C67.2503 73.9408 66.9393 73.2882 66.3432 72.7737C65.7601 72.2717 65.0475 72.0208 64.2311 72.0208C63.4148 72.0208 62.715 72.2968 62.119 72.8616C61.5229 73.4137 61.2119 74.0788 61.2119 74.8193C61.2119 75.5973 61.5099 76.2373 62.0931 76.6891L62.1578 76.7393L62.4559 76.3503L62.3781 76.3001V76.2875Z" fill="#F3D7A3"/><path d="M61.6006 78.3708H64.3347V80.2406H64.6846V78.3708H66.8485V80.454H67.1854V77.6304H61.2637V80.5544H61.6006V78.3708Z" fill="#F3D7A3"/></g><line y1="108.5" x2="1240" y2="108.5" stroke="#F3D7A3"/><path d="M1039.77 74.447H1039.44L1041.01 72.665L1044.36 75.203C1044.25 75.329 1044.09 75.455 1043.87 75.581C1043.66 75.707 1043.39 75.806 1043.06 75.878V84.086C1043.06 84.14 1042.9 84.23 1042.58 84.356C1042.27 84.464 1041.9 84.572 1041.47 84.68C1041.05 84.77 1040.67 84.815 1040.31 84.815H1039.77V74.447ZM1027.13 74.447H1041.41V75.203H1027.13V74.447ZM1027.13 81.656H1041.39V82.412H1027.13V81.656ZM1023.24 68.642H1041.44L1043.39 66.239C1043.39 66.239 1043.5 66.329 1043.74 66.509C1043.99 66.689 1044.29 66.923 1044.65 67.211C1045.03 67.481 1045.42 67.778 1045.82 68.102C1046.23 68.408 1046.61 68.705 1046.95 68.993C1046.88 69.281 1046.62 69.425 1046.17 69.425H1023.46L1023.24 68.642ZM1023 88.865H1042.33L1044.33 86.354C1044.33 86.354 1044.45 86.444 1044.68 86.624C1044.93 86.804 1045.25 87.038 1045.63 87.326C1046.02 87.614 1046.43 87.929 1046.84 88.271C1047.27 88.595 1047.66 88.901 1048 89.189C1047.93 89.477 1047.67 89.621 1047.22 89.621H1023.22L1023 88.865ZM1026.16 68.885H1029.45V89.081H1026.16V68.885ZM1055.51 67.67H1076.54V68.426H1055.75L1055.51 67.67ZM1075.35 67.67H1075.06L1076.62 66.077L1079.38 68.669C1079.27 68.795 1079.13 68.876 1078.97 68.912C1078.83 68.948 1078.61 68.975 1078.32 68.993C1077.89 69.299 1077.34 69.614 1076.68 69.938C1076.03 70.262 1075.43 70.523 1074.89 70.721L1074.62 70.532C1074.71 70.28 1074.8 69.974 1074.89 69.614C1075 69.254 1075.09 68.903 1075.16 68.561C1075.24 68.201 1075.3 67.904 1075.35 67.67ZM1060.83 71.261C1061.46 72.251 1062.24 72.998 1063.18 73.502C1064.11 73.988 1065.26 74.312 1066.63 74.474C1068.02 74.618 1069.67 74.69 1071.57 74.69C1072.04 74.69 1072.63 74.69 1073.33 74.69C1074.03 74.69 1074.79 74.69 1075.6 74.69C1076.41 74.69 1077.17 74.69 1077.89 74.69C1078.63 74.672 1079.25 74.654 1079.75 74.636V74.987C1079.25 75.095 1078.87 75.383 1078.62 75.851C1078.37 76.319 1078.24 76.85 1078.24 77.444C1077.86 77.444 1077.38 77.444 1076.78 77.444C1076.19 77.444 1075.55 77.444 1074.87 77.444C1074.2 77.444 1073.56 77.444 1072.95 77.444C1072.36 77.444 1071.86 77.444 1071.47 77.444C1069.47 77.444 1067.77 77.282 1066.36 76.958C1064.98 76.634 1063.82 76.04 1062.88 75.176C1061.96 74.294 1061.19 73.043 1060.56 71.423L1060.83 71.261ZM1067.25 71.315H1071.57L1073.17 69.506C1073.17 69.506 1073.34 69.623 1073.68 69.857C1074.02 70.091 1074.42 70.37 1074.87 70.694C1075.34 71.018 1075.76 71.333 1076.14 71.639C1076.08 71.927 1075.84 72.071 1075.41 72.071H1067.25V71.315ZM1065.55 67.67H1068.77V75.905L1065.55 75.635V67.67ZM1059.56 69.344L1063.82 70.127C1063.77 70.325 1063.66 70.478 1063.5 70.586C1063.34 70.694 1063.1 70.757 1062.77 70.775C1062.5 71.801 1062.06 72.809 1061.45 73.799C1060.85 74.771 1060.04 75.68 1058.99 76.526C1057.97 77.372 1056.63 78.092 1055 78.686L1054.81 78.389C1055.94 77.597 1056.83 76.697 1057.48 75.689C1058.15 74.663 1058.64 73.601 1058.96 72.503C1059.29 71.405 1059.49 70.352 1059.56 69.344ZM1059.88 83.978H1074.22V84.734H1059.88V83.978ZM1072.9 79.955H1072.63L1074.08 78.416L1077.14 80.684C1077.06 80.774 1076.94 80.873 1076.76 80.981C1076.6 81.071 1076.39 81.143 1076.14 81.197V84.977C1076.14 85.031 1075.97 85.121 1075.65 85.247C1075.34 85.355 1074.98 85.463 1074.57 85.571C1074.17 85.661 1073.8 85.706 1073.44 85.706H1072.9V79.955ZM1058.26 79.955V78.632L1061.66 79.955H1074.14V80.738H1061.48V85.49C1061.48 85.58 1061.33 85.706 1061.04 85.868C1060.77 86.03 1060.42 86.174 1059.99 86.3C1059.58 86.408 1059.14 86.462 1058.69 86.462H1058.26V79.955ZM1055.4 87.812C1056.3 87.83 1057.44 87.839 1058.83 87.839C1060.23 87.839 1061.82 87.83 1063.58 87.812C1065.36 87.776 1067.27 87.749 1069.31 87.731C1071.36 87.695 1073.47 87.65 1075.65 87.596L1075.68 88.055C1074.42 88.325 1072.96 88.604 1071.3 88.892C1069.65 89.162 1067.73 89.45 1065.55 89.756C1063.39 90.062 1060.9 90.413 1058.07 90.809C1057.88 91.115 1057.61 91.295 1057.29 91.349L1055.4 87.812ZM1065.5 77.39L1069.68 77.741C1069.67 77.903 1069.59 78.047 1069.47 78.173C1069.34 78.281 1069.12 78.362 1068.79 78.416V88.352L1065.5 88.73V77.39ZM1071.09 85.814C1072.69 85.868 1074.01 86.066 1075.06 86.408C1076.1 86.732 1076.9 87.137 1077.46 87.623C1078.04 88.109 1078.41 88.604 1078.59 89.108C1078.77 89.612 1078.79 90.062 1078.65 90.458C1078.52 90.854 1078.26 91.133 1077.86 91.295C1077.49 91.475 1077.02 91.457 1076.46 91.241C1076.1 90.611 1075.61 89.972 1074.98 89.324C1074.35 88.676 1073.67 88.064 1072.95 87.488C1072.25 86.912 1071.56 86.426 1070.9 86.03L1071.09 85.814ZM1091.72 87.353L1090.77 86.408L1098.14 79.064L1090.77 71.693L1091.69 70.775L1099.06 78.146L1106.43 70.775L1107.35 71.693L1099.98 79.064L1107.35 86.408L1106.4 87.353L1099.06 79.982L1091.72 87.353ZM1134.02 80.063C1133.99 80.261 1133.89 80.432 1133.73 80.576C1133.57 80.702 1133.3 80.792 1132.94 80.846V81.764H1130.6V80.144V79.685L1134.02 80.063ZM1129.84 80.009C1129.82 80.171 1129.74 80.315 1129.6 80.441C1129.47 80.567 1129.25 80.648 1128.95 80.684V82.331C1128.93 83.015 1128.86 83.762 1128.73 84.572C1128.62 85.364 1128.42 86.165 1128.11 86.975C1127.81 87.785 1127.36 88.55 1126.79 89.27C1126.21 90.008 1125.46 90.647 1124.52 91.187L1124.22 90.89C1124.89 90.062 1125.38 89.153 1125.68 88.163C1126.01 87.155 1126.22 86.138 1126.33 85.112C1126.44 84.086 1126.49 83.141 1126.49 82.277V79.658L1129.84 80.009ZM1130 86.624C1130.34 86.498 1130.79 86.327 1131.35 86.111C1131.91 85.895 1132.53 85.634 1133.21 85.328C1133.92 85.022 1134.62 84.725 1135.32 84.437L1135.46 84.734C1135.22 84.986 1134.9 85.328 1134.48 85.76C1134.07 86.192 1133.6 86.669 1133.08 87.191C1132.56 87.713 1132 88.235 1131.41 88.757L1130 86.624ZM1132.38 80.954L1132.94 81.278V86.543L1131.11 87.272L1132.05 86.435C1132.23 87.155 1132.21 87.74 1131.97 88.19C1131.74 88.622 1131.49 88.91 1131.22 89.054L1129.76 86.543C1130.12 86.327 1130.34 86.147 1130.43 86.003C1130.54 85.859 1130.6 85.67 1130.6 85.436V80.954H1132.38ZM1128.87 68.642C1128.85 68.804 1128.76 68.939 1128.6 69.047C1128.45 69.137 1128.19 69.209 1127.81 69.263V71.396C1127.74 71.396 1127.57 71.396 1127.3 71.396C1127.05 71.396 1126.51 71.396 1125.68 71.396V69.776V68.183L1128.87 68.642ZM1127.3 70.208L1127.81 70.505V75.014H1127.92L1127.36 75.77L1125.17 74.69C1125.29 74.546 1125.46 74.384 1125.65 74.204C1125.85 74.006 1126.04 73.871 1126.22 73.799L1125.68 74.663V70.208H1127.3ZM1136.45 73.961C1136.62 75.707 1136.87 77.318 1137.21 78.794C1137.55 80.27 1138 81.62 1138.56 82.844C1139.14 84.05 1139.86 85.121 1140.72 86.057C1141.58 86.975 1142.61 87.767 1143.8 88.433L1143.72 88.676C1143 88.856 1142.43 89.162 1142.02 89.594C1141.6 90.026 1141.3 90.602 1141.1 91.322C1139.87 90.242 1138.91 88.874 1138.21 87.218C1137.53 85.544 1137.03 83.645 1136.72 81.521C1136.44 79.379 1136.24 77.075 1136.13 74.609L1136.45 73.961ZM1142.23 72.503C1142.12 74.645 1141.9 76.652 1141.56 78.524C1141.22 80.396 1140.68 82.124 1139.94 83.708C1139.2 85.292 1138.18 86.732 1136.89 88.028C1135.61 89.324 1133.98 90.467 1132 91.457L1131.76 91.16C1133.32 89.99 1134.6 88.73 1135.59 87.38C1136.6 86.03 1137.38 84.572 1137.94 83.006C1138.52 81.44 1138.92 79.784 1139.15 78.038C1139.41 76.292 1139.55 74.447 1139.59 72.503H1142.23ZM1141.04 70.262C1141.04 70.262 1141.2 70.379 1141.5 70.613C1141.81 70.847 1142.17 71.135 1142.58 71.477C1143.02 71.801 1143.4 72.116 1143.74 72.422C1143.67 72.71 1143.44 72.854 1143.04 72.854H1136.94L1137.26 72.098H1139.59L1141.04 70.262ZM1139.96 66.752C1139.93 66.932 1139.83 67.085 1139.67 67.211C1139.51 67.319 1139.27 67.391 1138.97 67.427C1138.71 69.065 1138.39 70.658 1137.99 72.206C1137.6 73.736 1137.13 75.185 1136.59 76.553C1136.05 77.903 1135.43 79.118 1134.73 80.198L1134.29 79.982C1134.67 78.74 1135 77.354 1135.27 75.824C1135.54 74.276 1135.76 72.674 1135.94 71.018C1136.12 69.362 1136.24 67.742 1136.29 66.158L1139.96 66.752ZM1132.59 75.689C1132.59 75.689 1132.71 75.797 1132.94 76.013C1133.18 76.211 1133.46 76.463 1133.78 76.769C1134.11 77.075 1134.38 77.363 1134.62 77.633C1134.56 77.921 1134.34 78.065 1133.94 78.065H1125.36L1125.14 77.282H1131.46L1132.59 75.689ZM1133.48 74.258V75.014H1126.82V74.258H1133.48ZM1131.97 66.644C1131.95 66.788 1131.88 66.923 1131.76 67.049C1131.65 67.157 1131.45 67.229 1131.16 67.265V74.636H1128.98V66.347L1131.97 66.644ZM1135.27 68.561C1135.23 68.705 1135.16 68.84 1135.05 68.966C1134.94 69.074 1134.74 69.146 1134.46 69.182V74.771C1134.46 74.825 1134.37 74.897 1134.19 74.987C1134.02 75.077 1133.81 75.167 1133.54 75.257C1133.29 75.329 1133.03 75.365 1132.76 75.365H1132.35V68.291L1135.27 68.561ZM1125.33 68.156C1125.24 68.282 1125.12 68.381 1124.98 68.453C1124.84 68.525 1124.61 68.543 1124.3 68.507C1123.84 69.047 1123.3 69.641 1122.68 70.289C1122.07 70.919 1121.41 71.549 1120.69 72.179C1119.98 72.791 1119.25 73.349 1118.47 73.853L1118.2 73.583C1118.69 72.863 1119.17 72.062 1119.63 71.18C1120.1 70.28 1120.52 69.398 1120.9 68.534C1121.28 67.652 1121.57 66.878 1121.77 66.212L1125.33 68.156ZM1125.87 73.367C1125.8 73.511 1125.69 73.628 1125.55 73.718C1125.4 73.79 1125.16 73.808 1124.82 73.772C1124.39 74.582 1123.85 75.455 1123.2 76.391C1122.57 77.309 1121.86 78.218 1121.06 79.118C1120.29 80.018 1119.44 80.837 1118.53 81.575L1118.23 81.305C1118.84 80.387 1119.41 79.352 1119.93 78.2C1120.45 77.048 1120.91 75.905 1121.31 74.771C1121.7 73.619 1122 72.602 1122.2 71.72L1125.87 73.367ZM1124.41 77.552C1124.32 77.786 1124.04 77.948 1123.58 78.038V90.404C1123.58 90.494 1123.46 90.611 1123.22 90.755C1123.01 90.917 1122.72 91.061 1122.36 91.187C1122.02 91.331 1121.64 91.403 1121.23 91.403H1120.69V77.633L1121.58 76.499L1124.41 77.552ZM1172.69 67.481C1172.69 67.481 1172.84 67.616 1173.15 67.886C1173.47 68.138 1173.86 68.444 1174.31 68.804C1174.76 69.164 1175.15 69.506 1175.5 69.83C1175.43 70.118 1175.18 70.262 1174.77 70.262H1165.61V69.479H1171.1L1172.69 67.481ZM1161.27 67.616C1161.27 67.616 1161.41 67.742 1161.7 67.994C1162.01 68.228 1162.35 68.516 1162.73 68.858C1163.12 69.2 1163.48 69.524 1163.81 69.83C1163.73 70.118 1163.49 70.262 1163.08 70.262H1155.08V69.506H1159.89L1161.27 67.616ZM1167.83 70.991C1168.98 70.973 1169.9 71.09 1170.58 71.342C1171.29 71.576 1171.79 71.882 1172.09 72.26C1172.4 72.62 1172.55 72.998 1172.55 73.394C1172.55 73.772 1172.45 74.105 1172.23 74.393C1172.01 74.663 1171.71 74.834 1171.31 74.906C1170.93 74.978 1170.52 74.888 1170.07 74.636C1169.96 74.204 1169.78 73.772 1169.53 73.34C1169.28 72.908 1168.98 72.503 1168.64 72.125C1168.3 71.747 1167.95 71.432 1167.61 71.18L1167.83 70.991ZM1169.37 67.346C1169.31 67.508 1169.2 67.643 1169.02 67.751C1168.85 67.859 1168.61 67.904 1168.29 67.886C1167.51 69.506 1166.58 70.919 1165.48 72.125C1164.4 73.313 1163.22 74.294 1161.94 75.068L1161.65 74.825C1162.13 74.105 1162.6 73.277 1163.05 72.341C1163.5 71.387 1163.9 70.37 1164.26 69.29C1164.64 68.192 1164.94 67.076 1165.16 65.942L1169.37 67.346ZM1156.41 71.153C1157.51 71.225 1158.38 71.414 1159.03 71.72C1159.69 72.008 1160.16 72.341 1160.43 72.719C1160.7 73.097 1160.83 73.475 1160.81 73.853C1160.79 74.231 1160.66 74.555 1160.43 74.825C1160.2 75.077 1159.89 75.23 1159.51 75.284C1159.15 75.32 1158.76 75.203 1158.32 74.933C1158.23 74.501 1158.07 74.069 1157.84 73.637C1157.62 73.187 1157.36 72.764 1157.06 72.368C1156.77 71.954 1156.48 71.612 1156.19 71.342L1156.41 71.153ZM1158.68 67.346C1158.62 67.508 1158.5 67.643 1158.32 67.751C1158.16 67.841 1157.93 67.886 1157.62 67.886C1156.69 69.794 1155.58 71.45 1154.3 72.854C1153.04 74.24 1151.68 75.374 1150.22 76.256L1149.9 76.04C1150.51 75.248 1151.1 74.321 1151.66 73.259C1152.23 72.179 1152.76 71.027 1153.25 69.803C1153.73 68.561 1154.13 67.301 1154.44 66.023L1158.68 67.346ZM1164.48 76.418C1164.41 77.894 1164.27 79.28 1164.08 80.576C1163.9 81.872 1163.55 83.078 1163.05 84.194C1162.55 85.292 1161.79 86.3 1160.78 87.218C1159.79 88.118 1158.45 88.91 1156.76 89.594C1155.08 90.296 1152.95 90.881 1150.36 91.349L1150.2 90.944C1152.21 90.242 1153.88 89.495 1155.19 88.703C1156.51 87.911 1157.55 87.065 1158.32 86.165C1159.1 85.247 1159.67 84.284 1160.03 83.276C1160.4 82.25 1160.66 81.17 1160.78 80.036C1160.93 78.884 1161.01 77.678 1161.02 76.418H1164.48ZM1163.94 81.44C1164.39 82.52 1165.01 83.429 1165.8 84.167C1166.6 84.905 1167.5 85.517 1168.5 86.003C1169.53 86.471 1170.64 86.849 1171.82 87.137C1173.01 87.407 1174.25 87.614 1175.52 87.758L1175.5 88.055C1174.81 88.253 1174.24 88.631 1173.77 89.189C1173.32 89.765 1172.99 90.485 1172.77 91.349C1171.2 90.791 1169.82 90.116 1168.61 89.324C1167.41 88.55 1166.39 87.542 1165.56 86.3C1164.75 85.058 1164.1 83.492 1163.62 81.602L1163.94 81.44ZM1171.5 78.956C1171.5 78.956 1171.6 79.046 1171.8 79.226C1172.01 79.388 1172.28 79.604 1172.61 79.874C1172.93 80.144 1173.26 80.432 1173.61 80.738C1173.97 81.026 1174.28 81.305 1174.55 81.575C1174.5 81.863 1174.25 82.007 1173.82 82.007H1151.36L1151.14 81.251H1169.8L1171.5 78.956ZM1171.88 76.796C1171.72 76.904 1171.48 76.967 1171.18 76.985C1170.89 76.985 1170.52 76.904 1170.07 76.742C1168.95 76.958 1167.7 77.156 1166.32 77.336C1164.95 77.498 1163.5 77.642 1161.97 77.768C1160.46 77.894 1158.91 77.984 1157.33 78.038C1155.76 78.092 1154.23 78.11 1152.74 78.092L1152.68 77.687C1154.09 77.507 1155.53 77.273 1157.03 76.985C1158.54 76.679 1160.02 76.346 1161.46 75.986C1162.91 75.626 1164.26 75.257 1165.51 74.879C1166.77 74.483 1167.84 74.096 1168.72 73.718L1171.88 76.796ZM1196.58 77.201C1196.51 77.399 1196.34 77.552 1196.07 77.66C1195.8 77.768 1195.42 77.759 1194.94 77.633L1195.75 77.336C1195.28 78.182 1194.68 79.1 1193.94 80.09C1193.22 81.08 1192.43 82.079 1191.56 83.087C1190.7 84.077 1189.82 85.013 1188.92 85.895C1188.02 86.759 1187.15 87.497 1186.32 88.109L1186.3 87.785H1188.08C1187.97 88.829 1187.75 89.648 1187.43 90.242C1187.11 90.836 1186.72 91.214 1186.27 91.376L1184.89 87.245C1184.89 87.245 1184.96 87.227 1185.11 87.191C1185.25 87.155 1185.41 87.101 1185.59 87.029C1185.77 86.957 1185.92 86.876 1186.03 86.786C1186.44 86.408 1186.87 85.886 1187.32 85.22C1187.79 84.536 1188.26 83.78 1188.73 82.952C1189.21 82.124 1189.66 81.269 1190.08 80.387C1190.51 79.487 1190.89 78.614 1191.21 77.768C1191.54 76.922 1191.79 76.166 1191.97 75.5L1196.58 77.201ZM1185.49 87.434C1186.31 87.416 1187.36 87.362 1188.62 87.272C1189.88 87.182 1191.29 87.074 1192.86 86.948C1194.44 86.804 1196.1 86.642 1197.83 86.462C1199.55 86.264 1201.28 86.057 1203.01 85.841L1203.04 86.219C1201.27 86.867 1199.01 87.587 1196.26 88.379C1193.52 89.153 1190.35 89.927 1186.73 90.701L1185.49 87.434ZM1196.85 67.454L1197.88 65.807L1200.69 67.724C1200.53 67.94 1200.23 68.102 1199.8 68.21C1199.37 68.318 1198.86 68.39 1198.29 68.426C1198.72 69.722 1199.37 70.946 1200.23 72.098C1201.09 73.25 1202.14 74.267 1203.36 75.149C1204.6 76.031 1206.02 76.733 1207.6 77.255L1207.52 77.579C1206.84 77.813 1206.23 78.227 1205.71 78.821C1205.21 79.397 1204.86 80.018 1204.68 80.684C1202.65 79.316 1201.05 77.552 1199.88 75.392C1198.73 73.232 1197.94 70.73 1197.53 67.886V67.454H1196.85ZM1198.18 67.454V68.237H1194.45L1194.21 67.454H1198.18ZM1193.4 69.344C1193.33 69.506 1193.2 69.632 1193.02 69.722C1192.84 69.812 1192.59 69.839 1192.26 69.803C1190.99 72.431 1189.48 74.609 1187.75 76.337C1186.03 78.065 1184.1 79.469 1181.98 80.549L1181.68 80.306C1182.65 79.37 1183.61 78.245 1184.54 76.931C1185.48 75.599 1186.34 74.141 1187.13 72.557C1187.93 70.973 1188.56 69.317 1189.05 67.589L1193.4 69.344ZM1197.42 81.035C1198.99 81.665 1200.28 82.349 1201.31 83.087C1202.35 83.825 1203.16 84.581 1203.74 85.355C1204.33 86.129 1204.74 86.867 1204.95 87.569C1205.19 88.271 1205.26 88.901 1205.17 89.459C1205.1 90.035 1204.91 90.485 1204.6 90.809C1204.3 91.133 1203.92 91.295 1203.47 91.295C1203.02 91.295 1202.52 91.088 1201.98 90.674C1201.84 89.864 1201.61 89.036 1201.28 88.19C1200.98 87.344 1200.6 86.507 1200.15 85.679C1199.72 84.851 1199.24 84.059 1198.72 83.303C1198.21 82.547 1197.68 81.845 1197.12 81.197L1197.42 81.035ZM1226.23 81.899C1227.85 82.205 1229.16 82.583 1230.17 83.033C1231.18 83.465 1231.94 83.933 1232.44 84.437C1232.96 84.923 1233.28 85.4 1233.39 85.868C1233.51 86.318 1233.49 86.696 1233.33 87.002C1233.19 87.308 1232.94 87.506 1232.6 87.596C1232.26 87.686 1231.88 87.614 1231.47 87.38C1231.23 86.966 1230.86 86.471 1230.33 85.895C1229.83 85.301 1229.21 84.689 1228.47 84.059C1227.75 83.429 1226.94 82.826 1226.04 82.25L1226.23 81.899ZM1224.88 81.656V83.978H1222.37V82.925L1224.88 81.656ZM1222.15 85.868C1222.51 85.796 1223.02 85.679 1223.67 85.517C1224.31 85.355 1225.03 85.166 1225.83 84.95C1226.62 84.734 1227.43 84.518 1228.25 84.302L1228.36 84.653C1228 84.869 1227.54 85.166 1226.96 85.544C1226.4 85.922 1225.77 86.327 1225.07 86.759C1224.37 87.173 1223.64 87.596 1222.88 88.028L1222.15 85.868ZM1224.29 83.195L1224.88 83.546V86.003L1222.75 86.786L1223.53 85.976C1223.69 86.642 1223.67 87.173 1223.45 87.569C1223.25 87.965 1223.04 88.226 1222.8 88.352L1221.4 86.246C1221.83 85.976 1222.1 85.769 1222.21 85.625C1222.32 85.463 1222.37 85.283 1222.37 85.085V83.195H1224.29ZM1233.9 82.628C1233.83 82.718 1233.72 82.772 1233.57 82.79C1233.43 82.808 1233.24 82.772 1233.01 82.682C1232.7 82.808 1232.31 82.943 1231.85 83.087C1231.4 83.213 1230.93 83.348 1230.44 83.492C1229.97 83.618 1229.55 83.744 1229.17 83.87L1228.93 83.573C1229.22 83.321 1229.52 83.015 1229.85 82.655C1230.19 82.295 1230.51 81.926 1230.82 81.548C1231.14 81.17 1231.41 80.846 1231.63 80.576L1233.9 82.628ZM1227.34 80.495C1226.4 81.557 1225.17 82.466 1223.64 83.222C1222.13 83.96 1220.49 84.563 1218.72 85.031L1218.48 84.626C1219.76 84.068 1220.92 83.393 1221.96 82.601C1223.03 81.809 1223.88 80.963 1224.53 80.063H1227.34V80.495ZM1232.01 72.611C1232.01 72.611 1232.15 72.719 1232.44 72.935C1232.73 73.151 1233.07 73.421 1233.47 73.745C1233.86 74.051 1234.22 74.348 1234.55 74.636C1234.47 74.924 1234.24 75.068 1233.84 75.068H1219.08L1218.86 74.285H1230.66L1232.01 72.611ZM1230.96 70.073C1230.96 70.073 1231.09 70.181 1231.36 70.397C1231.63 70.595 1231.95 70.847 1232.33 71.153C1232.71 71.441 1233.06 71.729 1233.39 72.017C1233.31 72.305 1233.08 72.449 1232.68 72.449H1220.1L1219.89 71.666H1229.63L1230.96 70.073ZM1228.39 69.614C1228.37 69.758 1228.31 69.884 1228.2 69.992C1228.11 70.1 1227.92 70.181 1227.63 70.235V74.636H1224.83V69.29L1228.39 69.614ZM1223.26 80.819C1223.26 80.891 1223.14 80.99 1222.91 81.116C1222.69 81.242 1222.41 81.359 1222.07 81.467C1221.73 81.557 1221.39 81.602 1221.05 81.602H1220.67V76.661V75.581L1223.4 76.661H1230.71V77.444H1223.26V80.819ZM1229.39 76.661L1230.55 75.446L1233.03 77.255C1232.96 77.327 1232.86 77.408 1232.74 77.498C1232.61 77.588 1232.45 77.642 1232.25 77.66V80.576C1232.25 80.648 1232.12 80.738 1231.85 80.846C1231.59 80.954 1231.31 81.053 1230.98 81.143C1230.66 81.215 1230.35 81.251 1230.06 81.251H1229.61V76.661H1229.39ZM1230.6 79.955V80.738H1222.07V79.955H1230.6ZM1218.48 90.161C1218.48 90.305 1218.36 90.467 1218.1 90.647C1217.87 90.845 1217.55 91.016 1217.16 91.16C1216.78 91.304 1216.36 91.376 1215.89 91.376H1215.35V67.805V66.374L1218.75 67.805H1235.6V68.561H1218.48V90.161ZM1234.36 67.805L1235.9 66.077L1238.92 68.507C1238.83 68.633 1238.7 68.75 1238.52 68.858C1238.34 68.948 1238.1 69.02 1237.81 69.074V90.188C1237.81 90.26 1237.67 90.377 1237.38 90.539C1237.09 90.719 1236.74 90.872 1236.33 90.998C1235.91 91.142 1235.52 91.214 1235.14 91.214H1234.63V67.805H1234.36ZM1235.76 88.406V89.189H1217.21V88.406H1235.76Z" fill="#DCDDDD"/><defs><clipPath id="clip0_28_916"><rect width="295" height="89" fill="white" transform="translate(11)"/></clipPath></defs></svg>