<svg width="310" height="39" fill="none" xmlns="http://www.w3.org/2000/svg"><g clip-path="url(#clip0_28_450)"><path d="M45.3079 3.86012C49.141 3.8315 53.8385 3.38579 57.0391 2.7438C57.9837 3.10773 58.4686 2.891 58.7047 2.64566L58.8903 2.44938L56.4023 -0.00408936L56.2252 0.0695147C53.5855 1.13677 48.8247 2.30626 45.1477 2.78878L44.8398 2.82967L45.0718 3.86012H45.3037H45.3079Z" fill="#F3D7A3"/><path d="M50.5538 9.22504L50.6424 9.315C50.9291 9.60533 51.2622 9.75662 51.5869 9.75662C51.6966 9.75662 51.8062 9.74027 51.9116 9.70346C52.4008 9.5399 52.7508 9.02467 52.8225 8.35815C52.9447 7.2091 52.249 5.49985 49.9171 4.13818L49.7906 4.06458L48.9978 4.40806L49.1833 4.68203C49.9297 5.77791 50.6803 7.62619 50.5665 9.10236L50.558 9.22504H50.5538Z" fill="#F3D7A3"/><path d="M60.109 15.0561C59.3794 14.2628 58.2662 13.2814 58.2198 13.2406L57.9753 13.0238L57.2331 14.0788V11.8871C57.7012 11.7439 58.1102 11.5149 58.3084 11.2696L58.4813 11.057L55.8964 8.9797L54.7747 10.1819H54.1843C55.1837 9.15962 56.3686 7.56077 57.7096 5.42217C58.2789 5.41399 58.7005 5.16864 58.8481 4.69839L58.924 4.46123L55.7361 3.14862L55.6434 3.44304C54.9644 5.62253 54.0325 8.04329 53.2651 9.61351L53.1554 9.83432L53.7205 10.186H45.4724L45.717 11.0406L45.6664 10.9956C44.823 10.2064 43.4483 9.07784 43.4357 9.06557L43.2037 8.87338L41.9387 10.5213H39.8598V8.30499H43.5706C44.0935 8.30499 44.4604 8.05147 44.5784 7.60984L44.6164 7.46264L44.511 7.35223C43.7815 6.59165 42.6429 5.61027 42.5965 5.56938L42.3646 5.3731L41.2134 6.84109H39.8598V4.8088H43.9248C44.4477 4.8088 44.8146 4.55527 44.9326 4.11365L44.9706 3.96235L44.861 3.85195C44.0176 3.00141 42.6977 1.86873 42.6851 1.86055L42.4532 1.66427L41.1249 3.3449H39.8598V1.74605C40.6737 1.53342 40.8845 1.06317 40.9098 0.691061L40.9267 0.429358L37.49 0.0163574V3.33672H32.8304L33.2057 4.80471H37.4942V6.837H33.5346L33.9099 8.30499H37.4942V10.5213H32.1599L32.5394 11.9566H44.726C45.2616 11.9566 45.6495 11.6949 45.7634 11.2614L45.7802 11.196L45.9109 11.6499H49.9V14.5327H44.6079L42.2929 12.7171L41.264 13.9561H36.2713L33.7876 12.7867V19.1616C33.7876 22.1303 33.7876 25.2053 32.337 27.6342L32.2316 27.8101L32.9189 28.5257L33.1298 28.3417C34.8081 26.8737 35.7316 24.8536 36.0309 21.9913H41.4074V25.3975C41.4074 25.6919 41.3694 25.7001 41.1375 25.7001C40.6905 25.7001 38.6749 25.5202 38.6538 25.5202L38.3418 25.4915V26.5179L38.5821 26.5547C39.4339 26.6897 39.9779 26.8737 40.2478 27.1272C40.5219 27.3603 40.6062 27.851 40.6484 28.1985L40.6821 28.4684L40.9604 28.4398C43.2881 28.2149 43.7266 27.2826 43.7266 25.6388V15.6572C43.967 15.5836 44.22 15.4814 44.4266 15.3587L44.5911 15.9966H49.9V18.9735H45.1941L45.62 20.4088H49.8958V25.1521C49.8958 25.4506 49.8832 25.512 49.4826 25.512C48.9175 25.512 45.9447 25.2707 45.9152 25.2707L45.6073 25.2462V26.2807L45.8603 26.3094C47.0959 26.4484 47.8338 26.661 48.2639 27.0209C48.5127 27.1967 48.7025 27.671 48.7278 28.2108L48.7446 28.5052L49.0483 28.4725C51.6838 28.1904 52.2235 26.98 52.2235 25.2462V20.4129H54.9181V21.9667H55.4662C56.0524 21.9667 57.1698 21.5415 57.2373 21.1244V16.0048H59.1728C59.6957 16.0048 60.0626 15.7513 60.1806 15.3096L60.2186 15.1665L60.1174 15.0561H60.109ZM52.2151 14.5368V11.654H54.9096V14.5368H52.2151ZM54.9138 16.0048V18.9817H52.2193V16.0048H54.9138ZM41.399 18.6791V20.5274H36.1153C36.1322 20.053 36.1322 19.5991 36.1322 19.1616V18.6791H41.399ZM36.1364 17.2152V15.4282H41.4032V17.2152H36.1364Z" fill="#F3D7A3"/><path d="M46.8262 9.47446C47.1129 9.74435 47.4376 9.88338 47.7497 9.88338C47.8719 9.88338 47.9942 9.86293 48.1123 9.81795C48.5888 9.64212 48.9135 9.13916 48.9641 8.50126C49.0063 7.96967 48.9135 6.11321 45.9659 4.49801L45.8268 4.42441L45.0593 4.82514L45.2364 5.07867C45.9575 6.12139 46.7334 7.87971 46.7334 9.2741V9.39268L46.822 9.47446H46.8262Z" fill="#F3D7A3"/><path d="M69.3101 15.8739C67.2523 15.8739 65.4137 16.565 63.9969 17.8653C62.4704 19.2352 61.5596 21.1939 61.5596 23.0953C61.5596 25.4097 62.8373 27.5197 64.2457 27.5197C66.3836 27.5197 68.4751 23.5247 69.0992 21.7009C69.4619 20.65 69.6516 19.6155 69.6516 18.7077C69.6516 18.172 69.4745 17.6323 69.1034 17.0312C69.1456 17.0312 69.1836 17.0312 69.2215 17.0312C72.0847 17.0312 74.1636 19.1125 74.1636 21.979C74.1636 25.238 72.0974 27.2703 68.0239 28.0104L67.7499 28.0595L67.9101 28.9959L68.1715 28.9755C75.26 28.4766 76.0275 24.1299 76.0275 22.2857C76.0275 18.5687 73.2064 15.8698 69.3143 15.8698L69.3101 15.8739ZM68.1462 18.5441C68.1462 19.3865 67.8342 20.4824 67.539 21.2184C66.6619 23.2957 65.1818 25.5406 64.3131 25.5406C63.8409 25.5406 63.1324 24.4488 63.1324 22.8009C63.1324 21.3738 63.7439 19.9835 64.8613 18.8794C65.6414 18.0821 66.6493 17.5137 67.7836 17.2193C68.0366 17.6895 68.142 18.0861 68.142 18.5441H68.1462Z" fill="#F3D7A3"/><path d="M106.751 18.2293C103.327 17.5423 98.9037 15.9598 96.3357 13.5431H100.295V14.8803H100.881C101.425 14.8803 102.733 14.4182 102.804 13.9766V3.92963C103.344 3.78651 103.791 3.55343 104.023 3.27946L104.208 3.06273L101.32 0.834167L100.152 2.15904H85.6208L83.1539 1.02636V15.1011H83.7696C84.5624 15.1011 85.6629 14.6227 85.6629 14.1565V13.5513H88.4882C86.3756 16.336 83.1497 18.6382 79.1269 20.2288L78.8528 20.3352L79.3124 21.337L79.5528 21.2675C82.7238 20.3556 85.4352 19.1207 87.6238 17.5954V19.8731C87.6238 22.5474 86.7973 25.8759 80.3666 27.9164L80.0251 28.0268L80.5901 28.9223L80.7925 28.8773C88.9394 27.0004 90.0484 23.1158 90.1032 19.9344V17.7917C90.6894 17.665 91.0014 17.3665 91.0815 16.8717L91.1279 16.5895L89.2008 16.3564C90.1496 15.5182 91.0056 14.5777 91.752 13.5472H94.6574C95.2604 14.5327 96.0574 15.4773 97.0357 16.3687L95.6104 16.2174V28.8528H96.2851C96.9935 28.8528 98.1194 28.4193 98.1194 27.9041V17.7345C98.2796 17.7018 98.4188 17.6486 98.5284 17.5791C100.325 18.8958 102.484 19.9917 104.951 20.8299L105.25 20.9322L105.326 20.6337C105.541 19.7831 106.039 19.227 106.722 19.0716L106.92 19.0266L106.992 18.2783L106.739 18.2293H106.751ZM94.1008 7.02509V3.62294H100.295V7.02509H94.1008ZM100.295 8.46037V12.0751H94.1008V8.46037H100.295ZM91.5918 3.62294V7.02509H85.6629V3.62294H91.5918ZM91.5918 8.46037V12.0751H85.6629V8.46037H91.5918Z" fill="#F3D7A3"/><path d="M13.4626 13.3877H13.7199C13.8843 13.3877 14.0657 13.3632 14.2512 13.3182C14.4494 13.2692 14.6054 13.2201 14.7193 13.1669C14.8584 13.0974 14.9217 13.0443 14.9217 12.9788V12.5822H21.3144V13.306H21.618C21.8246 13.306 22.0734 13.2651 22.3643 13.1833C22.786 13.0647 22.8324 13.0034 22.8493 12.9379V9.61349H13.4626V13.3877ZM14.9174 12.0751V10.1246H21.3101V12.0751H14.9174Z" fill="#F3D7A3"/><path d="M20.7366 8.12097C21.1836 7.81428 21.6306 7.3931 22.0734 6.87379L22.1282 6.81245L21.3228 6.50577H24.789V6.01098H18.8475V4.83741H23.5914V4.33036H18.8475V3.17314H24.2113V2.66609H19.868C20.4667 2.29807 20.9896 1.85235 21.424 1.33713L21.4788 1.2717L19.9734 0.781006L19.9523 0.838253C19.6866 1.59474 19.4252 2.20811 19.1722 2.66609H16.524C16.6716 2.5475 16.7602 2.38803 16.7855 2.19584C16.8192 1.92596 16.6463 1.6479 16.2752 1.37802C15.9252 1.11222 15.3728 0.932303 14.6391 0.842343H14.618L14.3988 0.969105L14.4494 1.02226C14.9638 1.54567 15.2548 2.08952 15.3138 2.62929V2.65382L15.3391 2.67018H12.1048L12.2819 3.17723H17.3126V4.33445H12.8638L13.0199 4.8415H17.3084V6.01507H11.544L11.7042 6.50986L13.859 6.52212C14.0361 6.70204 14.1837 6.92695 14.2975 7.20092C14.4241 7.47898 14.4831 7.74477 14.4747 7.9942V8.02692L14.5 8.04736C14.5421 8.07599 14.5801 8.10461 14.6222 8.12914H11L11.1602 8.6362H25.1769V8.12914H20.7366V8.12097ZM15.9885 7.74477C16.077 7.5076 15.9885 7.24998 15.7186 6.98419C15.5246 6.792 15.2295 6.63253 14.8373 6.50577H17.3084V8.12097H15.706C15.8409 8.02692 15.9379 7.90015 15.9885 7.74477ZM18.8433 8.12097V6.50577H20.6649C20.4667 7.07006 20.2517 7.61392 20.0282 8.12097H18.8433Z" fill="#F3D7A3"/><path d="M24.6373 26.661L24.5909 25.2339H24.321L24.3084 25.2748C24.0596 26.019 23.8782 26.477 23.7686 26.6324C23.7096 26.7224 23.6126 26.7673 23.4692 26.7673C23.3174 26.7755 22.8704 26.7796 22.1409 26.7796H20.5933C20.3024 26.7796 20.1885 26.7592 20.1506 26.7428C20.1379 26.7346 20.0958 26.7183 20.0958 26.6201V24.9436H21.0361V25.1726H20.9391C20.8632 25.1644 20.8084 25.1603 20.7662 25.1603H20.7409L20.5259 25.3484L20.5976 25.3893C20.8674 25.5488 21.1373 25.7492 21.4072 25.9863C21.6813 26.2235 21.8837 26.4443 22.0018 26.6447L22.0102 26.661L22.0313 26.6692C22.3012 26.7755 22.5373 26.7714 22.7355 26.6692C22.9885 26.522 23.077 26.3012 22.9885 26.0354C22.8662 25.6796 22.4951 25.4261 21.8795 25.283C21.9933 25.2503 22.103 25.2135 22.2084 25.1685C22.4867 25.0581 22.5499 24.9968 22.5626 24.9272V20.3106H20.4247V19.4356H22.9084C23.1698 19.4356 23.3258 19.3497 23.3764 19.1779L23.3849 19.1411L23.3554 19.1166C23.2837 19.0512 23.174 18.9612 23.0264 18.8467C23.5915 18.5319 24.0975 18.172 24.5234 17.7795L24.5445 17.7631V17.0475H18.8307V15.6572L17.2705 15.4814V17.0475H13.4754C13.4332 16.8431 13.3573 16.6141 13.2519 16.3728L13.235 16.3319L12.9019 16.3524L12.9103 16.4137C12.9483 16.7367 12.8639 17.0557 12.6615 17.3583C12.4675 17.6609 12.2272 17.8776 11.9447 18.0085C11.4302 18.2456 11.2447 18.5728 11.4007 18.9694C11.4892 19.1943 11.679 19.3333 11.9657 19.3824C12.2398 19.4233 12.4971 19.3701 12.7121 19.2434C12.9778 19.1125 13.1886 18.8917 13.3446 18.585C13.4922 18.2947 13.5555 17.9512 13.5344 17.5546H22.8957C22.8114 17.9798 22.7228 18.4419 22.6301 18.9285H20.4247V17.8081L18.953 17.6323V18.9285H17.1819V17.8081L15.7271 17.6323V18.9285H13.1591L13.3151 19.4356H15.7229V20.3106H13.6314V25.6837H13.8886C14.1669 25.6837 14.4452 25.6306 14.7151 25.5324C15.0187 25.4179 15.1494 25.3239 15.1494 25.2217V24.9436H15.7946C15.5585 25.6878 15.0735 26.293 14.3567 26.7428C13.6103 27.2131 12.5097 27.5893 11.0886 27.8632L11.0254 27.8755L11.0971 28.174H11.1519C12.9989 28.0063 14.4579 27.671 15.491 27.1681C16.5283 26.6774 17.2199 25.9291 17.553 24.9436H18.5988V26.845C18.5988 27.2867 18.7084 27.5811 18.9277 27.7283C19.1512 27.8714 19.6066 27.9409 20.3108 27.9409H22.006C23.2373 27.9409 24.068 27.8918 24.477 27.7896C24.9198 27.6833 25.1433 27.4829 25.1433 27.1967C25.1433 26.9473 24.9704 26.7633 24.6246 26.6569L24.6373 26.661ZM17.1819 20.3106V19.4356H18.953V20.3106H17.1819ZM15.1537 21.6968V20.8218H21.0319V21.6968H15.1537ZM15.1537 23.0422V22.208H21.0319V23.0422H15.1537ZM21.0319 23.5492V24.4365H15.1537V23.5492H21.0319Z" fill="#F3D7A3"/><path d="M28.4702 4.88241V4.01143H29.284V3.77017H27.3569V4.01143H28.3563V4.88241H27.3569V5.12367H29.284V4.88241H28.4702Z" fill="#F3D7A3"/><path d="M29.3557 6.36674L27.3569 5.56119V5.68795L28.9003 6.30132L28.2593 6.55484V6.14593H28.1497V6.59982L27.3569 6.91877V7.1723L29.2967 6.39128L29.3557 6.36674Z" fill="#F3D7A3"/><path d="M28.3901 8.39085C28.428 8.46037 28.4828 8.5258 28.5461 8.57895C28.6388 8.66074 28.7358 8.70163 28.837 8.70163C28.9973 8.70163 29.1196 8.61576 29.1955 8.44401C29.2545 8.31725 29.284 8.16186 29.284 7.97376V7.6221H27.3569V7.64664C27.3569 7.84291 27.3569 7.9615 27.3569 7.9983C27.3569 8.2232 27.3907 8.4113 27.4624 8.55033C27.5551 8.73025 27.7027 8.82021 27.9051 8.82021C28.0485 8.82021 28.1666 8.76705 28.2593 8.66074C28.3226 8.58713 28.369 8.49308 28.3985 8.38677L28.3901 8.39085ZM27.4624 7.94105V7.85927H29.1744V7.94923C29.1744 8.29272 29.0563 8.46037 28.8117 8.46037C28.719 8.46037 28.6346 8.43584 28.5672 8.39085C28.4702 8.32952 28.4238 8.23547 28.4238 8.11279V8.00239H28.3142V8.13324C28.3142 8.26409 28.2804 8.37041 28.2214 8.4481C28.1497 8.53806 28.0443 8.58304 27.9009 8.58304C27.6057 8.58304 27.4624 8.37041 27.4624 7.93696V7.94105Z" fill="#F3D7A3"/><path d="M29.284 9.31091H27.3569V9.55217H29.284V9.31091Z" fill="#F3D7A3"/><path d="M29.284 11.2328V9.97336H29.1744V10.4845H27.3569V10.7258H29.1744V11.2328H29.284Z" fill="#F3D7A3"/><path d="M29.3557 11.9198L27.3569 11.1183V11.241L28.9003 11.8584L28.2593 12.112V11.7031H28.1497V12.157L27.3569 12.4759V12.7294L29.2967 11.9443L29.3557 11.9198Z" fill="#F3D7A3"/><path d="M28.3901 13.948C28.428 14.0175 28.4828 14.0829 28.5461 14.1361C28.6388 14.2179 28.7358 14.2588 28.837 14.2588C28.9973 14.2588 29.1196 14.1729 29.1955 14.0011C29.2545 13.8744 29.284 13.719 29.284 13.5309V13.1792H27.3569V13.2038C27.3569 13.4 27.3569 13.5186 27.3569 13.5554C27.3569 13.7803 27.3907 13.9684 27.4624 14.1075C27.5551 14.2874 27.7027 14.3773 27.9051 14.3773C28.0485 14.3773 28.1666 14.3242 28.2593 14.2179C28.3226 14.1443 28.369 14.0502 28.3985 13.9439L28.3901 13.948ZM29.1744 13.4164V13.5064C29.1744 13.8498 29.0563 14.0175 28.8117 14.0175C28.719 14.0175 28.6346 13.993 28.5672 13.948C28.4702 13.8866 28.4238 13.7926 28.4238 13.6699V13.5595H28.3142V13.6904C28.3142 13.8212 28.2804 13.9275 28.2214 14.0052C28.1497 14.0952 28.0443 14.1402 27.9009 14.1402C27.6057 14.1402 27.4624 13.9275 27.4624 13.4941V13.4123H29.1744V13.4164Z" fill="#F3D7A3"/><path d="M29.284 15.1093V14.868H27.3569V15.8208H27.4666V15.1093H29.284Z" fill="#F3D7A3"/><path d="M28.3563 16.4873V17.0966H28.4702V16.4873H29.1744V17.1661H29.284V16.2461H27.3569V17.1988H27.4666V16.4873H28.3563Z" fill="#F3D7A3"/><path d="M29.284 19.317C29.284 19.1207 29.284 18.9776 29.284 18.8835V18.859H27.3569V19.0962H29.1786V19.2638C29.1786 19.4519 29.1364 19.591 29.0521 19.6768C28.9846 19.7463 28.8834 19.7791 28.7527 19.7791C28.622 19.7791 28.5334 19.7423 28.4533 19.6646C28.369 19.5828 28.3268 19.4642 28.3268 19.317V19.2352H28.2172V19.2597C28.2172 19.2843 28.2172 19.317 28.2172 19.3579C28.2172 19.5337 28.2635 19.6932 28.369 19.82C28.4744 19.9508 28.6051 20.0162 28.7527 20.0162C28.9003 20.0162 29.0268 19.9712 29.1153 19.8854C29.2334 19.7709 29.2925 19.5787 29.2882 19.317H29.284Z" fill="#F3D7A3"/><path d="M29.284 20.6664V20.4292H27.3569V21.382H27.4666V20.6664H29.284Z" fill="#F3D7A3"/><path d="M29.3557 22.4288L27.3569 21.6273V21.75L28.9003 22.3674L28.2593 22.621V22.2121H28.1497V22.666L27.3569 22.9849V23.2384L29.2967 22.4533L29.3557 22.4288Z" fill="#F3D7A3"/><path d="M27.7196 24.8577C27.5383 24.7432 27.4497 24.5838 27.4497 24.3711C27.4497 24.1871 27.5341 24.0358 27.7027 23.9132C27.8714 23.7905 28.078 23.7291 28.3226 23.7291C28.5672 23.7291 28.7822 23.7823 28.9425 23.8886C29.1111 23.999 29.1955 24.1421 29.1955 24.3221C29.1955 24.502 29.128 24.6655 28.9889 24.7964L28.9678 24.8168L29.0943 24.9273L29.1112 24.9068C29.2377 24.7514 29.3051 24.5592 29.3051 24.3262C29.3051 24.0931 29.2039 23.8804 29.0099 23.7128C28.8202 23.5492 28.5883 23.4674 28.3226 23.4674C28.0569 23.4674 27.8292 23.5574 27.6353 23.7414C27.4413 23.9213 27.3401 24.1381 27.3401 24.3793C27.3401 24.6328 27.4371 24.8414 27.6268 24.9886L27.6479 25.0049L27.7449 24.8782L27.7196 24.8618V24.8577Z" fill="#F3D7A3"/><path d="M27.4666 25.5365H28.3563V26.1458H28.4702V25.5365H29.1744V26.2153H29.284V25.2953H27.3569V26.248H27.4666V25.5365Z" fill="#F3D7A3"/></g><line y1="38.5" x2="310" y2="38.5" stroke="#F3D7A3"/><path d="M221.008 23.532H220.864L221.56 22.74L223.048 23.868C223 23.924 222.928 23.98 222.832 24.036C222.736 24.092 222.616 24.136 222.472 24.168V27.816C222.472 27.84 222.4 27.88 222.256 27.936C222.12 27.984 221.956 28.032 221.764 28.08C221.58 28.12 221.408 28.14 221.248 28.14H221.008V23.532ZM215.392 23.532H221.74V23.868H215.392V23.532ZM215.392 26.736H221.728V27.072H215.392V26.736ZM213.664 20.952H221.752L222.616 19.884C222.616 19.884 222.668 19.924 222.772 20.004C222.884 20.084 223.02 20.188 223.18 20.316C223.348 20.436 223.52 20.568 223.696 20.712C223.88 20.848 224.048 20.98 224.2 21.108C224.168 21.236 224.052 21.3 223.852 21.3H213.76L213.664 20.952ZM213.556 29.94H222.148L223.036 28.824C223.036 28.824 223.088 28.864 223.192 28.944C223.304 29.024 223.444 29.128 223.612 29.256C223.788 29.384 223.968 29.524 224.152 29.676C224.344 29.82 224.516 29.956 224.668 30.084C224.636 30.212 224.52 30.276 224.32 30.276H213.652L213.556 29.94ZM214.96 21.06H216.424V30.036H214.96V21.06ZM228.004 20.52H237.352V20.856H228.112L228.004 20.52ZM236.824 20.52H236.692L237.388 19.812L238.612 20.964C238.564 21.02 238.504 21.056 238.432 21.072C238.368 21.088 238.272 21.1 238.144 21.108C237.952 21.244 237.708 21.384 237.412 21.528C237.124 21.672 236.86 21.788 236.62 21.876L236.5 21.792C236.54 21.68 236.58 21.544 236.62 21.384C236.668 21.224 236.708 21.068 236.74 20.916C236.772 20.756 236.8 20.624 236.824 20.52ZM230.368 22.116C230.648 22.556 230.996 22.888 231.412 23.112C231.828 23.328 232.34 23.472 232.948 23.544C233.564 23.608 234.296 23.64 235.144 23.64C235.352 23.64 235.612 23.64 235.924 23.64C236.236 23.64 236.572 23.64 236.932 23.64C237.292 23.64 237.632 23.64 237.952 23.64C238.28 23.632 238.556 23.624 238.78 23.616V23.772C238.556 23.82 238.388 23.948 238.276 24.156C238.164 24.364 238.108 24.6 238.108 24.864C237.94 24.864 237.724 24.864 237.46 24.864C237.196 24.864 236.912 24.864 236.608 24.864C236.312 24.864 236.028 24.864 235.756 24.864C235.492 24.864 235.272 24.864 235.096 24.864C234.208 24.864 233.452 24.792 232.828 24.648C232.212 24.504 231.696 24.24 231.28 23.856C230.872 23.464 230.528 22.908 230.248 22.188L230.368 22.116ZM233.224 22.14H235.144L235.852 21.336C235.852 21.336 235.928 21.388 236.08 21.492C236.232 21.596 236.408 21.72 236.608 21.864C236.816 22.008 237.004 22.148 237.172 22.284C237.148 22.412 237.04 22.476 236.848 22.476H233.224V22.14ZM232.468 20.52H233.896V24.18L232.468 24.06V20.52ZM229.804 21.264L231.7 21.612C231.676 21.7 231.628 21.768 231.556 21.816C231.484 21.864 231.376 21.892 231.232 21.9C231.112 22.356 230.916 22.804 230.644 23.244C230.38 23.676 230.016 24.08 229.552 24.456C229.096 24.832 228.504 25.152 227.776 25.416L227.692 25.284C228.196 24.932 228.592 24.532 228.88 24.084C229.176 23.628 229.396 23.156 229.54 22.668C229.684 22.18 229.772 21.712 229.804 21.264ZM229.948 27.768H236.32V28.104H229.948V27.768ZM235.732 25.98H235.612L236.26 25.296L237.616 26.304C237.584 26.344 237.528 26.388 237.448 26.436C237.376 26.476 237.284 26.508 237.172 26.532V28.212C237.172 28.236 237.1 28.276 236.956 28.332C236.82 28.38 236.66 28.428 236.476 28.476C236.3 28.516 236.132 28.536 235.972 28.536H235.732V25.98ZM229.228 25.98V25.392L230.74 25.98H236.284V26.328H230.656V28.44C230.656 28.48 230.592 28.536 230.464 28.608C230.344 28.68 230.188 28.744 229.996 28.8C229.812 28.848 229.62 28.872 229.42 28.872H229.228V25.98ZM227.956 29.472C228.356 29.48 228.864 29.484 229.48 29.484C230.104 29.484 230.808 29.48 231.592 29.472C232.384 29.456 233.232 29.444 234.136 29.436C235.048 29.42 235.988 29.4 236.956 29.376L236.968 29.58C236.408 29.7 235.76 29.824 235.024 29.952C234.288 30.072 233.436 30.2 232.468 30.336C231.508 30.472 230.4 30.628 229.144 30.804C229.056 30.94 228.94 31.02 228.796 31.044L227.956 29.472ZM232.444 24.84L234.304 24.996C234.296 25.068 234.264 25.132 234.208 25.188C234.152 25.236 234.052 25.272 233.908 25.296V29.712L232.444 29.88V24.84ZM234.928 28.584C235.64 28.608 236.228 28.696 236.692 28.848C237.156 28.992 237.512 29.172 237.76 29.388C238.016 29.604 238.184 29.824 238.264 30.048C238.344 30.272 238.352 30.472 238.288 30.648C238.232 30.824 238.116 30.948 237.94 31.02C237.772 31.1 237.564 31.092 237.316 30.996C237.156 30.716 236.936 30.432 236.656 30.144C236.376 29.856 236.076 29.584 235.756 29.328C235.444 29.072 235.14 28.856 234.844 28.68L234.928 28.584ZM244.096 29.268L243.676 28.848L246.952 25.584L243.676 22.308L244.084 21.9L247.36 25.176L250.636 21.9L251.044 22.308L247.768 25.584L251.044 28.848L250.624 29.268L247.36 25.992L244.096 29.268ZM262.9 26.028C262.884 26.116 262.84 26.192 262.768 26.256C262.696 26.312 262.58 26.352 262.42 26.376V26.784H261.376V26.064V25.86L262.9 26.028ZM261.04 26.004C261.032 26.076 260.996 26.14 260.932 26.196C260.876 26.252 260.78 26.288 260.644 26.304V27.036C260.636 27.34 260.604 27.672 260.548 28.032C260.5 28.384 260.408 28.74 260.272 29.1C260.136 29.46 259.94 29.8 259.684 30.12C259.428 30.448 259.092 30.732 258.676 30.972L258.544 30.84C258.84 30.472 259.056 30.068 259.192 29.628C259.336 29.18 259.432 28.728 259.48 28.272C259.528 27.816 259.552 27.396 259.552 27.012V25.848L261.04 26.004ZM261.112 28.944C261.264 28.888 261.464 28.812 261.712 28.716C261.96 28.62 262.236 28.504 262.54 28.368C262.852 28.232 263.164 28.1 263.476 27.972L263.536 28.104C263.432 28.216 263.288 28.368 263.104 28.56C262.92 28.752 262.712 28.964 262.48 29.196C262.248 29.428 262 29.66 261.736 29.892L261.112 28.944ZM262.168 26.424L262.42 26.568V28.908L261.604 29.232L262.024 28.86C262.104 29.18 262.092 29.44 261.988 29.64C261.884 29.832 261.772 29.96 261.652 30.024L261.004 28.908C261.164 28.812 261.264 28.732 261.304 28.668C261.352 28.604 261.376 28.52 261.376 28.416V26.424H262.168ZM260.608 20.952C260.6 21.024 260.56 21.084 260.488 21.132C260.424 21.172 260.308 21.204 260.14 21.228V22.176C260.108 22.176 260.032 22.176 259.912 22.176C259.8 22.176 259.56 22.176 259.192 22.176V21.456V20.748L260.608 20.952ZM259.912 21.648L260.14 21.78V23.784H260.188L259.936 24.12L258.964 23.64C259.02 23.576 259.092 23.504 259.18 23.424C259.268 23.336 259.352 23.276 259.432 23.244L259.192 23.628V21.648H259.912ZM263.98 23.316C264.052 24.092 264.164 24.808 264.316 25.464C264.468 26.12 264.668 26.72 264.916 27.264C265.172 27.8 265.492 28.276 265.876 28.692C266.26 29.1 266.716 29.452 267.244 29.748L267.208 29.856C266.888 29.936 266.636 30.072 266.452 30.264C266.268 30.456 266.132 30.712 266.044 31.032C265.5 30.552 265.072 29.944 264.76 29.208C264.456 28.464 264.236 27.62 264.1 26.676C263.972 25.724 263.884 24.7 263.836 23.604L263.98 23.316ZM266.548 22.668C266.5 23.62 266.4 24.512 266.248 25.344C266.096 26.176 265.856 26.944 265.528 27.648C265.2 28.352 264.748 28.992 264.172 29.568C263.604 30.144 262.88 30.652 262 31.092L261.892 30.96C262.588 30.44 263.156 29.88 263.596 29.28C264.044 28.68 264.392 28.032 264.64 27.336C264.896 26.64 265.076 25.904 265.18 25.128C265.292 24.352 265.356 23.532 265.372 22.668H266.548ZM266.02 21.672C266.02 21.672 266.088 21.724 266.224 21.828C266.36 21.932 266.52 22.06 266.704 22.212C266.896 22.356 267.068 22.496 267.22 22.632C267.188 22.76 267.084 22.824 266.908 22.824H264.196L264.34 22.488H265.372L266.02 21.672ZM265.54 20.112C265.524 20.192 265.48 20.26 265.408 20.316C265.336 20.364 265.232 20.396 265.096 20.412C264.984 21.14 264.84 21.848 264.664 22.536C264.488 23.216 264.28 23.86 264.04 24.468C263.8 25.068 263.524 25.608 263.212 26.088L263.02 25.992C263.188 25.44 263.332 24.824 263.452 24.144C263.572 23.456 263.672 22.744 263.752 22.008C263.832 21.272 263.884 20.552 263.908 19.848L265.54 20.112ZM262.264 24.084C262.264 24.084 262.316 24.132 262.42 24.228C262.524 24.316 262.648 24.428 262.792 24.564C262.936 24.7 263.06 24.828 263.164 24.948C263.14 25.076 263.04 25.14 262.864 25.14H259.048L258.952 24.792H261.76L262.264 24.084ZM262.66 23.448V23.784H259.696V23.448H262.66ZM261.988 20.064C261.98 20.128 261.948 20.188 261.892 20.244C261.844 20.292 261.756 20.324 261.628 20.34V23.616H260.656V19.932L261.988 20.064ZM263.452 20.916C263.436 20.98 263.404 21.04 263.356 21.096C263.308 21.144 263.22 21.176 263.092 21.192V23.676C263.092 23.7 263.052 23.732 262.972 23.772C262.9 23.812 262.804 23.852 262.684 23.892C262.572 23.924 262.456 23.94 262.336 23.94H262.156V20.796L263.452 20.916ZM259.036 20.736C258.996 20.792 258.944 20.836 258.88 20.868C258.816 20.9 258.716 20.908 258.58 20.892C258.372 21.132 258.132 21.396 257.86 21.684C257.588 21.964 257.292 22.244 256.972 22.524C256.66 22.796 256.332 23.044 255.988 23.268L255.868 23.148C256.084 22.828 256.296 22.472 256.504 22.08C256.712 21.68 256.9 21.288 257.068 20.904C257.236 20.512 257.364 20.168 257.452 19.872L259.036 20.736ZM259.276 23.052C259.244 23.116 259.196 23.168 259.132 23.208C259.068 23.24 258.96 23.248 258.808 23.232C258.616 23.592 258.376 23.98 258.088 24.396C257.808 24.804 257.492 25.208 257.14 25.608C256.796 26.008 256.42 26.372 256.012 26.7L255.88 26.58C256.152 26.172 256.404 25.712 256.636 25.2C256.868 24.688 257.072 24.18 257.248 23.676C257.424 23.164 257.556 22.712 257.644 22.32L259.276 23.052ZM258.628 24.912C258.588 25.016 258.464 25.088 258.256 25.128V30.624C258.256 30.664 258.204 30.716 258.1 30.78C258.004 30.852 257.876 30.916 257.716 30.972C257.564 31.036 257.396 31.068 257.212 31.068H256.972V24.948L257.368 24.444L258.628 24.912ZM280.084 20.436C280.084 20.436 280.152 20.496 280.288 20.616C280.432 20.728 280.604 20.864 280.804 21.024C281.004 21.184 281.18 21.336 281.332 21.48C281.3 21.608 281.192 21.672 281.008 21.672H276.94V21.324H279.376L280.084 20.436ZM275.008 20.496C275.008 20.496 275.072 20.552 275.2 20.664C275.336 20.768 275.488 20.896 275.656 21.048C275.832 21.2 275.992 21.344 276.136 21.48C276.104 21.608 275.996 21.672 275.812 21.672H272.26V21.336H274.396L275.008 20.496ZM277.924 21.996C278.436 21.988 278.844 22.04 279.148 22.152C279.46 22.256 279.684 22.392 279.82 22.56C279.956 22.72 280.024 22.888 280.024 23.064C280.024 23.232 279.976 23.38 279.88 23.508C279.784 23.628 279.648 23.704 279.472 23.736C279.304 23.768 279.12 23.728 278.92 23.616C278.872 23.424 278.792 23.232 278.68 23.04C278.568 22.848 278.436 22.668 278.284 22.5C278.132 22.332 277.98 22.192 277.828 22.08L277.924 21.996ZM278.608 20.376C278.584 20.448 278.532 20.508 278.452 20.556C278.38 20.604 278.272 20.624 278.128 20.616C277.784 21.336 277.368 21.964 276.88 22.5C276.4 23.028 275.876 23.464 275.308 23.808L275.176 23.7C275.392 23.38 275.6 23.012 275.8 22.596C276 22.172 276.18 21.72 276.34 21.24C276.508 20.752 276.64 20.256 276.736 19.752L278.608 20.376ZM272.848 22.068C273.336 22.1 273.724 22.184 274.012 22.32C274.308 22.448 274.516 22.596 274.636 22.764C274.756 22.932 274.812 23.1 274.804 23.268C274.796 23.436 274.74 23.58 274.636 23.7C274.532 23.812 274.396 23.88 274.228 23.904C274.068 23.92 273.892 23.868 273.7 23.748C273.66 23.556 273.588 23.364 273.484 23.172C273.388 22.972 273.272 22.784 273.136 22.608C273.008 22.424 272.88 22.272 272.752 22.152L272.848 22.068ZM273.856 20.376C273.832 20.448 273.78 20.508 273.7 20.556C273.628 20.596 273.524 20.616 273.388 20.616C272.972 21.464 272.48 22.2 271.912 22.824C271.352 23.44 270.748 23.944 270.1 24.336L269.956 24.24C270.228 23.888 270.488 23.476 270.736 23.004C270.992 22.524 271.228 22.012 271.444 21.468C271.66 20.916 271.836 20.356 271.972 19.788L273.856 20.376ZM276.436 24.408C276.404 25.064 276.344 25.68 276.256 26.256C276.176 26.832 276.024 27.368 275.8 27.864C275.576 28.352 275.24 28.8 274.792 29.208C274.352 29.608 273.756 29.96 273.004 30.264C272.26 30.576 271.312 30.836 270.16 31.044L270.088 30.864C270.984 30.552 271.724 30.22 272.308 29.868C272.892 29.516 273.356 29.14 273.7 28.74C274.044 28.332 274.296 27.904 274.456 27.456C274.624 27 274.736 26.52 274.792 26.016C274.856 25.504 274.892 24.968 274.9 24.408H276.436ZM276.196 26.64C276.396 27.12 276.672 27.524 277.024 27.852C277.376 28.18 277.776 28.452 278.224 28.668C278.68 28.876 279.172 29.044 279.7 29.172C280.228 29.292 280.776 29.384 281.344 29.448L281.332 29.58C281.028 29.668 280.772 29.836 280.564 30.084C280.364 30.34 280.216 30.66 280.12 31.044C279.424 30.796 278.808 30.496 278.272 30.144C277.736 29.8 277.284 29.352 276.916 28.8C276.556 28.248 276.268 27.552 276.052 26.712L276.196 26.64ZM279.556 25.536C279.556 25.536 279.6 25.576 279.688 25.656C279.784 25.728 279.904 25.824 280.048 25.944C280.192 26.064 280.34 26.192 280.492 26.328C280.652 26.456 280.792 26.58 280.912 26.7C280.888 26.828 280.78 26.892 280.588 26.892H270.604L270.508 26.556H278.8L279.556 25.536ZM279.724 24.576C279.652 24.624 279.548 24.652 279.412 24.66C279.284 24.66 279.12 24.624 278.92 24.552C278.424 24.648 277.868 24.736 277.252 24.816C276.644 24.888 276 24.952 275.32 25.008C274.648 25.064 273.96 25.104 273.256 25.128C272.56 25.152 271.88 25.16 271.216 25.152L271.192 24.972C271.816 24.892 272.46 24.788 273.124 24.66C273.796 24.524 274.452 24.376 275.092 24.216C275.74 24.056 276.34 23.892 276.892 23.724C277.452 23.548 277.928 23.376 278.32 23.208L279.724 24.576ZM290.704 24.756C290.672 24.844 290.596 24.912 290.476 24.96C290.356 25.008 290.188 25.004 289.972 24.948L290.332 24.816C290.124 25.192 289.856 25.6 289.528 26.04C289.208 26.48 288.856 26.924 288.472 27.372C288.088 27.812 287.696 28.228 287.296 28.62C286.896 29.004 286.512 29.332 286.144 29.604L286.132 29.46H286.924C286.876 29.924 286.78 30.288 286.636 30.552C286.492 30.816 286.32 30.984 286.12 31.056L285.508 29.22C285.508 29.22 285.54 29.212 285.604 29.196C285.668 29.18 285.74 29.156 285.82 29.124C285.9 29.092 285.964 29.056 286.012 29.016C286.196 28.848 286.388 28.616 286.588 28.32C286.796 28.016 287.004 27.68 287.212 27.312C287.428 26.944 287.628 26.564 287.812 26.172C288.004 25.772 288.172 25.384 288.316 25.008C288.46 24.632 288.572 24.296 288.652 24L290.704 24.756ZM285.772 29.304C286.14 29.296 286.604 29.272 287.164 29.232C287.724 29.192 288.352 29.144 289.048 29.088C289.752 29.024 290.488 28.952 291.256 28.872C292.024 28.784 292.792 28.692 293.56 28.596L293.572 28.764C292.788 29.052 291.784 29.372 290.56 29.724C289.344 30.068 287.932 30.412 286.324 30.756L285.772 29.304ZM290.824 20.424L291.28 19.692L292.528 20.544C292.456 20.64 292.324 20.712 292.132 20.76C291.94 20.808 291.716 20.84 291.46 20.856C291.652 21.432 291.94 21.976 292.324 22.488C292.708 23 293.172 23.452 293.716 23.844C294.268 24.236 294.896 24.548 295.6 24.78L295.564 24.924C295.26 25.028 294.992 25.212 294.76 25.476C294.536 25.732 294.384 26.008 294.304 26.304C293.4 25.696 292.688 24.912 292.168 23.952C291.656 22.992 291.308 21.88 291.124 20.616V20.424H290.824ZM291.412 20.424V20.772H289.756L289.648 20.424H291.412ZM289.288 21.264C289.256 21.336 289.2 21.392 289.12 21.432C289.04 21.472 288.928 21.484 288.784 21.468C288.216 22.636 287.548 23.604 286.78 24.372C286.012 25.14 285.156 25.764 284.212 26.244L284.08 26.136C284.512 25.72 284.936 25.22 285.352 24.636C285.768 24.044 286.152 23.396 286.504 22.692C286.856 21.988 287.14 21.252 287.356 20.484L289.288 21.264ZM291.076 26.46C291.772 26.74 292.348 27.044 292.804 27.372C293.268 27.7 293.628 28.036 293.884 28.38C294.148 28.724 294.328 29.052 294.424 29.364C294.528 29.676 294.56 29.956 294.52 30.204C294.488 30.46 294.404 30.66 294.268 30.804C294.132 30.948 293.964 31.02 293.764 31.02C293.564 31.02 293.344 30.928 293.104 30.744C293.04 30.384 292.936 30.016 292.792 29.64C292.656 29.264 292.488 28.892 292.288 28.524C292.096 28.156 291.884 27.804 291.652 27.468C291.428 27.132 291.192 26.82 290.944 26.532L291.076 26.46ZM303.88 26.844C304.6 26.98 305.184 27.148 305.632 27.348C306.08 27.54 306.416 27.748 306.64 27.972C306.872 28.188 307.012 28.4 307.06 28.608C307.116 28.808 307.108 28.976 307.036 29.112C306.972 29.248 306.864 29.336 306.712 29.376C306.56 29.416 306.392 29.384 306.208 29.28C306.104 29.096 305.936 28.876 305.704 28.62C305.48 28.356 305.204 28.084 304.876 27.804C304.556 27.524 304.196 27.256 303.796 27L303.88 26.844ZM303.28 26.736V27.768H302.164V27.3L303.28 26.736ZM302.068 28.608C302.228 28.576 302.452 28.524 302.74 28.452C303.028 28.38 303.348 28.296 303.7 28.2C304.052 28.104 304.412 28.008 304.78 27.912L304.828 28.068C304.668 28.164 304.46 28.296 304.204 28.464C303.956 28.632 303.676 28.812 303.364 29.004C303.052 29.188 302.728 29.376 302.392 29.568L302.068 28.608ZM303.016 27.42L303.28 27.576V28.668L302.332 29.016L302.68 28.656C302.752 28.952 302.74 29.188 302.644 29.364C302.556 29.54 302.46 29.656 302.356 29.712L301.732 28.776C301.924 28.656 302.044 28.564 302.092 28.5C302.14 28.428 302.164 28.348 302.164 28.26V27.42H303.016ZM307.288 27.168C307.256 27.208 307.208 27.232 307.144 27.24C307.08 27.248 306.996 27.232 306.892 27.192C306.756 27.248 306.584 27.308 306.376 27.372C306.176 27.428 305.968 27.488 305.752 27.552C305.544 27.608 305.356 27.664 305.188 27.72L305.08 27.588C305.208 27.476 305.344 27.34 305.488 27.18C305.64 27.02 305.784 26.856 305.92 26.688C306.064 26.52 306.184 26.376 306.28 26.256L307.288 27.168ZM304.372 26.22C303.956 26.692 303.408 27.096 302.728 27.432C302.056 27.76 301.328 28.028 300.544 28.236L300.436 28.056C301.004 27.808 301.52 27.508 301.984 27.156C302.456 26.804 302.836 26.428 303.124 26.028H304.372V26.22ZM306.448 22.716C306.448 22.716 306.512 22.764 306.64 22.86C306.768 22.956 306.92 23.076 307.096 23.22C307.272 23.356 307.432 23.488 307.576 23.616C307.544 23.744 307.44 23.808 307.264 23.808H300.7L300.604 23.46H305.848L306.448 22.716ZM305.98 21.588C305.98 21.588 306.04 21.636 306.16 21.732C306.28 21.82 306.424 21.932 306.592 22.068C306.76 22.196 306.916 22.324 307.06 22.452C307.028 22.58 306.924 22.644 306.748 22.644H301.156L301.06 22.296H305.392L305.98 21.588ZM304.84 21.384C304.832 21.448 304.804 21.504 304.756 21.552C304.716 21.6 304.632 21.636 304.504 21.66V23.616H303.256V21.24L304.84 21.384ZM302.56 26.364C302.56 26.396 302.508 26.44 302.404 26.496C302.308 26.552 302.184 26.604 302.032 26.652C301.88 26.692 301.728 26.712 301.576 26.712H301.408V24.516V24.036L302.62 24.516H305.872V24.864H302.56V26.364ZM305.284 24.516L305.8 23.976L306.904 24.78C306.872 24.812 306.828 24.848 306.772 24.888C306.716 24.928 306.644 24.952 306.556 24.96V26.256C306.556 26.288 306.496 26.328 306.376 26.376C306.264 26.424 306.136 26.468 305.992 26.508C305.848 26.54 305.712 26.556 305.584 26.556H305.38V24.516H305.284ZM305.824 25.98V26.328H302.032V25.98H305.824ZM300.436 30.516C300.436 30.58 300.38 30.652 300.268 30.732C300.164 30.82 300.024 30.896 299.848 30.96C299.68 31.024 299.492 31.056 299.284 31.056H299.044V20.58V19.944L300.556 20.58H308.044V20.916H300.436V30.516ZM307.492 20.58L308.176 19.812L309.52 20.892C309.48 20.948 309.42 21 309.34 21.048C309.26 21.088 309.156 21.12 309.028 21.144V30.528C309.028 30.56 308.964 30.612 308.836 30.684C308.708 30.764 308.552 30.832 308.368 30.888C308.184 30.952 308.008 30.984 307.84 30.984H307.612V20.58H307.492ZM308.116 29.736V30.084H299.872V29.736H308.116Z" fill="#DCDDDD"/><defs><clipPath id="clip0_28_450"><rect width="96" height="29" fill="white" transform="translate(11)"/></clipPath></defs></svg>