<svg width="230" height="56" fill="none" xmlns="http://www.w3.org/2000/svg"><path d="M1.262 18.274H43.254L47.488 12.938C47.488 12.938 47.7393 13.1313 48.242 13.518C48.7833 13.9047 49.4407 14.4073 50.214 15.026C51.026 15.6447 51.8767 16.302 52.766 16.998C53.6553 17.694 54.448 18.3513 55.144 18.97C54.9893 19.5887 54.4287 19.898 53.462 19.898H1.726L1.262 18.274ZM23.128 0.989998L32.872 1.86C32.7947 2.324 32.582 2.69133 32.234 2.962C31.9247 3.23266 31.422 3.426 30.726 3.542C30.6487 7.09933 30.5327 10.5793 30.378 13.982C30.262 17.3847 29.9527 20.6907 29.45 23.9C28.9473 27.0707 28.0967 30.1253 26.898 33.064C25.738 36.0027 24.0947 38.806 21.968 41.474C19.8413 44.1033 17.0767 46.578 13.674 48.898C10.31 51.1793 6.15333 53.2867 1.204 55.22L0.682 54.35C5.39933 51.5273 9.208 48.55 12.108 45.418C15.008 42.286 17.212 39.0187 18.72 35.616C20.2667 32.2133 21.33 28.656 21.91 24.944C22.5287 21.232 22.8767 17.3847 22.954 13.402C23.07 9.38067 23.128 5.24333 23.128 0.989998ZM30.436 18.622C30.8613 21.4447 31.6347 24.2287 32.756 26.974C33.8773 29.7193 35.4047 32.368 37.338 34.92C39.31 37.472 41.804 39.85 44.82 42.054C47.836 44.2193 51.4513 46.1527 55.666 47.854L55.55 48.492C53.81 48.84 52.3987 49.5553 51.316 50.638C50.272 51.7207 49.5953 53.248 49.286 55.22C45.6513 53.016 42.6353 50.464 40.238 47.564C37.8407 44.664 35.9073 41.5707 34.438 38.284C32.9687 34.9587 31.8667 31.6333 31.132 28.308C30.3973 24.9827 29.856 21.812 29.508 18.796L30.436 18.622ZM76.198 25.408C78.7113 26.1427 80.6833 26.9933 82.114 27.96C83.5447 28.9267 84.55 29.932 85.13 30.976C85.7487 31.9813 86.0193 32.9287 85.942 33.818C85.8647 34.7073 85.5553 35.4227 85.014 35.964C84.4727 36.5053 83.796 36.7953 82.984 36.834C82.172 36.834 81.3213 36.486 80.432 35.79C80.2773 34.63 79.9487 33.4507 79.446 32.252C78.9433 31.0533 78.344 29.8933 77.648 28.772C76.9907 27.6507 76.314 26.6647 75.618 25.814L76.198 25.408ZM76.546 53.248C76.546 53.364 76.314 53.5767 75.85 53.886C75.386 54.234 74.748 54.524 73.936 54.756C73.1627 55.0267 72.2153 55.162 71.094 55.162H69.934V8.588L76.546 5.978V53.248ZM94.468 49.014C94.468 49.246 94.1973 49.5553 93.656 49.942C93.1147 50.3287 92.4187 50.6573 91.568 50.928C90.756 51.2373 89.8473 51.392 88.842 51.392H87.74V10.27V7.37L94.758 10.27H107.286V11.952H94.468V49.014ZM102.182 10.27L105.372 6.674L112.042 11.836C111.849 12.1067 111.539 12.358 111.114 12.59C110.689 12.7833 110.186 12.9573 109.606 13.112V48.55C109.567 48.7047 109.239 48.9367 108.62 49.246C108.001 49.5553 107.247 49.826 106.358 50.058C105.507 50.3287 104.676 50.464 103.864 50.464H102.762V10.27H102.182ZM107.576 42.634V44.316H90.698V42.634H107.576ZM75.444 20.826C74.1293 25.8913 72.08 30.5313 69.296 34.746C66.512 38.922 63.09 42.6147 59.03 45.824L58.334 45.186C60.0353 42.9433 61.5433 40.43 62.858 37.646C64.2113 34.8233 65.352 31.904 66.28 28.888C67.2467 25.8333 68.0007 22.8367 68.542 19.898H75.444V20.826ZM86.986 7.312C86.638 7.58266 86.1353 7.73733 85.478 7.776C84.8593 7.81466 84.086 7.66 83.158 7.312C81.1473 7.776 78.8273 8.24 76.198 8.704C73.5687 9.168 70.804 9.574 67.904 9.922C65.004 10.2313 62.162 10.444 59.378 10.56L59.204 9.806C61.6013 9.07133 64.0953 8.182 66.686 7.138C69.3153 6.094 71.79 5.01133 74.11 3.89C76.43 2.73 78.3247 1.686 79.794 0.757998L86.986 7.312ZM81.476 15.142C81.476 15.142 81.6693 15.316 82.056 15.664C82.4813 16.012 83.0033 16.476 83.622 17.056C84.2793 17.5973 84.956 18.1967 85.652 18.854C86.348 19.4727 86.9667 20.072 87.508 20.652C87.392 21.2707 86.87 21.58 85.942 21.58H59.668L59.204 19.898H78.112L81.476 15.142ZM159.544 1.512C159.505 1.82133 159.389 2.092 159.196 2.324C159.003 2.51733 158.616 2.65266 158.036 2.73V15.2C158.036 15.3547 157.746 15.5673 157.166 15.838C156.586 16.07 155.871 16.2827 155.02 16.476C154.169 16.6693 153.338 16.766 152.526 16.766H151.308V0.815997L159.544 1.512ZM137.272 1.686C137.233 1.95666 137.117 2.208 136.924 2.44C136.731 2.63333 136.344 2.76866 135.764 2.846V16.65C135.764 16.8047 135.474 16.998 134.894 17.23C134.314 17.462 133.599 17.694 132.748 17.926C131.936 18.1193 131.124 18.216 130.312 18.216H129.036V0.931999L137.272 1.686ZM164.996 3.658C164.996 3.658 165.189 3.85133 165.576 4.238C166.001 4.62466 166.543 5.108 167.2 5.688C167.857 6.268 168.534 6.906 169.23 7.602C169.926 8.298 170.564 8.936 171.144 9.516C170.989 10.1347 170.467 10.444 169.578 10.444H146.03L145.566 8.762H161.516L164.996 3.658ZM139.708 4.122C139.708 4.122 139.921 4.296 140.346 4.644C140.771 4.992 141.293 5.43666 141.912 5.978C142.569 6.51933 143.227 7.09933 143.884 7.718C144.58 8.33666 145.218 8.936 145.798 9.516C145.643 10.1347 145.121 10.444 144.232 10.444H117.958L117.494 8.762H136.344L139.708 4.122ZM146.378 36.66C146.223 37.008 145.856 37.2593 145.276 37.414C144.696 37.53 143.923 37.3947 142.956 37.008L144.87 36.776C143.865 37.704 142.569 38.7287 140.984 39.85C139.399 40.9327 137.659 42.0153 135.764 43.098C133.908 44.1807 131.994 45.186 130.022 46.114C128.089 47.0033 126.252 47.7767 124.512 48.434L124.454 47.796H127.644C127.412 49.9227 126.948 51.5467 126.252 52.668C125.556 53.828 124.783 54.5433 123.932 54.814L121.438 46.868C121.438 46.868 121.728 46.81 122.308 46.694C122.888 46.578 123.333 46.4233 123.642 46.23C124.918 45.65 126.233 44.78 127.586 43.62C128.978 42.46 130.351 41.184 131.704 39.792C133.057 38.4 134.256 37.008 135.3 35.616C136.344 34.224 137.156 33.006 137.736 31.962L146.378 36.66ZM122.482 47.042C124.145 47.0033 126.31 46.9453 128.978 46.868C131.685 46.7907 134.759 46.6747 138.2 46.52C141.68 46.3653 145.392 46.1913 149.336 45.998C153.28 45.766 157.282 45.534 161.342 45.302L161.4 46.23C157.533 47.1967 152.429 48.3373 146.088 49.652C139.785 50.928 132.555 52.3007 124.396 53.77L122.482 47.042ZM150.554 36.428C153.841 37.3173 156.567 38.4 158.732 39.676C160.936 40.952 162.657 42.286 163.894 43.678C165.17 45.07 166.04 46.4427 166.504 47.796C166.968 49.1107 167.123 50.3093 166.968 51.392C166.813 52.4747 166.427 53.3447 165.808 54.002C165.189 54.6593 164.397 55.0073 163.43 55.046C162.463 55.0847 161.439 54.698 160.356 53.886C160.047 52.378 159.544 50.8507 158.848 49.304C158.152 47.7573 157.34 46.23 156.412 44.722C155.484 43.214 154.459 41.8027 153.338 40.488C152.255 39.1347 151.153 37.9167 150.032 36.834L150.554 36.428ZM159.254 15.896C159.254 15.896 159.467 16.07 159.892 16.418C160.317 16.766 160.859 17.23 161.516 17.81C162.212 18.3513 162.927 18.9313 163.662 19.55C164.397 20.13 165.073 20.71 165.692 21.29C165.576 21.9087 165.054 22.218 164.126 22.218H123.816L123.352 20.536H155.658L159.254 15.896ZM164.01 26.104C164.01 26.104 164.242 26.2973 164.706 26.684C165.17 27.032 165.75 27.496 166.446 28.076C167.142 28.656 167.877 29.2747 168.65 29.932C169.423 30.5893 170.139 31.208 170.796 31.788C170.641 32.4067 170.081 32.716 169.114 32.716H118.19L117.726 31.034H160.298L164.01 26.104ZM197.824 22.508C197.785 22.856 197.611 23.1653 197.302 23.436C197.031 23.7067 196.548 23.8807 195.852 23.958V29.062C195.852 30.9953 195.678 33.1413 195.33 35.5C194.982 37.8587 194.325 40.1593 193.358 42.402C192.391 44.6447 190.941 46.6167 189.008 48.318L188.254 47.68C189.182 45.8627 189.859 43.8713 190.284 41.706C190.748 39.502 191.038 37.298 191.154 35.094C191.309 32.89 191.386 30.8407 191.386 28.946V21.812L197.824 22.508ZM212.614 22.508C212.537 23.32 211.976 23.8033 210.932 23.958V40.024C210.932 40.5653 211.067 40.836 211.338 40.836H211.454C211.454 40.836 211.473 40.836 211.512 40.836C211.589 40.836 211.686 40.836 211.802 40.836C211.879 40.836 211.976 40.836 212.092 40.836C212.247 40.836 212.382 40.8167 212.498 40.778C212.653 40.778 212.807 40.7587 212.962 40.72C213.155 40.6813 213.329 40.6427 213.484 40.604H214.006L214.238 40.72C214.818 40.952 215.224 41.184 215.456 41.416C215.727 41.648 215.862 42.0153 215.862 42.518C215.862 43.3687 215.456 44.0067 214.644 44.432C213.832 44.8187 212.575 45.012 210.874 45.012H209.656C208.148 45.012 207.201 44.722 206.814 44.142C206.466 43.5233 206.292 42.5373 206.292 41.184V21.87L212.614 22.508ZM206.234 2.034C206.157 2.42067 205.963 2.76867 205.654 3.078C205.383 3.34866 204.861 3.52266 204.088 3.6V52.378C204.088 52.61 203.837 52.9 203.334 53.248C202.831 53.596 202.213 53.886 201.478 54.118C200.782 54.3887 200.047 54.524 199.274 54.524H198.114V1.164L206.234 2.034ZM208.844 10.618C208.844 10.618 209.115 10.8693 209.656 11.372C210.197 11.836 210.835 12.416 211.57 13.112C212.343 13.7693 213.02 14.4073 213.6 15.026C213.445 15.6447 212.943 15.954 212.092 15.954H190.748L190.284 14.33H206.176L208.844 10.618ZM206.002 3.368C207.935 3.90933 209.347 4.586 210.236 5.398C211.164 6.21 211.686 7.022 211.802 7.834C211.957 8.60733 211.821 9.284 211.396 9.864C211.009 10.4053 210.468 10.7147 209.772 10.792C209.076 10.8693 208.361 10.5987 207.626 9.98C207.587 8.89733 207.336 7.776 206.872 6.616C206.408 5.41733 205.905 4.43133 205.364 3.658L206.002 3.368ZM192.198 5.224C192.043 5.49466 191.792 5.70733 191.444 5.862C191.135 5.978 190.632 5.99733 189.936 5.92C188.892 7.196 187.597 8.54933 186.05 9.98C184.542 11.4107 182.879 12.8027 181.062 14.156C179.283 15.4707 177.408 16.6307 175.436 17.636L174.914 17.056C176.267 15.548 177.543 13.8467 178.742 11.952C179.979 10.0187 181.081 8.08533 182.048 6.152C183.053 4.18 183.827 2.44 184.368 0.931999L192.198 5.224ZM192.546 17.984C192.391 18.2547 192.14 18.4673 191.792 18.622C191.483 18.7767 190.961 18.796 190.226 18.68C189.105 20.3813 187.771 22.218 186.224 24.19C184.677 26.162 182.957 28.1147 181.062 30.048C179.167 31.9427 177.118 33.6827 174.914 35.268L174.334 34.688C175.842 32.6387 177.253 30.3573 178.568 27.844C179.921 25.3307 181.12 22.8173 182.164 20.304C183.208 17.7907 184.001 15.5673 184.542 13.634L192.546 17.984ZM189.356 25.002C189.24 25.2727 189.027 25.5047 188.718 25.698C188.447 25.8913 188.041 26.0267 187.5 26.104V53.422C187.461 53.5767 187.171 53.7893 186.63 54.06C186.127 54.3307 185.489 54.582 184.716 54.814C183.943 55.046 183.131 55.162 182.28 55.162H181.12V26.046L183.556 22.856L189.356 25.002ZM223.75 47.506C223.75 48.898 223.576 50.1353 223.228 51.218C222.88 52.3393 222.145 53.248 221.024 53.944C219.903 54.64 218.201 55.0847 215.92 55.278C215.881 54.3113 215.804 53.4413 215.688 52.668C215.572 51.9333 215.359 51.334 215.05 50.87C214.702 50.406 214.238 50 213.658 49.652C213.078 49.304 212.189 49.0333 210.99 48.84V48.028C210.99 48.028 211.203 48.0473 211.628 48.086C212.092 48.1247 212.633 48.1633 213.252 48.202C213.871 48.202 214.451 48.2213 214.992 48.26C215.572 48.2987 215.997 48.318 216.268 48.318C216.693 48.318 216.964 48.2407 217.08 48.086C217.235 47.8927 217.312 47.6413 217.312 47.332V20.014H223.75V47.506ZM223.808 15.432C223.808 15.432 224.156 15.722 224.852 16.302C225.548 16.8433 226.36 17.52 227.288 18.332C228.216 19.144 229.047 19.898 229.782 20.594C229.627 21.2127 229.105 21.522 228.216 21.522H211.744L211.28 19.898H220.502L223.808 15.432ZM222.88 2.73C222.88 2.73 223.209 3.00066 223.866 3.542C224.562 4.08333 225.355 4.74066 226.244 5.514C227.133 6.28733 227.945 7.04133 228.68 7.776C228.525 8.39467 228.003 8.704 227.114 8.704H213.252L212.788 7.022H219.632L222.88 2.73Z" fill="#F3D7A3"/></svg>