<svg width="310" height="51" viewBox="0 0 310 51" fill="none" xmlns="http://www.w3.org/2000/svg">
<path d="M14.915 14.049C14.887 14.203 14.81 14.336 14.684 14.448C14.558 14.546 14.355 14.616 14.075 14.658V15.372H12.248V14.112V13.755L14.915 14.049ZM11.66 14.007C11.646 14.133 11.583 14.245 11.471 14.343C11.373 14.441 11.205 14.504 10.967 14.532V15.813C10.953 16.345 10.897 16.926 10.799 17.556C10.715 18.172 10.554 18.795 10.316 19.425C10.078 20.055 9.735 20.65 9.287 21.21C8.839 21.784 8.251 22.281 7.523 22.701L7.292 22.47C7.81 21.826 8.188 21.119 8.426 20.349C8.678 19.565 8.846 18.774 8.93 17.976C9.014 17.178 9.056 16.443 9.056 15.771V13.734L11.66 14.007ZM11.786 19.152C12.052 19.054 12.402 18.921 12.836 18.753C13.27 18.585 13.753 18.382 14.285 18.144C14.831 17.906 15.377 17.675 15.923 17.451L16.028 17.682C15.846 17.878 15.594 18.144 15.272 18.48C14.95 18.816 14.586 19.187 14.18 19.593C13.774 19.999 13.34 20.405 12.878 20.811L11.786 19.152ZM13.634 14.742L14.075 14.994V19.089L12.647 19.656L13.382 19.005C13.522 19.565 13.501 20.02 13.319 20.37C13.137 20.706 12.941 20.93 12.731 21.042L11.597 19.089C11.877 18.921 12.052 18.781 12.122 18.669C12.206 18.557 12.248 18.41 12.248 18.228V14.742H13.634ZM10.904 5.166C10.89 5.292 10.82 5.397 10.694 5.481C10.582 5.551 10.379 5.607 10.085 5.649V7.308C10.029 7.308 9.896 7.308 9.686 7.308C9.49 7.308 9.07 7.308 8.426 7.308V6.048V4.809L10.904 5.166ZM9.686 6.384L10.085 6.615V10.122H10.169L9.728 10.71L8.027 9.87C8.125 9.758 8.251 9.632 8.405 9.492C8.559 9.338 8.706 9.233 8.846 9.177L8.426 9.849V6.384H9.686ZM16.805 9.303C16.931 10.661 17.127 11.914 17.393 13.062C17.659 14.21 18.009 15.26 18.443 16.212C18.891 17.15 19.451 17.983 20.123 18.711C20.795 19.425 21.593 20.041 22.517 20.559L22.454 20.748C21.894 20.888 21.453 21.126 21.131 21.462C20.809 21.798 20.571 22.246 20.417 22.806C19.465 21.966 18.716 20.902 18.17 19.614C17.638 18.312 17.253 16.835 17.015 15.183C16.791 13.517 16.637 11.725 16.553 9.807L16.805 9.303ZM21.299 8.169C21.215 9.835 21.04 11.396 20.774 12.852C20.508 14.308 20.088 15.652 19.514 16.884C18.94 18.116 18.149 19.236 17.141 20.244C16.147 21.252 14.88 22.141 13.34 22.911L13.151 22.68C14.369 21.77 15.363 20.79 16.133 19.74C16.917 18.69 17.526 17.556 17.96 16.338C18.408 15.12 18.723 13.832 18.905 12.474C19.101 11.116 19.213 9.681 19.241 8.169H21.299ZM20.375 6.426C20.375 6.426 20.494 6.517 20.732 6.699C20.97 6.881 21.25 7.105 21.572 7.371C21.908 7.623 22.209 7.868 22.475 8.106C22.419 8.33 22.237 8.442 21.929 8.442H17.183L17.435 7.854H19.241L20.375 6.426ZM19.535 3.696C19.507 3.836 19.43 3.955 19.304 4.053C19.178 4.137 18.996 4.193 18.758 4.221C18.562 5.495 18.31 6.734 18.002 7.938C17.694 9.128 17.33 10.255 16.91 11.319C16.49 12.369 16.007 13.314 15.461 14.154L15.125 13.986C15.419 13.02 15.671 11.942 15.881 10.752C16.091 9.548 16.266 8.302 16.406 7.014C16.546 5.726 16.637 4.466 16.679 3.234L19.535 3.696ZM13.802 10.647C13.802 10.647 13.893 10.731 14.075 10.899C14.257 11.053 14.474 11.249 14.726 11.487C14.978 11.725 15.195 11.949 15.377 12.159C15.335 12.383 15.16 12.495 14.852 12.495H8.174L8.006 11.886H12.92L13.802 10.647ZM14.495 9.534V10.122H9.308V9.534H14.495ZM13.319 3.612C13.305 3.724 13.249 3.829 13.151 3.927C13.067 4.011 12.913 4.067 12.689 4.095V9.828H10.988V3.381L13.319 3.612ZM15.881 5.103C15.853 5.215 15.797 5.32 15.713 5.418C15.629 5.502 15.475 5.558 15.251 5.586V9.933C15.251 9.975 15.181 10.031 15.041 10.101C14.915 10.171 14.747 10.241 14.537 10.311C14.341 10.367 14.138 10.395 13.928 10.395H13.613V4.893L15.881 5.103ZM8.153 4.788C8.083 4.886 7.992 4.963 7.88 5.019C7.768 5.075 7.593 5.089 7.355 5.061C6.991 5.481 6.571 5.943 6.095 6.447C5.619 6.937 5.101 7.427 4.541 7.917C3.995 8.393 3.421 8.827 2.819 9.219L2.609 9.009C2.987 8.449 3.358 7.826 3.722 7.14C4.086 6.44 4.415 5.754 4.709 5.082C5.003 4.396 5.227 3.794 5.381 3.276L8.153 4.788ZM8.573 8.841C8.517 8.953 8.433 9.044 8.321 9.114C8.209 9.17 8.02 9.184 7.754 9.156C7.418 9.786 6.998 10.465 6.494 11.193C6.004 11.907 5.451 12.614 4.835 13.314C4.233 14.014 3.575 14.651 2.861 15.225L2.63 15.015C3.106 14.301 3.547 13.496 3.953 12.6C4.359 11.704 4.716 10.815 5.024 9.933C5.332 9.037 5.563 8.246 5.717 7.56L8.573 8.841ZM7.439 12.096C7.369 12.278 7.152 12.404 6.788 12.474V22.092C6.788 22.162 6.697 22.253 6.515 22.365C6.347 22.491 6.123 22.603 5.843 22.701C5.577 22.813 5.283 22.869 4.961 22.869H4.541V12.159L5.234 11.277L7.439 12.096ZM41.207 4.263C41.207 4.263 41.326 4.368 41.564 4.578C41.816 4.774 42.117 5.012 42.467 5.292C42.817 5.572 43.125 5.838 43.391 6.09C43.335 6.314 43.146 6.426 42.824 6.426H35.705V5.817H39.968L41.207 4.263ZM32.324 4.368C32.324 4.368 32.436 4.466 32.66 4.662C32.898 4.844 33.164 5.068 33.458 5.334C33.766 5.6 34.046 5.852 34.298 6.09C34.242 6.314 34.053 6.426 33.731 6.426H27.515V5.838H31.253L32.324 4.368ZM37.427 6.993C38.323 6.979 39.037 7.07 39.569 7.266C40.115 7.448 40.507 7.686 40.745 7.98C40.983 8.26 41.102 8.554 41.102 8.862C41.102 9.156 41.018 9.415 40.85 9.639C40.682 9.849 40.444 9.982 40.136 10.038C39.842 10.094 39.52 10.024 39.17 9.828C39.086 9.492 38.946 9.156 38.75 8.82C38.554 8.484 38.323 8.169 38.057 7.875C37.791 7.581 37.525 7.336 37.259 7.14L37.427 6.993ZM38.624 4.158C38.582 4.284 38.491 4.389 38.351 4.473C38.225 4.557 38.036 4.592 37.784 4.578C37.182 5.838 36.454 6.937 35.6 7.875C34.76 8.799 33.843 9.562 32.849 10.164L32.618 9.975C32.996 9.415 33.36 8.771 33.71 8.043C34.06 7.301 34.375 6.51 34.655 5.67C34.949 4.816 35.18 3.948 35.348 3.066L38.624 4.158ZM28.544 7.119C29.398 7.175 30.077 7.322 30.581 7.56C31.099 7.784 31.463 8.043 31.673 8.337C31.883 8.631 31.981 8.925 31.967 9.219C31.953 9.513 31.855 9.765 31.673 9.975C31.491 10.171 31.253 10.29 30.959 10.332C30.679 10.36 30.371 10.269 30.035 10.059C29.965 9.723 29.839 9.387 29.657 9.051C29.489 8.701 29.286 8.372 29.048 8.064C28.824 7.742 28.6 7.476 28.376 7.266L28.544 7.119ZM30.308 4.158C30.266 4.284 30.175 4.389 30.035 4.473C29.909 4.543 29.727 4.578 29.489 4.578C28.761 6.062 27.9 7.35 26.906 8.442C25.926 9.52 24.869 10.402 23.735 11.088L23.483 10.92C23.959 10.304 24.414 9.583 24.848 8.757C25.296 7.917 25.709 7.021 26.087 6.069C26.465 5.103 26.773 4.123 27.011 3.129L30.308 4.158ZM34.823 11.214C34.767 12.362 34.662 13.44 34.508 14.448C34.368 15.456 34.102 16.394 33.71 17.262C33.318 18.116 32.73 18.9 31.946 19.614C31.176 20.314 30.133 20.93 28.817 21.462C27.515 22.008 25.856 22.463 23.84 22.827L23.714 22.512C25.282 21.966 26.577 21.385 27.599 20.769C28.621 20.153 29.433 19.495 30.035 18.795C30.637 18.081 31.078 17.332 31.358 16.548C31.652 15.75 31.848 14.91 31.946 14.028C32.058 13.132 32.121 12.194 32.135 11.214H34.823ZM34.403 15.12C34.753 15.96 35.236 16.667 35.852 17.241C36.468 17.815 37.168 18.291 37.952 18.669C38.75 19.033 39.611 19.327 40.535 19.551C41.459 19.761 42.418 19.922 43.412 20.034L43.391 20.265C42.859 20.419 42.411 20.713 42.047 21.147C41.697 21.595 41.438 22.155 41.27 22.827C40.052 22.393 38.974 21.868 38.036 21.252C37.098 20.65 36.307 19.866 35.663 18.9C35.033 17.934 34.529 16.716 34.151 15.246L34.403 15.12ZM40.283 13.188C40.283 13.188 40.36 13.258 40.514 13.398C40.682 13.524 40.892 13.692 41.144 13.902C41.396 14.112 41.655 14.336 41.921 14.574C42.201 14.798 42.446 15.015 42.656 15.225C42.614 15.449 42.425 15.561 42.089 15.561H24.617L24.449 14.973H38.96L40.283 13.188ZM40.577 11.508C40.451 11.592 40.269 11.641 40.031 11.655C39.807 11.655 39.52 11.592 39.17 11.466C38.302 11.634 37.329 11.788 36.251 11.928C35.187 12.054 34.06 12.166 32.87 12.264C31.694 12.362 30.49 12.432 29.258 12.474C28.04 12.516 26.85 12.53 25.688 12.516L25.646 12.201C26.738 12.061 27.865 11.879 29.027 11.655C30.203 11.417 31.351 11.158 32.471 10.878C33.605 10.598 34.655 10.311 35.621 10.017C36.601 9.709 37.434 9.408 38.12 9.114L40.577 11.508ZM56.012 11.823C55.956 11.977 55.823 12.096 55.613 12.18C55.403 12.264 55.109 12.257 54.731 12.159L55.361 11.928C54.997 12.586 54.528 13.3 53.954 14.07C53.394 14.84 52.778 15.617 52.106 16.401C51.434 17.171 50.748 17.899 50.048 18.585C49.348 19.257 48.676 19.831 48.032 20.307L48.011 20.055H49.397C49.313 20.867 49.145 21.504 48.893 21.966C48.641 22.428 48.34 22.722 47.99 22.848L46.919 19.635C46.919 19.635 46.975 19.621 47.087 19.593C47.199 19.565 47.325 19.523 47.465 19.467C47.605 19.411 47.717 19.348 47.801 19.278C48.123 18.984 48.459 18.578 48.809 18.06C49.173 17.528 49.537 16.94 49.901 16.296C50.279 15.652 50.629 14.987 50.951 14.301C51.287 13.601 51.581 12.922 51.833 12.264C52.085 11.606 52.281 11.018 52.421 10.5L56.012 11.823ZM47.381 19.782C48.025 19.768 48.837 19.726 49.817 19.656C50.797 19.586 51.896 19.502 53.114 19.404C54.346 19.292 55.634 19.166 56.978 19.026C58.322 18.872 59.666 18.711 61.01 18.543L61.031 18.837C59.659 19.341 57.902 19.901 55.76 20.517C53.632 21.119 51.161 21.721 48.347 22.323L47.381 19.782ZM56.222 4.242L57.02 2.961L59.204 4.452C59.078 4.62 58.847 4.746 58.511 4.83C58.175 4.914 57.783 4.97 57.335 4.998C57.671 6.006 58.175 6.958 58.847 7.854C59.519 8.75 60.331 9.541 61.283 10.227C62.249 10.913 63.348 11.459 64.58 11.865L64.517 12.117C63.985 12.299 63.516 12.621 63.11 13.083C62.718 13.531 62.452 14.014 62.312 14.532C60.73 13.468 59.484 12.096 58.574 10.416C57.678 8.736 57.069 6.79 56.747 4.578V4.242H56.222ZM57.251 4.242V4.851H54.353L54.164 4.242H57.251ZM53.534 5.712C53.478 5.838 53.38 5.936 53.24 6.006C53.1 6.076 52.904 6.097 52.652 6.069C51.658 8.113 50.489 9.807 49.145 11.151C47.801 12.495 46.303 13.587 44.651 14.427L44.42 14.238C45.176 13.51 45.918 12.635 46.646 11.613C47.374 10.577 48.046 9.443 48.662 8.211C49.278 6.979 49.775 5.691 50.153 4.347L53.534 5.712ZM56.663 14.805C57.881 15.295 58.889 15.827 59.687 16.401C60.499 16.975 61.129 17.563 61.577 18.165C62.039 18.767 62.354 19.341 62.522 19.887C62.704 20.433 62.76 20.923 62.69 21.357C62.634 21.805 62.487 22.155 62.249 22.407C62.011 22.659 61.717 22.785 61.367 22.785C61.017 22.785 60.632 22.624 60.212 22.302C60.1 21.672 59.918 21.028 59.666 20.37C59.428 19.712 59.134 19.061 58.784 18.417C58.448 17.773 58.077 17.157 57.671 16.569C57.279 15.981 56.866 15.435 56.432 14.931L56.663 14.805ZM75.29 15.477C76.55 15.715 77.572 16.009 78.356 16.359C79.14 16.695 79.728 17.059 80.12 17.451C80.526 17.829 80.771 18.2 80.855 18.564C80.953 18.914 80.939 19.208 80.813 19.446C80.701 19.684 80.512 19.838 80.246 19.908C79.98 19.978 79.686 19.922 79.364 19.74C79.182 19.418 78.888 19.033 78.482 18.585C78.09 18.123 77.607 17.647 77.033 17.157C76.473 16.667 75.843 16.198 75.143 15.75L75.29 15.477ZM74.24 15.288V17.094H72.287V16.275L74.24 15.288ZM72.119 18.564C72.399 18.508 72.791 18.417 73.295 18.291C73.799 18.165 74.359 18.018 74.975 17.85C75.591 17.682 76.221 17.514 76.865 17.346L76.949 17.619C76.669 17.787 76.305 18.018 75.857 18.312C75.423 18.606 74.933 18.921 74.387 19.257C73.841 19.579 73.274 19.908 72.686 20.244L72.119 18.564ZM73.778 16.485L74.24 16.758V18.669L72.581 19.278L73.19 18.648C73.316 19.166 73.295 19.579 73.127 19.887C72.973 20.195 72.805 20.398 72.623 20.496L71.531 18.858C71.867 18.648 72.077 18.487 72.161 18.375C72.245 18.249 72.287 18.109 72.287 17.955V16.485H73.778ZM81.254 16.044C81.198 16.114 81.114 16.156 81.002 16.17C80.89 16.184 80.743 16.156 80.561 16.086C80.323 16.184 80.022 16.289 79.658 16.401C79.308 16.499 78.944 16.604 78.566 16.716C78.202 16.814 77.873 16.912 77.579 17.01L77.39 16.779C77.614 16.583 77.852 16.345 78.104 16.065C78.37 15.785 78.622 15.498 78.86 15.204C79.112 14.91 79.322 14.658 79.49 14.448L81.254 16.044ZM76.151 14.385C75.423 15.211 74.464 15.918 73.274 16.506C72.098 17.08 70.824 17.549 69.452 17.913L69.263 17.598C70.257 17.164 71.16 16.639 71.972 16.023C72.798 15.407 73.463 14.749 73.967 14.049H76.151V14.385ZM79.784 8.253C79.784 8.253 79.896 8.337 80.12 8.505C80.344 8.673 80.61 8.883 80.918 9.135C81.226 9.373 81.506 9.604 81.758 9.828C81.702 10.052 81.52 10.164 81.212 10.164H69.725L69.557 9.555H78.734L79.784 8.253ZM78.965 6.279C78.965 6.279 79.07 6.363 79.28 6.531C79.49 6.685 79.742 6.881 80.036 7.119C80.33 7.343 80.603 7.567 80.855 7.791C80.799 8.015 80.617 8.127 80.309 8.127H70.523L70.355 7.518H77.936L78.965 6.279ZM76.97 5.922C76.956 6.034 76.907 6.132 76.823 6.216C76.753 6.3 76.606 6.363 76.382 6.405V9.828H74.198V5.67L76.97 5.922ZM72.98 14.637C72.98 14.693 72.889 14.77 72.707 14.868C72.539 14.966 72.322 15.057 72.056 15.141C71.79 15.211 71.524 15.246 71.258 15.246H70.964V11.403V10.563L73.085 11.403H78.776V12.012H72.98V14.637ZM77.747 11.403L78.65 10.458L80.582 11.865C80.526 11.921 80.449 11.984 80.351 12.054C80.253 12.124 80.127 12.166 79.973 12.18V14.448C79.973 14.504 79.868 14.574 79.658 14.658C79.462 14.742 79.238 14.819 78.986 14.889C78.734 14.945 78.496 14.973 78.272 14.973H77.915V11.403H77.747ZM78.692 13.965V14.574H72.056V13.965H78.692ZM69.263 21.903C69.263 22.015 69.165 22.141 68.969 22.281C68.787 22.435 68.542 22.568 68.234 22.68C67.94 22.792 67.611 22.848 67.247 22.848H66.827V4.515V3.402L69.473 4.515H82.577V5.103H69.263V21.903ZM81.611 4.515L82.808 3.171L85.16 5.061C85.09 5.159 84.985 5.25 84.845 5.334C84.705 5.404 84.523 5.46 84.299 5.502V21.924C84.299 21.98 84.187 22.071 83.963 22.197C83.739 22.337 83.466 22.456 83.144 22.554C82.822 22.666 82.514 22.722 82.22 22.722H81.821V4.515H81.611ZM82.703 20.538V21.147H68.276V20.538H82.703Z" fill="#F3D7A3"/>
<path d="M3.204 41.812V41.322L4.884 41.952H4.66V44.5C4.66 44.8733 4.63667 45.27 4.59 45.69C4.55267 46.1007 4.464 46.516 4.324 46.936C4.19333 47.356 3.98333 47.7527 3.694 48.126C3.414 48.5087 3.02667 48.8587 2.532 49.176L2.406 49.05C2.66733 48.6113 2.854 48.14 2.966 47.636C3.078 47.1227 3.14333 46.6 3.162 46.068C3.19 45.536 3.204 45.0133 3.204 44.5V41.952V41.812ZM4.17 43.282C4.87 43.17 5.43 43.1513 5.85 43.226C6.27933 43.3007 6.58733 43.422 6.774 43.59C6.97 43.758 7.07267 43.9307 7.082 44.108C7.09133 44.2853 7.026 44.43 6.886 44.542C6.75533 44.6447 6.578 44.6727 6.354 44.626C6.17667 44.4673 5.88267 44.276 5.472 44.052C5.07067 43.828 4.618 43.6367 4.114 43.478L4.17 43.282ZM4.31 45.508C4.51533 45.4707 4.80467 45.424 5.178 45.368C5.56067 45.3027 5.98533 45.2233 6.452 45.13C6.928 45.0367 7.41333 44.9433 7.908 44.85L7.95 45.032C7.642 45.2093 7.25467 45.424 6.788 45.676C6.33067 45.928 5.79867 46.208 5.192 46.516C5.11733 46.7027 5.00533 46.81 4.856 46.838L4.31 45.508ZM14.096 38.13C14.096 38.13 14.1473 38.1767 14.25 38.27C14.362 38.354 14.4973 38.4613 14.656 38.592C14.824 38.7227 14.9967 38.8627 15.174 39.012C15.3607 39.1613 15.524 39.306 15.664 39.446C15.6267 39.5953 15.5007 39.67 15.286 39.67H10.596V39.264H13.228L14.096 38.13ZM12.878 36.646C12.85 36.73 12.7893 36.8 12.696 36.856C12.612 36.912 12.4907 36.9447 12.332 36.954C12.136 37.822 11.898 38.6433 11.618 39.418C11.338 40.1833 11.0113 40.888 10.638 41.532C10.2647 42.1667 9.84 42.736 9.364 43.24L9.182 43.128C9.42467 42.5213 9.63933 41.8353 9.826 41.07C10.022 40.3047 10.1853 39.502 10.316 38.662C10.456 37.8127 10.5493 36.9727 10.596 36.142L12.878 36.646ZM14.712 39.264C14.6187 40.3373 14.4553 41.3687 14.222 42.358C13.998 43.3473 13.662 44.2667 13.214 45.116C12.766 45.9653 12.1687 46.7353 11.422 47.426C10.6753 48.1167 9.73733 48.7093 8.608 49.204L8.496 49.078C9.336 48.462 10.0267 47.79 10.568 47.062C11.1187 46.3247 11.5573 45.5407 11.884 44.71C12.22 43.87 12.4673 42.9973 12.626 42.092C12.7847 41.1773 12.878 40.2347 12.906 39.264H14.712ZM10.666 39.474C10.7967 40.4633 10.9927 41.3827 11.254 42.232C11.5153 43.072 11.8513 43.842 12.262 44.542C12.6727 45.242 13.1673 45.8627 13.746 46.404C14.334 46.9453 15.0153 47.4073 15.79 47.79L15.734 47.93C15.3513 48.0047 15.0433 48.1493 14.81 48.364C14.5767 48.588 14.4087 48.882 14.306 49.246C13.4473 48.6113 12.7567 47.8227 12.234 46.88C11.7207 45.9373 11.3333 44.8687 11.072 43.674C10.8107 42.4793 10.6193 41.1913 10.498 39.81L10.666 39.474ZM7.18 41.952L7.824 41.21L9.28 42.288C9.24267 42.3347 9.182 42.3813 9.098 42.428C9.02333 42.4747 8.93 42.5073 8.818 42.526V47.286C8.818 47.622 8.776 47.9113 8.692 48.154C8.61733 48.406 8.44933 48.602 8.188 48.742C7.936 48.8913 7.53933 48.994 6.998 49.05C6.98867 48.8073 6.96533 48.5927 6.928 48.406C6.9 48.2287 6.84867 48.0887 6.774 47.986C6.69933 47.874 6.592 47.7807 6.452 47.706C6.32133 47.622 6.12533 47.552 5.864 47.496V47.3C5.864 47.3 5.91533 47.3047 6.018 47.314C6.12067 47.3233 6.242 47.3327 6.382 47.342C6.522 47.3513 6.65733 47.3607 6.788 47.37C6.91867 47.37 7.012 47.37 7.068 47.37C7.17067 47.37 7.236 47.3513 7.264 47.314C7.292 47.2673 7.306 47.2067 7.306 47.132V41.952H7.18ZM8.146 41.952V42.344H4.058V41.952H8.146ZM8.874 39.516C8.874 39.516 8.93933 39.5767 9.07 39.698C9.21 39.8193 9.37333 39.9687 9.56 40.146C9.74667 40.314 9.91 40.4773 10.05 40.636C10.0127 40.7853 9.896 40.86 9.7 40.86H2.532L2.42 40.468H8.216L8.874 39.516ZM8.622 37.136C8.622 37.136 8.68733 37.1967 8.818 37.318C8.94867 37.4393 9.10267 37.584 9.28 37.752C9.45733 37.92 9.616 38.0787 9.756 38.228C9.728 38.3773 9.60667 38.452 9.392 38.452H2.854L2.742 38.046H7.978L8.622 37.136ZM8.496 36.282C8.48667 36.366 8.44933 36.436 8.384 36.492C8.328 36.548 8.22533 36.5853 8.076 36.604V40.734H6.592V36.1L8.496 36.282ZM5.836 36.268C5.82667 36.3613 5.794 36.436 5.738 36.492C5.682 36.548 5.57933 36.5853 5.43 36.604V40.734H3.988V36.1L5.836 36.268ZM24.358 42.064C24.3487 42.1573 24.3113 42.2413 24.246 42.316C24.1807 42.3813 24.0453 42.428 23.84 42.456V45.732C23.84 45.788 23.7653 45.8673 23.616 45.97C23.4667 46.0633 23.2753 46.1473 23.042 46.222C22.818 46.2967 22.594 46.334 22.37 46.334H22.202V41.91L24.358 42.064ZM26.584 37.416C26.584 37.416 26.64 37.4627 26.752 37.556C26.8733 37.64 27.0227 37.752 27.2 37.892C27.3773 38.0227 27.564 38.1673 27.76 38.326C27.9653 38.4847 28.1567 38.634 28.334 38.774C28.2967 38.9233 28.1613 38.998 27.928 38.998H22.93V38.606H25.618L26.584 37.416ZM20.83 37.346C20.8207 37.4393 20.7833 37.5187 20.718 37.584C20.662 37.64 20.5453 37.6773 20.368 37.696V41.462H18.814V37.178L20.83 37.346ZM24.386 36.296C24.3767 36.3893 24.3347 36.4687 24.26 36.534C24.1853 36.5993 24.0547 36.6507 23.868 36.688V41.476H22.202V36.114L24.386 36.296ZM27.858 40.034C27.858 40.034 27.9187 40.0807 28.04 40.174C28.1613 40.258 28.3107 40.37 28.488 40.51C28.6653 40.65 28.852 40.7993 29.048 40.958C29.244 41.1073 29.426 41.252 29.594 41.392C29.5753 41.4667 29.5287 41.5227 29.454 41.56C29.3793 41.5973 29.2953 41.616 29.202 41.616H16.602L16.49 41.224H26.92L27.858 40.034ZM28.348 43.702C28.292 43.786 28.2127 43.8373 28.11 43.856C28.0167 43.8747 27.8767 43.87 27.69 43.842C26.9527 44.8687 26.1827 45.7133 25.38 46.376C24.5867 47.0293 23.742 47.5567 22.846 47.958C21.95 48.35 20.9933 48.644 19.976 48.84C18.968 49.036 17.89 49.1807 16.742 49.274L16.7 49.064C17.708 48.8307 18.674 48.5553 19.598 48.238C20.522 47.93 21.39 47.5333 22.202 47.048C23.014 46.5627 23.7653 45.956 24.456 45.228C25.156 44.5 25.7813 43.6133 26.332 42.568L28.348 43.702ZM21.544 43.268C21.5067 43.3333 21.4507 43.3847 21.376 43.422C21.3013 43.4593 21.18 43.4733 21.012 43.464C20.7227 43.8373 20.3633 44.22 19.934 44.612C19.514 44.9947 19.0473 45.3587 18.534 45.704C18.0207 46.0493 17.4747 46.348 16.896 46.6L16.784 46.432C17.1853 46.0587 17.568 45.6293 17.932 45.144C18.296 44.6493 18.6133 44.15 18.884 43.646C19.164 43.1327 19.3787 42.6613 19.528 42.232L21.544 43.268ZM41.27 40.244C41.27 40.328 41.27 40.4213 41.27 40.524C41.27 40.6173 41.27 40.6967 41.27 40.762V47.09C41.27 47.1833 41.284 47.2533 41.312 47.3C41.3493 47.3373 41.4193 47.356 41.522 47.356H41.914C41.998 47.356 42.0727 47.356 42.138 47.356C42.2033 47.3467 42.2593 47.3373 42.306 47.328C42.3527 47.328 42.3947 47.3187 42.432 47.3C42.4693 47.272 42.5067 47.2253 42.544 47.16C42.5907 47.076 42.642 46.9313 42.698 46.726C42.754 46.5113 42.8147 46.2687 42.88 45.998C42.9453 45.718 43.0107 45.4427 43.076 45.172H43.23L43.286 47.258C43.4727 47.3513 43.5893 47.4493 43.636 47.552C43.692 47.6547 43.72 47.776 43.72 47.916C43.72 48.112 43.6593 48.28 43.538 48.42C43.4167 48.56 43.2113 48.6627 42.922 48.728C42.642 48.7933 42.2593 48.826 41.774 48.826H41.018C40.6633 48.826 40.3927 48.784 40.206 48.7C40.0287 48.6253 39.9073 48.49 39.842 48.294C39.786 48.1073 39.758 47.8507 39.758 47.524V40.244H41.27ZM32.772 36.128C33.3693 36.1653 33.8407 36.2633 34.186 36.422C34.5407 36.5713 34.788 36.7487 34.928 36.954C35.0773 37.1593 35.1427 37.3647 35.124 37.57C35.1053 37.7753 35.026 37.948 34.886 38.088C34.7553 38.2187 34.5827 38.298 34.368 38.326C34.1627 38.354 33.9433 38.2933 33.71 38.144C33.6447 37.7987 33.5047 37.4487 33.29 37.094C33.0847 36.7393 32.8747 36.4453 32.66 36.212L32.772 36.128ZM33.528 44.668C33.4907 44.752 33.43 44.822 33.346 44.878C33.262 44.934 33.1407 44.9573 32.982 44.948C32.6647 45.564 32.2913 46.1053 31.862 46.572C31.4327 47.0387 30.966 47.426 30.462 47.734L30.294 47.608C30.5647 47.1693 30.8167 46.6373 31.05 46.012C31.2833 45.3773 31.4653 44.7193 31.596 44.038L33.528 44.668ZM35.292 44.164C35.824 44.3693 36.23 44.598 36.51 44.85C36.79 45.0927 36.9767 45.3353 37.07 45.578C37.1633 45.8207 37.1867 46.0447 37.14 46.25C37.0933 46.4553 36.9953 46.614 36.846 46.726C36.706 46.838 36.538 46.8893 36.342 46.88C36.1553 46.8613 35.964 46.7587 35.768 46.572C35.7773 46.3013 35.7493 46.026 35.684 45.746C35.628 45.466 35.5487 45.1953 35.446 44.934C35.3527 44.6727 35.25 44.4393 35.138 44.234L35.292 44.164ZM32.744 43.212C32.744 43.2493 32.6787 43.3053 32.548 43.38C32.4267 43.4547 32.2727 43.52 32.086 43.576C31.8993 43.632 31.7033 43.66 31.498 43.66H31.288V40.048V39.432L32.814 40.048H36.104V40.44H32.744V43.212ZM40.486 36.31C40.4673 36.422 40.4207 36.5107 40.346 36.576C40.2713 36.6413 40.15 36.688 39.982 36.716C39.9633 37.8267 39.9447 38.886 39.926 39.894C39.9167 40.8927 39.856 41.84 39.744 42.736C39.6413 43.632 39.45 44.472 39.17 45.256C38.8993 46.04 38.5027 46.768 37.98 47.44C37.4573 48.1027 36.7667 48.7093 35.908 49.26L35.754 49.05C36.342 48.4153 36.8087 47.7433 37.154 47.034C37.4993 46.3153 37.7607 45.5547 37.938 44.752C38.1153 43.94 38.232 43.0813 38.288 42.176C38.344 41.2707 38.3673 40.314 38.358 39.306C38.358 38.298 38.358 37.234 38.358 36.114L40.486 36.31ZM40.71 36.744C41.2607 36.884 41.6853 37.0567 41.984 37.262C42.292 37.4673 42.4973 37.682 42.6 37.906C42.712 38.13 42.7447 38.34 42.698 38.536C42.6607 38.7227 42.5673 38.8767 42.418 38.998C42.278 39.11 42.1053 39.1613 41.9 39.152C41.704 39.1427 41.508 39.0493 41.312 38.872C41.3027 38.6293 41.2607 38.3867 41.186 38.144C41.1113 37.892 41.018 37.654 40.906 37.43C40.794 37.1967 40.682 36.9913 40.57 36.814L40.71 36.744ZM34.83 47.384C34.83 47.7293 34.788 48.0327 34.704 48.294C34.62 48.5553 34.4427 48.7653 34.172 48.924C33.9107 49.092 33.5047 49.1993 32.954 49.246C32.9447 49.0127 32.926 48.8027 32.898 48.616C32.87 48.4387 32.814 48.294 32.73 48.182C32.6553 48.07 32.548 47.972 32.408 47.888C32.268 47.804 32.0533 47.7433 31.764 47.706V47.51C31.764 47.51 31.8153 47.5147 31.918 47.524C32.03 47.5333 32.1607 47.5427 32.31 47.552C32.4593 47.552 32.604 47.5567 32.744 47.566C32.884 47.5753 32.982 47.58 33.038 47.58C33.1407 47.58 33.206 47.5613 33.234 47.524C33.2713 47.4773 33.29 47.4167 33.29 47.342V42.638H34.83V47.384ZM42.18 39.082C42.18 39.082 42.2313 39.124 42.334 39.208C42.4367 39.2827 42.5673 39.3853 42.726 39.516C42.8847 39.6467 43.048 39.7867 43.216 39.936C43.3933 40.076 43.552 40.2113 43.692 40.342C43.664 40.4913 43.538 40.566 43.314 40.566H37.434L37.322 40.16H41.354L42.18 39.082ZM36.454 37.332C36.454 37.332 36.5053 37.3787 36.608 37.472C36.72 37.556 36.8553 37.6633 37.014 37.794C37.182 37.9247 37.35 38.0693 37.518 38.228C37.6953 38.3773 37.8587 38.522 38.008 38.662C37.9707 38.8113 37.84 38.886 37.616 38.886H30.588L30.476 38.48H35.614L36.454 37.332ZM35.166 40.048L35.88 39.278L37.392 40.398C37.3547 40.454 37.2847 40.51 37.182 40.566C37.0887 40.622 36.972 40.664 36.832 40.692V43.142C36.832 43.17 36.7573 43.212 36.608 43.268C36.468 43.324 36.3 43.3753 36.104 43.422C35.908 43.4687 35.7307 43.492 35.572 43.492H35.306V40.048H35.166ZM36.258 42.568V42.974H32.086V42.568H36.258ZM49.362 38.298C49.3247 38.3913 49.2407 38.4707 49.11 38.536C48.9887 38.592 48.802 38.592 48.55 38.536L49.026 38.41C48.7647 38.718 48.4287 39.04 48.018 39.376C47.6167 39.7027 47.1967 40.0153 46.758 40.314C46.3193 40.6127 45.9133 40.86 45.54 41.056L45.526 40.902H46.324C46.296 41.3407 46.2167 41.7047 46.086 41.994C45.9647 42.274 45.8107 42.456 45.624 42.54L44.854 40.706C44.854 40.706 44.91 40.692 45.022 40.664C45.1433 40.636 45.232 40.6033 45.288 40.566C45.4747 40.4447 45.666 40.272 45.862 40.048C46.058 39.8147 46.2447 39.558 46.422 39.278C46.6087 38.9887 46.772 38.7133 46.912 38.452C47.0613 38.1813 47.1733 37.9433 47.248 37.738L49.362 38.298ZM45.302 40.79C45.638 40.7807 46.1 40.7667 46.688 40.748C47.2853 40.72 47.962 40.6827 48.718 40.636C49.474 40.5893 50.258 40.538 51.07 40.482L51.084 40.664C50.5333 40.8507 49.7913 41.0887 48.858 41.378C47.934 41.6673 46.9027 41.9613 45.764 42.26L45.302 40.79ZM57.496 36.478C57.4867 36.5807 57.4447 36.6693 57.37 36.744C57.2953 36.8093 57.1693 36.8513 56.992 36.87V47.384C56.992 47.748 56.9453 48.0607 56.852 48.322C56.7587 48.5927 56.5627 48.8073 56.264 48.966C55.9747 49.1247 55.522 49.232 54.906 49.288C54.878 49.036 54.8407 48.8167 54.794 48.63C54.7473 48.4433 54.668 48.2847 54.556 48.154C54.444 48.0327 54.29 47.9253 54.094 47.832C53.9073 47.7387 53.6367 47.6687 53.282 47.622V47.426C53.282 47.426 53.3567 47.4307 53.506 47.44C53.6647 47.4493 53.856 47.4633 54.08 47.482C54.304 47.4913 54.514 47.5007 54.71 47.51C54.906 47.5193 55.0413 47.524 55.116 47.524C55.2373 47.524 55.3167 47.5053 55.354 47.468C55.4007 47.4213 55.424 47.3513 55.424 47.258V36.282L57.496 36.478ZM54.696 37.5C54.6867 37.5933 54.6447 37.6773 54.57 37.752C54.4953 37.8173 54.3693 37.864 54.192 37.892V45.704C54.192 45.7507 54.1267 45.8113 53.996 45.886C53.8747 45.9513 53.7207 46.012 53.534 46.068C53.3567 46.1147 53.17 46.138 52.974 46.138H52.694V37.318L54.696 37.5ZM44.518 46.978C44.8447 46.95 45.2787 46.9033 45.82 46.838C46.3613 46.7633 46.9773 46.6793 47.668 46.586C48.3587 46.4927 49.096 46.39 49.88 46.278C50.664 46.1567 51.462 46.0307 52.274 45.9L52.302 46.082C51.6113 46.4087 50.7293 46.782 49.656 47.202C48.592 47.6127 47.2807 48.084 45.722 48.616C45.6287 48.7933 45.4933 48.9053 45.316 48.952L44.518 46.978ZM49.376 38.83C50.048 39.026 50.58 39.264 50.972 39.544C51.364 39.8147 51.6393 40.0993 51.798 40.398C51.966 40.6873 52.0453 40.9627 52.036 41.224C52.0267 41.476 51.952 41.686 51.812 41.854C51.6813 42.022 51.5087 42.1153 51.294 42.134C51.0887 42.1527 50.8647 42.064 50.622 41.868C50.6033 41.5227 50.524 41.1727 50.384 40.818C50.2533 40.454 50.0853 40.1087 49.88 39.782C49.684 39.4553 49.4693 39.1707 49.236 38.928L49.376 38.83ZM49.53 41.938C49.5207 42.0407 49.4833 42.1247 49.418 42.19C49.362 42.246 49.2453 42.288 49.068 42.316V46.852L47.472 47.202V41.77L49.53 41.938ZM50.58 42.694C50.58 42.694 50.6313 42.736 50.734 42.82C50.8367 42.904 50.9627 43.016 51.112 43.156C51.2707 43.2867 51.434 43.4313 51.602 43.59C51.77 43.7393 51.9193 43.8793 52.05 44.01C52.0127 44.1593 51.8867 44.234 51.672 44.234H44.882L44.77 43.842H49.754L50.58 42.694ZM50.818 36.268C50.818 36.268 50.8693 36.3147 50.972 36.408C51.0747 36.492 51.2053 36.5993 51.364 36.73C51.532 36.8607 51.7 37.0007 51.868 37.15C52.036 37.2993 52.1947 37.444 52.344 37.584C52.3067 37.7333 52.176 37.808 51.952 37.808H44.728L44.616 37.416H49.978L50.818 36.268ZM63.81 44.766L63.628 44.36C64.132 44.108 64.5287 43.8373 64.818 43.548C65.1167 43.2493 65.322 42.8387 65.434 42.316L65.602 42.806C64.986 42.582 64.5333 42.3393 64.244 42.078C63.964 41.8167 63.824 41.5227 63.824 41.196C63.824 40.8507 63.9407 40.566 64.174 40.342C64.4073 40.1087 64.7013 39.992 65.056 39.992C65.2707 39.992 65.4573 40.02 65.616 40.076C65.7747 40.1227 65.9333 40.2113 66.092 40.342C66.176 40.5473 66.232 40.7293 66.26 40.888C66.288 41.0373 66.302 41.224 66.302 41.448C66.302 42.3067 66.0733 43.0207 65.616 43.59C65.168 44.15 64.566 44.542 63.81 44.766ZM77.446 36.072C78.0807 36.0347 78.5847 36.0767 78.958 36.198C79.3313 36.31 79.5973 36.464 79.756 36.66C79.924 36.856 80.0033 37.0567 79.994 37.262C79.9847 37.4673 79.91 37.6493 79.77 37.808C79.6393 37.9573 79.462 38.0507 79.238 38.088C79.014 38.116 78.776 38.06 78.524 37.92C78.468 37.696 78.3793 37.4767 78.258 37.262C78.146 37.038 78.006 36.8327 77.838 36.646C77.67 36.45 77.5067 36.2867 77.348 36.156L77.446 36.072ZM80.764 46.53V46.936H77.026V46.53H80.764ZM79.98 44.486L80.68 43.744L82.136 44.836C82.0987 44.8827 82.0333 44.934 81.94 44.99C81.856 45.0367 81.7533 45.074 81.632 45.102V47.202C81.632 47.2393 81.5573 47.2907 81.408 47.356C81.268 47.4213 81.1 47.482 80.904 47.538C80.7173 47.5847 80.54 47.608 80.372 47.608H80.106V44.486H79.98ZM77.908 47.384C77.908 47.4213 77.8427 47.4773 77.712 47.552C77.5813 47.6267 77.418 47.692 77.222 47.748C77.026 47.804 76.8253 47.832 76.62 47.832H76.41V44.486V43.87L77.964 44.486H80.932V44.878H77.908V47.384ZM81.562 41.42V41.812H76.27V41.42H81.562ZM80.848 39.376L81.59 38.55L83.2 39.754C83.1627 39.8007 83.0927 39.8567 82.99 39.922C82.8967 39.978 82.78 40.02 82.64 40.048V42.106C82.64 42.134 82.5607 42.176 82.402 42.232C82.2433 42.288 82.0567 42.3393 81.842 42.386C81.6367 42.4327 81.4453 42.456 81.268 42.456H80.988V39.376H80.848ZM77.124 42.12C77.124 42.1573 77.054 42.218 76.914 42.302C76.774 42.3767 76.5967 42.4467 76.382 42.512C76.1673 42.5773 75.948 42.61 75.724 42.61H75.5V39.376V38.704L77.194 39.376H81.59V39.768H77.124V42.12ZM74.982 48.714C74.982 48.7607 74.912 48.826 74.772 48.91C74.6413 49.0033 74.4687 49.0827 74.254 49.148C74.0487 49.2133 73.834 49.246 73.61 49.246H73.358V42.988V42.288L75.108 42.988H83.62V43.38H74.982V48.714ZM83.032 42.988L83.76 42.148L85.384 43.366C85.3467 43.422 85.2767 43.478 85.174 43.534C85.0807 43.59 84.964 43.6273 84.824 43.646V47.468C84.824 47.8133 84.7773 48.1073 84.684 48.35C84.5907 48.602 84.3947 48.8027 84.096 48.952C83.8067 49.1013 83.3587 49.204 82.752 49.26C82.7333 49.0173 82.7053 48.8027 82.668 48.616C82.6307 48.4387 82.5607 48.294 82.458 48.182C82.3647 48.07 82.234 47.972 82.066 47.888C81.9073 47.7947 81.6647 47.7247 81.338 47.678V47.496C81.338 47.496 81.3987 47.5007 81.52 47.51C81.6507 47.5193 81.8093 47.5287 81.996 47.538C82.1827 47.538 82.36 47.5427 82.528 47.552C82.696 47.5613 82.8173 47.566 82.892 47.566C83.004 47.566 83.0787 47.5427 83.116 47.496C83.1533 47.4493 83.172 47.384 83.172 47.3V42.988H83.032ZM83.746 36.674C83.746 36.674 83.802 36.7207 83.914 36.814C84.0353 36.898 84.1893 37.01 84.376 37.15C84.5627 37.29 84.7587 37.4393 84.964 37.598C85.1693 37.7567 85.356 37.9107 85.524 38.06C85.4867 38.2093 85.356 38.284 85.132 38.284H72.7L72.574 37.878H82.766L83.746 36.674ZM96.332 44.962C97.0227 45.0833 97.5733 45.2607 97.984 45.494C98.404 45.718 98.712 45.9653 98.908 46.236C99.1133 46.4973 99.2253 46.754 99.244 47.006C99.2627 47.2487 99.216 47.4587 99.104 47.636C99.0013 47.804 98.852 47.9067 98.656 47.944C98.4693 47.972 98.2593 47.8973 98.026 47.72C97.9047 47.4587 97.7553 47.174 97.578 46.866C97.4007 46.558 97.2 46.2453 96.976 45.928C96.752 45.6107 96.5047 45.3307 96.234 45.088L96.332 44.962ZM95.282 36.52C95.2633 36.6133 95.2027 36.6973 95.1 36.772C95.0067 36.8467 94.848 36.8793 94.624 36.87L94.806 36.59C94.7313 36.7953 94.6333 37.0567 94.512 37.374C94.3907 37.6913 94.26 38.0227 94.12 38.368C93.98 38.7133 93.84 39.0447 93.7 39.362C93.5693 39.6793 93.4527 39.95 93.35 40.174H93.462L92.874 40.818L91.488 39.824C91.6 39.74 91.7447 39.6607 91.922 39.586C92.1087 39.502 92.2767 39.446 92.426 39.418L91.894 39.908C92.006 39.684 92.132 39.4087 92.272 39.082C92.412 38.746 92.552 38.396 92.692 38.032C92.832 37.668 92.958 37.3227 93.07 36.996C93.1913 36.6693 93.2847 36.3987 93.35 36.184L95.282 36.52ZM99.412 43.156C99.3747 43.212 99.3187 43.2493 99.244 43.268C99.1693 43.2773 99.0573 43.2633 98.908 43.226C98.712 43.3567 98.4647 43.506 98.166 43.674C97.8767 43.8327 97.5733 43.9913 97.256 44.15C96.9387 44.3087 96.6587 44.4533 96.416 44.584L96.304 44.458C96.4627 44.2247 96.6307 43.954 96.808 43.646C96.9947 43.338 97.172 43.0347 97.34 42.736C97.5173 42.428 97.662 42.1713 97.774 41.966L99.412 43.156ZM91.572 42.274C92.1507 42.3393 92.6127 42.456 92.958 42.624C93.3033 42.7827 93.5507 42.9693 93.7 43.184C93.8587 43.3893 93.938 43.5947 93.938 43.8C93.9473 43.996 93.896 44.164 93.784 44.304C93.672 44.4347 93.5227 44.514 93.336 44.542C93.1493 44.57 92.9487 44.514 92.734 44.374C92.678 44.1407 92.5847 43.9027 92.454 43.66C92.3233 43.408 92.1693 43.17 91.992 42.946C91.8147 42.722 91.6327 42.5307 91.446 42.372L91.572 42.274ZM90.788 46.46C90.984 46.376 91.25 46.264 91.586 46.124C91.922 45.9747 92.3 45.802 92.72 45.606C93.1493 45.4007 93.5833 45.1953 94.022 44.99L94.078 45.116C93.882 45.3867 93.6253 45.732 93.308 46.152C92.9907 46.5627 92.608 47.034 92.16 47.566C92.1413 47.7807 92.0573 47.9253 91.908 48L90.788 46.46ZM95.996 47.496C95.996 47.8227 95.954 48.1073 95.87 48.35C95.786 48.602 95.6133 48.8027 95.352 48.952C95.0907 49.1107 94.6893 49.2133 94.148 49.26C94.1387 49.036 94.1153 48.84 94.078 48.672C94.05 48.504 93.9987 48.3733 93.924 48.28C93.8493 48.168 93.7373 48.0747 93.588 48C93.4387 47.9253 93.224 47.8647 92.944 47.818V47.622C92.944 47.622 92.9953 47.6267 93.098 47.636C93.21 47.6453 93.3407 47.6547 93.49 47.664C93.6393 47.6733 93.784 47.6827 93.924 47.692C94.064 47.7013 94.1667 47.706 94.232 47.706C94.3347 47.706 94.4 47.6827 94.428 47.636C94.4653 47.5893 94.484 47.5287 94.484 47.454V41.392H95.996V47.496ZM96.444 37.598L97.102 36.884L98.502 38.046C98.4087 38.1393 98.2313 38.2 97.97 38.228L96.864 41.518H95.254L96.598 37.598H96.444ZM96.794 39.768V40.174H93.182L93.266 39.768H96.794ZM97.2 37.598V38.004H93.672L93.756 37.598H97.2ZM98.194 40.202C98.194 40.202 98.2407 40.244 98.334 40.328C98.4273 40.412 98.544 40.5193 98.684 40.65C98.8333 40.7807 98.9873 40.9207 99.146 41.07C99.3047 41.2193 99.4447 41.3593 99.566 41.49C99.5287 41.6393 99.4073 41.714 99.202 41.714H91.264L91.152 41.322H97.438L98.194 40.202ZM91.838 39.404C91.7913 39.4787 91.6933 39.53 91.544 39.558C91.404 39.586 91.2267 39.544 91.012 39.432L91.418 39.362C91.222 39.6793 90.9607 40.0387 90.634 40.44C90.3167 40.832 89.962 41.238 89.57 41.658C89.178 42.0687 88.772 42.4653 88.352 42.848C87.9413 43.2213 87.5447 43.548 87.162 43.828L87.148 43.66H87.834C87.7873 44.08 87.6893 44.4067 87.54 44.64C87.4 44.8733 87.2413 45.0227 87.064 45.088L86.518 43.436C86.518 43.436 86.5787 43.422 86.7 43.394C86.8307 43.3567 86.9287 43.31 86.994 43.254C87.274 43.0113 87.568 42.6847 87.876 42.274C88.1933 41.8633 88.5013 41.42 88.8 40.944C89.0987 40.4587 89.3693 39.9827 89.612 39.516C89.8547 39.0493 90.0413 38.634 90.172 38.27L91.838 39.404ZM90.522 37.038C90.4847 37.1313 90.4007 37.2013 90.27 37.248C90.1393 37.2853 89.9573 37.262 89.724 37.178L90.158 37.094C89.9433 37.43 89.668 37.8127 89.332 38.242C88.996 38.662 88.6413 39.068 88.268 39.46C87.8947 39.852 87.5353 40.1787 87.19 40.44L87.176 40.272H87.904C87.8667 40.6733 87.7873 40.9953 87.666 41.238C87.554 41.4807 87.414 41.6347 87.246 41.7L86.56 40.062C86.56 40.062 86.6113 40.048 86.714 40.02C86.826 39.992 86.91 39.9547 86.966 39.908C87.1247 39.74 87.288 39.502 87.456 39.194C87.6333 38.8767 87.8013 38.536 87.96 38.172C88.128 37.7987 88.2727 37.4347 88.394 37.08C88.5153 36.7253 88.604 36.4127 88.66 36.142L90.522 37.038ZM87.89 45.228C88.1327 45.9747 88.226 46.6187 88.17 47.16C88.114 47.7013 87.9693 48.112 87.736 48.392C87.6427 48.5133 87.5073 48.5973 87.33 48.644C87.1527 48.6907 86.98 48.686 86.812 48.63C86.6533 48.5833 86.532 48.4853 86.448 48.336C86.3453 48.1307 86.3313 47.93 86.406 47.734C86.49 47.538 86.6253 47.3747 86.812 47.244C86.9427 47.1227 87.0733 46.9547 87.204 46.74C87.344 46.516 87.4607 46.2733 87.554 46.012C87.6473 45.7413 87.6893 45.48 87.68 45.228H87.89ZM89.654 44.78C90.186 44.9947 90.5827 45.2327 90.844 45.494C91.1053 45.746 91.2593 45.998 91.306 46.25C91.3527 46.502 91.3293 46.7167 91.236 46.894C91.152 47.062 91.0213 47.1647 90.844 47.202C90.6667 47.23 90.48 47.16 90.284 46.992C90.2747 46.6373 90.186 46.264 90.018 45.872C89.85 45.4707 89.6727 45.1347 89.486 44.864L89.654 44.78ZM88.674 45.046C89.1033 45.4287 89.4067 45.8067 89.584 46.18C89.7613 46.544 89.8453 46.8753 89.836 47.174C89.836 47.4727 89.7707 47.7153 89.64 47.902C89.5187 48.0793 89.3647 48.1727 89.178 48.182C89.0007 48.2007 88.828 48.1027 88.66 47.888C88.7253 47.4307 88.7347 46.95 88.688 46.446C88.6413 45.942 88.5713 45.494 88.478 45.102L88.674 45.046ZM89.808 41.826C90.3027 42.0687 90.6807 42.3253 90.942 42.596C91.2033 42.8667 91.376 43.1327 91.46 43.394C91.5533 43.646 91.5767 43.8747 91.53 44.08C91.4833 44.2853 91.39 44.444 91.25 44.556C91.11 44.668 90.9467 44.7193 90.76 44.71C90.5827 44.6913 90.4053 44.5933 90.228 44.416C90.2373 44.136 90.214 43.8467 90.158 43.548C90.102 43.2493 90.0273 42.9553 89.934 42.666C89.8407 42.3767 89.7473 42.1153 89.654 41.882L89.808 41.826ZM86.812 43.464C87.0547 43.4547 87.3907 43.4407 87.82 43.422C88.2587 43.4033 88.7487 43.3753 89.29 43.338C89.8313 43.3007 90.3867 43.2633 90.956 43.226L90.97 43.408C90.7273 43.52 90.4147 43.6553 90.032 43.814C89.6493 43.9727 89.22 44.1453 88.744 44.332C88.2773 44.5093 87.7827 44.6867 87.26 44.864L86.812 43.464ZM86.742 40.118C86.9567 40.1273 87.2413 40.1367 87.596 40.146C87.96 40.146 88.3613 40.146 88.8 40.146C89.248 40.1367 89.696 40.1273 90.144 40.118L90.158 40.3C89.8873 40.4307 89.4907 40.608 88.968 40.832C88.4547 41.056 87.8947 41.28 87.288 41.504L86.742 40.118ZM109.296 37.01V40.006H107.784V37.01H109.296ZM106.174 37.01V40.006H104.69V37.01H106.174ZM110.696 38.298L111.396 37.542L112.894 38.648C112.857 38.6947 112.791 38.746 112.698 38.802C112.614 38.8487 112.507 38.886 112.376 38.914V40.37C112.376 40.398 112.301 40.44 112.152 40.496C112.003 40.5427 111.83 40.5893 111.634 40.636C111.447 40.6827 111.27 40.706 111.102 40.706H110.836V38.298H110.696ZM103.22 40.454C103.22 40.5007 103.15 40.5613 103.01 40.636C102.879 40.7013 102.711 40.7667 102.506 40.832C102.31 40.888 102.109 40.916 101.904 40.916H101.694V38.298V37.64L103.346 38.298H111.788V38.69H103.22V40.454ZM111.746 39.852V40.258H102.45V39.852H111.746ZM111.942 35.96C111.942 35.96 112.026 36.0253 112.194 36.156C112.371 36.2867 112.577 36.4453 112.81 36.632C113.053 36.8187 113.272 36.996 113.468 37.164C113.431 37.3133 113.305 37.388 113.09 37.388H100.672L100.56 36.982H111.102L111.942 35.96ZM104.326 44.346C104.279 44.486 104.135 44.5747 103.892 44.612V48.868C103.883 48.896 103.813 48.9427 103.682 49.008C103.561 49.0733 103.407 49.134 103.22 49.19C103.033 49.246 102.837 49.274 102.632 49.274H102.338V44.472L102.856 43.8L104.326 44.346ZM105.124 43.072C105.087 43.1373 105.026 43.1887 104.942 43.226C104.867 43.254 104.746 43.2587 104.578 43.24C104.289 43.5947 103.934 43.968 103.514 44.36C103.103 44.7427 102.646 45.1113 102.142 45.466C101.638 45.8207 101.106 46.124 100.546 46.376L100.42 46.222C100.84 45.8487 101.237 45.4193 101.61 44.934C101.993 44.4487 102.333 43.9587 102.632 43.464C102.931 42.9693 103.169 42.5167 103.346 42.106L105.124 43.072ZM105.026 41.07C104.989 41.1353 104.933 41.1867 104.858 41.224C104.783 41.252 104.667 41.252 104.508 41.224C104.237 41.5133 103.911 41.812 103.528 42.12C103.145 42.4187 102.725 42.7033 102.268 42.974C101.811 43.2353 101.335 43.4593 100.84 43.646L100.714 43.478C101.087 43.1793 101.442 42.8387 101.778 42.456C102.123 42.064 102.427 41.6673 102.688 41.266C102.959 40.8553 103.169 40.4773 103.318 40.132L105.026 41.07ZM107.952 40.65C107.933 40.7247 107.887 40.7807 107.812 40.818C107.747 40.8553 107.625 40.8693 107.448 40.86C107.233 41.2333 106.981 41.616 106.692 42.008C106.403 42.4 106.081 42.7733 105.726 43.128C105.381 43.4733 105.012 43.772 104.62 44.024L104.466 43.912C104.681 43.6133 104.877 43.254 105.054 42.834C105.241 42.414 105.409 41.98 105.558 41.532C105.707 41.0747 105.819 40.6453 105.894 40.244L107.952 40.65ZM111.788 40.384C111.788 40.384 111.863 40.4447 112.012 40.566C112.161 40.678 112.339 40.8133 112.544 40.972C112.749 41.1307 112.941 41.294 113.118 41.462C113.081 41.6113 112.955 41.686 112.74 41.686H106.02L106.258 41.28H111.046L111.788 40.384ZM105.292 45.522C105.647 45.998 106.099 46.3807 106.65 46.67C107.21 46.9593 107.845 47.1833 108.554 47.342C109.273 47.4913 110.047 47.5893 110.878 47.636C111.718 47.6827 112.6 47.6967 113.524 47.678V47.846C113.244 47.9393 113.02 48.1027 112.852 48.336C112.684 48.5787 112.577 48.8727 112.53 49.218C111.326 49.106 110.248 48.9333 109.296 48.7C108.344 48.4667 107.518 48.112 106.818 47.636C106.127 47.1507 105.558 46.4927 105.11 45.662L105.292 45.522ZM109.954 45.83L110.85 45.046L112.208 46.278C112.124 46.39 111.933 46.4507 111.634 46.46C111.111 47.0667 110.458 47.5613 109.674 47.944C108.899 48.3267 108.031 48.6113 107.07 48.798C106.109 48.994 105.077 49.12 103.976 49.176L103.92 48.966C104.853 48.798 105.726 48.5787 106.538 48.308C107.35 48.0373 108.064 47.6967 108.68 47.286C109.296 46.8753 109.777 46.39 110.122 45.83H109.954ZM108.4 45.564C108.008 45.9933 107.485 46.418 106.832 46.838C106.179 47.258 105.455 47.5753 104.662 47.79L104.55 47.65C104.914 47.398 105.25 47.1133 105.558 46.796C105.875 46.4787 106.151 46.1473 106.384 45.802C106.627 45.4567 106.818 45.13 106.958 44.822L109.044 45.284C109.016 45.368 108.955 45.4333 108.862 45.48C108.769 45.5267 108.615 45.5547 108.4 45.564ZM110.598 45.83V46.236H106.51L106.888 45.83H110.598ZM110.486 42.344L111.172 41.63L112.6 42.694C112.563 42.7313 112.507 42.7733 112.432 42.82C112.357 42.8667 112.259 42.904 112.138 42.932V44.878C112.138 44.9153 112.068 44.9667 111.928 45.032C111.788 45.0973 111.62 45.158 111.424 45.214C111.237 45.27 111.055 45.298 110.878 45.298H110.612V42.344H110.486ZM107.28 44.92C107.28 44.9573 107.215 45.0133 107.084 45.088C106.963 45.1627 106.804 45.228 106.608 45.284C106.412 45.34 106.211 45.368 106.006 45.368H105.796V42.344V42.008L106.062 41.84L107.35 42.344H111.242V42.75H107.28V44.92ZM111.172 43.436V43.842H106.412V43.436H111.172ZM111.046 44.556V44.962H106.3V44.556H111.046ZM125.956 39.124C125.956 39.124 126.026 39.194 126.166 39.334C126.315 39.4647 126.483 39.628 126.67 39.824C126.866 40.0107 127.039 40.188 127.188 40.356C127.169 40.4307 127.127 40.4867 127.062 40.524C126.997 40.5613 126.917 40.58 126.824 40.58H117.444L117.332 40.188H125.256L125.956 39.124ZM124.43 44.178L125.102 43.408L126.642 44.542C126.605 44.598 126.535 44.654 126.432 44.71C126.329 44.766 126.208 44.808 126.068 44.836V46.698C126.068 47.006 126.026 47.2767 125.942 47.51C125.867 47.7433 125.704 47.93 125.452 48.07C125.209 48.21 124.827 48.308 124.304 48.364C124.295 48.14 124.276 47.944 124.248 47.776C124.22 47.608 124.169 47.468 124.094 47.356C124.019 47.2533 123.921 47.1647 123.8 47.09C123.688 47.006 123.511 46.9453 123.268 46.908V46.712C123.268 46.712 123.31 46.7167 123.394 46.726C123.478 46.7353 123.581 46.7447 123.702 46.754C123.823 46.754 123.94 46.7587 124.052 46.768C124.173 46.768 124.267 46.768 124.332 46.768C124.425 46.768 124.486 46.7493 124.514 46.712C124.551 46.6747 124.57 46.614 124.57 46.53V44.178H124.43ZM123.17 43.1C123.161 43.1747 123.128 43.2447 123.072 43.31C123.025 43.366 122.927 43.4033 122.778 43.422V48.854C122.778 48.8913 122.713 48.938 122.582 48.994C122.451 49.0593 122.288 49.12 122.092 49.176C121.896 49.232 121.695 49.26 121.49 49.26H121.196V42.918L123.17 43.1ZM119.39 47.762C119.39 47.8087 119.325 47.8693 119.194 47.944C119.063 48.0187 118.895 48.084 118.69 48.14C118.494 48.196 118.293 48.224 118.088 48.224H117.878V44.178V43.534L119.474 44.178H125.326V44.57H119.39V47.762ZM123.842 42.036V42.442H119.866V42.036H123.842ZM125.144 38.746C125.135 38.83 125.097 38.9047 125.032 38.97C124.967 39.0353 124.845 39.0773 124.668 39.096V42.638C124.668 42.6753 124.607 42.722 124.486 42.778C124.365 42.834 124.211 42.8853 124.024 42.932C123.837 42.9693 123.651 42.988 123.464 42.988H123.198V38.564L125.144 38.746ZM121.098 38.746C121.089 38.83 121.051 38.9047 120.986 38.97C120.921 39.0353 120.799 39.0773 120.622 39.096V42.778C120.622 42.8153 120.561 42.862 120.44 42.918C120.319 42.974 120.165 43.0253 119.978 43.072C119.791 43.1187 119.605 43.142 119.418 43.142H119.152V38.564L121.098 38.746ZM120.314 36.072C120.902 36.044 121.369 36.0907 121.714 36.212C122.069 36.324 122.321 36.4733 122.47 36.66C122.629 36.8373 122.703 37.024 122.694 37.22C122.685 37.416 122.619 37.584 122.498 37.724C122.377 37.864 122.209 37.9527 121.994 37.99C121.789 38.0273 121.565 37.9807 121.322 37.85C121.247 37.542 121.098 37.234 120.874 36.926C120.65 36.6087 120.426 36.352 120.202 36.156L120.314 36.072ZM115.694 37.822V37.318L117.486 37.962H117.234V41.714C117.234 42.3113 117.211 42.9413 117.164 43.604C117.117 44.2667 117.005 44.934 116.828 45.606C116.66 46.278 116.389 46.9267 116.016 47.552C115.652 48.168 115.148 48.728 114.504 49.232L114.35 49.106C114.77 48.3873 115.073 47.622 115.26 46.81C115.456 45.9887 115.577 45.144 115.624 44.276C115.671 43.408 115.694 42.5587 115.694 41.728V37.962V37.822ZM126.04 36.828C126.04 36.828 126.091 36.87 126.194 36.954C126.297 37.038 126.427 37.15 126.586 37.29C126.745 37.4207 126.908 37.5607 127.076 37.71C127.253 37.8593 127.417 38.004 127.566 38.144C127.529 38.2933 127.398 38.368 127.174 38.368H116.562V37.962H125.186L126.04 36.828Z" fill="white"/>
<path d="M182.752 10.8C183.216 10.832 183.588 10.904 183.868 11.016C184.148 11.128 184.356 11.26 184.492 11.412C184.628 11.564 184.704 11.716 184.72 11.868C184.736 12.012 184.708 12.14 184.636 12.252C184.564 12.364 184.46 12.436 184.324 12.468C184.188 12.492 184.04 12.456 183.88 12.36C183.824 12.184 183.732 12.004 183.604 11.82C183.476 11.636 183.324 11.464 183.148 11.304C182.98 11.136 182.816 11 182.656 10.896L182.752 10.8ZM185.704 19.788V20.136H182.248V19.788H185.704ZM185.164 18.012L185.632 17.52L186.64 18.276C186.608 18.324 186.548 18.368 186.46 18.408C186.38 18.448 186.288 18.476 186.184 18.492V20.424C186.184 20.448 186.14 20.484 186.052 20.532C185.964 20.58 185.86 20.624 185.74 20.664C185.628 20.696 185.52 20.712 185.416 20.712H185.272V18.012H185.164ZM182.752 20.592C182.752 20.616 182.712 20.652 182.632 20.7C182.56 20.74 182.464 20.78 182.344 20.82C182.232 20.852 182.112 20.868 181.984 20.868H181.852V18.012V17.604L182.812 18.012H185.824V18.372H182.752V20.592ZM186.436 15.384V15.744H181.6V15.384H186.436ZM185.86 13.632L186.352 13.092L187.456 13.92C187.416 13.968 187.348 14.016 187.252 14.064C187.164 14.104 187.064 14.136 186.952 14.16V15.972C186.952 15.996 186.904 16.028 186.808 16.068C186.712 16.108 186.604 16.144 186.484 16.176C186.364 16.208 186.248 16.224 186.136 16.224H185.98V13.632H185.86ZM182.116 16.032C182.116 16.056 182.076 16.092 181.996 16.14C181.916 16.188 181.812 16.232 181.684 16.272C181.564 16.304 181.44 16.32 181.312 16.32H181.168V13.632V13.2L182.176 13.632H186.436V13.992H182.116V16.032ZM180.352 21.648C180.352 21.68 180.312 21.72 180.232 21.768C180.16 21.824 180.064 21.872 179.944 21.912C179.824 21.952 179.696 21.972 179.56 21.972H179.404V16.728V16.272L180.448 16.728H188.188V17.076H180.352V21.648ZM187.72 16.728L188.188 16.176L189.304 17.016C189.272 17.056 189.208 17.1 189.112 17.148C189.024 17.196 188.92 17.228 188.8 17.244V20.772C188.8 21.004 188.768 21.204 188.704 21.372C188.648 21.54 188.52 21.676 188.32 21.78C188.128 21.884 187.828 21.956 187.42 21.996C187.404 21.852 187.376 21.724 187.336 21.612C187.304 21.5 187.248 21.408 187.168 21.336C187.08 21.264 186.96 21.2 186.808 21.144C186.664 21.088 186.456 21.044 186.184 21.012V20.844C186.184 20.844 186.24 20.848 186.352 20.856C186.472 20.864 186.616 20.872 186.784 20.88C186.952 20.88 187.108 20.884 187.252 20.892C187.404 20.9 187.512 20.904 187.576 20.904C187.68 20.904 187.748 20.888 187.78 20.856C187.82 20.816 187.84 20.756 187.84 20.676V16.728H187.72ZM188.212 11.52C188.212 11.52 188.252 11.552 188.332 11.616C188.42 11.68 188.528 11.764 188.656 11.868C188.792 11.964 188.932 12.072 189.076 12.192C189.22 12.304 189.348 12.412 189.46 12.516C189.428 12.644 189.32 12.708 189.136 12.708H178.72L178.612 12.36H187.54L188.212 11.52ZM194.92 15C194.888 15.088 194.816 15.164 194.704 15.228C194.592 15.284 194.436 15.288 194.236 15.24L194.536 15.108C194.424 15.492 194.28 15.916 194.104 16.38C193.936 16.836 193.748 17.308 193.54 17.796C193.34 18.276 193.128 18.74 192.904 19.188C192.68 19.628 192.46 20.024 192.244 20.376L192.196 20.22H192.772C192.74 20.508 192.68 20.744 192.592 20.928C192.504 21.104 192.396 21.216 192.268 21.264L191.74 20.076C191.74 20.076 191.784 20.06 191.872 20.028C191.968 19.996 192.036 19.96 192.076 19.92C192.22 19.632 192.368 19.264 192.52 18.816C192.68 18.368 192.832 17.892 192.976 17.388C193.12 16.884 193.244 16.396 193.348 15.924C193.46 15.452 193.544 15.036 193.6 14.676L194.92 15ZM198.208 10.824C198.608 10.992 198.916 11.176 199.132 11.376C199.356 11.576 199.512 11.776 199.6 11.976C199.688 12.168 199.72 12.348 199.696 12.516C199.68 12.676 199.624 12.808 199.528 12.912C199.432 13.008 199.316 13.056 199.18 13.056C199.052 13.056 198.92 12.992 198.784 12.864C198.792 12.64 198.76 12.412 198.688 12.18C198.624 11.94 198.536 11.708 198.424 11.484C198.312 11.26 198.192 11.064 198.064 10.896L198.208 10.824ZM198.16 11.304C198.136 11.368 198.092 11.42 198.028 11.46C197.964 11.5 197.856 11.52 197.704 11.52C197.552 12.016 197.352 12.572 197.104 13.188C196.864 13.804 196.572 14.416 196.228 15.024C195.892 15.632 195.504 16.18 195.064 16.668L194.908 16.548C195.148 16.14 195.364 15.692 195.556 15.204C195.748 14.716 195.92 14.22 196.072 13.716C196.224 13.204 196.352 12.708 196.456 12.228C196.568 11.74 196.656 11.296 196.72 10.896L198.16 11.304ZM197.08 21.684C197.08 21.716 197.012 21.772 196.876 21.852C196.74 21.932 196.56 21.972 196.336 21.972H196.18V13.836L196.588 13.056L197.236 13.32H197.08V21.684ZM199.24 13.32V20.916H198.352V13.32H199.24ZM200.608 19.956C200.608 19.956 200.64 19.988 200.704 20.052C200.776 20.108 200.868 20.18 200.98 20.268C201.092 20.356 201.208 20.456 201.328 20.568C201.448 20.672 201.556 20.772 201.652 20.868C201.628 20.996 201.524 21.06 201.34 21.06H196.684V20.712H200.032L200.608 19.956ZM200.38 17.412C200.38 17.412 200.436 17.46 200.548 17.556C200.66 17.644 200.788 17.756 200.932 17.892C201.084 18.02 201.224 18.144 201.352 18.264C201.32 18.392 201.216 18.456 201.04 18.456H196.732V18.108H199.864L200.38 17.412ZM200.308 14.988C200.308 14.988 200.364 15.036 200.476 15.132C200.588 15.22 200.72 15.332 200.872 15.468C201.024 15.596 201.16 15.72 201.28 15.84C201.248 15.968 201.144 16.032 200.968 16.032H196.66V15.684H199.792L200.308 14.988ZM200.464 12.588C200.464 12.588 200.52 12.64 200.632 12.744C200.752 12.84 200.892 12.956 201.052 13.092C201.22 13.22 201.368 13.348 201.496 13.476C201.464 13.604 201.36 13.668 201.184 13.668H196.696V13.32H199.9L200.464 12.588ZM191.92 20.088C192.136 20.056 192.412 20.012 192.748 19.956C193.092 19.9 193.472 19.832 193.888 19.752C194.304 19.664 194.72 19.572 195.136 19.476L195.184 19.644C194.888 19.796 194.48 20 193.96 20.256C193.448 20.504 192.9 20.744 192.316 20.976L191.92 20.088ZM193.924 11.016C193.908 11.104 193.864 11.176 193.792 11.232C193.728 11.28 193.604 11.316 193.42 11.34C193.372 11.908 193.308 12.52 193.228 13.176C193.156 13.824 193.052 14.496 192.916 15.192C192.788 15.88 192.62 16.572 192.412 17.268C192.204 17.956 191.948 18.624 191.644 19.272C191.348 19.912 190.988 20.508 190.564 21.06L190.384 20.964C190.76 20.26 191.076 19.484 191.332 18.636C191.588 17.78 191.792 16.904 191.944 16.008C192.096 15.104 192.208 14.216 192.28 13.344C192.352 12.472 192.392 11.66 192.4 10.908L193.924 11.016ZM194.128 17.712C194.536 18.064 194.856 18.408 195.088 18.744C195.328 19.08 195.496 19.396 195.592 19.692C195.696 19.988 195.744 20.248 195.736 20.472C195.736 20.696 195.696 20.876 195.616 21.012C195.544 21.148 195.444 21.22 195.316 21.228C195.196 21.236 195.068 21.172 194.932 21.036C194.924 20.692 194.868 20.324 194.764 19.932C194.668 19.54 194.548 19.156 194.404 18.78C194.26 18.404 194.108 18.068 193.948 17.772L194.128 17.712ZM194.932 12.552C194.932 12.552 194.992 12.6 195.112 12.696C195.232 12.792 195.372 12.912 195.532 13.056C195.7 13.192 195.848 13.324 195.976 13.452C195.944 13.58 195.84 13.644 195.664 13.644H190.564L190.468 13.284H194.38L194.932 12.552ZM211.228 16.296C211.348 16.44 211.448 16.568 211.528 16.68C211.608 16.792 211.692 16.848 211.78 16.848C211.884 16.848 211.964 16.816 212.02 16.752C212.084 16.688 212.116 16.6 212.116 16.488C212.116 16.376 212.084 16.264 212.02 16.152C211.964 16.04 211.868 15.92 211.732 15.792C211.572 15.64 211.368 15.5 211.12 15.372C210.88 15.236 210.604 15.108 210.292 14.988L210.136 15.192C210.408 15.392 210.628 15.588 210.796 15.78C210.964 15.972 211.108 16.144 211.228 16.296ZM212.32 15.396C212.448 15.548 212.552 15.68 212.632 15.792C212.712 15.896 212.8 15.948 212.896 15.948C213 15.948 213.076 15.92 213.124 15.864C213.18 15.8 213.208 15.716 213.208 15.612C213.208 15.476 213.172 15.348 213.1 15.228C213.036 15.108 212.928 14.988 212.776 14.868C212.624 14.74 212.424 14.624 212.176 14.52C211.936 14.408 211.66 14.3 211.348 14.196L211.216 14.4C211.496 14.6 211.716 14.78 211.876 14.94C212.036 15.092 212.184 15.244 212.32 15.396ZM202.876 13.44C202.964 13.592 203.076 13.732 203.212 13.86C203.356 13.988 203.496 14.052 203.632 14.052C203.8 14.052 204.048 14.02 204.376 13.956C204.704 13.884 205.088 13.792 205.528 13.68C205.976 13.568 206.448 13.448 206.944 13.32C207.448 13.192 207.952 13.068 208.456 12.948C208.912 12.836 209.324 12.744 209.692 12.672C210.06 12.592 210.376 12.532 210.64 12.492C210.904 12.444 211.1 12.42 211.228 12.42C211.396 12.42 211.56 12.432 211.72 12.456C211.888 12.48 212.028 12.52 212.14 12.576C212.276 12.64 212.38 12.712 212.452 12.792C212.524 12.872 212.56 12.964 212.56 13.068C212.56 13.172 212.516 13.26 212.428 13.332C212.348 13.404 212.232 13.44 212.08 13.44C211.952 13.44 211.8 13.436 211.624 13.428C211.448 13.412 211.252 13.404 211.036 13.404C210.756 13.404 210.432 13.432 210.064 13.488C209.696 13.544 209.36 13.672 209.056 13.872C208.928 13.944 208.768 14.072 208.576 14.256C208.392 14.44 208.208 14.68 208.024 14.976C207.848 15.272 207.7 15.632 207.58 16.056C207.46 16.48 207.4 16.98 207.4 17.556C207.4 18.004 207.452 18.368 207.556 18.648C207.668 18.92 207.8 19.14 207.952 19.308C208.112 19.468 208.268 19.592 208.42 19.68C208.676 19.824 208.948 19.924 209.236 19.98C209.524 20.028 209.796 20.056 210.052 20.064C210.308 20.064 210.508 20.064 210.652 20.064C210.764 20.064 210.876 20.092 210.988 20.148C211.108 20.196 211.208 20.264 211.288 20.352C211.376 20.44 211.42 20.54 211.42 20.652C211.42 20.772 211.376 20.868 211.288 20.94C211.208 21.012 211.096 21.06 210.952 21.084C210.808 21.116 210.644 21.132 210.46 21.132C210.212 21.132 209.932 21.116 209.62 21.084C209.308 21.06 208.992 21.004 208.672 20.916C208.36 20.82 208.072 20.676 207.808 20.484C207.424 20.212 207.124 19.872 206.908 19.464C206.7 19.048 206.596 18.488 206.596 17.784C206.596 17.288 206.66 16.792 206.788 16.296C206.916 15.8 207.12 15.328 207.4 14.88C207.68 14.432 208.048 14.036 208.504 13.692C208.544 13.66 208.56 13.632 208.552 13.608C208.544 13.584 208.504 13.58 208.432 13.596C207.984 13.7 207.512 13.828 207.016 13.98C206.528 14.132 206.076 14.284 205.66 14.436C205.244 14.588 204.912 14.724 204.664 14.844C204.544 14.908 204.42 14.98 204.292 15.06C204.172 15.14 204.044 15.18 203.908 15.18C203.788 15.18 203.66 15.148 203.524 15.084C203.396 15.02 203.268 14.936 203.14 14.832C203.02 14.72 202.916 14.604 202.828 14.484C202.748 14.356 202.696 14.232 202.672 14.112C202.656 14.008 202.652 13.904 202.66 13.8C202.668 13.696 202.672 13.6 202.672 13.512L202.876 13.44ZM221.512 13.704C221.512 13.704 221.556 13.736 221.644 13.8C221.732 13.864 221.836 13.948 221.956 14.052C222.084 14.148 222.196 14.248 222.292 14.352C222.268 14.48 222.172 14.544 222.004 14.544H218.056L217.96 14.196H221.08L221.512 13.704ZM221.512 12.42C221.512 12.42 221.556 12.456 221.644 12.528C221.74 12.592 221.848 12.672 221.968 12.768C222.096 12.864 222.208 12.964 222.304 13.068C222.28 13.196 222.18 13.26 222.004 13.26H218.056L217.96 12.912H221.092L221.512 12.42ZM221.032 16.98C221.192 17.548 221.412 18.048 221.692 18.48C221.98 18.912 222.32 19.288 222.712 19.608C223.104 19.928 223.544 20.2 224.032 20.424C224.528 20.648 225.064 20.832 225.64 20.976L225.616 21.108C225.416 21.14 225.244 21.228 225.1 21.372C224.956 21.516 224.848 21.708 224.776 21.948C224.064 21.66 223.444 21.304 222.916 20.88C222.396 20.456 221.964 19.936 221.62 19.32C221.284 18.696 221.024 17.948 220.84 17.076L221.032 16.98ZM223.372 16.932L223.972 16.356L224.98 17.244C224.948 17.3 224.896 17.34 224.824 17.364C224.752 17.388 224.648 17.4 224.512 17.4C224.288 18.032 223.984 18.632 223.6 19.2C223.216 19.768 222.736 20.28 222.16 20.736C221.584 21.184 220.892 21.56 220.084 21.864L219.976 21.696C220.616 21.344 221.168 20.92 221.632 20.424C222.104 19.928 222.496 19.384 222.808 18.792C223.12 18.2 223.352 17.58 223.504 16.932H223.372ZM214.612 20.16C214.916 20.136 215.328 20.1 215.848 20.052C216.368 19.996 216.956 19.936 217.612 19.872C218.276 19.8 218.96 19.724 219.664 19.644L219.688 19.824C219.208 19.976 218.62 20.152 217.924 20.352C217.228 20.552 216.396 20.78 215.428 21.036C215.404 21.108 215.364 21.164 215.308 21.204C215.252 21.252 215.2 21.284 215.152 21.3L214.612 20.16ZM216.832 15.564V20.292L215.908 20.472V15.564H216.832ZM219.868 21.72C219.868 21.752 219.8 21.804 219.664 21.876C219.528 21.948 219.34 21.984 219.1 21.984H218.944V15.564H219.868V21.72ZM224.092 16.932V17.292H220.216L220.108 16.932H224.092ZM224.308 14.748C224.308 14.748 224.344 14.78 224.416 14.844C224.496 14.908 224.596 14.988 224.716 15.084C224.836 15.18 224.96 15.288 225.088 15.408C225.224 15.52 225.348 15.628 225.46 15.732C225.428 15.86 225.32 15.924 225.136 15.924H214.672L214.564 15.564H223.672L224.308 14.748ZM217.384 14.94C217.384 14.964 217.344 15.004 217.264 15.06C217.184 15.108 217.084 15.152 216.964 15.192C216.844 15.224 216.716 15.24 216.58 15.24H216.436V11.604V11.16L217.468 11.604H223.372V11.952H217.384V14.94ZM222.604 11.604L223.108 11.052L224.2 11.88C224.16 11.928 224.096 11.976 224.008 12.024C223.92 12.064 223.812 12.096 223.684 12.12V14.844C223.684 14.868 223.636 14.9 223.54 14.94C223.452 14.98 223.344 15.02 223.216 15.06C223.096 15.092 222.984 15.108 222.88 15.108H222.724V11.604H222.604ZM219.364 18.432V18.78H216.376V18.432H219.364ZM219.364 16.98V17.34H216.376V16.98H219.364ZM230.452 11.844L230.464 11.604C230.576 11.58 230.688 11.56 230.8 11.544C230.92 11.528 231.048 11.52 231.184 11.52C231.336 11.52 231.492 11.556 231.652 11.628C231.812 11.692 231.96 11.776 232.096 11.88C232.232 11.984 232.34 12.092 232.42 12.204C232.508 12.316 232.552 12.416 232.552 12.504C232.552 12.624 232.516 12.724 232.444 12.804C232.372 12.876 232.3 12.984 232.228 13.128C232.14 13.32 232.044 13.544 231.94 13.8C231.844 14.048 231.728 14.38 231.592 14.796C231.504 15.052 231.404 15.364 231.292 15.732C231.188 16.1 231.084 16.492 230.98 16.908C230.876 17.316 230.788 17.716 230.716 18.108C230.652 18.492 230.62 18.828 230.62 19.116C230.62 19.708 230.792 20.144 231.136 20.424C231.488 20.696 231.94 20.832 232.492 20.832C232.996 20.832 233.42 20.736 233.764 20.544C234.116 20.344 234.38 20.088 234.556 19.776C234.732 19.464 234.82 19.132 234.82 18.78C234.82 18.34 234.74 17.952 234.58 17.616C234.42 17.28 234.2 16.972 233.92 16.692C233.64 16.412 233.316 16.136 232.948 15.864L233.104 15.672C233.736 15.968 234.248 16.292 234.64 16.644C235.04 16.988 235.332 17.364 235.516 17.772C235.7 18.172 235.792 18.596 235.792 19.044C235.792 19.34 235.728 19.64 235.6 19.944C235.472 20.248 235.276 20.528 235.012 20.784C234.756 21.04 234.428 21.244 234.028 21.396C233.636 21.556 233.168 21.636 232.624 21.636C232.056 21.636 231.58 21.528 231.196 21.312C230.82 21.104 230.536 20.816 230.344 20.448C230.152 20.072 230.056 19.64 230.056 19.152C230.056 18.848 230.08 18.496 230.128 18.096C230.184 17.696 230.252 17.284 230.332 16.86C230.412 16.428 230.492 16.024 230.572 15.648C230.66 15.264 230.736 14.944 230.8 14.688C230.896 14.36 230.98 14.056 231.052 13.776C231.132 13.496 231.2 13.248 231.256 13.032C231.312 12.816 231.344 12.648 231.352 12.528C231.36 12.384 231.34 12.28 231.292 12.216C231.244 12.152 231.164 12.092 231.052 12.036C230.964 11.996 230.864 11.96 230.752 11.928C230.648 11.888 230.548 11.86 230.452 11.844ZM228.484 12.984C228.636 13.192 228.796 13.38 228.964 13.548C229.132 13.716 229.34 13.852 229.588 13.956C230.044 14.132 230.48 14.228 230.896 14.244C231.32 14.252 231.708 14.272 232.06 14.304C232.284 14.328 232.444 14.392 232.54 14.496C232.636 14.6 232.684 14.712 232.684 14.832C232.684 14.952 232.64 15.04 232.552 15.096C232.472 15.152 232.352 15.184 232.192 15.192C232.088 15.2 231.948 15.2 231.772 15.192C231.604 15.184 231.432 15.176 231.256 15.168C231.08 15.152 230.928 15.144 230.8 15.144C230.6 15.144 230.388 15.18 230.164 15.252C229.94 15.324 229.728 15.424 229.528 15.552C229.328 15.68 229.164 15.82 229.036 15.972C228.916 16.116 228.856 16.26 228.856 16.404C228.856 16.532 228.904 16.656 229 16.776C229.104 16.888 229.268 16.988 229.492 17.076C229.716 17.164 230.02 17.232 230.404 17.28C230.796 17.328 231.148 17.348 231.46 17.34C231.772 17.324 232.012 17.324 232.18 17.34C232.348 17.348 232.48 17.392 232.576 17.472C232.672 17.544 232.72 17.652 232.72 17.796C232.72 17.924 232.672 18.028 232.576 18.108C232.48 18.188 232.312 18.24 232.072 18.264C231.88 18.28 231.624 18.284 231.304 18.276C230.984 18.26 230.644 18.22 230.284 18.156C229.676 18.036 229.204 17.836 228.868 17.556C228.532 17.268 228.364 16.94 228.364 16.572C228.364 16.348 228.432 16.128 228.568 15.912C228.712 15.688 228.904 15.476 229.144 15.276C229.384 15.076 229.648 14.904 229.936 14.76C229.784 14.712 229.64 14.66 229.504 14.604C229.376 14.548 229.236 14.472 229.084 14.376C228.876 14.232 228.708 14.064 228.58 13.872C228.46 13.672 228.364 13.412 228.292 13.092L228.484 12.984ZM244.624 20.892C244.624 21.108 244.592 21.292 244.528 21.444C244.472 21.604 244.352 21.728 244.168 21.816C243.992 21.912 243.712 21.976 243.328 22.008C243.328 21.896 243.312 21.788 243.28 21.684C243.248 21.588 243.2 21.508 243.136 21.444C243.064 21.388 242.96 21.336 242.824 21.288C242.696 21.248 242.512 21.212 242.272 21.18V21.012C242.272 21.012 242.32 21.016 242.416 21.024C242.52 21.032 242.64 21.036 242.776 21.036C242.92 21.044 243.052 21.052 243.172 21.06C243.3 21.068 243.392 21.072 243.448 21.072C243.544 21.072 243.604 21.056 243.628 21.024C243.66 20.992 243.676 20.944 243.676 20.88V19.092H244.624V20.892ZM247.132 17.172C247.084 17.236 246.996 17.272 246.868 17.28C246.748 17.288 246.6 17.236 246.424 17.124L246.82 17.1C246.484 17.268 246.068 17.452 245.572 17.652C245.076 17.844 244.528 18.04 243.928 18.24C243.328 18.44 242.712 18.632 242.08 18.816C241.456 18.992 240.848 19.144 240.256 19.272L240.244 19.176H240.652C240.628 19.424 240.576 19.62 240.496 19.764C240.424 19.9 240.344 19.988 240.256 20.028L239.728 19.008C239.728 19.008 239.78 19.004 239.884 18.996C239.996 18.988 240.084 18.972 240.148 18.948C240.668 18.828 241.216 18.664 241.792 18.456C242.376 18.248 242.948 18.024 243.508 17.784C244.068 17.536 244.58 17.292 245.044 17.052C245.516 16.804 245.9 16.584 246.196 16.392L247.132 17.172ZM244.528 16.728C244.48 16.768 244.4 16.788 244.288 16.788C244.176 16.788 244.044 16.724 243.892 16.596L244.24 16.584C244.024 16.696 243.732 16.824 243.364 16.968C243.004 17.104 242.612 17.24 242.188 17.376C241.764 17.504 241.348 17.612 240.94 17.7V17.568H241.324C241.3 17.776 241.256 17.94 241.192 18.06C241.128 18.18 241.056 18.26 240.976 18.3L240.52 17.424C240.52 17.424 240.556 17.42 240.628 17.412C240.708 17.396 240.768 17.384 240.808 17.376C241.072 17.304 241.344 17.208 241.624 17.088C241.912 16.968 242.192 16.836 242.464 16.692C242.744 16.54 242.996 16.392 243.22 16.248C243.444 16.104 243.628 15.98 243.772 15.876L244.528 16.728ZM239.98 19.08C240.3 19.072 240.72 19.06 241.24 19.044C241.76 19.02 242.352 18.992 243.016 18.96C243.68 18.928 244.392 18.892 245.152 18.852C245.912 18.804 246.688 18.756 247.48 18.708L247.492 18.936C246.668 19.048 245.636 19.184 244.396 19.344C243.156 19.496 241.78 19.648 240.268 19.8L239.98 19.08ZM240.736 17.532C240.984 17.532 241.316 17.528 241.732 17.52C242.148 17.504 242.616 17.488 243.136 17.472C243.664 17.456 244.204 17.436 244.756 17.412L244.768 17.628C244.36 17.692 243.812 17.772 243.124 17.868C242.436 17.964 241.716 18.052 240.964 18.132L240.736 17.532ZM246.1 17.784C246.604 17.904 247.016 18.052 247.336 18.228C247.656 18.396 247.904 18.572 248.08 18.756C248.256 18.94 248.368 19.112 248.416 19.272C248.464 19.432 248.464 19.568 248.416 19.68C248.376 19.792 248.3 19.868 248.188 19.908C248.076 19.94 247.948 19.92 247.804 19.848C247.7 19.632 247.54 19.404 247.324 19.164C247.116 18.924 246.892 18.692 246.652 18.468C246.412 18.236 246.188 18.044 245.98 17.892L246.1 17.784ZM245.536 19.86C246.208 19.908 246.76 19.996 247.192 20.124C247.632 20.244 247.976 20.388 248.224 20.556C248.48 20.724 248.652 20.892 248.74 21.06C248.836 21.236 248.868 21.388 248.836 21.516C248.812 21.652 248.744 21.748 248.632 21.804C248.52 21.868 248.38 21.872 248.212 21.816C248.076 21.648 247.876 21.456 247.612 21.24C247.348 21.032 247.032 20.824 246.664 20.616C246.304 20.4 245.908 20.208 245.476 20.04L245.536 19.86ZM242.608 20.328C242.576 20.384 242.528 20.424 242.464 20.448C242.408 20.464 242.312 20.46 242.176 20.436C241.928 20.628 241.612 20.816 241.228 21C240.852 21.192 240.444 21.368 240.004 21.528C239.572 21.688 239.144 21.816 238.72 21.912L238.6 21.756C238.96 21.588 239.324 21.392 239.692 21.168C240.068 20.944 240.416 20.708 240.736 20.46C241.056 20.212 241.312 19.98 241.504 19.764L242.608 20.328ZM240.88 12.72H240.556L240.652 12.672C240.628 12.872 240.592 13.104 240.544 13.368C240.496 13.632 240.444 13.908 240.388 14.196C240.332 14.476 240.272 14.748 240.208 15.012C240.152 15.276 240.1 15.508 240.052 15.708H240.16L239.764 16.128L238.888 15.456C238.976 15.4 239.084 15.344 239.212 15.288C239.34 15.232 239.456 15.196 239.56 15.18L239.284 15.6C239.332 15.416 239.384 15.188 239.44 14.916C239.504 14.644 239.564 14.352 239.62 14.04C239.684 13.72 239.736 13.412 239.776 13.116C239.824 12.812 239.86 12.552 239.884 12.336L240.88 12.72ZM241.204 11.208C241.18 11.264 241.136 11.304 241.072 11.328C241.016 11.352 240.916 11.36 240.772 11.352C240.524 11.72 240.208 12.1 239.824 12.492C239.44 12.884 239.036 13.2 238.612 13.44L238.468 13.32C238.668 13.12 238.86 12.88 239.044 12.6C239.228 12.32 239.396 12.028 239.548 11.724C239.708 11.42 239.84 11.132 239.944 10.86L241.204 11.208ZM240.808 14.484C241.048 14.468 241.272 14.48 241.48 14.52C241.696 14.552 241.868 14.628 241.996 14.748C242.076 14.82 242.116 14.9 242.116 14.988C242.116 15.076 242.092 15.156 242.044 15.228C241.996 15.292 241.928 15.328 241.84 15.336C241.76 15.344 241.668 15.308 241.564 15.228C241.492 15.124 241.384 15.012 241.24 14.892C241.096 14.772 240.94 14.688 240.772 14.64L240.808 14.484ZM240.94 13.248C241.164 13.216 241.38 13.216 241.588 13.248C241.796 13.272 241.972 13.336 242.116 13.44C242.196 13.504 242.24 13.58 242.248 13.668C242.264 13.756 242.252 13.836 242.212 13.908C242.172 13.972 242.108 14.012 242.02 14.028C241.94 14.044 241.844 14.016 241.732 13.944C241.644 13.84 241.524 13.736 241.372 13.632C241.22 13.528 241.064 13.456 240.904 13.416L240.94 13.248ZM248.44 11.7C248.44 11.7 248.472 11.728 248.536 11.784C248.608 11.832 248.696 11.9 248.8 11.988C248.904 12.076 249.012 12.172 249.124 12.276C249.244 12.38 249.356 12.48 249.46 12.576C249.428 12.704 249.324 12.768 249.148 12.768H245.248V12.408H247.876L248.44 11.7ZM243.916 14.868C243.916 14.868 243.952 14.904 244.024 14.976C244.104 15.048 244.196 15.132 244.3 15.228C244.412 15.324 244.508 15.42 244.588 15.516C244.564 15.644 244.468 15.708 244.3 15.708H239.836V15.36H243.544L243.916 14.868ZM243.448 11.16C243.448 11.16 243.5 11.204 243.604 11.292C243.716 11.372 243.844 11.472 243.988 11.592C244.14 11.712 244.276 11.832 244.396 11.952C244.364 12.08 244.26 12.144 244.084 12.144H239.86V11.796H242.944L243.448 11.16ZM246.736 11.292C246.712 11.364 246.664 11.424 246.592 11.472C246.52 11.512 246.42 11.532 246.292 11.532C246.076 12.044 245.808 12.516 245.488 12.948C245.176 13.38 244.84 13.736 244.48 14.016L244.312 13.896C244.552 13.536 244.776 13.096 244.984 12.576C245.192 12.048 245.356 11.496 245.476 10.92L246.736 11.292ZM244.036 13.452C244.036 13.452 244.076 13.492 244.156 13.572C244.236 13.644 244.328 13.736 244.432 13.848C244.536 13.952 244.628 14.056 244.708 14.16C244.684 14.288 244.588 14.352 244.42 14.352H238.648L238.552 13.992H243.676L244.036 13.452ZM243.352 12.72V13.08H240.268V12.72H243.352ZM245.284 12.612C245.508 13.18 245.8 13.684 246.16 14.124C246.528 14.556 246.988 14.92 247.54 15.216C248.092 15.504 248.76 15.724 249.544 15.876L249.52 16.008C249.352 16.056 249.216 16.144 249.112 16.272C249.008 16.392 248.936 16.556 248.896 16.764C248.168 16.532 247.564 16.232 247.084 15.864C246.604 15.496 246.212 15.06 245.908 14.556C245.604 14.052 245.344 13.484 245.128 12.852L245.284 12.612ZM248.536 12.456C248.296 13.472 247.84 14.304 247.168 14.952C246.504 15.592 245.608 16.092 244.48 16.452L244.396 16.272C245.324 15.84 246.036 15.312 246.532 14.688C247.028 14.056 247.352 13.312 247.504 12.456H248.536ZM242.74 12.72L243.148 12.276L244 12.984C243.92 13.072 243.768 13.128 243.544 13.152C243.512 13.856 243.464 14.432 243.4 14.88C243.336 15.328 243.256 15.68 243.16 15.936C243.064 16.184 242.948 16.36 242.812 16.464C242.676 16.576 242.52 16.648 242.344 16.68C242.176 16.704 242 16.712 241.816 16.704C241.816 16.624 241.804 16.56 241.78 16.512C241.764 16.456 241.728 16.404 241.672 16.356C241.616 16.316 241.532 16.28 241.42 16.248C241.316 16.216 241.2 16.192 241.072 16.176V15.972C241.216 15.98 241.38 15.992 241.564 16.008C241.748 16.016 241.892 16.02 241.996 16.02C242.148 16.02 242.26 15.988 242.332 15.924C242.452 15.812 242.56 15.504 242.656 15C242.752 14.496 242.82 13.736 242.86 12.72H242.74ZM259.144 11.028C259.136 11.1 259.104 11.16 259.048 11.208C259 11.248 258.912 11.276 258.784 11.292V13.392C258.784 13.424 258.744 13.46 258.664 13.5C258.584 13.54 258.484 13.576 258.364 13.608C258.244 13.64 258.12 13.656 257.992 13.656H257.812V10.896L259.144 11.028ZM254.164 11.052C254.156 11.116 254.124 11.172 254.068 11.22C254.02 11.268 253.932 11.3 253.804 11.316V13.416C253.804 13.44 253.764 13.476 253.684 13.524C253.604 13.564 253.5 13.6 253.372 13.632C253.252 13.664 253.132 13.68 253.012 13.68H252.82V10.92L254.164 11.052ZM260.572 11.448C260.572 11.448 260.628 11.496 260.74 11.592C260.852 11.688 260.984 11.804 261.136 11.94C261.296 12.076 261.444 12.208 261.58 12.336C261.548 12.464 261.44 12.528 261.256 12.528H256.372L256.276 12.18H260.02L260.572 11.448ZM254.98 11.448C254.98 11.448 255.036 11.496 255.148 11.592C255.268 11.688 255.404 11.804 255.556 11.94C255.716 12.076 255.856 12.208 255.976 12.336C255.952 12.464 255.852 12.528 255.676 12.528H250.54L250.444 12.18H254.44L254.98 11.448ZM254.464 15.192C254.464 15.192 254.516 15.236 254.62 15.324C254.724 15.412 254.848 15.52 254.992 15.648C255.144 15.768 255.276 15.888 255.388 16.008C255.356 16.136 255.252 16.2 255.076 16.2H250.888L250.792 15.852H253.96L254.464 15.192ZM253.9 14.592C253.892 14.664 253.86 14.724 253.804 14.772C253.756 14.82 253.664 14.856 253.528 14.88V17.328C253.528 17.36 253.492 17.396 253.42 17.436C253.348 17.476 253.256 17.512 253.144 17.544C253.04 17.576 252.932 17.592 252.82 17.592H252.652V14.46L253.9 14.592ZM260.32 15.132C260.32 15.132 260.372 15.176 260.476 15.264C260.58 15.344 260.704 15.448 260.848 15.576C261 15.704 261.136 15.828 261.256 15.948C261.224 16.076 261.12 16.14 260.944 16.14H256.888L256.792 15.792H259.816L260.32 15.132ZM259.3 14.592C259.292 14.664 259.26 14.724 259.204 14.772C259.156 14.82 259.064 14.856 258.928 14.88V17.28C258.928 17.304 258.892 17.336 258.82 17.376C258.748 17.416 258.656 17.452 258.544 17.484C258.44 17.508 258.332 17.52 258.22 17.52H258.052V14.46L259.3 14.592ZM256.468 21.672C256.46 21.712 256.384 21.768 256.24 21.84C256.104 21.92 255.912 21.96 255.664 21.96H255.508V13.992H256.468V21.672ZM260.296 17.148C260.296 17.148 260.332 17.176 260.404 17.232C260.476 17.288 260.568 17.364 260.68 17.46C260.792 17.548 260.908 17.644 261.028 17.748C261.156 17.844 261.268 17.94 261.364 18.036C261.34 18.164 261.236 18.228 261.052 18.228H250.888L250.78 17.868H259.72L260.296 17.148ZM259.972 13.188C259.972 13.188 260.028 13.232 260.14 13.32C260.26 13.408 260.4 13.516 260.56 13.644C260.728 13.772 260.88 13.896 261.016 14.016C260.984 14.144 260.876 14.208 260.692 14.208H251.14L251.044 13.848H259.408L259.972 13.188ZM259.888 18.816C259.888 18.816 259.924 18.848 259.996 18.912C260.076 18.968 260.176 19.044 260.296 19.14C260.424 19.228 260.556 19.328 260.692 19.44C260.828 19.552 260.952 19.66 261.064 19.764C261.032 19.892 260.928 19.956 260.752 19.956H251.38L251.284 19.596H259.24L259.888 18.816ZM269.704 13.98V13.716C270.016 13.652 270.324 13.628 270.628 13.644C270.932 13.66 271.2 13.712 271.432 13.8C271.808 13.928 272.096 14.108 272.296 14.34C272.496 14.572 272.596 14.824 272.596 15.096C272.596 15.24 272.564 15.36 272.5 15.456C272.436 15.552 272.336 15.6 272.2 15.6C272.088 15.6 271.98 15.58 271.876 15.54C271.78 15.5 271.668 15.46 271.54 15.42C271.412 15.38 271.256 15.364 271.072 15.372C270.872 15.396 270.676 15.444 270.484 15.516C270.292 15.588 270.136 15.692 270.016 15.828C269.896 15.956 269.82 16.116 269.788 16.308C269.764 16.5 269.76 16.708 269.776 16.932C269.792 17.076 269.816 17.276 269.848 17.532C269.888 17.78 269.928 18.052 269.968 18.348C270.016 18.644 270.056 18.936 270.088 19.224C270.12 19.512 270.136 19.768 270.136 19.992C270.136 20.496 269.956 20.884 269.596 21.156C269.236 21.436 268.74 21.576 268.108 21.576C267.476 21.576 266.988 21.44 266.644 21.168C266.308 20.896 266.14 20.572 266.14 20.196C266.14 19.884 266.24 19.604 266.44 19.356C266.648 19.108 266.944 18.912 267.328 18.768C267.72 18.616 268.188 18.54 268.732 18.54C269.412 18.54 270.008 18.64 270.52 18.84C271.032 19.032 271.456 19.236 271.792 19.452C272.104 19.644 272.34 19.836 272.5 20.028C272.668 20.22 272.752 20.408 272.752 20.592C272.752 20.744 272.716 20.86 272.644 20.94C272.572 21.02 272.48 21.06 272.368 21.06C272.28 21.06 272.2 21.036 272.128 20.988C272.064 20.932 271.992 20.864 271.912 20.784C271.832 20.704 271.74 20.62 271.636 20.532C271.38 20.284 271.088 20.056 270.76 19.848C270.432 19.64 270.06 19.476 269.644 19.356C269.228 19.228 268.756 19.164 268.228 19.164C267.7 19.164 267.3 19.256 267.028 19.44C266.764 19.624 266.632 19.82 266.632 20.028C266.632 20.236 266.732 20.412 266.932 20.556C267.132 20.692 267.444 20.76 267.868 20.76C268.228 20.76 268.508 20.708 268.708 20.604C268.916 20.5 269.06 20.356 269.14 20.172C269.228 19.988 269.272 19.776 269.272 19.536C269.272 19.288 269.26 19.028 269.236 18.756C269.22 18.476 269.2 18.2 269.176 17.928C269.16 17.648 269.152 17.388 269.152 17.148C269.152 16.796 269.196 16.5 269.284 16.26C269.372 16.012 269.512 15.788 269.704 15.588C269.904 15.372 270.132 15.204 270.388 15.084C270.644 14.964 270.872 14.856 271.072 14.76C271.168 14.704 271.208 14.64 271.192 14.568C271.184 14.496 271.132 14.428 271.036 14.364C270.876 14.236 270.68 14.144 270.448 14.088C270.224 14.024 269.976 13.988 269.704 13.98ZM263.32 13.164C263.496 13.3 263.656 13.42 263.8 13.524C263.944 13.628 264.104 13.708 264.28 13.764C264.456 13.82 264.676 13.848 264.94 13.848C265.124 13.848 265.312 13.836 265.504 13.812C265.696 13.78 265.876 13.744 266.044 13.704C266.212 13.664 266.348 13.632 266.452 13.608C266.916 13.48 267.272 13.36 267.52 13.248C267.768 13.136 267.952 13.048 268.072 12.984C268.192 12.92 268.288 12.888 268.36 12.888C268.496 12.888 268.612 12.928 268.708 13.008C268.804 13.08 268.852 13.18 268.852 13.308C268.852 13.42 268.804 13.516 268.708 13.596C268.62 13.676 268.536 13.74 268.456 13.788C268.296 13.876 268.076 13.972 267.796 14.076C267.524 14.172 267.22 14.264 266.884 14.352C266.548 14.432 266.204 14.496 265.852 14.544C265.5 14.592 265.164 14.616 264.844 14.616C264.532 14.616 264.268 14.576 264.052 14.496C263.844 14.416 263.668 14.28 263.524 14.088C263.38 13.896 263.244 13.636 263.116 13.308L263.32 13.164ZM265.372 11.832V11.64C265.476 11.592 265.6 11.552 265.744 11.52C265.888 11.488 266.028 11.472 266.164 11.472C266.34 11.472 266.512 11.492 266.68 11.532C266.856 11.572 266.996 11.628 267.1 11.7C267.164 11.74 267.2 11.796 267.208 11.868C267.224 11.94 267.216 12.052 267.184 12.204C267.152 12.356 267.096 12.564 267.016 12.828C266.944 13.092 266.844 13.44 266.716 13.872C266.652 14.08 266.564 14.348 266.452 14.676C266.348 15.004 266.22 15.364 266.068 15.756C265.916 16.148 265.748 16.552 265.564 16.968C265.388 17.376 265.196 17.78 264.988 18.18C264.78 18.58 264.568 18.948 264.352 19.284C264.248 19.444 264.148 19.576 264.052 19.68C263.956 19.776 263.844 19.824 263.716 19.824C263.572 19.824 263.464 19.764 263.392 19.644C263.32 19.524 263.284 19.396 263.284 19.26C263.284 19.14 263.3 19.032 263.332 18.936C263.364 18.84 263.424 18.736 263.512 18.624C263.784 18.272 264.064 17.876 264.352 17.436C264.648 16.988 264.928 16.496 265.192 15.96C265.464 15.424 265.684 14.852 265.852 14.244C265.908 14.044 265.96 13.836 266.008 13.62C266.064 13.404 266.104 13.2 266.128 13.008C266.16 12.816 266.18 12.648 266.188 12.504C266.196 12.376 266.18 12.28 266.14 12.216C266.1 12.152 266.028 12.092 265.924 12.036C265.836 11.988 265.74 11.948 265.636 11.916C265.532 11.876 265.444 11.848 265.372 11.832ZM284.08 16.992V17.34H275.704V16.992H284.08ZM283.612 13.464L284.128 12.888L285.244 13.752C285.212 13.8 285.148 13.848 285.052 13.896C284.964 13.936 284.86 13.968 284.74 13.992V18.06C284.74 18.084 284.692 18.12 284.596 18.168C284.5 18.208 284.388 18.248 284.26 18.288C284.132 18.328 284.012 18.348 283.9 18.348H283.732V13.464H283.612ZM276.208 18.156C276.208 18.188 276.168 18.232 276.088 18.288C276.008 18.344 275.904 18.392 275.776 18.432C275.648 18.472 275.516 18.492 275.38 18.492H275.212V13.464V12.996L276.304 13.464H284.02V13.812H276.208V18.156ZM280.912 11.064C280.896 11.144 280.856 11.212 280.792 11.268C280.736 11.324 280.628 11.364 280.468 11.388V21.6C280.468 21.64 280.428 21.692 280.348 21.756C280.268 21.82 280.164 21.872 280.036 21.912C279.916 21.96 279.788 21.984 279.652 21.984H279.46V10.908L280.912 11.064ZM291.22 11.016C291.82 11.296 292.304 11.592 292.672 11.904C293.04 12.208 293.316 12.508 293.5 12.804C293.684 13.1 293.792 13.368 293.824 13.608C293.864 13.84 293.848 14.032 293.776 14.184C293.704 14.336 293.592 14.428 293.44 14.46C293.288 14.484 293.12 14.428 292.936 14.292C292.856 13.948 292.712 13.584 292.504 13.2C292.304 12.816 292.076 12.44 291.82 12.072C291.572 11.704 291.328 11.38 291.088 11.1L291.22 11.016ZM290.884 13.212C290.876 13.292 290.84 13.36 290.776 13.416C290.72 13.472 290.62 13.508 290.476 13.524V20.064C290.476 20.216 290.524 20.324 290.62 20.388C290.716 20.452 290.92 20.484 291.232 20.484H292.864C293.224 20.484 293.528 20.48 293.776 20.472C294.032 20.464 294.22 20.452 294.34 20.436C294.444 20.428 294.52 20.412 294.568 20.388C294.616 20.356 294.656 20.308 294.688 20.244C294.752 20.116 294.828 19.872 294.916 19.512C295.004 19.152 295.1 18.732 295.204 18.252H295.348L295.384 20.328C295.56 20.392 295.676 20.456 295.732 20.52C295.788 20.576 295.816 20.656 295.816 20.76C295.816 20.88 295.772 20.984 295.684 21.072C295.604 21.16 295.456 21.228 295.24 21.276C295.024 21.332 294.72 21.372 294.328 21.396C293.936 21.42 293.432 21.432 292.816 21.432H291.124C290.716 21.432 290.392 21.4 290.152 21.336C289.92 21.28 289.756 21.168 289.66 21C289.564 20.84 289.516 20.612 289.516 20.316V13.056L290.884 13.212ZM295.132 14.748C295.636 15.1 296.048 15.452 296.368 15.804C296.696 16.156 296.948 16.5 297.124 16.836C297.308 17.164 297.428 17.472 297.484 17.76C297.548 18.048 297.564 18.3 297.532 18.516C297.5 18.724 297.436 18.888 297.34 19.008C297.244 19.128 297.132 19.188 297.004 19.188C296.876 19.18 296.748 19.104 296.62 18.96C296.572 18.592 296.484 18.168 296.356 17.688C296.236 17.2 296.068 16.708 295.852 16.212C295.636 15.708 295.356 15.256 295.012 14.856L295.132 14.748ZM288.076 14.556C288.276 15.26 288.372 15.896 288.364 16.464C288.356 17.024 288.288 17.504 288.16 17.904C288.04 18.304 287.9 18.62 287.74 18.852C287.636 19.012 287.512 19.136 287.368 19.224C287.232 19.312 287.096 19.36 286.96 19.368C286.824 19.368 286.708 19.328 286.612 19.248C286.5 19.128 286.456 18.992 286.48 18.84C286.504 18.68 286.572 18.532 286.684 18.396C286.9 18.188 287.096 17.888 287.272 17.496C287.456 17.096 287.604 16.644 287.716 16.14C287.828 15.628 287.88 15.1 287.872 14.556H288.076ZM307.804 13.392L308.356 12.828L309.28 13.788C309.2 13.86 309.04 13.908 308.8 13.932C308.728 14.348 308.628 14.816 308.5 15.336C308.372 15.848 308.228 16.36 308.068 16.872C307.908 17.384 307.732 17.848 307.54 18.264L307.36 18.168C307.432 17.808 307.496 17.42 307.552 17.004C307.608 16.58 307.656 16.152 307.696 15.72C307.736 15.28 307.772 14.86 307.804 14.46C307.836 14.06 307.856 13.704 307.864 13.392H307.804ZM308.116 13.224L308.26 13.548L301.888 16.296L301.648 16.02L307.816 13.356L308.116 13.224ZM304.324 12.684C304.316 12.764 304.28 12.836 304.216 12.9C304.152 12.956 304.048 12.992 303.904 13.008V20.244C303.904 20.42 303.956 20.544 304.06 20.616C304.164 20.68 304.392 20.712 304.744 20.712H306.484C306.876 20.712 307.212 20.712 307.492 20.712C307.772 20.704 307.972 20.696 308.092 20.688C308.188 20.68 308.26 20.664 308.308 20.64C308.364 20.608 308.412 20.564 308.452 20.508C308.508 20.396 308.58 20.192 308.668 19.896C308.756 19.592 308.848 19.232 308.944 18.816H309.088L309.124 20.568C309.3 20.624 309.42 20.68 309.484 20.736C309.548 20.792 309.58 20.864 309.58 20.952C309.58 21.08 309.536 21.18 309.448 21.252C309.36 21.332 309.204 21.396 308.98 21.444C308.756 21.492 308.436 21.524 308.02 21.54C307.612 21.564 307.084 21.576 306.436 21.576H304.66C304.236 21.576 303.9 21.544 303.652 21.48C303.412 21.416 303.24 21.3 303.136 21.132C303.04 20.972 302.992 20.744 302.992 20.448V12.54L304.324 12.684ZM306.7 11.016C306.692 11.096 306.656 11.164 306.592 11.22C306.528 11.276 306.416 11.316 306.256 11.34V19.26C306.256 19.3 306.22 19.344 306.148 19.392C306.076 19.44 305.984 19.484 305.872 19.524C305.76 19.564 305.648 19.584 305.536 19.584H305.368V10.872L306.7 11.016ZM298.42 19.26C298.66 19.204 298.996 19.116 299.428 18.996C299.86 18.868 300.352 18.724 300.904 18.564C301.456 18.396 302.02 18.224 302.596 18.048L302.644 18.204C302.276 18.436 301.816 18.716 301.264 19.044C300.72 19.364 300.068 19.724 299.308 20.124C299.268 20.284 299.184 20.388 299.056 20.436L298.42 19.26ZM301.372 11.328C301.356 11.408 301.316 11.48 301.252 11.544C301.188 11.6 301.08 11.636 300.928 11.652V18.948L299.992 19.248V11.184L301.372 11.328ZM301.768 13.56C301.768 13.56 301.82 13.612 301.924 13.716C302.036 13.812 302.168 13.932 302.32 14.076C302.472 14.22 302.6 14.356 302.704 14.484C302.68 14.612 302.58 14.676 302.404 14.676H298.636L298.54 14.316H301.252L301.768 13.56Z" fill="white"/>
<line y1="29.5" x2="310" y2="29.5" stroke="white"/>
</svg>
