<svg width="1240" height="116" viewBox="0 0 1240 116" fill="none" xmlns="http://www.w3.org/2000/svg">
<line y1="67.0474" x2="1240" y2="67.0474" stroke="white"/>
<path d="M29.52 32.112C29.456 32.464 29.28 32.768 28.992 33.024C28.704 33.248 28.24 33.408 27.6 33.504V35.136H23.424V32.256V31.44L29.52 32.112ZM22.08 32.016C22.048 32.304 21.904 32.56 21.648 32.784C21.424 33.008 21.04 33.152 20.496 33.216V36.144C20.464 37.36 20.336 38.688 20.112 40.128C19.92 41.536 19.552 42.96 19.008 44.4C18.464 45.84 17.68 47.2 16.656 48.48C15.632 49.792 14.288 50.928 12.624 51.888L12.096 51.36C13.28 49.888 14.144 48.272 14.688 46.512C15.264 44.72 15.648 42.912 15.84 41.088C16.032 39.264 16.128 37.584 16.128 36.048V31.392L22.08 32.016ZM22.368 43.776C22.976 43.552 23.776 43.248 24.768 42.864C25.76 42.48 26.864 42.016 28.08 41.472C29.328 40.928 30.576 40.4 31.824 39.888L32.064 40.416C31.648 40.864 31.072 41.472 30.336 42.24C29.6 43.008 28.768 43.856 27.84 44.784C26.912 45.712 25.92 46.64 24.864 47.568L22.368 43.776ZM26.592 33.696L27.6 34.272V43.632L24.336 44.928L26.016 43.44C26.336 44.72 26.288 45.76 25.872 46.56C25.456 47.328 25.008 47.84 24.528 48.096L21.936 43.632C22.576 43.248 22.976 42.928 23.136 42.672C23.328 42.416 23.424 42.08 23.424 41.664V33.696H26.592ZM20.352 11.808C20.32 12.096 20.16 12.336 19.872 12.528C19.616 12.688 19.152 12.816 18.48 12.912V16.704C18.352 16.704 18.048 16.704 17.568 16.704C17.12 16.704 16.16 16.704 14.688 16.704V13.824V10.992L20.352 11.808ZM17.568 14.592L18.48 15.12V23.136H18.672L17.664 24.48L13.776 22.56C14 22.304 14.288 22.016 14.64 21.696C14.992 21.344 15.328 21.104 15.648 20.976L14.688 22.512V14.592H17.568ZM33.84 21.264C34.128 24.368 34.576 27.232 35.184 29.856C35.792 32.48 36.592 34.88 37.584 37.056C38.608 39.2 39.888 41.104 41.424 42.768C42.96 44.4 44.784 45.808 46.896 46.992L46.752 47.424C45.472 47.744 44.464 48.288 43.728 49.056C42.992 49.824 42.448 50.848 42.096 52.128C39.92 50.208 38.208 47.776 36.96 44.832C35.744 41.856 34.864 38.48 34.32 34.704C33.808 30.896 33.456 26.8 33.264 22.416L33.84 21.264ZM44.112 18.672C43.92 22.48 43.52 26.048 42.912 29.376C42.304 32.704 41.344 35.776 40.032 38.592C38.72 41.408 36.912 43.968 34.608 46.272C32.336 48.576 29.44 50.608 25.92 52.368L25.488 51.84C28.272 49.76 30.544 47.52 32.304 45.12C34.096 42.72 35.488 40.128 36.48 37.344C37.504 34.56 38.224 31.616 38.64 28.512C39.088 25.408 39.344 22.128 39.408 18.672H44.112ZM42 14.688C42 14.688 42.272 14.896 42.816 15.312C43.36 15.728 44 16.24 44.736 16.848C45.504 17.424 46.192 17.984 46.8 18.528C46.672 19.04 46.256 19.296 45.552 19.296H34.704L35.28 17.952H39.408L42 14.688ZM40.08 8.448C40.016 8.768 39.84 9.04 39.552 9.264C39.264 9.456 38.848 9.584 38.304 9.648C37.856 12.56 37.28 15.392 36.576 18.144C35.872 20.864 35.04 23.44 34.08 25.872C33.12 28.272 32.016 30.432 30.768 32.352L30 31.968C30.672 29.76 31.248 27.296 31.728 24.576C32.208 21.824 32.608 18.976 32.928 16.032C33.248 13.088 33.456 10.208 33.552 7.392L40.08 8.448ZM26.976 24.336C26.976 24.336 27.184 24.528 27.6 24.912C28.016 25.264 28.512 25.712 29.088 26.256C29.664 26.8 30.16 27.312 30.576 27.792C30.48 28.304 30.08 28.56 29.376 28.56H14.112L13.728 27.168H24.96L26.976 24.336ZM28.56 21.792V23.136H16.704V21.792H28.56ZM25.872 8.256C25.84 8.512 25.712 8.752 25.488 8.976C25.296 9.168 24.944 9.296 24.432 9.36V22.464H20.544V7.728L25.872 8.256ZM31.728 11.664C31.664 11.92 31.536 12.16 31.344 12.384C31.152 12.576 30.8 12.704 30.288 12.768V22.704C30.288 22.8 30.128 22.928 29.808 23.088C29.52 23.248 29.136 23.408 28.656 23.568C28.208 23.696 27.744 23.76 27.264 23.76H26.544V11.184L31.728 11.664ZM14.064 10.944C13.904 11.168 13.696 11.344 13.44 11.472C13.184 11.6 12.784 11.632 12.24 11.568C11.408 12.528 10.448 13.584 9.36 14.736C8.272 15.856 7.088 16.976 5.808 18.096C4.56 19.184 3.248 20.176 1.872 21.072L1.392 20.592C2.256 19.312 3.104 17.888 3.936 16.32C4.768 14.72 5.52 13.152 6.192 11.616C6.864 10.048 7.376 8.672 7.728 7.488L14.064 10.944ZM15.024 20.208C14.896 20.464 14.704 20.672 14.448 20.832C14.192 20.96 13.76 20.992 13.152 20.928C12.384 22.368 11.424 23.92 10.272 25.584C9.152 27.216 7.888 28.832 6.48 30.432C5.104 32.032 3.6 33.488 1.968 34.8L1.44 34.32C2.528 32.688 3.536 30.848 4.464 28.8C5.392 26.752 6.208 24.72 6.912 22.704C7.616 20.656 8.144 18.848 8.496 17.28L15.024 20.208ZM12.432 27.648C12.272 28.064 11.776 28.352 10.944 28.512V50.496C10.944 50.656 10.736 50.864 10.32 51.12C9.936 51.408 9.424 51.664 8.784 51.888C8.176 52.144 7.504 52.272 6.768 52.272H5.808V27.792L7.392 25.776L12.432 27.648ZM89.616 9.744C89.616 9.744 89.888 9.984 90.432 10.464C91.008 10.912 91.696 11.456 92.496 12.096C93.296 12.736 94 13.344 94.608 13.92C94.48 14.432 94.048 14.688 93.312 14.688H77.04V13.296H86.784L89.616 9.744ZM69.312 9.984C69.312 9.984 69.568 10.208 70.08 10.656C70.624 11.072 71.232 11.584 71.904 12.192C72.608 12.8 73.248 13.376 73.824 13.92C73.696 14.432 73.264 14.688 72.528 14.688H58.32V13.344H66.864L69.312 9.984ZM80.976 15.984C83.024 15.952 84.656 16.16 85.872 16.608C87.12 17.024 88.016 17.568 88.56 18.24C89.104 18.88 89.376 19.552 89.376 20.256C89.376 20.928 89.184 21.52 88.8 22.032C88.416 22.512 87.872 22.816 87.168 22.944C86.496 23.072 85.76 22.912 84.96 22.464C84.768 21.696 84.448 20.928 84 20.16C83.552 19.392 83.024 18.672 82.416 18C81.808 17.328 81.2 16.768 80.592 16.32L80.976 15.984ZM83.712 9.504C83.616 9.792 83.408 10.032 83.088 10.224C82.8 10.416 82.368 10.496 81.792 10.464C80.416 13.344 78.752 15.856 76.8 18C74.88 20.112 72.784 21.856 70.512 23.232L69.984 22.8C70.848 21.52 71.68 20.048 72.48 18.384C73.28 16.688 74 14.88 74.64 12.96C75.312 11.008 75.84 9.024 76.224 7.008L83.712 9.504ZM60.672 16.272C62.624 16.4 64.176 16.736 65.328 17.28C66.512 17.792 67.344 18.384 67.824 19.056C68.304 19.728 68.528 20.4 68.496 21.072C68.464 21.744 68.24 22.32 67.824 22.8C67.408 23.248 66.864 23.52 66.192 23.616C65.552 23.68 64.848 23.472 64.08 22.992C63.92 22.224 63.632 21.456 63.216 20.688C62.832 19.888 62.368 19.136 61.824 18.432C61.312 17.696 60.8 17.088 60.288 16.608L60.672 16.272ZM64.704 9.504C64.608 9.792 64.4 10.032 64.08 10.224C63.792 10.384 63.376 10.464 62.832 10.464C61.168 13.856 59.2 16.8 56.928 19.296C54.688 21.76 52.272 23.776 49.68 25.344L49.104 24.96C50.192 23.552 51.232 21.904 52.224 20.016C53.248 18.096 54.192 16.048 55.056 13.872C55.92 11.664 56.624 9.424 57.168 7.152L64.704 9.504ZM75.024 25.632C74.896 28.256 74.656 30.72 74.304 33.024C73.984 35.328 73.376 37.472 72.48 39.456C71.584 41.408 70.24 43.2 68.448 44.832C66.688 46.432 64.304 47.84 61.296 49.056C58.32 50.304 54.528 51.344 49.92 52.176L49.632 51.456C53.216 50.208 56.176 48.88 58.512 47.472C60.848 46.064 62.704 44.56 64.08 42.96C65.456 41.328 66.464 39.616 67.104 37.824C67.776 36 68.224 34.08 68.448 32.064C68.704 30.016 68.848 27.872 68.88 25.632H75.024ZM74.064 34.56C74.864 36.48 75.968 38.096 77.376 39.408C78.784 40.72 80.384 41.808 82.176 42.672C84 43.504 85.968 44.176 88.08 44.688C90.192 45.168 92.384 45.536 94.656 45.792L94.608 46.32C93.392 46.672 92.368 47.344 91.536 48.336C90.736 49.36 90.144 50.64 89.76 52.176C86.976 51.184 84.512 49.984 82.368 48.576C80.224 47.2 78.416 45.408 76.944 43.2C75.504 40.992 74.352 38.208 73.488 34.848L74.064 34.56ZM87.504 30.144C87.504 30.144 87.68 30.304 88.032 30.624C88.416 30.912 88.896 31.296 89.472 31.776C90.048 32.256 90.64 32.768 91.248 33.312C91.888 33.824 92.448 34.32 92.928 34.8C92.832 35.312 92.4 35.568 91.632 35.568H51.696L51.312 34.224H84.48L87.504 30.144ZM88.176 26.304C87.888 26.496 87.472 26.608 86.928 26.64C86.416 26.64 85.76 26.496 84.96 26.208C82.976 26.592 80.752 26.944 78.288 27.264C75.856 27.552 73.28 27.808 70.56 28.032C67.872 28.256 65.12 28.416 62.304 28.512C59.52 28.608 56.8 28.64 54.144 28.608L54.048 27.888C56.544 27.568 59.12 27.152 61.776 26.64C64.464 26.096 67.088 25.504 69.648 24.864C72.24 24.224 74.64 23.568 76.848 22.896C79.088 22.192 80.992 21.504 82.56 20.832L88.176 26.304ZM123.456 27.024C123.328 27.376 123.024 27.648 122.544 27.84C122.064 28.032 121.392 28.016 120.528 27.792L121.968 27.264C121.136 28.768 120.064 30.4 118.752 32.16C117.472 33.92 116.064 35.696 114.528 37.488C112.992 39.248 111.424 40.912 109.824 42.48C108.224 44.016 106.688 45.328 105.216 46.416L105.168 45.84H108.336C108.144 47.696 107.76 49.152 107.184 50.208C106.608 51.264 105.92 51.936 105.12 52.224L102.672 44.88C102.672 44.88 102.8 44.848 103.056 44.784C103.312 44.72 103.6 44.624 103.92 44.496C104.24 44.368 104.496 44.224 104.688 44.064C105.424 43.392 106.192 42.464 106.992 41.28C107.824 40.064 108.656 38.72 109.488 37.248C110.352 35.776 111.152 34.256 111.888 32.688C112.656 31.088 113.328 29.536 113.904 28.032C114.48 26.528 114.928 25.184 115.248 24L123.456 27.024ZM103.728 45.216C105.2 45.184 107.056 45.088 109.296 44.928C111.536 44.768 114.048 44.576 116.832 44.352C119.648 44.096 122.592 43.808 125.664 43.488C128.736 43.136 131.808 42.768 134.88 42.384L134.928 43.056C131.792 44.208 127.776 45.488 122.88 46.896C118.016 48.272 112.368 49.648 105.936 51.024L103.728 45.216ZM123.936 9.696L125.76 6.768L130.752 10.176C130.464 10.56 129.936 10.848 129.168 11.04C128.4 11.232 127.504 11.36 126.48 11.424C127.248 13.728 128.4 15.904 129.936 17.952C131.472 20 133.328 21.808 135.504 23.376C137.712 24.944 140.224 26.192 143.04 27.12L142.896 27.696C141.68 28.112 140.608 28.848 139.68 29.904C138.784 30.928 138.176 32.032 137.856 33.216C134.24 30.784 131.392 27.648 129.312 23.808C127.264 19.968 125.872 15.52 125.136 10.464V9.696H123.936ZM126.288 9.696V11.088H119.664L119.232 9.696H126.288ZM117.792 13.056C117.664 13.344 117.44 13.568 117.12 13.728C116.8 13.888 116.352 13.936 115.776 13.872C113.504 18.544 110.832 22.416 107.76 25.488C104.688 28.56 101.264 31.056 97.488 32.976L96.96 32.544C98.688 30.88 100.384 28.88 102.048 26.544C103.712 24.176 105.248 21.584 106.656 18.768C108.064 15.952 109.2 13.008 110.064 9.936L117.792 13.056ZM124.944 33.84C127.728 34.96 130.032 36.176 131.856 37.488C133.712 38.8 135.152 40.144 136.176 41.52C137.232 42.896 137.952 44.208 138.336 45.456C138.752 46.704 138.88 47.824 138.72 48.816C138.592 49.84 138.256 50.64 137.712 51.216C137.168 51.792 136.496 52.08 135.696 52.08C134.896 52.08 134.016 51.712 133.056 50.976C132.8 49.536 132.384 48.064 131.808 46.56C131.264 45.056 130.592 43.568 129.792 42.096C129.024 40.624 128.176 39.216 127.248 37.872C126.352 36.528 125.408 35.28 124.416 34.128L124.944 33.84ZM167.52 35.376C170.4 35.92 172.736 36.592 174.528 37.392C176.32 38.16 177.664 38.992 178.56 39.888C179.488 40.752 180.048 41.6 180.24 42.432C180.464 43.232 180.432 43.904 180.144 44.448C179.888 44.992 179.456 45.344 178.848 45.504C178.24 45.664 177.568 45.536 176.832 45.12C176.416 44.384 175.744 43.504 174.816 42.48C173.92 41.424 172.816 40.336 171.504 39.216C170.224 38.096 168.784 37.024 167.184 36L167.52 35.376ZM165.12 34.944V39.072H160.656V37.2L165.12 34.944ZM160.272 42.432C160.912 42.304 161.808 42.096 162.96 41.808C164.112 41.52 165.392 41.184 166.8 40.8C168.208 40.416 169.648 40.032 171.12 39.648L171.312 40.272C170.672 40.656 169.84 41.184 168.816 41.856C167.824 42.528 166.704 43.248 165.456 44.016C164.208 44.752 162.912 45.504 161.568 46.272L160.272 42.432ZM164.064 37.68L165.12 38.304V42.672L161.328 44.064L162.72 42.624C163.008 43.808 162.96 44.752 162.576 45.456C162.224 46.16 161.84 46.624 161.424 46.848L158.928 43.104C159.696 42.624 160.176 42.256 160.368 42C160.56 41.712 160.656 41.392 160.656 41.04V37.68H164.064ZM181.152 36.672C181.024 36.832 180.832 36.928 180.576 36.96C180.32 36.992 179.984 36.928 179.568 36.768C179.024 36.992 178.336 37.232 177.504 37.488C176.704 37.712 175.872 37.952 175.008 38.208C174.176 38.432 173.424 38.656 172.752 38.88L172.32 38.352C172.832 37.904 173.376 37.36 173.952 36.72C174.56 36.08 175.136 35.424 175.68 34.752C176.256 34.08 176.736 33.504 177.12 33.024L181.152 36.672ZM169.488 32.88C167.824 34.768 165.632 36.384 162.912 37.728C160.224 39.04 157.312 40.112 154.176 40.944L153.744 40.224C156.016 39.232 158.08 38.032 159.936 36.624C161.824 35.216 163.344 33.712 164.496 32.112H169.488V32.88ZM177.792 18.864C177.792 18.864 178.048 19.056 178.56 19.44C179.072 19.824 179.68 20.304 180.384 20.88C181.088 21.424 181.728 21.952 182.304 22.464C182.176 22.976 181.76 23.232 181.056 23.232H154.8L154.416 21.84H175.392L177.792 18.864ZM175.92 14.352C175.92 14.352 176.16 14.544 176.64 14.928C177.12 15.28 177.696 15.728 178.368 16.272C179.04 16.784 179.664 17.296 180.24 17.808C180.112 18.32 179.696 18.576 178.992 18.576H156.624L156.24 17.184H173.568L175.92 14.352ZM171.36 13.536C171.328 13.792 171.216 14.016 171.024 14.208C170.864 14.4 170.528 14.544 170.016 14.64V22.464H165.024V12.96L171.36 13.536ZM162.24 33.456C162.24 33.584 162.032 33.76 161.616 33.984C161.232 34.208 160.736 34.416 160.128 34.608C159.52 34.768 158.912 34.848 158.304 34.848H157.632V26.064V24.144L162.48 26.064H175.488V27.456H162.24V33.456ZM173.136 26.064L175.2 23.904L179.616 27.12C179.488 27.248 179.312 27.392 179.088 27.552C178.864 27.712 178.576 27.808 178.224 27.84V33.024C178.224 33.152 177.984 33.312 177.504 33.504C177.056 33.696 176.544 33.872 175.968 34.032C175.392 34.16 174.848 34.224 174.336 34.224H173.52V26.064H173.136ZM175.296 31.92V33.312H160.128V31.92H175.296ZM153.744 50.064C153.744 50.32 153.52 50.608 153.072 50.928C152.656 51.28 152.096 51.584 151.392 51.84C150.72 52.096 149.968 52.224 149.136 52.224H148.176V10.32V7.776L154.224 10.32H184.176V11.664H153.744V50.064ZM181.968 10.32L184.704 7.248L190.08 11.568C189.92 11.792 189.68 12 189.36 12.192C189.04 12.352 188.624 12.48 188.112 12.576V50.112C188.112 50.24 187.856 50.448 187.344 50.736C186.832 51.056 186.208 51.328 185.472 51.552C184.736 51.808 184.032 51.936 183.36 51.936H182.448V10.32H181.968ZM184.464 46.944V48.336H151.488V46.944H184.464Z" fill="#F3D7A3"/>
<path d="M2.752 95.856V94.736L6.592 96.176H6.08V102C6.08 102.853 6.02667 103.76 5.92 104.72C5.83467 105.659 5.632 106.608 5.312 107.568C5.01333 108.528 4.53333 109.435 3.872 110.288C3.232 111.163 2.34667 111.963 1.216 112.688L0.928 112.4C1.52533 111.397 1.952 110.32 2.208 109.168C2.464 107.995 2.61333 106.8 2.656 105.584C2.72 104.368 2.752 103.173 2.752 102V96.176V95.856ZM4.96 99.216C6.56 98.96 7.84 98.9173 8.8 99.088C9.78133 99.2587 10.4853 99.536 10.912 99.92C11.36 100.304 11.5947 100.699 11.616 101.104C11.6373 101.509 11.488 101.84 11.168 102.096C10.8693 102.331 10.464 102.395 9.952 102.288C9.54667 101.925 8.87467 101.488 7.936 100.976C7.01867 100.464 5.984 100.027 4.832 99.664L4.96 99.216ZM5.28 104.304C5.74933 104.219 6.41067 104.112 7.264 103.984C8.13867 103.835 9.10933 103.653 10.176 103.44C11.264 103.227 12.3733 103.013 13.504 102.8L13.6 103.216C12.896 103.621 12.0107 104.112 10.944 104.688C9.89867 105.264 8.68267 105.904 7.296 106.608C7.12533 107.035 6.86933 107.28 6.528 107.344L5.28 104.304ZM27.648 87.44C27.648 87.44 27.7653 87.5467 28 87.76C28.256 87.952 28.5653 88.1973 28.928 88.496C29.312 88.7947 29.7067 89.1147 30.112 89.456C30.5387 89.7973 30.912 90.128 31.232 90.448C31.1467 90.7893 30.8587 90.96 30.368 90.96H19.648V90.032H25.664L27.648 87.44ZM24.864 84.048C24.8 84.24 24.6613 84.4 24.448 84.528C24.256 84.656 23.9787 84.7307 23.616 84.752C23.168 86.736 22.624 88.6133 21.984 90.384C21.344 92.1333 20.5973 93.744 19.744 95.216C18.8907 96.6667 17.92 97.968 16.832 99.12L16.416 98.864C16.9707 97.4773 17.4613 95.9093 17.888 94.16C18.336 92.4107 18.7093 90.576 19.008 88.656C19.328 86.7147 19.5413 84.7947 19.648 82.896L24.864 84.048ZM29.056 90.032C28.8427 92.4853 28.4693 94.8427 27.936 97.104C27.424 99.3653 26.656 101.467 25.632 103.408C24.608 105.349 23.2427 107.109 21.536 108.688C19.8293 110.267 17.6853 111.621 15.104 112.752L14.848 112.464C16.768 111.056 18.3467 109.52 19.584 107.856C20.8427 106.171 21.8453 104.379 22.592 102.48C23.36 100.56 23.9253 98.5653 24.288 96.496C24.6507 94.4053 24.864 92.2507 24.928 90.032H29.056ZM19.808 90.512C20.1067 92.7733 20.5547 94.8747 21.152 96.816C21.7493 98.736 22.5173 100.496 23.456 102.096C24.3947 103.696 25.5253 105.115 26.848 106.352C28.192 107.589 29.7493 108.645 31.52 109.52L31.392 109.84C30.5173 110.011 29.8133 110.341 29.28 110.832C28.7467 111.344 28.3627 112.016 28.128 112.848C26.1653 111.397 24.5867 109.595 23.392 107.44C22.2187 105.285 21.3333 102.843 20.736 100.112C20.1387 97.3813 19.7013 94.4373 19.424 91.28L19.808 90.512ZM11.84 96.176L13.312 94.48L16.64 96.944C16.5547 97.0507 16.416 97.1573 16.224 97.264C16.0533 97.3707 15.84 97.4453 15.584 97.488V108.368C15.584 109.136 15.488 109.797 15.296 110.352C15.1253 110.928 14.7413 111.376 14.144 111.696C13.568 112.037 12.6613 112.272 11.424 112.4C11.4027 111.845 11.3493 111.355 11.264 110.928C11.2 110.523 11.0827 110.203 10.912 109.968C10.7413 109.712 10.496 109.499 10.176 109.328C9.87733 109.136 9.42933 108.976 8.832 108.848V108.4C8.832 108.4 8.94933 108.411 9.184 108.432C9.41867 108.453 9.696 108.475 10.016 108.496C10.336 108.517 10.6453 108.539 10.944 108.56C11.2427 108.56 11.456 108.56 11.584 108.56C11.8187 108.56 11.968 108.517 12.032 108.432C12.096 108.325 12.128 108.187 12.128 108.016V96.176H11.84ZM14.048 96.176V97.072H4.704V96.176H14.048ZM15.712 90.608C15.712 90.608 15.8613 90.7467 16.16 91.024C16.48 91.3013 16.8533 91.6427 17.28 92.048C17.7067 92.432 18.08 92.8053 18.4 93.168C18.3147 93.5093 18.048 93.68 17.6 93.68H1.216L0.96 92.784H14.208L15.712 90.608ZM15.136 85.168C15.136 85.168 15.2853 85.3067 15.584 85.584C15.8827 85.8613 16.2347 86.192 16.64 86.576C17.0453 86.96 17.408 87.3227 17.728 87.664C17.664 88.0053 17.3867 88.176 16.896 88.176H1.952L1.696 87.248H13.664L15.136 85.168ZM14.848 83.216C14.8267 83.408 14.7413 83.568 14.592 83.696C14.464 83.824 14.2293 83.9093 13.888 83.952V93.392H10.496V82.8L14.848 83.216ZM8.768 83.184C8.74667 83.3973 8.672 83.568 8.544 83.696C8.416 83.824 8.18133 83.9093 7.84 83.952V93.392H4.544V82.8L8.768 83.184ZM51.104 96.432C51.0827 96.6453 50.9973 96.8373 50.848 97.008C50.6987 97.1573 50.3893 97.264 49.92 97.328V104.816C49.92 104.944 49.7493 105.125 49.408 105.36C49.0667 105.573 48.6293 105.765 48.096 105.936C47.584 106.107 47.072 106.192 46.56 106.192H46.176V96.08L51.104 96.432ZM56.192 85.808C56.192 85.808 56.32 85.9147 56.576 86.128C56.8533 86.32 57.1947 86.576 57.6 86.896C58.0053 87.1947 58.432 87.5253 58.88 87.888C59.3493 88.2507 59.7867 88.592 60.192 88.912C60.1067 89.2533 59.7973 89.424 59.264 89.424H47.84V88.528H53.984L56.192 85.808ZM43.04 85.648C43.0187 85.8613 42.9333 86.0427 42.784 86.192C42.656 86.32 42.3893 86.4053 41.984 86.448V95.056H38.432V85.264L43.04 85.648ZM51.168 83.248C51.1467 83.4613 51.0507 83.6427 50.88 83.792C50.7093 83.9413 50.4107 84.0587 49.984 84.144V95.088H46.176V82.832L51.168 83.248ZM59.104 91.792C59.104 91.792 59.2427 91.8987 59.52 92.112C59.7973 92.304 60.1387 92.56 60.544 92.88C60.9493 93.2 61.376 93.5413 61.824 93.904C62.272 94.2453 62.688 94.576 63.072 94.896C63.0293 95.0667 62.9227 95.1947 62.752 95.28C62.5813 95.3653 62.3893 95.408 62.176 95.408H33.376L33.12 94.512H56.96L59.104 91.792ZM60.224 100.176C60.096 100.368 59.9147 100.485 59.68 100.528C59.4667 100.571 59.1467 100.56 58.72 100.496C57.0347 102.843 55.2747 104.773 53.44 106.288C51.6267 107.781 49.696 108.987 47.648 109.904C45.6 110.8 43.4133 111.472 41.088 111.92C38.784 112.368 36.32 112.699 33.696 112.912L33.6 112.432C35.904 111.899 38.112 111.269 40.224 110.544C42.336 109.84 44.32 108.933 46.176 107.824C48.032 106.715 49.7493 105.328 51.328 103.664C52.928 102 54.3573 99.9733 55.616 97.584L60.224 100.176ZM44.672 99.184C44.5867 99.3333 44.4587 99.4507 44.288 99.536C44.1173 99.6213 43.84 99.6533 43.456 99.632C42.7947 100.485 41.9733 101.36 40.992 102.256C40.032 103.131 38.9653 103.963 37.792 104.752C36.6187 105.541 35.3707 106.224 34.048 106.8L33.792 106.416C34.7093 105.563 35.584 104.581 36.416 103.472C37.248 102.341 37.9733 101.2 38.592 100.048C39.232 98.8747 39.7227 97.7973 40.064 96.816L44.672 99.184ZM89.76 92.272C89.76 92.464 89.76 92.6773 89.76 92.912C89.76 93.1253 89.76 93.3067 89.76 93.456V107.92C89.76 108.133 89.792 108.293 89.856 108.4C89.9413 108.485 90.1013 108.528 90.336 108.528H91.232C91.424 108.528 91.5947 108.528 91.744 108.528C91.8933 108.507 92.0213 108.485 92.128 108.464C92.2347 108.464 92.3307 108.443 92.416 108.4C92.5013 108.336 92.5867 108.229 92.672 108.08C92.7787 107.888 92.896 107.557 93.024 107.088C93.152 106.597 93.2907 106.043 93.44 105.424C93.5893 104.784 93.7387 104.155 93.888 103.536H94.24L94.368 108.304C94.7947 108.517 95.0613 108.741 95.168 108.976C95.296 109.211 95.36 109.488 95.36 109.808C95.36 110.256 95.2213 110.64 94.944 110.96C94.6667 111.28 94.1973 111.515 93.536 111.664C92.896 111.813 92.0213 111.888 90.912 111.888H89.184C88.3733 111.888 87.7547 111.792 87.328 111.6C86.9227 111.429 86.6453 111.12 86.496 110.672C86.368 110.245 86.304 109.659 86.304 108.912V92.272H89.76ZM70.336 82.864C71.7013 82.9493 72.7787 83.1733 73.568 83.536C74.3787 83.8773 74.944 84.2827 75.264 84.752C75.6053 85.2213 75.7547 85.6907 75.712 86.16C75.6693 86.6293 75.488 87.024 75.168 87.344C74.8693 87.6427 74.4747 87.824 73.984 87.888C73.5147 87.952 73.0133 87.8133 72.48 87.472C72.3307 86.6827 72.0107 85.8827 71.52 85.072C71.0507 84.2613 70.5707 83.5893 70.08 83.056L70.336 82.864ZM72.064 102.384C71.9787 102.576 71.84 102.736 71.648 102.864C71.456 102.992 71.1787 103.045 70.816 103.024C70.0907 104.432 69.2373 105.669 68.256 106.736C67.2747 107.803 66.208 108.688 65.056 109.392L64.672 109.104C65.2907 108.101 65.8667 106.885 66.4 105.456C66.9333 104.005 67.3493 102.501 67.648 100.944L72.064 102.384ZM76.096 101.232C77.312 101.701 78.24 102.224 78.88 102.8C79.52 103.355 79.9467 103.909 80.16 104.464C80.3733 105.019 80.4267 105.531 80.32 106C80.2133 106.469 79.9893 106.832 79.648 107.088C79.328 107.344 78.944 107.461 78.496 107.44C78.0693 107.397 77.632 107.163 77.184 106.736C77.2053 106.117 77.1413 105.488 76.992 104.848C76.864 104.208 76.6827 103.589 76.448 102.992C76.2347 102.395 76 101.861 75.744 101.392L76.096 101.232ZM70.272 99.056C70.272 99.1413 70.1227 99.2693 69.824 99.44C69.5467 99.6107 69.1947 99.76 68.768 99.888C68.3413 100.016 67.8933 100.08 67.424 100.08H66.944V91.824V90.416L70.432 91.824H77.952V92.72H70.272V99.056ZM87.968 83.28C87.9253 83.536 87.8187 83.7387 87.648 83.888C87.4773 84.0373 87.2 84.144 86.816 84.208C86.7733 86.7467 86.7307 89.168 86.688 91.472C86.6667 93.7547 86.528 95.92 86.272 97.968C86.0373 100.016 85.6 101.936 84.96 103.728C84.3413 105.52 83.4347 107.184 82.24 108.72C81.0453 110.235 79.4667 111.621 77.504 112.88L77.152 112.4C78.496 110.949 79.5627 109.413 80.352 107.792C81.1413 106.149 81.7387 104.411 82.144 102.576C82.5493 100.72 82.816 98.7573 82.944 96.688C83.072 94.6187 83.1253 92.432 83.104 90.128C83.104 87.824 83.104 85.392 83.104 82.832L87.968 83.28ZM88.48 84.272C89.7387 84.592 90.7093 84.9867 91.392 85.456C92.096 85.9253 92.5653 86.416 92.8 86.928C93.056 87.44 93.1307 87.92 93.024 88.368C92.9387 88.7947 92.7253 89.1467 92.384 89.424C92.064 89.68 91.6693 89.7973 91.2 89.776C90.752 89.7547 90.304 89.5413 89.856 89.136C89.8347 88.5813 89.7387 88.0267 89.568 87.472C89.3973 86.896 89.184 86.352 88.928 85.84C88.672 85.3067 88.416 84.8373 88.16 84.432L88.48 84.272ZM75.04 108.592C75.04 109.381 74.944 110.075 74.752 110.672C74.56 111.269 74.1547 111.749 73.536 112.112C72.9387 112.496 72.0107 112.741 70.752 112.848C70.7307 112.315 70.688 111.835 70.624 111.408C70.56 111.003 70.432 110.672 70.24 110.416C70.0693 110.16 69.824 109.936 69.504 109.744C69.184 109.552 68.6933 109.413 68.032 109.328V108.88C68.032 108.88 68.1493 108.891 68.384 108.912C68.64 108.933 68.9387 108.955 69.28 108.976C69.6213 108.976 69.952 108.987 70.272 109.008C70.592 109.029 70.816 109.04 70.944 109.04C71.1787 109.04 71.328 108.997 71.392 108.912C71.4773 108.805 71.52 108.667 71.52 108.496V97.744H75.04V108.592ZM91.84 89.616C91.84 89.616 91.9573 89.712 92.192 89.904C92.4267 90.0747 92.7253 90.3093 93.088 90.608C93.4507 90.9067 93.824 91.2267 94.208 91.568C94.6133 91.888 94.976 92.1973 95.296 92.496C95.232 92.8373 94.944 93.008 94.432 93.008H80.992L80.736 92.08H89.952L91.84 89.616ZM78.752 85.616C78.752 85.616 78.8693 85.7227 79.104 85.936C79.36 86.128 79.6693 86.3733 80.032 86.672C80.416 86.9707 80.8 87.3013 81.184 87.664C81.5893 88.0053 81.9627 88.336 82.304 88.656C82.2187 88.9973 81.92 89.168 81.408 89.168H65.344L65.088 88.24H76.832L78.752 85.616ZM75.808 91.824L77.44 90.064L80.896 92.624C80.8107 92.752 80.6507 92.88 80.416 93.008C80.2027 93.136 79.936 93.232 79.616 93.296V98.896C79.616 98.96 79.4453 99.056 79.104 99.184C78.784 99.312 78.4 99.4293 77.952 99.536C77.504 99.6427 77.0987 99.696 76.736 99.696H76.128V91.824H75.808ZM78.304 97.584V98.512H68.768V97.584H78.304ZM108.256 87.824C108.171 88.0373 107.979 88.2187 107.68 88.368C107.403 88.496 106.976 88.496 106.4 88.368L107.488 88.08C106.891 88.784 106.123 89.52 105.184 90.288C104.267 91.0347 103.307 91.7493 102.304 92.432C101.301 93.1147 100.373 93.68 99.52 94.128L99.488 93.776H101.312C101.248 94.7787 101.067 95.6107 100.768 96.272C100.491 96.912 100.139 97.328 99.712 97.52L97.952 93.328C97.952 93.328 98.08 93.296 98.336 93.232C98.6133 93.168 98.816 93.0933 98.944 93.008C99.3707 92.7307 99.808 92.336 100.256 91.824C100.704 91.2907 101.131 90.704 101.536 90.064C101.963 89.4027 102.336 88.7733 102.656 88.176C102.997 87.5573 103.253 87.0133 103.424 86.544L108.256 87.824ZM98.976 93.52C99.744 93.4987 100.8 93.4667 102.144 93.424C103.509 93.36 105.056 93.2747 106.784 93.168C108.512 93.0613 110.304 92.944 112.16 92.816L112.192 93.232C110.933 93.6587 109.237 94.2027 107.104 94.864C104.992 95.5253 102.635 96.1973 100.032 96.88L98.976 93.52ZM126.848 83.664C126.827 83.8987 126.731 84.1013 126.56 84.272C126.389 84.4213 126.101 84.5173 125.696 84.56V108.592C125.696 109.424 125.589 110.139 125.376 110.736C125.163 111.355 124.715 111.845 124.032 112.208C123.371 112.571 122.336 112.816 120.928 112.944C120.864 112.368 120.779 111.867 120.672 111.44C120.565 111.013 120.384 110.651 120.128 110.352C119.872 110.075 119.52 109.829 119.072 109.616C118.645 109.403 118.027 109.243 117.216 109.136V108.688C117.216 108.688 117.387 108.699 117.728 108.72C118.091 108.741 118.528 108.773 119.04 108.816C119.552 108.837 120.032 108.859 120.48 108.88C120.928 108.901 121.237 108.912 121.408 108.912C121.685 108.912 121.867 108.869 121.952 108.784C122.059 108.677 122.112 108.517 122.112 108.304V83.216L126.848 83.664ZM120.448 86C120.427 86.2133 120.331 86.4053 120.16 86.576C119.989 86.7253 119.701 86.832 119.296 86.896V104.752C119.296 104.859 119.147 104.997 118.848 105.168C118.571 105.317 118.219 105.456 117.792 105.584C117.387 105.691 116.96 105.744 116.512 105.744H115.872V85.584L120.448 86ZM97.184 107.664C97.9307 107.6 98.9227 107.493 100.16 107.344C101.397 107.173 102.805 106.981 104.384 106.768C105.963 106.555 107.648 106.32 109.44 106.064C111.232 105.787 113.056 105.499 114.912 105.2L114.976 105.616C113.397 106.363 111.381 107.216 108.928 108.176C106.496 109.115 103.499 110.192 99.936 111.408C99.7227 111.813 99.4133 112.069 99.008 112.176L97.184 107.664ZM108.288 89.04C109.824 89.488 111.04 90.032 111.936 90.672C112.832 91.2907 113.461 91.9413 113.824 92.624C114.208 93.2853 114.389 93.9147 114.368 94.512C114.347 95.088 114.176 95.568 113.856 95.952C113.557 96.336 113.163 96.5493 112.672 96.592C112.203 96.6347 111.691 96.432 111.136 95.984C111.093 95.1947 110.912 94.3947 110.592 93.584C110.293 92.752 109.909 91.9627 109.44 91.216C108.992 90.4693 108.501 89.8187 107.968 89.264L108.288 89.04ZM108.64 96.144C108.619 96.3787 108.533 96.5707 108.384 96.72C108.256 96.848 107.989 96.944 107.584 97.008V107.376L103.936 108.176V95.76L108.64 96.144ZM111.04 97.872C111.04 97.872 111.157 97.968 111.392 98.16C111.627 98.352 111.915 98.608 112.256 98.928C112.619 99.2267 112.992 99.5573 113.376 99.92C113.76 100.261 114.101 100.581 114.4 100.88C114.315 101.221 114.027 101.392 113.536 101.392H98.016L97.76 100.496H109.152L111.04 97.872ZM111.584 83.184C111.584 83.184 111.701 83.2907 111.936 83.504C112.171 83.696 112.469 83.9413 112.832 84.24C113.216 84.5387 113.6 84.8587 113.984 85.2C114.368 85.5413 114.731 85.872 115.072 86.192C114.987 86.5333 114.688 86.704 114.176 86.704H97.664L97.408 85.808H109.664L111.584 83.184ZM141.28 102.608L140.864 101.68C142.016 101.104 142.923 100.485 143.584 99.824C144.267 99.1413 144.736 98.2027 144.992 97.008L145.376 98.128C143.968 97.616 142.933 97.0613 142.272 96.464C141.632 95.8667 141.312 95.1947 141.312 94.448C141.312 93.6587 141.579 93.008 142.112 92.496C142.645 91.9627 143.317 91.696 144.128 91.696C144.619 91.696 145.045 91.76 145.408 91.888C145.771 91.9947 146.133 92.1973 146.496 92.496C146.688 92.9653 146.816 93.3813 146.88 93.744C146.944 94.0853 146.976 94.512 146.976 95.024C146.976 96.9867 146.453 98.6187 145.408 99.92C144.384 101.2 143.008 102.096 141.28 102.608ZM172.448 82.736C173.899 82.6507 175.051 82.7467 175.904 83.024C176.757 83.28 177.365 83.632 177.728 84.08C178.112 84.528 178.293 84.9867 178.272 85.456C178.251 85.9253 178.08 86.3413 177.76 86.704C177.461 87.0453 177.056 87.2587 176.544 87.344C176.032 87.408 175.488 87.28 174.912 86.96C174.784 86.448 174.581 85.9467 174.304 85.456C174.048 84.944 173.728 84.4747 173.344 84.048C172.96 83.6 172.587 83.2267 172.224 82.928L172.448 82.736ZM180.032 106.64V107.568H171.488V106.64H180.032ZM178.24 101.968L179.84 100.272L183.168 102.768C183.083 102.875 182.933 102.992 182.72 103.12C182.528 103.227 182.293 103.312 182.016 103.376V108.176C182.016 108.261 181.845 108.379 181.504 108.528C181.184 108.677 180.8 108.816 180.352 108.944C179.925 109.051 179.52 109.104 179.136 109.104H178.528V101.968H178.24ZM173.504 108.592C173.504 108.677 173.355 108.805 173.056 108.976C172.757 109.147 172.384 109.296 171.936 109.424C171.488 109.552 171.029 109.616 170.56 109.616H170.08V101.968V100.56L173.632 101.968H180.416V102.864H173.504V108.592ZM181.856 94.96V95.856H169.76V94.96H181.856ZM180.224 90.288L181.92 88.4L185.6 91.152C185.515 91.2587 185.355 91.3867 185.12 91.536C184.907 91.664 184.64 91.76 184.32 91.824V96.528C184.32 96.592 184.139 96.688 183.776 96.816C183.413 96.944 182.987 97.0613 182.496 97.168C182.027 97.2747 181.589 97.328 181.184 97.328H180.544V90.288H180.224ZM171.712 96.56C171.712 96.6453 171.552 96.784 171.232 96.976C170.912 97.1467 170.507 97.3067 170.016 97.456C169.525 97.6053 169.024 97.68 168.512 97.68H168V90.288V88.752L171.872 90.288H181.92V91.184H171.712V96.56ZM166.816 111.632C166.816 111.739 166.656 111.888 166.336 112.08C166.037 112.293 165.643 112.475 165.152 112.624C164.683 112.773 164.192 112.848 163.68 112.848H163.104V98.544V96.944L167.104 98.544H186.56V99.44H166.816V111.632ZM185.216 98.544L186.88 96.624L190.592 99.408C190.507 99.536 190.347 99.664 190.112 99.792C189.899 99.92 189.632 100.005 189.312 100.048V108.784C189.312 109.573 189.205 110.245 188.992 110.8C188.779 111.376 188.331 111.835 187.648 112.176C186.987 112.517 185.963 112.752 184.576 112.88C184.533 112.325 184.469 111.835 184.384 111.408C184.299 111.003 184.139 110.672 183.904 110.416C183.691 110.16 183.392 109.936 183.008 109.744C182.645 109.531 182.091 109.371 181.344 109.264V108.848C181.344 108.848 181.483 108.859 181.76 108.88C182.059 108.901 182.421 108.923 182.848 108.944C183.275 108.944 183.68 108.955 184.064 108.976C184.448 108.997 184.725 109.008 184.896 109.008C185.152 109.008 185.323 108.955 185.408 108.848C185.493 108.741 185.536 108.592 185.536 108.4V98.544H185.216ZM186.848 84.112C186.848 84.112 186.976 84.2187 187.232 84.432C187.509 84.624 187.861 84.88 188.288 85.2C188.715 85.52 189.163 85.8613 189.632 86.224C190.101 86.5867 190.528 86.9387 190.912 87.28C190.827 87.6213 190.528 87.792 190.016 87.792H161.6L161.312 86.864H184.608L186.848 84.112ZM215.616 103.056C217.195 103.333 218.453 103.739 219.392 104.272C220.352 104.784 221.056 105.349 221.504 105.968C221.973 106.565 222.229 107.152 222.272 107.728C222.315 108.283 222.208 108.763 221.952 109.168C221.717 109.552 221.376 109.787 220.928 109.872C220.501 109.936 220.021 109.765 219.488 109.36C219.211 108.763 218.869 108.112 218.464 107.408C218.059 106.704 217.6 105.989 217.088 105.264C216.576 104.539 216.011 103.899 215.392 103.344L215.616 103.056ZM213.216 83.76C213.173 83.9733 213.035 84.1653 212.8 84.336C212.587 84.5067 212.224 84.5813 211.712 84.56L212.128 83.92C211.957 84.3893 211.733 84.9867 211.456 85.712C211.179 86.4373 210.88 87.1947 210.56 87.984C210.24 88.7733 209.92 89.5307 209.6 90.256C209.301 90.9813 209.035 91.6 208.8 92.112H209.056L207.712 93.584L204.544 91.312C204.8 91.12 205.131 90.9387 205.536 90.768C205.963 90.576 206.347 90.448 206.688 90.384L205.472 91.504C205.728 90.992 206.016 90.3627 206.336 89.616C206.656 88.848 206.976 88.048 207.296 87.216C207.616 86.384 207.904 85.5947 208.16 84.848C208.437 84.1013 208.651 83.4827 208.8 82.992L213.216 83.76ZM222.656 98.928C222.571 99.056 222.443 99.1413 222.272 99.184C222.101 99.2053 221.845 99.1733 221.504 99.088C221.056 99.3867 220.491 99.728 219.808 100.112C219.147 100.475 218.453 100.837 217.728 101.2C217.003 101.563 216.363 101.893 215.808 102.192L215.552 101.904C215.915 101.371 216.299 100.752 216.704 100.048C217.131 99.344 217.536 98.6507 217.92 97.968C218.325 97.264 218.656 96.6773 218.912 96.208L222.656 98.928ZM204.736 96.912C206.059 97.0613 207.115 97.328 207.904 97.712C208.693 98.0747 209.259 98.5013 209.6 98.992C209.963 99.4613 210.144 99.9307 210.144 100.4C210.165 100.848 210.048 101.232 209.792 101.552C209.536 101.851 209.195 102.032 208.768 102.096C208.341 102.16 207.883 102.032 207.392 101.712C207.264 101.179 207.051 100.635 206.752 100.08C206.453 99.504 206.101 98.96 205.696 98.448C205.291 97.936 204.875 97.4987 204.448 97.136L204.736 96.912ZM202.944 106.48C203.392 106.288 204 106.032 204.768 105.712C205.536 105.371 206.4 104.976 207.36 104.528C208.341 104.059 209.333 103.589 210.336 103.12L210.464 103.408C210.016 104.027 209.429 104.816 208.704 105.776C207.979 106.715 207.104 107.792 206.08 109.008C206.037 109.499 205.845 109.829 205.504 110L202.944 106.48ZM214.848 108.848C214.848 109.595 214.752 110.245 214.56 110.8C214.368 111.376 213.973 111.835 213.376 112.176C212.779 112.539 211.861 112.773 210.624 112.88C210.603 112.368 210.549 111.92 210.464 111.536C210.4 111.152 210.283 110.853 210.112 110.64C209.941 110.384 209.685 110.171 209.344 110C209.003 109.829 208.512 109.691 207.872 109.584V109.136C207.872 109.136 207.989 109.147 208.224 109.168C208.48 109.189 208.779 109.211 209.12 109.232C209.461 109.253 209.792 109.275 210.112 109.296C210.432 109.317 210.667 109.328 210.816 109.328C211.051 109.328 211.2 109.275 211.264 109.168C211.349 109.061 211.392 108.923 211.392 108.752V94.896H214.848V108.848ZM215.872 86.224L217.376 84.592L220.576 87.248C220.363 87.4613 219.957 87.6 219.36 87.664L216.832 95.184H213.152L216.224 86.224H215.872ZM216.672 91.184V92.112H208.416L208.608 91.184H216.672ZM217.6 86.224V87.152H209.536L209.728 86.224H217.6ZM219.872 92.176C219.872 92.176 219.979 92.272 220.192 92.464C220.405 92.656 220.672 92.9013 220.992 93.2C221.333 93.4987 221.685 93.8187 222.048 94.16C222.411 94.5013 222.731 94.8213 223.008 95.12C222.923 95.4613 222.645 95.632 222.176 95.632H204.032L203.776 94.736H218.144L219.872 92.176ZM205.344 90.352C205.237 90.5227 205.013 90.64 204.672 90.704C204.352 90.768 203.947 90.672 203.456 90.416L204.384 90.256C203.936 90.9813 203.339 91.8027 202.592 92.72C201.867 93.616 201.056 94.544 200.16 95.504C199.264 96.4427 198.336 97.3493 197.376 98.224C196.437 99.0773 195.531 99.824 194.656 100.464L194.624 100.08H196.192C196.085 101.04 195.861 101.787 195.52 102.32C195.2 102.853 194.837 103.195 194.432 103.344L193.184 99.568C193.184 99.568 193.323 99.536 193.6 99.472C193.899 99.3867 194.123 99.28 194.272 99.152C194.912 98.5973 195.584 97.8507 196.288 96.912C197.013 95.9733 197.717 94.96 198.4 93.872C199.083 92.7627 199.701 91.6747 200.256 90.608C200.811 89.5413 201.237 88.592 201.536 87.76L205.344 90.352ZM202.336 84.944C202.251 85.1573 202.059 85.3173 201.76 85.424C201.461 85.5093 201.045 85.456 200.512 85.264L201.504 85.072C201.013 85.84 200.384 86.7147 199.616 87.696C198.848 88.656 198.037 89.584 197.184 90.48C196.331 91.376 195.509 92.1227 194.72 92.72L194.688 92.336H196.352C196.267 93.2533 196.085 93.9893 195.808 94.544C195.552 95.0987 195.232 95.4507 194.848 95.6L193.28 91.856C193.28 91.856 193.397 91.824 193.632 91.76C193.888 91.696 194.08 91.6107 194.208 91.504C194.571 91.12 194.944 90.576 195.328 89.872C195.733 89.1467 196.117 88.368 196.48 87.536C196.864 86.6827 197.195 85.8507 197.472 85.04C197.749 84.2293 197.952 83.5147 198.08 82.896L202.336 84.944ZM196.32 103.664C196.875 105.371 197.088 106.843 196.96 108.08C196.832 109.317 196.501 110.256 195.968 110.896C195.755 111.173 195.445 111.365 195.04 111.472C194.635 111.579 194.24 111.568 193.856 111.44C193.493 111.333 193.216 111.109 193.024 110.768C192.789 110.299 192.757 109.84 192.928 109.392C193.12 108.944 193.429 108.571 193.856 108.272C194.155 107.995 194.453 107.611 194.752 107.12C195.072 106.608 195.339 106.053 195.552 105.456C195.765 104.837 195.861 104.24 195.84 103.664H196.32ZM200.352 102.64C201.568 103.131 202.475 103.675 203.072 104.272C203.669 104.848 204.021 105.424 204.128 106C204.235 106.576 204.181 107.067 203.968 107.472C203.776 107.856 203.477 108.091 203.072 108.176C202.667 108.24 202.24 108.08 201.792 107.696C201.771 106.885 201.568 106.032 201.184 105.136C200.8 104.219 200.395 103.451 199.968 102.832L200.352 102.64ZM198.112 103.248C199.093 104.123 199.787 104.987 200.192 105.84C200.597 106.672 200.789 107.429 200.768 108.112C200.768 108.795 200.619 109.349 200.32 109.776C200.043 110.181 199.691 110.395 199.264 110.416C198.859 110.459 198.464 110.235 198.08 109.744C198.229 108.699 198.251 107.6 198.144 106.448C198.037 105.296 197.877 104.272 197.664 103.376L198.112 103.248ZM200.704 95.888C201.835 96.4427 202.699 97.0293 203.296 97.648C203.893 98.2667 204.288 98.8747 204.48 99.472C204.693 100.048 204.747 100.571 204.64 101.04C204.533 101.509 204.32 101.872 204 102.128C203.68 102.384 203.307 102.501 202.88 102.48C202.475 102.437 202.069 102.213 201.664 101.808C201.685 101.168 201.632 100.507 201.504 99.824C201.376 99.1413 201.205 98.4693 200.992 97.808C200.779 97.1467 200.565 96.5493 200.352 96.016L200.704 95.888ZM193.856 99.632C194.411 99.6107 195.179 99.5787 196.16 99.536C197.163 99.4933 198.283 99.4293 199.52 99.344C200.757 99.2587 202.027 99.1733 203.328 99.088L203.36 99.504C202.805 99.76 202.091 100.069 201.216 100.432C200.341 100.795 199.36 101.189 198.272 101.616C197.205 102.021 196.075 102.427 194.88 102.832L193.856 99.632ZM193.696 91.984C194.187 92.0053 194.837 92.0267 195.648 92.048C196.48 92.048 197.397 92.048 198.4 92.048C199.424 92.0267 200.448 92.0053 201.472 91.984L201.504 92.4C200.885 92.6987 199.979 93.104 198.784 93.616C197.611 94.128 196.331 94.64 194.944 95.152L193.696 91.984ZM245.248 84.88V91.728H241.792V84.88H245.248ZM238.112 84.88V91.728H234.72V84.88H238.112ZM248.448 87.824L250.048 86.096L253.472 88.624C253.387 88.7307 253.237 88.848 253.024 88.976C252.832 89.0827 252.587 89.168 252.288 89.232V92.56C252.288 92.624 252.117 92.72 251.776 92.848C251.435 92.9547 251.04 93.0613 250.592 93.168C250.165 93.2747 249.76 93.328 249.376 93.328H248.768V87.824H248.448ZM231.36 92.752C231.36 92.8587 231.2 92.9973 230.88 93.168C230.581 93.3173 230.197 93.4667 229.728 93.616C229.28 93.744 228.821 93.808 228.352 93.808H227.872V87.824V86.32L231.648 87.824H250.944V88.72H231.36V92.752ZM250.848 91.376V92.304H229.6V91.376H250.848ZM251.296 82.48C251.296 82.48 251.488 82.6293 251.872 82.928C252.277 83.2267 252.747 83.5893 253.28 84.016C253.835 84.4427 254.336 84.848 254.784 85.232C254.699 85.5733 254.411 85.744 253.92 85.744H225.536L225.28 84.816H249.376L251.296 82.48ZM233.888 101.648C233.781 101.968 233.451 102.171 232.896 102.256V111.984C232.875 112.048 232.715 112.155 232.416 112.304C232.139 112.453 231.787 112.592 231.36 112.72C230.933 112.848 230.485 112.912 230.016 112.912H229.344V101.936L230.528 100.4L233.888 101.648ZM235.712 98.736C235.627 98.8853 235.488 99.0027 235.296 99.088C235.125 99.152 234.848 99.1627 234.464 99.12C233.803 99.9307 232.992 100.784 232.032 101.68C231.093 102.555 230.048 103.397 228.896 104.208C227.744 105.019 226.528 105.712 225.248 106.288L224.96 105.936C225.92 105.083 226.827 104.101 227.68 102.992C228.555 101.883 229.333 100.763 230.016 99.632C230.699 98.5013 231.243 97.4667 231.648 96.528L235.712 98.736ZM235.488 94.16C235.403 94.3093 235.275 94.4267 235.104 94.512C234.933 94.576 234.667 94.576 234.304 94.512C233.685 95.1733 232.939 95.856 232.064 96.56C231.189 97.2427 230.229 97.8933 229.184 98.512C228.139 99.1093 227.051 99.6213 225.92 100.048L225.632 99.664C226.485 98.9813 227.296 98.2027 228.064 97.328C228.853 96.432 229.547 95.5253 230.144 94.608C230.763 93.6693 231.243 92.8053 231.584 92.016L235.488 94.16ZM242.176 93.2C242.133 93.3707 242.027 93.4987 241.856 93.584C241.707 93.6693 241.429 93.7013 241.024 93.68C240.533 94.5333 239.957 95.408 239.296 96.304C238.635 97.2 237.899 98.0533 237.088 98.864C236.299 99.6533 235.456 100.336 234.56 100.912L234.208 100.656C234.699 99.9733 235.147 99.152 235.552 98.192C235.979 97.232 236.363 96.24 236.704 95.216C237.045 94.1707 237.301 93.1893 237.472 92.272L242.176 93.2ZM250.944 92.592C250.944 92.592 251.115 92.7307 251.456 93.008C251.797 93.264 252.203 93.5733 252.672 93.936C253.141 94.2987 253.579 94.672 253.984 95.056C253.899 95.3973 253.611 95.568 253.12 95.568H237.76L238.304 94.64H249.248L250.944 92.592ZM236.096 104.336C236.907 105.424 237.941 106.299 239.2 106.96C240.48 107.621 241.931 108.133 243.552 108.496C245.195 108.837 246.965 109.061 248.864 109.168C250.784 109.275 252.8 109.307 254.912 109.264V109.648C254.272 109.861 253.76 110.235 253.376 110.768C252.992 111.323 252.747 111.995 252.64 112.784C249.888 112.528 247.424 112.133 245.248 111.6C243.072 111.067 241.184 110.256 239.584 109.168C238.005 108.059 236.704 106.555 235.68 104.656L236.096 104.336ZM246.752 105.04L248.8 103.248L251.904 106.064C251.712 106.32 251.275 106.459 250.592 106.48C249.397 107.867 247.904 108.997 246.112 109.872C244.341 110.747 242.357 111.397 240.16 111.824C237.963 112.272 235.605 112.56 233.088 112.688L232.96 112.208C235.093 111.824 237.088 111.323 238.944 110.704C240.8 110.085 242.432 109.307 243.84 108.368C245.248 107.429 246.347 106.32 247.136 105.04H246.752ZM243.2 104.432C242.304 105.413 241.109 106.384 239.616 107.344C238.123 108.304 236.469 109.029 234.656 109.52L234.4 109.2C235.232 108.624 236 107.973 236.704 107.248C237.429 106.523 238.059 105.765 238.592 104.976C239.147 104.187 239.584 103.44 239.904 102.736L244.672 103.792C244.608 103.984 244.469 104.133 244.256 104.24C244.043 104.347 243.691 104.411 243.2 104.432ZM248.224 105.04V105.968H238.88L239.744 105.04H248.224ZM247.968 97.072L249.536 95.44L252.8 97.872C252.715 97.9573 252.587 98.0533 252.416 98.16C252.245 98.2667 252.021 98.352 251.744 98.416V102.864C251.744 102.949 251.584 103.067 251.264 103.216C250.944 103.365 250.56 103.504 250.112 103.632C249.685 103.76 249.269 103.824 248.864 103.824H248.256V97.072H247.968ZM240.64 102.96C240.64 103.045 240.491 103.173 240.192 103.344C239.915 103.515 239.552 103.664 239.104 103.792C238.656 103.92 238.197 103.984 237.728 103.984H237.248V97.072V96.304L237.856 95.92L240.8 97.072H249.696V98H240.64V102.96ZM249.536 99.568V100.496H238.656V99.568H249.536ZM249.248 102.128V103.056H238.4V102.128H249.248ZM283.328 89.712C283.328 89.712 283.488 89.872 283.808 90.192C284.149 90.4907 284.533 90.864 284.96 91.312C285.408 91.7387 285.803 92.144 286.144 92.528C286.101 92.6987 286.005 92.8267 285.856 92.912C285.707 92.9973 285.525 93.04 285.312 93.04H263.872L263.616 92.144H281.728L283.328 89.712ZM279.84 101.264L281.376 99.504L284.896 102.096C284.811 102.224 284.651 102.352 284.416 102.48C284.181 102.608 283.904 102.704 283.584 102.768V107.024C283.584 107.728 283.488 108.347 283.296 108.88C283.125 109.413 282.752 109.84 282.176 110.16C281.621 110.48 280.747 110.704 279.552 110.832C279.531 110.32 279.488 109.872 279.424 109.488C279.36 109.104 279.243 108.784 279.072 108.528C278.901 108.293 278.677 108.091 278.4 107.92C278.144 107.728 277.739 107.589 277.184 107.504V107.056C277.184 107.056 277.28 107.067 277.472 107.088C277.664 107.109 277.899 107.131 278.176 107.152C278.453 107.152 278.72 107.163 278.976 107.184C279.253 107.184 279.467 107.184 279.616 107.184C279.829 107.184 279.968 107.141 280.032 107.056C280.117 106.971 280.16 106.832 280.16 106.64V101.264H279.84ZM276.96 98.8C276.939 98.9707 276.864 99.1307 276.736 99.28C276.629 99.408 276.405 99.4933 276.064 99.536V111.952C276.064 112.037 275.915 112.144 275.616 112.272C275.317 112.421 274.944 112.56 274.496 112.688C274.048 112.816 273.589 112.88 273.12 112.88H272.448V98.384L276.96 98.8ZM268.32 109.456C268.32 109.563 268.171 109.701 267.872 109.872C267.573 110.043 267.189 110.192 266.72 110.32C266.272 110.448 265.813 110.512 265.344 110.512H264.864V101.264V99.792L268.512 101.264H281.888V102.16H268.32V109.456ZM278.496 96.368V97.296H269.408V96.368H278.496ZM281.472 88.848C281.451 89.04 281.365 89.2107 281.216 89.36C281.067 89.5093 280.789 89.6053 280.384 89.648V97.744C280.384 97.8293 280.245 97.936 279.968 98.064C279.691 98.192 279.339 98.3093 278.912 98.416C278.485 98.5013 278.059 98.544 277.632 98.544H277.024V88.432L281.472 88.848ZM272.224 88.848C272.203 89.04 272.117 89.2107 271.968 89.36C271.819 89.5093 271.541 89.6053 271.136 89.648V98.064C271.136 98.1493 270.997 98.256 270.72 98.384C270.443 98.512 270.091 98.6293 269.664 98.736C269.237 98.8427 268.811 98.896 268.384 98.896H267.776V88.432L272.224 88.848ZM270.432 82.736C271.776 82.672 272.843 82.7787 273.632 83.056C274.443 83.312 275.019 83.6533 275.36 84.08C275.723 84.4853 275.893 84.912 275.872 85.36C275.851 85.808 275.701 86.192 275.424 86.512C275.147 86.832 274.763 87.0347 274.272 87.12C273.803 87.2053 273.291 87.0987 272.736 86.8C272.565 86.096 272.224 85.392 271.712 84.688C271.2 83.9627 270.688 83.376 270.176 82.928L270.432 82.736ZM259.872 86.736V85.584L263.968 87.056H263.392V95.632C263.392 96.9973 263.339 98.4373 263.232 99.952C263.125 101.467 262.869 102.992 262.464 104.528C262.08 106.064 261.461 107.547 260.608 108.976C259.776 110.384 258.624 111.664 257.152 112.816L256.8 112.528C257.76 110.885 258.453 109.136 258.88 107.28C259.328 105.403 259.605 103.472 259.712 101.488C259.819 99.504 259.872 97.5627 259.872 95.664V87.056V86.736ZM283.52 84.464C283.52 84.464 283.637 84.56 283.872 84.752C284.107 84.944 284.405 85.2 284.768 85.52C285.131 85.8187 285.504 86.1387 285.888 86.48C286.293 86.8213 286.667 87.152 287.008 87.472C286.923 87.8133 286.624 87.984 286.112 87.984H261.856V87.056H281.568L283.52 84.464Z" fill="white"/>
<path d="M953.692 25.05C954.736 25.122 955.573 25.284 956.203 25.536C956.833 25.788 957.301 26.085 957.607 26.427C957.913 26.769 958.084 27.111 958.12 27.453C958.156 27.777 958.093 28.065 957.931 28.317C957.769 28.569 957.535 28.731 957.229 28.803C956.923 28.857 956.59 28.776 956.23 28.56C956.104 28.164 955.897 27.759 955.609 27.345C955.321 26.931 954.979 26.544 954.583 26.184C954.205 25.806 953.836 25.5 953.476 25.266L953.692 25.05ZM960.334 45.273V46.056H952.558V45.273H960.334ZM959.119 41.277L960.172 40.17L962.44 41.871C962.368 41.979 962.233 42.078 962.035 42.168C961.855 42.258 961.648 42.321 961.414 42.357V46.704C961.414 46.758 961.315 46.839 961.117 46.947C960.919 47.055 960.685 47.154 960.415 47.244C960.163 47.316 959.92 47.352 959.686 47.352H959.362V41.277H959.119ZM953.692 47.082C953.692 47.136 953.602 47.217 953.422 47.325C953.26 47.415 953.044 47.505 952.774 47.595C952.522 47.667 952.252 47.703 951.964 47.703H951.667V41.277V40.359L953.827 41.277H960.604V42.087H953.692V47.082ZM961.981 35.364V36.174H951.1V35.364H961.981ZM960.685 31.422L961.792 30.207L964.276 32.07C964.186 32.178 964.033 32.286 963.817 32.394C963.619 32.484 963.394 32.556 963.142 32.61V36.687C963.142 36.741 963.034 36.813 962.818 36.903C962.602 36.993 962.359 37.074 962.089 37.146C961.819 37.218 961.558 37.254 961.306 37.254H960.955V31.422H960.685ZM952.261 36.822C952.261 36.876 952.171 36.957 951.991 37.065C951.811 37.173 951.577 37.272 951.289 37.362C951.019 37.434 950.74 37.47 950.452 37.47H950.128V31.422V30.45L952.396 31.422H961.981V32.232H952.261V36.822ZM948.292 49.458C948.292 49.53 948.202 49.62 948.022 49.728C947.86 49.854 947.644 49.962 947.374 50.052C947.104 50.142 946.816 50.187 946.51 50.187H946.159V38.388V37.362L948.508 38.388H965.923V39.171H948.292V49.458ZM964.87 38.388L965.923 37.146L968.434 39.036C968.362 39.126 968.218 39.225 968.002 39.333C967.804 39.441 967.57 39.513 967.3 39.549V47.487C967.3 48.009 967.228 48.459 967.084 48.837C966.958 49.215 966.67 49.521 966.22 49.755C965.788 49.989 965.113 50.151 964.195 50.241C964.159 49.917 964.096 49.629 964.006 49.377C963.934 49.125 963.808 48.918 963.628 48.756C963.43 48.594 963.16 48.45 962.818 48.324C962.494 48.198 962.026 48.099 961.414 48.027V47.649C961.414 47.649 961.54 47.658 961.792 47.676C962.062 47.694 962.386 47.712 962.764 47.73C963.142 47.73 963.493 47.739 963.817 47.757C964.159 47.775 964.402 47.784 964.546 47.784C964.78 47.784 964.933 47.748 965.005 47.676C965.095 47.586 965.14 47.451 965.14 47.271V38.388H964.87ZM965.977 26.67C965.977 26.67 966.067 26.742 966.247 26.886C966.445 27.03 966.688 27.219 966.976 27.453C967.282 27.669 967.597 27.912 967.921 28.182C968.245 28.434 968.533 28.677 968.785 28.911C968.713 29.199 968.47 29.343 968.056 29.343H944.62L944.377 28.56H964.465L965.977 26.67ZM981.07 34.5C980.998 34.698 980.836 34.869 980.584 35.013C980.332 35.139 979.981 35.148 979.531 35.04L980.206 34.743C979.954 35.607 979.63 36.561 979.234 37.605C978.856 38.631 978.433 39.693 977.965 40.791C977.515 41.871 977.038 42.915 976.534 43.923C976.03 44.913 975.535 45.804 975.049 46.596L974.941 46.245H976.237C976.165 46.893 976.03 47.424 975.832 47.838C975.634 48.234 975.391 48.486 975.103 48.594L973.915 45.921C973.915 45.921 974.014 45.885 974.212 45.813C974.428 45.741 974.581 45.66 974.671 45.57C974.995 44.922 975.328 44.094 975.67 43.086C976.03 42.078 976.372 41.007 976.696 39.873C977.02 38.739 977.299 37.641 977.533 36.579C977.785 35.517 977.974 34.581 978.1 33.771L981.07 34.5ZM988.468 25.104C989.368 25.482 990.061 25.896 990.547 26.346C991.051 26.796 991.402 27.246 991.6 27.696C991.798 28.128 991.87 28.533 991.816 28.911C991.78 29.271 991.654 29.568 991.438 29.802C991.222 30.018 990.961 30.126 990.655 30.126C990.367 30.126 990.07 29.982 989.764 29.694C989.782 29.19 989.71 28.677 989.548 28.155C989.404 27.615 989.206 27.093 988.954 26.589C988.702 26.085 988.432 25.644 988.144 25.266L988.468 25.104ZM988.36 26.184C988.306 26.328 988.207 26.445 988.063 26.535C987.919 26.625 987.676 26.67 987.334 26.67C986.992 27.786 986.542 29.037 985.984 30.423C985.444 31.809 984.787 33.186 984.013 34.554C983.257 35.922 982.384 37.155 981.394 38.253L981.043 37.983C981.583 37.065 982.069 36.057 982.501 34.959C982.933 33.861 983.32 32.745 983.662 31.611C984.004 30.459 984.292 29.343 984.526 28.263C984.778 27.165 984.976 26.166 985.12 25.266L988.36 26.184ZM985.93 49.539C985.93 49.611 985.777 49.737 985.471 49.917C985.165 50.097 984.76 50.187 984.256 50.187H983.905V31.881L984.823 30.126L986.281 30.72H985.93V49.539ZM990.79 30.72V47.811H988.792V30.72H990.79ZM993.868 45.651C993.868 45.651 993.94 45.723 994.084 45.867C994.246 45.993 994.453 46.155 994.705 46.353C994.957 46.551 995.218 46.776 995.488 47.028C995.758 47.262 996.001 47.487 996.217 47.703C996.163 47.991 995.929 48.135 995.515 48.135H985.039V47.352H992.572L993.868 45.651ZM993.355 39.927C993.355 39.927 993.481 40.035 993.733 40.251C993.985 40.449 994.273 40.701 994.597 41.007C994.939 41.295 995.254 41.574 995.542 41.844C995.47 42.132 995.236 42.276 994.84 42.276H985.147V41.493H992.194L993.355 39.927ZM993.193 34.473C993.193 34.473 993.319 34.581 993.571 34.797C993.823 34.995 994.12 35.247 994.462 35.553C994.804 35.841 995.11 36.12 995.38 36.39C995.308 36.678 995.074 36.822 994.678 36.822H984.985V36.039H992.032L993.193 34.473ZM993.544 29.073C993.544 29.073 993.67 29.19 993.922 29.424C994.192 29.64 994.507 29.901 994.867 30.207C995.245 30.495 995.578 30.783 995.866 31.071C995.794 31.359 995.56 31.503 995.164 31.503H985.066V30.72H992.275L993.544 29.073ZM974.32 45.948C974.806 45.876 975.427 45.777 976.183 45.651C976.957 45.525 977.812 45.372 978.748 45.192C979.684 44.994 980.62 44.787 981.556 44.571L981.664 44.949C980.998 45.291 980.08 45.75 978.91 46.326C977.758 46.884 976.525 47.424 975.211 47.946L974.32 45.948ZM978.829 25.536C978.793 25.734 978.694 25.896 978.532 26.022C978.388 26.13 978.109 26.211 977.695 26.265C977.587 27.543 977.443 28.92 977.263 30.396C977.101 31.854 976.867 33.366 976.561 34.932C976.273 36.48 975.895 38.037 975.427 39.603C974.959 41.151 974.383 42.654 973.699 44.112C973.033 45.552 972.223 46.893 971.269 48.135L970.864 47.919C971.71 46.335 972.421 44.589 972.997 42.681C973.573 40.755 974.032 38.784 974.374 36.768C974.716 34.734 974.968 32.736 975.13 30.774C975.292 28.812 975.382 26.985 975.4 25.293L978.829 25.536ZM979.288 40.602C980.206 41.394 980.926 42.168 981.448 42.924C981.988 43.68 982.366 44.391 982.582 45.057C982.816 45.723 982.924 46.308 982.906 46.812C982.906 47.316 982.816 47.721 982.636 48.027C982.474 48.333 982.249 48.495 981.961 48.513C981.691 48.531 981.403 48.387 981.097 48.081C981.079 47.307 980.953 46.479 980.719 45.597C980.503 44.715 980.233 43.851 979.909 43.005C979.585 42.159 979.243 41.403 978.883 40.737L979.288 40.602ZM981.097 28.992C981.097 28.992 981.232 29.1 981.502 29.316C981.772 29.532 982.087 29.802 982.447 30.126C982.825 30.432 983.158 30.729 983.446 31.017C983.374 31.305 983.14 31.449 982.744 31.449H971.269L971.053 30.639H979.855L981.097 28.992ZM1017.76 37.416C1018.03 37.74 1018.26 38.028 1018.44 38.28C1018.62 38.532 1018.81 38.658 1019.01 38.658C1019.24 38.658 1019.42 38.586 1019.55 38.442C1019.69 38.298 1019.76 38.1 1019.76 37.848C1019.76 37.596 1019.69 37.344 1019.55 37.092C1019.42 36.84 1019.2 36.57 1018.9 36.282C1018.54 35.94 1018.08 35.625 1017.52 35.337C1016.98 35.031 1016.36 34.743 1015.66 34.473L1015.31 34.932C1015.92 35.382 1016.41 35.823 1016.79 36.255C1017.17 36.687 1017.49 37.074 1017.76 37.416ZM1020.22 35.391C1020.51 35.733 1020.74 36.03 1020.92 36.282C1021.1 36.516 1021.3 36.633 1021.52 36.633C1021.75 36.633 1021.92 36.57 1022.03 36.444C1022.16 36.3 1022.22 36.111 1022.22 35.877C1022.22 35.571 1022.14 35.283 1021.98 35.013C1021.83 34.743 1021.59 34.473 1021.25 34.203C1020.9 33.915 1020.45 33.654 1019.9 33.42C1019.36 33.168 1018.74 32.925 1018.03 32.691L1017.74 33.15C1018.37 33.6 1018.86 34.005 1019.22 34.365C1019.58 34.707 1019.91 35.049 1020.22 35.391ZM998.971 30.99C999.169 31.332 999.421 31.647 999.727 31.935C1000.05 32.223 1000.37 32.367 1000.67 32.367C1001.05 32.367 1001.61 32.295 1002.35 32.151C1003.08 31.989 1003.95 31.782 1004.94 31.53C1005.95 31.278 1007.01 31.008 1008.12 30.72C1009.26 30.432 1010.39 30.153 1011.53 29.883C1012.55 29.631 1013.48 29.424 1014.31 29.262C1015.14 29.082 1015.85 28.947 1016.44 28.857C1017.03 28.749 1017.48 28.695 1017.76 28.695C1018.14 28.695 1018.51 28.722 1018.87 28.776C1019.25 28.83 1019.56 28.92 1019.82 29.046C1020.12 29.19 1020.36 29.352 1020.52 29.532C1020.68 29.712 1020.76 29.919 1020.76 30.153C1020.76 30.387 1020.66 30.585 1020.46 30.747C1020.28 30.909 1020.02 30.99 1019.68 30.99C1019.39 30.99 1019.05 30.981 1018.65 30.963C1018.26 30.927 1017.82 30.909 1017.33 30.909C1016.7 30.909 1015.97 30.972 1015.14 31.098C1014.32 31.224 1013.56 31.512 1012.88 31.962C1012.59 32.124 1012.23 32.412 1011.8 32.826C1011.38 33.24 1010.97 33.78 1010.55 34.446C1010.16 35.112 1009.83 35.922 1009.56 36.876C1009.29 37.83 1009.15 38.955 1009.15 40.251C1009.15 41.259 1009.27 42.078 1009.5 42.708C1009.75 43.32 1010.05 43.815 1010.39 44.193C1010.75 44.553 1011.1 44.832 1011.45 45.03C1012.02 45.354 1012.63 45.579 1013.28 45.705C1013.93 45.813 1014.54 45.876 1015.12 45.894C1015.69 45.894 1016.14 45.894 1016.47 45.894C1016.72 45.894 1016.97 45.957 1017.22 46.083C1017.49 46.191 1017.72 46.344 1017.9 46.542C1018.1 46.74 1018.2 46.965 1018.2 47.217C1018.2 47.487 1018.1 47.703 1017.9 47.865C1017.72 48.027 1017.47 48.135 1017.14 48.189C1016.82 48.261 1016.45 48.297 1016.04 48.297C1015.48 48.297 1014.85 48.261 1014.15 48.189C1013.44 48.135 1012.73 48.009 1012.01 47.811C1011.31 47.595 1010.66 47.271 1010.07 46.839C1009.2 46.227 1008.53 45.462 1008.04 44.544C1007.58 43.608 1007.34 42.348 1007.34 40.764C1007.34 39.648 1007.49 38.532 1007.77 37.416C1008.06 36.3 1008.52 35.238 1009.15 34.23C1009.78 33.222 1010.61 32.331 1011.63 31.557C1011.72 31.485 1011.76 31.422 1011.74 31.368C1011.72 31.314 1011.63 31.305 1011.47 31.341C1010.46 31.575 1009.4 31.863 1008.29 32.205C1007.19 32.547 1006.17 32.889 1005.24 33.231C1004.3 33.573 1003.55 33.879 1002.99 34.149C1002.72 34.293 1002.45 34.455 1002.16 34.635C1001.89 34.815 1001.6 34.905 1001.29 34.905C1001.02 34.905 1000.74 34.833 1000.43 34.689C1000.14 34.545 999.853 34.356 999.565 34.122C999.295 33.87 999.061 33.609 998.863 33.339C998.683 33.051 998.566 32.772 998.512 32.502C998.476 32.268 998.467 32.034 998.485 31.8C998.503 31.566 998.512 31.35 998.512 31.152L998.971 30.99ZM1040.9 31.584C1040.9 31.584 1041 31.656 1041.2 31.8C1041.4 31.944 1041.63 32.133 1041.9 32.367C1042.19 32.583 1042.44 32.808 1042.66 33.042C1042.6 33.33 1042.39 33.474 1042.01 33.474H1033.13L1032.91 32.691H1039.93L1040.9 31.584ZM1040.9 28.695C1040.9 28.695 1041 28.776 1041.2 28.938C1041.42 29.082 1041.66 29.262 1041.93 29.478C1042.22 29.694 1042.47 29.919 1042.68 30.153C1042.63 30.441 1042.41 30.585 1042.01 30.585H1033.13L1032.91 29.802H1039.96L1040.9 28.695ZM1039.82 38.955C1040.18 40.233 1040.68 41.358 1041.31 42.33C1041.96 43.302 1042.72 44.148 1043.6 44.868C1044.48 45.588 1045.47 46.2 1046.57 46.704C1047.69 47.208 1048.89 47.622 1050.19 47.946L1050.14 48.243C1049.69 48.315 1049.3 48.513 1048.98 48.837C1048.65 49.161 1048.41 49.593 1048.25 50.133C1046.64 49.485 1045.25 48.684 1044.06 47.73C1042.89 46.776 1041.92 45.606 1041.15 44.22C1040.39 42.816 1039.8 41.133 1039.39 39.171L1039.82 38.955ZM1045.09 38.847L1046.44 37.551L1048.71 39.549C1048.63 39.675 1048.52 39.765 1048.35 39.819C1048.19 39.873 1047.96 39.9 1047.65 39.9C1047.15 41.322 1046.46 42.672 1045.6 43.95C1044.74 45.228 1043.66 46.38 1042.36 47.406C1041.06 48.414 1039.51 49.26 1037.69 49.944L1037.45 49.566C1038.89 48.774 1040.13 47.82 1041.17 46.704C1042.23 45.588 1043.12 44.364 1043.82 43.032C1044.52 41.7 1045.04 40.305 1045.38 38.847H1045.09ZM1025.38 46.11C1026.06 46.056 1026.99 45.975 1028.16 45.867C1029.33 45.741 1030.65 45.606 1032.13 45.462C1033.62 45.3 1035.16 45.129 1036.74 44.949L1036.8 45.354C1035.72 45.696 1034.4 46.092 1032.83 46.542C1031.26 46.992 1029.39 47.505 1027.21 48.081C1027.16 48.243 1027.07 48.369 1026.94 48.459C1026.82 48.567 1026.7 48.639 1026.59 48.675L1025.38 46.11ZM1030.37 35.769V46.407L1028.29 46.812V35.769H1030.37ZM1037.2 49.62C1037.2 49.692 1037.05 49.809 1036.74 49.971C1036.44 50.133 1036.02 50.214 1035.48 50.214H1035.12V35.769H1037.2V49.62ZM1046.71 38.847V39.657H1037.99L1037.74 38.847H1046.71ZM1047.19 33.933C1047.19 33.933 1047.27 34.005 1047.44 34.149C1047.62 34.293 1047.84 34.473 1048.11 34.689C1048.38 34.905 1048.66 35.148 1048.95 35.418C1049.25 35.67 1049.53 35.913 1049.79 36.147C1049.71 36.435 1049.47 36.579 1049.06 36.579H1025.51L1025.27 35.769H1045.76L1047.19 33.933ZM1031.61 34.365C1031.61 34.419 1031.52 34.509 1031.34 34.635C1031.16 34.743 1030.94 34.842 1030.67 34.932C1030.4 35.004 1030.11 35.04 1029.81 35.04H1029.48V26.859V25.86L1031.8 26.859H1045.09V27.642H1031.61V34.365ZM1043.36 26.859L1044.49 25.617L1046.95 27.48C1046.86 27.588 1046.72 27.696 1046.52 27.804C1046.32 27.894 1046.08 27.966 1045.79 28.02V34.149C1045.79 34.203 1045.68 34.275 1045.47 34.365C1045.27 34.455 1045.02 34.545 1044.74 34.635C1044.47 34.707 1044.21 34.743 1043.98 34.743H1043.63V26.859H1043.36ZM1036.07 42.222V43.005H1029.35V42.222H1036.07ZM1036.07 38.955V39.765H1029.35V38.955H1036.07ZM1061.02 27.399L1061.04 26.859C1061.3 26.805 1061.55 26.76 1061.8 26.724C1062.07 26.688 1062.36 26.67 1062.66 26.67C1063.01 26.67 1063.36 26.751 1063.72 26.913C1064.08 27.057 1064.41 27.246 1064.72 27.48C1065.02 27.714 1065.27 27.957 1065.45 28.209C1065.64 28.461 1065.74 28.686 1065.74 28.884C1065.74 29.154 1065.66 29.379 1065.5 29.559C1065.34 29.721 1065.18 29.964 1065.01 30.288C1064.82 30.72 1064.6 31.224 1064.37 31.8C1064.15 32.358 1063.89 33.105 1063.58 34.041C1063.38 34.617 1063.16 35.319 1062.91 36.147C1062.67 36.975 1062.44 37.857 1062.21 38.793C1061.97 39.711 1061.77 40.611 1061.61 41.493C1061.47 42.357 1061.4 43.113 1061.4 43.761C1061.4 45.093 1061.78 46.074 1062.56 46.704C1063.35 47.316 1064.37 47.622 1065.61 47.622C1066.74 47.622 1067.7 47.406 1068.47 46.974C1069.26 46.524 1069.86 45.948 1070.25 45.246C1070.65 44.544 1070.85 43.797 1070.85 43.005C1070.85 42.015 1070.67 41.142 1070.31 40.386C1069.95 39.63 1069.45 38.937 1068.82 38.307C1068.19 37.677 1067.46 37.056 1066.63 36.444L1066.98 36.012C1068.41 36.678 1069.56 37.407 1070.44 38.199C1071.34 38.973 1072 39.819 1072.41 40.737C1072.83 41.637 1073.03 42.591 1073.03 43.599C1073.03 44.265 1072.89 44.94 1072.6 45.624C1072.31 46.308 1071.87 46.938 1071.28 47.514C1070.7 48.09 1069.96 48.549 1069.06 48.891C1068.18 49.251 1067.13 49.431 1065.9 49.431C1064.63 49.431 1063.56 49.188 1062.69 48.702C1061.85 48.234 1061.21 47.586 1060.77 46.758C1060.34 45.912 1060.13 44.94 1060.13 43.842C1060.13 43.158 1060.18 42.366 1060.29 41.466C1060.41 40.566 1060.57 39.639 1060.75 38.685C1060.93 37.713 1061.11 36.804 1061.29 35.958C1061.49 35.094 1061.66 34.374 1061.8 33.798C1062.02 33.06 1062.21 32.376 1062.37 31.746C1062.55 31.116 1062.7 30.558 1062.83 30.072C1062.95 29.586 1063.02 29.208 1063.04 28.938C1063.06 28.614 1063.02 28.38 1062.91 28.236C1062.8 28.092 1062.62 27.957 1062.37 27.831C1062.17 27.741 1061.94 27.66 1061.69 27.588C1061.46 27.498 1061.23 27.435 1061.02 27.399ZM1056.59 29.964C1056.93 30.432 1057.29 30.855 1057.67 31.233C1058.05 31.611 1058.52 31.917 1059.07 32.151C1060.1 32.547 1061.08 32.763 1062.02 32.799C1062.97 32.817 1063.84 32.862 1064.63 32.934C1065.14 32.988 1065.5 33.132 1065.72 33.366C1065.93 33.6 1066.04 33.852 1066.04 34.122C1066.04 34.392 1065.94 34.59 1065.74 34.716C1065.56 34.842 1065.29 34.914 1064.93 34.932C1064.7 34.95 1064.38 34.95 1063.99 34.932C1063.61 34.914 1063.22 34.896 1062.83 34.878C1062.43 34.842 1062.09 34.824 1061.8 34.824C1061.35 34.824 1060.87 34.905 1060.37 35.067C1059.87 35.229 1059.39 35.454 1058.94 35.742C1058.49 36.03 1058.12 36.345 1057.83 36.687C1057.56 37.011 1057.43 37.335 1057.43 37.659C1057.43 37.947 1057.53 38.226 1057.75 38.496C1057.98 38.748 1058.35 38.973 1058.86 39.171C1059.36 39.369 1060.05 39.522 1060.91 39.63C1061.79 39.738 1062.58 39.783 1063.29 39.765C1063.99 39.729 1064.53 39.729 1064.91 39.765C1065.28 39.783 1065.58 39.882 1065.8 40.062C1066.01 40.224 1066.12 40.467 1066.12 40.791C1066.12 41.079 1066.01 41.313 1065.8 41.493C1065.58 41.673 1065.2 41.79 1064.66 41.844C1064.23 41.88 1063.65 41.889 1062.93 41.871C1062.21 41.835 1061.45 41.745 1060.64 41.601C1059.27 41.331 1058.21 40.881 1057.45 40.251C1056.7 39.603 1056.32 38.865 1056.32 38.037C1056.32 37.533 1056.47 37.038 1056.78 36.552C1057.1 36.048 1057.53 35.571 1058.07 35.121C1058.61 34.671 1059.21 34.284 1059.86 33.96C1059.51 33.852 1059.19 33.735 1058.88 33.609C1058.6 33.483 1058.28 33.312 1057.94 33.096C1057.47 32.772 1057.09 32.394 1056.81 31.962C1056.54 31.512 1056.32 30.927 1056.16 30.207L1056.59 29.964ZM1092.9 47.757C1092.9 48.243 1092.83 48.657 1092.69 48.999C1092.56 49.359 1092.29 49.638 1091.88 49.836C1091.48 50.052 1090.85 50.196 1089.99 50.268C1089.99 50.016 1089.95 49.773 1089.88 49.539C1089.81 49.323 1089.7 49.143 1089.56 48.999C1089.39 48.873 1089.16 48.756 1088.85 48.648C1088.57 48.558 1088.15 48.477 1087.61 48.405V48.027C1087.61 48.027 1087.72 48.036 1087.94 48.054C1088.17 48.072 1088.44 48.081 1088.75 48.081C1089.07 48.099 1089.37 48.117 1089.64 48.135C1089.93 48.153 1090.13 48.162 1090.26 48.162C1090.47 48.162 1090.61 48.126 1090.66 48.054C1090.74 47.982 1090.77 47.874 1090.77 47.73V43.707H1092.9V47.757ZM1098.55 39.387C1098.44 39.531 1098.24 39.612 1097.95 39.63C1097.68 39.648 1097.35 39.531 1096.95 39.279L1097.85 39.225C1097.09 39.603 1096.15 40.017 1095.04 40.467C1093.92 40.899 1092.69 41.34 1091.34 41.79C1089.99 42.24 1088.6 42.672 1087.18 43.086C1085.78 43.482 1084.41 43.824 1083.08 44.112L1083.05 43.896H1083.97C1083.91 44.454 1083.8 44.895 1083.62 45.219C1083.45 45.525 1083.27 45.723 1083.08 45.813L1081.89 43.518C1081.89 43.518 1082.01 43.509 1082.24 43.491C1082.49 43.473 1082.69 43.437 1082.83 43.383C1084 43.113 1085.24 42.744 1086.53 42.276C1087.85 41.808 1089.13 41.304 1090.39 40.764C1091.65 40.206 1092.81 39.657 1093.85 39.117C1094.91 38.559 1095.78 38.064 1096.44 37.632L1098.55 39.387ZM1092.69 38.388C1092.58 38.478 1092.4 38.523 1092.15 38.523C1091.9 38.523 1091.6 38.379 1091.26 38.091L1092.04 38.064C1091.55 38.316 1090.9 38.604 1090.07 38.928C1089.26 39.234 1088.38 39.54 1087.42 39.846C1086.47 40.134 1085.53 40.377 1084.62 40.575V40.278H1085.48C1085.43 40.746 1085.33 41.115 1085.18 41.385C1085.04 41.655 1084.88 41.835 1084.7 41.925L1083.67 39.954C1083.67 39.954 1083.75 39.945 1083.91 39.927C1084.09 39.891 1084.23 39.864 1084.32 39.846C1084.91 39.684 1085.52 39.468 1086.15 39.198C1086.8 38.928 1087.43 38.631 1088.04 38.307C1088.67 37.965 1089.24 37.632 1089.75 37.308C1090.25 36.984 1090.66 36.705 1090.99 36.471L1092.69 38.388ZM1082.46 43.68C1083.18 43.662 1084.12 43.635 1085.29 43.599C1086.46 43.545 1087.79 43.482 1089.29 43.41C1090.78 43.338 1092.38 43.257 1094.09 43.167C1095.8 43.059 1097.55 42.951 1099.33 42.843L1099.36 43.356C1097.5 43.608 1095.18 43.914 1092.39 44.274C1089.6 44.616 1086.51 44.958 1083.1 45.3L1082.46 43.68ZM1084.16 40.197C1084.71 40.197 1085.46 40.188 1086.4 40.17C1087.33 40.134 1088.39 40.098 1089.56 40.062C1090.74 40.026 1091.96 39.981 1093.2 39.927L1093.23 40.413C1092.31 40.557 1091.08 40.737 1089.53 40.953C1087.98 41.169 1086.36 41.367 1084.67 41.547L1084.16 40.197ZM1096.23 40.764C1097.36 41.034 1098.29 41.367 1099.01 41.763C1099.73 42.141 1100.28 42.537 1100.68 42.951C1101.08 43.365 1101.33 43.752 1101.44 44.112C1101.54 44.472 1101.54 44.778 1101.44 45.03C1101.35 45.282 1101.18 45.453 1100.92 45.543C1100.67 45.615 1100.38 45.57 1100.06 45.408C1099.83 44.922 1099.47 44.409 1098.98 43.869C1098.51 43.329 1098.01 42.807 1097.47 42.303C1096.93 41.781 1096.42 41.349 1095.96 41.007L1096.23 40.764ZM1094.96 45.435C1096.47 45.543 1097.71 45.741 1098.68 46.029C1099.67 46.299 1100.45 46.623 1101 47.001C1101.58 47.379 1101.97 47.757 1102.17 48.135C1102.38 48.531 1102.45 48.873 1102.38 49.161C1102.33 49.467 1102.17 49.683 1101.92 49.809C1101.67 49.953 1101.36 49.962 1100.98 49.836C1100.67 49.458 1100.22 49.026 1099.63 48.54C1099.03 48.072 1098.32 47.604 1097.49 47.136C1096.68 46.65 1095.79 46.218 1094.82 45.84L1094.96 45.435ZM1088.37 46.488C1088.3 46.614 1088.19 46.704 1088.04 46.758C1087.92 46.794 1087.7 46.785 1087.4 46.731C1086.84 47.163 1086.13 47.586 1085.26 48C1084.42 48.432 1083.5 48.828 1082.51 49.188C1081.54 49.548 1080.57 49.836 1079.62 50.052L1079.35 49.701C1080.16 49.323 1080.98 48.882 1081.81 48.378C1082.65 47.874 1083.44 47.343 1084.16 46.785C1084.88 46.227 1085.45 45.705 1085.88 45.219L1088.37 46.488ZM1084.48 29.37H1083.75L1083.97 29.262C1083.91 29.712 1083.83 30.234 1083.72 30.828C1083.62 31.422 1083.5 32.043 1083.37 32.691C1083.25 33.321 1083.11 33.933 1082.97 34.527C1082.84 35.121 1082.73 35.643 1082.62 36.093H1082.86L1081.97 37.038L1080 35.526C1080.2 35.4 1080.44 35.274 1080.73 35.148C1081.02 35.022 1081.28 34.941 1081.51 34.905L1080.89 35.85C1081 35.436 1081.11 34.923 1081.24 34.311C1081.38 33.699 1081.52 33.042 1081.65 32.34C1081.79 31.62 1081.91 30.927 1082 30.261C1082.1 29.577 1082.19 28.992 1082.24 28.506L1084.48 29.37ZM1085.21 25.968C1085.16 26.094 1085.06 26.184 1084.91 26.238C1084.79 26.292 1084.56 26.31 1084.24 26.292C1083.68 27.12 1082.97 27.975 1082.1 28.857C1081.24 29.739 1080.33 30.45 1079.38 30.99L1079.05 30.72C1079.5 30.27 1079.94 29.73 1080.35 29.1C1080.76 28.47 1081.14 27.813 1081.48 27.129C1081.84 26.445 1082.14 25.797 1082.37 25.185L1085.21 25.968ZM1084.32 33.339C1084.86 33.303 1085.36 33.33 1085.83 33.42C1086.32 33.492 1086.7 33.663 1086.99 33.933C1087.17 34.095 1087.26 34.275 1087.26 34.473C1087.26 34.671 1087.21 34.851 1087.1 35.013C1086.99 35.157 1086.84 35.238 1086.64 35.256C1086.46 35.274 1086.25 35.193 1086.02 35.013C1085.86 34.779 1085.61 34.527 1085.29 34.257C1084.97 33.987 1084.62 33.798 1084.24 33.69L1084.32 33.339ZM1084.62 30.558C1085.12 30.486 1085.61 30.486 1086.07 30.558C1086.54 30.612 1086.94 30.756 1087.26 30.99C1087.44 31.134 1087.54 31.305 1087.56 31.503C1087.59 31.701 1087.57 31.881 1087.48 32.043C1087.39 32.187 1087.24 32.277 1087.05 32.313C1086.87 32.349 1086.65 32.286 1086.4 32.124C1086.2 31.89 1085.93 31.656 1085.59 31.422C1085.25 31.188 1084.89 31.026 1084.53 30.936L1084.62 30.558ZM1101.49 27.075C1101.49 27.075 1101.56 27.138 1101.71 27.264C1101.87 27.372 1102.07 27.525 1102.3 27.723C1102.53 27.921 1102.78 28.137 1103.03 28.371C1103.3 28.605 1103.55 28.83 1103.79 29.046C1103.71 29.334 1103.48 29.478 1103.08 29.478H1094.31V28.668H1100.22L1101.49 27.075ZM1091.31 34.203C1091.31 34.203 1091.39 34.284 1091.55 34.446C1091.73 34.608 1091.94 34.797 1092.18 35.013C1092.43 35.229 1092.64 35.445 1092.82 35.661C1092.77 35.949 1092.55 36.093 1092.18 36.093H1082.13V35.31H1090.47L1091.31 34.203ZM1090.26 25.86C1090.26 25.86 1090.38 25.959 1090.61 26.157C1090.86 26.337 1091.15 26.562 1091.47 26.832C1091.82 27.102 1092.12 27.372 1092.39 27.642C1092.32 27.93 1092.09 28.074 1091.69 28.074H1082.19V27.291H1089.12L1090.26 25.86ZM1097.66 26.157C1097.6 26.319 1097.49 26.454 1097.33 26.562C1097.17 26.652 1096.95 26.697 1096.66 26.697C1096.17 27.849 1095.57 28.911 1094.85 29.883C1094.15 30.855 1093.39 31.656 1092.58 32.286L1092.2 32.016C1092.74 31.206 1093.25 30.216 1093.71 29.046C1094.18 27.858 1094.55 26.616 1094.82 25.32L1097.66 26.157ZM1091.58 31.017C1091.58 31.017 1091.67 31.107 1091.85 31.287C1092.03 31.449 1092.24 31.656 1092.47 31.908C1092.71 32.142 1092.91 32.376 1093.09 32.61C1093.04 32.898 1092.82 33.042 1092.45 33.042H1079.46L1079.24 32.232H1090.77L1091.58 31.017ZM1090.04 29.37V30.18H1083.1V29.37H1090.04ZM1094.39 29.127C1094.89 30.405 1095.55 31.539 1096.36 32.529C1097.19 33.501 1098.22 34.32 1099.47 34.986C1100.71 35.634 1102.21 36.129 1103.97 36.471L1103.92 36.768C1103.54 36.876 1103.24 37.074 1103 37.362C1102.77 37.632 1102.61 38.001 1102.52 38.469C1100.88 37.947 1099.52 37.272 1098.44 36.444C1097.36 35.616 1096.48 34.635 1095.79 33.501C1095.11 32.367 1094.52 31.089 1094.04 29.667L1094.39 29.127ZM1101.71 28.776C1101.17 31.062 1100.14 32.934 1098.63 34.392C1097.13 35.832 1095.12 36.957 1092.58 37.767L1092.39 37.362C1094.48 36.39 1096.08 35.202 1097.2 33.798C1098.31 32.376 1099.04 30.702 1099.38 28.776H1101.71ZM1088.67 29.37L1089.58 28.371L1091.5 29.964C1091.32 30.162 1090.98 30.288 1090.47 30.342C1090.4 31.926 1090.29 33.222 1090.15 34.23C1090.01 35.238 1089.83 36.03 1089.61 36.606C1089.39 37.164 1089.13 37.56 1088.83 37.794C1088.52 38.046 1088.17 38.208 1087.77 38.28C1087.4 38.334 1087 38.352 1086.59 38.334C1086.59 38.154 1086.56 38.01 1086.51 37.902C1086.47 37.776 1086.39 37.659 1086.26 37.551C1086.14 37.461 1085.95 37.38 1085.7 37.308C1085.46 37.236 1085.2 37.182 1084.91 37.146V36.687C1085.24 36.705 1085.61 36.732 1086.02 36.768C1086.43 36.786 1086.76 36.795 1086.99 36.795C1087.33 36.795 1087.59 36.723 1087.75 36.579C1088.02 36.327 1088.26 35.634 1088.48 34.5C1088.69 33.366 1088.85 31.656 1088.94 29.37H1088.67ZM1125.57 25.563C1125.56 25.725 1125.48 25.86 1125.36 25.968C1125.25 26.058 1125.05 26.121 1124.76 26.157V30.882C1124.76 30.954 1124.67 31.035 1124.49 31.125C1124.31 31.215 1124.09 31.296 1123.82 31.368C1123.55 31.44 1123.27 31.476 1122.98 31.476H1122.58V25.266L1125.57 25.563ZM1114.37 25.617C1114.35 25.761 1114.28 25.887 1114.15 25.995C1114.05 26.103 1113.85 26.175 1113.56 26.211V30.936C1113.56 30.99 1113.47 31.071 1113.29 31.179C1113.11 31.269 1112.88 31.35 1112.59 31.422C1112.32 31.494 1112.05 31.53 1111.78 31.53H1111.35V25.32L1114.37 25.617ZM1128.79 26.508C1128.79 26.508 1128.91 26.616 1129.17 26.832C1129.42 27.048 1129.71 27.309 1130.06 27.615C1130.42 27.921 1130.75 28.218 1131.06 28.506C1130.98 28.794 1130.74 28.938 1130.33 28.938H1119.34L1119.12 28.155H1127.55L1128.79 26.508ZM1116.21 26.508C1116.21 26.508 1116.33 26.616 1116.58 26.832C1116.85 27.048 1117.16 27.309 1117.5 27.615C1117.86 27.921 1118.18 28.218 1118.45 28.506C1118.39 28.794 1118.17 28.938 1117.77 28.938H1106.22L1106 28.155H1114.99L1116.21 26.508ZM1115.04 34.932C1115.04 34.932 1115.16 35.031 1115.4 35.229C1115.63 35.427 1115.91 35.67 1116.23 35.958C1116.57 36.228 1116.87 36.498 1117.12 36.768C1117.05 37.056 1116.82 37.2 1116.42 37.2H1107L1106.78 36.417H1113.91L1115.04 34.932ZM1113.78 33.582C1113.76 33.744 1113.69 33.879 1113.56 33.987C1113.45 34.095 1113.24 34.176 1112.94 34.23V39.738C1112.94 39.81 1112.86 39.891 1112.7 39.981C1112.53 40.071 1112.33 40.152 1112.07 40.224C1111.84 40.296 1111.6 40.332 1111.35 40.332H1110.97V33.285L1113.78 33.582ZM1128.22 34.797C1128.22 34.797 1128.34 34.896 1128.57 35.094C1128.81 35.274 1129.08 35.508 1129.41 35.796C1129.75 36.084 1130.06 36.363 1130.33 36.633C1130.25 36.921 1130.02 37.065 1129.62 37.065H1120.5L1120.28 36.282H1127.09L1128.22 34.797ZM1125.93 33.582C1125.91 33.744 1125.84 33.879 1125.71 33.987C1125.6 34.095 1125.39 34.176 1125.09 34.23V39.63C1125.09 39.684 1125.01 39.756 1124.85 39.846C1124.68 39.936 1124.48 40.017 1124.22 40.089C1123.99 40.143 1123.75 40.17 1123.5 40.17H1123.12V33.285L1125.93 33.582ZM1119.55 49.512C1119.54 49.602 1119.36 49.728 1119.04 49.89C1118.73 50.07 1118.3 50.16 1117.74 50.16H1117.39V32.232H1119.55V49.512ZM1128.17 39.333C1128.17 39.333 1128.25 39.396 1128.41 39.522C1128.57 39.648 1128.78 39.819 1129.03 40.035C1129.28 40.233 1129.54 40.449 1129.81 40.683C1130.1 40.899 1130.35 41.115 1130.57 41.331C1130.52 41.619 1130.28 41.763 1129.87 41.763H1107L1106.76 40.953H1126.87L1128.17 39.333ZM1127.44 30.423C1127.44 30.423 1127.56 30.522 1127.82 30.72C1128.09 30.918 1128.4 31.161 1128.76 31.449C1129.14 31.737 1129.48 32.016 1129.79 32.286C1129.71 32.574 1129.47 32.718 1129.06 32.718H1107.57L1107.35 31.908H1126.17L1127.44 30.423ZM1127.25 43.086C1127.25 43.086 1127.33 43.158 1127.49 43.302C1127.67 43.428 1127.9 43.599 1128.17 43.815C1128.45 44.013 1128.75 44.238 1129.06 44.49C1129.36 44.742 1129.64 44.985 1129.89 45.219C1129.82 45.507 1129.59 45.651 1129.19 45.651H1108.11L1107.89 44.841H1125.79L1127.25 43.086ZM1149.33 32.205V31.611C1150.04 31.467 1150.73 31.413 1151.41 31.449C1152.1 31.485 1152.7 31.602 1153.22 31.8C1154.07 32.088 1154.72 32.493 1155.17 33.015C1155.62 33.537 1155.84 34.104 1155.84 34.716C1155.84 35.04 1155.77 35.31 1155.63 35.526C1155.48 35.742 1155.26 35.85 1154.95 35.85C1154.7 35.85 1154.46 35.805 1154.22 35.715C1154.01 35.625 1153.75 35.535 1153.47 35.445C1153.18 35.355 1152.83 35.319 1152.41 35.337C1151.96 35.391 1151.52 35.499 1151.09 35.661C1150.66 35.823 1150.31 36.057 1150.04 36.363C1149.77 36.651 1149.6 37.011 1149.52 37.443C1149.47 37.875 1149.46 38.343 1149.5 38.847C1149.53 39.171 1149.59 39.621 1149.66 40.197C1149.75 40.755 1149.84 41.367 1149.93 42.033C1150.04 42.699 1150.13 43.356 1150.2 44.004C1150.27 44.652 1150.31 45.228 1150.31 45.732C1150.31 46.866 1149.9 47.739 1149.09 48.351C1148.28 48.981 1147.17 49.296 1145.74 49.296C1144.32 49.296 1143.22 48.99 1142.45 48.378C1141.69 47.766 1141.32 47.037 1141.32 46.191C1141.32 45.489 1141.54 44.859 1141.99 44.301C1142.46 43.743 1143.12 43.302 1143.99 42.978C1144.87 42.636 1145.92 42.465 1147.15 42.465C1148.68 42.465 1150.02 42.69 1151.17 43.14C1152.32 43.572 1153.28 44.031 1154.03 44.517C1154.73 44.949 1155.27 45.381 1155.63 45.813C1156 46.245 1156.19 46.668 1156.19 47.082C1156.19 47.424 1156.11 47.685 1155.95 47.865C1155.79 48.045 1155.58 48.135 1155.33 48.135C1155.13 48.135 1154.95 48.081 1154.79 47.973C1154.64 47.847 1154.48 47.694 1154.3 47.514C1154.12 47.334 1153.92 47.145 1153.68 46.947C1153.11 46.389 1152.45 45.876 1151.71 45.408C1150.97 44.94 1150.14 44.571 1149.2 44.301C1148.26 44.013 1147.2 43.869 1146.01 43.869C1144.83 43.869 1143.93 44.076 1143.31 44.49C1142.72 44.904 1142.42 45.345 1142.42 45.813C1142.42 46.281 1142.65 46.677 1143.1 47.001C1143.55 47.307 1144.25 47.46 1145.2 47.46C1146.01 47.46 1146.64 47.343 1147.09 47.109C1147.56 46.875 1147.89 46.551 1148.07 46.137C1148.26 45.723 1148.36 45.246 1148.36 44.706C1148.36 44.148 1148.34 43.563 1148.28 42.951C1148.25 42.321 1148.2 41.7 1148.15 41.088C1148.11 40.458 1148.09 39.873 1148.09 39.333C1148.09 38.541 1148.19 37.875 1148.39 37.335C1148.59 36.777 1148.9 36.273 1149.33 35.823C1149.78 35.337 1150.3 34.959 1150.87 34.689C1151.45 34.419 1151.96 34.176 1152.41 33.96C1152.63 33.834 1152.72 33.69 1152.68 33.528C1152.66 33.366 1152.55 33.213 1152.33 33.069C1151.97 32.781 1151.53 32.574 1151.01 32.448C1150.5 32.304 1149.95 32.223 1149.33 32.205ZM1134.97 30.369C1135.37 30.675 1135.73 30.945 1136.05 31.179C1136.37 31.413 1136.73 31.593 1137.13 31.719C1137.53 31.845 1138.02 31.908 1138.62 31.908C1139.03 31.908 1139.45 31.881 1139.88 31.827C1140.32 31.755 1140.72 31.674 1141.1 31.584C1141.48 31.494 1141.78 31.422 1142.02 31.368C1143.06 31.08 1143.86 30.81 1144.42 30.558C1144.98 30.306 1145.39 30.108 1145.66 29.964C1145.93 29.82 1146.15 29.748 1146.31 29.748C1146.62 29.748 1146.88 29.838 1147.09 30.018C1147.31 30.18 1147.42 30.405 1147.42 30.693C1147.42 30.945 1147.31 31.161 1147.09 31.341C1146.9 31.521 1146.71 31.665 1146.53 31.773C1146.17 31.971 1145.67 32.187 1145.04 32.421C1144.43 32.637 1143.75 32.844 1142.99 33.042C1142.23 33.222 1141.46 33.366 1140.67 33.474C1139.88 33.582 1139.12 33.636 1138.4 33.636C1137.7 33.636 1137.1 33.546 1136.62 33.366C1136.15 33.186 1135.75 32.88 1135.43 32.448C1135.11 32.016 1134.8 31.431 1134.51 30.693L1134.97 30.369ZM1139.59 27.372V26.94C1139.82 26.832 1140.1 26.742 1140.42 26.67C1140.75 26.598 1141.06 26.562 1141.37 26.562C1141.77 26.562 1142.15 26.607 1142.53 26.697C1142.93 26.787 1143.24 26.913 1143.48 27.075C1143.62 27.165 1143.7 27.291 1143.72 27.453C1143.75 27.615 1143.74 27.867 1143.66 28.209C1143.59 28.551 1143.47 29.019 1143.29 29.613C1143.12 30.207 1142.9 30.99 1142.61 31.962C1142.47 32.43 1142.27 33.033 1142.02 33.771C1141.78 34.509 1141.5 35.319 1141.15 36.201C1140.81 37.083 1140.43 37.992 1140.02 38.928C1139.62 39.846 1139.19 40.755 1138.72 41.655C1138.26 42.555 1137.78 43.383 1137.29 44.139C1137.06 44.499 1136.83 44.796 1136.62 45.03C1136.4 45.246 1136.15 45.354 1135.86 45.354C1135.54 45.354 1135.29 45.219 1135.13 44.949C1134.97 44.679 1134.89 44.391 1134.89 44.085C1134.89 43.815 1134.93 43.572 1135 43.356C1135.07 43.14 1135.2 42.906 1135.4 42.654C1136.01 41.862 1136.64 40.971 1137.29 39.981C1137.96 38.973 1138.59 37.866 1139.18 36.66C1139.79 35.454 1140.29 34.167 1140.67 32.799C1140.79 32.349 1140.91 31.881 1141.02 31.395C1141.14 30.909 1141.23 30.45 1141.29 30.018C1141.36 29.586 1141.41 29.208 1141.42 28.884C1141.44 28.596 1141.41 28.38 1141.32 28.236C1141.23 28.092 1141.06 27.957 1140.83 27.831C1140.63 27.723 1140.42 27.633 1140.18 27.561C1139.95 27.471 1139.75 27.408 1139.59 27.372ZM1181.68 38.982V39.765H1162.83V38.982H1181.68ZM1180.63 31.044L1181.79 29.748L1184.3 31.692C1184.23 31.8 1184.08 31.908 1183.87 32.016C1183.67 32.106 1183.44 32.178 1183.17 32.232V41.385C1183.17 41.439 1183.06 41.52 1182.84 41.628C1182.63 41.718 1182.37 41.808 1182.09 41.898C1181.8 41.988 1181.53 42.033 1181.28 42.033H1180.9V31.044H1180.63ZM1163.97 41.601C1163.97 41.673 1163.88 41.772 1163.7 41.898C1163.52 42.024 1163.28 42.132 1163 42.222C1162.71 42.312 1162.41 42.357 1162.11 42.357H1161.73V31.044V29.991L1164.18 31.044H1181.55V31.827H1163.97V41.601ZM1174.55 25.644C1174.52 25.824 1174.43 25.977 1174.28 26.103C1174.16 26.229 1173.91 26.319 1173.55 26.373V49.35C1173.55 49.44 1173.46 49.557 1173.28 49.701C1173.1 49.845 1172.87 49.962 1172.58 50.052C1172.31 50.16 1172.02 50.214 1171.72 50.214H1171.29V25.293L1174.55 25.644ZM1197.75 25.536C1199.1 26.166 1200.18 26.832 1201.01 27.534C1201.84 28.218 1202.46 28.893 1202.88 29.559C1203.29 30.225 1203.53 30.828 1203.6 31.368C1203.69 31.89 1203.66 32.322 1203.5 32.664C1203.33 33.006 1203.08 33.213 1202.74 33.285C1202.4 33.339 1202.02 33.213 1201.61 32.907C1201.43 32.133 1201.1 31.314 1200.63 30.45C1200.18 29.586 1199.67 28.74 1199.1 27.912C1198.54 27.084 1197.99 26.355 1197.45 25.725L1197.75 25.536ZM1196.99 30.477C1196.97 30.657 1196.89 30.81 1196.75 30.936C1196.62 31.062 1196.4 31.143 1196.07 31.179V45.894C1196.07 46.236 1196.18 46.479 1196.4 46.623C1196.61 46.767 1197.07 46.839 1197.77 46.839H1201.44C1202.25 46.839 1202.94 46.83 1203.5 46.812C1204.07 46.794 1204.5 46.767 1204.77 46.731C1205 46.713 1205.17 46.677 1205.28 46.623C1205.39 46.551 1205.48 46.443 1205.55 46.299C1205.69 46.011 1205.86 45.462 1206.06 44.652C1206.26 43.842 1206.48 42.897 1206.71 41.817H1207.03L1207.11 46.488C1207.51 46.632 1207.77 46.776 1207.9 46.92C1208.02 47.046 1208.09 47.226 1208.09 47.46C1208.09 47.73 1207.99 47.964 1207.79 48.162C1207.61 48.36 1207.28 48.513 1206.79 48.621C1206.3 48.747 1205.62 48.837 1204.74 48.891C1203.86 48.945 1202.72 48.972 1201.34 48.972H1197.53C1196.61 48.972 1195.88 48.9 1195.34 48.756C1194.82 48.63 1194.45 48.378 1194.24 48C1194.02 47.64 1193.91 47.127 1193.91 46.461V30.126L1196.99 30.477ZM1206.55 33.933C1207.68 34.725 1208.61 35.517 1209.33 36.309C1210.07 37.101 1210.63 37.875 1211.03 38.631C1211.44 39.369 1211.71 40.062 1211.84 40.71C1211.98 41.358 1212.02 41.925 1211.95 42.411C1211.88 42.879 1211.73 43.248 1211.52 43.518C1211.3 43.788 1211.05 43.923 1210.76 43.923C1210.47 43.905 1210.18 43.734 1209.9 43.41C1209.79 42.582 1209.59 41.628 1209.3 40.548C1209.03 39.45 1208.65 38.343 1208.17 37.227C1207.68 36.093 1207.05 35.076 1206.28 34.176L1206.55 33.933ZM1190.67 33.501C1191.12 35.085 1191.34 36.516 1191.32 37.794C1191.3 39.054 1191.15 40.134 1190.86 41.034C1190.59 41.934 1190.28 42.645 1189.92 43.167C1189.68 43.527 1189.4 43.806 1189.08 44.004C1188.77 44.202 1188.47 44.31 1188.16 44.328C1187.85 44.328 1187.59 44.238 1187.38 44.058C1187.13 43.788 1187.03 43.482 1187.08 43.14C1187.13 42.78 1187.29 42.447 1187.54 42.141C1188.03 41.673 1188.47 40.998 1188.86 40.116C1189.28 39.216 1189.61 38.199 1189.86 37.065C1190.11 35.913 1190.23 34.725 1190.21 33.501H1190.67ZM1235.06 30.882L1236.3 29.613L1238.38 31.773C1238.2 31.935 1237.84 32.043 1237.3 32.097C1237.14 33.033 1236.91 34.086 1236.63 35.256C1236.34 36.408 1236.01 37.56 1235.65 38.712C1235.29 39.864 1234.9 40.908 1234.47 41.844L1234.06 41.628C1234.22 40.818 1234.37 39.945 1234.49 39.009C1234.62 38.055 1234.73 37.092 1234.82 36.12C1234.91 35.13 1234.99 34.185 1235.06 33.285C1235.13 32.385 1235.18 31.584 1235.19 30.882H1235.06ZM1235.76 30.504L1236.09 31.233L1221.75 37.416L1221.21 36.795L1235.09 30.801L1235.76 30.504ZM1227.23 29.289C1227.21 29.469 1227.13 29.631 1226.99 29.775C1226.84 29.901 1226.61 29.982 1226.28 30.018V46.299C1226.28 46.695 1226.4 46.974 1226.63 47.136C1226.87 47.28 1227.38 47.352 1228.17 47.352H1232.09C1232.97 47.352 1233.73 47.352 1234.36 47.352C1234.99 47.334 1235.44 47.316 1235.71 47.298C1235.92 47.28 1236.09 47.244 1236.19 47.19C1236.32 47.118 1236.43 47.019 1236.52 46.893C1236.64 46.641 1236.81 46.182 1237 45.516C1237.2 44.832 1237.41 44.022 1237.62 43.086H1237.95L1238.03 47.028C1238.43 47.154 1238.7 47.28 1238.84 47.406C1238.98 47.532 1239.06 47.694 1239.06 47.892C1239.06 48.18 1238.96 48.405 1238.76 48.567C1238.56 48.747 1238.21 48.891 1237.71 48.999C1237.2 49.107 1236.48 49.179 1235.55 49.215C1234.63 49.269 1233.44 49.296 1231.98 49.296H1227.99C1227.03 49.296 1226.28 49.224 1225.72 49.08C1225.18 48.936 1224.79 48.675 1224.56 48.297C1224.34 47.937 1224.23 47.424 1224.23 46.758V28.965L1227.23 29.289ZM1232.58 25.536C1232.56 25.716 1232.48 25.869 1232.33 25.995C1232.19 26.121 1231.94 26.211 1231.58 26.265V44.085C1231.58 44.175 1231.5 44.274 1231.33 44.382C1231.17 44.49 1230.96 44.589 1230.71 44.679C1230.46 44.769 1230.21 44.814 1229.96 44.814H1229.58V25.212L1232.58 25.536ZM1213.95 44.085C1214.49 43.959 1215.24 43.761 1216.21 43.491C1217.19 43.203 1218.29 42.879 1219.53 42.519C1220.78 42.141 1222.05 41.754 1223.34 41.358L1223.45 41.709C1222.62 42.231 1221.59 42.861 1220.34 43.599C1219.12 44.319 1217.65 45.129 1215.94 46.029C1215.85 46.389 1215.66 46.623 1215.38 46.731L1213.95 44.085ZM1220.59 26.238C1220.55 26.418 1220.46 26.58 1220.32 26.724C1220.17 26.85 1219.93 26.931 1219.59 26.967V43.383L1217.48 44.058V25.914L1220.59 26.238ZM1221.48 31.26C1221.48 31.26 1221.6 31.377 1221.83 31.611C1222.08 31.827 1222.38 32.097 1222.72 32.421C1223.06 32.745 1223.35 33.051 1223.58 33.339C1223.53 33.627 1223.31 33.771 1222.91 33.771H1214.43L1214.22 32.961H1220.32L1221.48 31.26Z" fill="white"/>
</svg>
