<svg width="86" height="116" viewBox="0 0 86 116" fill="none" xmlns="http://www.w3.org/2000/svg">
<path d="M18.738 10.346C19.186 10.906 19.7647 11.3773 20.474 11.76C21.1927 12.1427 21.9953 12.4507 22.882 12.684C23.7687 12.9173 24.7067 13.09 25.696 13.202C26.6947 13.314 27.6887 13.384 28.678 13.412V13.58C28.3327 13.6827 28.0573 13.8693 27.852 14.14C27.6467 14.4107 27.5067 14.7467 27.432 15.148C26.1067 14.9707 24.8747 14.7047 23.736 14.35C22.5973 13.9953 21.5893 13.51 20.712 12.894C19.8347 12.2687 19.1207 11.466 18.57 10.486L18.738 10.346ZM24.24 10.276L25.262 9.422L26.69 10.808C26.634 10.8827 26.5593 10.934 26.466 10.962C26.3727 10.9807 26.228 10.9947 26.032 11.004C25.2853 11.8347 24.3753 12.544 23.302 13.132C22.2287 13.7107 21.0293 14.1727 19.704 14.518C18.388 14.8633 16.9787 15.0967 15.476 15.218L15.406 15.008C16.7033 14.7373 17.9353 14.3827 19.102 13.944C20.2687 13.496 21.314 12.964 22.238 12.348C23.162 11.732 23.8947 11.0413 24.436 10.276H24.24ZM25.36 10.276V10.668H16.092L15.966 10.276H25.36ZM24.52 2.114C25.0147 2.16067 25.3973 2.254 25.668 2.394C25.9387 2.52467 26.1253 2.67867 26.228 2.856C26.3307 3.03333 26.368 3.206 26.34 3.374C26.312 3.53267 26.2327 3.66333 26.102 3.766C25.9807 3.86867 25.8313 3.92467 25.654 3.934C25.4767 3.934 25.2947 3.864 25.108 3.724C25.0893 3.45333 25.01 3.178 24.87 2.898C24.73 2.60867 24.5713 2.37533 24.394 2.198L24.52 2.114ZM18.444 2.142C18.9387 2.198 19.3213 2.296 19.592 2.436C19.8627 2.56667 20.0493 2.72067 20.152 2.898C20.2547 3.066 20.292 3.234 20.264 3.402C20.236 3.56067 20.1567 3.696 20.026 3.808C19.9047 3.91067 19.7553 3.96667 19.578 3.976C19.4007 3.976 19.2187 3.90133 19.032 3.752C19.0227 3.48133 18.948 3.206 18.808 2.926C18.668 2.63667 18.5047 2.40333 18.318 2.226L18.444 2.142ZM18.864 2.73C18.8267 2.814 18.7613 2.884 18.668 2.94C18.584 2.98667 18.4673 3.00533 18.318 2.996C17.954 3.68667 17.5293 4.312 17.044 4.872C16.568 5.432 16.0593 5.88933 15.518 6.244L15.336 6.104C15.6907 5.628 16.0267 5.03533 16.344 4.326C16.6613 3.60733 16.918 2.86533 17.114 2.1L18.864 2.73ZM24.716 2.674C24.688 2.76733 24.6273 2.842 24.534 2.898C24.45 2.94467 24.3333 2.96333 24.184 2.954C23.8573 3.64467 23.4653 4.26067 23.008 4.802C22.56 5.34333 22.0747 5.79133 21.552 6.146L21.37 6.006C21.6967 5.53933 22 4.96067 22.28 4.27C22.56 3.57933 22.7793 2.856 22.938 2.1L24.716 2.674ZM26.074 4.102V8.974H24.744V4.102H26.074ZM23.778 9.45C23.778 9.49667 23.6753 9.58067 23.47 9.702C23.2647 9.82333 22.98 9.884 22.616 9.884H22.378V4.774L23.204 3.612L23.96 3.906H23.778V9.45ZM27.264 7.91C27.264 7.91 27.334 7.966 27.474 8.078C27.614 8.18067 27.782 8.316 27.978 8.484C28.1833 8.64267 28.3607 8.79667 28.51 8.946C28.4727 9.09533 28.3513 9.17 28.146 9.17H23.106V8.778H26.578L27.264 7.91ZM26.928 6.412C26.928 6.412 26.9887 6.46333 27.11 6.566C27.2313 6.65933 27.3807 6.78067 27.558 6.93C27.7353 7.07 27.8893 7.20533 28.02 7.336C27.992 7.48533 27.8707 7.56 27.656 7.56H23.106V7.168H26.326L26.928 6.412ZM26.928 4.774C26.928 4.774 26.9887 4.82533 27.11 4.928C27.2313 5.02133 27.376 5.14267 27.544 5.292C27.7213 5.432 27.8753 5.56733 28.006 5.698C27.978 5.84733 27.8613 5.922 27.656 5.922H23.106V5.53H26.326L26.928 4.774ZM27.026 3.136C27.026 3.136 27.0913 3.18733 27.222 3.29C27.362 3.38333 27.5253 3.50467 27.712 3.654C27.8987 3.80333 28.0713 3.948 28.23 4.088C28.202 4.23733 28.0807 4.312 27.866 4.312H23.078V3.906H26.368L27.026 3.136ZM20.026 4.102V8.974H18.724V4.102H20.026ZM17.842 9.506C17.842 9.55267 17.7393 9.63667 17.534 9.758C17.3287 9.87 17.0533 9.926 16.708 9.926H16.456V4.802L17.296 3.64L18.01 3.906H17.842V9.506ZM21.02 7.938C21.02 7.938 21.09 7.994 21.23 8.106C21.37 8.20867 21.5333 8.33933 21.72 8.498C21.916 8.65667 22.0887 8.806 22.238 8.946C22.2007 9.09533 22.0747 9.17 21.86 9.17H17.17V8.778H20.362L21.02 7.938ZM20.782 6.384C20.782 6.384 20.8427 6.43533 20.964 6.538C21.0853 6.63133 21.2253 6.748 21.384 6.888C21.552 7.028 21.7013 7.16333 21.832 7.294C21.7947 7.44333 21.678 7.518 21.482 7.518H17.17V7.112H20.208L20.782 6.384ZM20.782 4.774C20.782 4.774 20.8427 4.82067 20.964 4.914C21.0853 5.00733 21.2253 5.124 21.384 5.264C21.5427 5.404 21.692 5.53933 21.832 5.67C21.7947 5.81933 21.6733 5.894 21.468 5.894H17.17V5.502H20.208L20.782 4.774ZM20.838 3.136C20.838 3.136 20.9033 3.18733 21.034 3.29C21.174 3.39267 21.3373 3.51867 21.524 3.668C21.72 3.808 21.8927 3.948 22.042 4.088C22.0047 4.23733 21.8833 4.312 21.678 4.312H17.128V3.906H20.194L20.838 3.136ZM38.94 5.404V13.398L37.456 13.594V5.404H38.94ZM39.472 3.038C39.4347 3.122 39.346 3.18267 39.206 3.22C39.0753 3.25733 38.898 3.22933 38.674 3.136L39.136 3.08C38.856 3.332 38.4967 3.60267 38.058 3.892C37.6287 4.18133 37.1713 4.46133 36.686 4.732C36.2007 4.99333 35.7433 5.20333 35.314 5.362L35.3 5.208H36.042C36.0047 5.656 35.9207 6.01533 35.79 6.286C35.6593 6.54733 35.5053 6.71067 35.328 6.776L34.642 5.012C34.642 5.012 34.698 4.998 34.81 4.97C34.922 4.942 35.0153 4.914 35.09 4.886C35.314 4.75533 35.5473 4.578 35.79 4.354C36.0327 4.12067 36.2707 3.864 36.504 3.584C36.7373 3.304 36.9427 3.02867 37.12 2.758C37.2973 2.48733 37.4373 2.254 37.54 2.058L39.472 3.038ZM34.964 5.124C35.328 5.124 35.832 5.11467 36.476 5.096C37.12 5.068 37.848 5.03533 38.66 4.998C39.472 4.95133 40.3027 4.9 41.152 4.844L41.166 5.054C40.5593 5.23133 39.752 5.45067 38.744 5.712C37.7453 5.964 36.63 6.22067 35.398 6.482L34.964 5.124ZM31.772 5.922H31.296L31.464 5.852C31.4547 6.05733 31.4407 6.30933 31.422 6.608C31.4033 6.89733 31.38 7.20533 31.352 7.532C31.324 7.84933 31.2913 8.162 31.254 8.47C31.226 8.76867 31.198 9.03 31.17 9.254H31.282L30.778 9.856L29.462 9.058C29.5553 8.974 29.672 8.89467 29.812 8.82C29.952 8.736 30.0827 8.67067 30.204 8.624L29.854 9.142C29.8913 8.918 29.924 8.638 29.952 8.302C29.9893 7.966 30.022 7.61133 30.05 7.238C30.078 6.85533 30.1013 6.48667 30.12 6.132C30.1387 5.77733 30.148 5.474 30.148 5.222L31.772 5.922ZM33.536 8.848V9.254H30.442L30.512 8.848H33.536ZM32.584 8.848L33.354 8.092L34.726 9.24C34.6793 9.296 34.6093 9.34733 34.516 9.394C34.432 9.43133 34.3153 9.45933 34.166 9.478C34.1287 10.458 34.0633 11.298 33.97 11.998C33.886 12.6887 33.7693 13.244 33.62 13.664C33.48 14.084 33.2933 14.3873 33.06 14.574C32.8547 14.742 32.6073 14.868 32.318 14.952C32.038 15.036 31.7067 15.078 31.324 15.078C31.324 14.8727 31.3007 14.6813 31.254 14.504C31.2167 14.336 31.142 14.196 31.03 14.084C30.918 13.9813 30.736 13.888 30.484 13.804C30.232 13.7107 29.9567 13.636 29.658 13.58L29.672 13.384C29.868 13.4027 30.0967 13.4213 30.358 13.44C30.6193 13.4587 30.862 13.4773 31.086 13.496C31.31 13.5053 31.4733 13.51 31.576 13.51C31.7907 13.51 31.9493 13.4633 32.052 13.37C32.164 13.258 32.2667 13.0107 32.36 12.628C32.4533 12.2453 32.528 11.7367 32.584 11.102C32.6493 10.4673 32.7007 9.716 32.738 8.848H32.584ZM32.542 3.136L33.242 2.352L34.754 3.5C34.7073 3.56533 34.628 3.626 34.516 3.682C34.4133 3.738 34.2873 3.78 34.138 3.808V6.972C34.138 7 34.068 7.042 33.928 7.098C33.788 7.14467 33.6247 7.19133 33.438 7.238C33.2607 7.28467 33.0927 7.308 32.934 7.308H32.696V3.136H32.542ZM33.424 5.922V6.328H30.834V5.922H33.424ZM33.704 3.136V3.542H29.924L29.798 3.136H33.704ZM36.294 11.214C36.294 11.2513 36.2333 11.3027 36.112 11.368C36 11.4333 35.8507 11.494 35.664 11.55C35.4867 11.606 35.3 11.634 35.104 11.634H34.908V7.49V6.902L36.378 7.49H40.816V7.896H36.294V11.214ZM34.11 13.328C34.558 13.3093 35.16 13.2767 35.916 13.23C36.6813 13.1833 37.54 13.1273 38.492 13.062C39.4533 12.9967 40.4567 12.9267 41.502 12.852L41.516 13.062C40.9 13.286 40.1113 13.5333 39.15 13.804C38.198 14.0747 37.0033 14.392 35.566 14.756C35.5193 14.8493 35.4633 14.9193 35.398 14.966C35.3327 15.022 35.2627 15.0593 35.188 15.078L34.11 13.328ZM40.046 7.49L40.704 6.776L42.118 7.84C42.0807 7.87733 42.02 7.924 41.936 7.98C41.8613 8.02667 41.7587 8.064 41.628 8.092V10.962C41.628 10.99 41.558 11.032 41.418 11.088C41.278 11.144 41.1147 11.1953 40.928 11.242C40.7413 11.2887 40.5687 11.312 40.41 11.312H40.172V7.49H40.046ZM40.788 10.22V10.612H35.678V10.22H40.788ZM39.892 11.522C40.5733 11.774 41.11 12.0633 41.502 12.39C41.894 12.7073 42.174 13.0293 42.342 13.356C42.51 13.6733 42.5893 13.9673 42.58 14.238C42.5707 14.5087 42.496 14.728 42.356 14.896C42.2253 15.064 42.0527 15.1527 41.838 15.162C41.6233 15.1713 41.39 15.078 41.138 14.882C41.0913 14.5087 40.9933 14.1307 40.844 13.748C40.6947 13.356 40.522 12.9733 40.326 12.6C40.1393 12.2267 39.948 11.8907 39.752 11.592L39.892 11.522ZM39.22 3.654C39.9107 3.75667 40.466 3.91533 40.886 4.13C41.306 4.34467 41.614 4.58267 41.81 4.844C42.0153 5.10533 42.1227 5.362 42.132 5.614C42.1507 5.866 42.0993 6.08067 41.978 6.258C41.866 6.426 41.7073 6.52867 41.502 6.566C41.2967 6.60333 41.068 6.54267 40.816 6.384C40.7507 6.06667 40.6293 5.74467 40.452 5.418C40.2747 5.09133 40.0647 4.78333 39.822 4.494C39.5887 4.20467 39.346 3.95733 39.094 3.752L39.22 3.654ZM50.602 9.03C50.5927 9.114 50.5507 9.18867 50.476 9.254C50.4013 9.31 50.2613 9.352 50.056 9.38V10.57C50.0373 10.57 49.9907 10.57 49.916 10.57C49.8507 10.57 49.734 10.57 49.566 10.57C49.4073 10.57 49.174 10.57 48.866 10.57V9.73V8.904L50.602 9.03ZM49.776 9.94L50.056 10.122V12.348H50.168L49.748 13.006L48.446 12.194C48.5207 12.1007 48.6233 12.0073 48.754 11.914C48.894 11.8113 49.0153 11.7413 49.118 11.704L48.866 12.18V9.94H49.776ZM56.538 9.17C56.5287 9.254 56.4913 9.32867 56.426 9.394C56.3607 9.45 56.2533 9.48733 56.104 9.506V12.95C56.104 12.978 56.0527 13.02 55.95 13.076C55.8567 13.132 55.7353 13.1787 55.586 13.216C55.4367 13.2533 55.2873 13.272 55.138 13.272H54.914V9.016L56.538 9.17ZM55.6 11.942V12.348H53.57V11.942H55.6ZM51.442 11.942V12.348H49.538V11.942H51.442ZM54.606 8.61C54.5967 8.70333 54.55 8.78733 54.466 8.862C54.3913 8.92733 54.2653 8.974 54.088 9.002V14.854C54.088 14.8913 54.032 14.938 53.92 14.994C53.8173 15.05 53.682 15.1013 53.514 15.148C53.3553 15.1947 53.192 15.218 53.024 15.218H52.786V8.442L54.606 8.61ZM52.604 8.61C52.5947 8.70333 52.5573 8.78267 52.492 8.848C52.4267 8.904 52.31 8.94133 52.142 8.96V11.13C52.1327 11.55 52.0767 11.9607 51.974 12.362C51.8807 12.754 51.708 13.132 51.456 13.496C51.204 13.86 50.8447 14.1913 50.378 14.49C49.9207 14.798 49.328 15.064 48.6 15.288L48.474 15.12C49.146 14.7747 49.6547 14.392 50 13.972C50.3547 13.5427 50.5927 13.0853 50.714 12.6C50.8447 12.1147 50.91 11.62 50.91 11.116V8.428L52.604 8.61ZM56.608 4.466C56.5613 4.54067 56.468 4.592 56.328 4.62C56.188 4.648 56.0107 4.606 55.796 4.494L56.216 4.424C56.0107 4.71333 55.7353 5.054 55.39 5.446C55.0447 5.838 54.676 6.22067 54.284 6.594C53.892 6.958 53.5093 7.27067 53.136 7.532L53.122 7.364H53.64C53.5933 7.70933 53.5093 7.97533 53.388 8.162C53.2667 8.33933 53.1313 8.44667 52.982 8.484L52.576 7.182C52.576 7.182 52.6227 7.17267 52.716 7.154C52.8093 7.126 52.8887 7.09333 52.954 7.056C53.1593 6.86933 53.374 6.63133 53.598 6.342C53.822 6.04333 54.0367 5.72133 54.242 5.376C54.4473 5.03067 54.634 4.69 54.802 4.354C54.97 4.018 55.1007 3.72867 55.194 3.486L56.608 4.466ZM55.558 2.786C55.5207 2.86067 55.4367 2.926 55.306 2.982C55.1847 3.02867 55.0027 3.01 54.76 2.926L55.18 2.842C55.012 3.08467 54.802 3.35067 54.55 3.64C54.298 3.92933 54.0273 4.20933 53.738 4.48C53.458 4.74133 53.192 4.96533 52.94 5.152L52.912 4.984H53.486C53.458 5.31067 53.3927 5.56267 53.29 5.74C53.1967 5.91733 53.0893 6.034 52.968 6.09L52.408 4.802C52.408 4.802 52.4453 4.79267 52.52 4.774C52.5947 4.746 52.6553 4.718 52.702 4.69C52.87 4.51267 53.0333 4.26533 53.192 3.948C53.36 3.62133 53.5093 3.28067 53.64 2.926C53.7707 2.57133 53.8593 2.27267 53.906 2.03L55.558 2.786ZM55.012 5.894C55.5067 6.16467 55.866 6.44467 56.09 6.734C56.314 7.014 56.44 7.28 56.468 7.532C56.5053 7.784 56.4727 7.994 56.37 8.162C56.2673 8.32067 56.1273 8.40933 55.95 8.428C55.782 8.44667 55.614 8.372 55.446 8.204C55.446 7.952 55.4133 7.69067 55.348 7.42C55.2827 7.14933 55.2033 6.888 55.11 6.636C55.026 6.384 54.9373 6.15533 54.844 5.95L55.012 5.894ZM52.73 7.224C52.926 7.21467 53.192 7.20067 53.528 7.182C53.864 7.154 54.2373 7.126 54.648 7.098C55.068 7.06067 55.4927 7.02333 55.922 6.986L55.936 7.182C55.6653 7.30333 55.2687 7.476 54.746 7.7C54.2233 7.924 53.6727 8.14333 53.094 8.358L52.73 7.224ZM52.632 4.858C52.8093 4.858 53.0473 4.86267 53.346 4.872C53.654 4.872 53.99 4.872 54.354 4.872C54.7273 4.86267 55.096 4.85333 55.46 4.844L55.474 5.054C55.3247 5.11933 55.124 5.19867 54.872 5.292C54.62 5.38533 54.3353 5.488 54.018 5.6C53.7007 5.712 53.3833 5.81933 53.066 5.922L52.632 4.858ZM52.884 4.494C52.8373 4.56867 52.744 4.62 52.604 4.648C52.464 4.676 52.2913 4.62933 52.086 4.508L52.506 4.452C52.2727 4.74133 51.9693 5.082 51.596 5.474C51.2227 5.85667 50.812 6.23467 50.364 6.608C49.9253 6.972 49.5007 7.28467 49.09 7.546L49.076 7.392H49.594C49.5567 7.71867 49.4727 7.97533 49.342 8.162C49.2113 8.34867 49.076 8.46067 48.936 8.498L48.53 7.196C48.53 7.196 48.5767 7.18667 48.67 7.168C48.7727 7.14 48.852 7.10733 48.908 7.07C49.1413 6.89267 49.384 6.65467 49.636 6.356C49.8973 6.05733 50.1493 5.73533 50.392 5.39C50.6347 5.04467 50.854 4.704 51.05 4.368C51.246 4.032 51.3953 3.74267 51.498 3.5L52.884 4.494ZM51.904 2.8C51.8667 2.884 51.7827 2.94933 51.652 2.996C51.5307 3.04267 51.3487 3.024 51.106 2.94L51.54 2.856C51.3627 3.08933 51.1387 3.35067 50.868 3.64C50.5973 3.92 50.3127 4.19067 50.014 4.452C49.7153 4.71333 49.4307 4.93267 49.16 5.11L49.146 4.956H49.72C49.6827 5.27333 49.6127 5.52533 49.51 5.712C49.4167 5.88933 49.3093 6.006 49.188 6.062L48.628 4.774C48.628 4.774 48.6653 4.76467 48.74 4.746C48.8147 4.718 48.88 4.69 48.936 4.662C49.1133 4.494 49.2907 4.25133 49.468 3.934C49.6547 3.60733 49.8227 3.27133 49.972 2.926C50.1213 2.57133 50.224 2.27733 50.28 2.044L51.904 2.8ZM51.204 5.922C51.68 6.18333 52.0253 6.454 52.24 6.734C52.4547 7.00467 52.5713 7.26133 52.59 7.504C52.618 7.74667 52.5807 7.94733 52.478 8.106C52.3753 8.25533 52.24 8.33933 52.072 8.358C51.904 8.37667 51.7313 8.29733 51.554 8.12C51.5633 7.77467 51.512 7.406 51.4 7.014C51.288 6.61267 51.162 6.26733 51.022 5.978L51.204 5.922ZM48.684 7.238C48.88 7.22867 49.146 7.21467 49.482 7.196C49.8273 7.17733 50.21 7.14933 50.63 7.112C51.0593 7.07467 51.4933 7.03733 51.932 7L51.946 7.21C51.7593 7.28467 51.512 7.38733 51.204 7.518C50.9053 7.64867 50.5693 7.78867 50.196 7.938C49.8227 8.08733 49.44 8.232 49.048 8.372L48.684 7.238ZM48.796 4.816C48.9733 4.816 49.2113 4.82067 49.51 4.83C49.818 4.83 50.154 4.83 50.518 4.83C50.8913 4.83 51.26 4.82533 51.624 4.816L51.638 5.026C51.498 5.09133 51.2973 5.17533 51.036 5.278C50.784 5.37133 50.4993 5.474 50.182 5.586C49.874 5.68867 49.5567 5.796 49.23 5.908L48.796 4.816ZM48.18 14.854C48.1707 14.9007 48.0633 14.9753 47.858 15.078C47.662 15.19 47.3867 15.246 47.032 15.246H46.794V3.234H48.18V14.854ZM47.368 8.61V9.016H44.946V8.61H47.368ZM47.368 5.908V6.3H44.946V5.908H47.368ZM45.548 12.152C45.5387 12.1613 45.4407 12.1847 45.254 12.222C45.0673 12.2593 44.8013 12.278 44.456 12.278H44.232V3.276H45.548V12.152ZM47.998 2.184C47.998 2.184 48.082 2.24933 48.25 2.38C48.418 2.50133 48.614 2.65533 48.838 2.842C49.0713 3.01933 49.2767 3.18733 49.454 3.346C49.4167 3.49533 49.2907 3.57 49.076 3.57H43.49L43.378 3.178H47.2L47.998 2.184ZM43.364 11.816C43.616 11.7787 43.966 11.718 44.414 11.634C44.8713 11.55 45.3893 11.452 45.968 11.34C46.5467 11.228 47.1347 11.1067 47.732 10.976L47.774 11.13C47.41 11.3727 46.948 11.676 46.388 12.04C45.8373 12.3947 45.17 12.796 44.386 13.244C44.3113 13.44 44.19 13.5613 44.022 13.608L43.364 11.816ZM57.364 9.8H67.934L68.914 8.596C68.914 8.596 68.97 8.638 69.082 8.722C69.2033 8.806 69.3573 8.92267 69.544 9.072C69.7307 9.212 69.922 9.36133 70.118 9.52C70.3233 9.67867 70.5147 9.828 70.692 9.968C70.6547 10.1173 70.5193 10.192 70.286 10.192H57.476L57.364 9.8ZM58.134 6.776H67.388L68.34 5.586C68.34 5.586 68.4007 5.63267 68.522 5.726C68.6433 5.81 68.7927 5.922 68.97 6.062C69.1473 6.202 69.334 6.35133 69.53 6.51C69.7353 6.65933 69.9173 6.804 70.076 6.944C70.048 7.09333 69.9173 7.168 69.684 7.168H58.246L58.134 6.776ZM67.486 2.128L69.194 3.78C69.1193 3.84533 68.998 3.88267 68.83 3.892C68.6713 3.892 68.4753 3.84533 68.242 3.752C67.598 3.88267 66.8747 4.004 66.072 4.116C65.2787 4.228 64.4387 4.326 63.552 4.41C62.6747 4.48467 61.7833 4.54067 60.878 4.578C59.9727 4.61533 59.0813 4.62933 58.204 4.62L58.176 4.41C58.9973 4.30733 59.842 4.172 60.71 4.004C61.5873 3.836 62.446 3.64933 63.286 3.444C64.1353 3.23867 64.9193 3.024 65.638 2.8C66.366 2.576 66.982 2.352 67.486 2.128ZM63.16 3.794H64.952V13.09C64.952 13.482 64.8913 13.8273 64.77 14.126C64.658 14.434 64.42 14.6813 64.056 14.868C63.692 15.064 63.146 15.19 62.418 15.246C62.39 14.9567 62.3387 14.7047 62.264 14.49C62.1987 14.2847 62.082 14.1167 61.914 13.986C61.746 13.846 61.536 13.7293 61.284 13.636C61.0413 13.5333 60.6727 13.4493 60.178 13.384V13.202C60.178 13.202 60.2527 13.2067 60.402 13.216C60.5513 13.2253 60.738 13.2347 60.962 13.244C61.1953 13.2533 61.438 13.2673 61.69 13.286C61.942 13.2953 62.1707 13.3047 62.376 13.314C62.5813 13.3233 62.726 13.328 62.81 13.328C62.9407 13.328 63.0293 13.3047 63.076 13.258C63.132 13.202 63.16 13.1227 63.16 13.02V3.794Z" fill="white"/>
<g clip-path="url(#clip0_141_697)">
<path d="M11.2895 104.219C11.4652 104.391 11.5591 104.501 11.5591 104.542C11.5591 104.628 11.5019 104.669 11.3917 104.669H8.94094C8.72037 105.062 8.45896 105.405 8.16488 105.704H9.34531C9.4801 105.548 9.60672 105.413 9.72517 105.295C9.81095 105.193 9.89264 105.139 9.97024 105.139C10.0478 105.139 10.2153 105.225 10.4849 105.397C10.8076 105.618 10.9669 105.765 10.9669 105.843C10.9669 105.929 10.9097 106.007 10.7912 106.093C10.7055 106.17 10.6646 106.256 10.6646 106.35V107.549C10.6646 107.823 10.6728 108.191 10.6973 108.653C10.6973 108.764 10.5543 108.841 10.2684 108.895C10.1336 108.911 10.0315 108.919 9.97433 108.919C9.8232 108.919 9.74559 108.833 9.74559 108.653V108.551H8.98587V110.494C8.98587 110.964 8.82657 111.271 8.51206 111.41C8.20572 111.558 7.98924 111.631 7.83811 111.631C7.75234 111.631 7.68698 111.529 7.63389 111.341C7.54811 111.05 7.23769 110.817 6.6781 110.629L6.71078 110.457C7.10698 110.51 7.446 110.527 7.73191 110.527C7.92797 110.527 8.026 110.441 8.026 110.261V108.551H7.13149V108.653C7.13149 108.764 6.98853 108.841 6.71895 108.895C6.59233 108.911 6.49838 108.919 6.4412 108.919C6.26556 108.919 6.17979 108.833 6.17979 108.653C6.19613 108.355 6.21247 108.056 6.21247 107.753V106.547C6.21247 106.117 6.18796 105.708 6.14711 105.307C6.51064 105.409 6.88233 105.548 7.27036 105.708H7.71149C7.79727 105.418 7.86262 105.074 7.91572 104.673H5.66105V106.947C5.66105 107.733 5.62021 108.428 5.53443 109.017C5.42415 109.549 5.24034 110.044 4.97893 110.498C4.74203 110.866 4.43161 111.226 4.04357 111.594L3.88428 111.525C4.19062 110.928 4.39076 110.371 4.50104 109.84C4.63583 109.197 4.70527 108.232 4.70527 106.947C4.70527 105.569 4.67259 104.579 4.61133 103.974C5.14232 104.129 5.55894 104.289 5.85303 104.444H10.15C10.15 104.444 10.2357 104.358 10.3869 104.178C10.5829 103.937 10.7095 103.81 10.7749 103.81C10.8321 103.81 11.0118 103.945 11.2977 104.219H11.2895ZM7.00487 109.406C7.24177 109.541 7.36839 109.647 7.36839 109.713C7.36839 109.774 7.29895 109.807 7.18459 109.815C7.04163 109.815 6.95585 109.84 6.93951 109.885C6.74346 110.142 6.54331 110.371 6.32275 110.568C6.07768 110.817 5.68964 111.063 5.15865 111.32L5.08922 111.185C5.37513 110.887 5.62838 110.568 5.84894 110.22C6.10218 109.811 6.27782 109.418 6.37993 109.05C6.61683 109.185 6.82106 109.308 7.00487 109.41V109.406ZM9.74151 107.013V105.945H7.13149V107.013H9.74151ZM9.74151 108.314V107.246H7.13149V108.314H9.74151ZM10.7994 109.709C11.3059 109.958 11.5591 110.212 11.5591 110.486C11.5591 110.674 11.5101 110.829 11.408 110.932C11.2732 111.079 11.1384 111.153 11.0036 111.153C10.8852 111.153 10.7667 111.059 10.6564 110.87C10.5135 110.629 10.3093 110.347 10.0478 110.032C9.91306 109.876 9.65982 109.647 9.27995 109.349L9.38207 109.214C9.97433 109.369 10.4481 109.529 10.7994 109.709Z" fill="#F3D7A3"/>
<path d="M14.1121 104.935H16.1136C16.1054 104.542 16.089 104.182 16.0523 103.867C16.3219 103.9 16.6609 103.953 17.0734 104.023C17.3593 104.055 17.5023 104.125 17.5023 104.211C17.5023 104.297 17.4084 104.366 17.2327 104.415C17.0979 104.448 17.0407 104.518 17.0407 104.604V104.939H18.7563C18.7563 104.939 18.8747 104.82 19.0503 104.579C19.2546 104.313 19.3812 104.178 19.422 104.178C19.5323 104.178 19.708 104.313 19.9449 104.571C20.1818 104.828 20.3084 104.988 20.3084 105.041C20.3084 105.135 20.2512 105.176 20.1409 105.176H17.0407V106.039H18.164C18.2906 105.884 18.4091 105.749 18.5275 105.63C18.6133 105.528 18.6868 105.475 18.7563 105.475C18.8257 105.475 18.9932 105.561 19.2546 105.716C19.5568 105.921 19.7202 106.068 19.7202 106.146C19.7202 106.232 19.6549 106.309 19.5241 106.395C19.4302 106.473 19.3894 106.559 19.3894 106.653V107.721C19.3894 107.995 19.3975 108.363 19.422 108.825C19.422 108.935 19.2709 109.013 18.9809 109.066C18.8461 109.083 18.744 109.091 18.695 109.091C18.5357 109.091 18.4581 109.005 18.4581 108.825V108.621H17.1755C17.6739 109.083 18.1803 109.435 18.7032 109.672C19.3036 109.938 19.904 110.126 20.5004 110.228L20.4758 110.424C20.2389 110.502 20.0796 110.662 19.9857 110.911C19.9244 111.099 19.8591 111.194 19.7815 111.194C19.663 111.194 19.4098 111.067 19.0054 110.817C18.5847 110.576 18.1844 110.253 17.8127 109.86C17.5105 109.537 17.2491 109.21 17.0367 108.878V109.897C17.0367 110.408 17.0448 110.915 17.0693 111.427C17.0693 111.529 16.9182 111.615 16.62 111.676C16.4934 111.693 16.3995 111.701 16.3423 111.701C16.1381 111.701 16.0482 111.607 16.0482 111.427C16.0891 110.87 16.1176 110.359 16.1176 109.897V109.365C15.9052 109.606 15.7133 109.795 15.5336 109.946C15.1782 110.236 14.7657 110.502 14.3082 110.723C13.8426 110.944 13.3361 111.132 12.7806 111.296L12.7234 111.161C13.3075 110.879 13.8548 110.527 14.3613 110.101C14.8514 109.672 15.264 109.185 15.603 108.621H14.733V108.862C14.733 108.972 14.59 109.05 14.3123 109.103C14.1857 109.12 14.0917 109.128 14.0427 109.128C13.8671 109.128 13.7813 109.042 13.7813 108.862C13.7976 108.563 13.8058 108.265 13.8058 107.954V106.849C13.8058 106.424 13.7813 106.011 13.7486 105.618C14.1366 105.72 14.5328 105.868 14.9413 106.047H16.1217V105.184H14.1121C13.622 105.184 13.283 105.201 13.091 105.217L12.9562 104.882C13.2176 104.923 13.6056 104.943 14.1121 104.943V104.935ZM16.1217 107.209V106.277H14.7371V107.209H16.1217ZM16.1217 108.383V107.442H14.7371V108.383H16.1217ZM17.0407 107.209H18.4581V106.277H17.0407V107.209ZM17.0407 108.383H18.4581V107.442H17.0407V108.383Z" fill="#F3D7A3"/>
<path d="M22.6611 104.542H23.3882C23.3882 104.542 23.4984 104.432 23.6496 104.227C23.8334 103.986 23.9518 103.867 23.9886 103.867C24.0825 103.867 24.2337 103.986 24.4542 104.219C24.6666 104.46 24.7769 104.595 24.7769 104.636C24.7769 104.73 24.7361 104.775 24.6503 104.775H24.0499V110.257C24.0499 110.752 24.058 111.144 24.0825 111.455C24.0825 111.549 23.9477 111.619 23.6863 111.668C23.5679 111.684 23.4739 111.693 23.4249 111.693C23.2901 111.693 23.2289 111.607 23.2289 111.451C23.2452 111.169 23.2615 110.776 23.2615 110.253V109.664C22.9593 109.893 22.6529 110.073 22.3507 110.204C22.2935 110.22 22.2649 110.244 22.2649 110.281C22.2486 110.314 22.2404 110.359 22.2404 110.408C22.2159 110.486 22.1832 110.519 22.1383 110.519C22.028 110.519 21.9014 110.33 21.7503 109.938C21.7094 109.835 21.64 109.655 21.5379 109.418C21.689 109.41 21.832 109.394 21.9667 109.377V104.783C21.832 104.792 21.7217 104.8 21.6359 104.808L21.5093 104.473C21.7707 104.526 22.1506 104.542 22.657 104.542H22.6611ZM23.2575 106.039V104.775H22.7265V106.039H23.2575ZM23.2575 107.61V106.277H22.7265V107.61H23.2575ZM23.2575 109.185V107.843H22.7265V109.271C22.9144 109.246 23.09 109.218 23.2575 109.185ZM25.8103 104.174C26.039 104.268 26.1575 104.37 26.1575 104.473C26.1575 104.526 26.1003 104.55 25.99 104.559C25.8716 104.575 25.8144 104.583 25.794 104.599C25.5326 104.976 25.2262 105.311 24.8831 105.61C24.9525 105.634 25.0016 105.663 25.0506 105.679C25.1935 105.765 25.2711 105.868 25.2711 105.978C25.2711 106.125 25.2017 106.26 25.0751 106.395C24.9893 106.497 24.8709 106.542 24.7361 106.542C24.6503 106.542 24.5768 106.457 24.5155 106.285C24.4297 106.043 24.2786 105.806 24.0744 105.577L24.1438 105.442C24.3113 105.475 24.4747 105.503 24.6094 105.536C24.8055 105.033 24.9566 104.485 25.0669 103.904C25.3202 103.998 25.5734 104.092 25.8103 104.178V104.174ZM26.6027 104.943C26.8069 105.029 26.9172 105.123 26.9172 105.209C26.9172 105.262 26.8682 105.287 26.7661 105.287C26.664 105.303 26.6068 105.319 26.5904 105.34C26.1779 105.974 25.6959 106.547 25.1568 107.074C25.4876 107.05 25.798 107.013 26.0921 106.98C26.0513 106.776 25.9818 106.579 25.8961 106.375L25.9982 106.281C26.3004 106.444 26.5128 106.587 26.6313 106.71C26.7742 106.882 26.8519 107.025 26.8519 107.148C26.8519 107.328 26.811 107.463 26.7334 107.557C26.6313 107.667 26.5128 107.721 26.3944 107.721C26.3168 107.721 26.2678 107.704 26.2351 107.651C26.1942 107.626 26.1575 107.496 26.133 107.258C26.133 107.234 26.1248 107.205 26.1248 107.189C25.7041 107.479 25.2711 107.684 24.8341 107.815C24.7647 107.831 24.7401 107.847 24.7401 107.884C24.732 107.909 24.7238 107.937 24.7156 107.97C24.6993 108.031 24.683 108.056 24.6462 108.056C24.5523 108.056 24.442 107.901 24.3235 107.577C24.2827 107.491 24.2214 107.357 24.1479 107.152C24.3848 107.144 24.6135 107.127 24.8423 107.107C25.3079 106.354 25.6714 105.561 25.9328 104.714C26.1697 104.8 26.3903 104.878 26.6068 104.955L26.6027 104.943ZM25.1772 108.261C25.4549 108.293 25.5979 108.346 25.5979 108.416C25.5979 108.494 25.5203 108.551 25.3855 108.604C25.2834 108.637 25.2344 108.698 25.2344 108.784V109.68H25.7409C25.749 109.475 25.7572 109.234 25.7572 108.98C25.7572 108.69 25.7327 108.322 25.7 107.876C25.9533 107.917 26.2065 107.962 26.4597 108.011C26.619 108.044 26.7375 108.081 26.8151 108.105C26.8069 108.056 26.7988 107.995 26.7906 107.941C27.003 107.974 27.2644 108.011 27.5748 108.06C27.8607 108.093 28.0037 108.138 28.0037 108.207C28.0037 108.293 27.9261 108.363 27.7913 108.412C27.6892 108.453 27.6402 108.522 27.6402 108.608V109.713H28.1712V108.85C28.1712 108.621 28.1467 108.412 28.1017 108.244C28.306 108.277 28.5674 108.314 28.8696 108.363C29.1392 108.396 29.2822 108.441 29.2822 108.51C29.2822 108.596 29.2046 108.657 29.0698 108.698C28.9676 108.731 28.9186 108.792 28.9186 108.878V110.22C28.9186 110.314 28.8002 110.384 28.5796 110.424C28.4775 110.441 28.404 110.449 28.3591 110.449C28.2243 110.449 28.163 110.408 28.163 110.314V109.946H27.632V111.484C27.632 111.578 27.5136 111.648 27.2766 111.697C27.1582 111.705 27.0806 111.713 27.0397 111.713C26.8804 111.713 26.8028 111.672 26.8028 111.586C26.8192 111.451 26.8355 111.345 26.8355 111.288V108.576C26.8355 108.49 26.8273 108.404 26.8273 108.334C26.7947 108.351 26.7702 108.367 26.7334 108.375C26.615 108.428 26.5496 108.477 26.5373 108.539C26.5373 109.324 26.5128 109.831 26.4679 110.044C26.3903 110.318 26.2923 110.539 26.1575 110.727C26.039 110.899 25.8511 111.071 25.6183 111.222C25.3896 111.357 25.0342 111.504 24.5645 111.652L24.4951 111.549C24.7973 111.378 25.0506 111.181 25.2548 110.977C25.4223 110.805 25.5407 110.6 25.6265 110.343C25.6592 110.24 25.6837 110.101 25.7123 109.917H25.2221V110.249C25.2221 110.343 25.1037 110.412 24.8831 110.453C24.7728 110.469 24.6952 110.478 24.6625 110.478C24.5278 110.478 24.4583 110.437 24.4583 110.343V108.743C24.4583 108.514 24.4338 108.306 24.393 108.138C24.6054 108.171 24.8586 108.207 25.1609 108.256L25.1772 108.261ZM28.2324 104.158C28.4693 104.26 28.596 104.362 28.596 104.473C28.596 104.526 28.5265 104.55 28.4081 104.559C28.2814 104.575 28.212 104.583 28.2038 104.599C27.9179 104.992 27.5952 105.36 27.2317 105.683C27.3175 105.716 27.3828 105.753 27.4359 105.778C27.5707 105.872 27.6402 105.982 27.6402 106.101C27.6402 106.264 27.5707 106.416 27.4359 106.555C27.342 106.657 27.2236 106.71 27.0806 106.71C27.003 106.71 26.9376 106.616 26.8845 106.42C26.8192 106.154 26.6885 105.9 26.5128 105.643L26.5823 105.508C26.7334 105.54 26.86 105.577 26.9703 105.602C27.1745 105.062 27.3257 104.481 27.4441 103.867C27.7137 103.969 27.9751 104.064 28.2283 104.158H28.2324ZM28.9186 105.115C29.1229 105.201 29.2331 105.287 29.2331 105.373C29.2331 105.426 29.176 105.45 29.0738 105.458C28.9717 105.475 28.9145 105.491 28.9064 105.512C28.5592 106.043 28.163 106.53 27.7055 106.992C28.0078 106.968 28.2896 106.931 28.5592 106.882C28.5265 106.702 28.4734 106.522 28.4081 106.35L28.5102 106.248C28.7961 106.403 29.0003 106.538 29.1188 106.657C29.2536 106.821 29.3312 106.956 29.3312 107.074C29.3312 107.271 29.2903 107.426 29.2046 107.536C29.0943 107.655 28.9758 107.716 28.841 107.716C28.7716 107.716 28.7307 107.7 28.6981 107.647C28.6654 107.622 28.6286 107.483 28.6123 107.246C28.6123 107.213 28.6041 107.177 28.6041 107.144C28.2733 107.401 27.9383 107.598 27.5912 107.716C27.5421 107.733 27.5258 107.749 27.5258 107.786C27.5095 107.802 27.5013 107.827 27.5013 107.864C27.485 107.925 27.4605 107.95 27.4237 107.95C27.3297 107.95 27.2195 107.794 27.101 107.471C27.0602 107.385 26.9989 107.25 26.9254 107.054C27.0765 107.046 27.2276 107.037 27.3828 107.021C27.7545 106.354 28.0405 105.634 28.2447 104.882C28.4816 104.968 28.7103 105.045 28.9268 105.123L28.9186 105.115Z" fill="#F3D7A3"/>
<path d="M34.3918 104.072C34.694 104.158 34.8493 104.235 34.8493 104.301C34.8493 104.387 34.7553 104.448 34.5878 104.464C34.5715 104.473 34.5633 104.473 34.5633 104.473C35.0535 105.062 35.5681 105.516 36.091 105.822C36.7241 106.182 37.3572 106.428 37.9821 106.575L37.9494 106.771C37.7043 106.857 37.5369 107.029 37.4348 107.283C37.3776 107.479 37.3081 107.573 37.2224 107.573C37.1039 107.573 36.8425 107.418 36.4218 107.103C35.9807 106.796 35.56 106.403 35.1719 105.904C34.8329 105.487 34.547 105.049 34.3264 104.603C33.8526 105.287 33.3543 105.835 32.8151 106.244C32.2066 106.784 31.3978 107.303 30.393 107.798L30.2991 107.671C30.875 107.271 31.4918 106.714 32.1494 106.002C32.6885 105.422 33.1705 104.702 33.5953 103.83C33.8976 103.924 34.1712 104.002 34.3959 104.059L34.3918 104.072ZM32.7375 108.58H35.5069C35.6253 108.432 35.7438 108.305 35.8622 108.195C35.948 108.101 36.0215 108.052 36.0991 108.052C36.1686 108.052 36.3279 108.138 36.5811 108.293C36.867 108.498 37.0222 108.645 37.0222 108.723C37.0222 108.809 36.9732 108.886 36.8711 108.972C36.7935 109.05 36.7608 109.136 36.7608 109.222V110.232C36.7608 110.506 36.769 110.883 36.7935 111.361C36.7935 111.472 36.6424 111.558 36.336 111.611C36.1931 111.627 36.091 111.635 36.0297 111.635C35.8786 111.635 35.8009 111.541 35.8009 111.361V111.026H32.5333V111.394C32.5333 111.496 32.3904 111.582 32.1126 111.643C31.986 111.66 31.892 111.668 31.843 111.668C31.6674 111.668 31.5816 111.574 31.5816 111.394C31.598 111.095 31.6143 110.805 31.6143 110.494V109.389C31.6143 108.964 31.5898 108.551 31.5449 108.15C31.9329 108.26 32.3291 108.408 32.7335 108.588L32.7375 108.58ZM33.2236 107.107H34.5429C34.5429 107.107 34.6532 106.988 34.8207 106.763C35.0167 106.506 35.1311 106.371 35.176 106.371C35.2781 106.371 35.4456 106.497 35.6825 106.747C35.9112 107.005 36.0297 107.156 36.0297 107.209C36.0297 107.303 35.9725 107.344 35.8704 107.344H33.2277C32.7457 107.344 32.4108 107.361 32.2066 107.377L32.0799 107.041C32.3413 107.082 32.7212 107.103 33.2277 107.103L33.2236 107.107ZM35.8009 110.784V108.817H32.5333V110.784H35.8009Z" fill="#F3D7A3"/>
<path d="M40.2286 104.509H40.4982C40.6085 104.415 40.7187 104.321 40.829 104.235C40.9638 104.133 41.0496 104.072 41.0904 104.072C41.168 104.072 41.3192 104.166 41.5397 104.338C41.8256 104.587 41.9809 104.755 41.9809 104.841C41.9809 104.902 41.8869 104.951 41.7113 104.988C41.5356 105.004 41.4172 105.074 41.3559 105.176L40.4859 106.911H40.8903C40.9597 106.833 41.0332 106.763 41.1109 106.698C41.2375 106.596 41.3314 106.542 41.3886 106.542C41.4744 106.542 41.6418 106.636 41.8869 106.825C42.1402 107.066 42.2749 107.226 42.2749 107.311C42.2749 107.381 42.181 107.446 42.0054 107.516C41.8461 107.586 41.7603 107.651 41.7521 107.712C41.5928 108.465 41.4049 109.091 41.2048 109.586C41.1558 109.696 41.0945 109.799 41.0373 109.901C41.2048 110.073 41.4254 110.191 41.6949 110.269C42.1075 110.441 42.904 110.519 44.0844 110.519C44.9871 110.519 45.9102 110.449 46.8374 110.314L46.8986 110.519C46.576 110.698 46.3922 110.911 46.3595 111.169C46.3105 111.398 46.2247 111.521 46.1144 111.521C44.1048 111.521 42.7773 111.427 42.1442 111.247C41.4948 111.075 41.0128 110.801 40.6983 110.408C40.6125 110.519 40.5308 110.621 40.4451 110.715C40.0407 111.108 39.6527 111.414 39.281 111.623L39.1462 111.521C39.6363 110.989 40.0325 110.408 40.3348 109.758C40.2082 109.434 40.1306 109.05 40.1061 108.612C40.1224 108.457 40.0979 108.383 40.0366 108.383C40.0203 108.383 40.0039 108.461 39.9876 108.604C39.9631 108.825 39.9182 109.042 39.861 109.238C39.8283 109.373 39.812 109.459 39.812 109.488C39.8283 109.541 39.8528 109.59 39.8732 109.635C39.8896 109.688 39.9059 109.729 39.9059 109.754C39.9059 109.823 39.8732 109.856 39.812 109.856C39.7262 109.856 39.6077 109.77 39.4566 109.598C39.33 109.479 39.1952 109.369 39.0522 109.246C39.3137 108.98 39.5424 108.657 39.7466 108.281C39.8487 108.109 39.9508 108.015 40.0407 108.015C40.2368 108.015 40.3348 108.142 40.3348 108.383C40.392 108.649 40.4696 108.886 40.5717 109.111C40.7392 108.547 40.8576 107.896 40.927 107.144H40.3716L40.2041 107.475C40.1632 107.594 40.102 107.655 40.0203 107.663C39.9345 107.68 39.8528 107.68 39.7507 107.68C39.6813 107.68 39.5832 107.663 39.4484 107.61C39.3627 107.577 39.3218 107.532 39.3218 107.475L40.5717 104.738H40.2408C39.9304 104.738 39.6322 104.755 39.3545 104.771L39.2197 104.436C39.5669 104.489 39.9018 104.505 40.2408 104.505L40.2286 104.509ZM43.3124 104.771C43.2961 104.436 43.2716 104.137 43.2348 103.863C43.4881 103.888 43.8189 103.933 44.2069 103.998C44.4765 104.031 44.6195 104.092 44.6195 104.17C44.6195 104.264 44.5337 104.342 44.3826 104.391C44.2723 104.423 44.2233 104.493 44.2233 104.595V104.767H44.8155C44.9176 104.673 45.0034 104.579 45.0851 104.493C45.2036 104.366 45.2893 104.297 45.3465 104.297C45.4323 104.297 45.5916 104.391 45.8122 104.579C46.0654 104.783 46.2002 104.91 46.2002 104.963C46.2002 105.049 46.1389 105.119 46.0409 105.184C45.9224 105.27 45.8734 105.356 45.8734 105.434V105.835H45.9755C46.0082 105.773 46.0613 105.679 46.1267 105.561C46.1961 105.405 46.2451 105.332 46.2696 105.332C46.3186 105.332 46.4044 105.426 46.5392 105.606C46.6658 105.777 46.7353 105.888 46.7353 105.941C46.7353 106.027 46.7026 106.068 46.6332 106.068H45.8734C45.8816 106.461 45.8898 106.718 45.9061 106.845V107.136C45.9061 107.246 45.7631 107.324 45.4854 107.377C45.3588 107.401 45.2648 107.41 45.2158 107.41C45.081 107.41 45.0034 107.34 44.9953 107.205H44.2274V108.044H45.0198C45.0198 108.044 45.1055 107.95 45.2322 107.778C45.3833 107.573 45.4772 107.471 45.5099 107.471C45.5957 107.471 45.7386 107.573 45.9224 107.778C46.1103 107.982 46.2002 108.101 46.2002 108.138C46.2002 108.232 46.1593 108.273 46.0736 108.273H44.2233V109.181H45.1096C45.1096 109.181 45.2199 109.062 45.3874 108.845C45.5834 108.604 45.6978 108.477 45.7427 108.477C45.8448 108.477 46.0041 108.596 46.2247 108.837C46.4453 109.079 46.5637 109.222 46.5637 109.275C46.5637 109.369 46.5065 109.41 46.4044 109.41H44.2274V110.044C44.2274 110.154 44.0926 110.232 43.823 110.285C43.7045 110.302 43.6188 110.31 43.5697 110.31C43.3655 110.31 43.2757 110.224 43.2757 110.044C43.292 109.823 43.3002 109.606 43.3083 109.41H42.7079C42.2259 109.41 41.891 109.426 41.6868 109.443L41.5602 109.107C41.8216 109.16 42.2014 109.177 42.7079 109.177H43.3165C43.3247 108.964 43.3328 108.76 43.3328 108.571V108.273H43.0714C42.5895 108.273 42.2504 108.289 42.0503 108.305L41.9237 107.97C42.1851 108.023 42.5649 108.04 43.0714 108.04H43.3328V107.201C42.9366 107.201 42.614 107.217 42.3771 107.234L42.2504 106.902C42.5445 106.956 42.9081 106.972 43.3328 106.972V106.064H42.4792C42.3117 106.064 42.0911 106.08 41.8216 106.097L41.6868 105.765C42.0258 105.814 42.2954 105.835 42.4792 105.835H43.3328V105.364C43.3328 105.237 43.3247 105.115 43.3247 104.996C42.7692 104.996 42.3771 105.013 42.1524 105.029L42.0176 104.693C42.373 104.747 42.81 104.763 43.3165 104.763L43.3124 104.771ZM44.2233 105.843H44.983V105.004H44.2233V105.843ZM44.2233 106.98H44.983V106.072H44.2233V106.98Z" fill="#F3D7A3"/>
<path d="M49.7823 104.096C50.0192 104.174 50.1377 104.252 50.1377 104.338C50.1377 104.423 50.0682 104.473 49.9334 104.493C49.7986 104.509 49.721 104.546 49.7047 104.579C49.672 104.64 49.6353 104.689 49.6026 104.743H50.4971C50.4971 104.743 50.591 104.657 50.7422 104.477C50.9546 104.235 51.0894 104.108 51.1547 104.108C51.2119 104.108 51.3998 104.243 51.702 104.518C51.8899 104.689 51.9798 104.8 51.9798 104.841C51.9798 104.927 51.9185 104.968 51.8123 104.968H50.1826C50.301 105.021 50.4032 105.078 50.4848 105.131C50.6605 105.25 50.7544 105.372 50.7544 105.475C50.7544 105.663 50.685 105.818 50.5584 105.929C50.4726 106.007 50.3827 106.039 50.2643 106.039C50.203 106.039 50.154 106.023 50.1213 105.978C50.0805 105.945 50.0437 105.843 50.0192 105.687C49.9865 105.483 49.9008 105.242 49.766 104.968H49.4351C49.3003 105.156 49.1492 105.319 48.994 105.454C48.7326 105.696 48.3936 105.933 47.981 106.174L47.8789 106.072C48.1812 105.712 48.4181 105.372 48.5896 105.053C48.7489 104.73 48.8837 104.325 49.0022 103.863C49.2636 103.949 49.5168 104.027 49.77 104.092L49.7823 104.096ZM49.1124 109.05H51.3589V108.98C51.3589 108.706 51.3263 108.461 51.2568 108.244C51.5019 108.277 51.796 108.33 52.1513 108.379C52.474 108.412 52.6415 108.473 52.6415 108.543C52.6415 108.645 52.5557 108.723 52.4046 108.772C52.2943 108.805 52.2453 108.874 52.2453 108.976V109.046H54.0261C54.0261 109.046 54.1364 108.927 54.3039 108.71C54.4999 108.469 54.6143 108.342 54.6511 108.342C54.7532 108.342 54.9207 108.461 55.1412 108.702C55.3618 108.944 55.4802 109.095 55.4802 109.148C55.4802 109.234 55.4231 109.275 55.3128 109.275H52.425C52.8539 109.582 53.3359 109.807 53.8709 109.95C54.455 110.122 55.035 110.24 55.6191 110.31L55.5864 110.514C55.3495 110.592 55.1821 110.756 55.0636 111.001C55.0064 111.189 54.9452 111.283 54.8961 111.283C54.7859 111.283 54.5326 111.198 54.1446 111.026C53.7402 110.838 53.3522 110.6 52.9968 110.318C52.7027 110.06 52.4577 109.786 52.2534 109.496V111.447C52.2534 111.549 52.1187 111.635 51.8572 111.688C51.7306 111.705 51.6449 111.713 51.5958 111.713C51.4202 111.713 51.3344 111.652 51.3344 111.549C51.3508 111.394 51.3671 111.283 51.3671 111.214V109.762C51.1384 109.958 50.926 110.114 50.734 110.232C50.3786 110.445 49.9824 110.633 49.525 110.797C49.0675 110.96 48.5692 111.095 48.03 111.214L47.9606 111.042C48.4998 110.854 49.0144 110.604 49.4964 110.298C49.9539 110.007 50.3419 109.664 50.6523 109.271H49.1165C48.6345 109.271 48.2955 109.287 48.0954 109.304L47.9606 108.968C48.2302 109.021 48.61 109.038 49.1165 109.038L49.1124 109.05ZM49.3412 106.313H50.3623C50.3623 106.313 50.4399 106.236 50.5461 106.109C50.6809 105.953 50.7667 105.88 50.7912 105.88C50.8606 105.88 50.9668 105.966 51.122 106.121C51.2732 106.285 51.3589 106.379 51.3589 106.412C51.3589 106.506 51.3263 106.547 51.2568 106.547H50.203V107.471C50.5175 107.446 50.8688 107.401 51.2568 107.352L51.3263 107.479C50.8198 107.778 50.3909 107.982 50.0355 108.085C49.6312 108.211 49.2922 108.297 49.0226 108.334C48.8633 108.359 48.7857 108.383 48.7857 108.42C48.7693 108.461 48.7612 108.522 48.753 108.592C48.7367 108.702 48.704 108.755 48.6509 108.755C48.5488 108.755 48.4385 108.551 48.3119 108.142C48.271 108.031 48.2098 107.843 48.124 107.586C48.5283 107.586 48.9368 107.569 49.3412 107.532V106.551C48.8592 106.551 48.5202 106.567 48.32 106.583L48.1934 106.248C48.4548 106.301 48.8347 106.317 49.3412 106.317V106.313ZM53.1439 104.096C53.3808 104.174 53.5074 104.252 53.5074 104.338C53.5074 104.423 53.438 104.473 53.3032 104.493C53.1684 104.509 53.0908 104.546 53.0744 104.579C53.0336 104.64 52.9887 104.689 52.956 104.743H54.1283C54.1283 104.743 54.214 104.657 54.3733 104.477C54.5857 104.235 54.7205 104.108 54.7859 104.108C54.843 104.108 55.0228 104.243 55.325 104.518C55.5088 104.689 55.6109 104.8 55.6109 104.841C55.6109 104.927 55.5538 104.968 55.4435 104.968H53.679C53.8668 105.029 54.0016 105.078 54.0833 105.131C54.2876 105.25 54.3897 105.352 54.3897 105.438C54.3897 105.593 54.357 105.712 54.2876 105.806C54.2018 105.892 54.1283 105.933 54.0506 105.933C54.0997 105.974 54.1528 106.019 54.2099 106.06C54.4142 106.215 54.5204 106.342 54.5204 106.436C54.5204 106.506 54.455 106.571 54.3243 106.657C54.1895 106.718 54.1201 106.784 54.1201 106.87V107.238C54.1201 107.356 54.1446 107.434 54.1977 107.459C54.2467 107.491 54.3488 107.5 54.4999 107.5L54.6674 107.483C54.7532 107.483 54.8267 107.406 54.8798 107.234C54.9288 107.062 54.9901 106.833 55.0759 106.534L55.2107 106.567L55.2433 107.005C55.2433 107.123 55.2923 107.254 55.3945 107.397C55.5292 107.532 55.6069 107.635 55.6069 107.704C55.6069 107.876 55.4966 108.003 55.2842 108.072C55.0309 108.158 54.7695 108.199 54.4999 108.199C54.0098 108.199 53.7321 108.175 53.679 108.121C53.4584 108.052 53.3563 107.806 53.3563 107.369V106.358H53.1112C53.0418 106.632 52.9601 106.87 52.8498 107.058C52.8825 107.082 52.9192 107.099 52.9437 107.119C53.0458 107.189 53.0949 107.266 53.0949 107.332C53.0949 107.504 53.0254 107.647 52.9111 107.77C52.7926 107.925 52.6578 107.999 52.4985 107.999C52.4413 107.999 52.3392 107.913 52.1963 107.725C52.0615 107.802 51.894 107.872 51.7061 107.937C51.3957 108.04 50.9954 108.117 50.5257 108.158L50.493 108.031C50.8075 107.945 51.0526 107.86 51.2201 107.774C51.363 107.704 51.5141 107.602 51.6775 107.467C51.7265 107.426 51.7715 107.373 51.8205 107.311C51.653 107.156 51.4651 107.021 51.2568 106.894L51.3589 106.698C51.6285 106.731 51.8736 106.776 52.0778 106.808C52.1268 106.661 52.1636 106.51 52.1963 106.354C51.943 106.362 51.7225 106.371 51.555 106.387L51.4202 106.052C51.7225 106.105 52.086 106.121 52.5108 106.121H53.2705C53.3644 106.035 53.438 105.966 53.5074 105.917C53.5646 105.876 53.6177 105.839 53.6667 105.814C53.6259 105.761 53.5891 105.679 53.5646 105.565C53.5237 105.36 53.4135 105.156 53.2256 104.947H52.7599C52.666 105.049 52.5761 105.135 52.4822 105.213C52.2698 105.385 51.992 105.565 51.653 105.753L51.5509 105.651C51.7715 105.36 51.9471 105.078 52.0656 104.82C52.184 104.546 52.2943 104.223 52.3801 103.847C52.6415 103.933 52.8947 104.01 53.1398 104.076L53.1439 104.096Z" fill="#F3D7A3"/>
<path d="M57.8984 104.841H60.0346C60.0265 104.464 60.0101 104.133 59.9734 103.839C60.2266 103.871 60.4635 103.908 60.6678 103.941C61.1252 104.01 61.3621 104.068 61.3621 104.137C61.3621 104.231 61.2763 104.317 61.1252 104.395C61.0231 104.428 60.9741 104.497 60.9659 104.599V104.841H62.7141C62.7141 104.841 62.8326 104.714 63 104.481C63.2124 104.207 63.339 104.072 63.3717 104.072C63.482 104.072 63.6576 104.207 63.9027 104.464C64.1396 104.722 64.2662 104.882 64.2662 104.935C64.2662 105.029 64.209 105.07 64.0988 105.07H60.9659V105.769H62.1913C62.2852 105.659 62.3669 105.565 62.4445 105.479C62.514 105.409 62.5793 105.368 62.6569 105.368C62.7509 105.368 62.9183 105.462 63.1634 105.642C63.433 105.831 63.5759 105.957 63.5759 106.035C63.5759 106.105 63.5147 106.162 63.4166 106.223C63.3145 106.293 63.2655 106.35 63.2492 106.403V107.172C63.2492 107.234 63.2002 107.275 63.1144 107.307C63.2002 107.361 63.3186 107.434 63.4534 107.557C63.7067 107.761 63.8414 107.892 63.8414 107.941C63.8414 108.027 63.7924 108.113 63.6985 108.191C63.5964 108.277 63.5474 108.363 63.5474 108.449V108.715H63.6821C63.7148 108.612 63.7598 108.51 63.8169 108.4C63.8864 108.252 63.9517 108.179 64.013 108.179C64.062 108.179 64.1314 108.248 64.2336 108.375C64.3683 108.58 64.4378 108.727 64.4378 108.821C64.4378 108.907 64.4051 108.948 64.3438 108.948H63.5514C63.5514 109.066 63.5596 109.197 63.5678 109.316C63.5759 109.819 63.5841 110.109 63.5841 110.187C63.5841 110.298 63.433 110.375 63.1348 110.429C63.0082 110.445 62.9143 110.453 62.8571 110.453C62.7059 110.453 62.6283 110.367 62.6283 110.187V109.946H60.9741V110.519C60.9741 110.997 60.8393 111.312 60.5779 111.451C60.2756 111.607 60.0469 111.693 59.8835 111.693C59.7977 111.693 59.7242 111.598 59.6711 111.418C59.5853 111.112 59.1892 110.862 58.4989 110.649L58.5315 110.486C58.9441 110.555 59.2994 110.588 59.5854 110.588C59.7528 110.588 59.8794 110.564 59.9652 110.51C60.0142 110.478 60.051 110.4 60.051 110.281V109.946H58.4049C58.0006 109.946 57.6779 109.962 57.441 109.979L57.3143 109.647C57.6084 109.7 57.972 109.717 58.4049 109.717H60.051V108.948H57.5758C57.3225 108.948 57.0529 108.964 56.7834 108.98L56.6567 108.645C57.0611 108.694 57.3674 108.715 57.5758 108.715H60.051V107.978H58.4621C58.0904 107.978 57.7963 107.995 57.5758 108.011L57.441 107.68C57.7882 107.733 58.1231 107.749 58.4621 107.749H60.051V107.144H58.5969V107.246C58.5969 107.356 58.4539 107.434 58.1762 107.487C58.0496 107.504 57.9556 107.512 57.9066 107.512C57.731 107.512 57.6452 107.426 57.6452 107.246C57.6615 107.091 57.6779 106.915 57.6779 106.714V106.142C57.6779 105.937 57.6615 105.696 57.6452 105.405C57.9679 105.499 58.3028 105.618 58.6418 105.773H60.051V105.074H57.9066C57.4246 105.074 57.0856 105.09 56.8855 105.107L56.7507 104.775C57.0203 104.824 57.4001 104.845 57.9066 104.845L57.8984 104.841ZM58.5928 106.002V106.911H60.0469V106.002H58.5928ZM62.3138 106.002H60.9618V106.911H62.3138V106.002ZM62.5507 107.414C62.3914 107.414 62.3138 107.336 62.3138 107.172V107.14H60.9618V107.745H62.4486C62.5507 107.651 62.6365 107.557 62.71 107.463C62.7427 107.438 62.7672 107.414 62.7876 107.393C62.6773 107.41 62.5997 107.41 62.5507 107.41V107.414ZM60.9659 108.715H62.6202V107.978H60.9659V108.715ZM60.9659 109.717H62.6202V108.948H60.9659V109.717Z" fill="#F3D7A3"/>
<path d="M66.6148 106.739H68.2936C68.3794 106.669 68.4365 106.612 68.4896 106.559C68.6408 106.44 68.7511 106.371 68.8287 106.371C68.9144 106.371 69.0819 106.481 69.3351 106.694C69.5884 106.915 69.715 107.062 69.715 107.14C69.715 107.217 69.6047 107.258 69.4005 107.266C69.2249 107.283 69.1064 107.307 69.0533 107.344C68.6489 107.696 68.3344 107.941 68.0975 108.081L68.0281 108.011C68.122 107.753 68.2242 107.406 68.3222 106.976H67.9015V110.678C67.9015 111.095 67.7667 111.369 67.5053 111.492C67.2602 111.619 67.0764 111.688 66.9375 111.688C66.8681 111.688 66.8191 111.586 66.7782 111.398C66.7088 111.124 66.4392 110.903 65.9858 110.715L66.0185 110.588C66.3412 110.658 66.6108 110.682 66.8477 110.682C66.9498 110.682 67.007 110.604 67.007 110.453V108.588C66.8109 108.911 66.5944 109.193 66.3575 109.451C66.1043 109.717 65.8265 109.938 65.5202 110.118L65.4875 110.015C65.7489 109.692 65.994 109.263 66.2227 108.751C66.4351 108.248 66.6189 107.655 66.7782 106.98H66.6108C66.2472 106.98 65.9082 107.005 65.5896 107.05L65.4548 106.649C65.7939 106.718 66.1819 106.743 66.6108 106.743L66.6148 106.739ZM69.0125 104.321C69.2821 104.534 69.4168 104.698 69.4168 104.808C69.4168 104.878 69.3066 104.918 69.1023 104.935C68.8654 104.968 68.7225 105.004 68.6898 105.037C68.4284 105.287 68.1588 105.508 67.8688 105.696C67.9954 105.822 68.0649 105.962 68.0649 106.105C68.0649 106.26 67.9954 106.395 67.8811 106.534C67.7871 106.637 67.6768 106.682 67.542 106.682C67.3746 106.682 67.2275 106.563 67.1132 106.305C66.9539 105.953 66.672 105.614 66.284 105.278L66.3534 105.143C66.8599 105.254 67.2561 105.364 67.5257 105.487L67.9056 104.608H66.5127C66.19 104.608 65.9123 104.632 65.6917 104.677L65.5569 104.276C65.896 104.346 66.2146 104.378 66.5127 104.378H67.8402C67.9832 104.276 68.1016 104.19 68.2037 104.121C68.314 104.051 68.3998 104.01 68.4651 104.01C68.5673 104.01 68.7429 104.121 69.0125 104.325V104.321ZM69.4536 108.715H69.9519C69.9928 108.424 70.0173 108.109 70.0173 107.782C70.2705 107.806 70.5319 107.843 70.7852 107.892C71.1487 107.962 71.3325 108.019 71.3325 108.081C71.3325 108.166 71.2753 108.236 71.165 108.269C71.0302 108.31 70.969 108.363 70.969 108.416C70.9526 108.526 70.9363 108.629 70.92 108.715H71.5612C71.647 108.604 71.7124 108.518 71.7818 108.457C71.9084 108.322 72.0105 108.244 72.0922 108.244C72.1739 108.244 72.3455 108.346 72.5987 108.543C72.8519 108.747 72.9786 108.895 72.9786 108.98C72.9786 109.034 72.9295 109.091 72.8356 109.16C72.7335 109.263 72.6845 109.349 72.6845 109.418C72.6681 109.827 72.6191 110.249 72.5497 110.666C72.4802 110.973 72.4149 111.189 72.3291 111.3C72.2597 111.418 72.1086 111.513 71.888 111.582C71.6674 111.635 71.5081 111.66 71.3978 111.66C71.3039 111.66 71.2385 111.566 71.1936 111.386C71.1364 111.112 70.8383 110.874 70.3073 110.649L70.3399 110.523C70.9159 110.609 71.2753 110.649 71.4305 110.649C71.5 110.649 71.5408 110.625 71.5735 110.572C71.6061 110.51 71.6429 110.298 71.6756 109.921C71.7083 109.578 71.7246 109.255 71.7246 108.948H70.8628C70.7525 109.435 70.6014 109.835 70.4053 110.163C70.1847 110.523 69.8988 110.821 69.5353 111.042C69.1718 111.283 68.6898 111.496 68.0894 111.693L68.0199 111.558C68.4325 111.283 68.796 110.993 69.1105 110.686C69.3801 110.388 69.5761 110.081 69.6864 109.77C69.7804 109.52 69.8539 109.246 69.907 108.948H69.4413C69.0002 108.948 68.7061 108.972 68.555 109.017L68.4202 108.616C68.7429 108.686 69.0778 108.719 69.4413 108.719L69.4536 108.715ZM70.5156 104.01C70.7933 104.096 70.9363 104.174 70.9363 104.231C70.9363 104.317 70.8587 104.378 70.7239 104.411C70.5564 104.444 70.4706 104.489 70.4706 104.538C70.4216 104.665 70.3685 104.779 70.3277 104.873H71.7287C71.7287 104.873 71.8145 104.788 71.9738 104.608C72.1862 104.358 72.3209 104.231 72.3863 104.231C72.4476 104.231 72.6232 104.378 72.9255 104.648C73.1133 104.82 73.2032 104.931 73.2032 104.963C73.2032 105.058 73.146 105.098 73.0439 105.098H72.4353C72.3005 105.508 72.1045 105.904 71.8716 106.26C71.7777 106.416 71.6838 106.542 71.5939 106.645C71.6429 106.677 71.7042 106.706 71.7695 106.722C72.227 106.911 72.7171 107.046 73.24 107.131L73.1787 107.303C72.9418 107.406 72.7907 107.569 72.7049 107.774C72.6559 107.978 72.6109 108.072 72.5783 108.072C72.4762 108.072 72.2393 107.978 71.8594 107.79C71.5204 107.626 71.2263 107.43 70.973 107.201C70.7198 107.373 70.4421 107.524 70.1194 107.655C69.6129 107.86 69.0656 108.023 68.457 108.134L68.3875 108.007C68.9022 107.819 69.3351 107.622 69.6864 107.418C69.9887 107.246 70.2705 107.041 70.5033 106.792C70.5197 106.776 70.5278 106.767 70.536 106.751C70.4094 106.596 70.3073 106.436 70.2215 106.264C70.103 106.06 69.9846 105.818 69.8743 105.544C69.8171 105.614 69.764 105.671 69.715 105.724C69.5639 105.88 69.3106 106.047 68.9716 106.236L68.8777 106.101C69.1146 105.786 69.3066 105.45 69.4536 105.09C69.5884 104.738 69.6905 104.297 69.764 103.765C70.0009 103.834 70.246 103.92 70.4992 104.006L70.5156 104.01ZM70.8546 106.236C70.8546 106.236 70.8954 106.268 70.9118 106.277C70.9445 106.207 70.9894 106.142 71.0302 106.064C71.1895 105.773 71.3162 105.458 71.4183 105.107H70.2092C70.1602 105.193 70.1153 105.254 70.0826 105.295C70.0663 105.311 70.0581 105.328 70.0581 105.336C70.3359 105.765 70.5973 106.064 70.8505 106.232L70.8546 106.236Z" fill="#F3D7A3"/>
<path d="M77.6144 105.884C77.9167 106.088 78.0801 106.236 78.0801 106.313C78.0801 106.399 78.0106 106.477 77.884 106.551C77.7901 106.637 77.7492 106.722 77.7492 106.808V107.61C77.7492 107.884 77.7574 108.252 77.7737 108.715C77.7737 108.825 77.6308 108.903 77.3449 108.956C77.2101 108.972 77.108 108.98 77.0589 108.98C76.8996 108.98 76.822 108.895 76.822 108.715V108.416H75.6825C75.6661 108.612 75.6498 108.792 75.6334 108.956C75.5395 109.504 75.3884 110.015 75.176 110.494C74.9922 110.87 74.7348 111.247 74.4162 111.623L74.2488 111.553C74.453 110.936 74.596 110.355 74.6695 109.811C74.7634 109.144 74.8124 108.142 74.8124 106.808C74.8124 105.749 74.7798 104.98 74.7103 104.509C75.1392 104.644 75.4864 104.775 75.7478 104.902C75.952 104.8 76.1195 104.698 76.2543 104.595C76.4994 104.44 76.7526 104.194 77.0222 103.867C77.2999 104.088 77.5287 104.252 77.6961 104.37C77.9494 104.559 78.076 104.693 78.076 104.771C78.076 104.841 78.027 104.873 77.9412 104.873L77.5123 104.841C76.8711 105.062 76.2706 105.217 75.7315 105.287V106.244H76.5239C76.6423 106.08 76.7608 105.937 76.8792 105.806C76.965 105.704 77.0467 105.643 77.1161 105.643C77.1856 105.643 77.353 105.728 77.6144 105.884ZM75.7274 106.808C75.7274 107.303 75.711 107.766 75.6947 108.175H76.818V106.473H75.7274V106.808ZM79.1911 105.242V106.943H80.4164C80.4164 106.943 80.5104 106.857 80.6778 106.669C80.8984 106.412 81.0414 106.277 81.1067 106.277C81.1721 106.277 81.36 106.424 81.6704 106.714C81.8664 106.886 81.9645 106.997 81.9645 107.05C81.9645 107.136 81.9073 107.177 81.797 107.177H80.9352V111.349C80.9352 111.459 80.784 111.545 80.494 111.598C80.3593 111.615 80.2653 111.623 80.2163 111.623C80.057 111.623 79.9794 111.529 79.9794 111.349C80.0202 111.042 80.0488 110.596 80.0488 110.015V107.177H79.187C79.1706 107.851 79.1176 108.441 79.0359 108.956C78.9092 109.504 78.6887 110.015 78.3701 110.494C78.0923 110.87 77.7206 111.247 77.2468 111.623L77.0794 111.553C77.5205 110.936 77.8228 110.355 77.9739 109.811C78.1699 109.144 78.268 108.142 78.268 106.808C78.268 105.733 78.2353 104.951 78.1659 104.473C78.607 104.608 78.9583 104.747 79.2319 104.873C79.4852 104.779 79.6976 104.685 79.8487 104.583C80.1264 104.448 80.4164 104.223 80.7105 103.933C80.9883 104.145 81.217 104.309 81.3845 104.428C81.6377 104.624 81.7643 104.763 81.7643 104.837C81.7643 104.906 81.7153 104.931 81.6295 104.931L81.2088 104.906C80.4818 105.07 79.8078 105.18 79.1911 105.242Z" fill="#F3D7A3"/>
<path d="M85.8978 100.227H0.102051V115.898H85.8978V100.227Z" stroke="#F3D7A3" stroke-width="0.5" stroke-miterlimit="10"/>
<path d="M28.7756 75.0691C28.9268 75.1714 29.0044 75.2982 29.0044 75.4372C29.0044 75.6091 28.9268 75.7809 28.7756 75.9322C28.7266 75.9854 28.6817 76.0181 28.649 76.0345H30.5075C30.5688 75.8299 30.6178 75.6336 30.6504 75.4536C30.6831 75.2491 30.7199 74.9914 30.7526 74.7009C31.0221 74.7786 31.2835 74.8564 31.5368 74.9218C31.7819 74.9995 31.9085 75.0773 31.9085 75.1632C31.9085 75.2491 31.839 75.2982 31.7043 75.3186C31.5695 75.335 31.4919 75.3718 31.4755 75.4045C31.3652 75.5763 31.2386 75.7195 31.1038 75.8422C31.0262 75.9118 30.9445 75.969 30.8424 76.0386H31.8064C31.8064 76.0386 31.9166 75.9199 32.0759 75.7072C32.2802 75.4659 32.3986 75.3391 32.4313 75.3391C32.5334 75.3391 32.7009 75.4577 32.9214 75.699C33.142 75.9404 33.2605 76.0917 33.2605 76.1449C33.2605 76.2308 33.2033 76.2717 33.093 76.2717H30.2216V77.1103H31.1855C31.1855 77.1103 31.2876 76.9999 31.4388 76.8117C31.6226 76.5908 31.741 76.4763 31.7778 76.4763C31.8717 76.4763 32.0228 76.5867 32.2271 76.7994C32.4313 77.0203 32.5416 77.1594 32.5416 77.2085C32.5416 77.2944 32.4926 77.3353 32.4068 77.3353H30.2297V78.1739H32.1127C32.1127 78.1739 32.223 78.0553 32.3905 77.8303C32.5824 77.5726 32.7009 77.4376 32.7376 77.4376C32.8398 77.4376 33.0072 77.5644 33.2441 77.8139C33.481 78.0716 33.5995 78.223 33.5995 78.2761C33.5995 78.362 33.5423 78.403 33.432 78.403H31.3816C31.4919 78.452 31.594 78.497 31.692 78.5379C31.9697 78.6402 32.1127 78.7343 32.1127 78.8366C32.1127 78.8979 32.0433 78.9388 31.9166 78.9634C31.7819 78.9879 31.6961 79.0247 31.6797 79.0656C31.5123 79.2374 31.3081 79.3888 31.063 79.5361H31.9738C31.9738 79.5361 32.0841 79.4174 32.2516 79.1924C32.4476 78.9347 32.562 78.7997 32.6069 78.7997C32.7091 78.7997 32.8765 78.9266 33.1134 79.1761C33.3422 79.4338 33.4606 79.5851 33.4606 79.6383C33.4606 79.7242 33.4034 79.7651 33.3013 79.7651H27.297C26.8069 79.7651 26.4679 79.7815 26.2759 79.7979L26.1411 79.4624C26.4025 79.5156 26.7906 79.532 27.297 79.532H28.1915C28.1589 79.4788 28.1221 79.4133 28.1058 79.3356C28.02 79.0288 27.877 78.7179 27.6565 78.4275L27.6728 78.3948H27.1908C26.7007 78.3948 26.3617 78.4111 26.1697 78.4275L26.0349 78.0921C26.3045 78.1452 26.6844 78.1616 27.1908 78.1616H29.2331V77.323H28.1099C27.6279 77.323 27.2889 77.3394 27.0887 77.3558L26.9621 77.0244C27.2235 77.0735 27.6034 77.0939 28.1099 77.0939H29.2331V76.2554H27.4849C27.0029 76.2554 26.6639 76.2717 26.4638 76.2881L26.329 75.9527C26.5986 76.0058 26.9784 76.0222 27.4849 76.0222H28.2692C28.2365 75.9731 28.1997 75.8872 28.1752 75.7727C28.0894 75.4822 27.9628 75.1918 27.779 74.9177L27.8811 74.7459C28.31 74.8482 28.6082 74.9505 28.7756 75.0527V75.0691ZM28.2324 80.4442H31.2386C31.3652 80.2969 31.4837 80.1701 31.6021 80.0515C31.6879 79.9574 31.7614 79.9042 31.839 79.9042C31.9085 79.9042 32.0678 79.9901 32.321 80.1456C32.6069 80.3501 32.7621 80.4974 32.7621 80.5751C32.7621 80.661 32.6927 80.7387 32.5743 80.8246C32.4721 80.9023 32.4313 80.9882 32.4313 81.0823V81.1519C32.4313 81.4178 32.4395 81.7777 32.464 82.2482C32.464 82.3586 32.3129 82.4445 32.0228 82.4977C31.8881 82.514 31.7941 82.5222 31.7369 82.5222C31.5858 82.5222 31.5082 82.4281 31.5082 82.2482V81.9495H28.0118V82.2482C28.0118 82.3586 27.8689 82.4445 27.5911 82.4977C27.4645 82.514 27.3706 82.5222 27.3215 82.5222C27.1337 82.5222 27.052 82.4281 27.052 82.2482C27.0683 81.9495 27.0846 81.6591 27.0846 81.3523V81.25C27.0846 80.8328 27.0601 80.4196 27.0152 80.0188C27.4032 80.121 27.8076 80.2683 28.2324 80.4565V80.4442ZM31.5123 81.7123V80.6773H28.0159V81.7123H31.5123ZM30.6504 79.5402C30.8179 79.1884 30.9282 78.812 30.9895 78.403H28.0323C28.2937 78.497 28.4897 78.5911 28.6163 78.6852C28.7593 78.812 28.8369 78.9675 28.8369 79.1393C28.8369 79.2865 28.7797 79.4215 28.6613 79.5402H30.6545H30.6504Z" fill="#F3D7A3"/>
<path d="M37.8023 76.1368C38.1127 76.1695 38.2761 76.2227 38.2761 76.3004C38.2761 76.4027 38.1903 76.4804 38.0229 76.5295C37.9044 76.5622 37.8554 76.6318 37.8554 76.734V77.4703C37.8554 77.5644 37.7288 77.634 37.4755 77.6749C37.3571 77.6912 37.2713 77.6994 37.2223 77.6994C37.0467 77.6994 36.9609 77.6462 36.9609 77.5358C36.9772 77.3803 36.9936 77.2699 36.9936 77.2004V77.0654H35.8376C35.4414 77.0654 35.1188 77.0817 34.8819 77.0981L34.7471 76.7627C35.0493 76.8158 35.4128 76.8322 35.8376 76.8322H36.9936V76.6972C36.9936 76.4313 36.9691 76.2022 36.9241 75.9977C37.161 76.0304 37.4551 76.0836 37.8023 76.1327V76.1368ZM39.0889 74.9055C39.2932 74.9219 39.4034 74.975 39.4034 75.0691C39.4034 75.1019 39.334 75.155 39.2156 75.2164C39.0726 75.2778 39.0032 75.3514 39.0032 75.4373V75.6009H41.0454C41.1557 75.5068 41.2497 75.4291 41.3232 75.3718C41.4335 75.2614 41.5192 75.2 41.5764 75.2C41.654 75.2 41.8297 75.3187 42.1074 75.56C42.3607 75.7645 42.4954 75.92 42.4954 76.0059C42.4954 76.0754 42.426 76.1245 42.2994 76.1409C42.1483 76.1409 42.0543 76.1572 42.038 76.1736C41.9277 76.2063 41.8174 76.2431 41.699 76.2759C41.8011 76.3454 41.944 76.464 42.1278 76.6358C42.3035 76.7995 42.3974 76.9017 42.3974 76.9345C42.3974 77.0285 42.3484 77.0695 42.2626 77.0695H40.1182V77.4376C40.1182 77.5399 39.9916 77.6094 39.7384 77.6421C39.6199 77.6585 39.5423 77.6667 39.4933 77.6667C39.3177 77.6667 39.2319 77.6135 39.2319 77.5031C39.2482 77.3476 39.2646 77.2372 39.2646 77.1676V76.6972C39.2646 76.4313 39.2401 76.2022 39.1951 75.9977C39.432 76.0304 39.7261 76.0836 40.0651 76.1327C40.3878 76.1654 40.5471 76.2186 40.5471 76.2963C40.5471 76.3986 40.4613 76.4763 40.2939 76.5254C40.1754 76.5581 40.1182 76.6277 40.1182 76.7299V76.8322H41.0128C41.0128 76.8322 41.0904 76.7463 41.2333 76.5745C41.3191 76.4722 41.3844 76.3945 41.4457 76.3331C41.3191 76.3659 41.1925 76.4027 41.074 76.4272L40.9474 76.3577C41.0332 76.1859 41.1067 76.0059 41.1761 75.8177H35.9234C35.9071 75.9977 35.8989 76.1327 35.8826 76.2186C35.8417 76.415 35.7723 76.554 35.6783 76.6195C35.6212 76.6727 35.5599 76.689 35.5027 76.689C35.3067 76.689 35.1474 76.6358 35.0207 76.5172C34.9023 76.415 34.8451 76.2759 34.8451 76.0877C34.8451 76.0263 34.9227 75.9609 35.0902 75.8832C35.2576 75.8054 35.3924 75.7114 35.4945 75.6091C35.5885 75.515 35.6702 75.3718 35.7396 75.1837L35.9357 75.2164V75.5846H38.1127V75.4577C38.1127 75.2287 38.0882 74.9873 38.0433 74.746C38.3986 74.7787 38.7458 74.8319 39.0808 74.8932L39.0889 74.9055ZM37.0017 77.8385H40.0937C40.2122 77.7035 40.3306 77.5726 40.4327 77.4703C40.5185 77.3844 40.592 77.3353 40.6615 77.3353C40.7187 77.3353 40.8739 77.4131 41.1271 77.5644C41.4049 77.7608 41.5478 77.8999 41.5478 77.9653C41.5478 78.0512 41.4906 78.1289 41.3804 78.1944C41.2946 78.2721 41.2537 78.3498 41.2537 78.4357V79.5034C41.2537 79.7693 41.2619 80.1293 41.2864 80.571C41.2864 80.6815 41.1435 80.7592 40.8657 80.8124C40.7391 80.8288 40.6451 80.8369 40.5961 80.8369C40.4613 80.8369 40.3837 80.7756 40.3674 80.6406H39.8037V81.5732C39.8037 81.7287 39.8813 81.8023 40.0325 81.8228C40.1673 81.8391 40.3878 81.8473 40.6901 81.8473C41.0781 81.8391 41.3314 81.786 41.4498 81.7001C41.5192 81.606 41.6377 81.3319 41.8133 80.8697H41.9481L41.9808 81.5692C41.9808 81.6469 42.0298 81.7164 42.1483 81.7819C42.2994 81.8514 42.377 81.9169 42.377 82.0028C42.377 82.1582 42.2504 82.2687 42.0053 82.3546C41.7275 82.4568 41.2864 82.51 40.686 82.51H40.0774C39.8568 82.51 39.6567 82.4936 39.477 82.4568C39.1134 82.4241 38.9378 82.2768 38.9378 82.0396V80.6365H38.2965C38.2394 80.9801 38.1372 81.2419 37.9943 81.4219C37.8595 81.6019 37.692 81.7451 37.4878 81.8841C37.2672 82.0109 36.9895 82.1337 36.6505 82.2359C36.2093 82.3627 35.7233 82.4773 35.18 82.5795L35.0779 82.375C35.372 82.3055 35.6702 82.2114 35.9561 82.0928C36.242 81.9741 36.4871 81.8432 36.6913 81.6919C36.8874 81.5569 37.0303 81.4014 37.112 81.246C37.2141 81.0742 37.2713 80.8697 37.2795 80.6406H36.822V80.7101C36.822 80.8206 36.6954 80.8983 36.4503 80.9515C36.3319 80.9678 36.2461 80.976 36.1971 80.976C36.0214 80.976 35.9357 80.8901 35.9357 80.7101C35.952 80.4442 35.9683 80.1783 35.9683 79.9043V78.5707C35.9683 78.178 35.9438 77.8017 35.8989 77.4335C36.2543 77.5358 36.626 77.6626 36.9977 77.8344L37.0017 77.8385ZM40.3551 78.7016V78.0676H36.8261V78.7016H40.3551ZM40.3551 79.5729V78.9389H36.8261V79.5729H40.3551ZM40.3551 80.4115V79.8061H36.8261V80.4115H40.3551ZM40.9474 81.0701C41.0822 81.1478 41.1516 81.2419 41.1516 81.3442C41.1516 81.4628 41.1026 81.5651 41.0087 81.6673C40.9433 81.7451 40.8575 81.7778 40.7554 81.7778C40.6533 81.7778 40.5798 81.7001 40.5104 81.5487C40.4164 81.3442 40.2571 81.1478 40.0284 80.9433L40.0978 80.841C40.5022 80.9187 40.7799 80.9965 40.9515 81.0701H40.9474Z" fill="#F3D7A3"/>
<path d="M44.6195 75.4004H44.889C44.9993 75.3063 45.1096 75.2122 45.2199 75.1263C45.3547 75.0241 45.4405 74.9627 45.4813 74.9627C45.5589 74.9627 45.71 75.0568 45.9306 75.2286C46.2165 75.4781 46.3717 75.6458 46.3717 75.7317C46.3717 75.7931 46.2778 75.8422 46.1022 75.879C45.9265 75.8954 45.8081 75.9649 45.7468 76.0672L44.8768 77.8016H45.2812C45.3506 77.7239 45.4241 77.6543 45.5017 77.5889C45.6283 77.4866 45.7223 77.4335 45.7795 77.4335C45.8652 77.4335 46.0327 77.5275 46.2778 77.7157C46.531 77.9571 46.6658 78.1166 46.6658 78.2025C46.6658 78.272 46.5719 78.3375 46.3962 78.407C46.2369 78.4766 46.1512 78.542 46.143 78.6034C45.9837 79.3561 45.7958 79.9819 45.5957 80.4769C45.5467 80.5873 45.4854 80.6896 45.4282 80.7919C45.5957 80.9637 45.8162 81.0823 46.0858 81.16C46.4984 81.3318 47.2948 81.4096 48.4753 81.4096C49.378 81.4096 50.3011 81.34 51.2282 81.205L51.2895 81.4096C50.9668 81.5895 50.783 81.8023 50.7504 82.06C50.7013 82.289 50.6156 82.4118 50.5053 82.4118C48.4957 82.4118 47.1682 82.3177 46.5351 82.1377C45.8857 81.9659 45.4037 81.6918 45.0892 81.2991C45.0034 81.4096 44.9217 81.5118 44.8359 81.6059C44.4316 81.9986 44.0435 82.3054 43.6718 82.514L43.5371 82.4118C44.0272 81.88 44.4234 81.2991 44.7257 80.6487C44.599 80.3255 44.5214 79.941 44.4969 79.5033C44.5133 79.3479 44.4888 79.2742 44.4275 79.2742C44.4111 79.2742 44.3948 79.352 44.3785 79.4951C44.354 79.716 44.309 79.9328 44.2519 80.1292C44.2192 80.2642 44.2028 80.3501 44.2028 80.3787C44.2192 80.4319 44.2437 80.481 44.2641 80.526C44.2804 80.5792 44.2968 80.6201 44.2968 80.6446C44.2968 80.7141 44.2641 80.7469 44.2028 80.7469C44.1171 80.7469 43.9986 80.661 43.8475 80.4892C43.7209 80.3705 43.5861 80.2601 43.4431 80.1374C43.7045 79.8715 43.9333 79.5483 44.1375 79.172C44.2396 79.0002 44.3417 78.9061 44.4316 78.9061C44.6276 78.9061 44.7257 79.0329 44.7257 79.2742C44.7828 79.5401 44.8605 79.7774 44.9626 80.0024C45.13 79.4379 45.2485 78.7875 45.3179 78.0348H44.7624L44.595 78.3661C44.5541 78.4847 44.4928 78.5461 44.4112 78.5543C44.3254 78.5707 44.2437 78.5707 44.1416 78.5707C44.0762 78.5707 43.9741 78.5543 43.8393 78.5011C43.7535 78.4684 43.7127 78.4234 43.7127 78.3661L44.9626 75.6295H44.6317C44.3213 75.6295 44.0231 75.6458 43.7454 75.6622L43.6106 75.3268C43.9578 75.38 44.2927 75.3963 44.6317 75.3963L44.6195 75.4004ZM47.7033 75.6663C47.687 75.3309 47.6624 75.0323 47.6257 74.7582C47.8789 74.7827 48.2098 74.8277 48.5978 74.8932C48.8674 74.9259 49.0103 74.9873 49.0103 75.065C49.0103 75.1591 48.9246 75.2368 48.7734 75.2859C48.6632 75.3186 48.6141 75.3881 48.6141 75.4904V75.6622H49.2064C49.3085 75.5681 49.3943 75.474 49.476 75.3881C49.5944 75.2613 49.6802 75.1918 49.7374 75.1918C49.8232 75.1918 49.9825 75.2859 50.203 75.474C50.4563 75.6786 50.5911 75.8054 50.5911 75.8586C50.5911 75.9445 50.5298 76.014 50.4318 76.0795C50.3133 76.1654 50.2643 76.2513 50.2643 76.329V76.7299H50.3664C50.3991 76.6685 50.4522 76.5744 50.5175 76.4558C50.587 76.3003 50.636 76.2267 50.6605 76.2267C50.7095 76.2267 50.7953 76.3208 50.9301 76.5008C51.0567 76.6726 51.1261 76.783 51.1261 76.8362C51.1261 76.9221 51.0935 76.963 51.024 76.963H50.2643C50.2725 77.3557 50.2806 77.6134 50.297 77.7403V78.0307C50.297 78.1411 50.154 78.2189 49.8763 78.2679C49.7496 78.2925 49.6557 78.3007 49.6067 78.3007C49.4719 78.3007 49.3943 78.2311 49.3861 78.0961H48.6182V78.9347H49.4106C49.4106 78.9347 49.4964 78.8406 49.623 78.6688C49.7742 78.4643 49.8681 78.362 49.9008 78.362C49.9865 78.362 50.1295 78.4643 50.3133 78.6688C50.5012 78.8734 50.5911 78.992 50.5911 79.0288C50.5911 79.1229 50.5502 79.1638 50.4644 79.1638H48.6141V80.0719H49.5005C49.5005 80.0719 49.6108 79.9533 49.7782 79.7365C49.9743 79.4951 50.0887 79.3683 50.1336 79.3683C50.2357 79.3683 50.395 79.487 50.6156 79.7283C50.8361 79.9696 50.9546 80.1128 50.9546 80.166C50.9546 80.2601 50.8974 80.301 50.7953 80.301H48.6182V80.935C48.6182 81.0455 48.4834 81.1232 48.2139 81.1764C48.0954 81.1928 48.0096 81.2009 47.9606 81.2009C47.7564 81.2009 47.6665 81.115 47.6665 80.935C47.6829 80.7141 47.691 80.4973 47.6992 80.301H47.0988C46.6168 80.301 46.2819 80.3174 46.0776 80.3337L45.951 79.9983C46.2124 80.0515 46.5923 80.0678 47.0988 80.0678H47.7074C47.7155 79.8551 47.7237 79.6506 47.7237 79.4624V79.1638H47.4623C46.9803 79.1638 46.6413 79.1802 46.4412 79.1965L46.3145 78.8611C46.576 78.9143 46.9558 78.9306 47.4623 78.9306H47.7237V78.092C47.3275 78.092 47.0048 78.1084 46.7679 78.1248L46.6413 77.7934C46.9354 77.8466 47.2989 77.863 47.7237 77.863V76.9549H46.87C46.7026 76.9549 46.482 76.9712 46.2124 76.9876L46.0776 76.6562C46.4167 76.7053 46.6862 76.7258 46.87 76.7258H47.7237V76.2554C47.7237 76.1285 47.7155 76.0058 47.7155 75.8872C47.16 75.8872 46.7679 75.9036 46.5433 75.9199L46.4085 75.5845C46.7638 75.6377 47.2009 75.654 47.7074 75.654L47.7033 75.6663ZM48.6141 76.734H49.3739V75.8954H48.6141V76.734ZM48.6141 77.8712H49.3739V76.963H48.6141V77.8712Z" fill="#F3D7A3"/>
<path d="M53.4054 76.4681H54.1324C54.1324 76.4681 54.2427 76.3495 54.4102 76.1327C54.6022 75.8913 54.7206 75.7645 54.7574 75.7645C54.8595 75.7645 55.027 75.8831 55.2475 76.1245C55.4681 76.3658 55.5865 76.509 55.5865 76.5622C55.5865 76.6563 55.5294 76.6972 55.4272 76.6972H53.4095C52.9275 76.6972 52.5885 76.7135 52.3883 76.7299L52.2617 76.3945C52.5231 76.4476 52.903 76.464 53.4095 76.464L53.4054 76.4681ZM53.8016 75.3677H53.9691C53.9691 75.3677 54.0712 75.2573 54.2223 75.0527C54.4061 74.8236 54.5246 74.7009 54.5613 74.7009C54.6634 74.7009 54.8146 74.8196 55.0351 75.0445C55.2475 75.2859 55.3578 75.4209 55.3578 75.4741C55.3578 75.56 55.3088 75.6009 55.223 75.6009H53.8057C53.3237 75.6009 52.9847 75.6172 52.7845 75.6336L52.6497 75.3023C52.9193 75.3513 53.2992 75.3718 53.8057 75.3718L53.8016 75.3677ZM53.8016 77.5726H53.9691C53.9691 77.5726 54.0712 77.4621 54.2223 77.2576C54.4061 77.0162 54.5246 76.8976 54.5613 76.8976C54.6634 76.8976 54.8146 77.0162 55.0351 77.2494C55.2475 77.4907 55.3578 77.6257 55.3578 77.6666C55.3578 77.7607 55.3088 77.8016 55.223 77.8016H53.8057C53.3237 77.8016 52.9847 77.818 52.7845 77.8344L52.6497 77.4989C52.9193 77.5521 53.2992 77.5685 53.8057 77.5685L53.8016 77.5726ZM53.7362 79.712H54.0998C54.21 79.5851 54.3203 79.4706 54.4224 79.3683C54.5001 79.2824 54.5654 79.2415 54.6348 79.2415C54.692 79.2415 54.8472 79.3193 55.0841 79.4542C55.3537 79.6424 55.4885 79.7692 55.4885 79.8388C55.4885 79.9165 55.4232 79.9942 55.3047 80.0678C55.2026 80.1374 55.1617 80.2233 55.1617 80.3092V81.0087C55.1617 81.2746 55.1699 81.6346 55.1944 82.0763C55.1944 82.1786 55.0515 82.2645 54.7737 82.3177C54.6471 82.3341 54.5531 82.3422 54.5041 82.3422C54.353 82.3422 54.2754 82.2482 54.2754 82.0763V81.8473H53.6178V82.2154C53.6178 82.3177 53.483 82.4036 53.2134 82.4568C53.095 82.4731 53.0092 82.4813 52.9602 82.4813C52.7723 82.4813 52.6906 82.3872 52.6906 82.2154C52.7069 81.925 52.7233 81.6346 52.7233 81.3441V80.5055C52.7233 80.0965 52.6988 79.7038 52.6538 79.307C53.0092 79.4093 53.3727 79.5361 53.7444 79.7079L53.7362 79.712ZM53.8384 78.6402H53.9731C53.9731 78.6402 54.0753 78.5298 54.2264 78.3252C54.4102 78.0839 54.5286 77.9653 54.5654 77.9653C54.6675 77.9653 54.8186 78.0839 55.0392 78.317C55.2516 78.5584 55.3619 78.6934 55.3619 78.7343C55.3619 78.8284 55.3129 78.8693 55.2271 78.8693H53.8424C53.3605 78.8693 53.0214 78.8856 52.8213 78.902L52.6865 78.5707C52.9561 78.6238 53.336 78.6402 53.8424 78.6402H53.8384ZM54.2672 81.61V79.941H53.6096V81.61H54.2672ZM56.6077 78.7016H58.1966C58.2987 78.6157 58.3804 78.5543 58.4335 78.5216C58.5682 78.4193 58.6785 78.3661 58.7561 78.3661C58.8256 78.3661 59.0012 78.4848 59.279 78.7179C59.5404 78.9756 59.6752 79.1352 59.6752 79.2047C59.6752 79.2824 59.573 79.3315 59.3892 79.352C59.2136 79.3683 59.1033 79.4052 59.0502 79.4379C58.8746 79.8838 58.6213 80.2846 58.2987 80.6528C58.2292 80.7387 58.1639 80.8246 58.0944 80.9023C58.6704 81.201 59.3116 81.4423 60.0101 81.61L59.9774 81.8145C59.7078 81.9086 59.5281 82.0354 59.4546 82.2072C59.3607 82.4118 59.2871 82.514 59.2177 82.514C59.0992 82.514 58.895 82.42 58.5928 82.2482C58.2374 82.0763 57.8657 81.8186 57.4777 81.4955C57.4695 81.4955 57.4695 81.4873 57.4695 81.4873C57.3674 81.5732 57.2653 81.6427 57.1673 81.7C56.6771 82.0436 55.995 82.3259 55.125 82.5468L55.0678 82.375C55.6927 82.0682 56.3177 81.5977 56.9344 80.9637C56.9344 80.9637 56.9426 80.9555 56.9508 80.9473C56.8405 80.8123 56.7384 80.6733 56.6567 80.5178C56.4116 80.1497 56.2074 79.6301 56.0563 78.9429C55.8888 78.9511 55.7458 78.9593 55.6274 78.9675L55.4926 78.632C55.8888 78.6729 56.2605 78.6934 56.6158 78.6934L56.6077 78.7016ZM57.0978 75.3309H57.6288C57.7309 75.2123 57.8249 75.1182 57.8984 75.0405C58.0168 74.9218 58.119 74.8605 58.1925 74.8605C58.3028 74.8605 58.4784 74.9627 58.7235 75.1509C58.9604 75.3391 59.0788 75.4863 59.0788 75.5968C59.0788 75.6745 59.0094 75.7604 58.8746 75.8463C58.7235 75.9158 58.6459 76.0018 58.6459 76.104V76.8731C58.6459 77.008 58.6622 77.0939 58.6949 77.1226C58.7194 77.1553 58.7806 77.1717 58.8787 77.1717L59.0216 77.1471C59.0911 77.1471 59.1564 77.0612 59.2054 76.8894C59.2381 76.7176 59.2994 76.4804 59.3647 76.1695L59.4995 76.194L59.5322 76.5949C59.5322 76.7299 59.5894 76.8771 59.7078 77.0326C59.8753 77.188 59.9611 77.2985 59.9611 77.3639C59.9611 77.5603 59.8508 77.6994 59.6466 77.7812C59.4015 77.8834 59.1401 77.9366 58.8705 77.9366C58.3804 77.9366 58.119 77.9121 58.0699 77.8425C57.8494 77.773 57.7473 77.5071 57.7473 77.0285V75.5559H57.0202C57.012 76.1899 56.9549 76.6849 56.8527 77.0367C56.7343 77.3967 56.5464 77.6871 56.2932 77.8998C56.0318 78.1125 55.7009 78.2925 55.3047 78.4316L55.2353 78.268C55.4313 78.0962 55.5988 77.8998 55.7336 77.6871C55.8194 77.5398 55.901 77.3271 55.9705 77.0367C56.0277 76.7053 56.0644 76.3535 56.0644 75.9936C56.0644 75.5927 56.0399 75.2491 55.995 74.9586C56.4157 75.0691 56.7792 75.1877 57.0774 75.3268L57.0978 75.3309ZM56.8773 79.9329C57.0202 80.121 57.1877 80.2846 57.3756 80.4278C57.686 79.9983 57.9597 79.5033 58.1966 78.9388H56.2727C56.4239 79.2988 56.6281 79.622 56.8813 79.9288L56.8773 79.9329Z" fill="#F3D7A3"/>
<path d="M85.8978 70.9825H0.102051V86.6538H85.8978V70.9825Z" stroke="#F3D7A3" stroke-width="0.5" stroke-miterlimit="10"/>
<path d="M40.4573 91.5912L45.5466 96.6881" stroke="#F3D7A3" stroke-miterlimit="10"/>
<path d="M45.5466 91.5912L40.4573 96.6881" stroke="#F3D7A3" stroke-miterlimit="10"/>
<path d="M43.4187 63.8812V27" stroke="white" stroke-miterlimit="10"/>
</g>
<defs>
<clipPath id="clip0_141_697">
<rect width="86" height="89" fill="white" transform="translate(0 27)"/>
</clipPath>
</defs>
</svg>
